M48
; DRILL file {KiCad 7.0.7} date Sun Jan 28 22:11:07 2024
; FORMAT={-:-/ absolute / metric / decimal}
; #@! TF.CreationDate,2024-01-28T22:11:07-03:30
; #@! TF.GenerationSoftware,Kicad,Pcbnew,7.0.7
; #@! TF.FileFunction,Plated,1,4,PTH
FMAT,2
METRIC
; #@! TA.AperFunction,Plated,PTH,ViaDrill
T1C0.300
; #@! TA.AperFunction,Plated,PTH,ViaDrill
T2C0.400
; #@! TA.AperFunction,Plated,PTH,ComponentDrill
T3C0.950
; #@! TA.AperFunction,Plated,PTH,ComponentDrill
T4C1.000
; #@! TA.AperFunction,Plated,PTH,ComponentDrill
T5C1.100
; #@! TA.AperFunction,Plated,PTH,ComponentDrill
T6C1.200
; #@! TA.AperFunction,Plated,PTH,ComponentDrill
T7C1.300
; #@! TA.AperFunction,Plated,PTH,ComponentDrill
T8C2.300
%
G90
G05
T1
X107.95Y-82.55
X107.95Y-88.9
X107.95Y-95.25
X107.95Y-107.95
X107.95Y-114.3
X107.95Y-120.65
X107.98Y-101.46
X110.52Y-101.47
X111.76Y-116.84
X111.76Y-121.92
X112.9Y-121.39
X113.06Y-101.45
X113.51Y-117.84
X114.16Y-116.95
X114.3Y-82.55
X114.3Y-88.9
X114.3Y-95.25
X114.81Y-117.84
X115.46Y-112.3
X116.66Y-115.95
X117.04Y-106.98
X117.39Y-114.75
X117.45Y-116.66
X117.75Y-115.36
X117.8Y-106.98
X118.56Y-106.98
X118.74Y-117.98
X119.32Y-106.98
X120.21Y-119.32
X120.65Y-82.55
X120.65Y-88.9
X120.65Y-120.65
X121.16Y-108.34
X122.44Y-109.73
X123.17Y-120.23
X125.03Y-111.35
X125.73Y-113.09
X126.58Y-111.36
X126.9Y-106.87
X127.0Y-95.25
X127.07Y-113.66
X127.25Y-110.41
X127.9Y-109.46
X128.81Y-108.73
X129.06Y-116.68
X129.953Y-108.73
X130.35Y-115.76
X130.88Y-74.71
X131.097Y-108.73
X131.295Y-115.76
X132.2Y-108.92
X132.24Y-109.743
X132.24Y-110.746
X132.24Y-111.749
X132.24Y-112.751
X132.24Y-113.754
X132.24Y-114.757
X132.24Y-115.76
X132.57Y-74.68
X132.57Y-88.33
X132.64Y-85.66
X132.64Y-86.76
X133.093Y-107.007
X133.1Y-105.04
X133.35Y-76.2
X133.35Y-120.65
X134.96Y-117.94
X137.16Y-96.52
X137.16Y-99.06
X137.98Y-108.97
X138.09Y-111.95
X138.44Y-117.94
X139.7Y-83.82
X139.7Y-95.25
X141.46Y-108.94
X141.61Y-111.94
X142.24Y-83.82
X142.45Y-74.37
X142.76Y-82.18
X143.6Y-82.16
X145.73Y-80.25
X146.05Y-82.55
X146.05Y-95.25
X147.32Y-83.82
X147.32Y-86.36
X147.32Y-88.9
X147.32Y-111.76
X147.32Y-116.84
X147.41Y-101.427
X147.98Y-99.91
X148.08Y-102.96
X148.08Y-103.61
X148.08Y-104.26
X148.08Y-104.91
X148.6Y-99.91
X148.61Y-107.28
X149.22Y-99.91
X149.84Y-99.91
X149.86Y-83.82
X149.86Y-86.36
X149.86Y-88.9
X150.695Y-111.28
X152.13Y-95.38
X152.4Y-83.82
X152.4Y-86.36
X152.4Y-88.9
X152.4Y-107.95
X153.427Y-95.38
X153.52Y-75.92
X154.723Y-95.38
X154.94Y-86.36
X154.94Y-88.9
X155.21Y-110.88
X155.448Y-82.042
X155.48Y-83.31
X156.02Y-95.38
X156.34Y-76.07
X157.117Y-76.34
X157.152Y-77.038
X157.66Y-75.88
X157.67Y-108.822
X157.67Y-109.843
X157.67Y-110.852
X158.44Y-108.812
X158.44Y-109.832
X158.44Y-110.843
X159.159Y-76.577
X159.24Y-75.78
X159.655Y-77.15
X160.68Y-105.07
X161.98Y-78.64
X162.03Y-81.29
X162.94Y-106.26
X162.95Y-106.89
X163.695Y-106.26
X163.705Y-106.89
X164.45Y-106.26
X164.46Y-106.89
T2
X138.27Y-104.92
X138.27Y-105.97
X140.44Y-119.26
X142.019Y-114.391
X143.221Y-113.189
X145.28Y-120.22
T3
X159.94Y-93.81
X159.94Y-96.31
X159.94Y-98.31
X159.94Y-100.81
T4
X108.56Y-68.61
X108.56Y-71.15
X111.1Y-68.61
X111.1Y-71.15
X113.64Y-68.61
X113.64Y-71.15
X116.18Y-68.61
X116.18Y-71.15
X118.72Y-68.61
X118.72Y-71.15
X121.26Y-68.61
X121.26Y-71.15
X123.8Y-68.61
X123.8Y-71.15
X126.34Y-68.61
X126.34Y-71.15
X128.88Y-68.61
X128.88Y-71.15
X131.42Y-68.61
X131.42Y-71.15
X133.96Y-68.61
X133.96Y-71.15
X136.5Y-68.61
X136.5Y-71.15
X139.04Y-68.61
X139.04Y-71.15
X141.58Y-68.61
X141.58Y-71.15
X144.12Y-68.61
X144.12Y-71.15
X146.66Y-68.61
X146.66Y-71.15
X149.2Y-68.61
X149.2Y-71.15
X151.74Y-68.61
X151.74Y-71.15
X154.28Y-68.61
X154.28Y-71.15
X156.82Y-68.61
X156.82Y-71.15
T6
X116.57Y-109.21
X132.32Y-97.26
X132.32Y-100.89
T8
X162.65Y-90.74
X162.65Y-103.88
T4
X104.11Y-110.04G85X102.61Y-110.04
G05
T5
X154.4Y-113.2G85X152.3Y-113.2
G05
X154.4Y-119.5G85X152.3Y-119.5
G05
T7
X112.06Y-110.64G85X112.06Y-109.44
G05
T0
M30
