%TF.GenerationSoftware,KiCad,Pcbnew,7.0.2-0*%
%TF.CreationDate,2024-01-28T21:47:35-03:30*%
%TF.ProjectId,ground-station,67726f75-6e64-42d7-9374-6174696f6e2e,rev?*%
%TF.SameCoordinates,Original*%
%TF.FileFunction,Soldermask,Bot*%
%TF.FilePolarity,Negative*%
%FSLAX46Y46*%
G04 Gerber Fmt 4.6, Leading zero omitted, Abs format (unit mm)*
G04 Created by KiCad (PCBNEW 7.0.2-0) date 2024-01-28 21:47:35*
%MOMM*%
%LPD*%
G01*
G04 APERTURE LIST*
%ADD10R,1.700000X1.700000*%
%ADD11O,1.700000X1.700000*%
%ADD12C,2.750000*%
%ADD13O,2.300000X3.500000*%
%ADD14O,3.500000X2.000000*%
%ADD15O,3.700000X1.600000*%
%ADD16C,2.500000*%
%ADD17R,1.500000X1.600000*%
%ADD18C,1.600000*%
%ADD19C,3.000000*%
G04 APERTURE END LIST*
D10*
%TO.C,J101*%
X108560000Y-71150000D03*
D11*
X108560000Y-68610000D03*
X111100000Y-71150000D03*
X111100000Y-68610000D03*
X113640000Y-71150000D03*
X113640000Y-68610000D03*
X116180000Y-71150000D03*
X116180000Y-68610000D03*
X118720000Y-71150000D03*
X118720000Y-68610000D03*
X121260000Y-71150000D03*
X121260000Y-68610000D03*
X123800000Y-71150000D03*
X123800000Y-68610000D03*
X126340000Y-71150000D03*
X126340000Y-68610000D03*
X128880000Y-71150000D03*
X128880000Y-68610000D03*
X131420000Y-71150000D03*
X131420000Y-68610000D03*
X133960000Y-71150000D03*
X133960000Y-68610000D03*
X136500000Y-71150000D03*
X136500000Y-68610000D03*
X139040000Y-71150000D03*
X139040000Y-68610000D03*
X141580000Y-71150000D03*
X141580000Y-68610000D03*
X144120000Y-71150000D03*
X144120000Y-68610000D03*
X146660000Y-71150000D03*
X146660000Y-68610000D03*
X149200000Y-71150000D03*
X149200000Y-68610000D03*
X151740000Y-71150000D03*
X151740000Y-68610000D03*
X154280000Y-71150000D03*
X154280000Y-68610000D03*
X156820000Y-71150000D03*
X156820000Y-68610000D03*
%TD*%
D12*
%TO.C,*%
X103690000Y-118880000D03*
%TD*%
%TO.C,*%
X161690000Y-118880000D03*
%TD*%
D13*
%TO.C,J3*%
X112060000Y-110040000D03*
D14*
X103360000Y-110040000D03*
%TD*%
D15*
%TO.C,J2*%
X153350000Y-113200000D03*
X153350000Y-119500000D03*
%TD*%
D16*
%TO.C,TP1*%
X132320000Y-97260000D03*
%TD*%
D17*
%TO.C,J1*%
X159940000Y-100810000D03*
D18*
X159940000Y-98310000D03*
X159940000Y-96310000D03*
X159940000Y-93810000D03*
D19*
X162650000Y-103880000D03*
X162650000Y-90740000D03*
%TD*%
D16*
%TO.C,TP2*%
X132320000Y-100890000D03*
%TD*%
D12*
%TO.C,*%
X103690000Y-69880000D03*
%TD*%
%TO.C,*%
X161690000Y-69880000D03*
%TD*%
D16*
%TO.C,TP3*%
X116570000Y-109210000D03*
%TD*%
M02*
