%TF.GenerationSoftware,KiCad,Pcbnew,7.0.2-0*%
%TF.CreationDate,2024-01-28T21:47:35-03:30*%
%TF.ProjectId,ground-station,67726f75-6e64-42d7-9374-6174696f6e2e,rev?*%
%TF.SameCoordinates,Original*%
%TF.FileFunction,Copper,L2,Inr*%
%TF.FilePolarity,Positive*%
%FSLAX46Y46*%
G04 Gerber Fmt 4.6, Leading zero omitted, Abs format (unit mm)*
G04 Created by KiCad (PCBNEW 7.0.2-0) date 2024-01-28 21:47:35*
%MOMM*%
%LPD*%
G01*
G04 APERTURE LIST*
%TA.AperFunction,ComponentPad*%
%ADD10R,1.700000X1.700000*%
%TD*%
%TA.AperFunction,ComponentPad*%
%ADD11O,1.700000X1.700000*%
%TD*%
%TA.AperFunction,ComponentPad*%
%ADD12O,2.300000X3.500000*%
%TD*%
%TA.AperFunction,ComponentPad*%
%ADD13O,3.500000X2.000000*%
%TD*%
%TA.AperFunction,ComponentPad*%
%ADD14O,3.700000X1.600000*%
%TD*%
%TA.AperFunction,ComponentPad*%
%ADD15C,2.500000*%
%TD*%
%TA.AperFunction,ComponentPad*%
%ADD16R,1.500000X1.600000*%
%TD*%
%TA.AperFunction,ComponentPad*%
%ADD17C,1.600000*%
%TD*%
%TA.AperFunction,ComponentPad*%
%ADD18C,3.000000*%
%TD*%
%TA.AperFunction,ViaPad*%
%ADD19C,0.500000*%
%TD*%
%TA.AperFunction,ViaPad*%
%ADD20C,0.800000*%
%TD*%
G04 APERTURE END LIST*
D10*
%TO.N,unconnected-(J101-3V3-Pad1)*%
%TO.C,J101*%
X108560000Y-71150000D03*
D11*
%TO.N,Net-(J101-5V-Pad2)*%
X108560000Y-68610000D03*
%TO.N,unconnected-(J101-SDA{slash}GPIO2-Pad3)*%
X111100000Y-71150000D03*
%TO.N,Net-(J101-5V-Pad2)*%
X111100000Y-68610000D03*
%TO.N,unconnected-(J101-SCL{slash}GPIO3-Pad5)*%
X113640000Y-71150000D03*
%TO.N,GND*%
X113640000Y-68610000D03*
%TO.N,/DIGITAL_RADIO_DIO1*%
X116180000Y-71150000D03*
%TO.N,/GPS_UART_RX*%
X116180000Y-68610000D03*
%TO.N,GND*%
X118720000Y-71150000D03*
%TO.N,/GPS_UART_TX*%
X118720000Y-68610000D03*
%TO.N,unconnected-(J101-GPIO17-Pad11)*%
X121260000Y-71150000D03*
%TO.N,unconnected-(J101-GPIO18{slash}PWM0-Pad12)*%
X121260000Y-68610000D03*
%TO.N,/VIDEO_CH3*%
X123800000Y-71150000D03*
%TO.N,GND*%
X123800000Y-68610000D03*
%TO.N,/~{DIGITIZER_PWRDWN}*%
X126340000Y-71150000D03*
%TO.N,/~{DIGITIZER_RESET}*%
X126340000Y-68610000D03*
%TO.N,unconnected-(J101-3V3-Pad17)*%
X128880000Y-71150000D03*
%TO.N,unconnected-(J101-GPIO24-Pad18)*%
X128880000Y-68610000D03*
%TO.N,/DIGITAL_RADIO_MOSI*%
X131420000Y-71150000D03*
%TO.N,GND*%
X131420000Y-68610000D03*
%TO.N,/DIGITAL_RADIO_MISO*%
X133960000Y-71150000D03*
%TO.N,/VIDEO_CH1*%
X133960000Y-68610000D03*
%TO.N,/DIGITAL_RADIO_SCLK*%
X136500000Y-71150000D03*
%TO.N,/~{DIGITAL_RADIO_nCS}*%
X136500000Y-68610000D03*
%TO.N,GND*%
X139040000Y-71150000D03*
%TO.N,/~{DIGITAL_RADIO_RESET}*%
X139040000Y-68610000D03*
%TO.N,unconnected-(J101-ID_SD{slash}GPIO0-Pad27)*%
X141580000Y-71150000D03*
%TO.N,unconnected-(J101-ID_SC{slash}GPIO1-Pad28)*%
X141580000Y-68610000D03*
%TO.N,/DIGITAL_RADIO_DIO3*%
X144120000Y-71150000D03*
%TO.N,GND*%
X144120000Y-68610000D03*
%TO.N,/DIGITAL_RADIO_BUSY*%
X146660000Y-71150000D03*
%TO.N,unconnected-(J101-PWM0{slash}GPIO12-Pad32)*%
X146660000Y-68610000D03*
%TO.N,/~{DIGITIZER_INTRQ}*%
X149200000Y-71150000D03*
%TO.N,GND*%
X149200000Y-68610000D03*
%TO.N,unconnected-(J101-GPIO19{slash}MISO1-Pad35)*%
X151740000Y-71150000D03*
%TO.N,/~{GPS_RESET}*%
X151740000Y-68610000D03*
%TO.N,/VIDEO_CH2*%
X154280000Y-71150000D03*
%TO.N,unconnected-(J101-GPIO20{slash}MOSI1-Pad38)*%
X154280000Y-68610000D03*
%TO.N,GND*%
X156820000Y-71150000D03*
%TO.N,unconnected-(J101-GPIO21{slash}SCLK1-Pad40)*%
X156820000Y-68610000D03*
%TD*%
D12*
%TO.N,Net-(J3-In)*%
%TO.C,J3*%
X112060000Y-110040000D03*
D13*
%TO.N,GND*%
X103360000Y-110040000D03*
%TD*%
D14*
%TO.N,+5V*%
%TO.C,J2*%
X153350000Y-113200000D03*
%TO.N,GND*%
X153350000Y-119500000D03*
%TD*%
D15*
%TO.N,Net-(U202-RSSI)*%
%TO.C,TP1*%
X132320000Y-97260000D03*
%TD*%
D16*
%TO.N,+5V*%
%TO.C,J1*%
X159940000Y-100810000D03*
D17*
%TO.N,unconnected-(J1-D--Pad2)*%
X159940000Y-98310000D03*
%TO.N,unconnected-(J1-D+-Pad3)*%
X159940000Y-96310000D03*
%TO.N,GND*%
X159940000Y-93810000D03*
D18*
%TO.N,Net-(J1-Shield)*%
X162650000Y-103880000D03*
X162650000Y-90740000D03*
%TD*%
D15*
%TO.N,Net-(U202-AUDIO)*%
%TO.C,TP2*%
X132320000Y-100890000D03*
%TD*%
%TO.N,Net-(U601-AIN2)*%
%TO.C,TP3*%
X116570000Y-109210000D03*
%TD*%
D19*
%TO.N,+5V*%
X119320000Y-106980000D03*
X117800000Y-106980000D03*
X117040000Y-106980000D03*
X118560000Y-106980000D03*
%TO.N,GND*%
X147320000Y-111760000D03*
X132240000Y-111748571D03*
X107950000Y-107950000D03*
X147320000Y-88900000D03*
X132240000Y-109742857D03*
X130350000Y-115760000D03*
X114300000Y-88900000D03*
X152400000Y-86360000D03*
X125730000Y-113090000D03*
X139700000Y-83820000D03*
X132240000Y-113754285D03*
X147980000Y-99910000D03*
X154940000Y-86360000D03*
X131096666Y-108730000D03*
X127900000Y-109460000D03*
X157670000Y-109842500D03*
X117450000Y-116660000D03*
X158440000Y-108812500D03*
X138440000Y-117940000D03*
X148080000Y-102960000D03*
X158440000Y-110842500D03*
X149860000Y-86360000D03*
X107950000Y-120650000D03*
X149220000Y-99910000D03*
X155210000Y-110880000D03*
X158440000Y-109832500D03*
X132200000Y-108920000D03*
X147320000Y-83820000D03*
X127000000Y-95250000D03*
X132240000Y-114757142D03*
X152400000Y-107950000D03*
X120650000Y-88900000D03*
X141460000Y-108940000D03*
X137980000Y-108970000D03*
X147320000Y-116840000D03*
X152400000Y-83820000D03*
X141610000Y-111940000D03*
X159240000Y-75780000D03*
X154940000Y-88900000D03*
X107950000Y-82550000D03*
X148080000Y-104910000D03*
X127250000Y-110410000D03*
X111760000Y-121920000D03*
X147320000Y-86360000D03*
X157670000Y-108822500D03*
X107950000Y-114300000D03*
X114300000Y-82550000D03*
X155448000Y-82042000D03*
X146050000Y-82550000D03*
X107950000Y-88900000D03*
X132240000Y-110745714D03*
X122440000Y-109730000D03*
X132240000Y-112751428D03*
X134960000Y-117940000D03*
X138090000Y-111950000D03*
X129953333Y-108730000D03*
X148600000Y-99910000D03*
X128810000Y-108730000D03*
X132240000Y-115760000D03*
X107950000Y-95250000D03*
X152400000Y-88900000D03*
X127070000Y-113660000D03*
X137160000Y-96520000D03*
X142240000Y-83820000D03*
X126580000Y-111360000D03*
X150695000Y-111280000D03*
X149860000Y-83820000D03*
X148080000Y-103610000D03*
X114300000Y-95250000D03*
X160680000Y-105070000D03*
X131295000Y-115760000D03*
X146050000Y-95250000D03*
X133350000Y-76200000D03*
X162030000Y-81290000D03*
X133350000Y-120650000D03*
X120650000Y-82550000D03*
X149840000Y-99910000D03*
X139700000Y-95250000D03*
X142760000Y-82180000D03*
X137160000Y-99060000D03*
X118740000Y-117980000D03*
X157670000Y-110852500D03*
X149860000Y-88900000D03*
X148080000Y-104260000D03*
X111760000Y-116840000D03*
X145730000Y-80250000D03*
X120650000Y-120650000D03*
%TO.N,+3V3*%
X161980000Y-78640000D03*
X114160000Y-116950000D03*
X133092500Y-107007500D03*
X113510000Y-117840000D03*
X114810000Y-117840000D03*
X152130000Y-95380000D03*
X154723332Y-95380000D03*
X155480000Y-83310000D03*
X153426666Y-95380000D03*
X156020000Y-95380000D03*
X143600000Y-82160000D03*
X132570000Y-88330000D03*
%TO.N,/Video Digitizer/DIGITIZER_ANALOG_SUPPLY*%
X121160000Y-108340000D03*
X125030000Y-111350000D03*
%TO.N,/Video Digitizer/DIGITIZER_DIGITAL_SUPPLY*%
X129060000Y-116680000D03*
X120210000Y-119320000D03*
%TO.N,/Video Digitizer/VID_EN_1V8*%
X133100000Y-105040000D03*
X112900000Y-121390000D03*
%TO.N,/DIGITAL_RADIO_DIO1*%
X159655500Y-77150000D03*
%TO.N,/DIGITAL_RADIO_BUSY*%
X159159500Y-76577406D03*
%TO.N,/~{DIGITAL_RADIO_RESET}*%
X157660000Y-75880000D03*
%TO.N,/~{DIGITAL_RADIO_nCS}*%
X153520000Y-75920000D03*
%TO.N,/DIGITAL_RADIO_MISO*%
X157117001Y-76339646D03*
%TO.N,/DIGITAL_RADIO_MOSI*%
X157151714Y-77038286D03*
%TO.N,/DIGITAL_RADIO_SCLK*%
X156340000Y-76070500D03*
%TO.N,Net-(J101-5V-Pad2)*%
X164460000Y-106890000D03*
X162940000Y-106260000D03*
X162950000Y-106890000D03*
X163705000Y-106890000D03*
X163695000Y-106260000D03*
X164450000Y-106260000D03*
%TO.N,/GPS_UART_RX*%
X132640000Y-86760000D03*
%TO.N,/GPS_UART_TX*%
X132640000Y-85660000D03*
%TO.N,/VIDEO_CH3*%
X130880000Y-74710000D03*
X113060000Y-101450000D03*
%TO.N,/~{DIGITIZER_PWRDWN}*%
X116660000Y-115950000D03*
%TO.N,/~{DIGITIZER_RESET}*%
X115460000Y-112300000D03*
%TO.N,/VIDEO_CH1*%
X107980000Y-101460000D03*
X132570000Y-74680000D03*
%TO.N,/~{DIGITIZER_INTRQ}*%
X123170000Y-120230000D03*
%TO.N,/VIDEO_CH2*%
X110520000Y-101470000D03*
X142450000Y-74370000D03*
D20*
%TO.N,/CAM_D1_CONN_N*%
X142018959Y-114391041D03*
X140440000Y-119260000D03*
%TO.N,/CAM_D1_CONN_P*%
X145280000Y-120220000D03*
X143221041Y-113188959D03*
D19*
%TO.N,/CAM_SCL*%
X117750000Y-115360000D03*
D20*
X138270000Y-105970000D03*
%TO.N,/CAM_SDA*%
X138270000Y-104920000D03*
D19*
X117390000Y-114750000D03*
%TO.N,Net-(U3-EN)*%
X147410453Y-101426921D03*
X148610000Y-107280000D03*
%TO.N,Net-(J3-In)*%
X126900000Y-106870000D03*
%TD*%
%TA.AperFunction,Conductor*%
%TO.N,GND*%
G36*
X162193472Y-66180695D02*
G01*
X162485306Y-66197084D01*
X162499103Y-66198638D01*
X162783827Y-66247015D01*
X162797384Y-66250109D01*
X163074899Y-66330060D01*
X163088025Y-66334653D01*
X163354841Y-66445172D01*
X163367355Y-66451198D01*
X163533444Y-66542992D01*
X163620125Y-66590899D01*
X163631899Y-66598297D01*
X163867430Y-66765415D01*
X163878302Y-66774085D01*
X163901346Y-66794678D01*
X164018563Y-66899430D01*
X164093642Y-66966524D01*
X164103473Y-66976355D01*
X164196053Y-67079952D01*
X164295914Y-67191697D01*
X164304584Y-67202569D01*
X164471702Y-67438100D01*
X164479100Y-67449874D01*
X164618797Y-67702637D01*
X164624830Y-67715165D01*
X164735346Y-67981975D01*
X164739939Y-67995100D01*
X164819890Y-68272615D01*
X164822984Y-68286172D01*
X164871359Y-68570885D01*
X164872916Y-68584703D01*
X164889305Y-68876527D01*
X164889500Y-68883480D01*
X164889500Y-68910715D01*
X164869815Y-68977754D01*
X164817011Y-69023509D01*
X164747853Y-69033453D01*
X164684297Y-69004428D01*
X164647569Y-68949033D01*
X164630479Y-68896436D01*
X164583964Y-68753277D01*
X164436664Y-68430734D01*
X164253557Y-68127085D01*
X164037029Y-67846287D01*
X163897424Y-67702637D01*
X163792380Y-67594549D01*
X163792373Y-67594543D01*
X163789905Y-67592003D01*
X163515405Y-67367545D01*
X163217109Y-67175841D01*
X163213686Y-67174158D01*
X162902078Y-67020951D01*
X162902070Y-67020947D01*
X162898904Y-67019391D01*
X162895582Y-67018206D01*
X162895571Y-67018201D01*
X162568274Y-66901421D01*
X162568259Y-66901416D01*
X162564939Y-66900232D01*
X162548688Y-66896453D01*
X162223011Y-66820720D01*
X162223000Y-66820718D01*
X162219568Y-66819920D01*
X162216067Y-66819518D01*
X162216054Y-66819516D01*
X161870810Y-66779903D01*
X161870800Y-66779902D01*
X161867293Y-66779500D01*
X161601424Y-66779500D01*
X161599669Y-66779600D01*
X161599646Y-66779601D01*
X161339531Y-66794475D01*
X161339520Y-66794476D01*
X161335992Y-66794678D01*
X161332511Y-66795280D01*
X161332497Y-66795282D01*
X160990090Y-66854539D01*
X160986600Y-66855143D01*
X160983209Y-66856138D01*
X160983199Y-66856141D01*
X160649771Y-66954044D01*
X160649764Y-66954046D01*
X160646377Y-66955041D01*
X160643127Y-66956414D01*
X160643117Y-66956418D01*
X160323027Y-67091689D01*
X160323013Y-67091695D01*
X160319759Y-67093071D01*
X160316683Y-67094808D01*
X160316673Y-67094813D01*
X160014077Y-67265696D01*
X160014062Y-67265705D01*
X160011005Y-67267432D01*
X160008156Y-67269501D01*
X160008148Y-67269507D01*
X159726998Y-67473775D01*
X159726989Y-67473782D01*
X159724139Y-67475853D01*
X159721542Y-67478236D01*
X159721534Y-67478243D01*
X159465511Y-67713219D01*
X159465505Y-67713224D01*
X159462901Y-67715615D01*
X159460592Y-67718279D01*
X159460580Y-67718292D01*
X159233013Y-67980919D01*
X159230696Y-67983593D01*
X159228703Y-67986507D01*
X159228695Y-67986518D01*
X159032557Y-68273360D01*
X159032547Y-68273375D01*
X159030552Y-68276294D01*
X159028903Y-68279418D01*
X159028894Y-68279434D01*
X158866732Y-68586768D01*
X158866727Y-68586776D01*
X158865079Y-68589902D01*
X158863793Y-68593204D01*
X158863793Y-68593205D01*
X158740175Y-68910715D01*
X158736432Y-68920328D01*
X158735534Y-68923740D01*
X158735530Y-68923756D01*
X158647192Y-69259830D01*
X158647189Y-69259840D01*
X158646290Y-69263264D01*
X158645785Y-69266771D01*
X158645785Y-69266775D01*
X158612945Y-69495186D01*
X158595827Y-69614241D01*
X158595725Y-69617785D01*
X158595725Y-69617794D01*
X158585802Y-69965127D01*
X158585802Y-69965137D01*
X158585701Y-69968683D01*
X158586004Y-69972221D01*
X158586005Y-69972224D01*
X158605629Y-70200698D01*
X158616045Y-70321968D01*
X158616749Y-70325445D01*
X158616750Y-70325448D01*
X158685757Y-70666012D01*
X158685760Y-70666026D01*
X158686463Y-70669492D01*
X158687557Y-70672861D01*
X158687559Y-70672866D01*
X158748369Y-70860021D01*
X158796036Y-71006723D01*
X158797509Y-71009949D01*
X158797512Y-71009956D01*
X158872077Y-71173231D01*
X158943336Y-71329266D01*
X159126443Y-71632915D01*
X159342971Y-71913713D01*
X159458953Y-72033056D01*
X159587619Y-72165450D01*
X159587625Y-72165456D01*
X159590095Y-72167997D01*
X159864595Y-72392455D01*
X160162891Y-72584159D01*
X160481096Y-72740609D01*
X160484425Y-72741797D01*
X160484428Y-72741798D01*
X160811725Y-72858578D01*
X160811729Y-72858579D01*
X160815061Y-72859768D01*
X161160432Y-72940080D01*
X161512707Y-72980500D01*
X161516250Y-72980500D01*
X161776791Y-72980500D01*
X161778576Y-72980500D01*
X162044008Y-72965322D01*
X162393400Y-72904857D01*
X162733623Y-72804959D01*
X163060241Y-72666929D01*
X163368995Y-72492568D01*
X163655861Y-72284147D01*
X163917099Y-72044385D01*
X164149304Y-71776407D01*
X164349448Y-71483706D01*
X164514921Y-71170098D01*
X164643568Y-70839672D01*
X164645574Y-70832038D01*
X164681653Y-70772208D01*
X164744354Y-70741379D01*
X164813768Y-70749343D01*
X164867858Y-70793571D01*
X164889449Y-70860021D01*
X164889500Y-70863563D01*
X164889500Y-105715660D01*
X164869815Y-105782699D01*
X164817011Y-105828454D01*
X164747853Y-105838398D01*
X164698460Y-105819975D01*
X164686390Y-105812218D01*
X164661732Y-105796371D01*
X164522536Y-105755500D01*
X164377464Y-105755500D01*
X164238268Y-105796371D01*
X164139539Y-105859820D01*
X164072499Y-105879504D01*
X164005461Y-105859820D01*
X163931390Y-105812218D01*
X163906732Y-105796371D01*
X163767536Y-105755500D01*
X163622464Y-105755500D01*
X163483268Y-105796371D01*
X163384539Y-105859820D01*
X163317499Y-105879504D01*
X163250461Y-105859820D01*
X163176390Y-105812218D01*
X163151732Y-105796371D01*
X163151730Y-105796370D01*
X163136734Y-105786733D01*
X163137499Y-105785541D01*
X163097770Y-105760006D01*
X163068749Y-105696449D01*
X163078697Y-105627291D01*
X163124455Y-105574490D01*
X163154932Y-105560320D01*
X163292788Y-105517798D01*
X163529710Y-105403702D01*
X163746980Y-105255570D01*
X163939746Y-105076710D01*
X164103701Y-104871117D01*
X164235183Y-104643384D01*
X164331254Y-104398598D01*
X164389769Y-104142228D01*
X164409420Y-103880000D01*
X164389769Y-103617772D01*
X164331254Y-103361402D01*
X164235183Y-103116616D01*
X164103701Y-102888883D01*
X163939746Y-102683290D01*
X163746980Y-102504430D01*
X163529710Y-102356298D01*
X163529709Y-102356297D01*
X163529707Y-102356296D01*
X163347647Y-102268621D01*
X163292788Y-102242202D01*
X163215276Y-102218292D01*
X163041507Y-102164691D01*
X162781482Y-102125500D01*
X162518518Y-102125500D01*
X162258492Y-102164691D01*
X162007212Y-102242202D01*
X161770292Y-102356296D01*
X161553018Y-102504431D01*
X161360253Y-102683290D01*
X161196298Y-102888883D01*
X161064816Y-103116617D01*
X160968746Y-103361399D01*
X160910230Y-103617774D01*
X160890579Y-103880000D01*
X160910230Y-104142225D01*
X160968746Y-104398600D01*
X161064816Y-104643382D01*
X161134710Y-104764443D01*
X161196299Y-104871117D01*
X161360254Y-105076710D01*
X161553020Y-105255570D01*
X161770290Y-105403702D01*
X162007212Y-105517798D01*
X162258492Y-105595308D01*
X162518518Y-105634500D01*
X162557841Y-105634500D01*
X162624880Y-105654185D01*
X162670635Y-105706989D01*
X162680579Y-105776147D01*
X162651554Y-105839703D01*
X162624884Y-105862812D01*
X162613744Y-105869971D01*
X162606224Y-105874804D01*
X162511222Y-105984443D01*
X162450957Y-106116403D01*
X162430312Y-106260000D01*
X162450957Y-106403596D01*
X162510710Y-106534435D01*
X162520654Y-106603594D01*
X162510711Y-106637458D01*
X162460957Y-106746404D01*
X162440312Y-106890000D01*
X162460957Y-107033596D01*
X162507908Y-107136403D01*
X162521223Y-107165558D01*
X162616225Y-107275196D01*
X162738268Y-107353629D01*
X162877464Y-107394500D01*
X163022536Y-107394500D01*
X163161732Y-107353629D01*
X163260463Y-107290177D01*
X163327498Y-107270494D01*
X163394537Y-107290178D01*
X163493268Y-107353629D01*
X163632464Y-107394500D01*
X163777536Y-107394500D01*
X163916732Y-107353629D01*
X164015462Y-107290178D01*
X164082499Y-107270494D01*
X164149535Y-107290177D01*
X164248268Y-107353629D01*
X164387464Y-107394500D01*
X164532536Y-107394500D01*
X164671732Y-107353629D01*
X164698463Y-107336449D01*
X164765499Y-107316766D01*
X164832538Y-107336450D01*
X164878294Y-107389253D01*
X164889500Y-107440766D01*
X164889500Y-117910715D01*
X164869815Y-117977754D01*
X164817011Y-118023509D01*
X164747853Y-118033453D01*
X164684297Y-118004428D01*
X164647569Y-117949033D01*
X164585061Y-117756654D01*
X164583964Y-117753277D01*
X164436664Y-117430734D01*
X164253557Y-117127085D01*
X164037029Y-116846287D01*
X163870023Y-116674442D01*
X163792380Y-116594549D01*
X163792373Y-116594543D01*
X163789905Y-116592003D01*
X163515405Y-116367545D01*
X163217109Y-116175841D01*
X163213686Y-116174158D01*
X162902078Y-116020951D01*
X162902070Y-116020947D01*
X162898904Y-116019391D01*
X162895582Y-116018206D01*
X162895571Y-116018201D01*
X162568274Y-115901421D01*
X162568259Y-115901416D01*
X162564939Y-115900232D01*
X162548688Y-115896453D01*
X162223011Y-115820720D01*
X162223000Y-115820718D01*
X162219568Y-115819920D01*
X162216067Y-115819518D01*
X162216054Y-115819516D01*
X161870810Y-115779903D01*
X161870800Y-115779902D01*
X161867293Y-115779500D01*
X161601424Y-115779500D01*
X161599669Y-115779600D01*
X161599646Y-115779601D01*
X161339531Y-115794475D01*
X161339520Y-115794476D01*
X161335992Y-115794678D01*
X161332511Y-115795280D01*
X161332497Y-115795282D01*
X160990090Y-115854539D01*
X160986600Y-115855143D01*
X160983209Y-115856138D01*
X160983199Y-115856141D01*
X160649771Y-115954044D01*
X160649764Y-115954046D01*
X160646377Y-115955041D01*
X160643127Y-115956414D01*
X160643117Y-115956418D01*
X160323027Y-116091689D01*
X160323013Y-116091695D01*
X160319759Y-116093071D01*
X160316683Y-116094808D01*
X160316673Y-116094813D01*
X160014077Y-116265696D01*
X160014062Y-116265705D01*
X160011005Y-116267432D01*
X160008156Y-116269501D01*
X160008148Y-116269507D01*
X159726998Y-116473775D01*
X159726989Y-116473782D01*
X159724139Y-116475853D01*
X159721542Y-116478236D01*
X159721534Y-116478243D01*
X159465511Y-116713219D01*
X159465505Y-116713224D01*
X159462901Y-116715615D01*
X159460592Y-116718279D01*
X159460580Y-116718292D01*
X159233013Y-116980919D01*
X159230696Y-116983593D01*
X159228703Y-116986507D01*
X159228695Y-116986518D01*
X159032557Y-117273360D01*
X159032547Y-117273375D01*
X159030552Y-117276294D01*
X159028903Y-117279418D01*
X159028894Y-117279434D01*
X158866732Y-117586768D01*
X158866727Y-117586776D01*
X158865079Y-117589902D01*
X158863793Y-117593204D01*
X158863793Y-117593205D01*
X158740175Y-117910715D01*
X158736432Y-117920328D01*
X158735534Y-117923740D01*
X158735530Y-117923756D01*
X158647192Y-118259830D01*
X158647189Y-118259840D01*
X158646290Y-118263264D01*
X158645785Y-118266771D01*
X158645785Y-118266775D01*
X158620654Y-118441569D01*
X158595827Y-118614241D01*
X158595725Y-118617785D01*
X158595725Y-118617794D01*
X158585802Y-118965127D01*
X158585802Y-118965137D01*
X158585701Y-118968683D01*
X158586004Y-118972221D01*
X158586005Y-118972224D01*
X158611051Y-119263823D01*
X158616045Y-119321968D01*
X158616749Y-119325445D01*
X158616750Y-119325448D01*
X158685757Y-119666012D01*
X158685760Y-119666026D01*
X158686463Y-119669492D01*
X158687557Y-119672861D01*
X158687559Y-119672866D01*
X158779048Y-119954442D01*
X158796036Y-120006723D01*
X158797509Y-120009949D01*
X158797512Y-120009956D01*
X158893436Y-120220000D01*
X158943336Y-120329266D01*
X158945168Y-120332304D01*
X159062208Y-120526394D01*
X159126443Y-120632915D01*
X159342971Y-120913713D01*
X159355273Y-120926371D01*
X159587619Y-121165450D01*
X159587625Y-121165456D01*
X159590095Y-121167997D01*
X159864595Y-121392455D01*
X160162891Y-121584159D01*
X160481096Y-121740609D01*
X160484425Y-121741797D01*
X160484428Y-121741798D01*
X160811725Y-121858578D01*
X160811729Y-121858579D01*
X160815061Y-121859768D01*
X161160432Y-121940080D01*
X161512707Y-121980500D01*
X161516250Y-121980500D01*
X161776791Y-121980500D01*
X161778576Y-121980500D01*
X162044008Y-121965322D01*
X162393400Y-121904857D01*
X162733623Y-121804959D01*
X163060241Y-121666929D01*
X163368995Y-121492568D01*
X163655861Y-121284147D01*
X163917099Y-121044385D01*
X164149304Y-120776407D01*
X164349448Y-120483706D01*
X164514921Y-120170098D01*
X164643568Y-119839672D01*
X164645574Y-119832038D01*
X164681653Y-119772208D01*
X164744354Y-119741379D01*
X164813768Y-119749343D01*
X164867858Y-119793571D01*
X164889449Y-119860021D01*
X164889500Y-119863563D01*
X164889500Y-122376519D01*
X164889305Y-122383472D01*
X164872916Y-122675296D01*
X164871359Y-122689114D01*
X164822984Y-122973827D01*
X164819890Y-122987384D01*
X164739939Y-123264899D01*
X164735346Y-123278024D01*
X164624830Y-123544834D01*
X164618797Y-123557362D01*
X164479100Y-123810125D01*
X164471702Y-123821899D01*
X164304584Y-124057430D01*
X164295914Y-124068302D01*
X164103475Y-124283642D01*
X164093642Y-124293475D01*
X163878302Y-124485914D01*
X163867430Y-124494584D01*
X163631899Y-124661702D01*
X163620125Y-124669100D01*
X163367362Y-124808797D01*
X163354834Y-124814830D01*
X163088024Y-124925346D01*
X163074899Y-124929939D01*
X162797384Y-125009890D01*
X162783827Y-125012984D01*
X162499114Y-125061359D01*
X162485296Y-125062916D01*
X162193472Y-125079305D01*
X162186519Y-125079500D01*
X103193481Y-125079500D01*
X103186528Y-125079305D01*
X102894703Y-125062916D01*
X102880885Y-125061359D01*
X102596172Y-125012984D01*
X102582615Y-125009890D01*
X102305100Y-124929939D01*
X102291975Y-124925346D01*
X102025165Y-124814830D01*
X102012637Y-124808797D01*
X101759874Y-124669100D01*
X101748100Y-124661702D01*
X101512569Y-124494584D01*
X101501697Y-124485914D01*
X101286357Y-124293475D01*
X101276524Y-124283642D01*
X101084085Y-124068302D01*
X101075415Y-124057430D01*
X100908297Y-123821899D01*
X100900899Y-123810125D01*
X100761202Y-123557362D01*
X100755172Y-123544841D01*
X100644653Y-123278024D01*
X100640060Y-123264899D01*
X100560109Y-122987384D01*
X100557015Y-122973827D01*
X100543965Y-122897020D01*
X100508638Y-122689103D01*
X100507084Y-122675306D01*
X100490693Y-122383436D01*
X100490500Y-122376551D01*
X100490500Y-122332405D01*
X100490500Y-119849283D01*
X100510185Y-119782245D01*
X100562989Y-119736490D01*
X100632147Y-119726546D01*
X100695703Y-119755571D01*
X100732430Y-119810965D01*
X100796036Y-120006723D01*
X100797509Y-120009949D01*
X100797512Y-120009956D01*
X100893436Y-120220000D01*
X100943336Y-120329266D01*
X100945168Y-120332304D01*
X101062208Y-120526394D01*
X101126443Y-120632915D01*
X101342971Y-120913713D01*
X101355273Y-120926371D01*
X101587619Y-121165450D01*
X101587625Y-121165456D01*
X101590095Y-121167997D01*
X101864595Y-121392455D01*
X102162891Y-121584159D01*
X102481096Y-121740609D01*
X102484425Y-121741797D01*
X102484428Y-121741798D01*
X102811725Y-121858578D01*
X102811729Y-121858579D01*
X102815061Y-121859768D01*
X103160432Y-121940080D01*
X103512707Y-121980500D01*
X103516250Y-121980500D01*
X103776791Y-121980500D01*
X103778576Y-121980500D01*
X104044008Y-121965322D01*
X104393400Y-121904857D01*
X104733623Y-121804959D01*
X105060241Y-121666929D01*
X105368995Y-121492568D01*
X105510167Y-121390000D01*
X112390312Y-121390000D01*
X112410957Y-121533596D01*
X112471053Y-121665186D01*
X112471223Y-121665558D01*
X112566225Y-121775196D01*
X112688268Y-121853629D01*
X112827464Y-121894500D01*
X112972536Y-121894500D01*
X113111732Y-121853629D01*
X113233775Y-121775196D01*
X113328777Y-121665558D01*
X113389042Y-121533596D01*
X113409688Y-121390000D01*
X113389042Y-121246404D01*
X113328777Y-121114442D01*
X113233775Y-121004804D01*
X113233774Y-121004803D01*
X113190163Y-120976776D01*
X113111732Y-120926371D01*
X112972536Y-120885500D01*
X112827464Y-120885500D01*
X112688268Y-120926371D01*
X112566225Y-121004803D01*
X112471222Y-121114443D01*
X112410957Y-121246403D01*
X112390312Y-121390000D01*
X105510167Y-121390000D01*
X105655861Y-121284147D01*
X105917099Y-121044385D01*
X106149304Y-120776407D01*
X106349448Y-120483706D01*
X106483314Y-120230000D01*
X122660312Y-120230000D01*
X122680957Y-120373596D01*
X122732583Y-120486639D01*
X122741223Y-120505558D01*
X122836225Y-120615196D01*
X122958268Y-120693629D01*
X123097464Y-120734500D01*
X123242536Y-120734500D01*
X123381732Y-120693629D01*
X123503775Y-120615196D01*
X123598777Y-120505558D01*
X123659042Y-120373596D01*
X123679688Y-120230000D01*
X123659042Y-120086404D01*
X123598777Y-119954442D01*
X123503775Y-119844804D01*
X123503774Y-119844803D01*
X123460164Y-119816776D01*
X123381732Y-119766371D01*
X123242536Y-119725500D01*
X123097464Y-119725500D01*
X122958268Y-119766371D01*
X122836225Y-119844803D01*
X122741222Y-119954443D01*
X122680957Y-120086403D01*
X122660312Y-120230000D01*
X106483314Y-120230000D01*
X106514921Y-120170098D01*
X106643568Y-119839672D01*
X106733710Y-119496736D01*
X106759121Y-119320000D01*
X119700312Y-119320000D01*
X119720957Y-119463596D01*
X119781222Y-119595556D01*
X119781223Y-119595558D01*
X119876225Y-119705196D01*
X119998268Y-119783629D01*
X120137464Y-119824500D01*
X120282536Y-119824500D01*
X120421732Y-119783629D01*
X120543775Y-119705196D01*
X120638777Y-119595558D01*
X120699042Y-119463596D01*
X120719688Y-119320000D01*
X120711061Y-119260000D01*
X139780692Y-119260000D01*
X139799851Y-119417782D01*
X139856212Y-119566394D01*
X139856213Y-119566395D01*
X139946502Y-119697201D01*
X140044336Y-119783875D01*
X140065472Y-119802600D01*
X140174879Y-119860021D01*
X140206207Y-119876463D01*
X140360529Y-119914500D01*
X140360530Y-119914500D01*
X140519470Y-119914500D01*
X140519471Y-119914500D01*
X140673793Y-119876463D01*
X140814529Y-119802599D01*
X140933498Y-119697201D01*
X141023787Y-119566395D01*
X141080149Y-119417782D01*
X141099307Y-119260000D01*
X141080149Y-119102218D01*
X141023787Y-118953605D01*
X140933498Y-118822799D01*
X140814529Y-118717401D01*
X140814527Y-118717399D01*
X140673794Y-118643537D01*
X140596632Y-118624518D01*
X140519471Y-118605500D01*
X140360529Y-118605500D01*
X140310650Y-118617794D01*
X140206205Y-118643537D01*
X140065472Y-118717399D01*
X139946501Y-118822800D01*
X139856212Y-118953605D01*
X139799851Y-119102217D01*
X139780692Y-119260000D01*
X120711061Y-119260000D01*
X120699042Y-119176404D01*
X120686651Y-119149272D01*
X120638777Y-119044443D01*
X120638777Y-119044442D01*
X120543775Y-118934804D01*
X120543774Y-118934803D01*
X120496139Y-118904190D01*
X120421732Y-118856371D01*
X120282536Y-118815500D01*
X120137464Y-118815500D01*
X119998268Y-118856371D01*
X119876225Y-118934803D01*
X119781222Y-119044443D01*
X119720957Y-119176403D01*
X119700312Y-119320000D01*
X106759121Y-119320000D01*
X106784173Y-119145759D01*
X106794299Y-118791317D01*
X106763955Y-118438032D01*
X106693537Y-118090508D01*
X106612142Y-117840000D01*
X113000312Y-117840000D01*
X113020957Y-117983596D01*
X113069783Y-118090508D01*
X113081223Y-118115558D01*
X113176225Y-118225196D01*
X113298268Y-118303629D01*
X113437464Y-118344500D01*
X113582536Y-118344500D01*
X113721732Y-118303629D01*
X113843775Y-118225196D01*
X113938777Y-118115558D01*
X113999042Y-117983596D01*
X114019688Y-117840000D01*
X113999042Y-117696404D01*
X113968722Y-117630012D01*
X113958778Y-117560853D01*
X113987803Y-117497298D01*
X114046581Y-117459523D01*
X114081516Y-117454500D01*
X114238484Y-117454500D01*
X114305523Y-117474185D01*
X114351278Y-117526989D01*
X114361222Y-117596147D01*
X114351278Y-117630012D01*
X114320957Y-117696403D01*
X114300312Y-117840000D01*
X114320957Y-117983596D01*
X114369783Y-118090508D01*
X114381223Y-118115558D01*
X114476225Y-118225196D01*
X114598268Y-118303629D01*
X114737464Y-118344500D01*
X114882536Y-118344500D01*
X115021732Y-118303629D01*
X115143775Y-118225196D01*
X115238777Y-118115558D01*
X115299042Y-117983596D01*
X115319688Y-117840000D01*
X115299042Y-117696404D01*
X115238777Y-117564442D01*
X115143775Y-117454804D01*
X115143774Y-117454803D01*
X115079706Y-117413629D01*
X115021732Y-117376371D01*
X114882536Y-117335500D01*
X114737464Y-117335500D01*
X114731516Y-117335500D01*
X114664477Y-117315815D01*
X114618722Y-117263011D01*
X114608778Y-117193853D01*
X114618722Y-117159988D01*
X114649042Y-117093596D01*
X114653125Y-117065196D01*
X114669688Y-116950000D01*
X114649042Y-116806404D01*
X114591315Y-116679999D01*
X128550312Y-116679999D01*
X128570957Y-116823596D01*
X128628685Y-116950000D01*
X128631223Y-116955558D01*
X128726225Y-117065196D01*
X128848268Y-117143629D01*
X128987464Y-117184500D01*
X129132536Y-117184500D01*
X129271732Y-117143629D01*
X129393775Y-117065196D01*
X129488777Y-116955558D01*
X129549042Y-116823596D01*
X129569688Y-116680000D01*
X129549042Y-116536404D01*
X129488777Y-116404442D01*
X129393775Y-116294804D01*
X129393774Y-116294803D01*
X129348482Y-116265696D01*
X129271732Y-116216371D01*
X129132536Y-116175500D01*
X128987464Y-116175500D01*
X128848268Y-116216371D01*
X128726225Y-116294803D01*
X128631222Y-116404443D01*
X128570957Y-116536403D01*
X128550312Y-116679999D01*
X114591315Y-116679999D01*
X114588777Y-116674442D01*
X114493775Y-116564804D01*
X114493774Y-116564803D01*
X114449583Y-116536403D01*
X114371732Y-116486371D01*
X114232536Y-116445500D01*
X114087464Y-116445500D01*
X113948268Y-116486371D01*
X113826225Y-116564803D01*
X113731222Y-116674443D01*
X113670957Y-116806403D01*
X113650312Y-116950000D01*
X113670957Y-117093596D01*
X113701278Y-117159988D01*
X113711222Y-117229147D01*
X113682197Y-117292702D01*
X113623419Y-117330477D01*
X113588484Y-117335500D01*
X113437464Y-117335500D01*
X113298268Y-117376371D01*
X113176225Y-117454803D01*
X113081222Y-117564443D01*
X113020957Y-117696403D01*
X113000312Y-117840000D01*
X106612142Y-117840000D01*
X106583964Y-117753277D01*
X106436664Y-117430734D01*
X106253557Y-117127085D01*
X106037029Y-116846287D01*
X105870023Y-116674442D01*
X105792380Y-116594549D01*
X105792373Y-116594543D01*
X105789905Y-116592003D01*
X105515405Y-116367545D01*
X105217109Y-116175841D01*
X105213686Y-116174158D01*
X104902078Y-116020951D01*
X104902070Y-116020947D01*
X104898904Y-116019391D01*
X104895582Y-116018206D01*
X104895571Y-116018201D01*
X104704425Y-115950000D01*
X116150312Y-115950000D01*
X116170957Y-116093596D01*
X116207804Y-116174278D01*
X116231223Y-116225558D01*
X116326225Y-116335196D01*
X116448268Y-116413629D01*
X116587464Y-116454500D01*
X116732536Y-116454500D01*
X116871732Y-116413629D01*
X116993775Y-116335196D01*
X117088777Y-116225558D01*
X117149042Y-116093596D01*
X117169688Y-115950000D01*
X117149042Y-115806404D01*
X117149042Y-115806403D01*
X117146505Y-115788757D01*
X117147466Y-115788618D01*
X117140529Y-115740386D01*
X117169552Y-115676829D01*
X117178702Y-115670948D01*
X117111797Y-115670948D01*
X117053019Y-115633174D01*
X117053018Y-115633174D01*
X116993774Y-115564803D01*
X116898534Y-115503596D01*
X116871732Y-115486371D01*
X116732536Y-115445500D01*
X116587464Y-115445500D01*
X116448268Y-115486371D01*
X116326225Y-115564803D01*
X116231222Y-115674443D01*
X116170957Y-115806403D01*
X116150312Y-115950000D01*
X104704425Y-115950000D01*
X104568274Y-115901421D01*
X104568259Y-115901416D01*
X104564939Y-115900232D01*
X104548688Y-115896453D01*
X104223011Y-115820720D01*
X104223000Y-115820718D01*
X104219568Y-115819920D01*
X104216067Y-115819518D01*
X104216054Y-115819516D01*
X103870810Y-115779903D01*
X103870800Y-115779902D01*
X103867293Y-115779500D01*
X103601424Y-115779500D01*
X103599669Y-115779600D01*
X103599646Y-115779601D01*
X103339531Y-115794475D01*
X103339520Y-115794476D01*
X103335992Y-115794678D01*
X103332511Y-115795280D01*
X103332497Y-115795282D01*
X102990090Y-115854539D01*
X102986600Y-115855143D01*
X102983209Y-115856138D01*
X102983199Y-115856141D01*
X102649771Y-115954044D01*
X102649764Y-115954046D01*
X102646377Y-115955041D01*
X102643127Y-115956414D01*
X102643117Y-115956418D01*
X102323027Y-116091689D01*
X102323013Y-116091695D01*
X102319759Y-116093071D01*
X102316683Y-116094808D01*
X102316673Y-116094813D01*
X102014077Y-116265696D01*
X102014062Y-116265705D01*
X102011005Y-116267432D01*
X102008156Y-116269501D01*
X102008148Y-116269507D01*
X101726998Y-116473775D01*
X101726989Y-116473782D01*
X101724139Y-116475853D01*
X101721542Y-116478236D01*
X101721534Y-116478243D01*
X101465511Y-116713219D01*
X101465505Y-116713224D01*
X101462901Y-116715615D01*
X101460592Y-116718279D01*
X101460580Y-116718292D01*
X101233013Y-116980919D01*
X101230696Y-116983593D01*
X101228703Y-116986507D01*
X101228695Y-116986518D01*
X101032557Y-117273360D01*
X101032547Y-117273375D01*
X101030552Y-117276294D01*
X101028903Y-117279418D01*
X101028894Y-117279434D01*
X100866732Y-117586768D01*
X100866727Y-117586776D01*
X100865079Y-117589902D01*
X100863793Y-117593204D01*
X100863793Y-117593205D01*
X100740175Y-117910715D01*
X100736432Y-117920328D01*
X100735533Y-117923749D01*
X100734426Y-117927961D01*
X100698344Y-117987794D01*
X100635642Y-118018620D01*
X100566228Y-118010654D01*
X100512140Y-117966425D01*
X100490550Y-117899974D01*
X100490500Y-117896436D01*
X100490500Y-114750000D01*
X116880312Y-114750000D01*
X116900957Y-114893596D01*
X116952978Y-115007504D01*
X116961223Y-115025558D01*
X117056225Y-115135196D01*
X117178268Y-115213629D01*
X117178269Y-115213629D01*
X117187289Y-115219426D01*
X117233044Y-115272230D01*
X117242987Y-115341384D01*
X117240311Y-115359996D01*
X117263495Y-115521243D01*
X117262533Y-115521381D01*
X117269469Y-115569617D01*
X117240444Y-115633173D01*
X117231296Y-115639051D01*
X117298198Y-115639049D01*
X117356978Y-115676821D01*
X117356981Y-115676825D01*
X117412057Y-115740386D01*
X117416225Y-115745196D01*
X117538268Y-115823629D01*
X117677464Y-115864500D01*
X117822536Y-115864500D01*
X117961732Y-115823629D01*
X118083775Y-115745196D01*
X118178777Y-115635558D01*
X118239042Y-115503596D01*
X118259688Y-115360000D01*
X118241637Y-115234453D01*
X118239042Y-115216403D01*
X118208909Y-115150423D01*
X118178777Y-115084442D01*
X118083775Y-114974804D01*
X118083774Y-114974803D01*
X118042728Y-114948424D01*
X117961732Y-114896371D01*
X117961729Y-114896370D01*
X117952709Y-114890573D01*
X117906955Y-114837769D01*
X117897011Y-114768614D01*
X117899688Y-114750000D01*
X117879042Y-114606404D01*
X117818777Y-114474442D01*
X117746509Y-114391040D01*
X141359651Y-114391040D01*
X141378810Y-114548823D01*
X141435171Y-114697435D01*
X141435172Y-114697436D01*
X141525461Y-114828242D01*
X141633380Y-114923851D01*
X141644431Y-114933641D01*
X141722859Y-114974803D01*
X141785166Y-115007504D01*
X141939488Y-115045541D01*
X141939489Y-115045541D01*
X142098429Y-115045541D01*
X142098430Y-115045541D01*
X142252752Y-115007504D01*
X142393488Y-114933640D01*
X142512457Y-114828242D01*
X142602746Y-114697436D01*
X142659108Y-114548823D01*
X142678266Y-114391041D01*
X142659108Y-114233259D01*
X142602746Y-114084646D01*
X142512457Y-113953840D01*
X142393488Y-113848442D01*
X142393486Y-113848440D01*
X142252753Y-113774578D01*
X142134011Y-113745311D01*
X142098430Y-113736541D01*
X141939488Y-113736541D01*
X141903907Y-113745311D01*
X141785164Y-113774578D01*
X141644431Y-113848440D01*
X141525460Y-113953841D01*
X141435171Y-114084646D01*
X141378810Y-114233258D01*
X141359651Y-114391040D01*
X117746509Y-114391040D01*
X117723775Y-114364804D01*
X117723774Y-114364803D01*
X117680164Y-114336776D01*
X117601732Y-114286371D01*
X117462536Y-114245500D01*
X117317464Y-114245500D01*
X117178268Y-114286371D01*
X117056225Y-114364803D01*
X116961222Y-114474443D01*
X116900957Y-114606403D01*
X116880312Y-114750000D01*
X100490500Y-114750000D01*
X100490500Y-113188959D01*
X142561733Y-113188959D01*
X142580892Y-113346741D01*
X142637253Y-113495353D01*
X142637254Y-113495354D01*
X142727543Y-113626160D01*
X142835462Y-113721769D01*
X142846513Y-113731559D01*
X142987246Y-113805421D01*
X142987248Y-113805422D01*
X143141570Y-113843459D01*
X143141571Y-113843459D01*
X143300511Y-113843459D01*
X143300512Y-113843459D01*
X143454834Y-113805422D01*
X143595570Y-113731558D01*
X143683275Y-113653857D01*
X143746505Y-113624138D01*
X143815768Y-113633320D01*
X143869072Y-113678492D01*
X143889493Y-113745311D01*
X143889500Y-113746674D01*
X143889500Y-118487761D01*
X143924974Y-118700350D01*
X143967012Y-118822800D01*
X143994955Y-118904195D01*
X144089826Y-119079500D01*
X144097537Y-119093749D01*
X144140753Y-119149272D01*
X144229912Y-119263823D01*
X144388479Y-119409794D01*
X144568909Y-119527675D01*
X144733519Y-119599880D01*
X144787004Y-119644835D01*
X144807694Y-119711571D01*
X144789019Y-119778899D01*
X144785758Y-119783875D01*
X144696213Y-119913604D01*
X144639851Y-120062217D01*
X144620692Y-120220000D01*
X144639851Y-120377782D01*
X144696212Y-120526394D01*
X144696213Y-120526395D01*
X144786502Y-120657201D01*
X144873754Y-120734500D01*
X144905472Y-120762600D01*
X145046205Y-120836462D01*
X145046207Y-120836463D01*
X145200529Y-120874500D01*
X145200530Y-120874500D01*
X145359470Y-120874500D01*
X145359471Y-120874500D01*
X145513793Y-120836463D01*
X145654529Y-120762599D01*
X145773498Y-120657201D01*
X145863787Y-120526395D01*
X145920149Y-120377782D01*
X145939307Y-120220000D01*
X145920149Y-120062218D01*
X145863787Y-119913605D01*
X145838149Y-119876462D01*
X145773497Y-119782797D01*
X145738405Y-119751709D01*
X145701278Y-119692520D01*
X145702046Y-119622654D01*
X145740464Y-119564295D01*
X145770817Y-119545340D01*
X145811091Y-119527675D01*
X145991521Y-119409794D01*
X146150088Y-119263823D01*
X146282466Y-119093744D01*
X146385045Y-118904195D01*
X146455026Y-118700348D01*
X146490500Y-118487762D01*
X146490500Y-118380000D01*
X146490500Y-118332405D01*
X146490500Y-118332404D01*
X146490500Y-113200000D01*
X151240398Y-113200000D01*
X151260757Y-113406716D01*
X151321056Y-113605494D01*
X151332101Y-113626158D01*
X151418973Y-113788683D01*
X151463926Y-113843459D01*
X151550747Y-113949252D01*
X151631032Y-114015139D01*
X151711317Y-114081027D01*
X151894508Y-114178945D01*
X152093282Y-114239242D01*
X152248199Y-114254500D01*
X152251249Y-114254500D01*
X154448751Y-114254500D01*
X154451801Y-114254500D01*
X154606718Y-114239242D01*
X154805492Y-114178945D01*
X154988683Y-114081027D01*
X155149252Y-113949252D01*
X155281027Y-113788683D01*
X155378945Y-113605492D01*
X155439242Y-113406718D01*
X155459602Y-113200000D01*
X155439242Y-112993282D01*
X155378945Y-112794508D01*
X155281027Y-112611317D01*
X155215139Y-112531032D01*
X155149252Y-112450747D01*
X155051423Y-112370462D01*
X154988683Y-112318973D01*
X154805492Y-112221055D01*
X154706105Y-112190906D01*
X154606716Y-112160757D01*
X154454835Y-112145798D01*
X154454818Y-112145797D01*
X154451801Y-112145500D01*
X152248199Y-112145500D01*
X152245182Y-112145797D01*
X152245164Y-112145798D01*
X152093283Y-112160757D01*
X151894505Y-112221056D01*
X151711318Y-112318972D01*
X151550747Y-112450747D01*
X151418972Y-112611318D01*
X151321056Y-112794505D01*
X151260757Y-112993283D01*
X151240398Y-113200000D01*
X146490500Y-113200000D01*
X146490500Y-107280000D01*
X148100312Y-107280000D01*
X148120957Y-107423596D01*
X148181222Y-107555556D01*
X148181223Y-107555558D01*
X148276225Y-107665196D01*
X148398268Y-107743629D01*
X148537464Y-107784500D01*
X148682536Y-107784500D01*
X148821732Y-107743629D01*
X148943775Y-107665196D01*
X149038777Y-107555558D01*
X149099042Y-107423596D01*
X149119688Y-107280000D01*
X149099042Y-107136404D01*
X149038777Y-107004442D01*
X148943775Y-106894804D01*
X148943774Y-106894803D01*
X148895694Y-106863904D01*
X148821732Y-106816371D01*
X148682536Y-106775500D01*
X148537464Y-106775500D01*
X148398268Y-106816371D01*
X148276225Y-106894803D01*
X148181222Y-107004443D01*
X148120957Y-107136403D01*
X148100312Y-107280000D01*
X146490500Y-107280000D01*
X146490500Y-103352156D01*
X146490500Y-103272238D01*
X146455026Y-103059652D01*
X146385045Y-102855805D01*
X146282466Y-102666256D01*
X146282463Y-102666252D01*
X146282462Y-102666250D01*
X146156512Y-102504431D01*
X146150088Y-102496177D01*
X145991521Y-102350206D01*
X145811091Y-102232325D01*
X145613719Y-102145749D01*
X145404789Y-102092841D01*
X145404787Y-102092840D01*
X145404784Y-102092840D01*
X145190000Y-102075042D01*
X144975215Y-102092840D01*
X144975211Y-102092840D01*
X144975211Y-102092841D01*
X144766281Y-102145749D01*
X144568909Y-102232325D01*
X144388479Y-102350206D01*
X144335310Y-102399152D01*
X144229909Y-102496180D01*
X144097537Y-102666250D01*
X144080334Y-102698038D01*
X144007238Y-102833109D01*
X143994953Y-102855809D01*
X143924974Y-103059649D01*
X143889500Y-103272238D01*
X143889500Y-112631243D01*
X143869815Y-112698282D01*
X143817011Y-112744037D01*
X143747853Y-112753981D01*
X143684297Y-112724956D01*
X143683273Y-112724058D01*
X143595570Y-112646360D01*
X143454835Y-112572496D01*
X143377672Y-112553477D01*
X143300512Y-112534459D01*
X143141570Y-112534459D01*
X143090129Y-112547138D01*
X142987246Y-112572496D01*
X142846513Y-112646358D01*
X142727542Y-112751759D01*
X142637253Y-112882564D01*
X142580892Y-113031176D01*
X142561733Y-113188959D01*
X100490500Y-113188959D01*
X100490500Y-112300000D01*
X114950312Y-112300000D01*
X114970957Y-112443596D01*
X115029825Y-112572496D01*
X115031223Y-112575558D01*
X115126225Y-112685196D01*
X115248268Y-112763629D01*
X115387464Y-112804500D01*
X115532536Y-112804500D01*
X115671732Y-112763629D01*
X115793775Y-112685196D01*
X115888777Y-112575558D01*
X115949042Y-112443596D01*
X115969688Y-112300000D01*
X115949042Y-112156404D01*
X115944198Y-112145798D01*
X115899676Y-112048308D01*
X115888777Y-112024442D01*
X115793775Y-111914804D01*
X115793774Y-111914803D01*
X115750164Y-111886776D01*
X115671732Y-111836371D01*
X115532536Y-111795500D01*
X115387464Y-111795500D01*
X115248268Y-111836371D01*
X115126225Y-111914803D01*
X115031222Y-112024443D01*
X114970957Y-112156403D01*
X114950312Y-112300000D01*
X100490500Y-112300000D01*
X100490500Y-110699664D01*
X110655500Y-110699664D01*
X110655722Y-110702279D01*
X110655723Y-110702289D01*
X110670696Y-110878216D01*
X110670696Y-110878219D01*
X110670697Y-110878220D01*
X110721790Y-111074443D01*
X110730942Y-111109589D01*
X110829418Y-111327443D01*
X110829419Y-111327444D01*
X110963298Y-111525525D01*
X111128727Y-111698131D01*
X111320948Y-111840297D01*
X111534430Y-111947932D01*
X111763031Y-112017940D01*
X112000176Y-112048308D01*
X112239042Y-112038161D01*
X112472757Y-111987792D01*
X112694597Y-111898649D01*
X112898182Y-111773297D01*
X113077653Y-111615342D01*
X113227849Y-111429328D01*
X113272164Y-111350000D01*
X124520312Y-111350000D01*
X124540957Y-111493596D01*
X124601222Y-111625556D01*
X124601223Y-111625558D01*
X124696225Y-111735196D01*
X124818268Y-111813629D01*
X124957464Y-111854500D01*
X125102536Y-111854500D01*
X125241732Y-111813629D01*
X125363775Y-111735196D01*
X125458777Y-111625558D01*
X125519042Y-111493596D01*
X125539688Y-111350000D01*
X125519042Y-111206404D01*
X125458777Y-111074442D01*
X125363775Y-110964804D01*
X125363774Y-110964803D01*
X125320163Y-110936776D01*
X125241732Y-110886371D01*
X125102536Y-110845500D01*
X124957464Y-110845500D01*
X124818268Y-110886371D01*
X124696225Y-110964803D01*
X124601222Y-111074443D01*
X124540957Y-111206403D01*
X124520312Y-111350000D01*
X113272164Y-111350000D01*
X113344448Y-111220607D01*
X113424095Y-110995183D01*
X113429305Y-110964803D01*
X113464500Y-110759543D01*
X113464500Y-109382967D01*
X113464500Y-109382966D01*
X113464500Y-109380336D01*
X113450003Y-109209999D01*
X115060848Y-109209999D01*
X115079428Y-109446084D01*
X115134710Y-109676354D01*
X115191859Y-109814322D01*
X115225336Y-109895141D01*
X115349070Y-110097057D01*
X115502868Y-110277132D01*
X115682943Y-110430930D01*
X115884859Y-110554664D01*
X116046496Y-110621616D01*
X116103645Y-110645289D01*
X116176392Y-110662753D01*
X116333917Y-110700572D01*
X116570000Y-110719152D01*
X116806083Y-110700572D01*
X117036354Y-110645289D01*
X117255141Y-110554664D01*
X117457057Y-110430930D01*
X117637132Y-110277132D01*
X117790930Y-110097057D01*
X117914664Y-109895141D01*
X118005289Y-109676354D01*
X118060572Y-109446083D01*
X118079152Y-109210000D01*
X118060572Y-108973917D01*
X118005289Y-108743646D01*
X117914664Y-108524859D01*
X117801383Y-108340000D01*
X120650312Y-108340000D01*
X120670957Y-108483596D01*
X120703327Y-108554475D01*
X120731223Y-108615558D01*
X120826225Y-108725196D01*
X120948268Y-108803629D01*
X121087464Y-108844500D01*
X121232536Y-108844500D01*
X121371732Y-108803629D01*
X121493775Y-108725196D01*
X121588777Y-108615558D01*
X121649042Y-108483596D01*
X121669688Y-108340000D01*
X121649042Y-108196404D01*
X121588777Y-108064442D01*
X121493775Y-107954804D01*
X121493774Y-107954803D01*
X121450164Y-107926776D01*
X121371732Y-107876371D01*
X121232536Y-107835500D01*
X121087464Y-107835500D01*
X120948268Y-107876371D01*
X120826225Y-107954803D01*
X120731222Y-108064443D01*
X120670957Y-108196403D01*
X120650312Y-108340000D01*
X117801383Y-108340000D01*
X117790930Y-108322943D01*
X117637132Y-108142868D01*
X117457057Y-107989070D01*
X117457056Y-107989069D01*
X117356099Y-107927203D01*
X117255141Y-107865336D01*
X117174322Y-107831859D01*
X117036354Y-107774710D01*
X116806084Y-107719428D01*
X116688041Y-107710137D01*
X116570000Y-107700848D01*
X116569999Y-107700848D01*
X116333915Y-107719428D01*
X116103645Y-107774710D01*
X115884857Y-107865337D01*
X115682943Y-107989069D01*
X115502868Y-108142868D01*
X115349069Y-108322943D01*
X115225337Y-108524857D01*
X115134710Y-108743645D01*
X115079428Y-108973915D01*
X115060848Y-109209999D01*
X113450003Y-109209999D01*
X113449303Y-109201780D01*
X113389059Y-108970413D01*
X113290581Y-108752556D01*
X113156702Y-108554475D01*
X112991273Y-108381869D01*
X112934662Y-108340000D01*
X112799052Y-108239703D01*
X112585570Y-108132068D01*
X112356969Y-108062060D01*
X112119824Y-108031692D01*
X112119820Y-108031692D01*
X111880960Y-108041838D01*
X111647240Y-108092208D01*
X111425406Y-108181349D01*
X111221816Y-108306704D01*
X111042345Y-108464659D01*
X110892152Y-108650668D01*
X110775551Y-108859393D01*
X110695903Y-109084819D01*
X110655500Y-109320456D01*
X110655500Y-109320459D01*
X110655500Y-110699664D01*
X100490500Y-110699664D01*
X100490500Y-106980000D01*
X116530312Y-106980000D01*
X116550957Y-107123596D01*
X116570120Y-107165556D01*
X116611223Y-107255558D01*
X116706225Y-107365196D01*
X116828268Y-107443629D01*
X116967464Y-107484500D01*
X117112536Y-107484500D01*
X117251732Y-107443629D01*
X117352961Y-107378572D01*
X117419998Y-107358888D01*
X117487038Y-107378572D01*
X117588268Y-107443629D01*
X117727464Y-107484500D01*
X117872536Y-107484500D01*
X118011732Y-107443629D01*
X118112961Y-107378572D01*
X118179998Y-107358888D01*
X118247038Y-107378572D01*
X118348268Y-107443629D01*
X118487464Y-107484500D01*
X118632536Y-107484500D01*
X118771732Y-107443629D01*
X118872961Y-107378572D01*
X118939998Y-107358888D01*
X119007038Y-107378572D01*
X119108268Y-107443629D01*
X119247464Y-107484500D01*
X119392536Y-107484500D01*
X119531732Y-107443629D01*
X119653775Y-107365196D01*
X119748777Y-107255558D01*
X119809042Y-107123596D01*
X119829688Y-106980000D01*
X119813872Y-106870000D01*
X126390312Y-106870000D01*
X126410957Y-107013596D01*
X126471222Y-107145556D01*
X126471223Y-107145558D01*
X126566225Y-107255196D01*
X126688268Y-107333629D01*
X126827464Y-107374500D01*
X126972536Y-107374500D01*
X127111732Y-107333629D01*
X127233775Y-107255196D01*
X127328777Y-107145558D01*
X127389042Y-107013596D01*
X127389918Y-107007500D01*
X132582812Y-107007500D01*
X132585407Y-107025549D01*
X132603457Y-107151096D01*
X132662326Y-107279999D01*
X132663723Y-107283058D01*
X132758725Y-107392696D01*
X132880768Y-107471129D01*
X133019964Y-107512000D01*
X133165036Y-107512000D01*
X133304232Y-107471129D01*
X133426275Y-107392696D01*
X133521277Y-107283058D01*
X133581542Y-107151096D01*
X133602188Y-107007500D01*
X133584137Y-106881953D01*
X133581542Y-106863903D01*
X133541169Y-106775500D01*
X133521277Y-106731942D01*
X133426275Y-106622304D01*
X133426274Y-106622303D01*
X133370504Y-106586462D01*
X133304232Y-106543871D01*
X133165036Y-106503000D01*
X133019964Y-106503000D01*
X132880768Y-106543871D01*
X132758725Y-106622303D01*
X132663722Y-106731943D01*
X132603457Y-106863903D01*
X132582812Y-107007499D01*
X132582812Y-107007500D01*
X127389918Y-107007500D01*
X127409688Y-106870000D01*
X127389042Y-106726404D01*
X127379012Y-106704442D01*
X127341501Y-106622304D01*
X127328777Y-106594442D01*
X127233775Y-106484804D01*
X127233774Y-106484803D01*
X127113023Y-106407201D01*
X127111732Y-106406371D01*
X126972536Y-106365500D01*
X126827464Y-106365500D01*
X126688268Y-106406371D01*
X126566225Y-106484803D01*
X126471222Y-106594443D01*
X126410957Y-106726403D01*
X126390312Y-106870000D01*
X119813872Y-106870000D01*
X119809042Y-106836404D01*
X119799893Y-106816371D01*
X119761336Y-106731942D01*
X119748777Y-106704442D01*
X119653775Y-106594804D01*
X119653774Y-106594803D01*
X119561587Y-106535558D01*
X119531732Y-106516371D01*
X119392536Y-106475500D01*
X119247464Y-106475500D01*
X119108268Y-106516371D01*
X119007039Y-106581427D01*
X118940000Y-106601111D01*
X118872961Y-106581427D01*
X118801587Y-106535558D01*
X118771732Y-106516371D01*
X118632536Y-106475500D01*
X118487464Y-106475500D01*
X118348268Y-106516371D01*
X118247039Y-106581427D01*
X118180000Y-106601111D01*
X118112961Y-106581427D01*
X118041587Y-106535558D01*
X118011732Y-106516371D01*
X117872536Y-106475500D01*
X117727464Y-106475500D01*
X117588268Y-106516371D01*
X117487039Y-106581427D01*
X117420000Y-106601111D01*
X117352961Y-106581427D01*
X117281587Y-106535558D01*
X117251732Y-106516371D01*
X117112536Y-106475500D01*
X116967464Y-106475500D01*
X116828268Y-106516371D01*
X116706225Y-106594803D01*
X116611222Y-106704443D01*
X116550957Y-106836403D01*
X116530312Y-106980000D01*
X100490500Y-106980000D01*
X100490500Y-105970000D01*
X137610692Y-105970000D01*
X137629851Y-106127782D01*
X137686212Y-106276394D01*
X137686213Y-106276395D01*
X137776502Y-106407201D01*
X137864096Y-106484803D01*
X137895472Y-106512600D01*
X138003370Y-106569229D01*
X138036207Y-106586463D01*
X138190529Y-106624500D01*
X138190530Y-106624500D01*
X138349470Y-106624500D01*
X138349471Y-106624500D01*
X138503793Y-106586463D01*
X138644529Y-106512599D01*
X138763498Y-106407201D01*
X138853787Y-106276395D01*
X138910149Y-106127782D01*
X138929307Y-105970000D01*
X138910149Y-105812218D01*
X138853787Y-105663605D01*
X138763498Y-105532799D01*
X138763497Y-105532798D01*
X138754945Y-105520408D01*
X138757245Y-105518820D01*
X138732034Y-105478629D01*
X138732800Y-105408763D01*
X138757043Y-105371040D01*
X138754945Y-105369592D01*
X138792242Y-105315558D01*
X138853787Y-105226395D01*
X138910149Y-105077782D01*
X138929307Y-104920000D01*
X138910149Y-104762218D01*
X138853787Y-104613605D01*
X138763498Y-104482799D01*
X138644529Y-104377401D01*
X138644527Y-104377399D01*
X138503794Y-104303537D01*
X138426632Y-104284518D01*
X138349471Y-104265500D01*
X138190529Y-104265500D01*
X138139088Y-104278178D01*
X138036205Y-104303537D01*
X137895472Y-104377399D01*
X137776501Y-104482800D01*
X137686212Y-104613605D01*
X137629851Y-104762217D01*
X137610692Y-104919999D01*
X137629851Y-105077782D01*
X137686212Y-105226394D01*
X137785055Y-105369592D01*
X137782754Y-105371179D01*
X137807968Y-105411382D01*
X137807196Y-105481247D01*
X137782958Y-105518960D01*
X137785055Y-105520408D01*
X137686212Y-105663605D01*
X137629851Y-105812217D01*
X137610692Y-105970000D01*
X100490500Y-105970000D01*
X100490500Y-105040000D01*
X132590312Y-105040000D01*
X132610957Y-105183596D01*
X132643826Y-105255568D01*
X132671223Y-105315558D01*
X132766225Y-105425196D01*
X132888268Y-105503629D01*
X133027464Y-105544500D01*
X133172536Y-105544500D01*
X133311732Y-105503629D01*
X133433775Y-105425196D01*
X133528777Y-105315558D01*
X133589042Y-105183596D01*
X133609688Y-105040000D01*
X133589042Y-104896404D01*
X133577493Y-104871116D01*
X133528777Y-104764443D01*
X133528777Y-104764442D01*
X133433775Y-104654804D01*
X133433774Y-104654803D01*
X133390164Y-104626776D01*
X133311732Y-104576371D01*
X133172536Y-104535500D01*
X133027464Y-104535500D01*
X132888268Y-104576371D01*
X132766225Y-104654803D01*
X132671222Y-104764443D01*
X132610957Y-104896403D01*
X132590312Y-105040000D01*
X100490500Y-105040000D01*
X100490500Y-103886091D01*
X100491097Y-103873937D01*
X100502744Y-103755680D01*
X100507483Y-103731856D01*
X100540203Y-103623990D01*
X100549499Y-103601549D01*
X100602632Y-103502144D01*
X100616133Y-103481940D01*
X100687635Y-103394814D01*
X100704814Y-103377635D01*
X100791942Y-103306131D01*
X100812144Y-103292632D01*
X100911549Y-103239499D01*
X100933990Y-103230203D01*
X101041856Y-103197483D01*
X101065682Y-103192744D01*
X101165730Y-103182890D01*
X101183940Y-103181097D01*
X101196093Y-103180500D01*
X104292354Y-103180500D01*
X104393443Y-103164488D01*
X104494534Y-103148477D01*
X104689219Y-103085220D01*
X104871610Y-102992287D01*
X105037219Y-102871966D01*
X105181966Y-102727219D01*
X105302287Y-102561610D01*
X105395220Y-102379219D01*
X105458477Y-102184534D01*
X105490500Y-101982352D01*
X105490500Y-101880000D01*
X105490500Y-101832405D01*
X105490500Y-101832404D01*
X105490500Y-101460000D01*
X107470312Y-101460000D01*
X107490957Y-101603596D01*
X107536115Y-101702477D01*
X107551223Y-101735558D01*
X107646225Y-101845196D01*
X107768268Y-101923629D01*
X107907464Y-101964500D01*
X108052536Y-101964500D01*
X108191732Y-101923629D01*
X108313775Y-101845196D01*
X108408777Y-101735558D01*
X108469042Y-101603596D01*
X108488250Y-101470000D01*
X110010312Y-101470000D01*
X110030957Y-101613596D01*
X110074665Y-101709301D01*
X110091223Y-101745558D01*
X110186225Y-101855196D01*
X110308268Y-101933629D01*
X110447464Y-101974500D01*
X110592536Y-101974500D01*
X110731732Y-101933629D01*
X110853775Y-101855196D01*
X110948777Y-101745558D01*
X111009042Y-101613596D01*
X111029688Y-101470000D01*
X111026812Y-101450000D01*
X112550312Y-101450000D01*
X112570957Y-101593596D01*
X112631222Y-101725556D01*
X112631223Y-101725558D01*
X112726225Y-101835196D01*
X112848268Y-101913629D01*
X112987464Y-101954500D01*
X113132536Y-101954500D01*
X113271732Y-101913629D01*
X113393775Y-101835196D01*
X113488777Y-101725558D01*
X113549042Y-101593596D01*
X113569688Y-101450000D01*
X113549042Y-101306404D01*
X113488777Y-101174442D01*
X113393775Y-101064804D01*
X113393774Y-101064803D01*
X113302852Y-101006371D01*
X113271732Y-100986371D01*
X113132536Y-100945500D01*
X112987464Y-100945500D01*
X112848268Y-100986371D01*
X112726225Y-101064803D01*
X112631222Y-101174443D01*
X112570957Y-101306403D01*
X112550312Y-101450000D01*
X111026812Y-101450000D01*
X111009042Y-101326404D01*
X111004475Y-101316404D01*
X110948777Y-101194443D01*
X110948777Y-101194442D01*
X110853775Y-101084804D01*
X110853774Y-101084803D01*
X110786742Y-101041724D01*
X110731732Y-101006371D01*
X110592536Y-100965500D01*
X110447464Y-100965500D01*
X110308268Y-101006371D01*
X110186225Y-101084803D01*
X110091222Y-101194443D01*
X110030957Y-101326403D01*
X110010312Y-101470000D01*
X108488250Y-101470000D01*
X108489688Y-101460000D01*
X108469042Y-101316404D01*
X108464475Y-101306404D01*
X108413344Y-101194443D01*
X108408777Y-101184442D01*
X108313775Y-101074804D01*
X108313774Y-101074803D01*
X108270164Y-101046776D01*
X108191732Y-100996371D01*
X108052536Y-100955500D01*
X107907464Y-100955500D01*
X107768268Y-100996371D01*
X107646225Y-101074803D01*
X107551222Y-101184443D01*
X107490957Y-101316403D01*
X107470312Y-101460000D01*
X105490500Y-101460000D01*
X105490500Y-100889999D01*
X130810848Y-100889999D01*
X130829428Y-101126084D01*
X130884710Y-101356354D01*
X130927643Y-101460000D01*
X130975336Y-101575141D01*
X131012058Y-101635066D01*
X131057548Y-101709300D01*
X131099070Y-101777057D01*
X131252868Y-101957132D01*
X131432943Y-102110930D01*
X131634859Y-102234664D01*
X131796496Y-102301616D01*
X131853645Y-102325289D01*
X131926392Y-102342753D01*
X132083917Y-102380572D01*
X132320000Y-102399152D01*
X132556083Y-102380572D01*
X132786354Y-102325289D01*
X133005141Y-102234664D01*
X133207057Y-102110930D01*
X133387132Y-101957132D01*
X133540930Y-101777057D01*
X133664664Y-101575141D01*
X133726059Y-101426920D01*
X146900765Y-101426920D01*
X146921410Y-101570517D01*
X146981675Y-101702477D01*
X146981676Y-101702479D01*
X147076678Y-101812117D01*
X147198721Y-101890550D01*
X147337917Y-101931421D01*
X147482989Y-101931421D01*
X147622185Y-101890550D01*
X147744228Y-101812117D01*
X147839230Y-101702479D01*
X147870017Y-101635065D01*
X158935500Y-101635065D01*
X158950266Y-101709301D01*
X159006515Y-101793484D01*
X159083907Y-101845196D01*
X159090699Y-101849734D01*
X159164933Y-101864500D01*
X160715066Y-101864499D01*
X160789301Y-101849734D01*
X160873484Y-101793484D01*
X160929734Y-101709301D01*
X160944500Y-101635067D01*
X160944499Y-99984934D01*
X160929734Y-99910699D01*
X160911068Y-99882765D01*
X160873484Y-99826515D01*
X160789300Y-99770265D01*
X160715069Y-99755500D01*
X159164934Y-99755500D01*
X159090698Y-99770266D01*
X159006515Y-99826515D01*
X158950265Y-99910699D01*
X158935500Y-99984930D01*
X158935500Y-101635065D01*
X147870017Y-101635065D01*
X147899495Y-101570517D01*
X147920141Y-101426921D01*
X147899495Y-101283325D01*
X147839230Y-101151363D01*
X147744228Y-101041725D01*
X147744227Y-101041724D01*
X147700616Y-101013697D01*
X147622185Y-100963292D01*
X147482989Y-100922421D01*
X147337917Y-100922421D01*
X147198721Y-100963292D01*
X147076678Y-101041724D01*
X146981675Y-101151364D01*
X146921410Y-101283324D01*
X146900765Y-101426920D01*
X133726059Y-101426920D01*
X133755289Y-101356354D01*
X133810572Y-101126083D01*
X133829152Y-100890000D01*
X133810572Y-100653917D01*
X133755289Y-100423646D01*
X133664664Y-100204859D01*
X133540930Y-100002943D01*
X133387132Y-99822868D01*
X133207057Y-99669070D01*
X133207056Y-99669069D01*
X133106098Y-99607202D01*
X133005141Y-99545336D01*
X132924322Y-99511859D01*
X132786354Y-99454710D01*
X132556084Y-99399428D01*
X132438041Y-99390137D01*
X132320000Y-99380848D01*
X132319999Y-99380848D01*
X132083915Y-99399428D01*
X131853645Y-99454710D01*
X131634857Y-99545337D01*
X131432943Y-99669069D01*
X131252868Y-99822868D01*
X131099069Y-100002943D01*
X130975337Y-100204857D01*
X130884710Y-100423645D01*
X130829428Y-100653915D01*
X130810848Y-100889999D01*
X105490500Y-100889999D01*
X105490500Y-97259999D01*
X130810848Y-97259999D01*
X130829428Y-97496084D01*
X130884710Y-97726354D01*
X130941859Y-97864322D01*
X130975336Y-97945141D01*
X130975337Y-97945142D01*
X131072244Y-98103282D01*
X131099070Y-98147057D01*
X131252868Y-98327132D01*
X131432943Y-98480930D01*
X131634859Y-98604664D01*
X131796496Y-98671616D01*
X131853645Y-98695289D01*
X131926392Y-98712753D01*
X132083917Y-98750572D01*
X132320000Y-98769152D01*
X132556083Y-98750572D01*
X132786354Y-98695289D01*
X133005141Y-98604664D01*
X133207057Y-98480930D01*
X133387132Y-98327132D01*
X133401764Y-98310000D01*
X158880398Y-98310000D01*
X158900757Y-98516716D01*
X158900758Y-98516718D01*
X158961055Y-98715492D01*
X159058973Y-98898683D01*
X159110462Y-98961423D01*
X159190747Y-99059252D01*
X159271032Y-99125139D01*
X159351317Y-99191027D01*
X159534508Y-99288945D01*
X159733282Y-99349242D01*
X159940000Y-99369602D01*
X160146718Y-99349242D01*
X160345492Y-99288945D01*
X160528683Y-99191027D01*
X160689252Y-99059252D01*
X160821027Y-98898683D01*
X160918945Y-98715492D01*
X160979242Y-98516718D01*
X160999602Y-98310000D01*
X160979242Y-98103282D01*
X160918945Y-97904508D01*
X160821027Y-97721317D01*
X160755139Y-97641032D01*
X160689252Y-97560747D01*
X160528684Y-97428974D01*
X160528683Y-97428973D01*
X160510693Y-97419357D01*
X160460850Y-97370397D01*
X160445389Y-97302260D01*
X160469220Y-97236580D01*
X160510692Y-97200643D01*
X160528683Y-97191027D01*
X160689252Y-97059252D01*
X160821027Y-96898683D01*
X160918945Y-96715492D01*
X160979242Y-96516718D01*
X160999602Y-96310000D01*
X160979242Y-96103282D01*
X160918945Y-95904508D01*
X160821027Y-95721317D01*
X160755139Y-95641032D01*
X160689252Y-95560747D01*
X160591423Y-95480462D01*
X160528683Y-95428973D01*
X160345492Y-95331055D01*
X160246104Y-95300906D01*
X160146716Y-95270757D01*
X159962583Y-95252622D01*
X159940000Y-95250398D01*
X159939999Y-95250398D01*
X159733283Y-95270757D01*
X159534505Y-95331056D01*
X159351318Y-95428972D01*
X159190747Y-95560747D01*
X159058972Y-95721318D01*
X158961056Y-95904505D01*
X158900757Y-96103283D01*
X158880398Y-96310000D01*
X158900757Y-96516716D01*
X158900758Y-96516718D01*
X158961055Y-96715492D01*
X159058973Y-96898683D01*
X159110462Y-96961423D01*
X159190747Y-97059252D01*
X159271032Y-97125139D01*
X159351317Y-97191027D01*
X159364824Y-97198247D01*
X159369305Y-97200642D01*
X159419149Y-97249604D01*
X159434610Y-97317742D01*
X159410778Y-97383422D01*
X159369305Y-97419358D01*
X159351318Y-97428972D01*
X159190747Y-97560747D01*
X159058972Y-97721318D01*
X158961056Y-97904505D01*
X158900757Y-98103283D01*
X158880398Y-98310000D01*
X133401764Y-98310000D01*
X133540930Y-98147057D01*
X133664664Y-97945141D01*
X133755289Y-97726354D01*
X133810572Y-97496083D01*
X133829152Y-97260000D01*
X133810572Y-97023917D01*
X133755289Y-96793646D01*
X133664664Y-96574859D01*
X133540930Y-96372943D01*
X133387132Y-96192868D01*
X133207057Y-96039070D01*
X133207056Y-96039069D01*
X133106098Y-95977202D01*
X133005141Y-95915336D01*
X132924322Y-95881859D01*
X132786354Y-95824710D01*
X132556084Y-95769428D01*
X132320000Y-95750848D01*
X132083915Y-95769428D01*
X131853645Y-95824710D01*
X131634857Y-95915337D01*
X131432943Y-96039069D01*
X131252868Y-96192868D01*
X131099069Y-96372943D01*
X130975337Y-96574857D01*
X130884710Y-96793645D01*
X130829428Y-97023915D01*
X130810848Y-97259999D01*
X105490500Y-97259999D01*
X105490500Y-95380000D01*
X151620312Y-95380000D01*
X151640957Y-95523596D01*
X151701222Y-95655556D01*
X151701223Y-95655558D01*
X151796225Y-95765196D01*
X151918268Y-95843629D01*
X152057464Y-95884500D01*
X152202536Y-95884500D01*
X152341732Y-95843629D01*
X152463775Y-95765196D01*
X152558777Y-95655558D01*
X152619042Y-95523596D01*
X152639688Y-95380000D01*
X152916978Y-95380000D01*
X152937623Y-95523596D01*
X152997888Y-95655556D01*
X152997889Y-95655558D01*
X153092891Y-95765196D01*
X153214934Y-95843629D01*
X153354130Y-95884500D01*
X153499202Y-95884500D01*
X153638398Y-95843629D01*
X153760441Y-95765196D01*
X153855443Y-95655558D01*
X153915708Y-95523596D01*
X153936354Y-95380000D01*
X154213644Y-95380000D01*
X154234289Y-95523596D01*
X154294554Y-95655556D01*
X154294555Y-95655558D01*
X154389557Y-95765196D01*
X154511600Y-95843629D01*
X154650796Y-95884500D01*
X154795868Y-95884500D01*
X154935064Y-95843629D01*
X155057107Y-95765196D01*
X155152109Y-95655558D01*
X155212374Y-95523596D01*
X155233020Y-95380000D01*
X155233020Y-95379999D01*
X155510312Y-95379999D01*
X155530957Y-95523596D01*
X155591222Y-95655556D01*
X155591223Y-95655558D01*
X155686225Y-95765196D01*
X155808268Y-95843629D01*
X155947464Y-95884500D01*
X156092536Y-95884500D01*
X156231732Y-95843629D01*
X156353775Y-95765196D01*
X156448777Y-95655558D01*
X156509042Y-95523596D01*
X156529688Y-95380000D01*
X156509042Y-95236404D01*
X156448777Y-95104442D01*
X156353775Y-94994804D01*
X156353774Y-94994803D01*
X156310164Y-94966776D01*
X156231732Y-94916371D01*
X156092536Y-94875500D01*
X155947464Y-94875500D01*
X155808268Y-94916371D01*
X155686225Y-94994803D01*
X155591222Y-95104443D01*
X155530957Y-95236403D01*
X155510312Y-95379999D01*
X155233020Y-95379999D01*
X155212374Y-95236404D01*
X155152109Y-95104442D01*
X155057107Y-94994804D01*
X155057106Y-94994803D01*
X155013496Y-94966776D01*
X154935064Y-94916371D01*
X154795868Y-94875500D01*
X154650796Y-94875500D01*
X154511600Y-94916371D01*
X154389557Y-94994803D01*
X154294554Y-95104443D01*
X154234289Y-95236403D01*
X154213644Y-95380000D01*
X153936354Y-95380000D01*
X153915708Y-95236404D01*
X153855443Y-95104442D01*
X153760441Y-94994804D01*
X153760440Y-94994803D01*
X153716829Y-94966776D01*
X153638398Y-94916371D01*
X153499202Y-94875500D01*
X153354130Y-94875500D01*
X153214934Y-94916371D01*
X153092891Y-94994803D01*
X152997888Y-95104443D01*
X152937623Y-95236403D01*
X152916978Y-95380000D01*
X152639688Y-95380000D01*
X152619042Y-95236404D01*
X152558777Y-95104442D01*
X152463775Y-94994804D01*
X152463774Y-94994803D01*
X152420163Y-94966776D01*
X152341732Y-94916371D01*
X152202536Y-94875500D01*
X152057464Y-94875500D01*
X151918268Y-94916371D01*
X151796225Y-94994803D01*
X151701222Y-95104443D01*
X151640957Y-95236403D01*
X151620312Y-95380000D01*
X105490500Y-95380000D01*
X105490500Y-90739999D01*
X160890579Y-90739999D01*
X160910230Y-91002225D01*
X160968746Y-91258600D01*
X161064816Y-91503382D01*
X161064817Y-91503384D01*
X161196299Y-91731117D01*
X161360254Y-91936710D01*
X161553020Y-92115570D01*
X161770290Y-92263702D01*
X162007212Y-92377798D01*
X162258492Y-92455308D01*
X162518518Y-92494500D01*
X162781482Y-92494500D01*
X163041508Y-92455308D01*
X163292788Y-92377798D01*
X163529710Y-92263702D01*
X163746980Y-92115570D01*
X163939746Y-91936710D01*
X164103701Y-91731117D01*
X164235183Y-91503384D01*
X164331254Y-91258598D01*
X164389769Y-91002228D01*
X164409420Y-90740000D01*
X164389769Y-90477772D01*
X164331254Y-90221402D01*
X164235183Y-89976616D01*
X164103701Y-89748883D01*
X163939746Y-89543290D01*
X163746980Y-89364430D01*
X163529710Y-89216298D01*
X163529709Y-89216297D01*
X163529707Y-89216296D01*
X163402827Y-89155194D01*
X163292788Y-89102202D01*
X163215276Y-89078292D01*
X163041507Y-89024691D01*
X162781482Y-88985500D01*
X162518518Y-88985500D01*
X162258492Y-89024691D01*
X162007212Y-89102202D01*
X161770292Y-89216296D01*
X161553018Y-89364431D01*
X161360253Y-89543290D01*
X161196298Y-89748883D01*
X161064816Y-89976617D01*
X160968746Y-90221399D01*
X160910230Y-90477774D01*
X160890579Y-90739999D01*
X105490500Y-90739999D01*
X105490500Y-88330000D01*
X132060312Y-88330000D01*
X132080957Y-88473596D01*
X132141222Y-88605556D01*
X132141223Y-88605558D01*
X132236225Y-88715196D01*
X132358268Y-88793629D01*
X132497464Y-88834500D01*
X132642536Y-88834500D01*
X132781732Y-88793629D01*
X132903775Y-88715196D01*
X132998777Y-88605558D01*
X133059042Y-88473596D01*
X133079688Y-88330000D01*
X133059042Y-88186404D01*
X132998777Y-88054442D01*
X132903775Y-87944804D01*
X132903774Y-87944803D01*
X132860163Y-87916776D01*
X132781732Y-87866371D01*
X132642536Y-87825500D01*
X132497464Y-87825500D01*
X132358268Y-87866371D01*
X132236225Y-87944803D01*
X132141222Y-88054443D01*
X132080957Y-88186403D01*
X132060312Y-88330000D01*
X105490500Y-88330000D01*
X105490500Y-86852156D01*
X105490500Y-86852155D01*
X105490500Y-86777648D01*
X105487705Y-86760000D01*
X132130312Y-86760000D01*
X132150957Y-86903596D01*
X132211222Y-87035556D01*
X132211223Y-87035558D01*
X132306225Y-87145196D01*
X132428268Y-87223629D01*
X132567464Y-87264500D01*
X132712536Y-87264500D01*
X132851732Y-87223629D01*
X132973775Y-87145196D01*
X133068777Y-87035558D01*
X133129042Y-86903596D01*
X133149688Y-86760000D01*
X133129042Y-86616404D01*
X133068777Y-86484442D01*
X132973775Y-86374804D01*
X132973774Y-86374803D01*
X132879652Y-86314314D01*
X132833897Y-86261510D01*
X132823954Y-86192351D01*
X132852980Y-86128796D01*
X132879643Y-86105691D01*
X132973775Y-86045196D01*
X133068777Y-85935558D01*
X133129042Y-85803596D01*
X133149688Y-85660000D01*
X133129042Y-85516404D01*
X133068777Y-85384442D01*
X132973775Y-85274804D01*
X132973774Y-85274803D01*
X132930164Y-85246776D01*
X132851732Y-85196371D01*
X132712536Y-85155500D01*
X132567464Y-85155500D01*
X132428268Y-85196371D01*
X132306225Y-85274803D01*
X132211222Y-85384443D01*
X132150957Y-85516403D01*
X132130312Y-85659999D01*
X132150957Y-85803596D01*
X132211222Y-85935556D01*
X132211223Y-85935558D01*
X132306225Y-86045196D01*
X132400348Y-86105686D01*
X132446101Y-86158487D01*
X132456045Y-86227646D01*
X132427020Y-86291202D01*
X132400348Y-86314314D01*
X132306224Y-86374804D01*
X132211222Y-86484443D01*
X132150957Y-86616403D01*
X132130312Y-86760000D01*
X105487705Y-86760000D01*
X105458477Y-86575466D01*
X105395220Y-86380781D01*
X105302287Y-86198390D01*
X105181966Y-86032781D01*
X105037219Y-85888034D01*
X104871610Y-85767713D01*
X104689219Y-85674780D01*
X104689218Y-85674779D01*
X104689217Y-85674779D01*
X104494532Y-85611522D01*
X104292354Y-85579500D01*
X104292352Y-85579500D01*
X104246173Y-85579500D01*
X101196093Y-85579500D01*
X101183939Y-85578903D01*
X101133081Y-85573893D01*
X101065688Y-85567256D01*
X101041848Y-85562514D01*
X100933997Y-85529798D01*
X100911541Y-85520496D01*
X100812150Y-85467370D01*
X100791940Y-85453866D01*
X100704820Y-85382369D01*
X100687630Y-85365179D01*
X100616133Y-85278059D01*
X100602629Y-85257849D01*
X100563441Y-85184534D01*
X100549501Y-85158453D01*
X100540201Y-85136002D01*
X100507483Y-85028145D01*
X100502744Y-85004317D01*
X100491097Y-84886061D01*
X100490500Y-84873907D01*
X100490500Y-83310000D01*
X154970312Y-83310000D01*
X154990957Y-83453596D01*
X155051222Y-83585556D01*
X155051223Y-83585558D01*
X155146225Y-83695196D01*
X155268268Y-83773629D01*
X155407464Y-83814500D01*
X155552536Y-83814500D01*
X155691732Y-83773629D01*
X155813775Y-83695196D01*
X155908777Y-83585558D01*
X155969042Y-83453596D01*
X155989688Y-83310000D01*
X155969042Y-83166404D01*
X155908777Y-83034442D01*
X155813775Y-82924804D01*
X155813774Y-82924803D01*
X155770164Y-82896776D01*
X155691732Y-82846371D01*
X155552536Y-82805500D01*
X155407464Y-82805500D01*
X155268268Y-82846371D01*
X155146225Y-82924803D01*
X155051222Y-83034443D01*
X154990957Y-83166403D01*
X154970312Y-83310000D01*
X100490500Y-83310000D01*
X100490500Y-82159999D01*
X143090312Y-82159999D01*
X143110957Y-82303596D01*
X143171222Y-82435556D01*
X143171223Y-82435558D01*
X143266225Y-82545196D01*
X143388268Y-82623629D01*
X143527464Y-82664500D01*
X143672536Y-82664500D01*
X143811732Y-82623629D01*
X143933775Y-82545196D01*
X144028777Y-82435558D01*
X144089042Y-82303596D01*
X144109688Y-82160000D01*
X144089042Y-82016404D01*
X144028777Y-81884442D01*
X143933775Y-81774804D01*
X143933774Y-81774803D01*
X143890164Y-81746776D01*
X143811732Y-81696371D01*
X143672536Y-81655500D01*
X143527464Y-81655500D01*
X143388268Y-81696371D01*
X143266225Y-81774803D01*
X143171222Y-81884443D01*
X143110957Y-82016403D01*
X143090312Y-82159999D01*
X100490500Y-82159999D01*
X100490500Y-78640000D01*
X161470312Y-78640000D01*
X161490957Y-78783596D01*
X161551222Y-78915556D01*
X161551223Y-78915558D01*
X161646225Y-79025196D01*
X161768268Y-79103629D01*
X161907464Y-79144500D01*
X162052536Y-79144500D01*
X162191732Y-79103629D01*
X162313775Y-79025196D01*
X162408777Y-78915558D01*
X162469042Y-78783596D01*
X162489688Y-78640000D01*
X162469042Y-78496404D01*
X162408777Y-78364442D01*
X162313775Y-78254804D01*
X162313774Y-78254803D01*
X162270163Y-78226776D01*
X162191732Y-78176371D01*
X162052536Y-78135500D01*
X161907464Y-78135500D01*
X161768268Y-78176371D01*
X161646225Y-78254803D01*
X161551222Y-78364443D01*
X161490957Y-78496403D01*
X161470312Y-78640000D01*
X100490500Y-78640000D01*
X100490500Y-75919999D01*
X153010312Y-75919999D01*
X153030957Y-76063596D01*
X153089694Y-76192210D01*
X153091223Y-76195558D01*
X153186225Y-76305196D01*
X153308268Y-76383629D01*
X153447464Y-76424500D01*
X153592536Y-76424500D01*
X153731732Y-76383629D01*
X153853775Y-76305196D01*
X153948777Y-76195558D01*
X154005890Y-76070499D01*
X155830312Y-76070499D01*
X155850957Y-76214096D01*
X155891033Y-76301848D01*
X155911223Y-76346058D01*
X156006225Y-76455696D01*
X156128268Y-76534129D01*
X156267464Y-76575000D01*
X156412536Y-76575000D01*
X156536345Y-76538647D01*
X156606213Y-76538647D01*
X156664991Y-76576421D01*
X156684070Y-76606109D01*
X156688224Y-76615204D01*
X156688225Y-76615205D01*
X156688226Y-76615207D01*
X156702890Y-76632131D01*
X156731914Y-76695687D01*
X156721970Y-76764843D01*
X156662672Y-76894687D01*
X156642026Y-77038286D01*
X156662671Y-77181882D01*
X156713690Y-77293596D01*
X156722937Y-77313844D01*
X156817939Y-77423482D01*
X156939982Y-77501915D01*
X157079178Y-77542786D01*
X157224250Y-77542786D01*
X157363446Y-77501915D01*
X157485489Y-77423482D01*
X157580491Y-77313844D01*
X157640756Y-77181882D01*
X157661402Y-77038286D01*
X157640756Y-76894690D01*
X157621700Y-76852964D01*
X157610623Y-76828708D01*
X157580491Y-76762728D01*
X157565824Y-76745801D01*
X157536800Y-76682247D01*
X157546744Y-76613089D01*
X157546744Y-76613088D01*
X157549930Y-76606113D01*
X157563040Y-76577405D01*
X158649812Y-76577405D01*
X158670457Y-76721002D01*
X158730722Y-76852962D01*
X158730723Y-76852964D01*
X158766878Y-76894689D01*
X158825725Y-76962602D01*
X158947768Y-77041035D01*
X159061721Y-77074494D01*
X159120500Y-77112268D01*
X159149525Y-77175823D01*
X159149525Y-77175824D01*
X159166457Y-77293596D01*
X159225775Y-77423482D01*
X159226723Y-77425558D01*
X159321725Y-77535196D01*
X159443768Y-77613629D01*
X159582964Y-77654500D01*
X159728036Y-77654500D01*
X159867232Y-77613629D01*
X159989275Y-77535196D01*
X160084277Y-77425558D01*
X160144542Y-77293596D01*
X160165188Y-77150000D01*
X160144542Y-77006404D01*
X160084277Y-76874442D01*
X159989275Y-76764804D01*
X159989274Y-76764803D01*
X159921118Y-76721002D01*
X159867232Y-76686371D01*
X159807850Y-76668935D01*
X159753277Y-76652911D01*
X159694499Y-76615137D01*
X159665475Y-76551583D01*
X159648542Y-76433810D01*
X159644290Y-76424500D01*
X159588277Y-76301849D01*
X159588277Y-76301848D01*
X159493275Y-76192210D01*
X159493274Y-76192209D01*
X159436241Y-76155556D01*
X159371232Y-76113777D01*
X159232036Y-76072906D01*
X159086964Y-76072906D01*
X158947768Y-76113777D01*
X158825725Y-76192209D01*
X158730722Y-76301849D01*
X158670457Y-76433809D01*
X158649812Y-76577405D01*
X157563040Y-76577405D01*
X157606043Y-76483242D01*
X157613450Y-76467024D01*
X157615420Y-76467923D01*
X157633974Y-76427297D01*
X157692753Y-76389523D01*
X157727687Y-76384500D01*
X157732536Y-76384500D01*
X157871732Y-76343629D01*
X157993775Y-76265196D01*
X158088777Y-76155558D01*
X158149042Y-76023596D01*
X158169688Y-75880000D01*
X158149042Y-75736404D01*
X158125705Y-75685304D01*
X158088777Y-75604443D01*
X158088777Y-75604442D01*
X157993775Y-75494804D01*
X157993774Y-75494803D01*
X157950163Y-75466776D01*
X157871732Y-75416371D01*
X157732536Y-75375500D01*
X157587464Y-75375500D01*
X157448268Y-75416371D01*
X157326225Y-75494803D01*
X157231222Y-75604443D01*
X157163551Y-75752622D01*
X157161580Y-75751722D01*
X157143027Y-75792349D01*
X157084248Y-75830123D01*
X157049314Y-75835146D01*
X157044464Y-75835146D01*
X156920657Y-75871498D01*
X156850787Y-75871498D01*
X156792009Y-75833723D01*
X156772929Y-75804033D01*
X156768777Y-75794943D01*
X156768777Y-75794942D01*
X156673775Y-75685304D01*
X156673774Y-75685303D01*
X156630163Y-75657276D01*
X156551732Y-75606871D01*
X156412536Y-75566000D01*
X156267464Y-75566000D01*
X156128268Y-75606871D01*
X156006225Y-75685303D01*
X155911222Y-75794943D01*
X155850957Y-75926903D01*
X155830312Y-76070499D01*
X154005890Y-76070499D01*
X154009042Y-76063596D01*
X154029688Y-75920000D01*
X154009042Y-75776404D01*
X153948777Y-75644442D01*
X153853775Y-75534804D01*
X153853774Y-75534803D01*
X153791533Y-75494803D01*
X153731732Y-75456371D01*
X153592536Y-75415500D01*
X153447464Y-75415500D01*
X153308268Y-75456371D01*
X153186225Y-75534803D01*
X153091222Y-75644443D01*
X153030957Y-75776403D01*
X153010312Y-75919999D01*
X100490500Y-75919999D01*
X100490500Y-74710000D01*
X130370312Y-74710000D01*
X130390957Y-74853596D01*
X130437522Y-74955558D01*
X130451223Y-74985558D01*
X130546225Y-75095196D01*
X130668268Y-75173629D01*
X130807464Y-75214500D01*
X130952536Y-75214500D01*
X131091732Y-75173629D01*
X131213775Y-75095196D01*
X131308777Y-74985558D01*
X131369042Y-74853596D01*
X131389688Y-74710000D01*
X131385375Y-74680000D01*
X132060312Y-74680000D01*
X132080957Y-74823596D01*
X132141222Y-74955556D01*
X132141223Y-74955558D01*
X132236225Y-75065196D01*
X132358268Y-75143629D01*
X132497464Y-75184500D01*
X132642536Y-75184500D01*
X132781732Y-75143629D01*
X132903775Y-75065196D01*
X132998777Y-74955558D01*
X133059042Y-74823596D01*
X133079688Y-74680000D01*
X133059042Y-74536404D01*
X132998777Y-74404442D01*
X132968932Y-74369999D01*
X141940312Y-74369999D01*
X141960957Y-74513596D01*
X142021222Y-74645556D01*
X142021223Y-74645558D01*
X142116225Y-74755196D01*
X142238268Y-74833629D01*
X142377464Y-74874500D01*
X142522536Y-74874500D01*
X142661732Y-74833629D01*
X142783775Y-74755196D01*
X142878777Y-74645558D01*
X142939042Y-74513596D01*
X142959688Y-74370000D01*
X142939042Y-74226404D01*
X142929495Y-74205500D01*
X142878777Y-74094443D01*
X142878777Y-74094442D01*
X142783775Y-73984804D01*
X142783774Y-73984803D01*
X142740163Y-73956776D01*
X142661732Y-73906371D01*
X142522536Y-73865500D01*
X142377464Y-73865500D01*
X142238268Y-73906371D01*
X142116225Y-73984803D01*
X142021222Y-74094443D01*
X141960957Y-74226403D01*
X141940312Y-74369999D01*
X132968932Y-74369999D01*
X132903775Y-74294804D01*
X132903774Y-74294803D01*
X132828412Y-74246371D01*
X132781732Y-74216371D01*
X132642536Y-74175500D01*
X132497464Y-74175500D01*
X132358268Y-74216371D01*
X132236225Y-74294803D01*
X132141222Y-74404443D01*
X132080957Y-74536403D01*
X132060312Y-74680000D01*
X131385375Y-74680000D01*
X131369042Y-74566404D01*
X131355341Y-74536404D01*
X131308777Y-74434443D01*
X131308777Y-74434442D01*
X131213775Y-74324804D01*
X131213774Y-74324803D01*
X131170164Y-74296776D01*
X131091732Y-74246371D01*
X130952536Y-74205500D01*
X130807464Y-74205500D01*
X130668268Y-74246371D01*
X130546225Y-74324803D01*
X130451222Y-74434443D01*
X130390957Y-74566403D01*
X130370312Y-74710000D01*
X100490500Y-74710000D01*
X100490500Y-70849284D01*
X100510185Y-70782245D01*
X100562989Y-70736490D01*
X100632147Y-70726546D01*
X100695703Y-70755571D01*
X100732430Y-70810965D01*
X100796036Y-71006723D01*
X100797509Y-71009949D01*
X100797512Y-71009956D01*
X100872077Y-71173231D01*
X100943336Y-71329266D01*
X101126443Y-71632915D01*
X101342971Y-71913713D01*
X101458953Y-72033056D01*
X101587619Y-72165450D01*
X101587625Y-72165456D01*
X101590095Y-72167997D01*
X101864595Y-72392455D01*
X102162891Y-72584159D01*
X102481096Y-72740609D01*
X102484425Y-72741797D01*
X102484428Y-72741798D01*
X102811725Y-72858578D01*
X102811729Y-72858579D01*
X102815061Y-72859768D01*
X103160432Y-72940080D01*
X103512707Y-72980500D01*
X103516250Y-72980500D01*
X103776791Y-72980500D01*
X103778576Y-72980500D01*
X104044008Y-72965322D01*
X104393400Y-72904857D01*
X104733623Y-72804959D01*
X105060241Y-72666929D01*
X105368995Y-72492568D01*
X105655861Y-72284147D01*
X105917099Y-72044385D01*
X105933840Y-72025065D01*
X107455500Y-72025065D01*
X107470266Y-72099301D01*
X107526515Y-72183484D01*
X107576506Y-72216887D01*
X107610699Y-72239734D01*
X107684933Y-72254500D01*
X109435066Y-72254499D01*
X109509301Y-72239734D01*
X109593484Y-72183484D01*
X109649734Y-72099301D01*
X109664500Y-72025067D01*
X109664499Y-71149999D01*
X109990768Y-71149999D01*
X110009654Y-71353823D01*
X110065670Y-71550699D01*
X110156911Y-71733934D01*
X110280268Y-71897286D01*
X110431535Y-72035184D01*
X110431537Y-72035185D01*
X110431538Y-72035186D01*
X110605573Y-72142944D01*
X110796444Y-72216888D01*
X110997653Y-72254500D01*
X110997655Y-72254500D01*
X111202345Y-72254500D01*
X111202347Y-72254500D01*
X111403556Y-72216888D01*
X111594427Y-72142944D01*
X111768462Y-72035186D01*
X111919732Y-71897285D01*
X112043088Y-71733935D01*
X112134328Y-71550701D01*
X112134329Y-71550699D01*
X112190345Y-71353823D01*
X112193083Y-71324265D01*
X112209232Y-71150000D01*
X112209232Y-71149999D01*
X112530768Y-71149999D01*
X112549654Y-71353823D01*
X112605670Y-71550699D01*
X112696911Y-71733934D01*
X112820268Y-71897286D01*
X112971535Y-72035184D01*
X112971537Y-72035185D01*
X112971538Y-72035186D01*
X113145573Y-72142944D01*
X113336444Y-72216888D01*
X113537653Y-72254500D01*
X113537655Y-72254500D01*
X113742345Y-72254500D01*
X113742347Y-72254500D01*
X113943556Y-72216888D01*
X114134427Y-72142944D01*
X114308462Y-72035186D01*
X114459732Y-71897285D01*
X114583088Y-71733935D01*
X114674328Y-71550701D01*
X114674329Y-71550699D01*
X114730345Y-71353823D01*
X114733083Y-71324265D01*
X114749232Y-71150000D01*
X114749232Y-71149999D01*
X115070768Y-71149999D01*
X115089654Y-71353823D01*
X115145670Y-71550699D01*
X115236911Y-71733934D01*
X115360268Y-71897286D01*
X115511535Y-72035184D01*
X115511537Y-72035185D01*
X115511538Y-72035186D01*
X115685573Y-72142944D01*
X115876444Y-72216888D01*
X116077653Y-72254500D01*
X116077655Y-72254500D01*
X116282345Y-72254500D01*
X116282347Y-72254500D01*
X116483556Y-72216888D01*
X116674427Y-72142944D01*
X116848462Y-72035186D01*
X116999732Y-71897285D01*
X117123088Y-71733935D01*
X117214328Y-71550701D01*
X117214329Y-71550699D01*
X117270345Y-71353823D01*
X117273083Y-71324265D01*
X117289232Y-71150000D01*
X117289232Y-71149999D01*
X120150768Y-71149999D01*
X120169654Y-71353823D01*
X120225670Y-71550699D01*
X120316911Y-71733934D01*
X120440268Y-71897286D01*
X120591535Y-72035184D01*
X120591537Y-72035185D01*
X120591538Y-72035186D01*
X120765573Y-72142944D01*
X120956444Y-72216888D01*
X121157653Y-72254500D01*
X121157655Y-72254500D01*
X121362345Y-72254500D01*
X121362347Y-72254500D01*
X121563556Y-72216888D01*
X121754427Y-72142944D01*
X121928462Y-72035186D01*
X122079732Y-71897285D01*
X122203088Y-71733935D01*
X122294328Y-71550701D01*
X122294329Y-71550699D01*
X122350345Y-71353823D01*
X122353083Y-71324265D01*
X122369232Y-71150000D01*
X122369232Y-71149999D01*
X122690768Y-71149999D01*
X122709654Y-71353823D01*
X122765670Y-71550699D01*
X122856911Y-71733934D01*
X122980268Y-71897286D01*
X123131535Y-72035184D01*
X123131537Y-72035185D01*
X123131538Y-72035186D01*
X123305573Y-72142944D01*
X123496444Y-72216888D01*
X123697653Y-72254500D01*
X123697655Y-72254500D01*
X123902345Y-72254500D01*
X123902347Y-72254500D01*
X124103556Y-72216888D01*
X124294427Y-72142944D01*
X124468462Y-72035186D01*
X124619732Y-71897285D01*
X124743088Y-71733935D01*
X124834328Y-71550701D01*
X124834329Y-71550699D01*
X124890345Y-71353823D01*
X124893083Y-71324265D01*
X124909232Y-71150000D01*
X124909232Y-71149999D01*
X125230768Y-71149999D01*
X125249654Y-71353823D01*
X125305670Y-71550699D01*
X125396911Y-71733934D01*
X125520268Y-71897286D01*
X125671535Y-72035184D01*
X125671537Y-72035185D01*
X125671538Y-72035186D01*
X125845573Y-72142944D01*
X126036444Y-72216888D01*
X126237653Y-72254500D01*
X126237655Y-72254500D01*
X126442345Y-72254500D01*
X126442347Y-72254500D01*
X126643556Y-72216888D01*
X126834427Y-72142944D01*
X127008462Y-72035186D01*
X127159732Y-71897285D01*
X127283088Y-71733935D01*
X127374328Y-71550701D01*
X127374329Y-71550699D01*
X127430345Y-71353823D01*
X127433083Y-71324265D01*
X127449232Y-71150000D01*
X127449232Y-71149999D01*
X127770768Y-71149999D01*
X127789654Y-71353823D01*
X127845670Y-71550699D01*
X127936911Y-71733934D01*
X128060268Y-71897286D01*
X128211535Y-72035184D01*
X128211537Y-72035185D01*
X128211538Y-72035186D01*
X128385573Y-72142944D01*
X128576444Y-72216888D01*
X128777653Y-72254500D01*
X128777655Y-72254500D01*
X128982345Y-72254500D01*
X128982347Y-72254500D01*
X129183556Y-72216888D01*
X129374427Y-72142944D01*
X129548462Y-72035186D01*
X129699732Y-71897285D01*
X129823088Y-71733935D01*
X129914328Y-71550701D01*
X129914329Y-71550699D01*
X129970345Y-71353823D01*
X129973083Y-71324265D01*
X129989232Y-71150000D01*
X129989232Y-71149999D01*
X130310768Y-71149999D01*
X130329654Y-71353823D01*
X130385670Y-71550699D01*
X130476911Y-71733934D01*
X130600268Y-71897286D01*
X130751535Y-72035184D01*
X130751537Y-72035185D01*
X130751538Y-72035186D01*
X130925573Y-72142944D01*
X131116444Y-72216888D01*
X131317653Y-72254500D01*
X131317655Y-72254500D01*
X131522345Y-72254500D01*
X131522347Y-72254500D01*
X131723556Y-72216888D01*
X131914427Y-72142944D01*
X132088462Y-72035186D01*
X132239732Y-71897285D01*
X132363088Y-71733935D01*
X132454328Y-71550701D01*
X132454329Y-71550699D01*
X132510345Y-71353823D01*
X132513083Y-71324265D01*
X132529232Y-71150000D01*
X132529232Y-71149999D01*
X132850768Y-71149999D01*
X132869654Y-71353823D01*
X132925670Y-71550699D01*
X133016911Y-71733934D01*
X133140268Y-71897286D01*
X133291535Y-72035184D01*
X133291537Y-72035185D01*
X133291538Y-72035186D01*
X133465573Y-72142944D01*
X133656444Y-72216888D01*
X133857653Y-72254500D01*
X133857655Y-72254500D01*
X134062345Y-72254500D01*
X134062347Y-72254500D01*
X134263556Y-72216888D01*
X134454427Y-72142944D01*
X134628462Y-72035186D01*
X134779732Y-71897285D01*
X134903088Y-71733935D01*
X134994328Y-71550701D01*
X134994329Y-71550699D01*
X135050345Y-71353823D01*
X135053083Y-71324265D01*
X135069232Y-71150000D01*
X135069232Y-71149999D01*
X135390768Y-71149999D01*
X135409654Y-71353823D01*
X135465670Y-71550699D01*
X135556911Y-71733934D01*
X135680268Y-71897286D01*
X135831535Y-72035184D01*
X135831537Y-72035185D01*
X135831538Y-72035186D01*
X136005573Y-72142944D01*
X136196444Y-72216888D01*
X136397653Y-72254500D01*
X136397655Y-72254500D01*
X136602345Y-72254500D01*
X136602347Y-72254500D01*
X136803556Y-72216888D01*
X136994427Y-72142944D01*
X137168462Y-72035186D01*
X137319732Y-71897285D01*
X137443088Y-71733935D01*
X137534328Y-71550701D01*
X137534329Y-71550699D01*
X137590345Y-71353823D01*
X137593083Y-71324265D01*
X137609232Y-71150000D01*
X137609232Y-71149999D01*
X140470768Y-71149999D01*
X140489654Y-71353823D01*
X140545670Y-71550699D01*
X140636911Y-71733934D01*
X140760268Y-71897286D01*
X140911535Y-72035184D01*
X140911537Y-72035185D01*
X140911538Y-72035186D01*
X141085573Y-72142944D01*
X141276444Y-72216888D01*
X141477653Y-72254500D01*
X141477655Y-72254500D01*
X141682345Y-72254500D01*
X141682347Y-72254500D01*
X141883556Y-72216888D01*
X142074427Y-72142944D01*
X142248462Y-72035186D01*
X142399732Y-71897285D01*
X142523088Y-71733935D01*
X142614328Y-71550701D01*
X142614329Y-71550699D01*
X142670345Y-71353823D01*
X142673083Y-71324265D01*
X142689232Y-71150000D01*
X142689232Y-71149999D01*
X143010768Y-71149999D01*
X143029654Y-71353823D01*
X143085670Y-71550699D01*
X143176911Y-71733934D01*
X143300268Y-71897286D01*
X143451535Y-72035184D01*
X143451537Y-72035185D01*
X143451538Y-72035186D01*
X143625573Y-72142944D01*
X143816444Y-72216888D01*
X144017653Y-72254500D01*
X144017655Y-72254500D01*
X144222345Y-72254500D01*
X144222347Y-72254500D01*
X144423556Y-72216888D01*
X144614427Y-72142944D01*
X144788462Y-72035186D01*
X144939732Y-71897285D01*
X145063088Y-71733935D01*
X145154328Y-71550701D01*
X145154329Y-71550699D01*
X145210345Y-71353823D01*
X145213083Y-71324265D01*
X145229232Y-71150000D01*
X145229232Y-71149999D01*
X145550768Y-71149999D01*
X145569654Y-71353823D01*
X145625670Y-71550699D01*
X145716911Y-71733934D01*
X145840268Y-71897286D01*
X145991535Y-72035184D01*
X145991537Y-72035185D01*
X145991538Y-72035186D01*
X146165573Y-72142944D01*
X146356444Y-72216888D01*
X146557653Y-72254500D01*
X146557655Y-72254500D01*
X146762345Y-72254500D01*
X146762347Y-72254500D01*
X146963556Y-72216888D01*
X147154427Y-72142944D01*
X147328462Y-72035186D01*
X147479732Y-71897285D01*
X147603088Y-71733935D01*
X147694328Y-71550701D01*
X147694329Y-71550699D01*
X147750345Y-71353823D01*
X147753083Y-71324265D01*
X147769232Y-71150000D01*
X147769232Y-71149999D01*
X148090768Y-71149999D01*
X148109654Y-71353823D01*
X148165670Y-71550699D01*
X148256911Y-71733934D01*
X148380268Y-71897286D01*
X148531535Y-72035184D01*
X148531537Y-72035185D01*
X148531538Y-72035186D01*
X148705573Y-72142944D01*
X148896444Y-72216888D01*
X149097653Y-72254500D01*
X149097655Y-72254500D01*
X149302345Y-72254500D01*
X149302347Y-72254500D01*
X149503556Y-72216888D01*
X149694427Y-72142944D01*
X149868462Y-72035186D01*
X150019732Y-71897285D01*
X150143088Y-71733935D01*
X150234328Y-71550701D01*
X150234329Y-71550699D01*
X150290345Y-71353823D01*
X150293083Y-71324265D01*
X150309232Y-71150000D01*
X150309232Y-71149999D01*
X150630768Y-71149999D01*
X150649654Y-71353823D01*
X150705670Y-71550699D01*
X150796911Y-71733934D01*
X150920268Y-71897286D01*
X151071535Y-72035184D01*
X151071537Y-72035185D01*
X151071538Y-72035186D01*
X151245573Y-72142944D01*
X151436444Y-72216888D01*
X151637653Y-72254500D01*
X151637655Y-72254500D01*
X151842345Y-72254500D01*
X151842347Y-72254500D01*
X152043556Y-72216888D01*
X152234427Y-72142944D01*
X152408462Y-72035186D01*
X152559732Y-71897285D01*
X152683088Y-71733935D01*
X152774328Y-71550701D01*
X152774329Y-71550699D01*
X152830345Y-71353823D01*
X152833083Y-71324265D01*
X152849232Y-71150000D01*
X152849232Y-71149999D01*
X153170768Y-71149999D01*
X153189654Y-71353823D01*
X153245670Y-71550699D01*
X153336911Y-71733934D01*
X153460268Y-71897286D01*
X153611535Y-72035184D01*
X153611537Y-72035185D01*
X153611538Y-72035186D01*
X153785573Y-72142944D01*
X153976444Y-72216888D01*
X154177653Y-72254500D01*
X154177655Y-72254500D01*
X154382345Y-72254500D01*
X154382347Y-72254500D01*
X154583556Y-72216888D01*
X154774427Y-72142944D01*
X154948462Y-72035186D01*
X155099732Y-71897285D01*
X155223088Y-71733935D01*
X155314328Y-71550701D01*
X155314329Y-71550699D01*
X155370345Y-71353823D01*
X155373083Y-71324265D01*
X155389232Y-71150000D01*
X155370345Y-70946179D01*
X155370345Y-70946176D01*
X155314329Y-70749300D01*
X155223088Y-70566065D01*
X155099731Y-70402713D01*
X154948464Y-70264815D01*
X154774427Y-70157056D01*
X154669781Y-70116516D01*
X154583556Y-70083112D01*
X154382347Y-70045500D01*
X154177653Y-70045500D01*
X153976443Y-70083112D01*
X153976444Y-70083112D01*
X153785572Y-70157056D01*
X153611535Y-70264815D01*
X153460268Y-70402713D01*
X153336911Y-70566065D01*
X153245670Y-70749300D01*
X153189654Y-70946176D01*
X153170768Y-71149999D01*
X152849232Y-71149999D01*
X152830345Y-70946179D01*
X152830345Y-70946176D01*
X152774329Y-70749300D01*
X152683088Y-70566065D01*
X152559731Y-70402713D01*
X152408464Y-70264815D01*
X152234427Y-70157056D01*
X152129781Y-70116516D01*
X152043556Y-70083112D01*
X151842347Y-70045500D01*
X151637653Y-70045500D01*
X151436444Y-70083112D01*
X151245572Y-70157056D01*
X151071535Y-70264815D01*
X150920268Y-70402713D01*
X150796911Y-70566065D01*
X150705670Y-70749300D01*
X150649654Y-70946176D01*
X150630768Y-71149999D01*
X150309232Y-71149999D01*
X150290345Y-70946179D01*
X150290345Y-70946176D01*
X150234329Y-70749300D01*
X150143088Y-70566065D01*
X150019731Y-70402713D01*
X149868464Y-70264815D01*
X149694427Y-70157056D01*
X149589781Y-70116516D01*
X149503556Y-70083112D01*
X149302347Y-70045500D01*
X149097653Y-70045500D01*
X148896443Y-70083112D01*
X148896444Y-70083112D01*
X148705572Y-70157056D01*
X148531535Y-70264815D01*
X148380268Y-70402713D01*
X148256911Y-70566065D01*
X148165670Y-70749300D01*
X148109654Y-70946176D01*
X148090768Y-71149999D01*
X147769232Y-71149999D01*
X147750345Y-70946179D01*
X147750345Y-70946176D01*
X147694329Y-70749300D01*
X147603088Y-70566065D01*
X147479731Y-70402713D01*
X147328464Y-70264815D01*
X147154427Y-70157056D01*
X147049781Y-70116516D01*
X146963556Y-70083112D01*
X146762347Y-70045500D01*
X146557653Y-70045500D01*
X146356444Y-70083112D01*
X146165572Y-70157056D01*
X145991535Y-70264815D01*
X145840268Y-70402713D01*
X145716911Y-70566065D01*
X145625670Y-70749300D01*
X145569654Y-70946176D01*
X145550768Y-71149999D01*
X145229232Y-71149999D01*
X145210345Y-70946179D01*
X145210345Y-70946176D01*
X145154329Y-70749300D01*
X145063088Y-70566065D01*
X144939731Y-70402713D01*
X144788464Y-70264815D01*
X144614427Y-70157056D01*
X144509781Y-70116516D01*
X144423556Y-70083112D01*
X144222347Y-70045500D01*
X144017653Y-70045500D01*
X143816443Y-70083112D01*
X143816444Y-70083112D01*
X143625572Y-70157056D01*
X143451535Y-70264815D01*
X143300268Y-70402713D01*
X143176911Y-70566065D01*
X143085670Y-70749300D01*
X143029654Y-70946176D01*
X143010768Y-71149999D01*
X142689232Y-71149999D01*
X142670345Y-70946179D01*
X142670345Y-70946176D01*
X142614329Y-70749300D01*
X142523088Y-70566065D01*
X142399731Y-70402713D01*
X142248464Y-70264815D01*
X142074427Y-70157056D01*
X141969781Y-70116516D01*
X141883556Y-70083112D01*
X141682347Y-70045500D01*
X141477653Y-70045500D01*
X141276444Y-70083112D01*
X141085572Y-70157056D01*
X140911535Y-70264815D01*
X140760268Y-70402713D01*
X140636911Y-70566065D01*
X140545670Y-70749300D01*
X140489654Y-70946176D01*
X140470768Y-71149999D01*
X137609232Y-71149999D01*
X137590345Y-70946179D01*
X137590345Y-70946176D01*
X137534329Y-70749300D01*
X137443088Y-70566065D01*
X137319731Y-70402713D01*
X137168464Y-70264815D01*
X136994427Y-70157056D01*
X136889781Y-70116516D01*
X136803556Y-70083112D01*
X136602347Y-70045500D01*
X136397653Y-70045500D01*
X136196444Y-70083112D01*
X136005572Y-70157056D01*
X135831535Y-70264815D01*
X135680268Y-70402713D01*
X135556911Y-70566065D01*
X135465670Y-70749300D01*
X135409654Y-70946176D01*
X135390768Y-71149999D01*
X135069232Y-71149999D01*
X135050345Y-70946179D01*
X135050345Y-70946176D01*
X134994329Y-70749300D01*
X134903088Y-70566065D01*
X134779731Y-70402713D01*
X134628464Y-70264815D01*
X134454427Y-70157056D01*
X134349781Y-70116516D01*
X134263556Y-70083112D01*
X134062347Y-70045500D01*
X133857653Y-70045500D01*
X133656443Y-70083112D01*
X133656444Y-70083112D01*
X133465572Y-70157056D01*
X133291535Y-70264815D01*
X133140268Y-70402713D01*
X133016911Y-70566065D01*
X132925670Y-70749300D01*
X132869654Y-70946176D01*
X132850768Y-71149999D01*
X132529232Y-71149999D01*
X132510345Y-70946179D01*
X132510345Y-70946176D01*
X132454329Y-70749300D01*
X132363088Y-70566065D01*
X132239731Y-70402713D01*
X132088464Y-70264815D01*
X131914427Y-70157056D01*
X131809781Y-70116516D01*
X131723556Y-70083112D01*
X131522347Y-70045500D01*
X131317653Y-70045500D01*
X131116444Y-70083112D01*
X130925572Y-70157056D01*
X130751535Y-70264815D01*
X130600268Y-70402713D01*
X130476911Y-70566065D01*
X130385670Y-70749300D01*
X130329654Y-70946176D01*
X130310768Y-71149999D01*
X129989232Y-71149999D01*
X129970345Y-70946179D01*
X129970345Y-70946176D01*
X129914329Y-70749300D01*
X129823088Y-70566065D01*
X129699731Y-70402713D01*
X129548464Y-70264815D01*
X129374427Y-70157056D01*
X129269781Y-70116516D01*
X129183556Y-70083112D01*
X128982347Y-70045500D01*
X128777653Y-70045500D01*
X128576443Y-70083112D01*
X128576444Y-70083112D01*
X128385572Y-70157056D01*
X128211535Y-70264815D01*
X128060268Y-70402713D01*
X127936911Y-70566065D01*
X127845670Y-70749300D01*
X127789654Y-70946176D01*
X127770768Y-71149999D01*
X127449232Y-71149999D01*
X127430345Y-70946179D01*
X127430345Y-70946176D01*
X127374329Y-70749300D01*
X127283088Y-70566065D01*
X127159731Y-70402713D01*
X127008464Y-70264815D01*
X126834427Y-70157056D01*
X126729781Y-70116516D01*
X126643556Y-70083112D01*
X126442347Y-70045500D01*
X126237653Y-70045500D01*
X126036444Y-70083112D01*
X125845572Y-70157056D01*
X125671535Y-70264815D01*
X125520268Y-70402713D01*
X125396911Y-70566065D01*
X125305670Y-70749300D01*
X125249654Y-70946176D01*
X125230768Y-71149999D01*
X124909232Y-71149999D01*
X124890345Y-70946179D01*
X124890345Y-70946176D01*
X124834329Y-70749300D01*
X124743088Y-70566065D01*
X124619731Y-70402713D01*
X124468464Y-70264815D01*
X124294427Y-70157056D01*
X124189781Y-70116516D01*
X124103556Y-70083112D01*
X123902347Y-70045500D01*
X123697653Y-70045500D01*
X123496443Y-70083112D01*
X123496444Y-70083112D01*
X123305572Y-70157056D01*
X123131535Y-70264815D01*
X122980268Y-70402713D01*
X122856911Y-70566065D01*
X122765670Y-70749300D01*
X122709654Y-70946176D01*
X122690768Y-71149999D01*
X122369232Y-71149999D01*
X122350345Y-70946179D01*
X122350345Y-70946176D01*
X122294329Y-70749300D01*
X122203088Y-70566065D01*
X122079731Y-70402713D01*
X121928464Y-70264815D01*
X121754427Y-70157056D01*
X121649781Y-70116516D01*
X121563556Y-70083112D01*
X121362347Y-70045500D01*
X121157653Y-70045500D01*
X120956444Y-70083112D01*
X120765572Y-70157056D01*
X120591535Y-70264815D01*
X120440268Y-70402713D01*
X120316911Y-70566065D01*
X120225670Y-70749300D01*
X120169654Y-70946176D01*
X120150768Y-71149999D01*
X117289232Y-71149999D01*
X117270345Y-70946179D01*
X117270345Y-70946176D01*
X117214329Y-70749300D01*
X117123088Y-70566065D01*
X116999731Y-70402713D01*
X116848464Y-70264815D01*
X116674427Y-70157056D01*
X116569781Y-70116516D01*
X116483556Y-70083112D01*
X116282347Y-70045500D01*
X116077653Y-70045500D01*
X115876444Y-70083112D01*
X115685572Y-70157056D01*
X115511535Y-70264815D01*
X115360268Y-70402713D01*
X115236911Y-70566065D01*
X115145670Y-70749300D01*
X115089654Y-70946176D01*
X115070768Y-71149999D01*
X114749232Y-71149999D01*
X114730345Y-70946179D01*
X114730345Y-70946176D01*
X114674329Y-70749300D01*
X114583088Y-70566065D01*
X114459731Y-70402713D01*
X114308464Y-70264815D01*
X114134427Y-70157056D01*
X114029781Y-70116516D01*
X113943556Y-70083112D01*
X113742347Y-70045500D01*
X113537653Y-70045500D01*
X113336443Y-70083112D01*
X113336444Y-70083112D01*
X113145572Y-70157056D01*
X112971535Y-70264815D01*
X112820268Y-70402713D01*
X112696911Y-70566065D01*
X112605670Y-70749300D01*
X112549654Y-70946176D01*
X112530768Y-71149999D01*
X112209232Y-71149999D01*
X112190345Y-70946179D01*
X112190345Y-70946176D01*
X112134329Y-70749300D01*
X112043088Y-70566065D01*
X111919731Y-70402713D01*
X111768464Y-70264815D01*
X111594427Y-70157056D01*
X111489781Y-70116516D01*
X111403556Y-70083112D01*
X111202347Y-70045500D01*
X110997653Y-70045500D01*
X110796444Y-70083112D01*
X110605572Y-70157056D01*
X110431535Y-70264815D01*
X110280268Y-70402713D01*
X110156911Y-70566065D01*
X110065670Y-70749300D01*
X110009654Y-70946176D01*
X109990768Y-71149999D01*
X109664499Y-71149999D01*
X109664499Y-70274934D01*
X109649734Y-70200699D01*
X109610649Y-70142205D01*
X109593484Y-70116515D01*
X109509300Y-70060265D01*
X109435069Y-70045500D01*
X107684934Y-70045500D01*
X107610698Y-70060266D01*
X107526515Y-70116515D01*
X107470265Y-70200699D01*
X107455500Y-70274930D01*
X107455500Y-72025065D01*
X105933840Y-72025065D01*
X106149304Y-71776407D01*
X106349448Y-71483706D01*
X106514921Y-71170098D01*
X106643568Y-70839672D01*
X106733710Y-70496736D01*
X106784173Y-70145759D01*
X106794299Y-69791317D01*
X106763955Y-69438032D01*
X106693537Y-69090508D01*
X106583964Y-68753277D01*
X106518532Y-68610000D01*
X107450768Y-68610000D01*
X107469654Y-68813823D01*
X107525670Y-69010699D01*
X107616911Y-69193934D01*
X107740268Y-69357286D01*
X107891535Y-69495184D01*
X107891537Y-69495185D01*
X107891538Y-69495186D01*
X108065573Y-69602944D01*
X108256444Y-69676888D01*
X108457653Y-69714500D01*
X108457655Y-69714500D01*
X108662345Y-69714500D01*
X108662347Y-69714500D01*
X108863556Y-69676888D01*
X109054427Y-69602944D01*
X109228462Y-69495186D01*
X109379732Y-69357285D01*
X109503088Y-69193935D01*
X109594328Y-69010701D01*
X109594329Y-69010699D01*
X109650345Y-68813823D01*
X109656255Y-68750043D01*
X109669232Y-68610000D01*
X109990768Y-68610000D01*
X110009654Y-68813823D01*
X110065670Y-69010699D01*
X110156911Y-69193934D01*
X110280268Y-69357286D01*
X110431535Y-69495184D01*
X110431537Y-69495185D01*
X110431538Y-69495186D01*
X110605573Y-69602944D01*
X110796444Y-69676888D01*
X110997653Y-69714500D01*
X110997655Y-69714500D01*
X111202345Y-69714500D01*
X111202347Y-69714500D01*
X111403556Y-69676888D01*
X111594427Y-69602944D01*
X111768462Y-69495186D01*
X111919732Y-69357285D01*
X112043088Y-69193935D01*
X112134328Y-69010701D01*
X112134329Y-69010699D01*
X112190345Y-68813823D01*
X112196255Y-68750043D01*
X112209232Y-68610000D01*
X115070768Y-68610000D01*
X115089654Y-68813823D01*
X115145670Y-69010699D01*
X115236911Y-69193934D01*
X115360268Y-69357286D01*
X115511535Y-69495184D01*
X115511537Y-69495185D01*
X115511538Y-69495186D01*
X115685573Y-69602944D01*
X115876444Y-69676888D01*
X116077653Y-69714500D01*
X116077655Y-69714500D01*
X116282345Y-69714500D01*
X116282347Y-69714500D01*
X116483556Y-69676888D01*
X116674427Y-69602944D01*
X116848462Y-69495186D01*
X116999732Y-69357285D01*
X117123088Y-69193935D01*
X117214328Y-69010701D01*
X117214329Y-69010699D01*
X117270345Y-68813823D01*
X117276255Y-68750043D01*
X117289232Y-68610000D01*
X117610768Y-68610000D01*
X117629654Y-68813823D01*
X117685670Y-69010699D01*
X117776911Y-69193934D01*
X117900268Y-69357286D01*
X118051535Y-69495184D01*
X118051537Y-69495185D01*
X118051538Y-69495186D01*
X118225573Y-69602944D01*
X118416444Y-69676888D01*
X118617653Y-69714500D01*
X118617655Y-69714500D01*
X118822345Y-69714500D01*
X118822347Y-69714500D01*
X119023556Y-69676888D01*
X119214427Y-69602944D01*
X119388462Y-69495186D01*
X119539732Y-69357285D01*
X119663088Y-69193935D01*
X119754328Y-69010701D01*
X119754329Y-69010699D01*
X119810345Y-68813823D01*
X119816255Y-68750043D01*
X119829232Y-68610000D01*
X120150768Y-68610000D01*
X120169654Y-68813823D01*
X120225670Y-69010699D01*
X120316911Y-69193934D01*
X120440268Y-69357286D01*
X120591535Y-69495184D01*
X120591537Y-69495185D01*
X120591538Y-69495186D01*
X120765573Y-69602944D01*
X120956444Y-69676888D01*
X121157653Y-69714500D01*
X121157655Y-69714500D01*
X121362345Y-69714500D01*
X121362347Y-69714500D01*
X121563556Y-69676888D01*
X121754427Y-69602944D01*
X121928462Y-69495186D01*
X122079732Y-69357285D01*
X122203088Y-69193935D01*
X122294328Y-69010701D01*
X122294329Y-69010699D01*
X122350345Y-68813823D01*
X122356255Y-68750043D01*
X122369232Y-68610000D01*
X125230768Y-68610000D01*
X125249654Y-68813823D01*
X125305670Y-69010699D01*
X125396911Y-69193934D01*
X125520268Y-69357286D01*
X125671535Y-69495184D01*
X125671537Y-69495185D01*
X125671538Y-69495186D01*
X125845573Y-69602944D01*
X126036444Y-69676888D01*
X126237653Y-69714500D01*
X126237655Y-69714500D01*
X126442345Y-69714500D01*
X126442347Y-69714500D01*
X126643556Y-69676888D01*
X126834427Y-69602944D01*
X127008462Y-69495186D01*
X127159732Y-69357285D01*
X127283088Y-69193935D01*
X127374328Y-69010701D01*
X127374329Y-69010699D01*
X127430345Y-68813823D01*
X127436255Y-68750043D01*
X127449232Y-68610000D01*
X127770768Y-68610000D01*
X127789654Y-68813823D01*
X127845670Y-69010699D01*
X127936911Y-69193934D01*
X128060268Y-69357286D01*
X128211535Y-69495184D01*
X128211537Y-69495185D01*
X128211538Y-69495186D01*
X128385573Y-69602944D01*
X128576444Y-69676888D01*
X128777653Y-69714500D01*
X128777655Y-69714500D01*
X128982345Y-69714500D01*
X128982347Y-69714500D01*
X129183556Y-69676888D01*
X129374427Y-69602944D01*
X129548462Y-69495186D01*
X129699732Y-69357285D01*
X129823088Y-69193935D01*
X129914328Y-69010701D01*
X129914329Y-69010699D01*
X129970345Y-68813823D01*
X129976255Y-68750043D01*
X129989232Y-68610000D01*
X132850768Y-68610000D01*
X132869654Y-68813823D01*
X132925670Y-69010699D01*
X133016911Y-69193934D01*
X133140268Y-69357286D01*
X133291535Y-69495184D01*
X133291537Y-69495185D01*
X133291538Y-69495186D01*
X133465573Y-69602944D01*
X133656444Y-69676888D01*
X133857653Y-69714500D01*
X133857655Y-69714500D01*
X134062345Y-69714500D01*
X134062347Y-69714500D01*
X134263556Y-69676888D01*
X134454427Y-69602944D01*
X134628462Y-69495186D01*
X134779732Y-69357285D01*
X134903088Y-69193935D01*
X134994328Y-69010701D01*
X134994329Y-69010699D01*
X135050345Y-68813823D01*
X135056255Y-68750043D01*
X135069232Y-68610000D01*
X135390768Y-68610000D01*
X135409654Y-68813823D01*
X135465670Y-69010699D01*
X135556911Y-69193934D01*
X135680268Y-69357286D01*
X135831535Y-69495184D01*
X135831537Y-69495185D01*
X135831538Y-69495186D01*
X136005573Y-69602944D01*
X136196444Y-69676888D01*
X136397653Y-69714500D01*
X136397655Y-69714500D01*
X136602345Y-69714500D01*
X136602347Y-69714500D01*
X136803556Y-69676888D01*
X136994427Y-69602944D01*
X137168462Y-69495186D01*
X137319732Y-69357285D01*
X137443088Y-69193935D01*
X137534328Y-69010701D01*
X137534329Y-69010699D01*
X137590345Y-68813823D01*
X137596255Y-68750043D01*
X137609232Y-68610000D01*
X137930768Y-68610000D01*
X137949654Y-68813823D01*
X138005670Y-69010699D01*
X138096911Y-69193934D01*
X138220268Y-69357286D01*
X138371535Y-69495184D01*
X138371537Y-69495185D01*
X138371538Y-69495186D01*
X138545573Y-69602944D01*
X138736444Y-69676888D01*
X138937653Y-69714500D01*
X138937655Y-69714500D01*
X139142345Y-69714500D01*
X139142347Y-69714500D01*
X139343556Y-69676888D01*
X139534427Y-69602944D01*
X139708462Y-69495186D01*
X139859732Y-69357285D01*
X139983088Y-69193935D01*
X140074328Y-69010701D01*
X140074329Y-69010699D01*
X140130345Y-68813823D01*
X140136255Y-68750043D01*
X140149232Y-68610000D01*
X140470768Y-68610000D01*
X140489654Y-68813823D01*
X140545670Y-69010699D01*
X140636911Y-69193934D01*
X140760268Y-69357286D01*
X140911535Y-69495184D01*
X140911537Y-69495185D01*
X140911538Y-69495186D01*
X141085573Y-69602944D01*
X141276444Y-69676888D01*
X141477653Y-69714500D01*
X141477655Y-69714500D01*
X141682345Y-69714500D01*
X141682347Y-69714500D01*
X141883556Y-69676888D01*
X142074427Y-69602944D01*
X142248462Y-69495186D01*
X142399732Y-69357285D01*
X142523088Y-69193935D01*
X142614328Y-69010701D01*
X142614329Y-69010699D01*
X142670345Y-68813823D01*
X142676255Y-68750043D01*
X142689232Y-68610000D01*
X145550768Y-68610000D01*
X145569654Y-68813823D01*
X145625670Y-69010699D01*
X145716911Y-69193934D01*
X145840268Y-69357286D01*
X145991535Y-69495184D01*
X145991537Y-69495185D01*
X145991538Y-69495186D01*
X146165573Y-69602944D01*
X146356444Y-69676888D01*
X146557653Y-69714500D01*
X146557655Y-69714500D01*
X146762345Y-69714500D01*
X146762347Y-69714500D01*
X146963556Y-69676888D01*
X147154427Y-69602944D01*
X147328462Y-69495186D01*
X147479732Y-69357285D01*
X147603088Y-69193935D01*
X147694328Y-69010701D01*
X147694329Y-69010699D01*
X147750345Y-68813823D01*
X147756255Y-68750043D01*
X147769232Y-68610000D01*
X150630768Y-68610000D01*
X150649654Y-68813823D01*
X150705670Y-69010699D01*
X150796911Y-69193934D01*
X150920268Y-69357286D01*
X151071535Y-69495184D01*
X151071537Y-69495185D01*
X151071538Y-69495186D01*
X151245573Y-69602944D01*
X151436444Y-69676888D01*
X151637653Y-69714500D01*
X151637655Y-69714500D01*
X151842345Y-69714500D01*
X151842347Y-69714500D01*
X152043556Y-69676888D01*
X152234427Y-69602944D01*
X152408462Y-69495186D01*
X152559732Y-69357285D01*
X152683088Y-69193935D01*
X152774328Y-69010701D01*
X152774329Y-69010699D01*
X152830345Y-68813823D01*
X152836255Y-68750043D01*
X152849232Y-68610000D01*
X153170768Y-68610000D01*
X153189654Y-68813823D01*
X153245670Y-69010699D01*
X153336911Y-69193934D01*
X153460268Y-69357286D01*
X153611535Y-69495184D01*
X153611537Y-69495185D01*
X153611538Y-69495186D01*
X153785573Y-69602944D01*
X153976444Y-69676888D01*
X154177653Y-69714500D01*
X154177655Y-69714500D01*
X154382345Y-69714500D01*
X154382347Y-69714500D01*
X154583556Y-69676888D01*
X154774427Y-69602944D01*
X154948462Y-69495186D01*
X155099732Y-69357285D01*
X155223088Y-69193935D01*
X155314328Y-69010701D01*
X155314329Y-69010699D01*
X155370345Y-68813823D01*
X155376255Y-68750043D01*
X155389232Y-68610000D01*
X155710768Y-68610000D01*
X155729654Y-68813823D01*
X155785670Y-69010699D01*
X155876911Y-69193934D01*
X156000268Y-69357286D01*
X156151535Y-69495184D01*
X156151537Y-69495185D01*
X156151538Y-69495186D01*
X156325573Y-69602944D01*
X156516444Y-69676888D01*
X156717653Y-69714500D01*
X156717655Y-69714500D01*
X156922345Y-69714500D01*
X156922347Y-69714500D01*
X157123556Y-69676888D01*
X157314427Y-69602944D01*
X157488462Y-69495186D01*
X157639732Y-69357285D01*
X157763088Y-69193935D01*
X157854328Y-69010701D01*
X157854329Y-69010699D01*
X157910345Y-68813823D01*
X157916255Y-68750043D01*
X157929232Y-68610000D01*
X157912920Y-68433963D01*
X157910345Y-68406176D01*
X157854329Y-68209300D01*
X157763088Y-68026065D01*
X157639731Y-67862713D01*
X157488464Y-67724815D01*
X157314427Y-67617056D01*
X157249758Y-67592003D01*
X157123556Y-67543112D01*
X156922347Y-67505500D01*
X156717653Y-67505500D01*
X156516444Y-67543112D01*
X156325572Y-67617056D01*
X156151535Y-67724815D01*
X156000268Y-67862713D01*
X155876911Y-68026065D01*
X155785670Y-68209300D01*
X155729654Y-68406176D01*
X155710768Y-68610000D01*
X155389232Y-68610000D01*
X155372920Y-68433963D01*
X155370345Y-68406176D01*
X155314329Y-68209300D01*
X155223088Y-68026065D01*
X155099731Y-67862713D01*
X154948464Y-67724815D01*
X154774427Y-67617056D01*
X154709758Y-67592003D01*
X154583556Y-67543112D01*
X154382347Y-67505500D01*
X154177653Y-67505500D01*
X153976443Y-67543112D01*
X153976444Y-67543112D01*
X153785572Y-67617056D01*
X153611535Y-67724815D01*
X153460268Y-67862713D01*
X153336911Y-68026065D01*
X153245670Y-68209300D01*
X153189654Y-68406176D01*
X153170768Y-68610000D01*
X152849232Y-68610000D01*
X152832920Y-68433963D01*
X152830345Y-68406176D01*
X152774329Y-68209300D01*
X152683088Y-68026065D01*
X152559731Y-67862713D01*
X152408464Y-67724815D01*
X152234427Y-67617056D01*
X152169758Y-67592003D01*
X152043556Y-67543112D01*
X151842347Y-67505500D01*
X151637653Y-67505500D01*
X151436443Y-67543112D01*
X151436444Y-67543112D01*
X151245572Y-67617056D01*
X151071535Y-67724815D01*
X150920268Y-67862713D01*
X150796911Y-68026065D01*
X150705670Y-68209300D01*
X150649654Y-68406176D01*
X150630768Y-68610000D01*
X147769232Y-68610000D01*
X147752920Y-68433963D01*
X147750345Y-68406176D01*
X147694329Y-68209300D01*
X147603088Y-68026065D01*
X147479731Y-67862713D01*
X147328464Y-67724815D01*
X147154427Y-67617056D01*
X147089758Y-67592003D01*
X146963556Y-67543112D01*
X146762347Y-67505500D01*
X146557653Y-67505500D01*
X146356444Y-67543112D01*
X146165572Y-67617056D01*
X145991535Y-67724815D01*
X145840268Y-67862713D01*
X145716911Y-68026065D01*
X145625670Y-68209300D01*
X145569654Y-68406176D01*
X145550768Y-68610000D01*
X142689232Y-68610000D01*
X142672920Y-68433963D01*
X142670345Y-68406176D01*
X142614329Y-68209300D01*
X142523088Y-68026065D01*
X142399731Y-67862713D01*
X142248464Y-67724815D01*
X142074427Y-67617056D01*
X142009758Y-67592003D01*
X141883556Y-67543112D01*
X141682347Y-67505500D01*
X141477653Y-67505500D01*
X141276443Y-67543112D01*
X141276444Y-67543112D01*
X141085572Y-67617056D01*
X140911535Y-67724815D01*
X140760268Y-67862713D01*
X140636911Y-68026065D01*
X140545670Y-68209300D01*
X140489654Y-68406176D01*
X140470768Y-68610000D01*
X140149232Y-68610000D01*
X140132920Y-68433963D01*
X140130345Y-68406176D01*
X140074329Y-68209300D01*
X139983088Y-68026065D01*
X139859731Y-67862713D01*
X139708464Y-67724815D01*
X139534427Y-67617056D01*
X139469758Y-67592003D01*
X139343556Y-67543112D01*
X139142347Y-67505500D01*
X138937653Y-67505500D01*
X138736444Y-67543112D01*
X138545572Y-67617056D01*
X138371535Y-67724815D01*
X138220268Y-67862713D01*
X138096911Y-68026065D01*
X138005670Y-68209300D01*
X137949654Y-68406176D01*
X137930768Y-68610000D01*
X137609232Y-68610000D01*
X137592920Y-68433963D01*
X137590345Y-68406176D01*
X137534329Y-68209300D01*
X137443088Y-68026065D01*
X137319731Y-67862713D01*
X137168464Y-67724815D01*
X136994427Y-67617056D01*
X136929758Y-67592003D01*
X136803556Y-67543112D01*
X136602347Y-67505500D01*
X136397653Y-67505500D01*
X136196444Y-67543112D01*
X136005572Y-67617056D01*
X135831535Y-67724815D01*
X135680268Y-67862713D01*
X135556911Y-68026065D01*
X135465670Y-68209300D01*
X135409654Y-68406176D01*
X135390768Y-68610000D01*
X135069232Y-68610000D01*
X135052920Y-68433963D01*
X135050345Y-68406176D01*
X134994329Y-68209300D01*
X134903088Y-68026065D01*
X134779731Y-67862713D01*
X134628464Y-67724815D01*
X134454427Y-67617056D01*
X134389758Y-67592003D01*
X134263556Y-67543112D01*
X134062347Y-67505500D01*
X133857653Y-67505500D01*
X133656443Y-67543112D01*
X133656444Y-67543112D01*
X133465572Y-67617056D01*
X133291535Y-67724815D01*
X133140268Y-67862713D01*
X133016911Y-68026065D01*
X132925670Y-68209300D01*
X132869654Y-68406176D01*
X132850768Y-68610000D01*
X129989232Y-68610000D01*
X129972920Y-68433963D01*
X129970345Y-68406176D01*
X129914329Y-68209300D01*
X129823088Y-68026065D01*
X129699731Y-67862713D01*
X129548464Y-67724815D01*
X129374427Y-67617056D01*
X129309758Y-67592003D01*
X129183556Y-67543112D01*
X128982347Y-67505500D01*
X128777653Y-67505500D01*
X128576444Y-67543112D01*
X128385572Y-67617056D01*
X128211535Y-67724815D01*
X128060268Y-67862713D01*
X127936911Y-68026065D01*
X127845670Y-68209300D01*
X127789654Y-68406176D01*
X127770768Y-68610000D01*
X127449232Y-68610000D01*
X127432920Y-68433963D01*
X127430345Y-68406176D01*
X127374329Y-68209300D01*
X127283088Y-68026065D01*
X127159731Y-67862713D01*
X127008464Y-67724815D01*
X126834427Y-67617056D01*
X126769758Y-67592003D01*
X126643556Y-67543112D01*
X126442347Y-67505500D01*
X126237653Y-67505500D01*
X126036444Y-67543112D01*
X125845572Y-67617056D01*
X125671535Y-67724815D01*
X125520268Y-67862713D01*
X125396911Y-68026065D01*
X125305670Y-68209300D01*
X125249654Y-68406176D01*
X125230768Y-68610000D01*
X122369232Y-68610000D01*
X122352920Y-68433963D01*
X122350345Y-68406176D01*
X122294329Y-68209300D01*
X122203088Y-68026065D01*
X122079731Y-67862713D01*
X121928464Y-67724815D01*
X121754427Y-67617056D01*
X121689758Y-67592003D01*
X121563556Y-67543112D01*
X121362347Y-67505500D01*
X121157653Y-67505500D01*
X120956443Y-67543112D01*
X120956444Y-67543112D01*
X120765572Y-67617056D01*
X120591535Y-67724815D01*
X120440268Y-67862713D01*
X120316911Y-68026065D01*
X120225670Y-68209300D01*
X120169654Y-68406176D01*
X120150768Y-68610000D01*
X119829232Y-68610000D01*
X119812920Y-68433963D01*
X119810345Y-68406176D01*
X119754329Y-68209300D01*
X119663088Y-68026065D01*
X119539731Y-67862713D01*
X119388464Y-67724815D01*
X119214427Y-67617056D01*
X119149758Y-67592003D01*
X119023556Y-67543112D01*
X118822347Y-67505500D01*
X118617653Y-67505500D01*
X118416444Y-67543112D01*
X118225572Y-67617056D01*
X118051535Y-67724815D01*
X117900268Y-67862713D01*
X117776911Y-68026065D01*
X117685670Y-68209300D01*
X117629654Y-68406176D01*
X117610768Y-68610000D01*
X117289232Y-68610000D01*
X117272920Y-68433963D01*
X117270345Y-68406176D01*
X117214329Y-68209300D01*
X117123088Y-68026065D01*
X116999731Y-67862713D01*
X116848464Y-67724815D01*
X116674427Y-67617056D01*
X116609758Y-67592003D01*
X116483556Y-67543112D01*
X116282347Y-67505500D01*
X116077653Y-67505500D01*
X115876444Y-67543112D01*
X115685572Y-67617056D01*
X115511535Y-67724815D01*
X115360268Y-67862713D01*
X115236911Y-68026065D01*
X115145670Y-68209300D01*
X115089654Y-68406176D01*
X115070768Y-68610000D01*
X112209232Y-68610000D01*
X112192920Y-68433963D01*
X112190345Y-68406176D01*
X112134329Y-68209300D01*
X112043088Y-68026065D01*
X111919731Y-67862713D01*
X111768464Y-67724815D01*
X111594427Y-67617056D01*
X111529758Y-67592003D01*
X111403556Y-67543112D01*
X111202347Y-67505500D01*
X110997653Y-67505500D01*
X110796443Y-67543112D01*
X110796444Y-67543112D01*
X110605572Y-67617056D01*
X110431535Y-67724815D01*
X110280268Y-67862713D01*
X110156911Y-68026065D01*
X110065670Y-68209300D01*
X110009654Y-68406176D01*
X109990768Y-68610000D01*
X109669232Y-68610000D01*
X109652920Y-68433963D01*
X109650345Y-68406176D01*
X109594329Y-68209300D01*
X109503088Y-68026065D01*
X109379731Y-67862713D01*
X109228464Y-67724815D01*
X109054427Y-67617056D01*
X108989758Y-67592003D01*
X108863556Y-67543112D01*
X108662347Y-67505500D01*
X108457653Y-67505500D01*
X108256444Y-67543112D01*
X108065572Y-67617056D01*
X107891535Y-67724815D01*
X107740268Y-67862713D01*
X107616911Y-68026065D01*
X107525670Y-68209300D01*
X107469654Y-68406176D01*
X107450768Y-68610000D01*
X106518532Y-68610000D01*
X106436664Y-68430734D01*
X106253557Y-68127085D01*
X106037029Y-67846287D01*
X105897424Y-67702637D01*
X105792380Y-67594549D01*
X105792373Y-67594543D01*
X105789905Y-67592003D01*
X105515405Y-67367545D01*
X105217109Y-67175841D01*
X105213686Y-67174158D01*
X104902078Y-67020951D01*
X104902070Y-67020947D01*
X104898904Y-67019391D01*
X104895582Y-67018206D01*
X104895571Y-67018201D01*
X104568274Y-66901421D01*
X104568259Y-66901416D01*
X104564939Y-66900232D01*
X104548688Y-66896453D01*
X104223011Y-66820720D01*
X104223000Y-66820718D01*
X104219568Y-66819920D01*
X104216067Y-66819518D01*
X104216054Y-66819516D01*
X103870810Y-66779903D01*
X103870800Y-66779902D01*
X103867293Y-66779500D01*
X103601424Y-66779500D01*
X103599669Y-66779600D01*
X103599646Y-66779601D01*
X103339531Y-66794475D01*
X103339520Y-66794476D01*
X103335992Y-66794678D01*
X103332511Y-66795280D01*
X103332497Y-66795282D01*
X102990090Y-66854539D01*
X102986600Y-66855143D01*
X102983209Y-66856138D01*
X102983199Y-66856141D01*
X102649771Y-66954044D01*
X102649764Y-66954046D01*
X102646377Y-66955041D01*
X102643127Y-66956414D01*
X102643117Y-66956418D01*
X102323027Y-67091689D01*
X102323013Y-67091695D01*
X102319759Y-67093071D01*
X102316683Y-67094808D01*
X102316673Y-67094813D01*
X102014077Y-67265696D01*
X102014062Y-67265705D01*
X102011005Y-67267432D01*
X102008156Y-67269501D01*
X102008148Y-67269507D01*
X101726998Y-67473775D01*
X101726989Y-67473782D01*
X101724139Y-67475853D01*
X101721542Y-67478236D01*
X101721534Y-67478243D01*
X101465511Y-67713219D01*
X101465505Y-67713224D01*
X101462901Y-67715615D01*
X101460592Y-67718279D01*
X101460580Y-67718292D01*
X101233013Y-67980919D01*
X101230696Y-67983593D01*
X101228703Y-67986507D01*
X101228695Y-67986518D01*
X101032557Y-68273360D01*
X101032547Y-68273375D01*
X101030552Y-68276294D01*
X101028903Y-68279418D01*
X101028894Y-68279434D01*
X100866732Y-68586768D01*
X100866727Y-68586776D01*
X100865079Y-68589902D01*
X100863793Y-68593204D01*
X100863793Y-68593205D01*
X100740175Y-68910715D01*
X100736432Y-68920328D01*
X100735533Y-68923749D01*
X100734426Y-68927961D01*
X100698344Y-68987794D01*
X100635642Y-69018620D01*
X100566228Y-69010654D01*
X100512140Y-68966425D01*
X100490550Y-68899974D01*
X100490500Y-68896436D01*
X100490500Y-68883479D01*
X100490695Y-68876526D01*
X100492064Y-68852155D01*
X100507084Y-68584691D01*
X100508638Y-68570898D01*
X100557015Y-68286167D01*
X100560109Y-68272615D01*
X100631563Y-68024596D01*
X100640061Y-67995096D01*
X100644653Y-67981975D01*
X100755175Y-67715151D01*
X100761195Y-67702651D01*
X100900902Y-67449868D01*
X100908297Y-67438100D01*
X100949842Y-67379548D01*
X101075422Y-67202559D01*
X101084077Y-67191705D01*
X101276534Y-66976346D01*
X101286346Y-66966534D01*
X101501705Y-66774077D01*
X101512559Y-66765422D01*
X101748105Y-66598293D01*
X101759868Y-66590902D01*
X102012651Y-66451195D01*
X102025151Y-66445175D01*
X102291979Y-66334651D01*
X102305096Y-66330061D01*
X102582621Y-66250107D01*
X102596167Y-66247015D01*
X102880898Y-66198638D01*
X102894691Y-66197084D01*
X103186527Y-66180695D01*
X103193481Y-66180500D01*
X103237595Y-66180500D01*
X162142405Y-66180500D01*
X162186519Y-66180500D01*
X162193472Y-66180695D01*
G37*
%TD.AperFunction*%
%TD*%
M02*
