%TF.GenerationSoftware,KiCad,Pcbnew,7.0.2-0*%
%TF.CreationDate,2024-01-28T21:47:35-03:30*%
%TF.ProjectId,ground-station,67726f75-6e64-42d7-9374-6174696f6e2e,rev?*%
%TF.SameCoordinates,Original*%
%TF.FileFunction,Paste,Top*%
%TF.FilePolarity,Positive*%
%FSLAX46Y46*%
G04 Gerber Fmt 4.6, Leading zero omitted, Abs format (unit mm)*
G04 Created by KiCad (PCBNEW 7.0.2-0) date 2024-01-28 21:47:35*
%MOMM*%
%LPD*%
G01*
G04 APERTURE LIST*
G04 Aperture macros list*
%AMRoundRect*
0 Rectangle with rounded corners*
0 $1 Rounding radius*
0 $2 $3 $4 $5 $6 $7 $8 $9 X,Y pos of 4 corners*
0 Add a 4 corners polygon primitive as box body*
4,1,4,$2,$3,$4,$5,$6,$7,$8,$9,$2,$3,0*
0 Add four circle primitives for the rounded corners*
1,1,$1+$1,$2,$3*
1,1,$1+$1,$4,$5*
1,1,$1+$1,$6,$7*
1,1,$1+$1,$8,$9*
0 Add four rect primitives between the rounded corners*
20,1,$1+$1,$2,$3,$4,$5,0*
20,1,$1+$1,$4,$5,$6,$7,0*
20,1,$1+$1,$6,$7,$8,$9,0*
20,1,$1+$1,$8,$9,$2,$3,0*%
G04 Aperture macros list end*
%ADD10C,0.010000*%
%ADD11R,2.400000X1.900000*%
%ADD12RoundRect,0.250000X-0.250000X-0.475000X0.250000X-0.475000X0.250000X0.475000X-0.250000X0.475000X0*%
%ADD13R,5.700000X1.700000*%
%ADD14RoundRect,0.135000X0.185000X-0.135000X0.185000X0.135000X-0.185000X0.135000X-0.185000X-0.135000X0*%
%ADD15RoundRect,0.140000X-0.140000X-0.170000X0.140000X-0.170000X0.140000X0.170000X-0.140000X0.170000X0*%
%ADD16RoundRect,0.079500X-0.100500X0.079500X-0.100500X-0.079500X0.100500X-0.079500X0.100500X0.079500X0*%
%ADD17RoundRect,0.225000X0.250000X-0.225000X0.250000X0.225000X-0.250000X0.225000X-0.250000X-0.225000X0*%
%ADD18RoundRect,0.140000X0.140000X0.170000X-0.140000X0.170000X-0.140000X-0.170000X0.140000X-0.170000X0*%
%ADD19RoundRect,0.079500X-0.079500X-0.100500X0.079500X-0.100500X0.079500X0.100500X-0.079500X0.100500X0*%
%ADD20RoundRect,0.200000X-0.200000X-0.275000X0.200000X-0.275000X0.200000X0.275000X-0.200000X0.275000X0*%
%ADD21R,0.260000X0.840000*%
%ADD22R,0.840000X0.260000*%
%ADD23RoundRect,0.120000X-0.749533X0.070711X0.070711X-0.749533X0.749533X-0.070711X-0.070711X0.749533X0*%
%ADD24RoundRect,0.135000X-0.135000X-0.185000X0.135000X-0.185000X0.135000X0.185000X-0.135000X0.185000X0*%
%ADD25RoundRect,0.250000X0.250000X0.475000X-0.250000X0.475000X-0.250000X-0.475000X0.250000X-0.475000X0*%
%ADD26RoundRect,0.079500X0.079500X0.100500X-0.079500X0.100500X-0.079500X-0.100500X0.079500X-0.100500X0*%
%ADD27RoundRect,0.147500X0.147500X0.172500X-0.147500X0.172500X-0.147500X-0.172500X0.147500X-0.172500X0*%
%ADD28RoundRect,0.140000X0.170000X-0.140000X0.170000X0.140000X-0.170000X0.140000X-0.170000X-0.140000X0*%
%ADD29RoundRect,0.225000X0.225000X0.250000X-0.225000X0.250000X-0.225000X-0.250000X0.225000X-0.250000X0*%
%ADD30RoundRect,0.140000X-0.170000X0.140000X-0.170000X-0.140000X0.170000X-0.140000X0.170000X0.140000X0*%
%ADD31RoundRect,0.135000X0.135000X0.185000X-0.135000X0.185000X-0.135000X-0.185000X0.135000X-0.185000X0*%
%ADD32RoundRect,0.079500X0.100500X-0.079500X0.100500X0.079500X-0.100500X0.079500X-0.100500X-0.079500X0*%
%ADD33RoundRect,0.147500X-0.147500X-0.172500X0.147500X-0.172500X0.147500X0.172500X-0.147500X0.172500X0*%
%ADD34RoundRect,0.135000X-0.185000X0.135000X-0.185000X-0.135000X0.185000X-0.135000X0.185000X0.135000X0*%
%ADD35RoundRect,0.200000X-1.070000X-0.200000X1.070000X-0.200000X1.070000X0.200000X-1.070000X0.200000X0*%
%ADD36RoundRect,0.200000X0.200000X0.275000X-0.200000X0.275000X-0.200000X-0.275000X0.200000X-0.275000X0*%
%ADD37R,2.000000X0.600000*%
%ADD38RoundRect,0.147500X0.172500X-0.147500X0.172500X0.147500X-0.172500X0.147500X-0.172500X-0.147500X0*%
%ADD39R,0.150000X0.330000*%
%ADD40R,0.510000X0.200000*%
%ADD41RoundRect,0.150000X-0.512500X-0.150000X0.512500X-0.150000X0.512500X0.150000X-0.512500X0.150000X0*%
%ADD42RoundRect,0.425000X-0.425000X0.575000X-0.425000X-0.575000X0.425000X-0.575000X0.425000X0.575000X0*%
%ADD43RoundRect,0.242500X0.242500X-0.242500X0.242500X0.242500X-0.242500X0.242500X-0.242500X-0.242500X0*%
%ADD44RoundRect,0.062500X0.062500X-0.337500X0.062500X0.337500X-0.062500X0.337500X-0.062500X-0.337500X0*%
%ADD45RoundRect,0.062500X0.337500X-0.062500X0.337500X0.062500X-0.337500X0.062500X-0.337500X-0.062500X0*%
%ADD46RoundRect,0.079500X-0.014849X0.127279X-0.127279X0.014849X0.014849X-0.127279X0.127279X-0.014849X0*%
%ADD47RoundRect,0.150000X0.512500X0.150000X-0.512500X0.150000X-0.512500X-0.150000X0.512500X-0.150000X0*%
%ADD48RoundRect,0.250000X0.625000X-0.312500X0.625000X0.312500X-0.625000X0.312500X-0.625000X-0.312500X0*%
%ADD49RoundRect,0.200000X-0.275000X0.200000X-0.275000X-0.200000X0.275000X-0.200000X0.275000X0.200000X0*%
%ADD50R,0.700000X0.340000*%
%ADD51R,1.050000X1.000000*%
%ADD52R,2.200000X1.050000*%
%ADD53RoundRect,0.079500X-0.127279X-0.014849X-0.014849X-0.127279X0.127279X0.014849X0.014849X0.127279X0*%
%ADD54RoundRect,0.250000X0.650000X-1.000000X0.650000X1.000000X-0.650000X1.000000X-0.650000X-1.000000X0*%
G04 APERTURE END LIST*
%TO.C,U201*%
D10*
X158135000Y-81045000D02*
X157215000Y-81045000D01*
X157215000Y-80125000D01*
X158135000Y-80125000D01*
X158135000Y-81045000D01*
G36*
X158135000Y-81045000D02*
G01*
X157215000Y-81045000D01*
X157215000Y-80125000D01*
X158135000Y-80125000D01*
X158135000Y-81045000D01*
G37*
X159305000Y-81045000D02*
X158385000Y-81045000D01*
X158385000Y-80125000D01*
X159305000Y-80125000D01*
X159305000Y-81045000D01*
G36*
X159305000Y-81045000D02*
G01*
X158385000Y-81045000D01*
X158385000Y-80125000D01*
X159305000Y-80125000D01*
X159305000Y-81045000D01*
G37*
X158135000Y-79875000D02*
X157215000Y-79875000D01*
X157215000Y-78955000D01*
X158135000Y-78955000D01*
X158135000Y-79875000D01*
G36*
X158135000Y-79875000D02*
G01*
X157215000Y-79875000D01*
X157215000Y-78955000D01*
X158135000Y-78955000D01*
X158135000Y-79875000D01*
G37*
X159305000Y-79875000D02*
X158385000Y-79875000D01*
X158385000Y-78955000D01*
X159305000Y-78955000D01*
X159305000Y-79875000D01*
G36*
X159305000Y-79875000D02*
G01*
X158385000Y-79875000D01*
X158385000Y-78955000D01*
X159305000Y-78955000D01*
X159305000Y-79875000D01*
G37*
%TD*%
D11*
%TO.C,Y601*%
X130080000Y-110160000D03*
X130080000Y-114260000D03*
%TD*%
D12*
%TO.C,C203*%
X123920000Y-105480000D03*
X125820000Y-105480000D03*
%TD*%
D13*
%TO.C,L4*%
X153680000Y-101500000D03*
X153680000Y-97000000D03*
%TD*%
D14*
%TO.C,R1*%
X162650000Y-88120000D03*
X162650000Y-87100000D03*
%TD*%
D15*
%TO.C,C222*%
X148910000Y-80990000D03*
X149870000Y-80990000D03*
%TD*%
D16*
%TO.C,C210*%
X161230000Y-79415000D03*
X161230000Y-80105000D03*
%TD*%
D17*
%TO.C,C2*%
X144830000Y-101145000D03*
X144830000Y-99595000D03*
%TD*%
D18*
%TO.C,C216*%
X153570000Y-79130000D03*
X152610000Y-79130000D03*
%TD*%
D16*
%TO.C,C602*%
X127820000Y-111105000D03*
X127820000Y-111795000D03*
%TD*%
D19*
%TO.C,R203*%
X154245000Y-73440000D03*
X154935000Y-73440000D03*
%TD*%
D20*
%TO.C,R5*%
X123845000Y-108670000D03*
X125495000Y-108670000D03*
%TD*%
D18*
%TO.C,C215*%
X154475000Y-82870000D03*
X153515000Y-82870000D03*
%TD*%
%TO.C,C208*%
X132700000Y-89210000D03*
X131740000Y-89210000D03*
%TD*%
D14*
%TO.C,R25*%
X142090000Y-119270000D03*
X142090000Y-118250000D03*
%TD*%
D18*
%TO.C,C223*%
X148030000Y-81920000D03*
X147070000Y-81920000D03*
%TD*%
D21*
%TO.C,U201*%
X157010000Y-81945000D03*
X157510000Y-81945000D03*
X158010000Y-81945000D03*
X158510000Y-81945000D03*
X159010000Y-81945000D03*
X159510000Y-81945000D03*
D22*
X160205000Y-81250000D03*
X160205000Y-80750000D03*
X160205000Y-80250000D03*
X160205000Y-79750000D03*
X160205000Y-79250000D03*
X160205000Y-78750000D03*
D21*
X159510000Y-78055000D03*
X159010000Y-78055000D03*
X158510000Y-78055000D03*
X158010000Y-78055000D03*
X157510000Y-78055000D03*
X157010000Y-78055000D03*
D22*
X156315000Y-78750000D03*
X156315000Y-79250000D03*
X156315000Y-79750000D03*
X156315000Y-80250000D03*
X156315000Y-80750000D03*
X156315000Y-81250000D03*
%TD*%
D23*
%TO.C,Y201*%
X156971142Y-85283223D03*
X158526777Y-86838858D03*
X159728859Y-85636776D03*
X158173224Y-84081142D03*
%TD*%
D24*
%TO.C,R28*%
X115470000Y-114030000D03*
X116490000Y-114030000D03*
%TD*%
D25*
%TO.C,C33*%
X149680000Y-98540000D03*
X147780000Y-98540000D03*
%TD*%
D26*
%TO.C,C612*%
X120175000Y-117350000D03*
X119485000Y-117350000D03*
%TD*%
D27*
%TO.C,L206*%
X140645000Y-80220000D03*
X139675000Y-80220000D03*
%TD*%
D26*
%TO.C,C611*%
X120175000Y-118050000D03*
X119485000Y-118050000D03*
%TD*%
%TO.C,C27*%
X149720000Y-102860000D03*
X149030000Y-102860000D03*
%TD*%
D28*
%TO.C,C221*%
X150760000Y-81960000D03*
X150760000Y-81000000D03*
%TD*%
D26*
%TO.C,C231*%
X156230000Y-82700000D03*
X155540000Y-82700000D03*
%TD*%
D15*
%TO.C,C224*%
X145230000Y-80980000D03*
X146190000Y-80980000D03*
%TD*%
D29*
%TO.C,C25*%
X150690000Y-103940000D03*
X149140000Y-103940000D03*
%TD*%
D26*
%TO.C,C207*%
X132775000Y-90060000D03*
X132085000Y-90060000D03*
%TD*%
%TO.C,R205*%
X132805000Y-93360000D03*
X132115000Y-93360000D03*
%TD*%
D19*
%TO.C,C613*%
X120885000Y-117350000D03*
X121575000Y-117350000D03*
%TD*%
D30*
%TO.C,C606*%
X112830000Y-119490000D03*
X112830000Y-120450000D03*
%TD*%
D24*
%TO.C,R6*%
X119320000Y-110330000D03*
X120340000Y-110330000D03*
%TD*%
D31*
%TO.C,R23*%
X142090000Y-120220000D03*
X141070000Y-120220000D03*
%TD*%
D32*
%TO.C,C616*%
X127730000Y-114835000D03*
X127730000Y-114145000D03*
%TD*%
D33*
%TO.C,L201*%
X153530000Y-81000000D03*
X154500000Y-81000000D03*
%TD*%
D28*
%TO.C,C607*%
X126620000Y-108760000D03*
X126620000Y-107800000D03*
%TD*%
D15*
%TO.C,C228*%
X141520000Y-80220000D03*
X142480000Y-80220000D03*
%TD*%
D30*
%TO.C,C610*%
X132282500Y-105370000D03*
X132282500Y-106330000D03*
%TD*%
D15*
%TO.C,C217*%
X152610000Y-80070000D03*
X153570000Y-80070000D03*
%TD*%
D26*
%TO.C,C226*%
X144445000Y-78970000D03*
X143755000Y-78970000D03*
%TD*%
D18*
%TO.C,C220*%
X152650000Y-81930000D03*
X151690000Y-81930000D03*
%TD*%
D14*
%TO.C,R26*%
X143310000Y-119270000D03*
X143310000Y-118250000D03*
%TD*%
D32*
%TO.C,C618*%
X124940000Y-110445000D03*
X124940000Y-109755000D03*
%TD*%
D34*
%TO.C,R22*%
X118070000Y-111220000D03*
X118070000Y-112240000D03*
%TD*%
D26*
%TO.C,C205*%
X132805000Y-92260000D03*
X132115000Y-92260000D03*
%TD*%
D32*
%TO.C,C617*%
X124240000Y-110445000D03*
X124240000Y-109755000D03*
%TD*%
D35*
%TO.C,U203*%
X134460000Y-84560000D03*
X134460000Y-85660000D03*
X134460000Y-86760000D03*
X134460000Y-87860000D03*
X134460000Y-88960000D03*
X134460000Y-90060000D03*
X134460000Y-91160000D03*
X134460000Y-92260000D03*
X134460000Y-93360000D03*
X144360000Y-93360000D03*
X144360000Y-92260000D03*
X144360000Y-91160000D03*
X144360000Y-90060000D03*
X144360000Y-88960000D03*
X144360000Y-87860000D03*
X144360000Y-86760000D03*
X144360000Y-85660000D03*
X144360000Y-84560000D03*
%TD*%
D36*
%TO.C,R4*%
X125495000Y-107210000D03*
X123845000Y-107210000D03*
%TD*%
D30*
%TO.C,C218*%
X151720000Y-79140000D03*
X151720000Y-80100000D03*
%TD*%
D19*
%TO.C,C614*%
X120885000Y-118050000D03*
X121575000Y-118050000D03*
%TD*%
%TO.C,R301*%
X122285000Y-117350000D03*
X122975000Y-117350000D03*
%TD*%
D29*
%TO.C,C23*%
X153350000Y-111280000D03*
X151800000Y-111280000D03*
%TD*%
D15*
%TO.C,C204*%
X161000000Y-82090000D03*
X161960000Y-82090000D03*
%TD*%
D34*
%TO.C,R208*%
X127090000Y-105030000D03*
X127090000Y-106050000D03*
%TD*%
D27*
%TO.C,L205*%
X148035000Y-80990000D03*
X147065000Y-80990000D03*
%TD*%
D25*
%TO.C,C34*%
X149680000Y-96580000D03*
X147780000Y-96580000D03*
%TD*%
D26*
%TO.C,R605*%
X118185000Y-113020000D03*
X117495000Y-113020000D03*
%TD*%
D37*
%TO.C,J102*%
X140010000Y-117940000D03*
X136510000Y-117940000D03*
X140010000Y-116940000D03*
X136510000Y-116940000D03*
X140010000Y-115940000D03*
X136510000Y-115940000D03*
X140010000Y-114940000D03*
X136510000Y-114940000D03*
X140010000Y-113940000D03*
X136510000Y-113940000D03*
X140010000Y-112940000D03*
X136510000Y-112940000D03*
X140010000Y-111940000D03*
X136510000Y-111940000D03*
X140010000Y-110940000D03*
X136510000Y-110940000D03*
X140010000Y-109940000D03*
X136510000Y-109940000D03*
X140010000Y-108940000D03*
X136510000Y-108940000D03*
X140010000Y-107940000D03*
X136510000Y-107940000D03*
X140010000Y-106940000D03*
X136510000Y-106940000D03*
X140010000Y-105940000D03*
X136510000Y-105940000D03*
X140010000Y-104940000D03*
X136510000Y-104940000D03*
X140010000Y-103940000D03*
X136510000Y-103940000D03*
%TD*%
D30*
%TO.C,C211*%
X162040000Y-79490000D03*
X162040000Y-80450000D03*
%TD*%
D26*
%TO.C,R603*%
X127105000Y-112520000D03*
X126415000Y-112520000D03*
%TD*%
D38*
%TO.C,L203*%
X154475000Y-80085000D03*
X154475000Y-79115000D03*
%TD*%
D30*
%TO.C,C608*%
X117862500Y-119320000D03*
X117862500Y-120280000D03*
%TD*%
D15*
%TO.C,C229*%
X139690000Y-79290000D03*
X140650000Y-79290000D03*
%TD*%
D39*
%TO.C,U204*%
X143600000Y-80705000D03*
X144100000Y-80705000D03*
D40*
X144280000Y-80220000D03*
D39*
X144100000Y-79735000D03*
X143600000Y-79735000D03*
D40*
X143420000Y-80220000D03*
%TD*%
D19*
%TO.C,C615*%
X128645000Y-116000000D03*
X129335000Y-116000000D03*
%TD*%
D16*
%TO.C,C3*%
X123540000Y-109755000D03*
X123540000Y-110445000D03*
%TD*%
D18*
%TO.C,C230*%
X140630000Y-81160000D03*
X139670000Y-81160000D03*
%TD*%
D29*
%TO.C,C26*%
X150690000Y-105410000D03*
X149140000Y-105410000D03*
%TD*%
D26*
%TO.C,R206*%
X144445000Y-78270000D03*
X143755000Y-78270000D03*
%TD*%
D41*
%TO.C,U602*%
X114212500Y-119490000D03*
X114212500Y-120440000D03*
X114212500Y-121390000D03*
X116487500Y-121390000D03*
X116487500Y-119490000D03*
%TD*%
D42*
%TO.C,U202*%
X128300000Y-102950000D03*
X125760000Y-102950000D03*
X123220000Y-102950000D03*
X120680000Y-102950000D03*
X118140000Y-102950000D03*
X115600000Y-102950000D03*
X113060000Y-102950000D03*
X110520000Y-102950000D03*
X107980000Y-102950000D03*
X113060000Y-74950000D03*
X110520000Y-74950000D03*
X107980000Y-74950000D03*
X128300000Y-74950000D03*
X125760000Y-74950000D03*
X123220000Y-74950000D03*
%TD*%
D19*
%TO.C,C620*%
X121125000Y-109050000D03*
X121815000Y-109050000D03*
%TD*%
D15*
%TO.C,C209*%
X146120000Y-92260000D03*
X147080000Y-92260000D03*
%TD*%
D32*
%TO.C,R201*%
X158510000Y-76575000D03*
X158510000Y-75885000D03*
%TD*%
D18*
%TO.C,C213*%
X154475000Y-83790000D03*
X153515000Y-83790000D03*
%TD*%
D43*
%TO.C,U601*%
X120440000Y-115100000D03*
X121640000Y-115100000D03*
X122840000Y-115100000D03*
X120440000Y-113900000D03*
X121640000Y-113900000D03*
X122840000Y-113900000D03*
X120440000Y-112700000D03*
X121640000Y-112700000D03*
X122840000Y-112700000D03*
D44*
X119890000Y-116350000D03*
X120390000Y-116350000D03*
X120890000Y-116350000D03*
X121390000Y-116350000D03*
X121890000Y-116350000D03*
X122390000Y-116350000D03*
X122890000Y-116350000D03*
X123390000Y-116350000D03*
D45*
X124090000Y-115650000D03*
X124090000Y-115150000D03*
X124090000Y-114650000D03*
X124090000Y-114150000D03*
X124090000Y-113650000D03*
X124090000Y-113150000D03*
X124090000Y-112650000D03*
X124090000Y-112150000D03*
D44*
X123390000Y-111450000D03*
X122890000Y-111450000D03*
X122390000Y-111450000D03*
X121890000Y-111450000D03*
X121390000Y-111450000D03*
X120890000Y-111450000D03*
X120390000Y-111450000D03*
X119890000Y-111450000D03*
D45*
X119190000Y-112150000D03*
X119190000Y-112650000D03*
X119190000Y-113150000D03*
X119190000Y-113650000D03*
X119190000Y-114150000D03*
X119190000Y-114650000D03*
X119190000Y-115150000D03*
X119190000Y-115650000D03*
%TD*%
D31*
%TO.C,R2*%
X150970000Y-106620000D03*
X149950000Y-106620000D03*
%TD*%
D24*
%TO.C,R24*%
X143300000Y-120220000D03*
X144320000Y-120220000D03*
%TD*%
D30*
%TO.C,C605*%
X132290000Y-107190000D03*
X132290000Y-108150000D03*
%TD*%
D31*
%TO.C,R7*%
X149110000Y-106620000D03*
X148090000Y-106620000D03*
%TD*%
D46*
%TO.C,C214*%
X156453186Y-84220795D03*
X155965282Y-84708699D03*
%TD*%
D47*
%TO.C,U603*%
X130910000Y-107280000D03*
X130910000Y-106330000D03*
X130910000Y-105380000D03*
X128635000Y-105380000D03*
X128635000Y-107280000D03*
%TD*%
D16*
%TO.C,R9*%
X147350000Y-102215000D03*
X147350000Y-102905000D03*
%TD*%
%TO.C,R207*%
X143040000Y-78270000D03*
X143040000Y-78960000D03*
%TD*%
D19*
%TO.C,R202*%
X132545000Y-73400000D03*
X133235000Y-73400000D03*
%TD*%
D16*
%TO.C,R604*%
X118190000Y-115960000D03*
X118190000Y-116650000D03*
%TD*%
D48*
%TO.C,R3*%
X163620000Y-110902500D03*
X163620000Y-107977500D03*
%TD*%
D19*
%TO.C,C619*%
X121125000Y-109750000D03*
X121815000Y-109750000D03*
%TD*%
D15*
%TO.C,C225*%
X145260000Y-79530000D03*
X146220000Y-79530000D03*
%TD*%
D26*
%TO.C,C206*%
X132805000Y-91160000D03*
X132115000Y-91160000D03*
%TD*%
D49*
%TO.C,R8*%
X146290000Y-99545000D03*
X146290000Y-101195000D03*
%TD*%
D50*
%TO.C,U3*%
X149820000Y-101900000D03*
X149820000Y-101400000D03*
X149820000Y-100900000D03*
X148320000Y-100900000D03*
X148320000Y-101400000D03*
X148320000Y-101900000D03*
%TD*%
D18*
%TO.C,C219*%
X152650000Y-82860000D03*
X151690000Y-82860000D03*
%TD*%
D33*
%TO.C,L202*%
X153530000Y-81940000D03*
X154500000Y-81940000D03*
%TD*%
D24*
%TO.C,R27*%
X115470000Y-114970000D03*
X116490000Y-114970000D03*
%TD*%
D32*
%TO.C,C603*%
X127820000Y-113195000D03*
X127820000Y-112505000D03*
%TD*%
D51*
%TO.C,J203*%
X138655000Y-80230000D03*
D52*
X137130000Y-81705000D03*
X137130000Y-78755000D03*
%TD*%
D25*
%TO.C,C202*%
X117330000Y-105510000D03*
X115430000Y-105510000D03*
%TD*%
D19*
%TO.C,R204*%
X130875000Y-73370000D03*
X131565000Y-73370000D03*
%TD*%
%TO.C,C1*%
X159365000Y-104710000D03*
X160055000Y-104710000D03*
%TD*%
D32*
%TO.C,R606*%
X133092500Y-106405000D03*
X133092500Y-105715000D03*
%TD*%
D27*
%TO.C,L204*%
X152635000Y-81000000D03*
X151665000Y-81000000D03*
%TD*%
D51*
%TO.C,J202*%
X148100000Y-92260000D03*
D52*
X149625000Y-90785000D03*
X149625000Y-93735000D03*
%TD*%
D53*
%TO.C,C212*%
X160229136Y-84722841D03*
X160717040Y-85210745D03*
%TD*%
D54*
%TO.C,D401*%
X159750000Y-113910000D03*
X159750000Y-109910000D03*
%TD*%
D26*
%TO.C,C227*%
X143625000Y-81500000D03*
X142935000Y-81500000D03*
%TD*%
%TO.C,C604*%
X122515000Y-110450000D03*
X121825000Y-110450000D03*
%TD*%
D19*
%TO.C,C24*%
X154545000Y-111550000D03*
X155235000Y-111550000D03*
%TD*%
D12*
%TO.C,C201*%
X118850000Y-105510000D03*
X120750000Y-105510000D03*
%TD*%
D51*
%TO.C,J201*%
X104400000Y-77670000D03*
D52*
X102875000Y-79145000D03*
X102875000Y-76195000D03*
%TD*%
M02*
