G04 #@! TF.GenerationSoftware,KiCad,Pcbnew,7.0.2-0*
G04 #@! TF.CreationDate,2023-10-14T11:26:59-07:00*
G04 #@! TF.ProjectId,high-power,68696768-2d70-46f7-9765-722e6b696361,rev?*
G04 #@! TF.SameCoordinates,Original*
G04 #@! TF.FileFunction,Legend,Top*
G04 #@! TF.FilePolarity,Positive*
%FSLAX46Y46*%
G04 Gerber Fmt 4.6, Leading zero omitted, Abs format (unit mm)*
G04 Created by KiCad (PCBNEW 7.0.2-0) date 2023-10-14 11:26:59*
%MOMM*%
%LPD*%
G01*
G04 APERTURE LIST*
G04 Aperture macros list*
%AMRoundRect*
0 Rectangle with rounded corners*
0 $1 Rounding radius*
0 $2 $3 $4 $5 $6 $7 $8 $9 X,Y pos of 4 corners*
0 Add a 4 corners polygon primitive as box body*
4,1,4,$2,$3,$4,$5,$6,$7,$8,$9,$2,$3,0*
0 Add four circle primitives for the rounded corners*
1,1,$1+$1,$2,$3*
1,1,$1+$1,$4,$5*
1,1,$1+$1,$6,$7*
1,1,$1+$1,$8,$9*
0 Add four rect primitives between the rounded corners*
20,1,$1+$1,$2,$3,$4,$5,0*
20,1,$1+$1,$4,$5,$6,$7,0*
20,1,$1+$1,$6,$7,$8,$9,0*
20,1,$1+$1,$8,$9,$2,$3,0*%
%AMFreePoly0*
4,1,39,-1.529965,2.502535,-1.529950,2.502500,-1.529950,2.027500,1.529950,2.027500,1.529950,2.502500,1.529965,2.502535,1.530000,2.502550,2.280000,2.502550,2.280035,2.502535,2.280050,2.502500,2.280050,2.027500,2.280035,2.027465,2.280000,2.027450,2.280000,-0.697450,2.775000,-0.697450,2.775035,-0.697465,2.775050,-0.697500,2.775050,-1.602500,2.775035,-1.602535,2.775000,-1.602550,
2.280000,-1.602550,2.280000,-2.027500,-2.280000,-2.027500,-2.280000,-1.602550,-2.775000,-1.602550,-2.775035,-1.602535,-2.775050,-1.602500,-2.775050,-0.697500,-2.775035,-0.697465,-2.775000,-0.697450,-2.280000,-0.697450,-2.280000,2.027450,-2.280035,2.027465,-2.280050,2.027500,-2.280050,2.502500,-2.280035,2.502535,-2.280000,2.502550,-1.530000,2.502550,-1.529965,2.502535,-1.529965,2.502535,
$1*%
G04 Aperture macros list end*
%ADD10C,0.300000*%
%ADD11C,0.100000*%
%ADD12C,0.120000*%
%ADD13C,0.200000*%
%ADD14C,0.250000*%
%ADD15RoundRect,0.100000X-0.600000X-0.600000X0.600000X-0.600000X0.600000X0.600000X-0.600000X0.600000X0*%
%ADD16RoundRect,0.100000X0.600000X0.600000X-0.600000X0.600000X-0.600000X-0.600000X0.600000X-0.600000X0*%
%ADD17RoundRect,0.100000X0.100000X-0.130000X0.100000X0.130000X-0.100000X0.130000X-0.100000X-0.130000X0*%
%ADD18RoundRect,0.135000X0.185000X-0.135000X0.185000X0.135000X-0.185000X0.135000X-0.185000X-0.135000X0*%
%ADD19C,0.800000*%
%ADD20C,5.000000*%
%ADD21RoundRect,0.135000X0.135000X0.185000X-0.135000X0.185000X-0.135000X-0.185000X0.135000X-0.185000X0*%
%ADD22RoundRect,0.135000X-0.135000X-0.185000X0.135000X-0.185000X0.135000X0.185000X-0.135000X0.185000X0*%
%ADD23R,5.000000X5.000000*%
%ADD24RoundRect,0.100000X-0.130000X-0.100000X0.130000X-0.100000X0.130000X0.100000X-0.130000X0.100000X0*%
%ADD25RoundRect,0.250000X-0.625000X0.312500X-0.625000X-0.312500X0.625000X-0.312500X0.625000X0.312500X0*%
%ADD26RoundRect,0.135000X-0.185000X0.135000X-0.185000X-0.135000X0.185000X-0.135000X0.185000X0.135000X0*%
%ADD27RoundRect,0.140000X0.140000X0.170000X-0.140000X0.170000X-0.140000X-0.170000X0.140000X-0.170000X0*%
%ADD28RoundRect,0.250000X1.425000X-0.362500X1.425000X0.362500X-1.425000X0.362500X-1.425000X-0.362500X0*%
%ADD29RoundRect,0.250000X0.475000X-0.250000X0.475000X0.250000X-0.475000X0.250000X-0.475000X-0.250000X0*%
%ADD30R,1.000000X0.750000*%
%ADD31FreePoly0,270.000000*%
%ADD32RoundRect,0.250000X-0.475000X0.250000X-0.475000X-0.250000X0.475000X-0.250000X0.475000X0.250000X0*%
%ADD33RoundRect,0.100000X0.130000X0.100000X-0.130000X0.100000X-0.130000X-0.100000X0.130000X-0.100000X0*%
%ADD34RoundRect,0.100000X-0.100000X0.130000X-0.100000X-0.130000X0.100000X-0.130000X0.100000X0.130000X0*%
%ADD35RoundRect,0.225000X0.250000X-0.225000X0.250000X0.225000X-0.250000X0.225000X-0.250000X-0.225000X0*%
%ADD36RoundRect,0.100000X-0.600000X0.600000X-0.600000X-0.600000X0.600000X-0.600000X0.600000X0.600000X0*%
%ADD37FreePoly0,90.000000*%
%ADD38RoundRect,0.250000X-0.250000X-0.475000X0.250000X-0.475000X0.250000X0.475000X-0.250000X0.475000X0*%
%ADD39R,0.420000X0.540000*%
%ADD40R,2.370000X1.710000*%
%ADD41R,0.420000X0.700000*%
%ADD42RoundRect,0.140000X-0.140000X-0.170000X0.140000X-0.170000X0.140000X0.170000X-0.140000X0.170000X0*%
%ADD43RoundRect,0.140000X0.170000X-0.140000X0.170000X0.140000X-0.170000X0.140000X-0.170000X-0.140000X0*%
%ADD44R,0.425000X0.400000*%
%ADD45R,1.150000X0.950000*%
%ADD46R,0.800000X0.480000*%
%ADD47R,0.850000X0.300000*%
%ADD48R,1.600000X1.600000*%
%ADD49RoundRect,0.140000X0.021213X-0.219203X0.219203X-0.021213X-0.021213X0.219203X-0.219203X0.021213X0*%
%ADD50RoundRect,0.250000X0.625000X-0.312500X0.625000X0.312500X-0.625000X0.312500X-0.625000X-0.312500X0*%
%ADD51RoundRect,0.250000X0.312500X0.625000X-0.312500X0.625000X-0.312500X-0.625000X0.312500X-0.625000X0*%
%ADD52R,3.429000X2.413000*%
%ADD53RoundRect,0.250000X0.250000X0.475000X-0.250000X0.475000X-0.250000X-0.475000X0.250000X-0.475000X0*%
%ADD54RoundRect,0.062500X-0.350000X-0.062500X0.350000X-0.062500X0.350000X0.062500X-0.350000X0.062500X0*%
%ADD55RoundRect,0.062500X-0.062500X-0.350000X0.062500X-0.350000X0.062500X0.350000X-0.062500X0.350000X0*%
%ADD56R,2.600000X2.600000*%
%ADD57RoundRect,0.050000X0.050000X-0.300000X0.050000X0.300000X-0.050000X0.300000X-0.050000X-0.300000X0*%
%ADD58RoundRect,0.050000X0.300000X-0.050000X0.300000X0.050000X-0.300000X0.050000X-0.300000X-0.050000X0*%
%ADD59R,2.900000X2.900000*%
%ADD60R,3.400000X1.800000*%
%ADD61C,1.000000*%
%ADD62C,1.600000*%
%ADD63C,2.300000*%
%ADD64C,1.050000*%
%ADD65C,0.450000*%
%ADD66RoundRect,0.250000X0.350000X0.625000X-0.350000X0.625000X-0.350000X-0.625000X0.350000X-0.625000X0*%
%ADD67O,1.200000X1.750000*%
%ADD68RoundRect,0.250000X0.625000X-0.350000X0.625000X0.350000X-0.625000X0.350000X-0.625000X-0.350000X0*%
%ADD69O,1.750000X1.200000*%
G04 APERTURE END LIST*
D10*
G36*
X41636838Y-164352944D02*
G01*
X44405575Y-164352944D01*
X44405575Y-165040732D01*
X41636838Y-165040732D01*
X41636838Y-164352944D01*
G37*
G36*
X55686890Y-164878363D02*
G01*
X54499870Y-164878363D01*
X54499870Y-166066360D01*
X53790589Y-166066360D01*
X53790589Y-164878363D01*
X52603569Y-164878363D01*
X52603569Y-164190575D01*
X53790589Y-164190575D01*
X53790589Y-163003555D01*
X54499870Y-163003555D01*
X54499870Y-164190575D01*
X55686890Y-164190575D01*
X55686890Y-164878363D01*
G37*
G36*
X46699871Y-174935739D02*
G01*
X46273423Y-174935739D01*
X46273423Y-174654371D01*
X47455314Y-174654371D01*
X47455314Y-174935739D01*
X47028866Y-174935739D01*
X47028866Y-176155000D01*
X46699871Y-176155000D01*
X46699871Y-174935739D01*
G37*
G36*
X48835775Y-176155000D02*
G01*
X48464281Y-176155000D01*
X48335688Y-175850184D01*
X47755367Y-175850184D01*
X47630803Y-176155000D01*
X47267736Y-176155000D01*
X47520041Y-175568817D01*
X47858681Y-175568817D01*
X48223946Y-175568817D01*
X48040032Y-175104267D01*
X47858681Y-175568817D01*
X47520041Y-175568817D01*
X47913636Y-174654371D01*
X48185845Y-174654371D01*
X48835775Y-176155000D01*
G37*
G36*
X49553464Y-174654558D02*
G01*
X49574843Y-174655118D01*
X49596003Y-174656052D01*
X49616944Y-174657360D01*
X49637665Y-174659040D01*
X49658168Y-174661095D01*
X49678452Y-174663523D01*
X49698517Y-174666324D01*
X49718363Y-174669499D01*
X49737990Y-174673047D01*
X49750953Y-174675621D01*
X49770158Y-174679875D01*
X49788893Y-174684671D01*
X49807158Y-174690008D01*
X49824953Y-174695885D01*
X49842277Y-174702304D01*
X49859132Y-174709263D01*
X49875516Y-174716764D01*
X49891431Y-174724805D01*
X49906875Y-174733387D01*
X49921849Y-174742511D01*
X49931570Y-174748893D01*
X49945719Y-174758898D01*
X49959314Y-174769540D01*
X49972355Y-174780820D01*
X49984842Y-174792737D01*
X49996775Y-174805292D01*
X50008155Y-174818484D01*
X50018980Y-174832314D01*
X50029252Y-174846781D01*
X50038970Y-174861886D01*
X50048134Y-174877629D01*
X50053936Y-174888478D01*
X50062055Y-174905298D01*
X50069375Y-174922924D01*
X50075896Y-174941354D01*
X50081619Y-174960589D01*
X50086544Y-174980629D01*
X50090670Y-175001474D01*
X50093997Y-175023125D01*
X50095772Y-175038005D01*
X50097191Y-175053244D01*
X50098256Y-175068840D01*
X50098966Y-175084794D01*
X50099321Y-175101106D01*
X50099365Y-175109396D01*
X50099201Y-175125626D01*
X50098707Y-175141527D01*
X50097884Y-175157099D01*
X50096732Y-175172342D01*
X50095251Y-175187255D01*
X50093440Y-175201840D01*
X50090108Y-175223099D01*
X50086034Y-175243618D01*
X50081220Y-175263397D01*
X50075666Y-175282434D01*
X50069371Y-175300731D01*
X50062335Y-175318288D01*
X50057233Y-175329581D01*
X50049053Y-175345958D01*
X50040313Y-175361704D01*
X50031013Y-175376818D01*
X50021152Y-175391302D01*
X50010731Y-175405154D01*
X49999750Y-175418375D01*
X49988208Y-175430966D01*
X49976106Y-175442925D01*
X49963444Y-175454253D01*
X49950222Y-175464950D01*
X49941096Y-175471730D01*
X49926978Y-175481355D01*
X49912378Y-175490445D01*
X49897294Y-175499000D01*
X49881728Y-175507021D01*
X49865678Y-175514508D01*
X49849146Y-175521460D01*
X49832130Y-175527877D01*
X49814631Y-175533760D01*
X49796650Y-175539109D01*
X49778185Y-175543923D01*
X49765607Y-175546835D01*
X49746500Y-175550763D01*
X49727096Y-175554305D01*
X49707396Y-175557461D01*
X49687400Y-175560230D01*
X49667108Y-175562613D01*
X49646519Y-175564609D01*
X49625634Y-175566219D01*
X49604453Y-175567443D01*
X49582975Y-175568280D01*
X49561202Y-175568731D01*
X49546521Y-175568817D01*
X49305820Y-175568817D01*
X49305820Y-176155000D01*
X48976825Y-176155000D01*
X48976825Y-174935739D01*
X49305820Y-174935739D01*
X49305820Y-175287449D01*
X49525272Y-175287449D01*
X49541780Y-175287153D01*
X49558056Y-175286264D01*
X49574100Y-175284783D01*
X49589913Y-175282709D01*
X49605493Y-175280043D01*
X49610635Y-175279023D01*
X49625851Y-175275463D01*
X49640448Y-175271106D01*
X49654427Y-175265949D01*
X49669955Y-175258924D01*
X49684641Y-175250812D01*
X49698435Y-175241456D01*
X49710968Y-175230697D01*
X49722237Y-175218535D01*
X49732245Y-175204971D01*
X49737397Y-175196591D01*
X49744245Y-175182921D01*
X49749676Y-175168014D01*
X49753690Y-175151871D01*
X49756288Y-175134492D01*
X49757370Y-175119064D01*
X49757547Y-175109396D01*
X49756903Y-175092301D01*
X49754971Y-175076280D01*
X49751751Y-175061332D01*
X49746187Y-175044811D01*
X49738768Y-175029836D01*
X49731169Y-175018538D01*
X49720749Y-175006053D01*
X49709273Y-174994701D01*
X49696741Y-174984483D01*
X49683152Y-174975398D01*
X49668508Y-174967447D01*
X49663392Y-174965048D01*
X49647669Y-174958518D01*
X49631278Y-174952941D01*
X49617106Y-174949022D01*
X49602469Y-174945764D01*
X49587368Y-174943168D01*
X49571801Y-174941235D01*
X49556100Y-174939652D01*
X49540595Y-174938337D01*
X49525288Y-174937290D01*
X49510177Y-174936512D01*
X49495263Y-174936002D01*
X49480546Y-174935761D01*
X49474714Y-174935739D01*
X49305820Y-174935739D01*
X48976825Y-174935739D01*
X48976825Y-174654371D01*
X49531867Y-174654371D01*
X49553464Y-174654558D01*
G37*
G36*
X51037258Y-175034658D02*
G01*
X51026742Y-175022430D01*
X51015345Y-175011027D01*
X51003066Y-175000448D01*
X50989905Y-174990694D01*
X50975863Y-174981764D01*
X50960939Y-174973658D01*
X50945134Y-174966376D01*
X50928447Y-174959919D01*
X50911434Y-174954252D01*
X50894650Y-174949340D01*
X50878095Y-174945185D01*
X50861769Y-174941784D01*
X50845672Y-174939140D01*
X50829804Y-174937250D01*
X50814165Y-174936117D01*
X50798755Y-174935739D01*
X50782941Y-174936142D01*
X50766918Y-174937352D01*
X50750684Y-174939368D01*
X50734240Y-174942191D01*
X50724749Y-174944166D01*
X50708415Y-174948308D01*
X50692432Y-174953362D01*
X50676799Y-174959327D01*
X50661517Y-174966205D01*
X50652942Y-174970544D01*
X50638791Y-174978959D01*
X50625833Y-174988496D01*
X50614068Y-174999155D01*
X50603494Y-175010935D01*
X50597987Y-175018171D01*
X50589850Y-175031608D01*
X50583712Y-175046271D01*
X50579572Y-175062162D01*
X50577614Y-175076759D01*
X50577104Y-175089612D01*
X50577894Y-175106059D01*
X50580264Y-175121509D01*
X50584214Y-175135963D01*
X50591373Y-175152630D01*
X50601001Y-175167741D01*
X50613097Y-175181295D01*
X50624552Y-175191018D01*
X50627662Y-175193293D01*
X50640800Y-175202103D01*
X50654750Y-175210581D01*
X50669514Y-175218727D01*
X50685090Y-175226541D01*
X50701479Y-175234023D01*
X50718681Y-175241173D01*
X50736696Y-175247990D01*
X50750740Y-175252886D01*
X50755524Y-175254476D01*
X50770052Y-175259216D01*
X50784787Y-175263956D01*
X50799728Y-175268696D01*
X50814875Y-175273435D01*
X50830228Y-175278175D01*
X50845787Y-175282915D01*
X50861552Y-175287655D01*
X50877523Y-175292395D01*
X50893700Y-175297135D01*
X50910083Y-175301875D01*
X50921120Y-175305034D01*
X50937641Y-175309961D01*
X50953956Y-175315261D01*
X50970064Y-175320935D01*
X50985967Y-175326982D01*
X51001663Y-175333403D01*
X51017153Y-175340197D01*
X51032438Y-175347364D01*
X51047516Y-175354906D01*
X51062388Y-175362820D01*
X51077054Y-175371109D01*
X51086717Y-175376842D01*
X51100911Y-175385843D01*
X51114641Y-175395398D01*
X51127907Y-175405506D01*
X51140710Y-175416169D01*
X51153049Y-175427385D01*
X51164924Y-175439155D01*
X51176336Y-175451479D01*
X51187284Y-175464357D01*
X51197768Y-175477789D01*
X51207789Y-175491774D01*
X51214212Y-175501406D01*
X51223312Y-175516501D01*
X51231518Y-175532524D01*
X51238829Y-175549474D01*
X51245244Y-175567351D01*
X51250764Y-175586156D01*
X51255389Y-175605888D01*
X51259119Y-175626548D01*
X51261953Y-175648135D01*
X51263346Y-175663041D01*
X51264341Y-175678360D01*
X51264937Y-175694090D01*
X51265136Y-175710233D01*
X51264955Y-175725681D01*
X51264409Y-175740882D01*
X51263501Y-175755837D01*
X51262228Y-175770546D01*
X51259638Y-175792148D01*
X51256230Y-175813196D01*
X51252005Y-175833690D01*
X51246961Y-175853631D01*
X51241100Y-175873017D01*
X51234420Y-175891850D01*
X51226923Y-175910129D01*
X51218608Y-175927854D01*
X51209597Y-175944956D01*
X51200014Y-175961505D01*
X51189857Y-175977500D01*
X51179127Y-175992941D01*
X51167823Y-176007828D01*
X51155947Y-176022161D01*
X51143497Y-176035940D01*
X51130474Y-176049166D01*
X51116879Y-176061838D01*
X51102710Y-176073956D01*
X51092945Y-176081727D01*
X51077885Y-176092918D01*
X51062381Y-176103550D01*
X51046432Y-176113621D01*
X51030039Y-176123132D01*
X51013202Y-176132082D01*
X50995920Y-176140472D01*
X50978194Y-176148302D01*
X50960024Y-176155572D01*
X50941409Y-176162281D01*
X50922350Y-176168430D01*
X50909397Y-176172219D01*
X50889716Y-176177522D01*
X50869829Y-176182304D01*
X50849736Y-176186564D01*
X50829438Y-176190302D01*
X50808933Y-176193519D01*
X50788222Y-176196214D01*
X50767304Y-176198388D01*
X50746181Y-176200039D01*
X50724852Y-176201170D01*
X50703317Y-176201778D01*
X50688845Y-176201894D01*
X50670746Y-176201720D01*
X50652810Y-176201196D01*
X50635037Y-176200323D01*
X50617427Y-176199101D01*
X50599980Y-176197529D01*
X50582697Y-176195609D01*
X50565577Y-176193339D01*
X50548619Y-176190720D01*
X50531825Y-176187752D01*
X50515194Y-176184435D01*
X50498727Y-176180768D01*
X50482422Y-176176752D01*
X50466280Y-176172387D01*
X50450302Y-176167673D01*
X50434487Y-176162610D01*
X50418835Y-176157198D01*
X50403330Y-176151442D01*
X50387957Y-176145257D01*
X50372716Y-176138642D01*
X50357606Y-176131598D01*
X50342628Y-176124125D01*
X50327782Y-176116222D01*
X50313067Y-176107890D01*
X50298484Y-176099129D01*
X50284033Y-176089938D01*
X50269713Y-176080318D01*
X50255525Y-176070269D01*
X50241469Y-176059791D01*
X50227544Y-176048883D01*
X50213751Y-176037545D01*
X50200090Y-176025779D01*
X50186560Y-176013583D01*
X50421033Y-175755662D01*
X50430744Y-175768100D01*
X50440920Y-175779997D01*
X50451559Y-175791353D01*
X50462661Y-175802168D01*
X50474227Y-175812442D01*
X50486257Y-175822175D01*
X50498751Y-175831367D01*
X50511708Y-175840018D01*
X50525129Y-175848128D01*
X50539014Y-175855697D01*
X50548528Y-175860443D01*
X50563064Y-175866990D01*
X50577684Y-175872893D01*
X50592387Y-175878153D01*
X50607175Y-175882768D01*
X50622046Y-175886739D01*
X50637000Y-175890067D01*
X50652039Y-175892750D01*
X50667161Y-175894789D01*
X50682367Y-175896185D01*
X50697657Y-175896936D01*
X50707896Y-175897079D01*
X50723034Y-175896744D01*
X50738224Y-175895740D01*
X50753466Y-175894065D01*
X50768758Y-175891721D01*
X50784103Y-175888707D01*
X50789229Y-175887554D01*
X50804320Y-175883647D01*
X50818819Y-175879070D01*
X50832725Y-175873824D01*
X50848200Y-175866856D01*
X50862868Y-175858977D01*
X50876663Y-175850152D01*
X50889195Y-175840344D01*
X50900465Y-175829555D01*
X50910473Y-175817784D01*
X50915625Y-175810617D01*
X50923476Y-175797143D01*
X50929399Y-175782688D01*
X50933394Y-175767250D01*
X50935460Y-175750831D01*
X50935775Y-175741008D01*
X50934968Y-175724516D01*
X50932546Y-175708928D01*
X50928510Y-175694245D01*
X50922860Y-175680466D01*
X50915596Y-175667592D01*
X50906718Y-175655622D01*
X50896225Y-175644557D01*
X50884117Y-175634396D01*
X50870791Y-175624785D01*
X50856640Y-175615551D01*
X50841665Y-175606695D01*
X50825865Y-175598217D01*
X50809242Y-175590117D01*
X50791794Y-175582395D01*
X50778167Y-175576851D01*
X50764076Y-175571520D01*
X50754424Y-175568084D01*
X50739680Y-175562932D01*
X50724710Y-175557780D01*
X50709515Y-175552628D01*
X50694095Y-175547476D01*
X50678449Y-175542324D01*
X50662577Y-175537172D01*
X50646480Y-175532020D01*
X50630158Y-175526868D01*
X50613611Y-175521716D01*
X50596838Y-175516564D01*
X50585531Y-175513129D01*
X50568607Y-175507810D01*
X50551909Y-175502156D01*
X50535437Y-175496166D01*
X50519190Y-175489842D01*
X50503168Y-175483183D01*
X50487372Y-175476189D01*
X50471801Y-175468861D01*
X50456456Y-175461197D01*
X50441336Y-175453199D01*
X50426441Y-175444865D01*
X50416637Y-175439124D01*
X50402237Y-175430142D01*
X50388301Y-175420645D01*
X50374828Y-175410633D01*
X50361819Y-175400106D01*
X50349274Y-175389063D01*
X50337193Y-175377506D01*
X50325575Y-175365433D01*
X50314421Y-175352845D01*
X50303731Y-175339742D01*
X50293504Y-175326123D01*
X50286944Y-175316758D01*
X50277712Y-175302110D01*
X50269388Y-175286606D01*
X50261973Y-175270245D01*
X50255465Y-175253028D01*
X50249865Y-175234954D01*
X50245174Y-175216024D01*
X50241390Y-175196237D01*
X50238515Y-175175593D01*
X50236547Y-175154093D01*
X50235740Y-175139284D01*
X50235337Y-175124094D01*
X50235286Y-175116357D01*
X50235471Y-175101407D01*
X50236025Y-175086693D01*
X50237548Y-175065061D01*
X50239902Y-175043957D01*
X50243086Y-175023381D01*
X50247102Y-175003333D01*
X50251948Y-174983814D01*
X50257624Y-174964822D01*
X50264132Y-174946359D01*
X50271470Y-174928423D01*
X50279640Y-174911016D01*
X50282547Y-174905331D01*
X50291754Y-174888556D01*
X50301515Y-174872302D01*
X50311830Y-174856571D01*
X50322699Y-174841360D01*
X50334121Y-174826672D01*
X50346097Y-174812505D01*
X50358627Y-174798860D01*
X50371711Y-174785736D01*
X50385349Y-174773134D01*
X50399541Y-174761054D01*
X50409309Y-174753290D01*
X50424360Y-174742088D01*
X50439835Y-174731428D01*
X50455735Y-174721309D01*
X50472061Y-174711730D01*
X50488811Y-174702693D01*
X50505987Y-174694196D01*
X50523587Y-174686241D01*
X50541613Y-174678826D01*
X50560063Y-174671953D01*
X50578939Y-174665620D01*
X50591759Y-174661699D01*
X50611250Y-174656199D01*
X50630845Y-174651240D01*
X50650543Y-174646822D01*
X50670344Y-174642945D01*
X50690248Y-174639610D01*
X50710255Y-174636815D01*
X50730365Y-174634561D01*
X50750578Y-174632848D01*
X50770894Y-174631675D01*
X50791313Y-174631044D01*
X50804983Y-174630924D01*
X50820794Y-174631064D01*
X50836536Y-174631485D01*
X50852209Y-174632186D01*
X50867814Y-174633168D01*
X50883350Y-174634430D01*
X50898818Y-174635973D01*
X50914217Y-174637796D01*
X50929547Y-174639900D01*
X50944808Y-174642284D01*
X50960001Y-174644949D01*
X50975125Y-174647894D01*
X50990180Y-174651120D01*
X51005166Y-174654626D01*
X51020084Y-174658413D01*
X51034934Y-174662480D01*
X51049714Y-174666828D01*
X51064414Y-174671508D01*
X51078932Y-174676571D01*
X51093266Y-174682018D01*
X51107416Y-174687848D01*
X51121384Y-174694062D01*
X51135169Y-174700659D01*
X51148770Y-174707640D01*
X51162188Y-174715005D01*
X51175423Y-174722753D01*
X51188475Y-174730884D01*
X51201343Y-174739399D01*
X51214028Y-174748298D01*
X51226531Y-174757580D01*
X51238850Y-174767246D01*
X51250985Y-174777295D01*
X51262938Y-174787728D01*
X51037258Y-175034658D01*
G37*
G36*
X27362971Y-127728575D02*
G01*
X27586636Y-128115975D01*
X27001110Y-129187159D01*
X27003308Y-129190966D01*
X27906289Y-128669630D01*
X28070970Y-128954865D01*
X26771388Y-129705179D01*
X26556149Y-129332374D01*
X27155275Y-128233456D01*
X27153077Y-128229648D01*
X26227886Y-128763807D01*
X26063389Y-128478889D01*
X27362971Y-127728575D01*
G37*
G36*
X28119657Y-129601929D02*
G01*
X27906433Y-129232614D01*
X28150104Y-129091931D01*
X28741050Y-130115478D01*
X28497378Y-130256162D01*
X28284154Y-129886847D01*
X27228244Y-130496478D01*
X27063746Y-130211559D01*
X28119657Y-129601929D01*
G37*
G36*
X28960004Y-131302185D02*
G01*
X28966214Y-131284136D01*
X28971328Y-131265928D01*
X28975344Y-131247560D01*
X28978264Y-131229032D01*
X28980086Y-131210344D01*
X28980812Y-131191497D01*
X28980440Y-131172489D01*
X28978972Y-131153322D01*
X28976357Y-131134023D01*
X28973611Y-131119482D01*
X28970191Y-131104883D01*
X28966100Y-131090227D01*
X28961335Y-131075512D01*
X28955897Y-131060740D01*
X28949787Y-131045910D01*
X28943003Y-131031023D01*
X28935547Y-131016078D01*
X28927418Y-131001075D01*
X28924559Y-130996061D01*
X28915623Y-130981214D01*
X28906262Y-130966895D01*
X28896478Y-130953103D01*
X28886269Y-130939839D01*
X28875636Y-130927102D01*
X28864579Y-130914893D01*
X28853098Y-130903211D01*
X28841192Y-130892057D01*
X28828862Y-130881430D01*
X28816108Y-130871331D01*
X28807370Y-130864891D01*
X28793997Y-130855694D01*
X28780375Y-130847072D01*
X28766506Y-130839025D01*
X28752388Y-130831552D01*
X28738022Y-130824654D01*
X28723408Y-130818331D01*
X28708545Y-130812582D01*
X28693434Y-130807408D01*
X28678075Y-130802809D01*
X28662468Y-130798784D01*
X28651925Y-130796420D01*
X28636010Y-130793328D01*
X28619940Y-130790832D01*
X28603716Y-130788931D01*
X28587337Y-130787625D01*
X28570803Y-130786913D01*
X28554115Y-130786797D01*
X28537271Y-130787276D01*
X28520274Y-130788349D01*
X28503121Y-130790018D01*
X28485814Y-130792281D01*
X28474189Y-130794121D01*
X28456824Y-130797418D01*
X28439517Y-130801344D01*
X28422268Y-130805898D01*
X28405077Y-130811080D01*
X28387944Y-130816891D01*
X28370868Y-130823330D01*
X28353851Y-130830397D01*
X28336891Y-130838093D01*
X28319989Y-130846417D01*
X28303145Y-130855370D01*
X28291948Y-130861687D01*
X28275095Y-130871748D01*
X28258802Y-130882148D01*
X28243068Y-130892886D01*
X28227895Y-130903963D01*
X28213281Y-130915379D01*
X28199227Y-130927133D01*
X28185733Y-130939226D01*
X28172799Y-130951657D01*
X28160424Y-130964427D01*
X28148610Y-130977535D01*
X28141045Y-130986462D01*
X28130255Y-131000072D01*
X28120020Y-131013845D01*
X28110340Y-131027781D01*
X28101216Y-131041880D01*
X28092646Y-131056141D01*
X28084631Y-131070566D01*
X28077172Y-131085153D01*
X28070268Y-131099903D01*
X28063919Y-131114816D01*
X28058124Y-131129892D01*
X28054570Y-131140033D01*
X28049819Y-131155351D01*
X28045671Y-131170722D01*
X28042127Y-131186146D01*
X28039186Y-131201624D01*
X28036848Y-131217154D01*
X28035114Y-131232738D01*
X28033983Y-131248375D01*
X28033455Y-131264066D01*
X28033530Y-131279809D01*
X28034209Y-131295606D01*
X28034997Y-131306167D01*
X28036705Y-131321957D01*
X28039062Y-131337611D01*
X28042069Y-131353127D01*
X28045725Y-131368506D01*
X28050031Y-131383748D01*
X28054987Y-131398853D01*
X28060592Y-131413821D01*
X28066847Y-131428651D01*
X28073751Y-131443345D01*
X28081305Y-131457902D01*
X28086702Y-131467530D01*
X28096401Y-131483588D01*
X28106538Y-131498925D01*
X28117114Y-131513540D01*
X28128129Y-131527434D01*
X28139582Y-131540605D01*
X28151473Y-131553055D01*
X28163803Y-131564784D01*
X28176572Y-131575791D01*
X28189779Y-131586076D01*
X28203425Y-131595639D01*
X28212765Y-131601614D01*
X28227094Y-131610033D01*
X28241696Y-131617729D01*
X28256573Y-131624702D01*
X28271723Y-131630952D01*
X28287147Y-131636478D01*
X28302846Y-131641280D01*
X28318818Y-131645360D01*
X28335064Y-131648716D01*
X28351585Y-131651349D01*
X28368379Y-131653258D01*
X28379727Y-131654129D01*
X28339571Y-131994171D01*
X28319340Y-131991926D01*
X28299381Y-131989064D01*
X28279694Y-131985586D01*
X28260280Y-131981491D01*
X28241137Y-131976780D01*
X28222266Y-131971452D01*
X28203668Y-131965508D01*
X28185341Y-131958947D01*
X28167287Y-131951770D01*
X28149505Y-131943976D01*
X28131994Y-131935567D01*
X28114756Y-131926540D01*
X28097789Y-131916897D01*
X28081095Y-131906638D01*
X28064673Y-131895762D01*
X28048523Y-131884270D01*
X28032768Y-131872332D01*
X28017409Y-131860088D01*
X28002443Y-131847537D01*
X27987872Y-131834678D01*
X27973696Y-131821513D01*
X27959914Y-131808040D01*
X27946526Y-131794260D01*
X27933533Y-131780173D01*
X27920935Y-131765780D01*
X27908731Y-131751079D01*
X27896921Y-131736071D01*
X27885506Y-131720756D01*
X27874485Y-131705133D01*
X27863859Y-131689204D01*
X27853627Y-131672968D01*
X27843790Y-131656425D01*
X27833085Y-131637453D01*
X27822858Y-131618452D01*
X27813111Y-131599423D01*
X27803843Y-131580364D01*
X27795054Y-131561277D01*
X27786744Y-131542162D01*
X27778913Y-131523017D01*
X27771562Y-131503844D01*
X27764689Y-131484642D01*
X27758296Y-131465411D01*
X27752382Y-131446152D01*
X27746947Y-131426864D01*
X27741991Y-131407546D01*
X27737515Y-131388201D01*
X27733517Y-131368826D01*
X27729999Y-131349423D01*
X27726958Y-131330048D01*
X27724393Y-131310759D01*
X27722303Y-131291555D01*
X27720690Y-131272437D01*
X27719552Y-131253404D01*
X27718890Y-131234457D01*
X27718703Y-131215596D01*
X27718993Y-131196820D01*
X27719758Y-131178129D01*
X27720999Y-131159525D01*
X27722715Y-131141005D01*
X27724907Y-131122572D01*
X27727576Y-131104224D01*
X27730719Y-131085961D01*
X27734339Y-131067784D01*
X27738434Y-131049693D01*
X27743045Y-131031699D01*
X27748132Y-131013860D01*
X27753695Y-130996175D01*
X27759734Y-130978646D01*
X27766250Y-130961271D01*
X27773241Y-130944051D01*
X27780708Y-130926985D01*
X27788651Y-130910075D01*
X27797071Y-130893319D01*
X27805966Y-130876719D01*
X27815338Y-130860272D01*
X27825185Y-130843981D01*
X27835509Y-130827845D01*
X27846309Y-130811863D01*
X27857584Y-130796036D01*
X27869336Y-130780364D01*
X27881597Y-130764884D01*
X27894321Y-130749679D01*
X27907507Y-130734748D01*
X27921156Y-130720093D01*
X27935268Y-130705712D01*
X27949842Y-130691606D01*
X27964880Y-130677775D01*
X27980380Y-130664219D01*
X27996343Y-130650938D01*
X28012768Y-130637931D01*
X28029657Y-130625200D01*
X28047008Y-130612743D01*
X28064822Y-130600561D01*
X28083098Y-130588654D01*
X28101837Y-130577022D01*
X28121039Y-130565664D01*
X28140475Y-130554714D01*
X28159915Y-130544304D01*
X28179359Y-130534433D01*
X28198807Y-130525102D01*
X28218259Y-130516310D01*
X28237715Y-130508058D01*
X28257176Y-130500345D01*
X28276641Y-130493173D01*
X28296110Y-130486539D01*
X28315583Y-130480446D01*
X28335060Y-130474892D01*
X28354542Y-130469877D01*
X28374027Y-130465403D01*
X28393517Y-130461467D01*
X28413011Y-130458072D01*
X28432509Y-130455216D01*
X28451995Y-130452853D01*
X28471371Y-130450983D01*
X28490639Y-130449605D01*
X28509798Y-130448720D01*
X28528848Y-130448327D01*
X28547788Y-130448427D01*
X28566620Y-130449020D01*
X28585343Y-130450105D01*
X28603957Y-130451682D01*
X28622463Y-130453752D01*
X28640859Y-130456315D01*
X28659146Y-130459370D01*
X28677324Y-130462918D01*
X28695394Y-130466958D01*
X28713354Y-130471491D01*
X28731206Y-130476516D01*
X28748960Y-130481993D01*
X28766547Y-130487926D01*
X28783968Y-130494315D01*
X28801223Y-130501161D01*
X28818312Y-130508462D01*
X28835234Y-130516220D01*
X28851990Y-130524435D01*
X28868580Y-130533105D01*
X28885004Y-130542232D01*
X28901261Y-130551815D01*
X28917352Y-130561854D01*
X28933277Y-130572349D01*
X28949036Y-130583300D01*
X28964628Y-130594708D01*
X28980055Y-130606572D01*
X28995315Y-130618893D01*
X29010359Y-130631641D01*
X29025139Y-130644790D01*
X29039655Y-130658340D01*
X29053906Y-130672291D01*
X29067893Y-130686641D01*
X29081615Y-130701393D01*
X29095073Y-130716545D01*
X29108266Y-130732098D01*
X29121194Y-130748051D01*
X29133859Y-130764405D01*
X29146258Y-130781159D01*
X29158394Y-130798314D01*
X29170265Y-130815870D01*
X29181871Y-130833826D01*
X29193213Y-130852182D01*
X29204290Y-130870940D01*
X29212094Y-130884823D01*
X29219661Y-130899028D01*
X29226991Y-130913556D01*
X29234084Y-130928405D01*
X29240939Y-130943576D01*
X29247557Y-130959070D01*
X29253939Y-130974885D01*
X29260083Y-130991022D01*
X29265908Y-131007397D01*
X29271331Y-131023924D01*
X29276354Y-131040603D01*
X29280975Y-131057434D01*
X29285195Y-131074418D01*
X29289014Y-131091554D01*
X29292432Y-131108842D01*
X29295448Y-131126283D01*
X29298034Y-131143939D01*
X29300068Y-131161716D01*
X29301550Y-131179613D01*
X29302480Y-131197630D01*
X29302858Y-131215768D01*
X29302685Y-131234026D01*
X29301959Y-131252404D01*
X29300682Y-131270903D01*
X29298848Y-131289399D01*
X29296294Y-131307861D01*
X29293020Y-131326290D01*
X29289025Y-131344685D01*
X29284311Y-131363046D01*
X29278876Y-131381374D01*
X29272721Y-131399668D01*
X29265846Y-131417928D01*
X28960004Y-131302185D01*
G37*
D11*
X51760500Y-73475000D02*
X51760500Y-75075000D01*
X46887500Y-67020000D02*
X46887500Y-65420000D01*
X38738000Y-87495000D02*
X38738000Y-85895000D01*
X49878000Y-67895000D02*
X49878000Y-69495000D01*
D12*
X50748000Y-74018641D02*
X50748000Y-73711359D01*
X51508000Y-74018641D02*
X51508000Y-73711359D01*
D11*
X50270500Y-35935000D02*
X50270500Y-37535000D01*
D12*
X55541641Y-60845000D02*
X55234359Y-60845000D01*
X55541641Y-60085000D02*
X55234359Y-60085000D01*
X45556359Y-67550000D02*
X45863641Y-67550000D01*
X45556359Y-68310000D02*
X45863641Y-68310000D01*
X47090000Y-132270436D02*
X47090000Y-133724564D01*
X45270000Y-132270436D02*
X45270000Y-133724564D01*
X35712000Y-48841359D02*
X35712000Y-49148641D01*
X34952000Y-48841359D02*
X34952000Y-49148641D01*
X52105836Y-23295000D02*
X51890164Y-23295000D01*
X52105836Y-22575000D02*
X51890164Y-22575000D01*
X36895000Y-118846359D02*
X36895000Y-119153641D01*
X36135000Y-118846359D02*
X36135000Y-119153641D01*
D11*
X57840000Y-91730000D02*
X57840000Y-93330000D01*
X45620000Y-61540000D02*
X45620000Y-59940000D01*
D12*
X64166359Y-137990000D02*
X64473641Y-137990000D01*
X64166359Y-138750000D02*
X64473641Y-138750000D01*
X60955836Y-66955000D02*
X60740164Y-66955000D01*
X60955836Y-66235000D02*
X60740164Y-66235000D01*
X39740000Y-132894564D02*
X39740000Y-128540436D01*
X43160000Y-132894564D02*
X43160000Y-128540436D01*
X70535000Y-111091252D02*
X70535000Y-110568748D01*
X72005000Y-111091252D02*
X72005000Y-110568748D01*
X47680000Y-24206359D02*
X47680000Y-24513641D01*
X46920000Y-24206359D02*
X46920000Y-24513641D01*
D11*
X58257000Y-105335000D02*
X58257000Y-106935000D01*
D12*
X37468641Y-113060000D02*
X37161359Y-113060000D01*
X37468641Y-112300000D02*
X37161359Y-112300000D01*
X70565000Y-94911252D02*
X70565000Y-94388748D01*
X72035000Y-94911252D02*
X72035000Y-94388748D01*
X49743641Y-29460000D02*
X49436359Y-29460000D01*
X49743641Y-28700000D02*
X49436359Y-28700000D01*
X51251641Y-67325000D02*
X50944359Y-67325000D01*
X51251641Y-66565000D02*
X50944359Y-66565000D01*
X61178141Y-94730000D02*
X60870859Y-94730000D01*
X61178141Y-93970000D02*
X60870859Y-93970000D01*
X64647836Y-82300000D02*
X64432164Y-82300000D01*
X64647836Y-81580000D02*
X64432164Y-81580000D01*
X37950000Y-103236359D02*
X37950000Y-103543641D01*
X37190000Y-103236359D02*
X37190000Y-103543641D01*
X36328000Y-30451359D02*
X36328000Y-30758641D01*
X35568000Y-30451359D02*
X35568000Y-30758641D01*
X33855000Y-42268748D02*
X33855000Y-42791252D01*
X32385000Y-42268748D02*
X32385000Y-42791252D01*
X55760000Y-138200580D02*
X55760000Y-137919420D01*
X56780000Y-138200580D02*
X56780000Y-137919420D01*
D11*
X51070000Y-29600000D02*
X49470000Y-29600000D01*
D12*
X58681859Y-124555000D02*
X58989141Y-124555000D01*
X58681859Y-125315000D02*
X58989141Y-125315000D01*
X53595836Y-60835000D02*
X53380164Y-60835000D01*
X53595836Y-60115000D02*
X53380164Y-60115000D01*
X26085000Y-96198748D02*
X26085000Y-96721252D01*
X24615000Y-96198748D02*
X24615000Y-96721252D01*
X70295000Y-125571252D02*
X70295000Y-125048748D01*
X71765000Y-125571252D02*
X71765000Y-125048748D01*
X54338748Y-149585000D02*
X54861252Y-149585000D01*
X54338748Y-151055000D02*
X54861252Y-151055000D01*
D11*
X52270000Y-131502500D02*
X52270000Y-134567500D01*
D13*
X52795000Y-135442500D02*
X52795000Y-135442500D01*
X52795000Y-135642500D02*
X52795000Y-135642500D01*
D11*
X55320000Y-131517500D02*
X55320000Y-134567500D01*
D13*
X52795000Y-135642500D02*
G75*
G03*
X52795000Y-135442500I0J100000D01*
G01*
X52795000Y-135442500D02*
G75*
G03*
X52795000Y-135642500I0J-100000D01*
G01*
D12*
X49743641Y-28460000D02*
X49436359Y-28460000D01*
X49743641Y-27700000D02*
X49436359Y-27700000D01*
X45640000Y-49763641D02*
X45640000Y-49456359D01*
X46400000Y-49763641D02*
X46400000Y-49456359D01*
X44632164Y-36910000D02*
X44847836Y-36910000D01*
X44632164Y-37630000D02*
X44847836Y-37630000D01*
X49320000Y-151627836D02*
X49320000Y-151412164D01*
X50040000Y-151627836D02*
X50040000Y-151412164D01*
X51741641Y-72785000D02*
X51434359Y-72785000D01*
X51741641Y-72025000D02*
X51434359Y-72025000D01*
X44034164Y-55175000D02*
X44249836Y-55175000D01*
X44034164Y-55895000D02*
X44249836Y-55895000D01*
X64520641Y-113125000D02*
X64213359Y-113125000D01*
X64520641Y-112365000D02*
X64213359Y-112365000D01*
X46986359Y-30330000D02*
X47293641Y-30330000D01*
X46986359Y-31090000D02*
X47293641Y-31090000D01*
X61298141Y-110815000D02*
X60990859Y-110815000D01*
X61298141Y-110055000D02*
X60990859Y-110055000D01*
X69189836Y-119040000D02*
X68974164Y-119040000D01*
X69189836Y-118320000D02*
X68974164Y-118320000D01*
X66588641Y-82325000D02*
X66281359Y-82325000D01*
X66588641Y-81565000D02*
X66281359Y-81565000D01*
X27530164Y-88270000D02*
X27745836Y-88270000D01*
X27530164Y-88990000D02*
X27745836Y-88990000D01*
D11*
X49450000Y-48990000D02*
X49450000Y-50590000D01*
D12*
X51263641Y-47400000D02*
X50956359Y-47400000D01*
X51263641Y-46640000D02*
X50956359Y-46640000D01*
X46750000Y-43176359D02*
X46750000Y-43483641D01*
X45990000Y-43176359D02*
X45990000Y-43483641D01*
X35852164Y-67960000D02*
X36067836Y-67960000D01*
X35852164Y-68680000D02*
X36067836Y-68680000D01*
X34900000Y-67696359D02*
X34900000Y-68003641D01*
X34140000Y-67696359D02*
X34140000Y-68003641D01*
X36988000Y-88731359D02*
X36988000Y-89038641D01*
X36228000Y-88731359D02*
X36228000Y-89038641D01*
X59074500Y-104128641D02*
X59074500Y-103821359D01*
X59834500Y-104128641D02*
X59834500Y-103821359D01*
X58016359Y-142180000D02*
X58323641Y-142180000D01*
X58016359Y-142940000D02*
X58323641Y-142940000D01*
X60947836Y-48210000D02*
X60732164Y-48210000D01*
X60947836Y-47490000D02*
X60732164Y-47490000D01*
X35241359Y-112300000D02*
X35548641Y-112300000D01*
X35241359Y-113060000D02*
X35548641Y-113060000D01*
X64828141Y-98755000D02*
X64520859Y-98755000D01*
X64828141Y-97995000D02*
X64520859Y-97995000D01*
X37561641Y-83090000D02*
X37254359Y-83090000D01*
X37561641Y-82330000D02*
X37254359Y-82330000D01*
X46986359Y-31330000D02*
X47293641Y-31330000D01*
X46986359Y-32090000D02*
X47293641Y-32090000D01*
X34745000Y-61498748D02*
X34745000Y-62021252D01*
X33275000Y-61498748D02*
X33275000Y-62021252D01*
X35334359Y-82330000D02*
X35641641Y-82330000D01*
X35334359Y-83090000D02*
X35641641Y-83090000D01*
X54051641Y-23305000D02*
X53744359Y-23305000D01*
X54051641Y-22545000D02*
X53744359Y-22545000D01*
X34036359Y-168810000D02*
X34343641Y-168810000D01*
X34036359Y-169570000D02*
X34343641Y-169570000D01*
X37978000Y-88731359D02*
X37978000Y-89038641D01*
X37218000Y-88731359D02*
X37218000Y-89038641D01*
X47580000Y-129380580D02*
X47580000Y-129099420D01*
X48600000Y-129380580D02*
X48600000Y-129099420D01*
D11*
X38547500Y-117700000D02*
X38547500Y-116100000D01*
D12*
X49258000Y-36478641D02*
X49258000Y-36171359D01*
X50018000Y-36478641D02*
X50018000Y-36171359D01*
X26578000Y-88006359D02*
X26578000Y-88313641D01*
X25818000Y-88006359D02*
X25818000Y-88313641D01*
X58934500Y-87778641D02*
X58934500Y-87471359D01*
X59694500Y-87778641D02*
X59694500Y-87471359D01*
D11*
X38050000Y-102110000D02*
X38050000Y-100510000D01*
D12*
X60074500Y-104128641D02*
X60074500Y-103821359D01*
X60834500Y-104128641D02*
X60834500Y-103821359D01*
X26303000Y-81863748D02*
X26303000Y-82386252D01*
X24833000Y-81863748D02*
X24833000Y-82386252D01*
D11*
X58254500Y-107605000D02*
X58254500Y-109205000D01*
D14*
X50620000Y-124410000D02*
G75*
G03*
X50620000Y-124410000I-125000J0D01*
G01*
D12*
X70142000Y-119303641D02*
X70142000Y-118996359D01*
X70902000Y-119303641D02*
X70902000Y-118996359D01*
X43956359Y-62320000D02*
X44263641Y-62320000D01*
X43956359Y-63080000D02*
X44263641Y-63080000D01*
X27392164Y-118240000D02*
X27607836Y-118240000D01*
X27392164Y-118960000D02*
X27607836Y-118960000D01*
X62582336Y-113105000D02*
X62366664Y-113105000D01*
X62582336Y-112385000D02*
X62366664Y-112385000D01*
X40400000Y-115117064D02*
X40400000Y-110762936D01*
X43820000Y-115117064D02*
X43820000Y-110762936D01*
X45556359Y-68550000D02*
X45863641Y-68550000D01*
X45556359Y-69310000D02*
X45863641Y-69310000D01*
X51223641Y-152340000D02*
X50916359Y-152340000D01*
X51223641Y-151580000D02*
X50916359Y-151580000D01*
X51273641Y-35070000D02*
X50966359Y-35070000D01*
X51273641Y-34310000D02*
X50966359Y-34310000D01*
D11*
X47790000Y-48140000D02*
X47790000Y-46540000D01*
D12*
X45566359Y-25080000D02*
X45873641Y-25080000D01*
X45566359Y-25840000D02*
X45873641Y-25840000D01*
X56812164Y-135680000D02*
X57027836Y-135680000D01*
X56812164Y-136400000D02*
X57027836Y-136400000D01*
X37503641Y-97570000D02*
X37196359Y-97570000D01*
X37503641Y-96810000D02*
X37196359Y-96810000D01*
D11*
X45859500Y-42585000D02*
X45859500Y-40985000D01*
D12*
X55949190Y-141041693D02*
X56101693Y-140889190D01*
X56458307Y-141550810D02*
X56610810Y-141398307D01*
X70312000Y-104823641D02*
X70312000Y-104516359D01*
X71072000Y-104823641D02*
X71072000Y-104516359D01*
X41276359Y-74020000D02*
X41583641Y-74020000D01*
X41276359Y-74780000D02*
X41583641Y-74780000D01*
X32576359Y-124525000D02*
X32883641Y-124525000D01*
X32576359Y-125285000D02*
X32883641Y-125285000D01*
X26300000Y-102511359D02*
X26300000Y-102818641D01*
X25540000Y-102511359D02*
X25540000Y-102818641D01*
D11*
X38400000Y-99615000D02*
X38400000Y-98015000D01*
D12*
X51263641Y-48400000D02*
X50956359Y-48400000D01*
X51263641Y-47640000D02*
X50956359Y-47640000D01*
D11*
X38540000Y-115080000D02*
X38540000Y-113480000D01*
D12*
X43222164Y-74030000D02*
X43437836Y-74030000D01*
X43222164Y-74750000D02*
X43437836Y-74750000D01*
X58794500Y-118528641D02*
X58794500Y-118221359D01*
X59554500Y-118528641D02*
X59554500Y-118221359D01*
X44736359Y-43460000D02*
X45043641Y-43460000D01*
X44736359Y-44220000D02*
X45043641Y-44220000D01*
X52840000Y-147787064D02*
X52840000Y-146332936D01*
X54660000Y-147787064D02*
X54660000Y-146332936D01*
X59794500Y-118528641D02*
X59794500Y-118221359D01*
X60554500Y-118528641D02*
X60554500Y-118221359D01*
X36335000Y-23838748D02*
X36335000Y-24361252D01*
X34865000Y-23838748D02*
X34865000Y-24361252D01*
D11*
X46475500Y-24195000D02*
X46475500Y-22595000D01*
D12*
X50387064Y-132760000D02*
X48932936Y-132760000D01*
X50387064Y-130940000D02*
X48932936Y-130940000D01*
X53587836Y-42090000D02*
X53372164Y-42090000D01*
X53587836Y-41370000D02*
X53372164Y-41370000D01*
D11*
X48397500Y-29740000D02*
X48397500Y-28140000D01*
D12*
X34517164Y-124550000D02*
X34732836Y-124550000D01*
X34517164Y-125270000D02*
X34732836Y-125270000D01*
D11*
X57964500Y-122345000D02*
X57964500Y-123945000D01*
D12*
X46630000Y-49763641D02*
X46630000Y-49456359D01*
X47390000Y-49763641D02*
X47390000Y-49456359D01*
X62055000Y-54671252D02*
X62055000Y-54148748D01*
X63525000Y-54671252D02*
X63525000Y-54148748D01*
X42686359Y-36900000D02*
X42993641Y-36900000D01*
X42686359Y-37660000D02*
X42993641Y-37660000D01*
X51181252Y-150365000D02*
X50658748Y-150365000D01*
X51181252Y-148895000D02*
X50658748Y-148895000D01*
X69359836Y-104560000D02*
X69144164Y-104560000D01*
X69359836Y-103840000D02*
X69144164Y-103840000D01*
X35960000Y-170560000D02*
X35960000Y-170085000D01*
X36435000Y-166340000D02*
X35960000Y-166340000D01*
X36435000Y-170560000D02*
X35960000Y-170560000D01*
X39705000Y-166340000D02*
X40180000Y-166340000D01*
X39705000Y-170560000D02*
X40180000Y-170560000D01*
X40180000Y-166340000D02*
X40180000Y-166815000D01*
X40180000Y-170560000D02*
X40180000Y-170085000D01*
X26165000Y-111608748D02*
X26165000Y-112131252D01*
X24695000Y-111608748D02*
X24695000Y-112131252D01*
D11*
X58132500Y-89000000D02*
X58132500Y-90600000D01*
D12*
X62370000Y-141600000D02*
X62020000Y-141600000D01*
X58150000Y-141250000D02*
X58150000Y-141600000D01*
X62370000Y-141250000D02*
X62370000Y-141600000D01*
X58150000Y-137730000D02*
X58150000Y-137380000D01*
X62370000Y-137730000D02*
X62370000Y-137380000D01*
X58150000Y-137380000D02*
X58500000Y-137380000D01*
X62370000Y-137380000D02*
X62020000Y-137380000D01*
X31839359Y-94170000D02*
X32146641Y-94170000D01*
X31839359Y-94930000D02*
X32146641Y-94930000D01*
D11*
X38740500Y-85110000D02*
X38740500Y-83510000D01*
D12*
X36664164Y-49105000D02*
X36879836Y-49105000D01*
X36664164Y-49825000D02*
X36879836Y-49825000D01*
X42088359Y-55165000D02*
X42395641Y-55165000D01*
X42088359Y-55925000D02*
X42395641Y-55925000D01*
X34036359Y-167850000D02*
X34343641Y-167850000D01*
X34036359Y-168610000D02*
X34343641Y-168610000D01*
X59934500Y-87778641D02*
X59934500Y-87471359D01*
X60694500Y-87778641D02*
X60694500Y-87471359D01*
X51181252Y-146435000D02*
X50658748Y-146435000D01*
X51181252Y-144965000D02*
X50658748Y-144965000D01*
X55533641Y-42100000D02*
X55226359Y-42100000D01*
X55533641Y-41340000D02*
X55226359Y-41340000D01*
X36960000Y-103236359D02*
X36960000Y-103543641D01*
X36200000Y-103236359D02*
X36200000Y-103543641D01*
X37895000Y-118846359D02*
X37895000Y-119153641D01*
X37135000Y-118846359D02*
X37135000Y-119153641D01*
D11*
X51750000Y-55140000D02*
X51750000Y-56740000D01*
D12*
X50377064Y-135530000D02*
X48922936Y-135530000D01*
X50377064Y-133710000D02*
X48922936Y-133710000D01*
X51733641Y-53980000D02*
X51426359Y-53980000D01*
X51733641Y-53220000D02*
X51426359Y-53220000D01*
X69309836Y-88260000D02*
X69094164Y-88260000D01*
X69309836Y-87540000D02*
X69094164Y-87540000D01*
X59465836Y-29415000D02*
X59250164Y-29415000D01*
X59465836Y-28695000D02*
X59250164Y-28695000D01*
X51251641Y-66325000D02*
X50944359Y-66325000D01*
X51251641Y-65565000D02*
X50944359Y-65565000D01*
X70262000Y-88523641D02*
X70262000Y-88216359D01*
X71022000Y-88523641D02*
X71022000Y-88216359D01*
X46620000Y-60926359D02*
X46620000Y-61233641D01*
X45860000Y-60926359D02*
X45860000Y-61233641D01*
X33780164Y-94195000D02*
X33995836Y-94195000D01*
X33780164Y-94915000D02*
X33995836Y-94915000D01*
X62841252Y-35505000D02*
X62318748Y-35505000D01*
X62841252Y-34035000D02*
X62318748Y-34035000D01*
X51181252Y-148405000D02*
X50658748Y-148405000D01*
X51181252Y-146935000D02*
X50658748Y-146935000D01*
X60418000Y-29678641D02*
X60418000Y-29371359D01*
X61178000Y-29678641D02*
X61178000Y-29371359D01*
X60913641Y-125310000D02*
X60606359Y-125310000D01*
X60913641Y-124550000D02*
X60606359Y-124550000D01*
X35256359Y-96430000D02*
X35563641Y-96430000D01*
X35256359Y-97190000D02*
X35563641Y-97190000D01*
D11*
X58074500Y-119795000D02*
X58074500Y-121395000D01*
D12*
X33147164Y-108805000D02*
X33362836Y-108805000D01*
X33147164Y-109525000D02*
X33362836Y-109525000D01*
X61900000Y-48473641D02*
X61900000Y-48166359D01*
X62660000Y-48473641D02*
X62660000Y-48166359D01*
X57380000Y-133080000D02*
G75*
G03*
X57380000Y-133080000I-700000J0D01*
G01*
X31206359Y-108780000D02*
X31513641Y-108780000D01*
X31206359Y-109540000D02*
X31513641Y-109540000D01*
X26440000Y-117976359D02*
X26440000Y-118283641D01*
X25680000Y-117976359D02*
X25680000Y-118283641D01*
X64005000Y-73781252D02*
X64005000Y-73258748D01*
X65475000Y-73781252D02*
X65475000Y-73258748D01*
X37280164Y-30715000D02*
X37495836Y-30715000D01*
X37280164Y-31435000D02*
X37495836Y-31435000D01*
X51733641Y-54980000D02*
X51426359Y-54980000D01*
X51733641Y-54220000D02*
X51426359Y-54220000D01*
X61908000Y-67218641D02*
X61908000Y-66911359D01*
X62668000Y-67218641D02*
X62668000Y-66911359D01*
X62879836Y-98735000D02*
X62664164Y-98735000D01*
X62879836Y-98015000D02*
X62664164Y-98015000D01*
X27252164Y-102775000D02*
X27467836Y-102775000D01*
X27252164Y-103495000D02*
X27467836Y-103495000D01*
X59070859Y-110055000D02*
X59378141Y-110055000D01*
X59070859Y-110815000D02*
X59378141Y-110815000D01*
X58950859Y-93865000D02*
X59258141Y-93865000D01*
X58950859Y-94625000D02*
X59258141Y-94625000D01*
%LPC*%
D15*
X52660500Y-74275000D03*
X55460500Y-74275000D03*
D16*
X45987500Y-66220000D03*
X43187500Y-66220000D03*
X37838000Y-86695000D03*
X35038000Y-86695000D03*
D15*
X50778000Y-68695000D03*
X53578000Y-68695000D03*
D17*
X62410000Y-135990000D03*
X62410000Y-135350000D03*
X38840000Y-172300000D03*
X38840000Y-171660000D03*
D18*
X51128000Y-74375000D03*
X51128000Y-73355000D03*
D15*
X51170500Y-36735000D03*
X53970500Y-36735000D03*
D19*
X36533618Y-58479406D03*
X37082793Y-57153581D03*
X37082793Y-59805231D03*
X38408618Y-56604406D03*
D20*
X38408618Y-58479406D03*
D19*
X38408618Y-60354406D03*
X39734443Y-57153581D03*
X39734443Y-59805231D03*
X40283618Y-58479406D03*
D21*
X55898000Y-60465000D03*
X54878000Y-60465000D03*
D22*
X45200000Y-67930000D03*
X46220000Y-67930000D03*
D19*
X69964500Y-99185000D03*
X69964500Y-100985000D03*
X69964500Y-102785000D03*
X71764500Y-99185000D03*
X71764500Y-100985000D03*
D23*
X71764500Y-100985000D03*
D19*
X71764500Y-102785000D03*
X73564500Y-99185000D03*
X73564500Y-100985000D03*
X73564500Y-102785000D03*
D24*
X63720000Y-140780000D03*
X64360000Y-140780000D03*
D25*
X46180000Y-131535000D03*
X46180000Y-134460000D03*
D26*
X35332000Y-48485000D03*
X35332000Y-49505000D03*
D24*
X41120000Y-169710000D03*
X41760000Y-169710000D03*
D27*
X52478000Y-22935000D03*
X51518000Y-22935000D03*
D26*
X36515000Y-118490000D03*
X36515000Y-119510000D03*
D15*
X58740000Y-92530000D03*
X61540000Y-92530000D03*
D16*
X44720000Y-60740000D03*
X41920000Y-60740000D03*
D22*
X63810000Y-138370000D03*
X64830000Y-138370000D03*
D27*
X61328000Y-66595000D03*
X60368000Y-66595000D03*
D19*
X58440000Y-24150000D03*
X58440000Y-25950000D03*
X58440000Y-27750000D03*
X60240000Y-24150000D03*
X60240000Y-25950000D03*
D23*
X60240000Y-25950000D03*
D19*
X60240000Y-27750000D03*
X62040000Y-24150000D03*
X62040000Y-25950000D03*
X62040000Y-27750000D03*
X70574500Y-113615000D03*
X70574500Y-115415000D03*
X70574500Y-117215000D03*
X72374500Y-113615000D03*
X72374500Y-115415000D03*
D23*
X72374500Y-115415000D03*
D19*
X72374500Y-117215000D03*
X74174500Y-113615000D03*
X74174500Y-115415000D03*
X74174500Y-117215000D03*
D28*
X41450000Y-133680000D03*
X41450000Y-127755000D03*
D24*
X58940000Y-134110000D03*
X59580000Y-134110000D03*
D29*
X71270000Y-111780000D03*
X71270000Y-109880000D03*
D30*
X55468000Y-68255000D03*
X55468000Y-69525000D03*
X55468000Y-70795000D03*
X55468000Y-72065000D03*
D31*
X58960000Y-70160000D03*
D26*
X47300000Y-23850000D03*
X47300000Y-24870000D03*
D15*
X59157000Y-106135000D03*
X61957000Y-106135000D03*
D17*
X43482000Y-44485000D03*
X43482000Y-43845000D03*
D24*
X39690000Y-164220000D03*
X40330000Y-164220000D03*
D17*
X36405000Y-121020000D03*
X36405000Y-120380000D03*
D21*
X37825000Y-112680000D03*
X36805000Y-112680000D03*
D29*
X71300000Y-95600000D03*
X71300000Y-93700000D03*
D21*
X50100000Y-29080000D03*
X49080000Y-29080000D03*
X51608000Y-66945000D03*
X50588000Y-66945000D03*
X61534500Y-94350000D03*
X60514500Y-94350000D03*
D27*
X65020000Y-81940000D03*
X64060000Y-81940000D03*
D26*
X37570000Y-102880000D03*
X37570000Y-103900000D03*
D17*
X64520000Y-135990000D03*
X64520000Y-135350000D03*
D26*
X35948000Y-30095000D03*
X35948000Y-31115000D03*
D24*
X55460000Y-143610000D03*
X56100000Y-143610000D03*
D32*
X33120000Y-41580000D03*
X33120000Y-43480000D03*
D30*
X51516000Y-24600000D03*
X51516000Y-25870000D03*
X51516000Y-27140000D03*
X51516000Y-28410000D03*
D31*
X55008000Y-26505000D03*
D33*
X40700000Y-61460000D03*
X40060000Y-61460000D03*
D17*
X42670000Y-63340000D03*
X42670000Y-62700000D03*
D34*
X51620000Y-45440000D03*
X51620000Y-46080000D03*
D19*
X23180000Y-104470000D03*
X23180000Y-106270000D03*
X23180000Y-108070000D03*
X24980000Y-104470000D03*
X24980000Y-106270000D03*
D23*
X24980000Y-106270000D03*
D19*
X24980000Y-108070000D03*
X26780000Y-104470000D03*
X26780000Y-106270000D03*
X26780000Y-108070000D03*
D35*
X56270000Y-138835000D03*
X56270000Y-137285000D03*
D36*
X50270000Y-30500000D03*
X50270000Y-33300000D03*
D22*
X58325500Y-124935000D03*
X59345500Y-124935000D03*
D27*
X53968000Y-60475000D03*
X53008000Y-60475000D03*
D32*
X25350000Y-95510000D03*
X25350000Y-97410000D03*
D19*
X68784500Y-82675000D03*
X68784500Y-84475000D03*
X68784500Y-86275000D03*
X70584500Y-82675000D03*
X70584500Y-84475000D03*
D23*
X70584500Y-84475000D03*
D19*
X70584500Y-86275000D03*
X72384500Y-82675000D03*
X72384500Y-84475000D03*
X72384500Y-86275000D03*
D33*
X65190000Y-134620000D03*
X64550000Y-134620000D03*
D19*
X60520000Y-46450000D03*
D23*
X62320000Y-44650000D03*
D19*
X62320000Y-46450000D03*
X64120000Y-42850000D03*
X64120000Y-44650000D03*
X64120000Y-46450000D03*
D30*
X52998000Y-43395000D03*
X52998000Y-44665000D03*
X52998000Y-45935000D03*
X52998000Y-47205000D03*
D31*
X56490000Y-45300000D03*
D29*
X71030000Y-126260000D03*
X71030000Y-124360000D03*
D30*
X32872000Y-116890000D03*
X32872000Y-115620000D03*
X32872000Y-114350000D03*
X32872000Y-113080000D03*
D37*
X29380000Y-114985000D03*
D38*
X53650000Y-150320000D03*
X55550000Y-150320000D03*
D39*
X52820000Y-131502500D03*
X53470000Y-131502500D03*
D40*
X53795000Y-132627500D03*
D39*
X54120000Y-131502500D03*
X54770000Y-131502500D03*
D41*
X54770000Y-134582500D03*
X52820000Y-134582500D03*
X53470000Y-134582500D03*
X54120000Y-134582500D03*
D33*
X48390000Y-115670000D03*
X47750000Y-115670000D03*
D30*
X42152000Y-47805000D03*
X42152000Y-46535000D03*
X42152000Y-45265000D03*
X42152000Y-43995000D03*
D37*
X38660000Y-45900000D03*
D21*
X50100000Y-28080000D03*
X49080000Y-28080000D03*
D18*
X46020000Y-50120000D03*
X46020000Y-49100000D03*
D30*
X41340000Y-66660000D03*
X41340000Y-65390000D03*
X41340000Y-64120000D03*
X41340000Y-62850000D03*
D37*
X37848000Y-64755000D03*
D42*
X44260000Y-37270000D03*
X45220000Y-37270000D03*
D24*
X55010000Y-125820000D03*
X55650000Y-125820000D03*
D43*
X49680000Y-152000000D03*
X49680000Y-151040000D03*
D17*
X61960000Y-144815000D03*
X61960000Y-144175000D03*
D19*
X21690000Y-89970000D03*
X21690000Y-91770000D03*
X21690000Y-93570000D03*
X23490000Y-89970000D03*
X23490000Y-91770000D03*
D23*
X23490000Y-91770000D03*
D19*
X23490000Y-93570000D03*
X25290000Y-89970000D03*
X25290000Y-91770000D03*
X25290000Y-93570000D03*
D21*
X52098000Y-72405000D03*
X51078000Y-72405000D03*
D34*
X54138000Y-71575000D03*
X54138000Y-72215000D03*
D42*
X43662000Y-55535000D03*
X44622000Y-55535000D03*
D24*
X55010000Y-125060000D03*
X55650000Y-125060000D03*
D19*
X56533618Y-38479406D03*
X57082793Y-37153581D03*
X57082793Y-39805231D03*
X58408618Y-36604406D03*
D20*
X58408618Y-38479406D03*
D19*
X58408618Y-40354406D03*
X59734443Y-37153581D03*
X59734443Y-39805231D03*
X60283618Y-38479406D03*
D34*
X34060000Y-166730000D03*
X34060000Y-167370000D03*
D21*
X64877000Y-112745000D03*
X63857000Y-112745000D03*
D24*
X35485000Y-164220000D03*
X36125000Y-164220000D03*
D34*
X50100000Y-26525000D03*
X50100000Y-27165000D03*
D19*
X31740000Y-50680000D03*
X31740000Y-52480000D03*
X31740000Y-54280000D03*
X33540000Y-50680000D03*
D23*
X33540000Y-52480000D03*
D19*
X35340000Y-50680000D03*
D24*
X32190000Y-111680000D03*
X32830000Y-111680000D03*
D22*
X46630000Y-30710000D03*
X47650000Y-30710000D03*
D21*
X61654500Y-110435000D03*
X60634500Y-110435000D03*
D27*
X69562000Y-118680000D03*
X68602000Y-118680000D03*
D21*
X66945000Y-81945000D03*
X65925000Y-81945000D03*
D42*
X27158000Y-88630000D03*
X28118000Y-88630000D03*
D24*
X57210000Y-55010000D03*
X57850000Y-55010000D03*
D15*
X50350000Y-49790000D03*
X53150000Y-49790000D03*
D34*
X60434500Y-85610000D03*
X60434500Y-86250000D03*
D19*
X33840000Y-32340000D03*
X33840000Y-34140000D03*
X33840000Y-35940000D03*
X35640000Y-32340000D03*
X35640000Y-34140000D03*
D23*
X35640000Y-34140000D03*
D19*
X37440000Y-32340000D03*
X37440000Y-34140000D03*
D21*
X51620000Y-47020000D03*
X50600000Y-47020000D03*
D34*
X52648000Y-34035000D03*
X52648000Y-34675000D03*
D17*
X63110000Y-135990000D03*
X63110000Y-135350000D03*
D26*
X46370000Y-42820000D03*
X46370000Y-43840000D03*
D42*
X35480000Y-68320000D03*
X36440000Y-68320000D03*
D26*
X34520000Y-67340000D03*
X34520000Y-68360000D03*
D24*
X63614500Y-95035000D03*
X64254500Y-95035000D03*
D26*
X36608000Y-88375000D03*
X36608000Y-89395000D03*
D18*
X59454500Y-104485000D03*
X59454500Y-103465000D03*
D34*
X60380000Y-101940000D03*
X60380000Y-102580000D03*
X63370000Y-144175000D03*
X63370000Y-144815000D03*
D17*
X45200000Y-70490000D03*
X45200000Y-69850000D03*
D22*
X57660000Y-142560000D03*
X58680000Y-142560000D03*
D27*
X61320000Y-47850000D03*
X60360000Y-47850000D03*
D33*
X30168000Y-81395000D03*
X29528000Y-81395000D03*
X47780000Y-113240000D03*
X47140000Y-113240000D03*
D24*
X55450000Y-144360000D03*
X56090000Y-144360000D03*
D22*
X34885000Y-112680000D03*
X35905000Y-112680000D03*
D21*
X65184500Y-98375000D03*
X64164500Y-98375000D03*
D33*
X47780000Y-114050000D03*
X47140000Y-114050000D03*
D21*
X37918000Y-82710000D03*
X36898000Y-82710000D03*
D22*
X46630000Y-31710000D03*
X47650000Y-31710000D03*
D24*
X63720000Y-141480000D03*
X64360000Y-141480000D03*
D32*
X34010000Y-60810000D03*
X34010000Y-62710000D03*
D22*
X34978000Y-82710000D03*
X35998000Y-82710000D03*
D21*
X54408000Y-22925000D03*
X53388000Y-22925000D03*
D22*
X33680000Y-169190000D03*
X34700000Y-169190000D03*
D30*
X33010000Y-86920000D03*
X33010000Y-85650000D03*
X33010000Y-84380000D03*
X33010000Y-83110000D03*
D37*
X29518000Y-85015000D03*
D30*
X61952500Y-99940000D03*
X61952500Y-101210000D03*
X61952500Y-102480000D03*
X61952500Y-103750000D03*
D31*
X65444500Y-101845000D03*
D26*
X37598000Y-88375000D03*
X37598000Y-89395000D03*
D35*
X48090000Y-130015000D03*
X48090000Y-128465000D03*
D16*
X37647500Y-116900000D03*
X34847500Y-116900000D03*
D18*
X49638000Y-36835000D03*
X49638000Y-35815000D03*
D26*
X26198000Y-87650000D03*
X26198000Y-88670000D03*
D18*
X59314500Y-88135000D03*
X59314500Y-87115000D03*
D30*
X42768000Y-29415000D03*
X42768000Y-28145000D03*
X42768000Y-26875000D03*
X42768000Y-25605000D03*
D37*
X39276000Y-27510000D03*
D16*
X37150000Y-101310000D03*
X34350000Y-101310000D03*
D19*
X33570000Y-73150000D03*
X33570000Y-71350000D03*
X33570000Y-69550000D03*
X31770000Y-73150000D03*
X31770000Y-71350000D03*
D23*
X31770000Y-71350000D03*
D19*
X31770000Y-69550000D03*
X29970000Y-73150000D03*
X29970000Y-71350000D03*
X29970000Y-69550000D03*
D18*
X60454500Y-104485000D03*
X60454500Y-103465000D03*
D32*
X25568000Y-81175000D03*
X25568000Y-83075000D03*
D44*
X52872500Y-142157500D03*
X54747500Y-142157500D03*
D45*
X53810000Y-141832500D03*
D44*
X52872500Y-141507500D03*
X54747500Y-141507500D03*
X54747500Y-140857500D03*
X52872500Y-140857500D03*
D46*
X53810000Y-140807500D03*
D15*
X59154500Y-108405000D03*
X61954500Y-108405000D03*
D47*
X50920000Y-125060000D03*
X50920000Y-125560000D03*
X50920000Y-126060000D03*
X50920000Y-126560000D03*
X53820000Y-126560000D03*
X53820000Y-126060000D03*
X53820000Y-125560000D03*
X53820000Y-125060000D03*
D48*
X52370000Y-125810000D03*
D19*
X24002000Y-119990000D03*
X24002000Y-121790000D03*
X24002000Y-123590000D03*
X25802000Y-119990000D03*
X25802000Y-121790000D03*
D23*
X25802000Y-121790000D03*
D19*
X25802000Y-123590000D03*
X27602000Y-119990000D03*
X27602000Y-121790000D03*
X27602000Y-123590000D03*
X62480000Y-65250000D03*
X64280000Y-61650000D03*
X64280000Y-63450000D03*
D23*
X64280000Y-63450000D03*
D19*
X64280000Y-65250000D03*
X66080000Y-61650000D03*
X66080000Y-63450000D03*
X66080000Y-65250000D03*
D18*
X70522000Y-119660000D03*
X70522000Y-118640000D03*
D22*
X43600000Y-62700000D03*
X44620000Y-62700000D03*
D42*
X27020000Y-118600000D03*
X27980000Y-118600000D03*
D27*
X62954500Y-112745000D03*
X61994500Y-112745000D03*
D28*
X42110000Y-115902500D03*
X42110000Y-109977500D03*
D22*
X45200000Y-68930000D03*
X46220000Y-68930000D03*
D21*
X51580000Y-151960000D03*
X50560000Y-151960000D03*
X51630000Y-34690000D03*
X50610000Y-34690000D03*
D16*
X46890000Y-47340000D03*
X44090000Y-47340000D03*
D17*
X33950000Y-97470000D03*
X33950000Y-96830000D03*
D22*
X45210000Y-25460000D03*
X46230000Y-25460000D03*
D30*
X63710000Y-120390000D03*
X63710000Y-121660000D03*
X63710000Y-122930000D03*
X63710000Y-124200000D03*
D31*
X67202000Y-122295000D03*
D17*
X44098000Y-26095000D03*
X44098000Y-25455000D03*
D42*
X56440000Y-136040000D03*
X57400000Y-136040000D03*
D21*
X37860000Y-97190000D03*
X36840000Y-97190000D03*
D16*
X44959500Y-41785000D03*
X42159500Y-41785000D03*
D34*
X61710000Y-135350000D03*
X61710000Y-135990000D03*
D49*
X55940589Y-141559411D03*
X56619411Y-140880589D03*
D18*
X70692000Y-105180000D03*
X70692000Y-104160000D03*
D17*
X60310000Y-135485000D03*
X60310000Y-134845000D03*
D22*
X40920000Y-74400000D03*
X41940000Y-74400000D03*
X32220000Y-124905000D03*
X33240000Y-124905000D03*
D26*
X25920000Y-102155000D03*
X25920000Y-103175000D03*
D24*
X34100000Y-170720000D03*
X34740000Y-170720000D03*
D16*
X37500000Y-98815000D03*
X34700000Y-98815000D03*
D21*
X51620000Y-48020000D03*
X50600000Y-48020000D03*
D17*
X46020000Y-51640000D03*
X46020000Y-51000000D03*
D16*
X37640000Y-114280000D03*
X34840000Y-114280000D03*
D42*
X42850000Y-74390000D03*
X43810000Y-74390000D03*
D33*
X41018000Y-23915000D03*
X40378000Y-23915000D03*
D34*
X46180000Y-115730000D03*
X46180000Y-116370000D03*
D18*
X59174500Y-118885000D03*
X59174500Y-117865000D03*
D30*
X55460000Y-49510000D03*
X55460000Y-50780000D03*
X55460000Y-52050000D03*
X55460000Y-53320000D03*
D31*
X58952000Y-51415000D03*
D22*
X44380000Y-43840000D03*
X45400000Y-43840000D03*
D30*
X53978000Y-30715000D03*
X53978000Y-31985000D03*
X53978000Y-33255000D03*
X53978000Y-34525000D03*
D31*
X57470000Y-32620000D03*
D50*
X53750000Y-148522500D03*
X53750000Y-145597500D03*
D18*
X60174500Y-118885000D03*
X60174500Y-117865000D03*
D34*
X60294500Y-116375000D03*
X60294500Y-117015000D03*
D32*
X35600000Y-23150000D03*
X35600000Y-25050000D03*
D16*
X45575500Y-23395000D03*
X42775500Y-23395000D03*
D34*
X62237000Y-124510000D03*
X62237000Y-125150000D03*
D51*
X51122500Y-131850000D03*
X48197500Y-131850000D03*
D27*
X53960000Y-41730000D03*
X53000000Y-41730000D03*
D24*
X38290000Y-164220000D03*
X38930000Y-164220000D03*
D16*
X47497500Y-28940000D03*
X44697500Y-28940000D03*
D24*
X63720000Y-142180000D03*
X64360000Y-142180000D03*
D42*
X34145000Y-124910000D03*
X35105000Y-124910000D03*
D15*
X58864500Y-123145000D03*
X61664500Y-123145000D03*
D30*
X35020000Y-92930000D03*
X35020000Y-91660000D03*
X35020000Y-90390000D03*
X35020000Y-89120000D03*
D37*
X31528000Y-91025000D03*
D52*
X49060000Y-143371000D03*
X49060000Y-137529000D03*
D18*
X47010000Y-50120000D03*
X47010000Y-49100000D03*
D17*
X34770000Y-167380000D03*
X34770000Y-166740000D03*
D29*
X62790000Y-55360000D03*
X62790000Y-53460000D03*
D22*
X42330000Y-37280000D03*
X43350000Y-37280000D03*
D53*
X51870000Y-149630000D03*
X49970000Y-149630000D03*
D33*
X34740000Y-170020000D03*
X34100000Y-170020000D03*
D30*
X61734500Y-114295000D03*
X61734500Y-115565000D03*
X61734500Y-116835000D03*
X61734500Y-118105000D03*
D31*
X65226500Y-116200000D03*
D27*
X69732000Y-104200000D03*
X68772000Y-104200000D03*
D54*
X36132500Y-167200000D03*
X36132500Y-167700000D03*
X36132500Y-168200000D03*
X36132500Y-168700000D03*
X36132500Y-169200000D03*
X36132500Y-169700000D03*
D55*
X36820000Y-170387500D03*
X37320000Y-170387500D03*
X37820000Y-170387500D03*
X38320000Y-170387500D03*
X38820000Y-170387500D03*
X39320000Y-170387500D03*
D54*
X40007500Y-169700000D03*
X40007500Y-169200000D03*
X40007500Y-168700000D03*
X40007500Y-168200000D03*
X40007500Y-167700000D03*
X40007500Y-167200000D03*
D55*
X39320000Y-166512500D03*
X38820000Y-166512500D03*
X38320000Y-166512500D03*
X37820000Y-166512500D03*
X37320000Y-166512500D03*
X36820000Y-166512500D03*
D56*
X38070000Y-168450000D03*
D24*
X32208000Y-81450000D03*
X32848000Y-81450000D03*
D17*
X63820000Y-134580000D03*
X63820000Y-133940000D03*
D32*
X25430000Y-110920000D03*
X25430000Y-112820000D03*
D15*
X59032500Y-89800000D03*
X61832500Y-89800000D03*
D57*
X58860000Y-141490000D03*
X59260000Y-141490000D03*
X59660000Y-141490000D03*
X60060000Y-141490000D03*
X60460000Y-141490000D03*
X60860000Y-141490000D03*
X61260000Y-141490000D03*
X61660000Y-141490000D03*
D58*
X62260000Y-140890000D03*
X62260000Y-140490000D03*
X62260000Y-140090000D03*
X62260000Y-139690000D03*
X62260000Y-139290000D03*
X62260000Y-138890000D03*
X62260000Y-138490000D03*
X62260000Y-138090000D03*
D57*
X61660000Y-137490000D03*
X61260000Y-137490000D03*
X60860000Y-137490000D03*
X60460000Y-137490000D03*
X60060000Y-137490000D03*
X59660000Y-137490000D03*
X59260000Y-137490000D03*
X58860000Y-137490000D03*
D58*
X58260000Y-138090000D03*
X58260000Y-138490000D03*
X58260000Y-138890000D03*
X58260000Y-139290000D03*
X58260000Y-139690000D03*
X58260000Y-140090000D03*
X58260000Y-140490000D03*
X58260000Y-140890000D03*
D59*
X60260000Y-139490000D03*
D22*
X31483000Y-94550000D03*
X32503000Y-94550000D03*
D16*
X37840500Y-84310000D03*
X35040500Y-84310000D03*
D42*
X36292000Y-49465000D03*
X37252000Y-49465000D03*
D30*
X63880000Y-105910000D03*
X63880000Y-107180000D03*
X63880000Y-108450000D03*
X63880000Y-109720000D03*
D31*
X67372000Y-107815000D03*
D34*
X62480000Y-93770000D03*
X62480000Y-94410000D03*
D22*
X41732000Y-55545000D03*
X42752000Y-55545000D03*
X33680000Y-168230000D03*
X34700000Y-168230000D03*
D18*
X60314500Y-88135000D03*
X60314500Y-87115000D03*
D17*
X61010000Y-135485000D03*
X61010000Y-134845000D03*
D30*
X45230000Y-35530000D03*
X45230000Y-34260000D03*
X45230000Y-32990000D03*
X45230000Y-31720000D03*
D37*
X41738000Y-33625000D03*
D53*
X51870000Y-145700000D03*
X49970000Y-145700000D03*
D24*
X55320000Y-36050000D03*
X55960000Y-36050000D03*
D30*
X61832500Y-83620000D03*
X61832500Y-84890000D03*
X61832500Y-86160000D03*
X61832500Y-87430000D03*
D31*
X65324500Y-85525000D03*
D24*
X65110000Y-125720000D03*
X65750000Y-125720000D03*
D30*
X43802000Y-72775000D03*
X43802000Y-71505000D03*
X43802000Y-70235000D03*
X43802000Y-68965000D03*
D37*
X40310000Y-70870000D03*
D24*
X57190000Y-73590000D03*
X57830000Y-73590000D03*
D21*
X55890000Y-41720000D03*
X54870000Y-41720000D03*
D26*
X36580000Y-102880000D03*
X36580000Y-103900000D03*
X37515000Y-118490000D03*
X37515000Y-119510000D03*
D15*
X52650000Y-55940000D03*
X55450000Y-55940000D03*
D51*
X51112500Y-134620000D03*
X48187500Y-134620000D03*
D24*
X34100000Y-166000000D03*
X34740000Y-166000000D03*
D33*
X30610000Y-96050000D03*
X29970000Y-96050000D03*
D17*
X36488000Y-90885000D03*
X36488000Y-90245000D03*
D24*
X63725000Y-142880000D03*
X64365000Y-142880000D03*
D17*
X63810000Y-135990000D03*
X63810000Y-135350000D03*
D24*
X63704500Y-111245000D03*
X64344500Y-111245000D03*
D33*
X62380000Y-134110000D03*
X61740000Y-134110000D03*
D21*
X52090000Y-53600000D03*
X51070000Y-53600000D03*
D34*
X53580000Y-52740000D03*
X53580000Y-53380000D03*
D27*
X69682000Y-87900000D03*
X68722000Y-87900000D03*
D24*
X60340000Y-134115000D03*
X60980000Y-134115000D03*
D27*
X59838000Y-29055000D03*
X58878000Y-29055000D03*
D60*
X43020000Y-149100000D03*
X43020000Y-143400000D03*
D21*
X51608000Y-65945000D03*
X50588000Y-65945000D03*
D44*
X54757500Y-137610000D03*
X52882500Y-137610000D03*
D45*
X53820000Y-137935000D03*
D44*
X54757500Y-138260000D03*
X52882500Y-138260000D03*
X52882500Y-138910000D03*
X54757500Y-138910000D03*
D46*
X53820000Y-138960000D03*
D18*
X70642000Y-88880000D03*
X70642000Y-87860000D03*
D26*
X46240000Y-60570000D03*
X46240000Y-61590000D03*
D34*
X61260000Y-144175000D03*
X61260000Y-144815000D03*
D42*
X33408000Y-94555000D03*
X34368000Y-94555000D03*
D17*
X41020000Y-167570000D03*
X41020000Y-166930000D03*
D53*
X63530000Y-34770000D03*
X61630000Y-34770000D03*
D24*
X63650000Y-137550000D03*
X64290000Y-137550000D03*
D53*
X51870000Y-147670000D03*
X49970000Y-147670000D03*
D33*
X58720000Y-143380000D03*
X58080000Y-143380000D03*
D18*
X60798000Y-30035000D03*
X60798000Y-29015000D03*
D21*
X61270000Y-124930000D03*
X60250000Y-124930000D03*
D33*
X47750000Y-114860000D03*
X47110000Y-114860000D03*
D17*
X46560000Y-33260000D03*
X46560000Y-32620000D03*
D22*
X34900000Y-96810000D03*
X35920000Y-96810000D03*
D15*
X58974500Y-120595000D03*
X61774500Y-120595000D03*
D17*
X36460000Y-105400000D03*
X36460000Y-104760000D03*
X65220000Y-135990000D03*
X65220000Y-135350000D03*
D42*
X32775000Y-109165000D03*
X33735000Y-109165000D03*
D18*
X62280000Y-48830000D03*
X62280000Y-47810000D03*
D17*
X39540000Y-172300000D03*
X39540000Y-171660000D03*
D33*
X31370000Y-111680000D03*
X30730000Y-111680000D03*
D61*
X56680000Y-133080000D03*
D22*
X30850000Y-109160000D03*
X31870000Y-109160000D03*
D19*
X36533618Y-146729406D03*
X37082793Y-145403581D03*
X37082793Y-148055231D03*
X38408618Y-144854406D03*
D20*
X38408618Y-146729406D03*
D19*
X38408618Y-148604406D03*
X39734443Y-145403581D03*
X39734443Y-148055231D03*
X40283618Y-146729406D03*
D30*
X63830000Y-89610000D03*
X63830000Y-90880000D03*
X63830000Y-92150000D03*
X63830000Y-93420000D03*
D31*
X67322000Y-91515000D03*
D44*
X52875000Y-144317501D03*
X54750000Y-144317501D03*
D45*
X53812500Y-143992501D03*
D44*
X52875000Y-143667501D03*
X54750000Y-143667501D03*
X54750000Y-143017501D03*
X52875000Y-143017501D03*
D46*
X53812500Y-142967501D03*
D30*
X34802000Y-107545000D03*
X34802000Y-106275000D03*
X34802000Y-105005000D03*
X34802000Y-103735000D03*
D37*
X31310000Y-105640000D03*
D26*
X26060000Y-117620000D03*
X26060000Y-118640000D03*
D29*
X64740000Y-74470000D03*
X64740000Y-72570000D03*
D42*
X36908000Y-31075000D03*
X37868000Y-31075000D03*
D17*
X62660000Y-144815000D03*
X62660000Y-144175000D03*
D21*
X52090000Y-54600000D03*
X51070000Y-54600000D03*
D44*
X54752500Y-135437500D03*
X52877500Y-135437500D03*
D45*
X53815000Y-135762500D03*
D44*
X54752500Y-136087500D03*
X52877500Y-136087500D03*
X52877500Y-136737500D03*
X54752500Y-136737500D03*
D46*
X53815000Y-136787500D03*
D18*
X62288000Y-67575000D03*
X62288000Y-66555000D03*
D19*
X56533618Y-146729406D03*
X57082793Y-145403581D03*
X57082793Y-148055231D03*
X58408618Y-144854406D03*
D20*
X58408618Y-146729406D03*
D19*
X58408618Y-148604406D03*
X59734443Y-145403581D03*
X59734443Y-148055231D03*
X60283618Y-146729406D03*
D33*
X40550000Y-42540000D03*
X39910000Y-42540000D03*
D27*
X63252000Y-98375000D03*
X62292000Y-98375000D03*
D30*
X34927000Y-123275000D03*
X34927000Y-122005000D03*
X34927000Y-120735000D03*
X34927000Y-119465000D03*
D37*
X31435000Y-121370000D03*
D42*
X26880000Y-103135000D03*
X27840000Y-103135000D03*
D30*
X32732000Y-101425000D03*
X32732000Y-100155000D03*
X32732000Y-98885000D03*
X32732000Y-97615000D03*
D37*
X29240000Y-99520000D03*
D24*
X47750000Y-116480000D03*
X48390000Y-116480000D03*
D22*
X58714500Y-110435000D03*
X59734500Y-110435000D03*
D34*
X62574500Y-109795000D03*
X62574500Y-110435000D03*
D30*
X44614000Y-53920000D03*
X44614000Y-52650000D03*
X44614000Y-51380000D03*
X44614000Y-50110000D03*
D37*
X41122000Y-52015000D03*
D24*
X36885000Y-164220000D03*
X37525000Y-164220000D03*
D30*
X53006000Y-62140000D03*
X53006000Y-63410000D03*
X53006000Y-64680000D03*
X53006000Y-65950000D03*
D31*
X56498000Y-64045000D03*
D22*
X58594500Y-94245000D03*
X59614500Y-94245000D03*
D34*
X51608000Y-64375000D03*
X51608000Y-65015000D03*
D48*
X27770000Y-77197349D03*
D62*
X27770000Y-80697349D03*
D63*
X51610000Y-155250000D03*
X51610000Y-157790000D03*
X51610000Y-160330000D03*
X56690000Y-155250000D03*
X56690000Y-157790000D03*
X56690000Y-160330000D03*
D64*
X47450000Y-75530000D03*
X47450000Y-76800000D03*
X47450000Y-78070000D03*
X47450000Y-79340000D03*
X47450000Y-80610000D03*
X47450000Y-81880000D03*
X47450000Y-83150000D03*
X47450000Y-84420000D03*
X47450000Y-85690000D03*
X47450000Y-86960000D03*
X47450000Y-88230000D03*
X47450000Y-89500000D03*
X47450000Y-90770000D03*
X47450000Y-92040000D03*
X47450000Y-93310000D03*
X47450000Y-94580000D03*
X47450000Y-95850000D03*
X47450000Y-97120000D03*
X48720000Y-75530000D03*
X48720000Y-76800000D03*
X48720000Y-78070000D03*
X48720000Y-79340000D03*
X48720000Y-80610000D03*
X48720000Y-81880000D03*
X48720000Y-83150000D03*
X48720000Y-84420000D03*
X48720000Y-85690000D03*
X48720000Y-86960000D03*
X48720000Y-88230000D03*
X48720000Y-89500000D03*
X48720000Y-90770000D03*
X48720000Y-92040000D03*
X48720000Y-93310000D03*
X48720000Y-94580000D03*
X48720000Y-95850000D03*
X48720000Y-97120000D03*
D65*
X39330000Y-39520000D03*
X38080000Y-39520000D03*
X40305000Y-40620000D03*
X39330000Y-40620000D03*
X38080000Y-40620000D03*
X37105000Y-40620000D03*
X39330000Y-41720000D03*
X38080000Y-41720000D03*
D66*
X52680000Y-171890000D03*
D67*
X50680000Y-171890000D03*
X48680000Y-171890000D03*
X46680000Y-171890000D03*
X44680000Y-171890000D03*
D48*
X69210000Y-76967349D03*
D62*
X69210000Y-80467349D03*
X30756122Y-130920064D03*
X29506122Y-128755000D03*
X28256122Y-126589937D03*
D68*
X37260000Y-137730000D03*
D69*
X37260000Y-135730000D03*
D65*
X55020000Y-107260000D03*
X56270000Y-107260000D03*
X54045000Y-106160000D03*
X55020000Y-106160000D03*
X56270000Y-106160000D03*
X57245000Y-106160000D03*
X55020000Y-105060000D03*
X56270000Y-105060000D03*
D63*
X40450000Y-155280000D03*
X40450000Y-157820000D03*
X40450000Y-160360000D03*
X45530000Y-155280000D03*
X45530000Y-157820000D03*
X45530000Y-160360000D03*
D65*
X58345000Y-59720000D03*
X59595000Y-59720000D03*
X57370000Y-58620000D03*
X58345000Y-58620000D03*
X59595000Y-58620000D03*
X60570000Y-58620000D03*
X58345000Y-57520000D03*
X59595000Y-57520000D03*
X42100000Y-100720000D03*
X40850000Y-100720000D03*
X43075000Y-101820000D03*
X42100000Y-101820000D03*
X40850000Y-101820000D03*
X39875000Y-101820000D03*
X42100000Y-102920000D03*
X40850000Y-102920000D03*
%LPD*%
M02*
