%TF.GenerationSoftware,KiCad,Pcbnew,7.0.2-0*%
%TF.CreationDate,2023-10-14T11:28:50-07:00*%
%TF.ProjectId,high-power,68696768-2d70-46f7-9765-722e6b696361,rev?*%
%TF.SameCoordinates,Original*%
%TF.FileFunction,Drillmap*%
%TF.FilePolarity,Positive*%
%FSLAX45Y45*%
G04 Gerber Fmt 4.5, Leading zero omitted, Abs format (unit mm)*
G04 Created by KiCad (PCBNEW 7.0.2-0) date 2023-10-14 11:28:50*
%MOMM*%
%LPD*%
G01*
G04 APERTURE LIST*
%ADD10C,0.200000*%
G04 APERTURE END LIST*
D10*
X7691309Y-9240059D02*
G75*
G03*
X7655085Y-8747826I-563568J205976D01*
G01*
X7642652Y-12002861D02*
G75*
G03*
X7688073Y-11496927I-518706J301573D01*
G01*
X3636565Y-2147941D02*
G75*
G03*
X3338142Y-2417221I12J-300014D01*
G01*
X3636565Y-2147941D02*
X6045159Y-2147941D01*
X3890862Y-7772941D02*
G75*
G03*
X3890862Y-7772941I-325000J0D01*
G01*
X2026638Y-8747826D02*
X2602333Y-7687335D01*
X3210273Y-17553636D02*
G75*
G03*
X3510220Y-17847941I299937J5686D01*
G01*
X7655085Y-8747826D02*
X7079390Y-7687335D01*
X6343582Y-2417221D02*
G75*
G03*
X6045159Y-2147941I-298422J-30720D01*
G01*
X3153173Y-14546364D02*
G75*
G03*
X2814892Y-13337273I-2499529J-47454D01*
G01*
X7691310Y-9240060D02*
G75*
G03*
X7688073Y-11496927I3099445J-1132882D01*
G01*
X6866831Y-13337273D02*
X7642652Y-12002861D01*
X2814892Y-13337273D02*
X2039071Y-12002861D01*
X6789665Y-6750605D02*
X6343582Y-2417221D01*
X6866832Y-13337273D02*
G75*
G03*
X6528550Y-14546364I2161263J-1256550D01*
G01*
X6440862Y-7772941D02*
G75*
G03*
X6440862Y-7772941I-325000J0D01*
G01*
X1993652Y-11496927D02*
G75*
G03*
X2039071Y-12002861I564118J-204363D01*
G01*
X2026638Y-8747826D02*
G75*
G03*
X1990414Y-9240059I527310J-286255D01*
G01*
X2892058Y-6750605D02*
X3338142Y-2417221D01*
X2602333Y-7687335D02*
G75*
G03*
X2892058Y-6750605I-2197136J1192731D01*
G01*
X6171504Y-17847941D02*
G75*
G03*
X6471450Y-17553636I-5J300005D01*
G01*
X6471450Y-17553636D02*
X6528550Y-14546364D01*
X1993651Y-11496927D02*
G75*
G03*
X1990414Y-9240059I-3102687J1123987D01*
G01*
X3510220Y-17847941D02*
X6171504Y-17847941D01*
X6789667Y-6750605D02*
G75*
G03*
X7079390Y-7687335I2486853J255995D01*
G01*
X3890862Y-12972941D02*
G75*
G03*
X3890862Y-12972941I-325000J0D01*
G01*
X3210274Y-17553636D02*
X3153174Y-14546364D01*
X6440862Y-12972941D02*
G75*
G03*
X6440862Y-12972941I-325000J0D01*
G01*
X2191569Y-18170464D02*
X2191569Y-17970464D01*
X2191569Y-17970464D02*
X2239188Y-17970464D01*
X2239188Y-17970464D02*
X2267760Y-17979988D01*
X2267760Y-17979988D02*
X2286807Y-17999036D01*
X2286807Y-17999036D02*
X2296331Y-18018083D01*
X2296331Y-18018083D02*
X2305855Y-18056179D01*
X2305855Y-18056179D02*
X2305855Y-18084750D01*
X2305855Y-18084750D02*
X2296331Y-18122845D01*
X2296331Y-18122845D02*
X2286807Y-18141893D01*
X2286807Y-18141893D02*
X2267760Y-18160941D01*
X2267760Y-18160941D02*
X2239188Y-18170464D01*
X2239188Y-18170464D02*
X2191569Y-18170464D01*
X2391569Y-18170464D02*
X2391569Y-18037131D01*
X2391569Y-18075226D02*
X2401093Y-18056179D01*
X2401093Y-18056179D02*
X2410617Y-18046655D01*
X2410617Y-18046655D02*
X2429664Y-18037131D01*
X2429664Y-18037131D02*
X2448712Y-18037131D01*
X2515379Y-18170464D02*
X2515379Y-18037131D01*
X2515379Y-17970464D02*
X2505855Y-17979988D01*
X2505855Y-17979988D02*
X2515379Y-17989512D01*
X2515379Y-17989512D02*
X2524903Y-17979988D01*
X2524903Y-17979988D02*
X2515379Y-17970464D01*
X2515379Y-17970464D02*
X2515379Y-17989512D01*
X2639188Y-18170464D02*
X2620141Y-18160941D01*
X2620141Y-18160941D02*
X2610617Y-18141893D01*
X2610617Y-18141893D02*
X2610617Y-17970464D01*
X2743950Y-18170464D02*
X2724903Y-18160941D01*
X2724903Y-18160941D02*
X2715379Y-18141893D01*
X2715379Y-18141893D02*
X2715379Y-17970464D01*
X2972522Y-18170464D02*
X2972522Y-17970464D01*
X2972522Y-17970464D02*
X3039188Y-18113322D01*
X3039188Y-18113322D02*
X3105855Y-17970464D01*
X3105855Y-17970464D02*
X3105855Y-18170464D01*
X3286807Y-18170464D02*
X3286807Y-18065703D01*
X3286807Y-18065703D02*
X3277283Y-18046655D01*
X3277283Y-18046655D02*
X3258236Y-18037131D01*
X3258236Y-18037131D02*
X3220141Y-18037131D01*
X3220141Y-18037131D02*
X3201093Y-18046655D01*
X3286807Y-18160941D02*
X3267760Y-18170464D01*
X3267760Y-18170464D02*
X3220141Y-18170464D01*
X3220141Y-18170464D02*
X3201093Y-18160941D01*
X3201093Y-18160941D02*
X3191569Y-18141893D01*
X3191569Y-18141893D02*
X3191569Y-18122845D01*
X3191569Y-18122845D02*
X3201093Y-18103798D01*
X3201093Y-18103798D02*
X3220141Y-18094274D01*
X3220141Y-18094274D02*
X3267760Y-18094274D01*
X3267760Y-18094274D02*
X3286807Y-18084750D01*
X3382045Y-18037131D02*
X3382045Y-18237131D01*
X3382045Y-18046655D02*
X3401093Y-18037131D01*
X3401093Y-18037131D02*
X3439188Y-18037131D01*
X3439188Y-18037131D02*
X3458236Y-18046655D01*
X3458236Y-18046655D02*
X3467760Y-18056179D01*
X3467760Y-18056179D02*
X3477283Y-18075226D01*
X3477283Y-18075226D02*
X3477283Y-18132369D01*
X3477283Y-18132369D02*
X3467760Y-18151417D01*
X3467760Y-18151417D02*
X3458236Y-18160941D01*
X3458236Y-18160941D02*
X3439188Y-18170464D01*
X3439188Y-18170464D02*
X3401093Y-18170464D01*
X3401093Y-18170464D02*
X3382045Y-18160941D01*
X3562998Y-18151417D02*
X3572522Y-18160941D01*
X3572522Y-18160941D02*
X3562998Y-18170464D01*
X3562998Y-18170464D02*
X3553474Y-18160941D01*
X3553474Y-18160941D02*
X3562998Y-18151417D01*
X3562998Y-18151417D02*
X3562998Y-18170464D01*
X3562998Y-18046655D02*
X3572522Y-18056179D01*
X3572522Y-18056179D02*
X3562998Y-18065703D01*
X3562998Y-18065703D02*
X3553474Y-18056179D01*
X3553474Y-18056179D02*
X3562998Y-18046655D01*
X3562998Y-18046655D02*
X3562998Y-18065703D01*
M02*
