G04 #@! TF.GenerationSoftware,KiCad,Pcbnew,7.0.2-0*
G04 #@! TF.CreationDate,2023-10-14T11:26:59-07:00*
G04 #@! TF.ProjectId,high-power,68696768-2d70-46f7-9765-722e6b696361,rev?*
G04 #@! TF.SameCoordinates,Original*
G04 #@! TF.FileFunction,Soldermask,Bot*
G04 #@! TF.FilePolarity,Negative*
%FSLAX46Y46*%
G04 Gerber Fmt 4.6, Leading zero omitted, Abs format (unit mm)*
G04 Created by KiCad (PCBNEW 7.0.2-0) date 2023-10-14 11:26:59*
%MOMM*%
%LPD*%
G01*
G04 APERTURE LIST*
G04 Aperture macros list*
%AMRoundRect*
0 Rectangle with rounded corners*
0 $1 Rounding radius*
0 $2 $3 $4 $5 $6 $7 $8 $9 X,Y pos of 4 corners*
0 Add a 4 corners polygon primitive as box body*
4,1,4,$2,$3,$4,$5,$6,$7,$8,$9,$2,$3,0*
0 Add four circle primitives for the rounded corners*
1,1,$1+$1,$2,$3*
1,1,$1+$1,$4,$5*
1,1,$1+$1,$6,$7*
1,1,$1+$1,$8,$9*
0 Add four rect primitives between the rounded corners*
20,1,$1+$1,$2,$3,$4,$5,0*
20,1,$1+$1,$4,$5,$6,$7,0*
20,1,$1+$1,$6,$7,$8,$9,0*
20,1,$1+$1,$8,$9,$2,$3,0*%
G04 Aperture macros list end*
%ADD10C,0.800000*%
%ADD11C,5.000000*%
%ADD12RoundRect,0.100000X0.130000X0.100000X-0.130000X0.100000X-0.130000X-0.100000X0.130000X-0.100000X0*%
%ADD13R,1.600000X1.600000*%
%ADD14C,1.600000*%
%ADD15R,2.800000X2.600000*%
%ADD16C,2.300000*%
%ADD17RoundRect,0.200000X-0.200000X-0.275000X0.200000X-0.275000X0.200000X0.275000X-0.200000X0.275000X0*%
%ADD18RoundRect,0.250000X0.475000X-0.250000X0.475000X0.250000X-0.475000X0.250000X-0.475000X-0.250000X0*%
%ADD19RoundRect,0.250000X0.250000X0.475000X-0.250000X0.475000X-0.250000X-0.475000X0.250000X-0.475000X0*%
%ADD20R,2.600000X2.800000*%
%ADD21RoundRect,0.100000X0.100000X-0.130000X0.100000X0.130000X-0.100000X0.130000X-0.100000X-0.130000X0*%
%ADD22RoundRect,0.250000X-0.250000X-0.475000X0.250000X-0.475000X0.250000X0.475000X-0.250000X0.475000X0*%
%ADD23RoundRect,0.140000X-0.170000X0.140000X-0.170000X-0.140000X0.170000X-0.140000X0.170000X0.140000X0*%
%ADD24RoundRect,0.140000X0.170000X-0.140000X0.170000X0.140000X-0.170000X0.140000X-0.170000X-0.140000X0*%
%ADD25R,3.050000X3.680000*%
%ADD26RoundRect,0.135000X0.135000X0.185000X-0.135000X0.185000X-0.135000X-0.185000X0.135000X-0.185000X0*%
%ADD27RoundRect,0.200000X0.200000X0.275000X-0.200000X0.275000X-0.200000X-0.275000X0.200000X-0.275000X0*%
%ADD28RoundRect,0.100000X-0.100000X0.130000X-0.100000X-0.130000X0.100000X-0.130000X0.100000X0.130000X0*%
%ADD29RoundRect,0.100000X-0.130000X-0.100000X0.130000X-0.100000X0.130000X0.100000X-0.130000X0.100000X0*%
%ADD30C,1.050000*%
%ADD31RoundRect,0.140000X0.140000X0.170000X-0.140000X0.170000X-0.140000X-0.170000X0.140000X-0.170000X0*%
%ADD32RoundRect,0.140000X-0.140000X-0.170000X0.140000X-0.170000X0.140000X0.170000X-0.140000X0.170000X0*%
%ADD33RoundRect,0.250000X0.450000X-0.262500X0.450000X0.262500X-0.450000X0.262500X-0.450000X-0.262500X0*%
%ADD34RoundRect,0.250000X0.362500X1.425000X-0.362500X1.425000X-0.362500X-1.425000X0.362500X-1.425000X0*%
%ADD35RoundRect,0.225000X0.375000X-0.225000X0.375000X0.225000X-0.375000X0.225000X-0.375000X-0.225000X0*%
%ADD36RoundRect,0.200000X0.275000X-0.200000X0.275000X0.200000X-0.275000X0.200000X-0.275000X-0.200000X0*%
%ADD37RoundRect,0.135000X-0.185000X0.135000X-0.185000X-0.135000X0.185000X-0.135000X0.185000X0.135000X0*%
%ADD38C,1.000000*%
%ADD39RoundRect,0.050000X-0.300000X-0.400000X0.300000X-0.400000X0.300000X0.400000X-0.300000X0.400000X0*%
%ADD40RoundRect,0.050000X-2.205000X-1.875000X2.205000X-1.875000X2.205000X1.875000X-2.205000X1.875000X0*%
%ADD41RoundRect,0.050000X-0.250000X-0.550000X0.250000X-0.550000X0.250000X0.550000X-0.250000X0.550000X0*%
%ADD42RoundRect,0.050000X-1.600000X-0.300000X1.600000X-0.300000X1.600000X0.300000X-1.600000X0.300000X0*%
%ADD43RoundRect,0.250000X0.362500X1.075000X-0.362500X1.075000X-0.362500X-1.075000X0.362500X-1.075000X0*%
%ADD44RoundRect,0.250000X-0.475000X0.250000X-0.475000X-0.250000X0.475000X-0.250000X0.475000X0.250000X0*%
%ADD45RoundRect,0.135000X-0.135000X-0.185000X0.135000X-0.185000X0.135000X0.185000X-0.135000X0.185000X0*%
%ADD46RoundRect,0.075000X-0.075000X0.362500X-0.075000X-0.362500X0.075000X-0.362500X0.075000X0.362500X0*%
%ADD47RoundRect,0.075000X-0.362500X0.075000X-0.362500X-0.075000X0.362500X-0.075000X0.362500X0.075000X0*%
%ADD48R,2.450000X2.450000*%
%ADD49RoundRect,0.050000X0.300000X0.400000X-0.300000X0.400000X-0.300000X-0.400000X0.300000X-0.400000X0*%
%ADD50RoundRect,0.050000X2.205000X1.875000X-2.205000X1.875000X-2.205000X-1.875000X2.205000X-1.875000X0*%
%ADD51RoundRect,0.050000X0.250000X0.550000X-0.250000X0.550000X-0.250000X-0.550000X0.250000X-0.550000X0*%
%ADD52RoundRect,0.050000X1.600000X0.300000X-1.600000X0.300000X-1.600000X-0.300000X1.600000X-0.300000X0*%
%ADD53R,0.762000X1.143000*%
%ADD54RoundRect,0.100000X-0.050000X0.250000X-0.050000X-0.250000X0.050000X-0.250000X0.050000X0.250000X0*%
%ADD55RoundRect,0.100000X-0.250000X-0.050000X0.250000X-0.050000X0.250000X0.050000X-0.250000X0.050000X0*%
%ADD56C,0.450000*%
%ADD57RoundRect,0.100000X-1.800000X1.300000X-1.800000X-1.300000X1.800000X-1.300000X1.800000X1.300000X0*%
%ADD58RoundRect,0.250000X0.398566X-1.415336X1.026434X-1.052836X-0.398566X1.415336X-1.026434X1.052836X0*%
%ADD59R,7.200000X3.700000*%
%ADD60RoundRect,0.200000X-0.275000X0.200000X-0.275000X-0.200000X0.275000X-0.200000X0.275000X0.200000X0*%
%ADD61RoundRect,0.147500X-0.147500X-0.172500X0.147500X-0.172500X0.147500X0.172500X-0.147500X0.172500X0*%
%ADD62RoundRect,0.075000X0.075000X-0.362500X0.075000X0.362500X-0.075000X0.362500X-0.075000X-0.362500X0*%
%ADD63RoundRect,0.075000X0.362500X-0.075000X0.362500X0.075000X-0.362500X0.075000X-0.362500X-0.075000X0*%
%ADD64RoundRect,0.250000X0.350000X0.625000X-0.350000X0.625000X-0.350000X-0.625000X0.350000X-0.625000X0*%
%ADD65O,1.200000X1.750000*%
%ADD66RoundRect,0.250000X0.385016X-0.583133X0.697516X-0.041867X-0.385016X0.583133X-0.697516X0.041867X0*%
%ADD67R,1.800000X3.400000*%
%ADD68RoundRect,0.250000X0.625000X-0.350000X0.625000X0.350000X-0.625000X0.350000X-0.625000X-0.350000X0*%
%ADD69O,1.750000X1.200000*%
%ADD70RoundRect,0.100000X0.050000X-0.250000X0.050000X0.250000X-0.050000X0.250000X-0.050000X-0.250000X0*%
%ADD71RoundRect,0.100000X0.250000X0.050000X-0.250000X0.050000X-0.250000X-0.050000X0.250000X-0.050000X0*%
%ADD72RoundRect,0.100000X1.800000X-1.300000X1.800000X1.300000X-1.800000X1.300000X-1.800000X-1.300000X0*%
G04 APERTURE END LIST*
D10*
X36533618Y-58479406D03*
X37082793Y-57153581D03*
X37082793Y-59805231D03*
X38408618Y-56604406D03*
D11*
X38408618Y-58479406D03*
D10*
X38408618Y-60354406D03*
X39734443Y-57153581D03*
X39734443Y-59805231D03*
X40283618Y-58479406D03*
X69964500Y-99185000D03*
X69964500Y-100985000D03*
X69964500Y-102785000D03*
X71764500Y-99185000D03*
X71764500Y-100985000D03*
X71764500Y-102785000D03*
X73564500Y-99185000D03*
X73564500Y-100985000D03*
X73564500Y-102785000D03*
X58440000Y-24150000D03*
X58440000Y-25950000D03*
X58440000Y-27750000D03*
X60240000Y-24150000D03*
X60240000Y-25950000D03*
X60240000Y-27750000D03*
X62040000Y-24150000D03*
X62040000Y-25950000D03*
X62040000Y-27750000D03*
X70574500Y-113615000D03*
X70574500Y-115415000D03*
X70574500Y-117215000D03*
X72374500Y-113615000D03*
X72374500Y-115415000D03*
X72374500Y-117215000D03*
X74174500Y-113615000D03*
X74174500Y-115415000D03*
X74174500Y-117215000D03*
X23180000Y-104470000D03*
X23180000Y-106270000D03*
X23180000Y-108070000D03*
X24980000Y-104470000D03*
X24980000Y-106270000D03*
X24980000Y-108070000D03*
X26780000Y-104470000D03*
X26780000Y-106270000D03*
X26780000Y-108070000D03*
X68784500Y-82675000D03*
X68784500Y-84475000D03*
X68784500Y-86275000D03*
X70584500Y-82675000D03*
X70584500Y-84475000D03*
X70584500Y-86275000D03*
X72384500Y-82675000D03*
X72384500Y-84475000D03*
X72384500Y-86275000D03*
X60520000Y-46450000D03*
X62320000Y-46450000D03*
X64120000Y-42850000D03*
X64120000Y-44650000D03*
X64120000Y-46450000D03*
X21690000Y-89970000D03*
X21690000Y-91770000D03*
X21690000Y-93570000D03*
X23490000Y-89970000D03*
X23490000Y-91770000D03*
X23490000Y-93570000D03*
X25290000Y-89970000D03*
X25290000Y-91770000D03*
X25290000Y-93570000D03*
X56533618Y-38479406D03*
X57082793Y-37153581D03*
X57082793Y-39805231D03*
X58408618Y-36604406D03*
D11*
X58408618Y-38479406D03*
D10*
X58408618Y-40354406D03*
X59734443Y-37153581D03*
X59734443Y-39805231D03*
X60283618Y-38479406D03*
X31740000Y-50680000D03*
X31740000Y-52480000D03*
X31740000Y-54280000D03*
X33540000Y-50680000D03*
X35340000Y-50680000D03*
X33840000Y-32340000D03*
X33840000Y-34140000D03*
X33840000Y-35940000D03*
X35640000Y-32340000D03*
X35640000Y-34140000D03*
X37440000Y-32340000D03*
X37440000Y-34140000D03*
X33570000Y-73150000D03*
X33570000Y-71350000D03*
X33570000Y-69550000D03*
X31770000Y-73150000D03*
X31770000Y-71350000D03*
X31770000Y-69550000D03*
X29970000Y-73150000D03*
X29970000Y-71350000D03*
X29970000Y-69550000D03*
X24002000Y-119990000D03*
X24002000Y-121790000D03*
X24002000Y-123590000D03*
X25802000Y-119990000D03*
X25802000Y-121790000D03*
X25802000Y-123590000D03*
X27602000Y-119990000D03*
X27602000Y-121790000D03*
X27602000Y-123590000D03*
X62480000Y-65250000D03*
X64280000Y-61650000D03*
X64280000Y-63450000D03*
X64280000Y-65250000D03*
X66080000Y-61650000D03*
X66080000Y-63450000D03*
X66080000Y-65250000D03*
X36533618Y-146729406D03*
X37082793Y-145403581D03*
X37082793Y-148055231D03*
X38408618Y-144854406D03*
D11*
X38408618Y-146729406D03*
D10*
X38408618Y-148604406D03*
X39734443Y-145403581D03*
X39734443Y-148055231D03*
X40283618Y-146729406D03*
X56533618Y-146729406D03*
X57082793Y-145403581D03*
X57082793Y-148055231D03*
X58408618Y-144854406D03*
D11*
X58408618Y-146729406D03*
D10*
X58408618Y-148604406D03*
X59734443Y-145403581D03*
X59734443Y-148055231D03*
X60283618Y-146729406D03*
D12*
X47715000Y-120860000D03*
X47075000Y-120860000D03*
D13*
X27770000Y-77197349D03*
D14*
X27770000Y-80697349D03*
D15*
X52390000Y-34960000D03*
X52390000Y-45660000D03*
D16*
X51610000Y-155250000D03*
X51610000Y-157790000D03*
X51610000Y-160330000D03*
X56690000Y-155250000D03*
X56690000Y-157790000D03*
X56690000Y-160330000D03*
D17*
X36045000Y-103530000D03*
X37695000Y-103530000D03*
D18*
X56470000Y-133310000D03*
X56470000Y-131410000D03*
D12*
X37905000Y-43730000D03*
X37265000Y-43730000D03*
D19*
X34480000Y-49276000D03*
X32580000Y-49276000D03*
D20*
X47310000Y-118120000D03*
X36610000Y-118120000D03*
D12*
X59935000Y-108010000D03*
X59295000Y-108010000D03*
D21*
X53960000Y-115290000D03*
X53960000Y-114650000D03*
D22*
X55187500Y-63212500D03*
X57087500Y-63212500D03*
D23*
X46160000Y-101120000D03*
X46160000Y-102080000D03*
D24*
X53200000Y-59010000D03*
X53200000Y-58050000D03*
D25*
X56592500Y-43377500D03*
X60912500Y-43377500D03*
D21*
X42730000Y-123650000D03*
X42730000Y-123010000D03*
D26*
X37630000Y-44610000D03*
X36610000Y-44610000D03*
D27*
X61210000Y-104130000D03*
X59560000Y-104130000D03*
D15*
X44710000Y-50110000D03*
X44710000Y-60810000D03*
D21*
X55550000Y-123830000D03*
X55550000Y-123190000D03*
D28*
X56850000Y-74330000D03*
X56850000Y-74970000D03*
D21*
X56100000Y-74970000D03*
X56100000Y-74330000D03*
D18*
X35340000Y-63000000D03*
X35340000Y-61100000D03*
D29*
X62655000Y-144530000D03*
X63295000Y-144530000D03*
D30*
X47450000Y-75530000D03*
X47450000Y-76800000D03*
X47450000Y-78070000D03*
X47450000Y-79340000D03*
X47450000Y-80610000D03*
X47450000Y-81880000D03*
X47450000Y-83150000D03*
X47450000Y-84420000D03*
X47450000Y-85690000D03*
X47450000Y-86960000D03*
X47450000Y-88230000D03*
X47450000Y-89500000D03*
X47450000Y-90770000D03*
X47450000Y-92040000D03*
X47450000Y-93310000D03*
X47450000Y-94580000D03*
X47450000Y-95850000D03*
X47450000Y-97120000D03*
X48720000Y-75530000D03*
X48720000Y-76800000D03*
X48720000Y-78070000D03*
X48720000Y-79340000D03*
X48720000Y-80610000D03*
X48720000Y-81880000D03*
X48720000Y-83150000D03*
X48720000Y-84420000D03*
X48720000Y-85690000D03*
X48720000Y-86960000D03*
X48720000Y-88230000D03*
X48720000Y-89500000D03*
X48720000Y-90770000D03*
X48720000Y-92040000D03*
X48720000Y-93310000D03*
X48720000Y-94580000D03*
X48720000Y-95850000D03*
X48720000Y-97120000D03*
D31*
X42600000Y-142400000D03*
X41640000Y-142400000D03*
D29*
X57665000Y-109010000D03*
X58305000Y-109010000D03*
D28*
X50590000Y-77325000D03*
X50590000Y-77965000D03*
D15*
X64540000Y-91060000D03*
X64540000Y-101760000D03*
D28*
X54750000Y-74325000D03*
X54750000Y-74965000D03*
D22*
X58220000Y-136060000D03*
X60120000Y-136060000D03*
D19*
X54730000Y-135390000D03*
X52830000Y-135390000D03*
D32*
X51180000Y-103930000D03*
X52140000Y-103930000D03*
D21*
X55540000Y-126750000D03*
X55540000Y-126110000D03*
D22*
X38652500Y-97150000D03*
X40552500Y-97150000D03*
D31*
X45520000Y-104760000D03*
X44560000Y-104760000D03*
D25*
X43987500Y-110782500D03*
X39667500Y-110782500D03*
D23*
X58370000Y-61760000D03*
X58370000Y-62720000D03*
D29*
X59340000Y-81420000D03*
X59980000Y-81420000D03*
D33*
X46710000Y-168982500D03*
X46710000Y-167157500D03*
D34*
X60874500Y-48768000D03*
X54949500Y-48768000D03*
D12*
X63295000Y-143830000D03*
X62655000Y-143830000D03*
D35*
X57080000Y-126810000D03*
X57080000Y-123510000D03*
D15*
X29740000Y-93340000D03*
X29740000Y-104040000D03*
D36*
X34130000Y-42655000D03*
X34130000Y-41005000D03*
D37*
X61800000Y-143900000D03*
X61800000Y-144920000D03*
D31*
X42350000Y-44340000D03*
X41390000Y-44340000D03*
D29*
X53180000Y-113810000D03*
X53820000Y-113810000D03*
D21*
X42720000Y-122230000D03*
X42720000Y-121590000D03*
D38*
X40330000Y-124260000D03*
D21*
X58530000Y-81810000D03*
X58530000Y-81170000D03*
X42731000Y-127430000D03*
X42731000Y-126790000D03*
D39*
X40367499Y-139682498D03*
X41637499Y-139682498D03*
D40*
X42272499Y-137407498D03*
D39*
X42907499Y-139682498D03*
X44177499Y-139682498D03*
D41*
X44177499Y-133982498D03*
X40367499Y-133982498D03*
D42*
X41557499Y-134232498D03*
D41*
X41637499Y-133982498D03*
X42907499Y-133982498D03*
D28*
X61720000Y-55100000D03*
X61720000Y-55740000D03*
D12*
X40670000Y-105200000D03*
X40030000Y-105200000D03*
D43*
X42062500Y-49860000D03*
X37437500Y-49860000D03*
D44*
X64840000Y-53390000D03*
X64840000Y-55290000D03*
X71030000Y-124360000D03*
X71030000Y-126260000D03*
D24*
X42125000Y-98550000D03*
X42125000Y-97590000D03*
D45*
X56630000Y-102040000D03*
X57650000Y-102040000D03*
D19*
X42480000Y-36010000D03*
X40580000Y-36010000D03*
D44*
X71250000Y-109900000D03*
X71250000Y-111800000D03*
D28*
X44480000Y-120180000D03*
X44480000Y-120820000D03*
D46*
X53430000Y-76642500D03*
X53930000Y-76642500D03*
X54430000Y-76642500D03*
X54930000Y-76642500D03*
X55430000Y-76642500D03*
X55930000Y-76642500D03*
D47*
X56617500Y-77330000D03*
X56617500Y-77830000D03*
X56617500Y-78330000D03*
X56617500Y-78830000D03*
X56617500Y-79330000D03*
X56617500Y-79830000D03*
D46*
X55930000Y-80517500D03*
X55430000Y-80517500D03*
X54930000Y-80517500D03*
X54430000Y-80517500D03*
X53930000Y-80517500D03*
X53430000Y-80517500D03*
D47*
X52742500Y-79830000D03*
X52742500Y-79330000D03*
X52742500Y-78830000D03*
X52742500Y-78330000D03*
X52742500Y-77830000D03*
X52742500Y-77330000D03*
D48*
X54680000Y-78580000D03*
D49*
X51210000Y-133885000D03*
X49940000Y-133885000D03*
D50*
X49305000Y-136160000D03*
D49*
X48670000Y-133885000D03*
X47400000Y-133885000D03*
D51*
X47400000Y-139585000D03*
X51210000Y-139585000D03*
D52*
X50020000Y-139335000D03*
D51*
X49940000Y-139585000D03*
X48670000Y-139585000D03*
D12*
X60237500Y-61632500D03*
X59597500Y-61632500D03*
D28*
X41990000Y-123010000D03*
X41990000Y-123650000D03*
D29*
X37182500Y-99967500D03*
X37822500Y-99967500D03*
D53*
X43685000Y-121906500D03*
X44955000Y-121906500D03*
X46225000Y-121906500D03*
X47495000Y-121906500D03*
X47495000Y-127113500D03*
X46225000Y-127113500D03*
X44955000Y-127113500D03*
X43685000Y-127113500D03*
D54*
X36905000Y-38720000D03*
X37305000Y-38720000D03*
X37705000Y-38720000D03*
X38105000Y-38720000D03*
X38505000Y-38720000D03*
X38905000Y-38720000D03*
X39305000Y-38720000D03*
X39705000Y-38720000D03*
X40105000Y-38720000D03*
X40505000Y-38720000D03*
D55*
X41105000Y-39220000D03*
X41105000Y-39620000D03*
X41105000Y-40020000D03*
X41105000Y-40420000D03*
X41105000Y-40820000D03*
X41105000Y-41220000D03*
X41105000Y-41620000D03*
X41105000Y-42020000D03*
D54*
X40505000Y-42520000D03*
X40105000Y-42520000D03*
X39705000Y-42520000D03*
X39305000Y-42520000D03*
X38905000Y-42520000D03*
X38505000Y-42520000D03*
X38105000Y-42520000D03*
X37705000Y-42520000D03*
X37305000Y-42520000D03*
X36905000Y-42520000D03*
D55*
X36305000Y-42020000D03*
X36305000Y-41620000D03*
X36305000Y-41220000D03*
X36305000Y-40820000D03*
X36305000Y-40420000D03*
X36305000Y-40020000D03*
X36305000Y-39620000D03*
X36305000Y-39220000D03*
D56*
X39330000Y-39520000D03*
X38080000Y-39520000D03*
X40305000Y-40620000D03*
X39330000Y-40620000D03*
D57*
X38705000Y-40620000D03*
D56*
X38080000Y-40620000D03*
X37105000Y-40620000D03*
X39330000Y-41720000D03*
X38080000Y-41720000D03*
D25*
X41207500Y-53462500D03*
X36887500Y-53462500D03*
D58*
X48220000Y-54340000D03*
X53351200Y-51377500D03*
D12*
X38485000Y-98630000D03*
X37845000Y-98630000D03*
D59*
X49170000Y-150810000D03*
X49170000Y-142810000D03*
D60*
X62890000Y-55205000D03*
X62890000Y-56855000D03*
D12*
X36620000Y-37820000D03*
X35980000Y-37820000D03*
D24*
X55507500Y-61702500D03*
X55507500Y-60742500D03*
D22*
X35790000Y-36080000D03*
X37690000Y-36080000D03*
D29*
X61047500Y-61632500D03*
X61687500Y-61632500D03*
D12*
X51335000Y-78800000D03*
X50695000Y-78800000D03*
D18*
X57150000Y-112776000D03*
X57150000Y-110876000D03*
D29*
X37450000Y-37520000D03*
X38090000Y-37520000D03*
D61*
X45280000Y-120740000D03*
X46250000Y-120740000D03*
D19*
X54730000Y-133410000D03*
X52830000Y-133410000D03*
D20*
X41640000Y-90290000D03*
X30940000Y-90290000D03*
D19*
X61882500Y-63082500D03*
X59982500Y-63082500D03*
D23*
X45160000Y-98550000D03*
X45160000Y-99510000D03*
D15*
X41300000Y-62790000D03*
X41300000Y-73490000D03*
D23*
X42130000Y-37530000D03*
X42130000Y-38490000D03*
X46050000Y-39480000D03*
X46050000Y-40440000D03*
D15*
X29760000Y-106930000D03*
X29760000Y-117630000D03*
D18*
X37690000Y-25430000D03*
X37690000Y-23530000D03*
D15*
X63850000Y-107090000D03*
X63850000Y-117790000D03*
D24*
X39315000Y-37360000D03*
X39315000Y-36400000D03*
D28*
X53990000Y-74320000D03*
X53990000Y-74960000D03*
D33*
X48720000Y-168982500D03*
X48720000Y-167157500D03*
D62*
X50530000Y-115757500D03*
X50030000Y-115757500D03*
X49530000Y-115757500D03*
X49030000Y-115757500D03*
X48530000Y-115757500D03*
X48030000Y-115757500D03*
D63*
X47342500Y-115070000D03*
X47342500Y-114570000D03*
X47342500Y-114070000D03*
X47342500Y-113570000D03*
X47342500Y-113070000D03*
X47342500Y-112570000D03*
D62*
X48030000Y-111882500D03*
X48530000Y-111882500D03*
X49030000Y-111882500D03*
X49530000Y-111882500D03*
X50030000Y-111882500D03*
X50530000Y-111882500D03*
D63*
X51217500Y-112570000D03*
X51217500Y-113070000D03*
X51217500Y-113570000D03*
X51217500Y-114070000D03*
X51217500Y-114570000D03*
X51217500Y-115070000D03*
D48*
X49280000Y-113820000D03*
D24*
X51870000Y-109570000D03*
X51870000Y-108610000D03*
X52260000Y-55930000D03*
X52260000Y-54970000D03*
D23*
X55030000Y-109630000D03*
X55030000Y-110590000D03*
D28*
X58490000Y-102630000D03*
X58490000Y-103270000D03*
D25*
X56742500Y-96627500D03*
X61062500Y-96627500D03*
D19*
X61770000Y-34750000D03*
X59870000Y-34750000D03*
D64*
X52680000Y-171890000D03*
D65*
X50680000Y-171890000D03*
X48680000Y-171890000D03*
X46680000Y-171890000D03*
X44680000Y-171890000D03*
D66*
X67788750Y-99646562D03*
X69251250Y-97113438D03*
D12*
X43750000Y-120830000D03*
X43110000Y-120830000D03*
D28*
X55530000Y-127510000D03*
X55530000Y-128150000D03*
D29*
X50640000Y-75520000D03*
X51280000Y-75520000D03*
D13*
X69210000Y-76967349D03*
D14*
X69210000Y-80467349D03*
D21*
X57770000Y-82270000D03*
X57770000Y-81630000D03*
X55550000Y-125340000D03*
X55550000Y-124700000D03*
D18*
X25350000Y-97410000D03*
X25350000Y-95510000D03*
D37*
X64145000Y-142750000D03*
X64145000Y-143770000D03*
D29*
X60200000Y-55130000D03*
X60840000Y-55130000D03*
X40272500Y-98600000D03*
X40912500Y-98600000D03*
D20*
X61280000Y-121030000D03*
X50580000Y-121030000D03*
D12*
X56840000Y-109220000D03*
X56200000Y-109220000D03*
D26*
X60630000Y-54140000D03*
X59610000Y-54140000D03*
D67*
X48460000Y-130540000D03*
X42760000Y-130540000D03*
D33*
X50700000Y-168982500D03*
X50700000Y-167157500D03*
D21*
X41990000Y-122225000D03*
X41990000Y-121585000D03*
D14*
X30756122Y-130920064D03*
X29506122Y-128755000D03*
X28256122Y-126589937D03*
D28*
X53150000Y-114650000D03*
X53150000Y-115290000D03*
D68*
X37260000Y-137730000D03*
D69*
X37260000Y-135730000D03*
D44*
X43647500Y-96227500D03*
X43647500Y-98127500D03*
D21*
X35300000Y-43770000D03*
X35300000Y-43130000D03*
D18*
X25430000Y-112820000D03*
X25430000Y-110920000D03*
D33*
X52660000Y-168982500D03*
X52660000Y-167157500D03*
D70*
X57445000Y-108060000D03*
X57045000Y-108060000D03*
X56645000Y-108060000D03*
X56245000Y-108060000D03*
X55845000Y-108060000D03*
X55445000Y-108060000D03*
X55045000Y-108060000D03*
X54645000Y-108060000D03*
X54245000Y-108060000D03*
X53845000Y-108060000D03*
D71*
X53245000Y-107560000D03*
X53245000Y-107160000D03*
X53245000Y-106760000D03*
X53245000Y-106360000D03*
X53245000Y-105960000D03*
X53245000Y-105560000D03*
X53245000Y-105160000D03*
X53245000Y-104760000D03*
D70*
X53845000Y-104260000D03*
X54245000Y-104260000D03*
X54645000Y-104260000D03*
X55045000Y-104260000D03*
X55445000Y-104260000D03*
X55845000Y-104260000D03*
X56245000Y-104260000D03*
X56645000Y-104260000D03*
X57045000Y-104260000D03*
X57445000Y-104260000D03*
D71*
X58045000Y-104760000D03*
X58045000Y-105160000D03*
X58045000Y-105560000D03*
X58045000Y-105960000D03*
X58045000Y-106360000D03*
X58045000Y-106760000D03*
X58045000Y-107160000D03*
X58045000Y-107560000D03*
D56*
X55020000Y-107260000D03*
X56270000Y-107260000D03*
X54045000Y-106160000D03*
X55020000Y-106160000D03*
D72*
X55645000Y-106160000D03*
D56*
X56270000Y-106160000D03*
X57245000Y-106160000D03*
X55020000Y-105060000D03*
X56270000Y-105060000D03*
D15*
X41610000Y-76360000D03*
X41610000Y-87060000D03*
D39*
X50485000Y-129510000D03*
X51755000Y-129510000D03*
D40*
X52390000Y-127235000D03*
D39*
X53025000Y-129510000D03*
X54295000Y-129510000D03*
D41*
X54295000Y-123810000D03*
X50485000Y-123810000D03*
D42*
X51675000Y-124060000D03*
D41*
X51755000Y-123810000D03*
X53025000Y-123810000D03*
D12*
X51520000Y-76270000D03*
X50880000Y-76270000D03*
D28*
X58350000Y-74330000D03*
X58350000Y-74970000D03*
D23*
X64135000Y-144620000D03*
X64135000Y-145580000D03*
D24*
X48850000Y-125540000D03*
X48850000Y-124580000D03*
X50640000Y-107020000D03*
X50640000Y-106060000D03*
D29*
X56390000Y-103020000D03*
X57030000Y-103020000D03*
D28*
X35180000Y-38220000D03*
X35180000Y-38860000D03*
D29*
X38320000Y-104700000D03*
X38960000Y-104700000D03*
D19*
X68990000Y-93600000D03*
X67090000Y-93600000D03*
D28*
X57600000Y-74330000D03*
X57600000Y-74970000D03*
D16*
X40450000Y-155280000D03*
X40450000Y-157820000D03*
X40450000Y-160360000D03*
X45530000Y-155280000D03*
X45530000Y-157820000D03*
X45530000Y-160360000D03*
D21*
X51340000Y-77965000D03*
X51340000Y-77325000D03*
D22*
X58210000Y-134100000D03*
X60110000Y-134100000D03*
D21*
X57010000Y-82500000D03*
X57010000Y-81860000D03*
D70*
X60770000Y-60520000D03*
X60370000Y-60520000D03*
X59970000Y-60520000D03*
X59570000Y-60520000D03*
X59170000Y-60520000D03*
X58770000Y-60520000D03*
X58370000Y-60520000D03*
X57970000Y-60520000D03*
X57570000Y-60520000D03*
X57170000Y-60520000D03*
D71*
X56570000Y-60020000D03*
X56570000Y-59620000D03*
X56570000Y-59220000D03*
X56570000Y-58820000D03*
X56570000Y-58420000D03*
X56570000Y-58020000D03*
X56570000Y-57620000D03*
X56570000Y-57220000D03*
D70*
X57170000Y-56720000D03*
X57570000Y-56720000D03*
X57970000Y-56720000D03*
X58370000Y-56720000D03*
X58770000Y-56720000D03*
X59170000Y-56720000D03*
X59570000Y-56720000D03*
X59970000Y-56720000D03*
X60370000Y-56720000D03*
X60770000Y-56720000D03*
D71*
X61370000Y-57220000D03*
X61370000Y-57620000D03*
X61370000Y-58020000D03*
X61370000Y-58420000D03*
X61370000Y-58820000D03*
X61370000Y-59220000D03*
X61370000Y-59620000D03*
X61370000Y-60020000D03*
D56*
X58345000Y-59720000D03*
X59595000Y-59720000D03*
X57370000Y-58620000D03*
X58345000Y-58620000D03*
D72*
X58970000Y-58620000D03*
D56*
X59595000Y-58620000D03*
X60570000Y-58620000D03*
X58345000Y-57520000D03*
X59595000Y-57520000D03*
D18*
X53470000Y-111750000D03*
X53470000Y-109850000D03*
D54*
X39675000Y-99920000D03*
X40075000Y-99920000D03*
X40475000Y-99920000D03*
X40875000Y-99920000D03*
X41275000Y-99920000D03*
X41675000Y-99920000D03*
X42075000Y-99920000D03*
X42475000Y-99920000D03*
X42875000Y-99920000D03*
X43275000Y-99920000D03*
D55*
X43875000Y-100420000D03*
X43875000Y-100820000D03*
X43875000Y-101220000D03*
X43875000Y-101620000D03*
X43875000Y-102020000D03*
X43875000Y-102420000D03*
X43875000Y-102820000D03*
X43875000Y-103220000D03*
D54*
X43275000Y-103720000D03*
X42875000Y-103720000D03*
X42475000Y-103720000D03*
X42075000Y-103720000D03*
X41675000Y-103720000D03*
X41275000Y-103720000D03*
X40875000Y-103720000D03*
X40475000Y-103720000D03*
X40075000Y-103720000D03*
X39675000Y-103720000D03*
D55*
X39075000Y-103220000D03*
X39075000Y-102820000D03*
X39075000Y-102420000D03*
X39075000Y-102020000D03*
X39075000Y-101620000D03*
X39075000Y-101220000D03*
X39075000Y-100820000D03*
X39075000Y-100420000D03*
D56*
X42100000Y-100720000D03*
X40850000Y-100720000D03*
X43075000Y-101820000D03*
X42100000Y-101820000D03*
D57*
X41475000Y-101820000D03*
D56*
X40850000Y-101820000D03*
X39875000Y-101820000D03*
X42100000Y-102920000D03*
X40850000Y-102920000D03*
D21*
X62370000Y-60800000D03*
X62370000Y-60160000D03*
D26*
X39160000Y-105870000D03*
X38140000Y-105870000D03*
M02*
