G04 #@! TF.GenerationSoftware,KiCad,Pcbnew,7.0.2-0*
G04 #@! TF.CreationDate,2023-10-14T11:26:59-07:00*
G04 #@! TF.ProjectId,high-power,68696768-2d70-46f7-9765-722e6b696361,rev?*
G04 #@! TF.SameCoordinates,Original*
G04 #@! TF.FileFunction,Legend,Bot*
G04 #@! TF.FilePolarity,Positive*
%FSLAX46Y46*%
G04 Gerber Fmt 4.6, Leading zero omitted, Abs format (unit mm)*
G04 Created by KiCad (PCBNEW 7.0.2-0) date 2023-10-14 11:26:59*
%MOMM*%
%LPD*%
G01*
G04 APERTURE LIST*
G04 Aperture macros list*
%AMRoundRect*
0 Rectangle with rounded corners*
0 $1 Rounding radius*
0 $2 $3 $4 $5 $6 $7 $8 $9 X,Y pos of 4 corners*
0 Add a 4 corners polygon primitive as box body*
4,1,4,$2,$3,$4,$5,$6,$7,$8,$9,$2,$3,0*
0 Add four circle primitives for the rounded corners*
1,1,$1+$1,$2,$3*
1,1,$1+$1,$4,$5*
1,1,$1+$1,$6,$7*
1,1,$1+$1,$8,$9*
0 Add four rect primitives between the rounded corners*
20,1,$1+$1,$2,$3,$4,$5,0*
20,1,$1+$1,$4,$5,$6,$7,0*
20,1,$1+$1,$6,$7,$8,$9,0*
20,1,$1+$1,$8,$9,$2,$3,0*%
G04 Aperture macros list end*
%ADD10C,0.153000*%
%ADD11C,0.300000*%
%ADD12C,0.120000*%
%ADD13C,0.100000*%
%ADD14C,0.800000*%
%ADD15C,5.000000*%
%ADD16RoundRect,0.100000X0.130000X0.100000X-0.130000X0.100000X-0.130000X-0.100000X0.130000X-0.100000X0*%
%ADD17R,1.600000X1.600000*%
%ADD18C,1.600000*%
%ADD19R,2.800000X2.600000*%
%ADD20C,2.300000*%
%ADD21RoundRect,0.200000X-0.200000X-0.275000X0.200000X-0.275000X0.200000X0.275000X-0.200000X0.275000X0*%
%ADD22RoundRect,0.250000X0.475000X-0.250000X0.475000X0.250000X-0.475000X0.250000X-0.475000X-0.250000X0*%
%ADD23RoundRect,0.250000X0.250000X0.475000X-0.250000X0.475000X-0.250000X-0.475000X0.250000X-0.475000X0*%
%ADD24R,2.600000X2.800000*%
%ADD25RoundRect,0.100000X0.100000X-0.130000X0.100000X0.130000X-0.100000X0.130000X-0.100000X-0.130000X0*%
%ADD26RoundRect,0.250000X-0.250000X-0.475000X0.250000X-0.475000X0.250000X0.475000X-0.250000X0.475000X0*%
%ADD27RoundRect,0.140000X-0.170000X0.140000X-0.170000X-0.140000X0.170000X-0.140000X0.170000X0.140000X0*%
%ADD28RoundRect,0.140000X0.170000X-0.140000X0.170000X0.140000X-0.170000X0.140000X-0.170000X-0.140000X0*%
%ADD29R,3.050000X3.680000*%
%ADD30RoundRect,0.135000X0.135000X0.185000X-0.135000X0.185000X-0.135000X-0.185000X0.135000X-0.185000X0*%
%ADD31RoundRect,0.200000X0.200000X0.275000X-0.200000X0.275000X-0.200000X-0.275000X0.200000X-0.275000X0*%
%ADD32RoundRect,0.100000X-0.100000X0.130000X-0.100000X-0.130000X0.100000X-0.130000X0.100000X0.130000X0*%
%ADD33RoundRect,0.100000X-0.130000X-0.100000X0.130000X-0.100000X0.130000X0.100000X-0.130000X0.100000X0*%
%ADD34C,1.050000*%
%ADD35RoundRect,0.140000X0.140000X0.170000X-0.140000X0.170000X-0.140000X-0.170000X0.140000X-0.170000X0*%
%ADD36RoundRect,0.140000X-0.140000X-0.170000X0.140000X-0.170000X0.140000X0.170000X-0.140000X0.170000X0*%
%ADD37RoundRect,0.250000X0.450000X-0.262500X0.450000X0.262500X-0.450000X0.262500X-0.450000X-0.262500X0*%
%ADD38RoundRect,0.250000X0.362500X1.425000X-0.362500X1.425000X-0.362500X-1.425000X0.362500X-1.425000X0*%
%ADD39RoundRect,0.225000X0.375000X-0.225000X0.375000X0.225000X-0.375000X0.225000X-0.375000X-0.225000X0*%
%ADD40RoundRect,0.200000X0.275000X-0.200000X0.275000X0.200000X-0.275000X0.200000X-0.275000X-0.200000X0*%
%ADD41RoundRect,0.135000X-0.185000X0.135000X-0.185000X-0.135000X0.185000X-0.135000X0.185000X0.135000X0*%
%ADD42C,1.000000*%
%ADD43RoundRect,0.050000X-0.300000X-0.400000X0.300000X-0.400000X0.300000X0.400000X-0.300000X0.400000X0*%
%ADD44RoundRect,0.050000X-2.205000X-1.875000X2.205000X-1.875000X2.205000X1.875000X-2.205000X1.875000X0*%
%ADD45RoundRect,0.050000X-0.250000X-0.550000X0.250000X-0.550000X0.250000X0.550000X-0.250000X0.550000X0*%
%ADD46RoundRect,0.050000X-1.600000X-0.300000X1.600000X-0.300000X1.600000X0.300000X-1.600000X0.300000X0*%
%ADD47RoundRect,0.250000X0.362500X1.075000X-0.362500X1.075000X-0.362500X-1.075000X0.362500X-1.075000X0*%
%ADD48RoundRect,0.250000X-0.475000X0.250000X-0.475000X-0.250000X0.475000X-0.250000X0.475000X0.250000X0*%
%ADD49RoundRect,0.135000X-0.135000X-0.185000X0.135000X-0.185000X0.135000X0.185000X-0.135000X0.185000X0*%
%ADD50RoundRect,0.075000X-0.075000X0.362500X-0.075000X-0.362500X0.075000X-0.362500X0.075000X0.362500X0*%
%ADD51RoundRect,0.075000X-0.362500X0.075000X-0.362500X-0.075000X0.362500X-0.075000X0.362500X0.075000X0*%
%ADD52R,2.450000X2.450000*%
%ADD53RoundRect,0.050000X0.300000X0.400000X-0.300000X0.400000X-0.300000X-0.400000X0.300000X-0.400000X0*%
%ADD54RoundRect,0.050000X2.205000X1.875000X-2.205000X1.875000X-2.205000X-1.875000X2.205000X-1.875000X0*%
%ADD55RoundRect,0.050000X0.250000X0.550000X-0.250000X0.550000X-0.250000X-0.550000X0.250000X-0.550000X0*%
%ADD56RoundRect,0.050000X1.600000X0.300000X-1.600000X0.300000X-1.600000X-0.300000X1.600000X-0.300000X0*%
%ADD57R,0.762000X1.143000*%
%ADD58RoundRect,0.100000X-0.050000X0.250000X-0.050000X-0.250000X0.050000X-0.250000X0.050000X0.250000X0*%
%ADD59RoundRect,0.100000X-0.250000X-0.050000X0.250000X-0.050000X0.250000X0.050000X-0.250000X0.050000X0*%
%ADD60C,0.450000*%
%ADD61RoundRect,0.100000X-1.800000X1.300000X-1.800000X-1.300000X1.800000X-1.300000X1.800000X1.300000X0*%
%ADD62RoundRect,0.250000X0.398566X-1.415336X1.026434X-1.052836X-0.398566X1.415336X-1.026434X1.052836X0*%
%ADD63R,7.200000X3.700000*%
%ADD64RoundRect,0.200000X-0.275000X0.200000X-0.275000X-0.200000X0.275000X-0.200000X0.275000X0.200000X0*%
%ADD65RoundRect,0.147500X-0.147500X-0.172500X0.147500X-0.172500X0.147500X0.172500X-0.147500X0.172500X0*%
%ADD66RoundRect,0.075000X0.075000X-0.362500X0.075000X0.362500X-0.075000X0.362500X-0.075000X-0.362500X0*%
%ADD67RoundRect,0.075000X0.362500X-0.075000X0.362500X0.075000X-0.362500X0.075000X-0.362500X-0.075000X0*%
%ADD68RoundRect,0.250000X0.350000X0.625000X-0.350000X0.625000X-0.350000X-0.625000X0.350000X-0.625000X0*%
%ADD69O,1.200000X1.750000*%
%ADD70RoundRect,0.250000X0.385016X-0.583133X0.697516X-0.041867X-0.385016X0.583133X-0.697516X0.041867X0*%
%ADD71R,1.800000X3.400000*%
%ADD72RoundRect,0.250000X0.625000X-0.350000X0.625000X0.350000X-0.625000X0.350000X-0.625000X-0.350000X0*%
%ADD73O,1.750000X1.200000*%
%ADD74RoundRect,0.100000X0.050000X-0.250000X0.050000X0.250000X-0.050000X0.250000X-0.050000X-0.250000X0*%
%ADD75RoundRect,0.100000X0.250000X0.050000X-0.250000X0.050000X-0.250000X-0.050000X0.250000X-0.050000X0*%
%ADD76RoundRect,0.100000X1.800000X-1.300000X1.800000X1.300000X-1.800000X1.300000X-1.800000X-1.300000X0*%
G04 APERTURE END LIST*
D10*
G36*
X39721783Y-29960341D02*
G01*
X39711267Y-29972569D01*
X39699870Y-29983972D01*
X39687591Y-29994551D01*
X39674430Y-30004305D01*
X39660388Y-30013235D01*
X39645465Y-30021341D01*
X39629660Y-30028623D01*
X39612973Y-30035080D01*
X39595960Y-30040747D01*
X39579176Y-30045659D01*
X39562621Y-30049814D01*
X39546295Y-30053215D01*
X39530197Y-30055859D01*
X39514329Y-30057749D01*
X39498690Y-30058882D01*
X39483280Y-30059260D01*
X39467467Y-30058857D01*
X39451443Y-30057647D01*
X39435210Y-30055631D01*
X39418765Y-30052808D01*
X39409274Y-30050833D01*
X39392940Y-30046691D01*
X39376957Y-30041637D01*
X39361324Y-30035672D01*
X39346042Y-30028794D01*
X39337467Y-30024455D01*
X39323317Y-30016040D01*
X39310359Y-30006503D01*
X39298593Y-29995844D01*
X39288019Y-29984064D01*
X39282512Y-29976828D01*
X39274375Y-29963391D01*
X39268237Y-29948728D01*
X39264097Y-29932837D01*
X39262139Y-29918240D01*
X39261630Y-29905387D01*
X39262419Y-29888940D01*
X39264789Y-29873490D01*
X39268739Y-29859036D01*
X39275898Y-29842369D01*
X39285526Y-29827258D01*
X39297623Y-29813704D01*
X39309077Y-29803981D01*
X39312188Y-29801706D01*
X39325325Y-29792896D01*
X39339276Y-29784418D01*
X39354039Y-29776272D01*
X39369615Y-29768458D01*
X39386004Y-29760976D01*
X39403206Y-29753826D01*
X39421221Y-29747009D01*
X39435266Y-29742113D01*
X39440049Y-29740523D01*
X39454578Y-29735783D01*
X39469312Y-29731043D01*
X39484253Y-29726303D01*
X39499400Y-29721564D01*
X39514753Y-29716824D01*
X39530312Y-29712084D01*
X39546077Y-29707344D01*
X39562048Y-29702604D01*
X39578225Y-29697864D01*
X39594609Y-29693125D01*
X39605646Y-29689965D01*
X39622166Y-29685038D01*
X39638481Y-29679738D01*
X39654590Y-29674064D01*
X39670492Y-29668017D01*
X39686188Y-29661596D01*
X39701679Y-29654802D01*
X39716963Y-29647635D01*
X39732041Y-29640093D01*
X39746913Y-29632179D01*
X39761579Y-29623890D01*
X39771242Y-29618157D01*
X39785436Y-29609156D01*
X39799166Y-29599601D01*
X39812432Y-29589493D01*
X39825235Y-29578830D01*
X39837574Y-29567614D01*
X39849450Y-29555844D01*
X39860861Y-29543520D01*
X39871809Y-29530642D01*
X39882294Y-29517210D01*
X39892314Y-29503225D01*
X39898737Y-29493593D01*
X39907838Y-29478498D01*
X39916043Y-29462475D01*
X39923354Y-29445525D01*
X39929769Y-29427648D01*
X39935289Y-29408843D01*
X39939914Y-29389111D01*
X39943644Y-29368451D01*
X39946479Y-29346864D01*
X39947871Y-29331958D01*
X39948866Y-29316639D01*
X39949463Y-29300909D01*
X39949662Y-29284766D01*
X39949480Y-29269318D01*
X39948935Y-29254117D01*
X39948026Y-29239162D01*
X39946754Y-29224453D01*
X39944164Y-29202851D01*
X39940756Y-29181803D01*
X39936530Y-29161309D01*
X39931487Y-29141368D01*
X39925625Y-29121982D01*
X39918946Y-29103149D01*
X39911448Y-29084870D01*
X39903133Y-29067145D01*
X39894123Y-29050043D01*
X39884539Y-29033494D01*
X39874382Y-29017499D01*
X39863652Y-29002058D01*
X39852349Y-28987171D01*
X39840472Y-28972838D01*
X39828023Y-28959059D01*
X39815000Y-28945833D01*
X39801404Y-28933161D01*
X39787235Y-28921043D01*
X39777470Y-28913272D01*
X39762410Y-28902081D01*
X39746906Y-28891449D01*
X39730958Y-28881378D01*
X39714565Y-28871867D01*
X39697727Y-28862917D01*
X39680445Y-28854527D01*
X39662719Y-28846697D01*
X39644549Y-28839427D01*
X39625934Y-28832718D01*
X39606875Y-28826569D01*
X39593922Y-28822780D01*
X39574241Y-28817477D01*
X39554355Y-28812695D01*
X39534262Y-28808435D01*
X39513963Y-28804697D01*
X39493458Y-28801480D01*
X39472747Y-28798785D01*
X39451830Y-28796611D01*
X39430707Y-28794960D01*
X39409377Y-28793829D01*
X39387842Y-28793221D01*
X39373371Y-28793105D01*
X39355271Y-28793279D01*
X39337335Y-28793803D01*
X39319562Y-28794676D01*
X39301952Y-28795898D01*
X39284506Y-28797470D01*
X39267222Y-28799390D01*
X39250102Y-28801660D01*
X39233145Y-28804279D01*
X39216351Y-28807247D01*
X39199720Y-28810564D01*
X39183252Y-28814231D01*
X39166947Y-28818247D01*
X39150806Y-28822612D01*
X39134827Y-28827326D01*
X39119012Y-28832389D01*
X39103360Y-28837801D01*
X39087856Y-28843557D01*
X39072483Y-28849742D01*
X39057241Y-28856357D01*
X39042132Y-28863401D01*
X39027154Y-28870874D01*
X39012307Y-28878777D01*
X38997593Y-28887109D01*
X38983009Y-28895870D01*
X38968558Y-28905061D01*
X38954238Y-28914681D01*
X38940050Y-28924730D01*
X38925994Y-28935208D01*
X38912069Y-28946116D01*
X38898276Y-28957454D01*
X38884615Y-28969220D01*
X38871085Y-28981416D01*
X39105558Y-29239337D01*
X39115270Y-29226899D01*
X39125445Y-29215002D01*
X39136084Y-29203646D01*
X39147186Y-29192831D01*
X39158753Y-29182557D01*
X39170783Y-29172824D01*
X39183276Y-29163632D01*
X39196233Y-29154981D01*
X39209654Y-29146871D01*
X39223539Y-29139302D01*
X39233053Y-29134556D01*
X39247589Y-29128009D01*
X39262209Y-29122106D01*
X39276913Y-29116846D01*
X39291700Y-29112231D01*
X39306571Y-29108260D01*
X39321526Y-29104932D01*
X39336564Y-29102249D01*
X39351686Y-29100210D01*
X39366892Y-29098814D01*
X39382182Y-29098063D01*
X39392422Y-29097920D01*
X39407560Y-29098255D01*
X39422750Y-29099259D01*
X39437991Y-29100934D01*
X39453284Y-29103278D01*
X39468628Y-29106292D01*
X39473754Y-29107445D01*
X39488845Y-29111352D01*
X39503344Y-29115929D01*
X39517250Y-29121175D01*
X39532725Y-29128143D01*
X39547394Y-29136022D01*
X39561188Y-29144847D01*
X39573720Y-29154655D01*
X39584990Y-29165444D01*
X39594998Y-29177215D01*
X39600150Y-29184382D01*
X39608002Y-29197856D01*
X39613925Y-29212311D01*
X39617919Y-29227749D01*
X39619985Y-29244168D01*
X39620300Y-29253991D01*
X39619493Y-29270483D01*
X39617072Y-29286071D01*
X39613036Y-29300754D01*
X39607386Y-29314533D01*
X39600121Y-29327407D01*
X39591243Y-29339377D01*
X39580750Y-29350442D01*
X39568643Y-29360603D01*
X39555316Y-29370214D01*
X39541165Y-29379448D01*
X39526190Y-29388304D01*
X39510391Y-29396782D01*
X39493767Y-29404882D01*
X39476319Y-29412604D01*
X39462692Y-29418148D01*
X39448601Y-29423479D01*
X39438950Y-29426915D01*
X39424205Y-29432067D01*
X39409236Y-29437219D01*
X39394041Y-29442371D01*
X39378620Y-29447523D01*
X39362974Y-29452675D01*
X39347103Y-29457827D01*
X39331006Y-29462979D01*
X39314684Y-29468131D01*
X39298136Y-29473283D01*
X39281363Y-29478435D01*
X39270056Y-29481870D01*
X39253133Y-29487189D01*
X39236435Y-29492843D01*
X39219962Y-29498833D01*
X39203715Y-29505157D01*
X39187694Y-29511816D01*
X39171897Y-29518810D01*
X39156327Y-29526138D01*
X39140981Y-29533802D01*
X39125861Y-29541800D01*
X39110967Y-29550134D01*
X39101162Y-29555875D01*
X39086762Y-29564857D01*
X39072826Y-29574354D01*
X39059354Y-29584366D01*
X39046345Y-29594893D01*
X39033800Y-29605936D01*
X39021718Y-29617493D01*
X39010100Y-29629566D01*
X38998946Y-29642154D01*
X38988256Y-29655257D01*
X38978029Y-29668876D01*
X38971469Y-29678241D01*
X38962237Y-29692889D01*
X38953914Y-29708393D01*
X38946498Y-29724754D01*
X38939990Y-29741971D01*
X38934391Y-29760045D01*
X38929699Y-29778975D01*
X38925916Y-29798762D01*
X38923040Y-29819406D01*
X38921073Y-29840906D01*
X38920266Y-29855715D01*
X38919862Y-29870905D01*
X38919812Y-29878642D01*
X38919996Y-29893592D01*
X38920550Y-29908306D01*
X38922073Y-29929938D01*
X38924427Y-29951042D01*
X38927612Y-29971618D01*
X38931627Y-29991666D01*
X38936473Y-30011185D01*
X38942150Y-30030177D01*
X38948657Y-30048640D01*
X38955996Y-30066576D01*
X38964165Y-30083983D01*
X38967073Y-30089668D01*
X38976280Y-30106443D01*
X38986041Y-30122697D01*
X38996355Y-30138428D01*
X39007224Y-30153639D01*
X39018646Y-30168327D01*
X39030623Y-30182494D01*
X39043153Y-30196139D01*
X39056237Y-30209263D01*
X39069874Y-30221865D01*
X39084066Y-30233945D01*
X39093835Y-30241709D01*
X39108885Y-30252911D01*
X39124360Y-30263571D01*
X39140261Y-30273690D01*
X39156586Y-30283269D01*
X39173336Y-30292306D01*
X39190512Y-30300803D01*
X39208112Y-30308758D01*
X39226138Y-30316173D01*
X39244589Y-30323046D01*
X39263464Y-30329379D01*
X39276284Y-30333300D01*
X39295776Y-30338800D01*
X39315371Y-30343759D01*
X39335068Y-30348177D01*
X39354869Y-30352054D01*
X39374773Y-30355389D01*
X39394780Y-30358184D01*
X39414890Y-30360438D01*
X39435103Y-30362151D01*
X39455419Y-30363324D01*
X39475838Y-30363955D01*
X39489508Y-30364075D01*
X39505319Y-30363935D01*
X39521061Y-30363514D01*
X39536735Y-30362813D01*
X39552340Y-30361831D01*
X39567876Y-30360569D01*
X39583343Y-30359026D01*
X39598742Y-30357203D01*
X39614072Y-30355099D01*
X39629333Y-30352715D01*
X39644526Y-30350050D01*
X39659650Y-30347105D01*
X39674705Y-30343879D01*
X39689692Y-30340373D01*
X39704610Y-30336586D01*
X39719459Y-30332519D01*
X39734239Y-30328171D01*
X39748940Y-30323491D01*
X39763457Y-30318428D01*
X39777791Y-30312981D01*
X39791942Y-30307151D01*
X39805909Y-30300937D01*
X39819694Y-30294340D01*
X39833295Y-30287359D01*
X39846713Y-30279994D01*
X39859948Y-30272246D01*
X39873000Y-30264115D01*
X39885868Y-30255600D01*
X39898554Y-30246701D01*
X39911056Y-30237419D01*
X39923375Y-30227753D01*
X39935511Y-30217704D01*
X39947463Y-30207271D01*
X39721783Y-29960341D01*
G37*
G36*
X40516794Y-29426182D02*
G01*
X40679459Y-29426182D01*
X40991602Y-28840000D01*
X41386176Y-28840000D01*
X41006623Y-29460254D01*
X41026109Y-29464333D01*
X41044999Y-29469058D01*
X41063295Y-29474431D01*
X41080994Y-29480450D01*
X41098099Y-29487116D01*
X41114608Y-29494429D01*
X41130522Y-29502389D01*
X41145841Y-29510996D01*
X41160564Y-29520249D01*
X41174692Y-29530150D01*
X41188225Y-29540697D01*
X41201162Y-29551891D01*
X41213504Y-29563732D01*
X41225250Y-29576220D01*
X41236402Y-29589355D01*
X41246958Y-29603136D01*
X41256939Y-29617476D01*
X41266277Y-29632194D01*
X41274971Y-29647289D01*
X41283021Y-29662762D01*
X41290427Y-29678613D01*
X41297189Y-29694842D01*
X41303307Y-29711448D01*
X41308781Y-29728433D01*
X41313611Y-29745795D01*
X41317797Y-29763535D01*
X41321339Y-29781653D01*
X41324237Y-29800149D01*
X41326491Y-29819022D01*
X41328101Y-29838273D01*
X41329067Y-29857903D01*
X41329389Y-29877909D01*
X41329345Y-29886201D01*
X41328990Y-29902527D01*
X41328280Y-29918510D01*
X41327216Y-29934149D01*
X41325796Y-29949445D01*
X41324021Y-29964397D01*
X41320694Y-29986182D01*
X41316568Y-30007193D01*
X41311644Y-30027432D01*
X41305921Y-30046898D01*
X41299399Y-30065591D01*
X41292079Y-30083511D01*
X41283960Y-30100659D01*
X41278159Y-30111690D01*
X41268994Y-30127700D01*
X41259277Y-30143066D01*
X41249005Y-30157787D01*
X41238179Y-30171865D01*
X41226800Y-30185299D01*
X41214866Y-30198089D01*
X41202379Y-30210235D01*
X41189338Y-30221737D01*
X41175743Y-30232594D01*
X41161595Y-30242808D01*
X41151877Y-30249284D01*
X41136926Y-30258552D01*
X41121524Y-30267286D01*
X41105670Y-30275485D01*
X41089366Y-30283150D01*
X41072612Y-30290280D01*
X41055406Y-30296876D01*
X41037750Y-30302937D01*
X41019643Y-30308463D01*
X41001085Y-30313455D01*
X40982076Y-30317913D01*
X40969253Y-30320664D01*
X40949848Y-30324457D01*
X40930236Y-30327851D01*
X40910418Y-30330845D01*
X40890393Y-30333441D01*
X40870163Y-30335637D01*
X40849727Y-30337433D01*
X40829085Y-30338831D01*
X40808236Y-30339829D01*
X40787182Y-30340428D01*
X40765921Y-30340628D01*
X40187798Y-30340628D01*
X40187798Y-29707550D01*
X40516794Y-29707550D01*
X40516794Y-30059260D01*
X40732216Y-30059260D01*
X40737764Y-30059234D01*
X40754495Y-30058848D01*
X40771355Y-30057998D01*
X40788344Y-30056684D01*
X40805461Y-30054906D01*
X40822708Y-30052665D01*
X40828482Y-30051794D01*
X40845308Y-30048612D01*
X40861386Y-30044581D01*
X40876718Y-30039699D01*
X40891302Y-30033968D01*
X40905140Y-30027386D01*
X40909578Y-30025030D01*
X40922290Y-30017174D01*
X40934101Y-30008132D01*
X40945010Y-29997905D01*
X40955018Y-29986494D01*
X40964124Y-29973897D01*
X40972093Y-29959995D01*
X40978412Y-29944393D01*
X40982420Y-29930093D01*
X40985282Y-29914612D01*
X40986999Y-29897950D01*
X40987572Y-29880108D01*
X40987546Y-29876174D01*
X40986928Y-29860990D01*
X40984996Y-29843249D01*
X40981776Y-29826886D01*
X40977268Y-29811901D01*
X40970158Y-29795737D01*
X40961193Y-29781556D01*
X40957842Y-29777277D01*
X40947134Y-29765298D01*
X40935448Y-29754608D01*
X40922782Y-29745205D01*
X40909138Y-29737091D01*
X40894515Y-29730265D01*
X40884377Y-29726435D01*
X40868591Y-29721442D01*
X40852108Y-29717350D01*
X40834931Y-29714160D01*
X40820085Y-29712191D01*
X40804756Y-29710847D01*
X40792471Y-29710075D01*
X40777341Y-29709253D01*
X40762461Y-29708593D01*
X40744935Y-29708014D01*
X40727771Y-29707666D01*
X40710967Y-29707550D01*
X40516794Y-29707550D01*
X40187798Y-29707550D01*
X40187798Y-28840000D01*
X40516794Y-28840000D01*
X40516794Y-29426182D01*
G37*
G36*
X42171984Y-28840081D02*
G01*
X42190615Y-28840509D01*
X42209259Y-28841305D01*
X42227916Y-28842467D01*
X42246585Y-28843997D01*
X42265268Y-28845893D01*
X42283963Y-28848157D01*
X42302671Y-28850788D01*
X42321392Y-28853785D01*
X42340126Y-28857150D01*
X42358873Y-28860882D01*
X42371342Y-28863599D01*
X42389751Y-28868070D01*
X42407806Y-28873018D01*
X42425506Y-28878443D01*
X42442852Y-28884344D01*
X42459844Y-28890722D01*
X42476482Y-28897576D01*
X42492765Y-28904907D01*
X42508695Y-28912714D01*
X42524270Y-28920998D01*
X42539491Y-28929759D01*
X42549404Y-28935921D01*
X42563839Y-28945605D01*
X42577753Y-28955816D01*
X42591145Y-28966556D01*
X42604015Y-28977824D01*
X42616364Y-28989620D01*
X42628191Y-29001944D01*
X42639496Y-29014796D01*
X42650280Y-29028176D01*
X42660542Y-29042084D01*
X42670283Y-29056521D01*
X42676405Y-29066471D01*
X42684848Y-29081961D01*
X42692402Y-29098126D01*
X42699067Y-29114968D01*
X42704844Y-29132486D01*
X42709732Y-29150680D01*
X42713731Y-29169550D01*
X42716842Y-29189096D01*
X42719064Y-29209319D01*
X42720397Y-29230218D01*
X42720841Y-29251793D01*
X42720475Y-29269516D01*
X42719376Y-29286964D01*
X42717544Y-29304137D01*
X42714979Y-29321036D01*
X42711682Y-29337660D01*
X42707652Y-29354009D01*
X42702889Y-29370083D01*
X42697394Y-29385882D01*
X42691309Y-29401298D01*
X42684594Y-29416222D01*
X42677249Y-29430653D01*
X42669275Y-29444592D01*
X42660671Y-29458039D01*
X42651438Y-29470993D01*
X42641575Y-29483455D01*
X42631082Y-29495425D01*
X42620011Y-29506971D01*
X42608413Y-29517979D01*
X42596289Y-29528449D01*
X42583638Y-29538381D01*
X42570460Y-29547775D01*
X42556756Y-29556631D01*
X42542525Y-29564949D01*
X42527767Y-29572728D01*
X42512529Y-29580021D01*
X42496855Y-29586696D01*
X42480746Y-29592752D01*
X42464203Y-29598190D01*
X42447224Y-29603010D01*
X42429810Y-29607212D01*
X42411962Y-29610796D01*
X42393678Y-29613761D01*
X42393678Y-29618157D01*
X42400892Y-29620494D01*
X42415054Y-29625448D01*
X42428862Y-29630778D01*
X42448907Y-29639475D01*
X42468154Y-29649016D01*
X42486603Y-29659400D01*
X42504252Y-29670629D01*
X42521104Y-29682700D01*
X42537157Y-29695616D01*
X42552411Y-29709375D01*
X42566866Y-29723977D01*
X42580523Y-29739424D01*
X42584874Y-29744779D01*
X42597096Y-29761360D01*
X42608075Y-29778713D01*
X42617811Y-29796840D01*
X42626304Y-29815739D01*
X42633555Y-29835411D01*
X42639562Y-29855856D01*
X42644327Y-29877074D01*
X42646812Y-29891648D01*
X42648746Y-29906566D01*
X42650127Y-29921827D01*
X42650956Y-29937432D01*
X42651232Y-29953381D01*
X42651184Y-29961140D01*
X42650803Y-29976367D01*
X42650042Y-29991205D01*
X42648186Y-30012732D01*
X42645474Y-30033382D01*
X42641905Y-30053158D01*
X42637480Y-30072057D01*
X42632198Y-30090080D01*
X42626060Y-30107228D01*
X42619065Y-30123499D01*
X42611213Y-30138895D01*
X42602505Y-30153415D01*
X42596344Y-30162718D01*
X42586668Y-30176177D01*
X42576471Y-30189044D01*
X42565751Y-30201319D01*
X42554510Y-30213001D01*
X42542747Y-30224091D01*
X42530463Y-30234588D01*
X42517657Y-30244493D01*
X42504330Y-30253805D01*
X42490480Y-30262525D01*
X42476110Y-30270652D01*
X42466276Y-30275808D01*
X42451232Y-30283129D01*
X42435832Y-30289955D01*
X42420079Y-30296284D01*
X42403972Y-30302118D01*
X42387510Y-30307455D01*
X42370694Y-30312297D01*
X42353524Y-30316643D01*
X42336000Y-30320493D01*
X42318121Y-30323847D01*
X42299888Y-30326706D01*
X42287620Y-30328392D01*
X42269232Y-30330716D01*
X42250864Y-30332797D01*
X42232516Y-30334632D01*
X42214186Y-30336223D01*
X42195876Y-30337569D01*
X42177586Y-30338670D01*
X42159314Y-30339526D01*
X42141062Y-30340138D01*
X42122830Y-30340505D01*
X42104616Y-30340628D01*
X41547743Y-30340628D01*
X41547743Y-29730997D01*
X41876738Y-29730997D01*
X41876738Y-30059260D01*
X42100586Y-30059260D01*
X42117343Y-30058892D01*
X42134276Y-30057787D01*
X42148929Y-30056254D01*
X42163711Y-30054181D01*
X42178622Y-30051566D01*
X42191001Y-30048929D01*
X42205289Y-30045151D01*
X42221177Y-30039897D01*
X42236224Y-30033731D01*
X42250429Y-30026653D01*
X42258209Y-30022120D01*
X42270914Y-30013084D01*
X42282462Y-30002645D01*
X42292853Y-29990804D01*
X42302087Y-29977561D01*
X42303326Y-29975576D01*
X42310902Y-29960799D01*
X42315861Y-29946906D01*
X42319403Y-29931880D01*
X42321528Y-29915719D01*
X42322237Y-29898426D01*
X42321606Y-29881716D01*
X42319712Y-29865934D01*
X42316557Y-29851079D01*
X42311280Y-29834920D01*
X42304285Y-29820024D01*
X42299614Y-29812073D01*
X42290558Y-29799122D01*
X42280380Y-29787399D01*
X42269079Y-29776903D01*
X42256657Y-29767634D01*
X42249210Y-29762946D01*
X42235598Y-29755540D01*
X42221250Y-29749151D01*
X42206166Y-29743779D01*
X42190345Y-29739424D01*
X42181078Y-29737449D01*
X42164776Y-29734626D01*
X42148370Y-29732610D01*
X42131858Y-29731401D01*
X42115241Y-29730997D01*
X41876738Y-29730997D01*
X41547743Y-29730997D01*
X41547743Y-29121367D01*
X41876738Y-29121367D01*
X41876738Y-29449630D01*
X42125865Y-29449630D01*
X42130883Y-29449605D01*
X42146244Y-29449240D01*
X42162070Y-29448438D01*
X42178359Y-29447197D01*
X42195111Y-29445518D01*
X42212327Y-29443401D01*
X42218118Y-29442627D01*
X42235179Y-29439807D01*
X42251777Y-29436239D01*
X42267912Y-29431924D01*
X42283582Y-29426862D01*
X42298789Y-29421053D01*
X42303772Y-29418977D01*
X42318069Y-29412009D01*
X42331387Y-29403933D01*
X42343726Y-29394749D01*
X42355086Y-29384458D01*
X42365468Y-29373060D01*
X42370182Y-29366981D01*
X42378219Y-29353801D01*
X42384401Y-29339255D01*
X42388729Y-29323344D01*
X42391202Y-29306067D01*
X42391846Y-29290628D01*
X42391826Y-29287711D01*
X42390882Y-29270795D01*
X42388520Y-29254884D01*
X42384742Y-29239977D01*
X42379547Y-29226076D01*
X42371696Y-29211127D01*
X42366561Y-29203164D01*
X42356666Y-29190138D01*
X42345614Y-29178270D01*
X42333405Y-29167558D01*
X42320038Y-29158004D01*
X42310005Y-29151993D01*
X42295326Y-29144540D01*
X42279911Y-29138209D01*
X42263760Y-29132999D01*
X42249330Y-29129427D01*
X42237116Y-29127105D01*
X42222553Y-29124838D01*
X42205693Y-29122910D01*
X42188973Y-29121753D01*
X42172394Y-29121367D01*
X41876738Y-29121367D01*
X41547743Y-29121367D01*
X41547743Y-28840000D01*
X42159571Y-28840000D01*
X42171984Y-28840081D01*
G37*
G36*
X43236682Y-29426182D02*
G01*
X43477383Y-29426182D01*
X43492064Y-29426268D01*
X43513837Y-29426719D01*
X43535315Y-29427556D01*
X43556496Y-29428780D01*
X43577381Y-29430390D01*
X43597969Y-29432386D01*
X43618262Y-29434769D01*
X43638258Y-29437538D01*
X43657958Y-29440694D01*
X43677362Y-29444236D01*
X43696469Y-29448164D01*
X43709047Y-29451076D01*
X43727512Y-29455890D01*
X43745493Y-29461239D01*
X43762992Y-29467122D01*
X43780007Y-29473539D01*
X43796540Y-29480491D01*
X43812589Y-29487978D01*
X43828156Y-29495999D01*
X43843239Y-29504554D01*
X43857840Y-29513644D01*
X43871958Y-29523269D01*
X43881084Y-29530049D01*
X43894306Y-29540746D01*
X43906968Y-29552074D01*
X43919070Y-29564033D01*
X43930612Y-29576624D01*
X43941593Y-29589845D01*
X43952014Y-29603697D01*
X43961875Y-29618181D01*
X43971175Y-29633295D01*
X43979915Y-29649041D01*
X43988095Y-29665418D01*
X43993197Y-29676711D01*
X44000233Y-29694268D01*
X44006528Y-29712565D01*
X44012082Y-29731602D01*
X44016896Y-29751381D01*
X44020969Y-29771900D01*
X44024302Y-29793159D01*
X44026112Y-29807744D01*
X44027594Y-29822657D01*
X44028746Y-29837900D01*
X44029569Y-29853472D01*
X44030062Y-29869373D01*
X44030227Y-29885603D01*
X44030183Y-29893893D01*
X44029828Y-29910205D01*
X44029118Y-29926159D01*
X44028053Y-29941755D01*
X44026633Y-29956994D01*
X44024859Y-29971874D01*
X44021531Y-29993525D01*
X44017406Y-30014370D01*
X44012481Y-30034410D01*
X44006758Y-30053645D01*
X44000237Y-30072075D01*
X43992916Y-30089701D01*
X43984798Y-30106521D01*
X43978996Y-30117370D01*
X43969832Y-30133113D01*
X43960114Y-30148218D01*
X43949842Y-30162685D01*
X43939016Y-30176515D01*
X43927637Y-30189707D01*
X43915704Y-30202262D01*
X43903217Y-30214179D01*
X43890176Y-30225459D01*
X43876581Y-30236101D01*
X43862432Y-30246106D01*
X43852710Y-30252488D01*
X43837736Y-30261612D01*
X43822292Y-30270194D01*
X43806378Y-30278235D01*
X43789994Y-30285736D01*
X43773139Y-30292695D01*
X43755814Y-30299114D01*
X43738020Y-30304991D01*
X43719755Y-30310328D01*
X43701020Y-30315124D01*
X43681814Y-30319378D01*
X43668851Y-30321952D01*
X43649224Y-30325500D01*
X43629379Y-30328675D01*
X43609314Y-30331476D01*
X43589030Y-30333904D01*
X43568527Y-30335959D01*
X43547805Y-30337639D01*
X43526865Y-30338947D01*
X43505705Y-30339881D01*
X43484326Y-30340441D01*
X43462729Y-30340628D01*
X42907687Y-30340628D01*
X42907687Y-29707550D01*
X43236682Y-29707550D01*
X43236682Y-30059260D01*
X43405576Y-30059260D01*
X43411408Y-30059238D01*
X43426125Y-30058997D01*
X43441039Y-30058487D01*
X43456149Y-30057709D01*
X43471457Y-30056662D01*
X43486961Y-30055347D01*
X43502662Y-30053764D01*
X43518229Y-30051831D01*
X43533331Y-30049235D01*
X43547968Y-30045977D01*
X43562139Y-30042058D01*
X43578531Y-30036481D01*
X43594253Y-30029951D01*
X43599370Y-30027552D01*
X43614014Y-30019601D01*
X43627603Y-30010516D01*
X43640135Y-30000298D01*
X43651611Y-29988946D01*
X43662031Y-29976461D01*
X43669630Y-29965163D01*
X43677049Y-29950188D01*
X43682613Y-29933667D01*
X43685833Y-29918719D01*
X43687765Y-29902698D01*
X43688409Y-29885603D01*
X43688232Y-29875935D01*
X43687150Y-29860507D01*
X43684552Y-29843128D01*
X43680538Y-29826985D01*
X43675107Y-29812078D01*
X43668259Y-29798408D01*
X43663107Y-29790028D01*
X43653099Y-29776464D01*
X43641829Y-29764302D01*
X43629297Y-29753543D01*
X43615503Y-29744187D01*
X43600816Y-29736075D01*
X43585289Y-29729050D01*
X43571310Y-29723893D01*
X43556712Y-29719536D01*
X43541497Y-29715976D01*
X43536355Y-29714956D01*
X43520774Y-29712290D01*
X43504962Y-29710216D01*
X43488918Y-29708735D01*
X43472642Y-29707846D01*
X43456134Y-29707550D01*
X43236682Y-29707550D01*
X42907687Y-29707550D01*
X42907687Y-28840000D01*
X43236682Y-28840000D01*
X43236682Y-29426182D01*
G37*
G36*
X45333784Y-28793288D02*
G01*
X45350094Y-28793838D01*
X45366196Y-28794754D01*
X45382088Y-28796036D01*
X45397772Y-28797684D01*
X45413246Y-28799699D01*
X45428512Y-28802081D01*
X45443569Y-28804829D01*
X45458416Y-28807943D01*
X45473055Y-28811423D01*
X45487485Y-28815270D01*
X45501706Y-28819483D01*
X45515718Y-28824063D01*
X45536344Y-28831619D01*
X45556500Y-28840000D01*
X45563150Y-28842955D01*
X45582942Y-28852387D01*
X45596003Y-28859148D01*
X45608959Y-28866286D01*
X45621809Y-28873802D01*
X45634553Y-28881696D01*
X45647191Y-28889968D01*
X45659724Y-28898618D01*
X45672150Y-28907645D01*
X45684470Y-28917050D01*
X45696685Y-28926834D01*
X45708793Y-28936994D01*
X45720796Y-28947533D01*
X45732693Y-28958450D01*
X45744484Y-28969744D01*
X45756169Y-28981416D01*
X45880733Y-28840000D01*
X46287764Y-28840000D01*
X45954372Y-29188412D01*
X46268713Y-29601671D01*
X45901616Y-29601671D01*
X45756169Y-29403468D01*
X45564194Y-29608265D01*
X45578276Y-29615827D01*
X45592129Y-29623676D01*
X45605754Y-29631810D01*
X45619149Y-29640231D01*
X45632315Y-29648938D01*
X45645252Y-29657931D01*
X45657960Y-29667210D01*
X45670440Y-29676775D01*
X45682707Y-29686736D01*
X45694597Y-29697017D01*
X45706109Y-29707619D01*
X45717243Y-29718541D01*
X45727999Y-29729784D01*
X45738377Y-29741347D01*
X45748378Y-29753231D01*
X45758001Y-29765436D01*
X45767274Y-29778001D01*
X45776044Y-29790783D01*
X45784310Y-29803784D01*
X45792073Y-29817001D01*
X45799331Y-29830437D01*
X45806086Y-29844089D01*
X45812337Y-29857960D01*
X45818085Y-29872048D01*
X45823322Y-29886496D01*
X45827862Y-29901265D01*
X45831703Y-29916355D01*
X45834846Y-29931765D01*
X45837290Y-29947496D01*
X45839036Y-29963547D01*
X45840084Y-29979919D01*
X45840433Y-29996612D01*
X45840398Y-30002539D01*
X45839872Y-30020007D01*
X45838715Y-30037006D01*
X45836927Y-30053534D01*
X45834507Y-30069592D01*
X45831457Y-30085180D01*
X45827775Y-30100298D01*
X45823463Y-30114946D01*
X45818519Y-30129123D01*
X45812944Y-30142831D01*
X45804529Y-30160376D01*
X45795175Y-30177143D01*
X45785066Y-30193189D01*
X45774201Y-30208513D01*
X45762580Y-30223116D01*
X45750204Y-30236998D01*
X45737072Y-30250158D01*
X45723185Y-30262598D01*
X45708542Y-30274316D01*
X45697118Y-30282628D01*
X45681396Y-30293069D01*
X45665113Y-30302778D01*
X45648269Y-30311753D01*
X45630863Y-30319997D01*
X45612897Y-30327507D01*
X45599054Y-30332659D01*
X45584896Y-30337399D01*
X45570422Y-30341727D01*
X45560635Y-30344433D01*
X45545830Y-30348165D01*
X45530878Y-30351504D01*
X45515777Y-30354450D01*
X45500528Y-30357004D01*
X45485131Y-30359164D01*
X45469586Y-30360932D01*
X45453893Y-30362307D01*
X45438052Y-30363289D01*
X45422062Y-30363878D01*
X45405925Y-30364075D01*
X45394858Y-30363992D01*
X45378317Y-30363556D01*
X45361847Y-30362747D01*
X45345447Y-30361564D01*
X45329118Y-30360008D01*
X45312861Y-30358078D01*
X45296674Y-30355774D01*
X45280558Y-30353098D01*
X45264512Y-30350047D01*
X45248538Y-30346623D01*
X45232634Y-30342826D01*
X45222174Y-30340115D01*
X45206758Y-30335674D01*
X45191670Y-30330782D01*
X45176911Y-30325438D01*
X45162480Y-30319645D01*
X45148377Y-30313400D01*
X45134603Y-30306705D01*
X45121158Y-30299558D01*
X45108040Y-30291961D01*
X45095252Y-30283913D01*
X45082791Y-30275415D01*
X45074741Y-30269500D01*
X45063047Y-30260257D01*
X45051811Y-30250571D01*
X45041031Y-30240439D01*
X45030709Y-30229864D01*
X45020844Y-30218844D01*
X45011436Y-30207380D01*
X45002486Y-30195471D01*
X44993992Y-30183118D01*
X44985956Y-30170321D01*
X44978378Y-30157079D01*
X44973675Y-30147987D01*
X44967190Y-30133915D01*
X44961387Y-30119321D01*
X44956268Y-30104205D01*
X44951831Y-30088568D01*
X44948076Y-30072408D01*
X44945004Y-30055728D01*
X44942615Y-30038526D01*
X44940908Y-30020802D01*
X44939884Y-30002556D01*
X44939543Y-29983789D01*
X44939554Y-29980387D01*
X44939875Y-29966570D01*
X45256082Y-29966570D01*
X45256452Y-29978231D01*
X45258098Y-29993089D01*
X45262007Y-30010551D01*
X45267972Y-30026778D01*
X45275996Y-30041770D01*
X45286076Y-30055529D01*
X45298214Y-30068053D01*
X45306281Y-30074862D01*
X45320470Y-30084722D01*
X45335590Y-30092722D01*
X45351640Y-30098861D01*
X45368620Y-30103141D01*
X45386530Y-30105559D01*
X45401528Y-30106154D01*
X45412842Y-30105845D01*
X45427437Y-30104471D01*
X45444891Y-30101209D01*
X45461469Y-30096228D01*
X45477170Y-30089531D01*
X45491994Y-30081116D01*
X45505942Y-30070983D01*
X45516074Y-30061807D01*
X45526840Y-30049001D01*
X45535495Y-30034709D01*
X45542038Y-30018933D01*
X45546471Y-30001672D01*
X45548498Y-29986794D01*
X45549173Y-29970966D01*
X45548120Y-29955396D01*
X45544960Y-29940191D01*
X45539693Y-29925354D01*
X45532320Y-29910882D01*
X45529086Y-29905563D01*
X45519738Y-29891755D01*
X45510695Y-29880125D01*
X45500845Y-29868915D01*
X45490188Y-29858126D01*
X45483800Y-29852144D01*
X45472290Y-29841978D01*
X45460358Y-29832198D01*
X45448007Y-29822804D01*
X45435234Y-29813796D01*
X45433406Y-29812542D01*
X45420831Y-29804064D01*
X45406932Y-29795020D01*
X45393537Y-29786662D01*
X45380646Y-29778991D01*
X45373386Y-29785453D01*
X45362061Y-29795676D01*
X45350214Y-29806537D01*
X45339246Y-29816727D01*
X45328507Y-29827534D01*
X45318272Y-29838709D01*
X45308541Y-29850249D01*
X45299313Y-29862156D01*
X45290657Y-29874544D01*
X45282643Y-29887160D01*
X45275270Y-29900006D01*
X45268538Y-29913080D01*
X45264950Y-29921342D01*
X45260023Y-29936302D01*
X45257067Y-29951378D01*
X45256082Y-29966570D01*
X44939875Y-29966570D01*
X44939942Y-29963679D01*
X44940885Y-29947471D01*
X44942382Y-29931765D01*
X44944434Y-29916559D01*
X44947041Y-29901855D01*
X44950900Y-29884870D01*
X44952406Y-29879345D01*
X44957403Y-29862957D01*
X44963122Y-29846853D01*
X44969562Y-29831032D01*
X44976723Y-29815494D01*
X44984606Y-29800240D01*
X44988867Y-29792723D01*
X44997814Y-29777919D01*
X45007328Y-29763425D01*
X45017409Y-29749240D01*
X45028056Y-29735364D01*
X45037362Y-29724036D01*
X45041229Y-29719576D01*
X45051072Y-29708261D01*
X45061164Y-29696714D01*
X45071508Y-29684934D01*
X45082102Y-29672922D01*
X45092946Y-29660677D01*
X45104041Y-29648199D01*
X45087348Y-29642177D01*
X45070976Y-29635651D01*
X45054925Y-29628621D01*
X45039194Y-29621088D01*
X45023784Y-29613051D01*
X45008694Y-29604510D01*
X44993925Y-29595466D01*
X44979477Y-29585917D01*
X44965486Y-29575905D01*
X44951908Y-29565469D01*
X44938742Y-29554610D01*
X44925988Y-29543327D01*
X44913646Y-29531621D01*
X44901716Y-29519491D01*
X44890198Y-29506937D01*
X44879093Y-29493960D01*
X44868583Y-29480587D01*
X44858668Y-29466849D01*
X44849349Y-29452744D01*
X44840625Y-29438272D01*
X44832496Y-29423435D01*
X44824963Y-29408230D01*
X44818025Y-29392660D01*
X44811682Y-29376723D01*
X44806015Y-29360575D01*
X44801103Y-29344185D01*
X44796947Y-29327556D01*
X44793547Y-29310686D01*
X44790902Y-29293576D01*
X44789013Y-29276225D01*
X44787880Y-29258634D01*
X44787867Y-29258021D01*
X45129320Y-29258021D01*
X45129677Y-29270928D01*
X45131051Y-29285731D01*
X45133956Y-29302058D01*
X45138264Y-29317367D01*
X45143974Y-29331660D01*
X45147873Y-29339509D01*
X45155383Y-29352664D01*
X45163771Y-29365084D01*
X45173035Y-29376767D01*
X45183175Y-29387714D01*
X45189318Y-29393696D01*
X45200535Y-29403862D01*
X45212348Y-29413642D01*
X45224758Y-29423036D01*
X45237764Y-29432044D01*
X45245474Y-29437064D01*
X45259051Y-29445767D01*
X45272733Y-29454365D01*
X45286520Y-29462858D01*
X45300412Y-29471245D01*
X45564194Y-29184016D01*
X45550988Y-29172618D01*
X45537747Y-29161690D01*
X45524472Y-29151232D01*
X45511163Y-29141243D01*
X45497819Y-29131723D01*
X45484441Y-29122672D01*
X45471029Y-29114091D01*
X45457582Y-29105980D01*
X45443803Y-29098595D01*
X45429395Y-29092196D01*
X45414357Y-29086780D01*
X45398689Y-29082349D01*
X45382392Y-29078903D01*
X45365464Y-29076442D01*
X45347907Y-29074965D01*
X45329721Y-29074473D01*
X45320299Y-29074684D01*
X45303864Y-29076074D01*
X45287500Y-29078762D01*
X45271206Y-29082746D01*
X45254983Y-29088028D01*
X45245881Y-29091652D01*
X45230669Y-29098682D01*
X45216368Y-29106588D01*
X45202980Y-29115371D01*
X45190503Y-29125031D01*
X45183799Y-29130967D01*
X45172867Y-29142154D01*
X45162952Y-29154359D01*
X45154054Y-29167580D01*
X45146172Y-29181817D01*
X45139606Y-29197109D01*
X45134652Y-29213173D01*
X45131690Y-29227556D01*
X45129912Y-29242505D01*
X45129320Y-29258021D01*
X44787867Y-29258021D01*
X44787502Y-29240802D01*
X44787675Y-29226896D01*
X44788584Y-29206439D01*
X44790272Y-29186466D01*
X44792740Y-29166975D01*
X44795987Y-29147967D01*
X44800013Y-29129443D01*
X44804818Y-29111401D01*
X44810403Y-29093842D01*
X44816767Y-29076767D01*
X44823910Y-29060174D01*
X44831832Y-29044064D01*
X44837492Y-29033642D01*
X44846427Y-29018421D01*
X44855897Y-29003696D01*
X44865902Y-28989466D01*
X44876441Y-28975733D01*
X44887515Y-28962496D01*
X44899123Y-28949754D01*
X44911265Y-28937509D01*
X44923942Y-28925759D01*
X44937154Y-28914505D01*
X44950900Y-28903747D01*
X44960366Y-28896896D01*
X44974853Y-28887033D01*
X44989689Y-28877666D01*
X45004872Y-28868795D01*
X45020404Y-28860420D01*
X45036282Y-28852541D01*
X45052509Y-28845157D01*
X45069084Y-28838270D01*
X45086006Y-28831878D01*
X45103276Y-28825982D01*
X45120893Y-28820582D01*
X45132780Y-28817255D01*
X45150707Y-28812666D01*
X45168750Y-28808561D01*
X45186908Y-28804938D01*
X45205183Y-28801799D01*
X45223573Y-28799142D01*
X45242080Y-28796969D01*
X45260702Y-28795278D01*
X45279440Y-28794071D01*
X45298294Y-28793346D01*
X45317265Y-28793105D01*
X45333784Y-28793288D01*
G37*
G36*
X47624156Y-28840190D02*
G01*
X47644817Y-28840761D01*
X47665360Y-28841713D01*
X47685787Y-28843045D01*
X47706096Y-28844758D01*
X47726287Y-28846852D01*
X47746361Y-28849326D01*
X47766318Y-28852181D01*
X47786158Y-28855417D01*
X47805880Y-28859033D01*
X47825485Y-28863030D01*
X47844972Y-28867408D01*
X47864342Y-28872167D01*
X47883595Y-28877306D01*
X47902730Y-28882825D01*
X47921748Y-28888726D01*
X47940613Y-28894994D01*
X47959197Y-28901617D01*
X47977501Y-28908595D01*
X47995525Y-28915928D01*
X48013268Y-28923616D01*
X48030730Y-28931659D01*
X48047912Y-28940057D01*
X48064813Y-28948810D01*
X48081434Y-28957917D01*
X48097775Y-28967380D01*
X48113835Y-28977197D01*
X48129614Y-28987370D01*
X48145113Y-28997897D01*
X48160331Y-29008779D01*
X48175269Y-29020016D01*
X48189927Y-29031608D01*
X48204258Y-29043596D01*
X48218217Y-29055931D01*
X48231804Y-29068612D01*
X48245019Y-29081640D01*
X48257862Y-29095013D01*
X48270332Y-29108733D01*
X48282431Y-29122800D01*
X48294157Y-29137213D01*
X48305512Y-29151972D01*
X48316494Y-29167077D01*
X48327104Y-29182529D01*
X48337343Y-29198327D01*
X48347209Y-29214471D01*
X48356703Y-29230962D01*
X48365825Y-29247799D01*
X48374574Y-29264982D01*
X48382871Y-29282507D01*
X48390631Y-29300371D01*
X48397857Y-29318571D01*
X48404548Y-29337110D01*
X48410703Y-29355986D01*
X48416323Y-29375200D01*
X48421407Y-29394752D01*
X48425957Y-29414642D01*
X48429971Y-29434869D01*
X48433450Y-29455434D01*
X48436394Y-29476337D01*
X48438803Y-29497578D01*
X48440676Y-29519156D01*
X48442014Y-29541072D01*
X48442817Y-29563326D01*
X48443085Y-29585917D01*
X48442808Y-29611412D01*
X48441980Y-29636424D01*
X48440599Y-29660952D01*
X48438665Y-29684996D01*
X48436179Y-29708556D01*
X48433141Y-29731633D01*
X48429550Y-29754226D01*
X48425407Y-29776335D01*
X48420712Y-29797960D01*
X48415464Y-29819102D01*
X48409664Y-29839760D01*
X48403311Y-29859935D01*
X48396406Y-29879625D01*
X48388948Y-29898832D01*
X48380939Y-29917556D01*
X48372376Y-29935795D01*
X48363344Y-29953582D01*
X48353926Y-29970949D01*
X48344122Y-29987895D01*
X48333931Y-30004420D01*
X48323354Y-30020524D01*
X48312390Y-30036207D01*
X48301040Y-30051470D01*
X48289303Y-30066312D01*
X48277180Y-30080734D01*
X48264671Y-30094734D01*
X48251775Y-30108314D01*
X48238493Y-30121473D01*
X48224824Y-30134211D01*
X48210769Y-30146529D01*
X48196328Y-30158426D01*
X48181500Y-30169902D01*
X48166318Y-30180973D01*
X48150812Y-30191655D01*
X48134982Y-30201947D01*
X48118829Y-30211851D01*
X48102353Y-30221365D01*
X48085553Y-30230489D01*
X48068430Y-30239225D01*
X48050983Y-30247571D01*
X48033213Y-30255528D01*
X48015120Y-30263096D01*
X47996703Y-30270274D01*
X47977962Y-30277063D01*
X47958898Y-30283463D01*
X47939511Y-30289474D01*
X47919800Y-30295095D01*
X47899766Y-30300327D01*
X47879502Y-30305208D01*
X47859100Y-30309773D01*
X47838561Y-30314023D01*
X47817884Y-30317959D01*
X47797070Y-30321579D01*
X47776118Y-30324885D01*
X47755030Y-30327876D01*
X47733803Y-30330553D01*
X47712440Y-30332914D01*
X47690939Y-30334960D01*
X47669300Y-30336692D01*
X47647524Y-30338109D01*
X47625611Y-30339211D01*
X47603561Y-30339998D01*
X47581373Y-30340470D01*
X47559048Y-30340628D01*
X47065188Y-30340628D01*
X47065188Y-29144815D01*
X47394184Y-29144815D01*
X47394184Y-30035812D01*
X47588357Y-30035812D01*
X47601234Y-30035708D01*
X47620410Y-30035160D01*
X47639419Y-30034141D01*
X47658260Y-30032652D01*
X47676934Y-30030693D01*
X47695440Y-30028264D01*
X47713779Y-30025365D01*
X47731951Y-30021996D01*
X47749955Y-30018157D01*
X47767791Y-30013847D01*
X47785461Y-30009068D01*
X47797134Y-30005666D01*
X47814285Y-30000172D01*
X47831004Y-29994207D01*
X47847292Y-29987773D01*
X47863148Y-29980868D01*
X47878573Y-29973493D01*
X47893567Y-29965648D01*
X47908129Y-29957333D01*
X47922259Y-29948548D01*
X47935958Y-29939292D01*
X47949225Y-29929567D01*
X47957815Y-29922859D01*
X47970281Y-29912374D01*
X47982244Y-29901380D01*
X47993705Y-29889877D01*
X48004664Y-29877865D01*
X48015120Y-29865345D01*
X48025074Y-29852316D01*
X48034526Y-29838778D01*
X48043476Y-29824731D01*
X48051923Y-29810175D01*
X48059867Y-29795111D01*
X48064881Y-29784787D01*
X48071794Y-29768882D01*
X48077980Y-29752476D01*
X48083438Y-29735566D01*
X48088168Y-29718155D01*
X48092170Y-29700241D01*
X48095445Y-29681824D01*
X48097992Y-29662906D01*
X48099811Y-29643485D01*
X48100903Y-29623562D01*
X48101267Y-29603136D01*
X48101105Y-29587354D01*
X48100620Y-29571881D01*
X48099811Y-29556717D01*
X48098679Y-29541862D01*
X48096375Y-29520159D01*
X48093343Y-29499152D01*
X48089583Y-29478840D01*
X48085095Y-29459224D01*
X48079880Y-29440303D01*
X48073937Y-29422078D01*
X48067266Y-29404548D01*
X48059867Y-29387714D01*
X48054618Y-29376855D01*
X48046293Y-29361060D01*
X48037428Y-29345857D01*
X48028021Y-29331247D01*
X48018073Y-29317229D01*
X48007585Y-29303804D01*
X47996555Y-29290971D01*
X47984985Y-29278731D01*
X47972873Y-29267083D01*
X47960221Y-29256028D01*
X47947027Y-29245565D01*
X47937993Y-29238907D01*
X47924049Y-29229372D01*
X47909635Y-29220377D01*
X47894751Y-29211924D01*
X47879397Y-29204011D01*
X47863573Y-29196639D01*
X47847279Y-29189809D01*
X47830515Y-29183519D01*
X47813280Y-29177770D01*
X47795575Y-29172562D01*
X47777401Y-29167896D01*
X47765066Y-29165101D01*
X47746333Y-29161246D01*
X47727323Y-29157798D01*
X47708036Y-29154755D01*
X47688473Y-29152118D01*
X47668632Y-29149886D01*
X47648515Y-29148060D01*
X47628120Y-29146640D01*
X47607449Y-29145626D01*
X47586501Y-29145017D01*
X47565276Y-29144815D01*
X47394184Y-29144815D01*
X47065188Y-29144815D01*
X47065188Y-28840000D01*
X47603378Y-28840000D01*
X47624156Y-28840190D01*
G37*
G36*
X49430436Y-29336789D02*
G01*
X49430278Y-29317267D01*
X49429805Y-29297853D01*
X49429016Y-29278549D01*
X49427912Y-29259355D01*
X49426492Y-29240270D01*
X49424756Y-29221295D01*
X49422705Y-29202429D01*
X49420338Y-29183672D01*
X49417656Y-29165025D01*
X49414658Y-29146488D01*
X49412484Y-29134190D01*
X49408829Y-29115977D01*
X49404593Y-29098156D01*
X49399778Y-29080728D01*
X49394384Y-29063694D01*
X49388410Y-29047051D01*
X49381856Y-29030802D01*
X49374722Y-29014946D01*
X49367009Y-28999482D01*
X49358717Y-28984412D01*
X49349845Y-28969734D01*
X49343608Y-28960167D01*
X49333748Y-28946277D01*
X49323129Y-28932909D01*
X49311749Y-28920062D01*
X49299610Y-28907737D01*
X49286711Y-28895933D01*
X49273051Y-28884652D01*
X49258632Y-28873891D01*
X49243453Y-28863653D01*
X49227514Y-28853936D01*
X49210815Y-28844741D01*
X49199260Y-28838900D01*
X49181163Y-28830716D01*
X49162041Y-28823337D01*
X49141896Y-28816763D01*
X49120727Y-28810994D01*
X49106045Y-28807595D01*
X49090908Y-28804554D01*
X49075316Y-28801870D01*
X49059269Y-28799545D01*
X49042767Y-28797577D01*
X49025810Y-28795967D01*
X49008397Y-28794715D01*
X48990530Y-28793820D01*
X48972208Y-28793284D01*
X48953430Y-28793105D01*
X48931480Y-28793423D01*
X48909959Y-28794376D01*
X48888867Y-28795964D01*
X48868204Y-28798188D01*
X48847971Y-28801048D01*
X48828168Y-28804542D01*
X48808793Y-28808672D01*
X48789848Y-28813438D01*
X48771333Y-28818839D01*
X48753246Y-28824876D01*
X48735589Y-28831547D01*
X48718361Y-28838855D01*
X48701563Y-28846797D01*
X48685194Y-28855375D01*
X48669254Y-28864589D01*
X48653744Y-28874438D01*
X48638786Y-28885017D01*
X48624504Y-28896328D01*
X48610897Y-28908372D01*
X48597965Y-28921149D01*
X48585709Y-28934659D01*
X48574128Y-28948901D01*
X48563223Y-28963876D01*
X48552994Y-28979584D01*
X48543440Y-28996025D01*
X48534561Y-29013198D01*
X48526358Y-29031104D01*
X48518830Y-29049743D01*
X48511978Y-29069115D01*
X48505801Y-29089219D01*
X48500300Y-29110056D01*
X48495475Y-29131625D01*
X48797359Y-29205265D01*
X48800208Y-29188608D01*
X48804865Y-29172757D01*
X48811328Y-29157711D01*
X48819598Y-29143469D01*
X48829675Y-29130033D01*
X48841559Y-29117402D01*
X48846818Y-29112575D01*
X48860614Y-29101598D01*
X48874982Y-29092482D01*
X48889923Y-29085226D01*
X48905436Y-29079831D01*
X48921522Y-29076296D01*
X48938180Y-29074621D01*
X48945004Y-29074473D01*
X48962238Y-29075179D01*
X48978220Y-29077299D01*
X48992949Y-29080832D01*
X49008972Y-29086937D01*
X49023192Y-29095077D01*
X49033664Y-29103415D01*
X49044886Y-29114883D01*
X49054924Y-29127304D01*
X49063777Y-29140677D01*
X49071445Y-29155004D01*
X49077928Y-29170284D01*
X49079826Y-29175589D01*
X49085033Y-29192058D01*
X49089391Y-29209043D01*
X49092373Y-29223590D01*
X49094765Y-29238495D01*
X49096566Y-29253758D01*
X49097777Y-29269378D01*
X49098727Y-29284999D01*
X49099516Y-29300262D01*
X49100144Y-29315167D01*
X49100685Y-29332581D01*
X49100994Y-29349479D01*
X49101075Y-29363168D01*
X49101075Y-30340628D01*
X49430436Y-30340628D01*
X49430436Y-29336789D01*
G37*
G36*
X49707408Y-30340628D02*
G01*
X50205297Y-30340628D01*
X50548946Y-29361336D01*
X50553343Y-29361336D01*
X50899557Y-30340628D01*
X51395614Y-30340628D01*
X51395614Y-28840000D01*
X51066253Y-28840000D01*
X51066253Y-29990750D01*
X51062223Y-29990750D01*
X50669480Y-28840000D01*
X50418521Y-28840000D01*
X50040799Y-29990750D01*
X50036403Y-29990750D01*
X50036403Y-28840000D01*
X49707408Y-28840000D01*
X49707408Y-30340628D01*
G37*
G36*
X52261333Y-29179619D02*
G01*
X52841654Y-29706817D01*
X52852736Y-29717150D01*
X52863819Y-29727815D01*
X52874902Y-29738811D01*
X52885984Y-29750140D01*
X52897067Y-29761801D01*
X52908149Y-29773793D01*
X52919232Y-29786118D01*
X52930314Y-29798775D01*
X52940704Y-29811861D01*
X52949709Y-29825474D01*
X52957328Y-29839613D01*
X52963562Y-29854279D01*
X52968410Y-29869472D01*
X52971874Y-29885191D01*
X52973952Y-29901437D01*
X52974644Y-29918210D01*
X52973786Y-29936923D01*
X52971210Y-29954594D01*
X52966916Y-29971224D01*
X52960906Y-29986811D01*
X52953178Y-30001357D01*
X52943732Y-30014861D01*
X52932570Y-30027323D01*
X52919690Y-30038743D01*
X52905659Y-30049047D01*
X52891044Y-30057978D01*
X52875846Y-30065534D01*
X52860064Y-30071716D01*
X52843698Y-30076525D01*
X52826747Y-30079959D01*
X52809214Y-30082020D01*
X52791096Y-30082707D01*
X52774813Y-30082224D01*
X52759213Y-30080775D01*
X52744296Y-30078360D01*
X52725469Y-30073637D01*
X52707854Y-30067197D01*
X52691454Y-30059040D01*
X52676267Y-30049165D01*
X52662294Y-30037573D01*
X52652610Y-30027752D01*
X52640921Y-30013705D01*
X52630582Y-29998855D01*
X52621595Y-29983205D01*
X52613959Y-29966753D01*
X52607673Y-29949499D01*
X52602739Y-29931444D01*
X52599155Y-29912588D01*
X52597354Y-29897920D01*
X52596923Y-29892930D01*
X52280384Y-29916011D01*
X52281867Y-29937497D01*
X52283982Y-29958404D01*
X52286727Y-29978730D01*
X52290104Y-29998478D01*
X52294112Y-30017645D01*
X52298751Y-30036233D01*
X52304021Y-30054242D01*
X52309922Y-30071670D01*
X52316454Y-30088520D01*
X52323618Y-30104789D01*
X52328744Y-30115314D01*
X52336951Y-30130724D01*
X52345634Y-30145633D01*
X52354794Y-30160039D01*
X52364430Y-30173943D01*
X52374543Y-30187345D01*
X52385133Y-30200244D01*
X52396199Y-30212641D01*
X52407741Y-30224536D01*
X52419760Y-30235928D01*
X52432256Y-30246818D01*
X52440851Y-30253799D01*
X52454116Y-30263927D01*
X52467805Y-30273566D01*
X52481919Y-30282715D01*
X52496459Y-30291374D01*
X52511423Y-30299545D01*
X52526813Y-30307225D01*
X52542627Y-30314417D01*
X52558867Y-30321119D01*
X52575531Y-30327331D01*
X52592621Y-30333054D01*
X52604250Y-30336598D01*
X52621977Y-30341508D01*
X52639988Y-30345936D01*
X52658281Y-30349880D01*
X52676859Y-30353342D01*
X52695719Y-30356320D01*
X52714863Y-30358816D01*
X52734291Y-30360828D01*
X52754001Y-30362358D01*
X52773995Y-30363404D01*
X52794273Y-30363968D01*
X52807948Y-30364075D01*
X52826798Y-30363824D01*
X52845429Y-30363070D01*
X52863841Y-30361814D01*
X52882034Y-30360056D01*
X52900008Y-30357796D01*
X52917763Y-30355033D01*
X52935299Y-30351768D01*
X52952617Y-30348001D01*
X52969715Y-30343731D01*
X52986594Y-30338959D01*
X52997725Y-30335498D01*
X53014143Y-30329899D01*
X53030148Y-30323816D01*
X53045742Y-30317251D01*
X53060923Y-30310202D01*
X53075692Y-30302671D01*
X53090049Y-30294656D01*
X53103994Y-30286158D01*
X53117526Y-30277178D01*
X53130647Y-30267714D01*
X53143355Y-30257768D01*
X53151598Y-30250868D01*
X53163643Y-30240173D01*
X53175186Y-30228968D01*
X53186226Y-30217255D01*
X53196764Y-30205033D01*
X53206800Y-30192302D01*
X53216333Y-30179062D01*
X53225364Y-30165314D01*
X53233893Y-30151057D01*
X53241919Y-30136291D01*
X53249443Y-30121017D01*
X53254180Y-30110551D01*
X53260793Y-30094441D01*
X53266755Y-30077848D01*
X53272067Y-30060773D01*
X53276729Y-30043214D01*
X53280740Y-30025173D01*
X53284100Y-30006648D01*
X53286811Y-29987640D01*
X53288870Y-29968150D01*
X53290280Y-29948176D01*
X53291038Y-29927719D01*
X53291183Y-29913813D01*
X53290948Y-29896073D01*
X53290244Y-29878757D01*
X53289071Y-29861864D01*
X53287428Y-29845395D01*
X53285315Y-29829349D01*
X53282734Y-29813727D01*
X53279682Y-29798529D01*
X53276162Y-29783754D01*
X53272315Y-29769443D01*
X53266991Y-29752005D01*
X53261095Y-29735067D01*
X53254627Y-29718631D01*
X53247586Y-29702696D01*
X53239972Y-29687261D01*
X53235129Y-29678241D01*
X53226653Y-29663536D01*
X53217713Y-29649189D01*
X53208307Y-29635200D01*
X53198435Y-29621569D01*
X53188099Y-29608295D01*
X53177298Y-29595380D01*
X53172847Y-29590314D01*
X53161572Y-29577879D01*
X53149957Y-29565534D01*
X53138001Y-29553278D01*
X53125706Y-29541112D01*
X53113072Y-29529035D01*
X53100097Y-29517048D01*
X53094812Y-29512278D01*
X52641253Y-29121367D01*
X53304006Y-29121367D01*
X53304006Y-28840000D01*
X52261333Y-28840000D01*
X52261333Y-29179619D01*
G37*
G36*
X54045983Y-28816828D02*
G01*
X54066129Y-28817657D01*
X54085814Y-28819038D01*
X54105038Y-28820971D01*
X54123802Y-28823457D01*
X54142104Y-28826496D01*
X54159946Y-28830086D01*
X54177326Y-28834229D01*
X54194247Y-28838925D01*
X54210706Y-28844173D01*
X54226704Y-28849973D01*
X54242242Y-28856326D01*
X54257318Y-28863231D01*
X54271934Y-28870688D01*
X54286089Y-28878698D01*
X54299784Y-28887260D01*
X54313070Y-28896304D01*
X54326002Y-28905665D01*
X54338578Y-28915343D01*
X54350800Y-28925339D01*
X54362667Y-28935653D01*
X54374179Y-28946285D01*
X54385336Y-28957235D01*
X54396138Y-28968502D01*
X54406585Y-28980087D01*
X54416677Y-28991989D01*
X54426414Y-29004209D01*
X54435796Y-29016747D01*
X54444824Y-29029603D01*
X54453496Y-29042776D01*
X54461814Y-29056267D01*
X54469777Y-29070076D01*
X54477413Y-29084188D01*
X54484752Y-29098498D01*
X54491793Y-29113005D01*
X54498536Y-29127710D01*
X54504982Y-29142612D01*
X54511130Y-29157712D01*
X54516981Y-29173009D01*
X54522533Y-29188504D01*
X54527788Y-29204196D01*
X54532746Y-29220085D01*
X54537405Y-29236172D01*
X54541767Y-29252457D01*
X54545832Y-29268939D01*
X54549598Y-29285619D01*
X54553067Y-29302496D01*
X54556239Y-29319570D01*
X54559167Y-29336728D01*
X54561906Y-29353854D01*
X54564456Y-29370949D01*
X54566817Y-29388012D01*
X54568990Y-29405043D01*
X54570973Y-29422044D01*
X54572768Y-29439012D01*
X54574374Y-29455949D01*
X54575791Y-29472855D01*
X54577018Y-29489729D01*
X54578057Y-29506572D01*
X54578908Y-29523383D01*
X54579569Y-29540163D01*
X54580041Y-29556911D01*
X54580324Y-29573628D01*
X54580419Y-29590314D01*
X54580324Y-29606999D01*
X54580041Y-29623716D01*
X54579569Y-29640464D01*
X54578908Y-29657244D01*
X54578057Y-29674055D01*
X54577018Y-29690898D01*
X54575791Y-29707772D01*
X54574374Y-29724678D01*
X54572768Y-29741615D01*
X54570973Y-29758583D01*
X54568990Y-29775584D01*
X54566817Y-29792615D01*
X54564456Y-29809678D01*
X54561906Y-29826773D01*
X54559167Y-29843899D01*
X54556239Y-29861057D01*
X54553067Y-29878130D01*
X54549598Y-29895003D01*
X54545832Y-29911675D01*
X54541767Y-29928147D01*
X54537405Y-29944419D01*
X54532746Y-29960490D01*
X54527788Y-29976361D01*
X54522533Y-29992032D01*
X54516981Y-30007502D01*
X54511130Y-30022772D01*
X54504982Y-30037842D01*
X54498536Y-30052711D01*
X54491793Y-30067380D01*
X54484752Y-30081848D01*
X54477413Y-30096117D01*
X54469777Y-30110184D01*
X54461814Y-30124036D01*
X54453496Y-30137564D01*
X54444824Y-30150769D01*
X54435796Y-30163651D01*
X54426414Y-30176209D01*
X54416677Y-30188443D01*
X54406585Y-30200354D01*
X54396138Y-30211942D01*
X54385336Y-30223206D01*
X54374179Y-30234147D01*
X54362667Y-30244765D01*
X54350800Y-30255059D01*
X54338578Y-30265029D01*
X54326002Y-30274676D01*
X54313070Y-30284000D01*
X54299784Y-30293000D01*
X54286089Y-30301607D01*
X54271934Y-30309658D01*
X54257318Y-30317154D01*
X54242242Y-30324095D01*
X54226704Y-30330481D01*
X54210706Y-30336311D01*
X54194247Y-30341586D01*
X54177326Y-30346306D01*
X54159946Y-30350471D01*
X54142104Y-30354080D01*
X54123802Y-30357134D01*
X54105038Y-30359633D01*
X54085814Y-30361576D01*
X54066129Y-30362964D01*
X54045983Y-30363797D01*
X54025377Y-30364075D01*
X54004770Y-30363797D01*
X53984625Y-30362964D01*
X53964940Y-30361576D01*
X53945716Y-30359633D01*
X53926952Y-30357134D01*
X53908650Y-30354080D01*
X53890808Y-30350471D01*
X53873427Y-30346306D01*
X53856507Y-30341586D01*
X53840048Y-30336311D01*
X53824050Y-30330481D01*
X53808512Y-30324095D01*
X53793435Y-30317154D01*
X53778819Y-30309658D01*
X53764664Y-30301607D01*
X53750970Y-30293000D01*
X53737684Y-30284000D01*
X53724752Y-30274676D01*
X53712176Y-30265029D01*
X53699954Y-30255059D01*
X53688087Y-30244765D01*
X53676575Y-30234147D01*
X53665418Y-30223206D01*
X53654616Y-30211942D01*
X53644169Y-30200354D01*
X53634077Y-30188443D01*
X53624340Y-30176209D01*
X53614957Y-30163651D01*
X53605930Y-30150769D01*
X53597257Y-30137564D01*
X53588940Y-30124036D01*
X53580977Y-30110184D01*
X53573341Y-30096117D01*
X53566002Y-30081848D01*
X53558961Y-30067380D01*
X53552217Y-30052711D01*
X53545772Y-30037842D01*
X53539624Y-30022772D01*
X53533773Y-30007502D01*
X53528221Y-29992032D01*
X53522966Y-29976361D01*
X53518008Y-29960490D01*
X53513348Y-29944419D01*
X53508986Y-29928147D01*
X53504922Y-29911675D01*
X53501155Y-29895003D01*
X53497686Y-29878130D01*
X53494515Y-29861057D01*
X53491587Y-29843899D01*
X53488848Y-29826773D01*
X53486298Y-29809678D01*
X53483936Y-29792615D01*
X53481764Y-29775584D01*
X53479780Y-29758583D01*
X53477986Y-29741615D01*
X53476380Y-29724678D01*
X53474963Y-29707772D01*
X53473735Y-29690898D01*
X53472696Y-29674055D01*
X53471846Y-29657244D01*
X53471185Y-29640464D01*
X53470713Y-29623716D01*
X53470429Y-29606999D01*
X53470335Y-29590314D01*
X53786874Y-29590314D01*
X53786919Y-29601857D01*
X53787119Y-29617900D01*
X53787480Y-29634687D01*
X53788001Y-29652218D01*
X53788682Y-29670493D01*
X53789523Y-29689513D01*
X53790260Y-29704266D01*
X53791086Y-29719437D01*
X53792003Y-29735027D01*
X53792758Y-29745535D01*
X53794150Y-29761199D01*
X53795850Y-29776747D01*
X53797859Y-29792180D01*
X53800177Y-29807496D01*
X53802805Y-29822697D01*
X53805742Y-29837781D01*
X53808987Y-29852750D01*
X53812542Y-29867603D01*
X53816406Y-29882339D01*
X53820579Y-29896960D01*
X53822068Y-29901791D01*
X53826813Y-29916006D01*
X53833791Y-29934307D01*
X53841514Y-29951864D01*
X53849980Y-29968676D01*
X53859191Y-29984745D01*
X53869145Y-30000069D01*
X53879844Y-30014649D01*
X53891288Y-30028485D01*
X53900559Y-30038175D01*
X53913983Y-30049613D01*
X53928620Y-30059356D01*
X53944471Y-30067404D01*
X53961536Y-30073758D01*
X53979814Y-30078418D01*
X53994319Y-30080801D01*
X54009507Y-30082231D01*
X54025377Y-30082707D01*
X54030608Y-30082654D01*
X54045882Y-30081860D01*
X54065265Y-30079318D01*
X54083526Y-30075082D01*
X54100665Y-30069152D01*
X54116682Y-30061527D01*
X54131577Y-30052207D01*
X54145350Y-30041193D01*
X54158001Y-30028485D01*
X54163991Y-30021660D01*
X54175372Y-30007452D01*
X54185950Y-29992500D01*
X54195728Y-29976804D01*
X54204704Y-29960363D01*
X54212878Y-29943178D01*
X54220251Y-29925249D01*
X54225255Y-29911314D01*
X54229808Y-29896960D01*
X54232668Y-29887226D01*
X54236688Y-29872528D01*
X54240387Y-29857714D01*
X54243764Y-29842784D01*
X54246818Y-29827738D01*
X54249551Y-29812576D01*
X54251962Y-29797298D01*
X54254050Y-29781904D01*
X54255817Y-29766394D01*
X54257262Y-29750769D01*
X54258385Y-29735027D01*
X54259050Y-29724587D01*
X54259968Y-29709276D01*
X54260789Y-29694384D01*
X54261733Y-29675178D01*
X54262506Y-29656717D01*
X54263107Y-29639000D01*
X54263537Y-29622027D01*
X54263794Y-29605798D01*
X54263880Y-29590314D01*
X54263832Y-29578770D01*
X54263617Y-29562727D01*
X54263231Y-29545940D01*
X54262673Y-29528409D01*
X54261943Y-29510134D01*
X54261041Y-29491114D01*
X54260252Y-29476361D01*
X54259367Y-29461190D01*
X54258385Y-29445600D01*
X54257672Y-29435092D01*
X54256335Y-29419428D01*
X54254675Y-29403880D01*
X54252694Y-29388448D01*
X54250390Y-29373131D01*
X54247765Y-29357931D01*
X54244818Y-29342846D01*
X54241548Y-29327877D01*
X54237957Y-29313024D01*
X54234044Y-29298288D01*
X54229808Y-29283667D01*
X54226823Y-29274050D01*
X54221969Y-29259967D01*
X54216665Y-29246297D01*
X54208891Y-29228712D01*
X54200316Y-29211859D01*
X54190939Y-29195739D01*
X54180761Y-29180352D01*
X54169782Y-29165697D01*
X54158001Y-29151775D01*
X54151816Y-29145254D01*
X54138603Y-29133473D01*
X54124269Y-29123375D01*
X54108814Y-29114960D01*
X54092236Y-29108228D01*
X54074536Y-29103179D01*
X54055714Y-29099813D01*
X54040861Y-29098393D01*
X54025377Y-29097920D01*
X54014721Y-29098130D01*
X53999306Y-29099235D01*
X53984573Y-29101286D01*
X53965992Y-29105493D01*
X53948624Y-29111384D01*
X53932469Y-29118957D01*
X53917528Y-29128214D01*
X53903801Y-29139153D01*
X53891288Y-29151775D01*
X53885473Y-29158645D01*
X53874402Y-29172933D01*
X53864075Y-29187954D01*
X53854492Y-29203708D01*
X53845654Y-29220194D01*
X53837559Y-29237413D01*
X53830209Y-29255365D01*
X53825185Y-29269310D01*
X53820579Y-29283667D01*
X53817763Y-29293401D01*
X53813796Y-29308099D01*
X53810138Y-29322913D01*
X53806789Y-29337843D01*
X53803749Y-29352889D01*
X53801019Y-29368051D01*
X53798597Y-29383329D01*
X53796485Y-29398723D01*
X53794682Y-29414233D01*
X53793188Y-29429858D01*
X53792003Y-29445600D01*
X53791382Y-29456040D01*
X53790525Y-29471351D01*
X53789759Y-29486243D01*
X53788877Y-29505449D01*
X53788156Y-29523910D01*
X53787595Y-29541627D01*
X53787194Y-29558600D01*
X53786954Y-29574829D01*
X53786874Y-29590314D01*
X53470335Y-29590314D01*
X53470429Y-29573628D01*
X53470713Y-29556911D01*
X53471185Y-29540163D01*
X53471846Y-29523383D01*
X53472696Y-29506572D01*
X53473735Y-29489729D01*
X53474963Y-29472855D01*
X53476380Y-29455949D01*
X53477986Y-29439012D01*
X53479780Y-29422044D01*
X53481764Y-29405043D01*
X53483936Y-29388012D01*
X53486298Y-29370949D01*
X53488848Y-29353854D01*
X53491587Y-29336728D01*
X53494515Y-29319570D01*
X53497686Y-29302496D01*
X53501155Y-29285619D01*
X53504922Y-29268939D01*
X53508986Y-29252457D01*
X53513348Y-29236172D01*
X53518008Y-29220085D01*
X53522966Y-29204196D01*
X53528221Y-29188504D01*
X53533773Y-29173009D01*
X53539624Y-29157712D01*
X53545772Y-29142612D01*
X53552217Y-29127710D01*
X53558961Y-29113005D01*
X53566002Y-29098498D01*
X53573341Y-29084188D01*
X53580977Y-29070076D01*
X53588940Y-29056267D01*
X53597257Y-29042776D01*
X53605930Y-29029603D01*
X53614957Y-29016747D01*
X53624340Y-29004209D01*
X53634077Y-28991989D01*
X53644169Y-28980087D01*
X53654616Y-28968502D01*
X53665418Y-28957235D01*
X53676575Y-28946285D01*
X53688087Y-28935653D01*
X53699954Y-28925339D01*
X53712176Y-28915343D01*
X53724752Y-28905665D01*
X53737684Y-28896304D01*
X53750970Y-28887260D01*
X53764664Y-28878698D01*
X53778819Y-28870688D01*
X53793435Y-28863231D01*
X53808512Y-28856326D01*
X53824050Y-28849973D01*
X53840048Y-28844173D01*
X53856507Y-28838925D01*
X53873427Y-28834229D01*
X53890808Y-28830086D01*
X53908650Y-28826496D01*
X53926952Y-28823457D01*
X53945716Y-28820971D01*
X53964940Y-28819038D01*
X53984625Y-28817657D01*
X54004770Y-28816828D01*
X54025377Y-28816552D01*
X54045983Y-28816828D01*
G37*
G36*
X54746748Y-29179619D02*
G01*
X55327069Y-29706817D01*
X55338152Y-29717150D01*
X55349234Y-29727815D01*
X55360317Y-29738811D01*
X55371399Y-29750140D01*
X55382482Y-29761801D01*
X55393564Y-29773793D01*
X55404647Y-29786118D01*
X55415729Y-29798775D01*
X55426119Y-29811861D01*
X55435124Y-29825474D01*
X55442743Y-29839613D01*
X55448977Y-29854279D01*
X55453825Y-29869472D01*
X55457289Y-29885191D01*
X55459367Y-29901437D01*
X55460059Y-29918210D01*
X55459201Y-29936923D01*
X55456625Y-29954594D01*
X55452331Y-29971224D01*
X55446321Y-29986811D01*
X55438593Y-30001357D01*
X55429147Y-30014861D01*
X55417985Y-30027323D01*
X55405105Y-30038743D01*
X55391074Y-30049047D01*
X55376460Y-30057978D01*
X55361261Y-30065534D01*
X55345479Y-30071716D01*
X55329113Y-30076525D01*
X55312163Y-30079959D01*
X55294629Y-30082020D01*
X55276511Y-30082707D01*
X55260228Y-30082224D01*
X55244629Y-30080775D01*
X55229711Y-30078360D01*
X55210884Y-30073637D01*
X55193270Y-30067197D01*
X55176869Y-30059040D01*
X55161682Y-30049165D01*
X55147709Y-30037573D01*
X55138025Y-30027752D01*
X55126336Y-30013705D01*
X55115998Y-29998855D01*
X55107010Y-29983205D01*
X55099374Y-29966753D01*
X55093088Y-29949499D01*
X55088154Y-29931444D01*
X55084570Y-29912588D01*
X55082769Y-29897920D01*
X55082338Y-29892930D01*
X54765799Y-29916011D01*
X54767282Y-29937497D01*
X54769397Y-29958404D01*
X54772142Y-29978730D01*
X54775519Y-29998478D01*
X54779527Y-30017645D01*
X54784166Y-30036233D01*
X54789436Y-30054242D01*
X54795337Y-30071670D01*
X54801870Y-30088520D01*
X54809033Y-30104789D01*
X54814159Y-30115314D01*
X54822366Y-30130724D01*
X54831049Y-30145633D01*
X54840209Y-30160039D01*
X54849845Y-30173943D01*
X54859958Y-30187345D01*
X54870548Y-30200244D01*
X54881614Y-30212641D01*
X54893156Y-30224536D01*
X54905176Y-30235928D01*
X54917671Y-30246818D01*
X54926267Y-30253799D01*
X54939531Y-30263927D01*
X54953220Y-30273566D01*
X54967335Y-30282715D01*
X54981874Y-30291374D01*
X54996838Y-30299545D01*
X55012228Y-30307225D01*
X55028042Y-30314417D01*
X55044282Y-30321119D01*
X55060946Y-30327331D01*
X55078036Y-30333054D01*
X55089665Y-30336598D01*
X55107392Y-30341508D01*
X55125403Y-30345936D01*
X55143697Y-30349880D01*
X55162274Y-30353342D01*
X55181135Y-30356320D01*
X55200278Y-30358816D01*
X55219706Y-30360828D01*
X55239417Y-30362358D01*
X55259411Y-30363404D01*
X55279688Y-30363968D01*
X55293364Y-30364075D01*
X55312214Y-30363824D01*
X55330844Y-30363070D01*
X55349256Y-30361814D01*
X55367449Y-30360056D01*
X55385423Y-30357796D01*
X55403178Y-30355033D01*
X55420715Y-30351768D01*
X55438032Y-30348001D01*
X55455130Y-30343731D01*
X55472009Y-30338959D01*
X55483140Y-30335498D01*
X55499558Y-30329899D01*
X55515564Y-30323816D01*
X55531157Y-30317251D01*
X55546338Y-30310202D01*
X55561107Y-30302671D01*
X55575464Y-30294656D01*
X55589409Y-30286158D01*
X55602941Y-30277178D01*
X55616062Y-30267714D01*
X55628770Y-30257768D01*
X55637013Y-30250868D01*
X55649058Y-30240173D01*
X55660601Y-30228968D01*
X55671641Y-30217255D01*
X55682179Y-30205033D01*
X55692215Y-30192302D01*
X55701748Y-30179062D01*
X55710779Y-30165314D01*
X55719308Y-30151057D01*
X55727334Y-30136291D01*
X55734858Y-30121017D01*
X55739595Y-30110551D01*
X55746208Y-30094441D01*
X55752170Y-30077848D01*
X55757482Y-30060773D01*
X55762144Y-30043214D01*
X55766155Y-30025173D01*
X55769516Y-30006648D01*
X55772226Y-29987640D01*
X55774285Y-29968150D01*
X55775695Y-29948176D01*
X55776454Y-29927719D01*
X55776598Y-29913813D01*
X55776363Y-29896073D01*
X55775659Y-29878757D01*
X55774486Y-29861864D01*
X55772843Y-29845395D01*
X55770731Y-29829349D01*
X55768149Y-29813727D01*
X55765098Y-29798529D01*
X55761577Y-29783754D01*
X55757730Y-29769443D01*
X55752407Y-29752005D01*
X55746510Y-29735067D01*
X55740042Y-29718631D01*
X55733001Y-29702696D01*
X55725387Y-29687261D01*
X55720544Y-29678241D01*
X55712069Y-29663536D01*
X55703128Y-29649189D01*
X55693722Y-29635200D01*
X55683851Y-29621569D01*
X55673515Y-29608295D01*
X55662713Y-29595380D01*
X55658262Y-29590314D01*
X55646987Y-29577879D01*
X55635372Y-29565534D01*
X55623417Y-29553278D01*
X55611122Y-29541112D01*
X55598487Y-29529035D01*
X55585512Y-29517048D01*
X55580227Y-29512278D01*
X55126668Y-29121367D01*
X55789421Y-29121367D01*
X55789421Y-28840000D01*
X54746748Y-28840000D01*
X54746748Y-29179619D01*
G37*
G36*
X56341898Y-29754445D02*
G01*
X56445213Y-29754445D01*
X56461759Y-29754664D01*
X56478151Y-29755321D01*
X56494389Y-29756415D01*
X56510472Y-29757948D01*
X56526400Y-29759919D01*
X56531675Y-29760673D01*
X56547341Y-29763558D01*
X56562467Y-29767267D01*
X56577051Y-29771801D01*
X56591095Y-29777159D01*
X56604597Y-29783342D01*
X56608978Y-29785586D01*
X56623539Y-29794301D01*
X56636767Y-29804419D01*
X56648663Y-29815940D01*
X56659227Y-29828862D01*
X56664665Y-29836877D01*
X56671886Y-29850100D01*
X56677614Y-29864766D01*
X56681847Y-29880875D01*
X56684233Y-29895401D01*
X56685582Y-29910928D01*
X56685914Y-29924071D01*
X56685073Y-29940833D01*
X56682548Y-29956861D01*
X56678341Y-29972157D01*
X56672450Y-29986720D01*
X56664877Y-30000550D01*
X56655620Y-30013647D01*
X56644681Y-30026012D01*
X56632059Y-30037644D01*
X56618217Y-30048206D01*
X56603620Y-30057359D01*
X56588267Y-30065104D01*
X56572158Y-30071441D01*
X56555294Y-30076370D01*
X56537674Y-30079891D01*
X56519299Y-30082003D01*
X56500168Y-30082707D01*
X56482147Y-30082077D01*
X56464905Y-30080188D01*
X56448441Y-30077040D01*
X56432757Y-30072632D01*
X56417850Y-30066965D01*
X56403722Y-30060038D01*
X56390373Y-30051852D01*
X56377802Y-30042407D01*
X56366233Y-30032126D01*
X56355706Y-30021250D01*
X56346220Y-30009778D01*
X56337777Y-29997711D01*
X56330375Y-29985048D01*
X56324015Y-29971790D01*
X56318697Y-29957937D01*
X56314421Y-29943489D01*
X55966375Y-30015296D01*
X55971337Y-30033033D01*
X55976743Y-30050248D01*
X55982594Y-30066942D01*
X55988889Y-30083114D01*
X55995628Y-30098764D01*
X56002812Y-30113892D01*
X56010440Y-30128499D01*
X56018513Y-30142585D01*
X56027030Y-30156148D01*
X56035991Y-30169191D01*
X56042212Y-30177595D01*
X56051859Y-30189804D01*
X56061841Y-30201561D01*
X56072158Y-30212867D01*
X56082810Y-30223723D01*
X56093797Y-30234128D01*
X56105118Y-30244082D01*
X56116774Y-30253585D01*
X56128766Y-30262638D01*
X56141092Y-30271239D01*
X56153753Y-30279390D01*
X56162380Y-30284574D01*
X56175635Y-30292012D01*
X56189161Y-30299077D01*
X56202958Y-30305768D01*
X56217025Y-30312085D01*
X56231363Y-30318030D01*
X56245971Y-30323600D01*
X56260849Y-30328797D01*
X56275998Y-30333621D01*
X56291418Y-30338071D01*
X56307108Y-30342147D01*
X56317718Y-30344658D01*
X56333807Y-30348128D01*
X56350064Y-30351256D01*
X56366488Y-30354044D01*
X56383080Y-30356490D01*
X56399839Y-30358595D01*
X56416765Y-30360358D01*
X56433859Y-30361780D01*
X56451121Y-30362861D01*
X56468549Y-30363601D01*
X56486146Y-30363999D01*
X56497969Y-30364075D01*
X56516518Y-30363862D01*
X56534931Y-30363225D01*
X56553208Y-30362162D01*
X56571351Y-30360675D01*
X56589358Y-30358762D01*
X56607230Y-30356424D01*
X56624967Y-30353661D01*
X56642569Y-30350474D01*
X56660035Y-30346861D01*
X56677366Y-30342823D01*
X56688845Y-30339895D01*
X56705891Y-30335120D01*
X56722544Y-30329861D01*
X56738803Y-30324120D01*
X56754671Y-30317896D01*
X56770145Y-30311189D01*
X56785226Y-30303998D01*
X56799915Y-30296325D01*
X56814210Y-30288169D01*
X56828113Y-30279530D01*
X56841623Y-30270407D01*
X56850412Y-30264057D01*
X56863212Y-30254140D01*
X56875511Y-30243759D01*
X56887307Y-30232914D01*
X56898600Y-30221605D01*
X56909391Y-30209833D01*
X56919680Y-30197597D01*
X56929467Y-30184897D01*
X56938751Y-30171734D01*
X56947533Y-30158107D01*
X56955813Y-30144016D01*
X56961054Y-30134364D01*
X56968452Y-30119475D01*
X56975123Y-30104071D01*
X56981066Y-30088151D01*
X56986281Y-30071716D01*
X56990769Y-30054766D01*
X56994529Y-30037301D01*
X56997561Y-30019320D01*
X56999866Y-30000825D01*
X57001442Y-29981814D01*
X57002291Y-29962288D01*
X57002453Y-29948984D01*
X57002197Y-29933554D01*
X57001428Y-29918404D01*
X57000147Y-29903535D01*
X56998354Y-29888946D01*
X56994704Y-29867589D01*
X56989901Y-29846863D01*
X56983945Y-29826768D01*
X56976836Y-29807304D01*
X56968575Y-29788472D01*
X56959160Y-29770270D01*
X56948593Y-29752699D01*
X56936874Y-29735760D01*
X56924125Y-29719759D01*
X56910332Y-29704865D01*
X56895497Y-29691079D01*
X56879618Y-29678401D01*
X56862696Y-29666831D01*
X56844730Y-29656368D01*
X56825722Y-29647013D01*
X56805670Y-29638765D01*
X56791722Y-29633882D01*
X56777311Y-29629492D01*
X56762436Y-29625593D01*
X56747097Y-29622187D01*
X56747097Y-29615959D01*
X56763704Y-29613486D01*
X56779818Y-29610280D01*
X56795440Y-29606342D01*
X56810570Y-29601671D01*
X56825207Y-29596267D01*
X56839352Y-29590130D01*
X56853005Y-29583261D01*
X56866165Y-29575659D01*
X56878914Y-29567462D01*
X56891147Y-29558806D01*
X56902865Y-29549693D01*
X56914068Y-29540122D01*
X56924755Y-29530092D01*
X56937390Y-29516912D01*
X56949220Y-29503016D01*
X56953727Y-29497257D01*
X56962439Y-29485419D01*
X56970625Y-29473169D01*
X56978284Y-29460506D01*
X56985417Y-29447431D01*
X56992023Y-29433945D01*
X56998102Y-29420046D01*
X57003655Y-29405735D01*
X57008681Y-29391011D01*
X57013146Y-29376076D01*
X57017016Y-29360947D01*
X57020290Y-29345622D01*
X57022969Y-29330103D01*
X57025053Y-29314390D01*
X57026541Y-29298481D01*
X57027434Y-29282379D01*
X57027732Y-29266081D01*
X57027352Y-29245234D01*
X57026212Y-29224869D01*
X57024312Y-29204988D01*
X57021653Y-29185590D01*
X57018233Y-29166674D01*
X57014054Y-29148242D01*
X57009114Y-29130293D01*
X57003415Y-29112826D01*
X56996955Y-29095843D01*
X56989736Y-29079343D01*
X56984501Y-29068611D01*
X56976134Y-29052991D01*
X56967246Y-29037866D01*
X56957836Y-29023238D01*
X56947905Y-29009105D01*
X56937452Y-28995469D01*
X56926477Y-28982328D01*
X56914980Y-28969683D01*
X56902962Y-28957534D01*
X56890422Y-28945881D01*
X56877361Y-28934723D01*
X56868364Y-28927561D01*
X56854471Y-28917302D01*
X56840135Y-28907545D01*
X56825354Y-28898291D01*
X56810129Y-28889539D01*
X56794459Y-28881289D01*
X56778345Y-28873542D01*
X56761787Y-28866297D01*
X56744784Y-28859554D01*
X56727337Y-28853314D01*
X56709446Y-28847576D01*
X56697272Y-28844030D01*
X56678824Y-28839119D01*
X56660164Y-28834692D01*
X56641292Y-28830747D01*
X56622207Y-28827286D01*
X56602909Y-28824307D01*
X56583400Y-28821812D01*
X56563677Y-28819799D01*
X56543742Y-28818270D01*
X56523594Y-28817223D01*
X56503234Y-28816660D01*
X56489543Y-28816552D01*
X56464710Y-28816903D01*
X56440313Y-28817955D01*
X56416350Y-28819708D01*
X56392823Y-28822162D01*
X56369730Y-28825318D01*
X56347073Y-28829175D01*
X56324851Y-28833733D01*
X56303064Y-28838992D01*
X56281711Y-28844953D01*
X56260794Y-28851614D01*
X56240312Y-28858977D01*
X56220265Y-28867042D01*
X56200653Y-28875807D01*
X56181476Y-28885274D01*
X56162735Y-28895442D01*
X56144428Y-28906311D01*
X56126767Y-28917949D01*
X56109869Y-28930423D01*
X56093736Y-28943732D01*
X56078368Y-28957877D01*
X56063763Y-28972858D01*
X56049923Y-28988675D01*
X56036847Y-29005327D01*
X56024535Y-29022815D01*
X56012988Y-29041139D01*
X56002204Y-29060299D01*
X55992185Y-29080294D01*
X55982930Y-29101126D01*
X55974439Y-29122793D01*
X55966713Y-29145295D01*
X55959750Y-29168634D01*
X55953552Y-29192808D01*
X56286944Y-29270844D01*
X56290409Y-29256096D01*
X56294487Y-29241941D01*
X56300875Y-29223989D01*
X56308352Y-29207091D01*
X56316915Y-29191246D01*
X56326567Y-29176454D01*
X56337306Y-29162715D01*
X56349132Y-29150030D01*
X56355454Y-29144082D01*
X56369227Y-29133263D01*
X56384534Y-29123886D01*
X56401375Y-29115952D01*
X56419751Y-29109460D01*
X56434539Y-29105538D01*
X56450190Y-29102428D01*
X56466705Y-29100129D01*
X56484082Y-29098641D01*
X56502322Y-29097965D01*
X56508594Y-29097920D01*
X56527492Y-29098406D01*
X56545444Y-29099865D01*
X56562448Y-29102296D01*
X56578507Y-29105699D01*
X56593618Y-29110075D01*
X56607783Y-29115424D01*
X56625197Y-29124068D01*
X56640927Y-29134440D01*
X56654975Y-29146542D01*
X56661368Y-29153241D01*
X56673046Y-29167564D01*
X56683167Y-29182871D01*
X56691730Y-29199162D01*
X56698737Y-29216439D01*
X56704187Y-29234700D01*
X56707252Y-29249042D01*
X56709442Y-29263937D01*
X56710755Y-29279387D01*
X56711193Y-29295390D01*
X56710781Y-29311150D01*
X56709545Y-29326005D01*
X56706840Y-29343301D01*
X56702847Y-29359185D01*
X56697566Y-29373655D01*
X56689529Y-29389154D01*
X56684815Y-29396140D01*
X56674369Y-29408947D01*
X56662816Y-29420441D01*
X56650155Y-29430620D01*
X56636386Y-29439486D01*
X56621510Y-29447038D01*
X56616305Y-29449263D01*
X56600132Y-29455231D01*
X56586084Y-29459456D01*
X56571517Y-29463002D01*
X56556431Y-29465868D01*
X56540827Y-29468054D01*
X56524704Y-29469560D01*
X56521417Y-29469780D01*
X56504930Y-29470730D01*
X56488444Y-29471518D01*
X56471958Y-29472146D01*
X56455471Y-29472613D01*
X56438985Y-29472919D01*
X56422498Y-29473064D01*
X56415904Y-29473077D01*
X56341898Y-29473077D01*
X56341898Y-29754445D01*
G37*
D11*
G36*
X37183315Y-165440628D02*
G01*
X37512310Y-165440628D01*
X37512310Y-164877892D01*
X38151982Y-164877892D01*
X38151982Y-165440628D01*
X38480977Y-165440628D01*
X38480977Y-163940000D01*
X38151982Y-163940000D01*
X38151982Y-164596524D01*
X37512310Y-164596524D01*
X37512310Y-163940000D01*
X37183315Y-163940000D01*
X37183315Y-165440628D01*
G37*
G36*
X38771870Y-165440628D02*
G01*
X39101232Y-165440628D01*
X39101232Y-163940000D01*
X38771870Y-163940000D01*
X38771870Y-165440628D01*
G37*
G36*
X40750237Y-164038551D02*
G01*
X40732006Y-164029102D01*
X40713675Y-164019987D01*
X40695244Y-164011207D01*
X40676712Y-164002762D01*
X40658081Y-163994652D01*
X40639349Y-163986877D01*
X40620517Y-163979437D01*
X40601585Y-163972331D01*
X40582553Y-163965561D01*
X40563420Y-163959125D01*
X40544187Y-163953024D01*
X40524854Y-163947258D01*
X40505421Y-163941827D01*
X40485888Y-163936731D01*
X40466255Y-163931970D01*
X40446521Y-163927543D01*
X40426712Y-163923373D01*
X40406851Y-163919472D01*
X40386938Y-163915839D01*
X40366974Y-163912476D01*
X40346959Y-163909382D01*
X40326892Y-163906557D01*
X40306773Y-163904001D01*
X40286603Y-163901714D01*
X40266382Y-163899697D01*
X40246109Y-163897948D01*
X40225784Y-163896468D01*
X40205408Y-163895257D01*
X40184980Y-163894316D01*
X40164501Y-163893643D01*
X40143970Y-163893239D01*
X40123388Y-163893105D01*
X40101605Y-163893320D01*
X40080037Y-163893964D01*
X40058683Y-163895037D01*
X40037544Y-163896540D01*
X40016620Y-163898472D01*
X39995910Y-163900833D01*
X39975415Y-163903624D01*
X39955135Y-163906844D01*
X39935070Y-163910493D01*
X39915219Y-163914572D01*
X39895582Y-163919080D01*
X39876161Y-163924017D01*
X39856954Y-163929384D01*
X39837962Y-163935180D01*
X39819184Y-163941405D01*
X39800621Y-163948060D01*
X39782321Y-163955113D01*
X39764334Y-163962537D01*
X39746658Y-163970329D01*
X39729294Y-163978491D01*
X39712243Y-163987021D01*
X39695503Y-163995922D01*
X39679075Y-164005191D01*
X39662960Y-164014829D01*
X39647156Y-164024837D01*
X39631664Y-164035214D01*
X39616484Y-164045960D01*
X39601617Y-164057076D01*
X39587061Y-164068560D01*
X39572817Y-164080414D01*
X39558885Y-164092637D01*
X39545265Y-164105230D01*
X39531987Y-164118220D01*
X39519082Y-164131545D01*
X39506548Y-164145205D01*
X39494386Y-164159200D01*
X39482597Y-164173530D01*
X39471179Y-164188194D01*
X39460134Y-164203194D01*
X39449461Y-164218528D01*
X39439160Y-164234197D01*
X39429231Y-164250201D01*
X39419674Y-164266540D01*
X39410489Y-164283214D01*
X39401676Y-164300223D01*
X39393235Y-164317567D01*
X39385167Y-164335245D01*
X39377470Y-164353258D01*
X39370195Y-164371617D01*
X39363388Y-164390238D01*
X39357051Y-164409123D01*
X39351184Y-164428271D01*
X39345786Y-164447683D01*
X39340857Y-164467358D01*
X39336397Y-164487296D01*
X39332407Y-164507498D01*
X39328887Y-164527963D01*
X39325836Y-164548691D01*
X39323254Y-164569682D01*
X39321142Y-164590937D01*
X39319499Y-164612455D01*
X39318325Y-164634237D01*
X39317621Y-164656282D01*
X39317387Y-164678590D01*
X39317621Y-164700897D01*
X39318325Y-164722937D01*
X39319499Y-164744711D01*
X39321142Y-164766220D01*
X39323254Y-164787462D01*
X39325836Y-164808437D01*
X39328887Y-164829147D01*
X39332407Y-164849590D01*
X39336397Y-164869768D01*
X39340857Y-164889679D01*
X39345786Y-164909324D01*
X39351184Y-164928702D01*
X39357051Y-164947815D01*
X39363388Y-164966661D01*
X39370195Y-164985241D01*
X39377470Y-165003555D01*
X39385167Y-165021611D01*
X39393235Y-165039327D01*
X39401676Y-165056702D01*
X39410489Y-165073737D01*
X39419674Y-165090431D01*
X39429231Y-165106784D01*
X39439160Y-165122797D01*
X39449461Y-165138469D01*
X39460134Y-165153800D01*
X39471179Y-165168791D01*
X39482597Y-165183441D01*
X39494386Y-165197751D01*
X39506548Y-165211720D01*
X39519082Y-165225348D01*
X39531987Y-165238636D01*
X39545265Y-165251584D01*
X39558885Y-165264220D01*
X39572817Y-165276485D01*
X39587061Y-165288377D01*
X39601617Y-165299898D01*
X39616484Y-165311046D01*
X39631664Y-165321822D01*
X39647156Y-165332227D01*
X39662960Y-165342259D01*
X39679075Y-165351919D01*
X39695503Y-165361207D01*
X39712243Y-165370122D01*
X39729294Y-165378666D01*
X39746658Y-165386838D01*
X39764334Y-165394637D01*
X39782321Y-165402065D01*
X39800621Y-165409120D01*
X39819184Y-165415775D01*
X39837962Y-165422000D01*
X39856954Y-165427796D01*
X39876161Y-165433163D01*
X39895582Y-165438100D01*
X39915219Y-165442608D01*
X39935070Y-165446687D01*
X39955135Y-165450336D01*
X39975415Y-165453556D01*
X39995910Y-165456347D01*
X40016620Y-165458708D01*
X40037544Y-165460640D01*
X40058683Y-165462143D01*
X40080037Y-165463216D01*
X40101605Y-165463860D01*
X40123388Y-165464075D01*
X40145715Y-165463905D01*
X40167815Y-165463394D01*
X40189690Y-165462542D01*
X40211338Y-165461350D01*
X40232761Y-165459817D01*
X40253957Y-165457944D01*
X40274927Y-165455730D01*
X40295671Y-165453176D01*
X40316189Y-165450280D01*
X40336480Y-165447045D01*
X40356546Y-165443468D01*
X40376385Y-165439551D01*
X40395999Y-165435294D01*
X40415386Y-165430696D01*
X40434547Y-165425757D01*
X40453482Y-165420478D01*
X40472205Y-165414829D01*
X40490640Y-165408691D01*
X40508785Y-165402063D01*
X40526641Y-165394947D01*
X40544207Y-165387340D01*
X40561485Y-165379244D01*
X40578474Y-165370659D01*
X40595174Y-165361584D01*
X40611584Y-165352020D01*
X40627706Y-165341967D01*
X40643538Y-165331424D01*
X40659081Y-165320391D01*
X40674335Y-165308870D01*
X40689301Y-165296858D01*
X40703977Y-165284357D01*
X40718364Y-165271367D01*
X40486455Y-165017843D01*
X40473664Y-165030599D01*
X40460570Y-165042762D01*
X40447174Y-165054332D01*
X40433475Y-165065310D01*
X40419474Y-165075696D01*
X40405169Y-165085489D01*
X40390562Y-165094690D01*
X40375653Y-165103298D01*
X40360440Y-165111313D01*
X40344925Y-165118736D01*
X40334414Y-165123356D01*
X40318241Y-165129772D01*
X40301321Y-165135558D01*
X40283654Y-165140712D01*
X40265240Y-165145235D01*
X40246078Y-165149127D01*
X40226170Y-165152388D01*
X40205515Y-165155017D01*
X40184113Y-165157016D01*
X40169430Y-165157998D01*
X40154414Y-165158699D01*
X40139067Y-165159120D01*
X40123388Y-165159260D01*
X40103781Y-165158944D01*
X40084529Y-165157998D01*
X40065631Y-165156420D01*
X40047087Y-165154211D01*
X40028897Y-165151371D01*
X40011062Y-165147900D01*
X39993580Y-165143797D01*
X39976453Y-165139064D01*
X39959680Y-165133699D01*
X39943261Y-165127704D01*
X39932512Y-165123356D01*
X39916719Y-165116373D01*
X39901351Y-165108888D01*
X39886408Y-165100900D01*
X39871890Y-165092410D01*
X39857797Y-165083417D01*
X39844130Y-165073923D01*
X39830887Y-165063926D01*
X39818069Y-165053426D01*
X39805676Y-165042425D01*
X39793709Y-165030921D01*
X39785966Y-165022972D01*
X39774743Y-165010735D01*
X39764015Y-164998067D01*
X39753783Y-164984967D01*
X39744046Y-164971435D01*
X39734806Y-164957472D01*
X39726062Y-164943078D01*
X39717813Y-164928252D01*
X39710060Y-164912994D01*
X39702804Y-164897305D01*
X39696043Y-164881185D01*
X39691811Y-164870198D01*
X39685984Y-164853511D01*
X39680730Y-164836560D01*
X39676049Y-164819345D01*
X39671941Y-164801866D01*
X39668407Y-164784122D01*
X39665445Y-164766115D01*
X39663057Y-164747844D01*
X39661242Y-164729308D01*
X39660000Y-164710509D01*
X39659332Y-164691446D01*
X39659204Y-164678590D01*
X39659491Y-164658964D01*
X39660351Y-164639654D01*
X39661784Y-164620659D01*
X39663790Y-164601980D01*
X39666369Y-164583616D01*
X39669521Y-164565568D01*
X39673247Y-164547835D01*
X39677546Y-164530418D01*
X39682417Y-164513317D01*
X39687862Y-164496531D01*
X39691811Y-164485516D01*
X39698241Y-164469367D01*
X39705167Y-164453616D01*
X39712589Y-164438266D01*
X39720507Y-164423314D01*
X39728921Y-164408762D01*
X39737831Y-164394609D01*
X39747237Y-164380855D01*
X39757138Y-164367501D01*
X39767536Y-164354546D01*
X39778429Y-164341990D01*
X39785966Y-164333841D01*
X39797651Y-164322068D01*
X39809760Y-164310790D01*
X39822294Y-164300009D01*
X39835254Y-164289723D01*
X39848638Y-164279933D01*
X39862448Y-164270639D01*
X39876682Y-164261841D01*
X39891342Y-164253539D01*
X39906427Y-164245732D01*
X39921936Y-164238422D01*
X39932512Y-164233824D01*
X39948695Y-164227407D01*
X39965232Y-164221622D01*
X39982123Y-164216468D01*
X39999368Y-164211945D01*
X40016967Y-164208053D01*
X40034921Y-164204792D01*
X40053229Y-164202162D01*
X40071891Y-164200164D01*
X40090907Y-164198797D01*
X40110278Y-164198060D01*
X40123388Y-164197920D01*
X40143323Y-164198139D01*
X40162736Y-164198796D01*
X40181628Y-164199891D01*
X40199998Y-164201423D01*
X40217847Y-164203394D01*
X40235173Y-164205803D01*
X40251979Y-164208649D01*
X40268262Y-164211933D01*
X40284024Y-164215656D01*
X40299264Y-164219816D01*
X40309135Y-164222833D01*
X40323489Y-164227582D01*
X40341768Y-164233945D01*
X40359061Y-164240342D01*
X40375370Y-164246773D01*
X40390694Y-164253239D01*
X40405034Y-164259739D01*
X40418389Y-164266274D01*
X40433698Y-164274490D01*
X40433698Y-164526182D01*
X40165520Y-164526182D01*
X40165520Y-164830997D01*
X40750237Y-164830997D01*
X40750237Y-164038551D01*
G37*
G36*
X41030140Y-165440628D02*
G01*
X41359135Y-165440628D01*
X41359135Y-164877892D01*
X41998807Y-164877892D01*
X41998807Y-165440628D01*
X42327802Y-165440628D01*
X42327802Y-163940000D01*
X41998807Y-163940000D01*
X41998807Y-164596524D01*
X41359135Y-164596524D01*
X41359135Y-163940000D01*
X41030140Y-163940000D01*
X41030140Y-165440628D01*
G37*
G36*
X43573440Y-164526182D02*
G01*
X43814142Y-164526182D01*
X43828822Y-164526268D01*
X43850596Y-164526719D01*
X43872073Y-164527556D01*
X43893254Y-164528780D01*
X43914139Y-164530390D01*
X43934728Y-164532386D01*
X43955020Y-164534769D01*
X43975016Y-164537538D01*
X43994716Y-164540694D01*
X44014120Y-164544236D01*
X44033227Y-164548164D01*
X44045805Y-164551076D01*
X44064270Y-164555890D01*
X44082252Y-164561239D01*
X44099750Y-164567122D01*
X44116766Y-164573539D01*
X44133298Y-164580491D01*
X44149348Y-164587978D01*
X44164914Y-164595999D01*
X44179998Y-164604554D01*
X44194598Y-164613644D01*
X44208716Y-164623269D01*
X44217842Y-164630049D01*
X44231065Y-164640746D01*
X44243727Y-164652074D01*
X44255828Y-164664033D01*
X44267370Y-164676624D01*
X44278351Y-164689845D01*
X44288772Y-164703697D01*
X44298633Y-164718181D01*
X44307933Y-164733295D01*
X44316674Y-164749041D01*
X44324853Y-164765418D01*
X44329955Y-164776711D01*
X44336991Y-164794268D01*
X44343286Y-164812565D01*
X44348841Y-164831602D01*
X44353654Y-164851381D01*
X44357728Y-164871900D01*
X44361060Y-164893159D01*
X44362871Y-164907744D01*
X44364352Y-164922657D01*
X44365504Y-164937900D01*
X44366327Y-164953472D01*
X44366821Y-164969373D01*
X44366985Y-164985603D01*
X44366941Y-164993893D01*
X44366586Y-165010205D01*
X44365876Y-165026159D01*
X44364811Y-165041755D01*
X44363392Y-165056994D01*
X44361617Y-165071874D01*
X44358290Y-165093525D01*
X44354164Y-165114370D01*
X44349240Y-165134410D01*
X44343517Y-165153645D01*
X44336995Y-165172075D01*
X44329675Y-165189701D01*
X44321556Y-165206521D01*
X44315754Y-165217370D01*
X44306590Y-165233113D01*
X44296872Y-165248218D01*
X44286601Y-165262685D01*
X44275775Y-165276515D01*
X44264395Y-165289707D01*
X44252462Y-165302262D01*
X44239975Y-165314179D01*
X44226934Y-165325459D01*
X44213339Y-165336101D01*
X44199190Y-165346106D01*
X44189469Y-165352488D01*
X44174495Y-165361612D01*
X44159051Y-165370194D01*
X44143136Y-165378235D01*
X44126752Y-165385736D01*
X44109897Y-165392695D01*
X44092573Y-165399114D01*
X44074778Y-165404991D01*
X44056513Y-165410328D01*
X44037778Y-165415124D01*
X44018573Y-165419378D01*
X44005610Y-165421952D01*
X43985983Y-165425500D01*
X43966137Y-165428675D01*
X43946072Y-165431476D01*
X43925788Y-165433904D01*
X43905285Y-165435959D01*
X43884564Y-165437639D01*
X43863623Y-165438947D01*
X43842463Y-165439881D01*
X43821085Y-165440441D01*
X43799487Y-165440628D01*
X43244445Y-165440628D01*
X43244445Y-164807550D01*
X43573440Y-164807550D01*
X43573440Y-165159260D01*
X43742334Y-165159260D01*
X43748166Y-165159238D01*
X43762883Y-165158997D01*
X43777797Y-165158487D01*
X43792908Y-165157709D01*
X43808215Y-165156662D01*
X43823720Y-165155347D01*
X43839421Y-165153764D01*
X43854988Y-165151831D01*
X43870089Y-165149235D01*
X43884726Y-165145977D01*
X43898898Y-165142058D01*
X43915290Y-165136481D01*
X43931012Y-165129951D01*
X43936128Y-165127552D01*
X43950773Y-165119601D01*
X43964361Y-165110516D01*
X43976893Y-165100298D01*
X43988369Y-165088946D01*
X43998789Y-165076461D01*
X44006388Y-165065163D01*
X44013807Y-165050188D01*
X44019371Y-165033667D01*
X44022591Y-165018719D01*
X44024523Y-165002698D01*
X44025167Y-164985603D01*
X44024990Y-164975935D01*
X44023908Y-164960507D01*
X44021311Y-164943128D01*
X44017296Y-164926985D01*
X44011865Y-164912078D01*
X44005017Y-164898408D01*
X43999865Y-164890028D01*
X43989858Y-164876464D01*
X43978588Y-164864302D01*
X43966055Y-164853543D01*
X43952261Y-164844187D01*
X43937575Y-164836075D01*
X43922047Y-164829050D01*
X43908068Y-164823893D01*
X43893471Y-164819536D01*
X43878255Y-164815976D01*
X43873113Y-164814956D01*
X43857533Y-164812290D01*
X43841721Y-164810216D01*
X43825676Y-164808735D01*
X43809400Y-164807846D01*
X43792892Y-164807550D01*
X43573440Y-164807550D01*
X43244445Y-164807550D01*
X43244445Y-163940000D01*
X43573440Y-163940000D01*
X43573440Y-164526182D01*
G37*
G36*
X45313838Y-163893320D02*
G01*
X45335406Y-163893964D01*
X45356760Y-163895037D01*
X45377899Y-163896540D01*
X45398823Y-163898472D01*
X45419533Y-163900833D01*
X45440028Y-163903624D01*
X45460308Y-163906844D01*
X45480373Y-163910493D01*
X45500224Y-163914572D01*
X45519861Y-163919080D01*
X45539282Y-163924017D01*
X45558489Y-163929384D01*
X45577481Y-163935180D01*
X45596259Y-163941405D01*
X45614822Y-163948060D01*
X45633122Y-163955113D01*
X45651109Y-163962537D01*
X45668785Y-163970329D01*
X45686149Y-163978491D01*
X45703200Y-163987021D01*
X45719940Y-163995922D01*
X45736368Y-164005191D01*
X45752483Y-164014829D01*
X45768287Y-164024837D01*
X45783779Y-164035214D01*
X45798959Y-164045960D01*
X45813826Y-164057076D01*
X45828382Y-164068560D01*
X45842626Y-164080414D01*
X45856558Y-164092637D01*
X45870178Y-164105230D01*
X45883456Y-164118220D01*
X45896361Y-164131545D01*
X45908895Y-164145205D01*
X45921057Y-164159200D01*
X45932846Y-164173530D01*
X45944264Y-164188194D01*
X45955309Y-164203194D01*
X45965982Y-164218528D01*
X45976283Y-164234197D01*
X45986212Y-164250201D01*
X45995769Y-164266540D01*
X46004954Y-164283214D01*
X46013767Y-164300223D01*
X46022208Y-164317567D01*
X46030276Y-164335245D01*
X46037973Y-164353258D01*
X46045248Y-164371617D01*
X46052055Y-164390238D01*
X46058392Y-164409123D01*
X46064259Y-164428271D01*
X46069658Y-164447683D01*
X46074586Y-164467358D01*
X46079046Y-164487296D01*
X46083036Y-164507498D01*
X46086556Y-164527963D01*
X46089607Y-164548691D01*
X46092189Y-164569682D01*
X46094301Y-164590937D01*
X46095944Y-164612455D01*
X46097118Y-164634237D01*
X46097822Y-164656282D01*
X46098056Y-164678590D01*
X46097822Y-164700897D01*
X46097118Y-164722937D01*
X46095944Y-164744711D01*
X46094301Y-164766220D01*
X46092189Y-164787462D01*
X46089607Y-164808437D01*
X46086556Y-164829147D01*
X46083036Y-164849590D01*
X46079046Y-164869768D01*
X46074586Y-164889679D01*
X46069658Y-164909324D01*
X46064259Y-164928702D01*
X46058392Y-164947815D01*
X46052055Y-164966661D01*
X46045248Y-164985241D01*
X46037973Y-165003555D01*
X46030276Y-165021611D01*
X46022208Y-165039327D01*
X46013767Y-165056702D01*
X46004954Y-165073737D01*
X45995769Y-165090431D01*
X45986212Y-165106784D01*
X45976283Y-165122797D01*
X45965982Y-165138469D01*
X45955309Y-165153800D01*
X45944264Y-165168791D01*
X45932846Y-165183441D01*
X45921057Y-165197751D01*
X45908895Y-165211720D01*
X45896361Y-165225348D01*
X45883456Y-165238636D01*
X45870178Y-165251584D01*
X45856558Y-165264220D01*
X45842626Y-165276485D01*
X45828382Y-165288377D01*
X45813826Y-165299898D01*
X45798959Y-165311046D01*
X45783779Y-165321822D01*
X45768287Y-165332227D01*
X45752483Y-165342259D01*
X45736368Y-165351919D01*
X45719940Y-165361207D01*
X45703200Y-165370122D01*
X45686149Y-165378666D01*
X45668785Y-165386838D01*
X45651109Y-165394637D01*
X45633122Y-165402065D01*
X45614822Y-165409120D01*
X45596259Y-165415775D01*
X45577481Y-165422000D01*
X45558489Y-165427796D01*
X45539282Y-165433163D01*
X45519861Y-165438100D01*
X45500224Y-165442608D01*
X45480373Y-165446687D01*
X45460308Y-165450336D01*
X45440028Y-165453556D01*
X45419533Y-165456347D01*
X45398823Y-165458708D01*
X45377899Y-165460640D01*
X45356760Y-165462143D01*
X45335406Y-165463216D01*
X45313838Y-165463860D01*
X45292055Y-165464075D01*
X45270272Y-165463860D01*
X45248704Y-165463216D01*
X45227350Y-165462143D01*
X45206211Y-165460640D01*
X45185287Y-165458708D01*
X45164577Y-165456347D01*
X45144083Y-165453556D01*
X45123802Y-165450336D01*
X45103737Y-165446687D01*
X45083886Y-165442608D01*
X45064249Y-165438100D01*
X45044828Y-165433163D01*
X45025621Y-165427796D01*
X45006629Y-165422000D01*
X44987851Y-165415775D01*
X44969288Y-165409120D01*
X44950989Y-165402065D01*
X44933001Y-165394637D01*
X44915325Y-165386838D01*
X44897962Y-165378666D01*
X44880910Y-165370122D01*
X44864170Y-165361207D01*
X44847743Y-165351919D01*
X44831627Y-165342259D01*
X44815823Y-165332227D01*
X44800331Y-165321822D01*
X44785151Y-165311046D01*
X44770284Y-165299898D01*
X44755728Y-165288377D01*
X44741484Y-165276485D01*
X44727552Y-165264220D01*
X44713932Y-165251584D01*
X44700654Y-165238636D01*
X44687749Y-165225348D01*
X44675215Y-165211720D01*
X44663053Y-165197751D01*
X44651264Y-165183441D01*
X44639847Y-165168791D01*
X44628801Y-165153800D01*
X44618128Y-165138469D01*
X44607827Y-165122797D01*
X44597898Y-165106784D01*
X44588341Y-165090431D01*
X44579156Y-165073737D01*
X44570343Y-165056702D01*
X44561903Y-165039327D01*
X44553834Y-165021611D01*
X44546137Y-165003555D01*
X44538862Y-164985241D01*
X44532055Y-164966661D01*
X44525718Y-164947815D01*
X44519851Y-164928702D01*
X44514453Y-164909324D01*
X44509524Y-164889679D01*
X44505065Y-164869768D01*
X44501075Y-164849590D01*
X44497554Y-164829147D01*
X44494503Y-164808437D01*
X44491921Y-164787462D01*
X44489809Y-164766220D01*
X44488166Y-164744711D01*
X44486992Y-164722937D01*
X44486288Y-164700897D01*
X44486054Y-164678590D01*
X44827872Y-164678590D01*
X44827999Y-164691446D01*
X44828668Y-164710509D01*
X44829909Y-164729308D01*
X44831724Y-164747844D01*
X44834113Y-164766115D01*
X44837074Y-164784122D01*
X44840608Y-164801866D01*
X44844716Y-164819345D01*
X44849397Y-164836560D01*
X44854651Y-164853511D01*
X44860478Y-164870198D01*
X44864710Y-164881185D01*
X44871471Y-164897305D01*
X44878727Y-164912994D01*
X44886480Y-164928252D01*
X44894729Y-164943078D01*
X44903473Y-164957472D01*
X44912713Y-164971435D01*
X44922450Y-164984967D01*
X44932682Y-164998067D01*
X44943410Y-165010735D01*
X44954634Y-165022972D01*
X44962376Y-165030921D01*
X44974344Y-165042425D01*
X44986736Y-165053426D01*
X44999554Y-165063926D01*
X45012797Y-165073923D01*
X45026465Y-165083417D01*
X45040557Y-165092410D01*
X45055075Y-165100900D01*
X45070018Y-165108888D01*
X45085386Y-165116373D01*
X45101179Y-165123356D01*
X45111928Y-165127704D01*
X45128347Y-165133699D01*
X45145120Y-165139064D01*
X45162247Y-165143797D01*
X45179729Y-165147900D01*
X45197564Y-165151371D01*
X45215754Y-165154211D01*
X45234298Y-165156420D01*
X45253196Y-165157998D01*
X45272449Y-165158944D01*
X45292055Y-165159260D01*
X45305165Y-165159120D01*
X45324536Y-165158383D01*
X45343552Y-165157016D01*
X45362214Y-165155017D01*
X45380522Y-165152388D01*
X45398476Y-165149127D01*
X45416075Y-165145235D01*
X45433320Y-165140712D01*
X45450211Y-165135558D01*
X45466748Y-165129772D01*
X45482931Y-165123356D01*
X45493507Y-165118757D01*
X45509016Y-165111439D01*
X45524101Y-165103618D01*
X45538761Y-165095296D01*
X45552995Y-165086471D01*
X45566805Y-165077143D01*
X45580189Y-165067314D01*
X45593149Y-165056982D01*
X45605683Y-165046148D01*
X45617792Y-165034811D01*
X45629477Y-165022972D01*
X45637013Y-165014862D01*
X45647899Y-165002337D01*
X45658282Y-164989381D01*
X45668163Y-164975994D01*
X45677542Y-164962174D01*
X45686418Y-164947924D01*
X45694792Y-164933242D01*
X45702664Y-164918128D01*
X45710034Y-164902583D01*
X45716901Y-164886606D01*
X45723266Y-164870198D01*
X45727259Y-164859103D01*
X45732765Y-164842240D01*
X45737691Y-164825113D01*
X45742038Y-164807721D01*
X45745806Y-164790066D01*
X45748994Y-164772147D01*
X45751602Y-164753964D01*
X45753630Y-164735516D01*
X45755079Y-164716805D01*
X45755949Y-164697829D01*
X45756239Y-164678590D01*
X45756110Y-164665471D01*
X45755434Y-164646055D01*
X45754178Y-164626955D01*
X45752342Y-164608171D01*
X45749927Y-164589702D01*
X45746933Y-164571549D01*
X45743359Y-164553711D01*
X45739205Y-164536189D01*
X45734471Y-164518982D01*
X45729158Y-164502091D01*
X45723266Y-164485516D01*
X45719078Y-164474705D01*
X45712379Y-164458822D01*
X45705177Y-164443338D01*
X45697472Y-164428254D01*
X45689266Y-164413568D01*
X45680556Y-164399282D01*
X45671345Y-164385395D01*
X45661631Y-164371908D01*
X45651415Y-164358820D01*
X45640697Y-164346131D01*
X45629477Y-164333841D01*
X45621734Y-164325937D01*
X45609767Y-164314494D01*
X45597374Y-164303547D01*
X45584556Y-164293096D01*
X45571313Y-164283141D01*
X45557646Y-164273682D01*
X45543553Y-164264718D01*
X45529035Y-164256251D01*
X45514092Y-164248279D01*
X45498724Y-164240804D01*
X45482931Y-164233824D01*
X45472182Y-164229476D01*
X45455763Y-164223480D01*
X45438990Y-164218116D01*
X45421863Y-164213382D01*
X45404382Y-164209280D01*
X45386546Y-164205809D01*
X45368356Y-164202969D01*
X45349812Y-164200760D01*
X45330914Y-164199182D01*
X45311662Y-164198236D01*
X45292055Y-164197920D01*
X45278945Y-164198060D01*
X45259574Y-164198797D01*
X45240558Y-164200164D01*
X45221896Y-164202162D01*
X45203588Y-164204792D01*
X45185634Y-164208053D01*
X45168035Y-164211945D01*
X45150790Y-164216468D01*
X45133899Y-164221622D01*
X45117362Y-164227407D01*
X45101179Y-164233824D01*
X45090603Y-164238422D01*
X45075094Y-164245732D01*
X45060009Y-164253539D01*
X45045350Y-164261841D01*
X45031115Y-164270639D01*
X45017305Y-164279933D01*
X45003921Y-164289723D01*
X44990962Y-164300009D01*
X44978427Y-164310790D01*
X44966318Y-164322068D01*
X44954634Y-164333841D01*
X44947096Y-164341990D01*
X44936203Y-164354546D01*
X44925805Y-164367501D01*
X44915904Y-164380855D01*
X44906498Y-164394609D01*
X44897588Y-164408762D01*
X44889175Y-164423314D01*
X44881257Y-164438266D01*
X44873835Y-164453616D01*
X44866908Y-164469367D01*
X44860478Y-164485516D01*
X44856530Y-164496531D01*
X44851085Y-164513317D01*
X44846213Y-164530418D01*
X44841914Y-164547835D01*
X44838188Y-164565568D01*
X44835036Y-164583616D01*
X44832457Y-164601980D01*
X44830451Y-164620659D01*
X44829018Y-164639654D01*
X44828158Y-164658964D01*
X44827872Y-164678590D01*
X44486054Y-164678590D01*
X44486288Y-164656282D01*
X44486992Y-164634237D01*
X44488166Y-164612455D01*
X44489809Y-164590937D01*
X44491921Y-164569682D01*
X44494503Y-164548691D01*
X44497554Y-164527963D01*
X44501075Y-164507498D01*
X44505065Y-164487296D01*
X44509524Y-164467358D01*
X44514453Y-164447683D01*
X44519851Y-164428271D01*
X44525718Y-164409123D01*
X44532055Y-164390238D01*
X44538862Y-164371617D01*
X44546137Y-164353258D01*
X44553834Y-164335245D01*
X44561903Y-164317567D01*
X44570343Y-164300223D01*
X44579156Y-164283214D01*
X44588341Y-164266540D01*
X44597898Y-164250201D01*
X44607827Y-164234197D01*
X44618128Y-164218528D01*
X44628801Y-164203194D01*
X44639847Y-164188194D01*
X44651264Y-164173530D01*
X44663053Y-164159200D01*
X44675215Y-164145205D01*
X44687749Y-164131545D01*
X44700654Y-164118220D01*
X44713932Y-164105230D01*
X44727552Y-164092637D01*
X44741484Y-164080414D01*
X44755728Y-164068560D01*
X44770284Y-164057076D01*
X44785151Y-164045960D01*
X44800331Y-164035214D01*
X44815823Y-164024837D01*
X44831627Y-164014829D01*
X44847743Y-164005191D01*
X44864170Y-163995922D01*
X44880910Y-163987021D01*
X44897962Y-163978491D01*
X44915325Y-163970329D01*
X44933001Y-163962537D01*
X44950989Y-163955113D01*
X44969288Y-163948060D01*
X44987851Y-163941405D01*
X45006629Y-163935180D01*
X45025621Y-163929384D01*
X45044828Y-163924017D01*
X45064249Y-163919080D01*
X45083886Y-163914572D01*
X45103737Y-163910493D01*
X45123802Y-163906844D01*
X45144083Y-163903624D01*
X45164577Y-163900833D01*
X45185287Y-163898472D01*
X45206211Y-163896540D01*
X45227350Y-163895037D01*
X45248704Y-163893964D01*
X45270272Y-163893320D01*
X45292055Y-163893105D01*
X45313838Y-163893320D01*
G37*
G36*
X46156675Y-165440628D02*
G01*
X46515712Y-165440628D01*
X46754215Y-164478189D01*
X46758245Y-164478189D01*
X47070754Y-165440628D01*
X47376668Y-165440628D01*
X47686612Y-164452909D01*
X47691008Y-164452909D01*
X47941968Y-165440628D01*
X48275726Y-165440628D01*
X47838653Y-163940000D01*
X47545562Y-163940000D01*
X47216200Y-164978642D01*
X47211804Y-164978642D01*
X46882809Y-163940000D01*
X46599976Y-163940000D01*
X46156675Y-165440628D01*
G37*
G36*
X48425569Y-165440628D02*
G01*
X49440764Y-165440628D01*
X49440764Y-165135812D01*
X48754930Y-165135812D01*
X48754930Y-164854445D01*
X49402662Y-164854445D01*
X49402662Y-164549630D01*
X48754930Y-164549630D01*
X48754930Y-164244815D01*
X49478866Y-164244815D01*
X49478866Y-163940000D01*
X48425569Y-163940000D01*
X48425569Y-165440628D01*
G37*
G36*
X50063950Y-164526182D02*
G01*
X50226615Y-164526182D01*
X50538758Y-163940000D01*
X50933332Y-163940000D01*
X50553779Y-164560254D01*
X50573265Y-164564333D01*
X50592155Y-164569058D01*
X50610451Y-164574431D01*
X50628151Y-164580450D01*
X50645255Y-164587116D01*
X50661765Y-164594429D01*
X50677679Y-164602389D01*
X50692997Y-164610996D01*
X50707720Y-164620249D01*
X50721848Y-164630150D01*
X50735381Y-164640697D01*
X50748318Y-164651891D01*
X50760660Y-164663732D01*
X50772407Y-164676220D01*
X50783558Y-164689355D01*
X50794114Y-164703136D01*
X50804096Y-164717476D01*
X50813434Y-164732194D01*
X50822128Y-164747289D01*
X50830178Y-164762762D01*
X50837584Y-164778613D01*
X50844346Y-164794842D01*
X50850464Y-164811448D01*
X50855938Y-164828433D01*
X50860768Y-164845795D01*
X50864954Y-164863535D01*
X50868496Y-164881653D01*
X50871394Y-164900149D01*
X50873648Y-164919022D01*
X50875258Y-164938273D01*
X50876224Y-164957903D01*
X50876546Y-164977909D01*
X50876501Y-164986201D01*
X50876146Y-165002527D01*
X50875437Y-165018510D01*
X50874372Y-165034149D01*
X50872952Y-165049445D01*
X50871178Y-165064397D01*
X50867850Y-165086182D01*
X50863724Y-165107193D01*
X50858800Y-165127432D01*
X50853077Y-165146898D01*
X50846555Y-165165591D01*
X50839235Y-165183511D01*
X50831116Y-165200659D01*
X50825315Y-165211690D01*
X50816151Y-165227700D01*
X50806433Y-165243066D01*
X50796161Y-165257787D01*
X50785335Y-165271865D01*
X50773956Y-165285299D01*
X50762022Y-165298089D01*
X50749535Y-165310235D01*
X50736494Y-165321737D01*
X50722899Y-165332594D01*
X50708751Y-165342808D01*
X50699034Y-165349284D01*
X50684082Y-165358552D01*
X50668680Y-165367286D01*
X50652827Y-165375485D01*
X50636523Y-165383150D01*
X50619768Y-165390280D01*
X50602562Y-165396876D01*
X50584906Y-165402937D01*
X50566799Y-165408463D01*
X50548241Y-165413455D01*
X50529232Y-165417913D01*
X50516410Y-165420664D01*
X50497004Y-165424457D01*
X50477392Y-165427851D01*
X50457574Y-165430845D01*
X50437550Y-165433441D01*
X50417319Y-165435637D01*
X50396883Y-165437433D01*
X50376241Y-165438831D01*
X50355392Y-165439829D01*
X50334338Y-165440428D01*
X50313077Y-165440628D01*
X49734955Y-165440628D01*
X49734955Y-164807550D01*
X50063950Y-164807550D01*
X50063950Y-165159260D01*
X50279372Y-165159260D01*
X50284920Y-165159234D01*
X50301651Y-165158848D01*
X50318511Y-165157998D01*
X50335500Y-165156684D01*
X50352618Y-165154906D01*
X50369864Y-165152665D01*
X50375638Y-165151794D01*
X50392464Y-165148612D01*
X50408542Y-165144581D01*
X50423874Y-165139699D01*
X50438458Y-165133968D01*
X50452296Y-165127386D01*
X50456734Y-165125030D01*
X50469446Y-165117174D01*
X50481257Y-165108132D01*
X50492167Y-165097905D01*
X50502174Y-165086494D01*
X50511280Y-165073897D01*
X50519249Y-165059995D01*
X50525569Y-165044393D01*
X50529576Y-165030093D01*
X50532438Y-165014612D01*
X50534155Y-164997950D01*
X50534728Y-164980108D01*
X50534702Y-164976174D01*
X50534084Y-164960990D01*
X50532152Y-164943249D01*
X50528932Y-164926886D01*
X50524424Y-164911901D01*
X50517314Y-164895737D01*
X50508350Y-164881556D01*
X50504998Y-164877277D01*
X50494290Y-164865298D01*
X50482604Y-164854608D01*
X50469939Y-164845205D01*
X50456294Y-164837091D01*
X50441671Y-164830265D01*
X50431533Y-164826435D01*
X50415747Y-164821442D01*
X50399265Y-164817350D01*
X50382087Y-164814160D01*
X50367241Y-164812191D01*
X50351912Y-164810847D01*
X50339627Y-164810075D01*
X50324497Y-164809253D01*
X50309617Y-164808593D01*
X50292092Y-164808014D01*
X50274927Y-164807666D01*
X50258123Y-164807550D01*
X50063950Y-164807550D01*
X49734955Y-164807550D01*
X49734955Y-163940000D01*
X50063950Y-163940000D01*
X50063950Y-164526182D01*
G37*
G36*
X52340494Y-163940081D02*
G01*
X52359125Y-163940509D01*
X52377769Y-163941305D01*
X52396426Y-163942467D01*
X52415095Y-163943997D01*
X52433778Y-163945893D01*
X52452473Y-163948157D01*
X52471181Y-163950788D01*
X52489902Y-163953785D01*
X52508636Y-163957150D01*
X52527383Y-163960882D01*
X52539852Y-163963599D01*
X52558261Y-163968070D01*
X52576316Y-163973018D01*
X52594016Y-163978443D01*
X52611362Y-163984344D01*
X52628354Y-163990722D01*
X52644992Y-163997576D01*
X52661275Y-164004907D01*
X52677205Y-164012714D01*
X52692780Y-164020998D01*
X52708001Y-164029759D01*
X52717914Y-164035921D01*
X52732349Y-164045605D01*
X52746263Y-164055816D01*
X52759655Y-164066556D01*
X52772525Y-164077824D01*
X52784874Y-164089620D01*
X52796701Y-164101944D01*
X52808006Y-164114796D01*
X52818790Y-164128176D01*
X52829052Y-164142084D01*
X52838793Y-164156521D01*
X52844915Y-164166471D01*
X52853358Y-164181961D01*
X52860912Y-164198126D01*
X52867577Y-164214968D01*
X52873354Y-164232486D01*
X52878242Y-164250680D01*
X52882241Y-164269550D01*
X52885352Y-164289096D01*
X52887574Y-164309319D01*
X52888907Y-164330218D01*
X52889351Y-164351793D01*
X52888985Y-164369516D01*
X52887886Y-164386964D01*
X52886054Y-164404137D01*
X52883489Y-164421036D01*
X52880192Y-164437660D01*
X52876162Y-164454009D01*
X52871399Y-164470083D01*
X52865904Y-164485882D01*
X52859819Y-164501298D01*
X52853104Y-164516222D01*
X52845759Y-164530653D01*
X52837785Y-164544592D01*
X52829181Y-164558039D01*
X52819948Y-164570993D01*
X52810085Y-164583455D01*
X52799592Y-164595425D01*
X52788521Y-164606971D01*
X52776923Y-164617979D01*
X52764799Y-164628449D01*
X52752148Y-164638381D01*
X52738970Y-164647775D01*
X52725266Y-164656631D01*
X52711035Y-164664949D01*
X52696277Y-164672728D01*
X52681039Y-164680021D01*
X52665365Y-164686696D01*
X52649256Y-164692752D01*
X52632713Y-164698190D01*
X52615734Y-164703010D01*
X52598320Y-164707212D01*
X52580472Y-164710796D01*
X52562188Y-164713761D01*
X52562188Y-164718157D01*
X52569402Y-164720494D01*
X52583564Y-164725448D01*
X52597372Y-164730778D01*
X52617417Y-164739475D01*
X52636664Y-164749016D01*
X52655113Y-164759400D01*
X52672762Y-164770629D01*
X52689614Y-164782700D01*
X52705667Y-164795616D01*
X52720921Y-164809375D01*
X52735376Y-164823977D01*
X52749033Y-164839424D01*
X52753384Y-164844779D01*
X52765606Y-164861360D01*
X52776585Y-164878713D01*
X52786321Y-164896840D01*
X52794814Y-164915739D01*
X52802065Y-164935411D01*
X52808072Y-164955856D01*
X52812837Y-164977074D01*
X52815322Y-164991648D01*
X52817256Y-165006566D01*
X52818637Y-165021827D01*
X52819466Y-165037432D01*
X52819742Y-165053381D01*
X52819694Y-165061140D01*
X52819313Y-165076367D01*
X52818552Y-165091205D01*
X52816696Y-165112732D01*
X52813984Y-165133382D01*
X52810415Y-165153158D01*
X52805990Y-165172057D01*
X52800708Y-165190080D01*
X52794570Y-165207228D01*
X52787575Y-165223499D01*
X52779723Y-165238895D01*
X52771015Y-165253415D01*
X52764854Y-165262718D01*
X52755178Y-165276177D01*
X52744981Y-165289044D01*
X52734261Y-165301319D01*
X52723020Y-165313001D01*
X52711257Y-165324091D01*
X52698973Y-165334588D01*
X52686167Y-165344493D01*
X52672840Y-165353805D01*
X52658990Y-165362525D01*
X52644620Y-165370652D01*
X52634786Y-165375808D01*
X52619742Y-165383129D01*
X52604342Y-165389955D01*
X52588589Y-165396284D01*
X52572482Y-165402118D01*
X52556020Y-165407455D01*
X52539204Y-165412297D01*
X52522034Y-165416643D01*
X52504510Y-165420493D01*
X52486631Y-165423847D01*
X52468398Y-165426706D01*
X52456130Y-165428392D01*
X52437742Y-165430716D01*
X52419374Y-165432797D01*
X52401026Y-165434632D01*
X52382696Y-165436223D01*
X52364386Y-165437569D01*
X52346096Y-165438670D01*
X52327824Y-165439526D01*
X52309572Y-165440138D01*
X52291340Y-165440505D01*
X52273126Y-165440628D01*
X51716253Y-165440628D01*
X51716253Y-164830997D01*
X52045248Y-164830997D01*
X52045248Y-165159260D01*
X52269096Y-165159260D01*
X52285853Y-165158892D01*
X52302786Y-165157787D01*
X52317439Y-165156254D01*
X52332221Y-165154181D01*
X52347132Y-165151566D01*
X52359511Y-165148929D01*
X52373799Y-165145151D01*
X52389687Y-165139897D01*
X52404734Y-165133731D01*
X52418939Y-165126653D01*
X52426719Y-165122120D01*
X52439424Y-165113084D01*
X52450972Y-165102645D01*
X52461363Y-165090804D01*
X52470597Y-165077561D01*
X52471836Y-165075576D01*
X52479412Y-165060799D01*
X52484371Y-165046906D01*
X52487913Y-165031880D01*
X52490038Y-165015719D01*
X52490747Y-164998426D01*
X52490116Y-164981716D01*
X52488222Y-164965934D01*
X52485067Y-164951079D01*
X52479790Y-164934920D01*
X52472795Y-164920024D01*
X52468124Y-164912073D01*
X52459068Y-164899122D01*
X52448890Y-164887399D01*
X52437589Y-164876903D01*
X52425167Y-164867634D01*
X52417720Y-164862946D01*
X52404108Y-164855540D01*
X52389760Y-164849151D01*
X52374676Y-164843779D01*
X52358855Y-164839424D01*
X52349588Y-164837449D01*
X52333286Y-164834626D01*
X52316880Y-164832610D01*
X52300368Y-164831401D01*
X52283751Y-164830997D01*
X52045248Y-164830997D01*
X51716253Y-164830997D01*
X51716253Y-164221367D01*
X52045248Y-164221367D01*
X52045248Y-164549630D01*
X52294375Y-164549630D01*
X52299393Y-164549605D01*
X52314754Y-164549240D01*
X52330580Y-164548438D01*
X52346869Y-164547197D01*
X52363621Y-164545518D01*
X52380837Y-164543401D01*
X52386628Y-164542627D01*
X52403689Y-164539807D01*
X52420287Y-164536239D01*
X52436422Y-164531924D01*
X52452092Y-164526862D01*
X52467299Y-164521053D01*
X52472282Y-164518977D01*
X52486579Y-164512009D01*
X52499897Y-164503933D01*
X52512236Y-164494749D01*
X52523596Y-164484458D01*
X52533978Y-164473060D01*
X52538692Y-164466981D01*
X52546729Y-164453801D01*
X52552911Y-164439255D01*
X52557239Y-164423344D01*
X52559712Y-164406067D01*
X52560356Y-164390628D01*
X52560336Y-164387711D01*
X52559392Y-164370795D01*
X52557030Y-164354884D01*
X52553252Y-164339977D01*
X52548057Y-164326076D01*
X52540206Y-164311127D01*
X52535071Y-164303164D01*
X52525176Y-164290138D01*
X52514124Y-164278270D01*
X52501915Y-164267558D01*
X52488548Y-164258004D01*
X52478515Y-164251993D01*
X52463836Y-164244540D01*
X52448421Y-164238209D01*
X52432270Y-164232999D01*
X52417840Y-164229427D01*
X52405626Y-164227105D01*
X52391063Y-164224838D01*
X52374203Y-164222910D01*
X52357483Y-164221753D01*
X52340904Y-164221367D01*
X52045248Y-164221367D01*
X51716253Y-164221367D01*
X51716253Y-163940000D01*
X52328081Y-163940000D01*
X52340494Y-163940081D01*
G37*
G36*
X53823747Y-163893320D02*
G01*
X53845316Y-163893964D01*
X53866669Y-163895037D01*
X53887808Y-163896540D01*
X53908732Y-163898472D01*
X53929442Y-163900833D01*
X53949937Y-163903624D01*
X53970217Y-163906844D01*
X53990283Y-163910493D01*
X54010134Y-163914572D01*
X54029770Y-163919080D01*
X54049192Y-163924017D01*
X54068398Y-163929384D01*
X54087391Y-163935180D01*
X54106168Y-163941405D01*
X54124731Y-163948060D01*
X54143031Y-163955113D01*
X54161019Y-163962537D01*
X54178694Y-163970329D01*
X54196058Y-163978491D01*
X54213110Y-163987021D01*
X54229849Y-163995922D01*
X54246277Y-164005191D01*
X54262393Y-164014829D01*
X54278196Y-164024837D01*
X54293688Y-164035214D01*
X54308868Y-164045960D01*
X54323736Y-164057076D01*
X54338292Y-164068560D01*
X54352535Y-164080414D01*
X54366467Y-164092637D01*
X54380087Y-164105230D01*
X54393365Y-164118220D01*
X54406271Y-164131545D01*
X54418804Y-164145205D01*
X54430966Y-164159200D01*
X54442756Y-164173530D01*
X54454173Y-164188194D01*
X54465218Y-164203194D01*
X54475891Y-164218528D01*
X54486193Y-164234197D01*
X54496122Y-164250201D01*
X54505679Y-164266540D01*
X54514863Y-164283214D01*
X54523676Y-164300223D01*
X54532117Y-164317567D01*
X54540186Y-164335245D01*
X54547882Y-164353258D01*
X54555158Y-164371617D01*
X54561964Y-164390238D01*
X54568301Y-164409123D01*
X54574169Y-164428271D01*
X54579567Y-164447683D01*
X54584496Y-164467358D01*
X54588955Y-164487296D01*
X54592945Y-164507498D01*
X54596465Y-164527963D01*
X54599516Y-164548691D01*
X54602098Y-164569682D01*
X54604211Y-164590937D01*
X54605853Y-164612455D01*
X54607027Y-164634237D01*
X54607731Y-164656282D01*
X54607966Y-164678590D01*
X54607731Y-164700897D01*
X54607027Y-164722937D01*
X54605853Y-164744711D01*
X54604211Y-164766220D01*
X54602098Y-164787462D01*
X54599516Y-164808437D01*
X54596465Y-164829147D01*
X54592945Y-164849590D01*
X54588955Y-164869768D01*
X54584496Y-164889679D01*
X54579567Y-164909324D01*
X54574169Y-164928702D01*
X54568301Y-164947815D01*
X54561964Y-164966661D01*
X54555158Y-164985241D01*
X54547882Y-165003555D01*
X54540186Y-165021611D01*
X54532117Y-165039327D01*
X54523676Y-165056702D01*
X54514863Y-165073737D01*
X54505679Y-165090431D01*
X54496122Y-165106784D01*
X54486193Y-165122797D01*
X54475891Y-165138469D01*
X54465218Y-165153800D01*
X54454173Y-165168791D01*
X54442756Y-165183441D01*
X54430966Y-165197751D01*
X54418804Y-165211720D01*
X54406271Y-165225348D01*
X54393365Y-165238636D01*
X54380087Y-165251584D01*
X54366467Y-165264220D01*
X54352535Y-165276485D01*
X54338292Y-165288377D01*
X54323736Y-165299898D01*
X54308868Y-165311046D01*
X54293688Y-165321822D01*
X54278196Y-165332227D01*
X54262393Y-165342259D01*
X54246277Y-165351919D01*
X54229849Y-165361207D01*
X54213110Y-165370122D01*
X54196058Y-165378666D01*
X54178694Y-165386838D01*
X54161019Y-165394637D01*
X54143031Y-165402065D01*
X54124731Y-165409120D01*
X54106168Y-165415775D01*
X54087391Y-165422000D01*
X54068398Y-165427796D01*
X54049192Y-165433163D01*
X54029770Y-165438100D01*
X54010134Y-165442608D01*
X53990283Y-165446687D01*
X53970217Y-165450336D01*
X53949937Y-165453556D01*
X53929442Y-165456347D01*
X53908732Y-165458708D01*
X53887808Y-165460640D01*
X53866669Y-165462143D01*
X53845316Y-165463216D01*
X53823747Y-165463860D01*
X53801964Y-165464075D01*
X53780181Y-165463860D01*
X53758613Y-165463216D01*
X53737260Y-165462143D01*
X53716121Y-165460640D01*
X53695196Y-165458708D01*
X53674487Y-165456347D01*
X53653992Y-165453556D01*
X53633712Y-165450336D01*
X53613646Y-165446687D01*
X53593795Y-165442608D01*
X53574159Y-165438100D01*
X53554737Y-165433163D01*
X53535530Y-165427796D01*
X53516538Y-165422000D01*
X53497760Y-165415775D01*
X53479197Y-165409120D01*
X53460898Y-165402065D01*
X53442910Y-165394637D01*
X53425235Y-165386838D01*
X53407871Y-165378666D01*
X53390819Y-165370122D01*
X53374080Y-165361207D01*
X53357652Y-165351919D01*
X53341536Y-165342259D01*
X53325732Y-165332227D01*
X53310241Y-165321822D01*
X53295061Y-165311046D01*
X53280193Y-165299898D01*
X53265637Y-165288377D01*
X53251393Y-165276485D01*
X53237461Y-165264220D01*
X53223842Y-165251584D01*
X53210564Y-165238636D01*
X53197658Y-165225348D01*
X53185124Y-165211720D01*
X53172963Y-165197751D01*
X53161173Y-165183441D01*
X53149756Y-165168791D01*
X53138711Y-165153800D01*
X53128037Y-165138469D01*
X53117736Y-165122797D01*
X53107807Y-165106784D01*
X53098250Y-165090431D01*
X53089065Y-165073737D01*
X53080253Y-165056702D01*
X53071812Y-165039327D01*
X53063743Y-165021611D01*
X53056047Y-165003555D01*
X53048771Y-164985241D01*
X53041965Y-164966661D01*
X53035628Y-164947815D01*
X53029760Y-164928702D01*
X53024362Y-164909324D01*
X53019433Y-164889679D01*
X53014974Y-164869768D01*
X53010984Y-164849590D01*
X53007463Y-164829147D01*
X53004412Y-164808437D01*
X53001831Y-164787462D01*
X52999718Y-164766220D01*
X52998075Y-164744711D01*
X52996902Y-164722937D01*
X52996198Y-164700897D01*
X52995963Y-164678590D01*
X53337781Y-164678590D01*
X53337908Y-164691446D01*
X53338577Y-164710509D01*
X53339819Y-164729308D01*
X53341634Y-164747844D01*
X53344022Y-164766115D01*
X53346983Y-164784122D01*
X53350518Y-164801866D01*
X53354625Y-164819345D01*
X53359306Y-164836560D01*
X53364560Y-164853511D01*
X53370387Y-164870198D01*
X53374619Y-164881185D01*
X53381380Y-164897305D01*
X53388637Y-164912994D01*
X53396389Y-164928252D01*
X53404638Y-164943078D01*
X53413382Y-164957472D01*
X53422623Y-164971435D01*
X53432359Y-164984967D01*
X53442591Y-164998067D01*
X53453319Y-165010735D01*
X53464543Y-165022972D01*
X53472285Y-165030921D01*
X53484253Y-165042425D01*
X53496646Y-165053426D01*
X53509463Y-165063926D01*
X53522706Y-165073923D01*
X53536374Y-165083417D01*
X53550467Y-165092410D01*
X53564985Y-165100900D01*
X53579928Y-165108888D01*
X53595296Y-165116373D01*
X53611089Y-165123356D01*
X53621838Y-165127704D01*
X53638256Y-165133699D01*
X53655029Y-165139064D01*
X53672157Y-165143797D01*
X53689638Y-165147900D01*
X53707474Y-165151371D01*
X53725663Y-165154211D01*
X53744207Y-165156420D01*
X53763105Y-165157998D01*
X53782358Y-165158944D01*
X53801964Y-165159260D01*
X53815075Y-165159120D01*
X53834445Y-165158383D01*
X53853461Y-165157016D01*
X53872123Y-165155017D01*
X53890431Y-165152388D01*
X53908385Y-165149127D01*
X53925984Y-165145235D01*
X53943230Y-165140712D01*
X53960121Y-165135558D01*
X53976658Y-165129772D01*
X53992840Y-165123356D01*
X54003416Y-165118757D01*
X54018926Y-165111439D01*
X54034010Y-165103618D01*
X54048670Y-165095296D01*
X54062904Y-165086471D01*
X54076714Y-165077143D01*
X54090098Y-165067314D01*
X54103058Y-165056982D01*
X54115592Y-165046148D01*
X54127702Y-165034811D01*
X54139386Y-165022972D01*
X54146922Y-165014862D01*
X54157808Y-165002337D01*
X54168191Y-164989381D01*
X54178072Y-164975994D01*
X54187451Y-164962174D01*
X54196328Y-164947924D01*
X54204702Y-164933242D01*
X54212574Y-164918128D01*
X54219943Y-164902583D01*
X54226810Y-164886606D01*
X54233175Y-164870198D01*
X54237168Y-164859103D01*
X54242674Y-164842240D01*
X54247601Y-164825113D01*
X54251948Y-164807721D01*
X54255715Y-164790066D01*
X54258903Y-164772147D01*
X54261511Y-164753964D01*
X54263540Y-164735516D01*
X54264989Y-164716805D01*
X54265858Y-164697829D01*
X54266148Y-164678590D01*
X54266019Y-164665471D01*
X54265343Y-164646055D01*
X54264087Y-164626955D01*
X54262252Y-164608171D01*
X54259837Y-164589702D01*
X54256842Y-164571549D01*
X54253268Y-164553711D01*
X54249114Y-164536189D01*
X54244381Y-164518982D01*
X54239068Y-164502091D01*
X54233175Y-164485516D01*
X54228988Y-164474705D01*
X54222288Y-164458822D01*
X54215086Y-164443338D01*
X54207381Y-164428254D01*
X54199175Y-164413568D01*
X54190466Y-164399282D01*
X54181254Y-164385395D01*
X54171541Y-164371908D01*
X54161325Y-164358820D01*
X54150606Y-164346131D01*
X54139386Y-164333841D01*
X54131644Y-164325937D01*
X54119676Y-164314494D01*
X54107283Y-164303547D01*
X54094465Y-164293096D01*
X54081223Y-164283141D01*
X54067555Y-164273682D01*
X54053462Y-164264718D01*
X54038944Y-164256251D01*
X54024001Y-164248279D01*
X54008633Y-164240804D01*
X53992840Y-164233824D01*
X53982091Y-164229476D01*
X53965672Y-164223480D01*
X53948899Y-164218116D01*
X53931772Y-164213382D01*
X53914291Y-164209280D01*
X53896455Y-164205809D01*
X53878265Y-164202969D01*
X53859721Y-164200760D01*
X53840823Y-164199182D01*
X53821571Y-164198236D01*
X53801964Y-164197920D01*
X53788854Y-164198060D01*
X53769484Y-164198797D01*
X53750467Y-164200164D01*
X53731805Y-164202162D01*
X53713497Y-164204792D01*
X53695544Y-164208053D01*
X53677944Y-164211945D01*
X53660699Y-164216468D01*
X53643808Y-164221622D01*
X53627271Y-164227407D01*
X53611089Y-164233824D01*
X53600513Y-164238422D01*
X53585003Y-164245732D01*
X53569918Y-164253539D01*
X53555259Y-164261841D01*
X53541024Y-164270639D01*
X53527215Y-164279933D01*
X53513830Y-164289723D01*
X53500871Y-164300009D01*
X53488337Y-164310790D01*
X53476227Y-164322068D01*
X53464543Y-164333841D01*
X53457005Y-164341990D01*
X53446112Y-164354546D01*
X53435715Y-164367501D01*
X53425813Y-164380855D01*
X53416407Y-164394609D01*
X53407498Y-164408762D01*
X53399084Y-164423314D01*
X53391166Y-164438266D01*
X53383744Y-164453616D01*
X53376818Y-164469367D01*
X53370387Y-164485516D01*
X53366439Y-164496531D01*
X53360994Y-164513317D01*
X53356122Y-164530418D01*
X53351823Y-164547835D01*
X53348098Y-164565568D01*
X53344945Y-164583616D01*
X53342366Y-164601980D01*
X53340360Y-164620659D01*
X53338927Y-164639654D01*
X53338067Y-164658964D01*
X53337781Y-164678590D01*
X52995963Y-164678590D01*
X52996198Y-164656282D01*
X52996902Y-164634237D01*
X52998075Y-164612455D01*
X52999718Y-164590937D01*
X53001831Y-164569682D01*
X53004412Y-164548691D01*
X53007463Y-164527963D01*
X53010984Y-164507498D01*
X53014974Y-164487296D01*
X53019433Y-164467358D01*
X53024362Y-164447683D01*
X53029760Y-164428271D01*
X53035628Y-164409123D01*
X53041965Y-164390238D01*
X53048771Y-164371617D01*
X53056047Y-164353258D01*
X53063743Y-164335245D01*
X53071812Y-164317567D01*
X53080253Y-164300223D01*
X53089065Y-164283214D01*
X53098250Y-164266540D01*
X53107807Y-164250201D01*
X53117736Y-164234197D01*
X53128037Y-164218528D01*
X53138711Y-164203194D01*
X53149756Y-164188194D01*
X53161173Y-164173530D01*
X53172963Y-164159200D01*
X53185124Y-164145205D01*
X53197658Y-164131545D01*
X53210564Y-164118220D01*
X53223842Y-164105230D01*
X53237461Y-164092637D01*
X53251393Y-164080414D01*
X53265637Y-164068560D01*
X53280193Y-164057076D01*
X53295061Y-164045960D01*
X53310241Y-164035214D01*
X53325732Y-164024837D01*
X53341536Y-164014829D01*
X53357652Y-164005191D01*
X53374080Y-163995922D01*
X53390819Y-163987021D01*
X53407871Y-163978491D01*
X53425235Y-163970329D01*
X53442910Y-163962537D01*
X53460898Y-163955113D01*
X53479197Y-163948060D01*
X53497760Y-163941405D01*
X53516538Y-163935180D01*
X53535530Y-163929384D01*
X53554737Y-163924017D01*
X53574159Y-163919080D01*
X53593795Y-163914572D01*
X53613646Y-163910493D01*
X53633712Y-163906844D01*
X53653992Y-163903624D01*
X53674487Y-163900833D01*
X53695196Y-163898472D01*
X53716121Y-163896540D01*
X53737260Y-163895037D01*
X53758613Y-163893964D01*
X53780181Y-163893320D01*
X53801964Y-163893105D01*
X53823747Y-163893320D01*
G37*
G36*
X55156413Y-164244815D02*
G01*
X55736734Y-164244815D01*
X55865328Y-163940000D01*
X56236821Y-163940000D01*
X55586891Y-165440628D01*
X55314682Y-165440628D01*
X54921086Y-164526182D01*
X55259728Y-164526182D01*
X55441078Y-164990732D01*
X55624993Y-164526182D01*
X55259728Y-164526182D01*
X54921086Y-164526182D01*
X54668782Y-163940000D01*
X55031849Y-163940000D01*
X55156413Y-164244815D01*
G37*
G36*
X56706867Y-164526182D02*
G01*
X56869532Y-164526182D01*
X57181675Y-163940000D01*
X57576249Y-163940000D01*
X57196696Y-164560254D01*
X57216182Y-164564333D01*
X57235072Y-164569058D01*
X57253368Y-164574431D01*
X57271068Y-164580450D01*
X57288172Y-164587116D01*
X57304682Y-164594429D01*
X57320596Y-164602389D01*
X57335914Y-164610996D01*
X57350637Y-164620249D01*
X57364765Y-164630150D01*
X57378298Y-164640697D01*
X57391235Y-164651891D01*
X57403577Y-164663732D01*
X57415324Y-164676220D01*
X57426475Y-164689355D01*
X57437031Y-164703136D01*
X57447013Y-164717476D01*
X57456351Y-164732194D01*
X57465045Y-164747289D01*
X57473095Y-164762762D01*
X57480501Y-164778613D01*
X57487263Y-164794842D01*
X57493381Y-164811448D01*
X57498855Y-164828433D01*
X57503685Y-164845795D01*
X57507871Y-164863535D01*
X57511413Y-164881653D01*
X57514311Y-164900149D01*
X57516565Y-164919022D01*
X57518175Y-164938273D01*
X57519141Y-164957903D01*
X57519463Y-164977909D01*
X57519418Y-164986201D01*
X57519063Y-165002527D01*
X57518354Y-165018510D01*
X57517289Y-165034149D01*
X57515869Y-165049445D01*
X57514095Y-165064397D01*
X57510767Y-165086182D01*
X57506641Y-165107193D01*
X57501717Y-165127432D01*
X57495994Y-165146898D01*
X57489472Y-165165591D01*
X57482152Y-165183511D01*
X57474033Y-165200659D01*
X57468232Y-165211690D01*
X57459068Y-165227700D01*
X57449350Y-165243066D01*
X57439078Y-165257787D01*
X57428252Y-165271865D01*
X57416873Y-165285299D01*
X57404939Y-165298089D01*
X57392452Y-165310235D01*
X57379411Y-165321737D01*
X57365816Y-165332594D01*
X57351668Y-165342808D01*
X57341951Y-165349284D01*
X57326999Y-165358552D01*
X57311597Y-165367286D01*
X57295744Y-165375485D01*
X57279440Y-165383150D01*
X57262685Y-165390280D01*
X57245479Y-165396876D01*
X57227823Y-165402937D01*
X57209716Y-165408463D01*
X57191158Y-165413455D01*
X57172149Y-165417913D01*
X57159327Y-165420664D01*
X57139921Y-165424457D01*
X57120309Y-165427851D01*
X57100491Y-165430845D01*
X57080467Y-165433441D01*
X57060236Y-165435637D01*
X57039800Y-165437433D01*
X57019158Y-165438831D01*
X56998309Y-165439829D01*
X56977255Y-165440428D01*
X56955994Y-165440628D01*
X56377872Y-165440628D01*
X56377872Y-164807550D01*
X56706867Y-164807550D01*
X56706867Y-165159260D01*
X56922289Y-165159260D01*
X56927837Y-165159234D01*
X56944568Y-165158848D01*
X56961428Y-165157998D01*
X56978417Y-165156684D01*
X56995535Y-165154906D01*
X57012781Y-165152665D01*
X57018555Y-165151794D01*
X57035381Y-165148612D01*
X57051459Y-165144581D01*
X57066791Y-165139699D01*
X57081375Y-165133968D01*
X57095213Y-165127386D01*
X57099651Y-165125030D01*
X57112363Y-165117174D01*
X57124174Y-165108132D01*
X57135084Y-165097905D01*
X57145091Y-165086494D01*
X57154197Y-165073897D01*
X57162166Y-165059995D01*
X57168486Y-165044393D01*
X57172493Y-165030093D01*
X57175355Y-165014612D01*
X57177072Y-164997950D01*
X57177645Y-164980108D01*
X57177619Y-164976174D01*
X57177001Y-164960990D01*
X57175069Y-164943249D01*
X57171849Y-164926886D01*
X57167341Y-164911901D01*
X57160231Y-164895737D01*
X57151267Y-164881556D01*
X57147915Y-164877277D01*
X57137207Y-164865298D01*
X57125521Y-164854608D01*
X57112856Y-164845205D01*
X57099211Y-164837091D01*
X57084588Y-164830265D01*
X57074450Y-164826435D01*
X57058664Y-164821442D01*
X57042182Y-164817350D01*
X57025004Y-164814160D01*
X57010158Y-164812191D01*
X56994829Y-164810847D01*
X56982544Y-164810075D01*
X56967414Y-164809253D01*
X56952534Y-164808593D01*
X56935009Y-164808014D01*
X56917844Y-164807666D01*
X56901040Y-164807550D01*
X56706867Y-164807550D01*
X56377872Y-164807550D01*
X56377872Y-163940000D01*
X56706867Y-163940000D01*
X56706867Y-164526182D01*
G37*
G36*
X58296783Y-163940190D02*
G01*
X58317444Y-163940761D01*
X58337988Y-163941713D01*
X58358414Y-163943045D01*
X58378723Y-163944758D01*
X58398914Y-163946852D01*
X58418989Y-163949326D01*
X58438945Y-163952181D01*
X58458785Y-163955417D01*
X58478507Y-163959033D01*
X58498112Y-163963030D01*
X58517599Y-163967408D01*
X58536969Y-163972167D01*
X58556222Y-163977306D01*
X58575357Y-163982825D01*
X58594375Y-163988726D01*
X58613240Y-163994994D01*
X58631825Y-164001617D01*
X58650129Y-164008595D01*
X58668152Y-164015928D01*
X58685895Y-164023616D01*
X58703357Y-164031659D01*
X58720539Y-164040057D01*
X58737441Y-164048810D01*
X58754062Y-164057917D01*
X58770402Y-164067380D01*
X58786462Y-164077197D01*
X58802241Y-164087370D01*
X58817740Y-164097897D01*
X58832959Y-164108779D01*
X58847897Y-164120016D01*
X58862554Y-164131608D01*
X58876885Y-164143596D01*
X58890844Y-164155931D01*
X58904431Y-164168612D01*
X58917646Y-164181640D01*
X58930489Y-164195013D01*
X58942960Y-164208733D01*
X58955058Y-164222800D01*
X58966785Y-164237213D01*
X58978139Y-164251972D01*
X58989121Y-164267077D01*
X58999732Y-164282529D01*
X59009970Y-164298327D01*
X59019836Y-164314471D01*
X59029330Y-164330962D01*
X59038452Y-164347799D01*
X59047202Y-164364982D01*
X59055498Y-164382507D01*
X59063259Y-164400371D01*
X59070484Y-164418571D01*
X59077175Y-164437110D01*
X59083330Y-164455986D01*
X59088950Y-164475200D01*
X59094035Y-164494752D01*
X59098584Y-164514642D01*
X59102598Y-164534869D01*
X59106078Y-164555434D01*
X59109021Y-164576337D01*
X59111430Y-164597578D01*
X59113303Y-164619156D01*
X59114641Y-164641072D01*
X59115444Y-164663326D01*
X59115712Y-164685917D01*
X59115436Y-164711412D01*
X59114607Y-164736424D01*
X59113226Y-164760952D01*
X59111292Y-164784996D01*
X59108807Y-164808556D01*
X59105768Y-164831633D01*
X59102178Y-164854226D01*
X59098035Y-164876335D01*
X59093339Y-164897960D01*
X59088091Y-164919102D01*
X59082291Y-164939760D01*
X59075938Y-164959935D01*
X59069033Y-164979625D01*
X59061576Y-164998832D01*
X59053566Y-165017556D01*
X59045003Y-165035795D01*
X59035972Y-165053582D01*
X59026554Y-165070949D01*
X59016749Y-165087895D01*
X59006558Y-165104420D01*
X58995981Y-165120524D01*
X58985017Y-165136207D01*
X58973667Y-165151470D01*
X58961930Y-165166312D01*
X58949807Y-165180734D01*
X58937298Y-165194734D01*
X58924402Y-165208314D01*
X58911120Y-165221473D01*
X58897452Y-165234211D01*
X58883397Y-165246529D01*
X58868955Y-165258426D01*
X58854128Y-165269902D01*
X58838945Y-165280973D01*
X58823439Y-165291655D01*
X58807609Y-165301947D01*
X58791456Y-165311851D01*
X58774980Y-165321365D01*
X58758180Y-165330489D01*
X58741057Y-165339225D01*
X58723610Y-165347571D01*
X58705840Y-165355528D01*
X58687747Y-165363096D01*
X58669330Y-165370274D01*
X58650589Y-165377063D01*
X58631526Y-165383463D01*
X58612138Y-165389474D01*
X58592428Y-165395095D01*
X58572394Y-165400327D01*
X58552129Y-165405208D01*
X58531727Y-165409773D01*
X58511188Y-165414023D01*
X58490511Y-165417959D01*
X58469697Y-165421579D01*
X58448746Y-165424885D01*
X58427657Y-165427876D01*
X58406431Y-165430553D01*
X58385067Y-165432914D01*
X58363566Y-165434960D01*
X58341928Y-165436692D01*
X58320152Y-165438109D01*
X58298239Y-165439211D01*
X58276188Y-165439998D01*
X58254000Y-165440470D01*
X58231675Y-165440628D01*
X57737816Y-165440628D01*
X57737816Y-164244815D01*
X58066811Y-164244815D01*
X58066811Y-165135812D01*
X58260984Y-165135812D01*
X58273861Y-165135708D01*
X58293037Y-165135160D01*
X58312046Y-165134141D01*
X58330887Y-165132652D01*
X58349561Y-165130693D01*
X58368067Y-165128264D01*
X58386406Y-165125365D01*
X58404578Y-165121996D01*
X58422582Y-165118157D01*
X58440419Y-165113847D01*
X58458088Y-165109068D01*
X58469761Y-165105666D01*
X58486912Y-165100172D01*
X58503632Y-165094207D01*
X58519919Y-165087773D01*
X58535776Y-165080868D01*
X58551201Y-165073493D01*
X58566194Y-165065648D01*
X58580756Y-165057333D01*
X58594886Y-165048548D01*
X58608585Y-165039292D01*
X58621853Y-165029567D01*
X58630442Y-165022859D01*
X58642908Y-165012374D01*
X58654871Y-165001380D01*
X58666332Y-164989877D01*
X58677291Y-164977865D01*
X58687747Y-164965345D01*
X58697702Y-164952316D01*
X58707153Y-164938778D01*
X58716103Y-164924731D01*
X58724550Y-164910175D01*
X58732495Y-164895111D01*
X58737508Y-164884787D01*
X58744421Y-164868882D01*
X58750607Y-164852476D01*
X58756065Y-164835566D01*
X58760795Y-164818155D01*
X58764797Y-164800241D01*
X58768072Y-164781824D01*
X58770619Y-164762906D01*
X58772438Y-164743485D01*
X58773530Y-164723562D01*
X58773894Y-164703136D01*
X58773732Y-164687354D01*
X58773247Y-164671881D01*
X58772438Y-164656717D01*
X58771306Y-164641862D01*
X58769002Y-164620159D01*
X58765970Y-164599152D01*
X58762210Y-164578840D01*
X58757722Y-164559224D01*
X58752507Y-164540303D01*
X58746564Y-164522078D01*
X58739893Y-164504548D01*
X58732495Y-164487714D01*
X58727245Y-164476855D01*
X58718921Y-164461060D01*
X58710055Y-164445857D01*
X58700648Y-164431247D01*
X58690701Y-164417229D01*
X58680212Y-164403804D01*
X58669182Y-164390971D01*
X58657612Y-164378731D01*
X58645500Y-164367083D01*
X58632848Y-164356028D01*
X58619655Y-164345565D01*
X58610620Y-164338907D01*
X58596676Y-164329372D01*
X58582262Y-164320377D01*
X58567379Y-164311924D01*
X58552025Y-164304011D01*
X58536200Y-164296639D01*
X58519906Y-164289809D01*
X58503142Y-164283519D01*
X58485907Y-164277770D01*
X58468203Y-164272562D01*
X58450028Y-164267896D01*
X58437693Y-164265101D01*
X58418960Y-164261246D01*
X58399950Y-164257798D01*
X58380664Y-164254755D01*
X58361100Y-164252118D01*
X58341260Y-164249886D01*
X58321142Y-164248060D01*
X58300748Y-164246640D01*
X58280076Y-164245626D01*
X58259128Y-164245017D01*
X58237903Y-164244815D01*
X58066811Y-164244815D01*
X57737816Y-164244815D01*
X57737816Y-163940000D01*
X58276005Y-163940000D01*
X58296783Y-163940190D01*
G37*
D12*
X29470000Y-76797349D02*
X29470000Y-77597349D01*
X29070000Y-77197349D02*
X29870000Y-77197349D01*
G36*
X54864728Y-85595589D02*
G01*
X54941746Y-85598166D01*
X54996798Y-85602320D01*
X55020869Y-85607536D01*
X55021422Y-85608183D01*
X55020837Y-85634133D01*
X55004068Y-85676801D01*
X54994175Y-85692835D01*
X54943749Y-85736093D01*
X54875712Y-85760277D01*
X54799312Y-85766418D01*
X54723794Y-85755548D01*
X54658406Y-85728697D01*
X54612392Y-85686896D01*
X54595000Y-85631178D01*
X54598512Y-85615098D01*
X54613908Y-85604460D01*
X54648215Y-85598385D01*
X54708459Y-85595642D01*
X54801666Y-85595000D01*
X54864728Y-85595589D01*
G37*
G36*
X54608116Y-90890465D02*
G01*
X54732751Y-90917618D01*
X54844923Y-90962108D01*
X54931697Y-91020977D01*
X54936849Y-91025884D01*
X55007667Y-91120914D01*
X55051253Y-91236283D01*
X55066397Y-91362466D01*
X55051887Y-91489937D01*
X55006511Y-91609170D01*
X54968086Y-91668381D01*
X54885734Y-91753423D01*
X54789475Y-91814155D01*
X54687673Y-91845878D01*
X54588690Y-91843893D01*
X54490824Y-91812295D01*
X54367668Y-91740010D01*
X54262192Y-91640479D01*
X54179962Y-91520600D01*
X54126543Y-91387272D01*
X54107500Y-91247394D01*
X54108616Y-91210460D01*
X54131311Y-91095414D01*
X54184301Y-91005891D01*
X54268991Y-90940127D01*
X54386785Y-90896354D01*
X54483954Y-90883607D01*
X54608116Y-90890465D01*
G37*
G36*
X52850844Y-84196152D02*
G01*
X52994843Y-84197768D01*
X53171706Y-84200257D01*
X53385000Y-84203528D01*
X53561233Y-84206345D01*
X53861349Y-84211531D01*
X54125379Y-84216714D01*
X54355871Y-84222013D01*
X54555375Y-84227547D01*
X54726441Y-84233434D01*
X54871618Y-84239791D01*
X54993454Y-84246739D01*
X55094500Y-84254395D01*
X55177305Y-84262878D01*
X55244418Y-84272306D01*
X55298388Y-84282797D01*
X55341765Y-84294471D01*
X55377534Y-84306777D01*
X55476181Y-84351963D01*
X55550244Y-84403418D01*
X55551734Y-84404784D01*
X55576378Y-84428168D01*
X55595131Y-84450952D01*
X55608293Y-84478193D01*
X55616161Y-84514946D01*
X55619033Y-84566266D01*
X55617209Y-84637210D01*
X55610987Y-84732833D01*
X55600664Y-84858191D01*
X55586540Y-85018339D01*
X55585534Y-85029672D01*
X55564649Y-85268980D01*
X55546521Y-85484754D01*
X55531317Y-85674669D01*
X55519205Y-85836401D01*
X55510350Y-85967624D01*
X55504919Y-86066015D01*
X55503080Y-86129248D01*
X55504999Y-86155000D01*
X55529900Y-86170760D01*
X55575708Y-86185156D01*
X55617418Y-86198987D01*
X55686143Y-86242781D01*
X55759987Y-86316379D01*
X55843292Y-86423651D01*
X55843644Y-86424144D01*
X55943452Y-86540257D01*
X56063697Y-86632695D01*
X56094408Y-86652305D01*
X56165508Y-86702551D01*
X56206922Y-86746549D01*
X56222775Y-86793921D01*
X56217192Y-86854287D01*
X56194298Y-86937267D01*
X56158662Y-87089630D01*
X56152471Y-87228932D01*
X56175167Y-87368325D01*
X56177225Y-87376424D01*
X56190412Y-87442882D01*
X56189182Y-87493056D01*
X56173337Y-87546177D01*
X56154198Y-87589099D01*
X56113717Y-87643412D01*
X56056245Y-87679044D01*
X55974314Y-87699901D01*
X55860460Y-87709891D01*
X55778292Y-87714814D01*
X55685380Y-87726610D01*
X55618694Y-87746245D01*
X55570111Y-87776438D01*
X55531507Y-87819905D01*
X55477149Y-87873806D01*
X55392325Y-87918320D01*
X55300642Y-87934805D01*
X55296168Y-87934721D01*
X55217446Y-87917695D01*
X55125732Y-87875183D01*
X55031632Y-87813088D01*
X54945751Y-87737311D01*
X54846503Y-87635000D01*
X54532180Y-87635000D01*
X54510802Y-87635006D01*
X54388293Y-87635773D01*
X54298841Y-87639296D01*
X54236400Y-87647645D01*
X54194927Y-87662887D01*
X54168376Y-87687094D01*
X54150704Y-87722334D01*
X54135865Y-87770675D01*
X54130285Y-87792144D01*
X54117104Y-87892154D01*
X54130806Y-87982764D01*
X54174061Y-88069760D01*
X54249541Y-88158927D01*
X54359915Y-88256051D01*
X54409097Y-88290991D01*
X54475956Y-88329007D01*
X54559833Y-88368259D01*
X54663485Y-88409666D01*
X54789668Y-88454148D01*
X54941137Y-88502624D01*
X55120649Y-88556014D01*
X55330960Y-88615238D01*
X55574824Y-88681214D01*
X55855000Y-88754863D01*
X55933991Y-88775690D01*
X56069406Y-88812727D01*
X56194198Y-88848460D01*
X56301320Y-88880797D01*
X56383723Y-88907645D01*
X56434362Y-88926912D01*
X56507920Y-88963997D01*
X56639736Y-89051455D01*
X56766761Y-89166014D01*
X56896041Y-89313575D01*
X56948555Y-89377788D01*
X57001690Y-89439530D01*
X57042355Y-89483202D01*
X57064512Y-89502046D01*
X57070172Y-89503487D01*
X57111539Y-89503180D01*
X57167573Y-89493943D01*
X57224634Y-89485114D01*
X57343013Y-89492996D01*
X57453211Y-89533217D01*
X57546522Y-89601858D01*
X57614241Y-89695000D01*
X57654845Y-89811002D01*
X57662817Y-89936607D01*
X57634514Y-90056577D01*
X57570576Y-90164043D01*
X57555505Y-90181501D01*
X57477028Y-90247238D01*
X57383390Y-90283730D01*
X57265213Y-90295001D01*
X57215510Y-90295781D01*
X57172119Y-90301898D01*
X57148175Y-90318330D01*
X57131730Y-90350001D01*
X57115664Y-90388728D01*
X57042374Y-90549428D01*
X56968307Y-90687636D01*
X56897851Y-90795000D01*
X56824507Y-90882224D01*
X56668196Y-91023713D01*
X56482233Y-91146417D01*
X56271409Y-91247810D01*
X56040514Y-91325368D01*
X55794340Y-91376567D01*
X55742803Y-91384341D01*
X55657099Y-91400343D01*
X55594069Y-91421253D01*
X55545762Y-91453323D01*
X55504226Y-91502806D01*
X55461509Y-91575952D01*
X55409659Y-91679015D01*
X55403890Y-91690703D01*
X55332478Y-91826593D01*
X55266934Y-91931368D01*
X55201925Y-92011692D01*
X55132116Y-92074228D01*
X55052176Y-92125638D01*
X55001562Y-92152145D01*
X54955783Y-92169864D01*
X54905688Y-92179524D01*
X54839389Y-92183368D01*
X54745000Y-92183640D01*
X54720741Y-92183411D01*
X54623754Y-92180067D01*
X54548720Y-92171182D01*
X54480761Y-92154272D01*
X54405000Y-92126852D01*
X54404951Y-92126833D01*
X54299203Y-92085051D01*
X54222754Y-92057409D01*
X54167382Y-92044194D01*
X54124863Y-92045700D01*
X54086974Y-92062215D01*
X54045490Y-92094030D01*
X53992189Y-92141436D01*
X53916379Y-92203601D01*
X53775693Y-92298260D01*
X53627760Y-92376298D01*
X53487249Y-92429352D01*
X53415535Y-92444003D01*
X53307397Y-92456595D01*
X53177225Y-92465444D01*
X53034325Y-92470375D01*
X52888005Y-92471215D01*
X52747571Y-92467788D01*
X52622329Y-92459922D01*
X52521585Y-92447440D01*
X52487656Y-92441171D01*
X52309889Y-92398065D01*
X52127988Y-92338966D01*
X51956662Y-92269124D01*
X51810624Y-92193787D01*
X51715142Y-92131707D01*
X51531991Y-91980437D01*
X51368279Y-91801382D01*
X51230242Y-91601851D01*
X51124116Y-91389154D01*
X51055957Y-91199627D01*
X50983457Y-90903895D01*
X50950167Y-90605127D01*
X50950170Y-90604960D01*
X51181872Y-90604960D01*
X51198519Y-90854049D01*
X51253400Y-91092383D01*
X51346709Y-91321127D01*
X51470546Y-91533106D01*
X51630357Y-91735941D01*
X51814494Y-91908300D01*
X52021172Y-92048772D01*
X52248603Y-92155945D01*
X52495000Y-92228407D01*
X52564225Y-92240876D01*
X52709418Y-92256937D01*
X52871591Y-92264910D01*
X53039489Y-92264913D01*
X53201860Y-92257063D01*
X53347448Y-92241479D01*
X53465000Y-92218278D01*
X53521011Y-92201995D01*
X53660534Y-92151823D01*
X53788868Y-92092667D01*
X53896518Y-92029228D01*
X53973990Y-91966209D01*
X54042981Y-91894861D01*
X53969977Y-91819931D01*
X53951609Y-91800299D01*
X53912697Y-91751116D01*
X53878221Y-91693268D01*
X53845644Y-91620659D01*
X53812424Y-91527196D01*
X53776024Y-91406783D01*
X53733904Y-91253327D01*
X53715891Y-91186087D01*
X53697857Y-91119759D01*
X53897533Y-91119759D01*
X53904987Y-91271853D01*
X53938049Y-91452536D01*
X53999857Y-91623953D01*
X54086883Y-91771012D01*
X54196826Y-91890639D01*
X54327386Y-91979761D01*
X54476263Y-92035304D01*
X54620335Y-92052913D01*
X54774156Y-92037100D01*
X54920844Y-91988550D01*
X55053528Y-91910436D01*
X55165339Y-91805932D01*
X55249404Y-91678211D01*
X55279609Y-91602160D01*
X55305089Y-91461380D01*
X55296696Y-91318491D01*
X55254315Y-91185000D01*
X55219349Y-91121424D01*
X55120128Y-90995255D01*
X54991850Y-90883771D01*
X54841576Y-90792565D01*
X54676369Y-90727231D01*
X54631798Y-90716417D01*
X54533750Y-90702687D01*
X54427926Y-90697326D01*
X54329837Y-90700832D01*
X54255000Y-90713703D01*
X54253427Y-90714187D01*
X54157751Y-90753451D01*
X54060110Y-90809048D01*
X53981166Y-90869240D01*
X53947267Y-90910633D01*
X53911518Y-90999924D01*
X53897533Y-91119759D01*
X53697857Y-91119759D01*
X53689678Y-91089678D01*
X53668082Y-91012015D01*
X53652961Y-90959742D01*
X53646171Y-90939505D01*
X53626904Y-90941426D01*
X53586471Y-90954441D01*
X53521712Y-90969281D01*
X53425197Y-90974030D01*
X53320440Y-90965876D01*
X53223178Y-90945217D01*
X53191183Y-90936036D01*
X53072687Y-90914981D01*
X52971091Y-90923454D01*
X52876143Y-90963577D01*
X52777590Y-91037474D01*
X52724845Y-91081575D01*
X52624822Y-91148166D01*
X52528845Y-91185466D01*
X52427484Y-91197794D01*
X52353656Y-91193397D01*
X52247201Y-91162389D01*
X52154459Y-91099514D01*
X52071950Y-91002105D01*
X51996191Y-90867496D01*
X51941879Y-90731715D01*
X51898705Y-90561163D01*
X51878388Y-90386905D01*
X51879728Y-90228318D01*
X52039751Y-90228318D01*
X52044056Y-90398589D01*
X52069808Y-90556052D01*
X52114893Y-90695571D01*
X52177196Y-90812007D01*
X52254603Y-90900225D01*
X52345000Y-90955086D01*
X52409854Y-90971937D01*
X52509444Y-90978000D01*
X52606591Y-90965500D01*
X52684319Y-90935421D01*
X52719829Y-90910379D01*
X52769106Y-90859406D01*
X52810621Y-90789954D01*
X52848269Y-90694913D01*
X52854970Y-90672191D01*
X53035000Y-90672191D01*
X53046731Y-90697298D01*
X53083205Y-90732037D01*
X53130697Y-90762035D01*
X53175000Y-90776686D01*
X53178350Y-90776945D01*
X53221785Y-90778320D01*
X53294548Y-90779001D01*
X53387337Y-90778945D01*
X53490852Y-90778111D01*
X53756705Y-90775000D01*
X53700852Y-90705001D01*
X53692436Y-90694585D01*
X53654311Y-90655695D01*
X53614868Y-90640121D01*
X53555000Y-90639249D01*
X53521922Y-90640666D01*
X53444965Y-90643548D01*
X53349856Y-90646791D01*
X53250000Y-90649925D01*
X53178238Y-90652983D01*
X53104105Y-90658518D01*
X53053637Y-90665202D01*
X53035000Y-90672191D01*
X52854970Y-90672191D01*
X52885941Y-90567174D01*
X52909038Y-90476911D01*
X52923081Y-90406429D01*
X52928156Y-90344917D01*
X52925461Y-90277396D01*
X52916196Y-90188886D01*
X52886790Y-90029978D01*
X52836546Y-89886903D01*
X52768519Y-89772184D01*
X52684871Y-89690477D01*
X52660689Y-89675200D01*
X52557252Y-89635252D01*
X52443677Y-89622600D01*
X52336878Y-89639713D01*
X52244518Y-89689244D01*
X52164110Y-89774907D01*
X52102505Y-89892594D01*
X52060867Y-90040045D01*
X52040361Y-90215000D01*
X52039751Y-90228318D01*
X51879728Y-90228318D01*
X51879848Y-90214080D01*
X51902001Y-90047824D01*
X51943766Y-89893276D01*
X52004061Y-89755572D01*
X52081803Y-89639850D01*
X52175910Y-89551247D01*
X52285301Y-89494901D01*
X52345792Y-89481548D01*
X52459656Y-89479904D01*
X52580513Y-89501455D01*
X52693907Y-89544447D01*
X52790190Y-89603274D01*
X52894277Y-89688170D01*
X52983186Y-89782641D01*
X53045437Y-89875864D01*
X53083338Y-89971273D01*
X53113181Y-90091052D01*
X53128715Y-90211807D01*
X53126696Y-90315967D01*
X53122946Y-90383746D01*
X53138907Y-90438626D01*
X53181534Y-90468171D01*
X53255194Y-90477883D01*
X53288209Y-90476678D01*
X53370267Y-90465099D01*
X53449851Y-90444996D01*
X53467776Y-90439329D01*
X53560177Y-90420852D01*
X53640268Y-90429001D01*
X53718721Y-90466506D01*
X53806206Y-90536093D01*
X53857148Y-90579450D01*
X53921428Y-90621579D01*
X53971211Y-90635000D01*
X54010999Y-90630211D01*
X54058251Y-90601183D01*
X54075000Y-90549059D01*
X54074748Y-90546890D01*
X54063099Y-90514380D01*
X54035747Y-90452066D01*
X53995013Y-90364843D01*
X53943219Y-90257606D01*
X53882690Y-90135249D01*
X53815746Y-90002668D01*
X53746201Y-89865275D01*
X53663481Y-89697494D01*
X53597196Y-89555732D01*
X53545478Y-89434819D01*
X53506459Y-89329581D01*
X53478272Y-89234846D01*
X53459050Y-89145441D01*
X53446926Y-89056195D01*
X53441393Y-88980538D01*
X53605978Y-88980538D01*
X53624969Y-89147949D01*
X53634895Y-89197015D01*
X53699430Y-89428667D01*
X53795478Y-89676218D01*
X53921280Y-89935000D01*
X53967796Y-90022658D01*
X54029339Y-90139510D01*
X54088212Y-90252124D01*
X54136286Y-90345000D01*
X54228703Y-90525000D01*
X54426851Y-90527614D01*
X54471928Y-90528760D01*
X54568662Y-90534481D01*
X54654341Y-90543545D01*
X54714495Y-90554595D01*
X54773912Y-90573100D01*
X54944432Y-90652992D01*
X55103038Y-90767398D01*
X55245059Y-90912518D01*
X55365824Y-91084551D01*
X55374176Y-91098542D01*
X55416511Y-91164575D01*
X55454013Y-91215881D01*
X55479393Y-91242336D01*
X55514514Y-91249440D01*
X55582854Y-91244096D01*
X55675925Y-91226633D01*
X55787376Y-91198919D01*
X55910855Y-91162825D01*
X56040011Y-91120219D01*
X56168492Y-91072969D01*
X56289947Y-91022945D01*
X56398023Y-90972016D01*
X56426271Y-90957273D01*
X56617529Y-90838098D01*
X56771864Y-90704208D01*
X56889116Y-90555915D01*
X56969123Y-90393534D01*
X57011725Y-90217379D01*
X57016763Y-90027763D01*
X56984075Y-89825000D01*
X56974011Y-89791320D01*
X56935057Y-89698684D01*
X56880102Y-89596706D01*
X56816525Y-89499714D01*
X56809271Y-89490061D01*
X56727843Y-89403725D01*
X56617478Y-89314589D01*
X56486941Y-89229088D01*
X56345000Y-89153656D01*
X56282069Y-89124593D01*
X56194973Y-89086777D01*
X56104916Y-89051002D01*
X56007888Y-89016080D01*
X55899879Y-88980827D01*
X55776877Y-88944058D01*
X55634871Y-88904586D01*
X55469851Y-88861227D01*
X55277806Y-88812794D01*
X55054724Y-88758102D01*
X54796596Y-88695965D01*
X54734855Y-88680995D01*
X54649062Y-88658254D01*
X54579229Y-88635037D01*
X54515660Y-88606781D01*
X54448659Y-88568925D01*
X54368527Y-88516908D01*
X54265569Y-88446168D01*
X54239035Y-88428161D01*
X54172154Y-88389571D01*
X54111176Y-88369339D01*
X54038491Y-88360851D01*
X54010054Y-88359954D01*
X53927112Y-88365494D01*
X53864628Y-88381773D01*
X53848901Y-88389474D01*
X53760759Y-88457325D01*
X53690748Y-88555625D01*
X53640515Y-88679107D01*
X53611709Y-88822500D01*
X53605978Y-88980538D01*
X53441393Y-88980538D01*
X53440033Y-88961935D01*
X53441530Y-88791852D01*
X53468110Y-88630966D01*
X53520995Y-88500136D01*
X53600233Y-88399278D01*
X53705876Y-88328310D01*
X53837971Y-88287148D01*
X53840245Y-88286722D01*
X53906063Y-88265250D01*
X53962971Y-88233023D01*
X53993067Y-88203986D01*
X54014531Y-88157533D01*
X54003558Y-88118211D01*
X53964888Y-88090836D01*
X53903261Y-88080227D01*
X53823416Y-88091199D01*
X53806306Y-88095517D01*
X53689934Y-88112658D01*
X53579460Y-88109800D01*
X53489357Y-88087120D01*
X53454146Y-88071695D01*
X53385521Y-88041231D01*
X53312587Y-88008516D01*
X53200174Y-87957793D01*
X53190584Y-88091397D01*
X53165581Y-88234229D01*
X53111207Y-88353383D01*
X53025622Y-88451771D01*
X53005947Y-88468537D01*
X52955450Y-88506383D01*
X52896423Y-88542160D01*
X52821550Y-88579660D01*
X52723514Y-88622676D01*
X52595000Y-88675000D01*
X52468587Y-88727199D01*
X52312998Y-88799459D01*
X52178649Y-88874527D01*
X52055025Y-88959112D01*
X51931611Y-89059923D01*
X51797896Y-89183671D01*
X51753470Y-89227590D01*
X51573866Y-89432422D01*
X51430538Y-89647924D01*
X51321157Y-89878817D01*
X51243394Y-90129819D01*
X51194922Y-90405650D01*
X51181872Y-90604960D01*
X50950170Y-90604960D01*
X50956142Y-90305763D01*
X51001439Y-90008242D01*
X51086112Y-89715000D01*
X51087096Y-89712268D01*
X51203999Y-89438505D01*
X51346221Y-89194577D01*
X51513216Y-88981185D01*
X51704437Y-88799026D01*
X51919337Y-88648801D01*
X51981373Y-88613859D01*
X52047233Y-88581050D01*
X52122116Y-88548520D01*
X52211909Y-88514008D01*
X52322497Y-88475254D01*
X52459765Y-88429995D01*
X52629597Y-88375973D01*
X52691890Y-88356118D01*
X52812352Y-88315458D01*
X52897806Y-88282583D01*
X52950979Y-88256383D01*
X52974597Y-88235752D01*
X52984266Y-88201666D01*
X52992024Y-88138993D01*
X52995000Y-88064338D01*
X52992985Y-88004780D01*
X52978366Y-87907666D01*
X52951991Y-87838898D01*
X52916698Y-87800793D01*
X52875327Y-87795665D01*
X52830716Y-87825832D01*
X52785705Y-87893608D01*
X52733492Y-87977753D01*
X52670044Y-88035776D01*
X52601290Y-88055000D01*
X52584884Y-88053866D01*
X52513460Y-88035948D01*
X52417250Y-87998210D01*
X52302213Y-87943186D01*
X52174307Y-87873410D01*
X52128879Y-87847927D01*
X52056666Y-87810408D01*
X51999819Y-87784601D01*
X51967770Y-87775000D01*
X51967465Y-87775003D01*
X51931075Y-87785544D01*
X51869913Y-87813296D01*
X51792406Y-87853413D01*
X51706983Y-87901051D01*
X51622074Y-87951366D01*
X51546105Y-87999512D01*
X51487505Y-88040645D01*
X51454703Y-88069919D01*
X51423394Y-88118815D01*
X51402031Y-88169709D01*
X51394424Y-88189056D01*
X51353176Y-88228183D01*
X51288360Y-88249388D01*
X51208735Y-88252885D01*
X51123062Y-88238884D01*
X51040098Y-88207598D01*
X50968603Y-88159238D01*
X50926773Y-88111324D01*
X50877530Y-88012280D01*
X50851101Y-87893115D01*
X50849386Y-87782259D01*
X51009126Y-87782259D01*
X51009377Y-87861193D01*
X51024942Y-87903679D01*
X51070059Y-87971144D01*
X51132467Y-88035573D01*
X51201416Y-88084469D01*
X51218663Y-88093202D01*
X51269139Y-88107648D01*
X51305914Y-88093173D01*
X51333714Y-88046085D01*
X51357265Y-87962691D01*
X51374625Y-87892228D01*
X51397818Y-87835788D01*
X51432241Y-87804344D01*
X51487475Y-87789998D01*
X51573105Y-87784855D01*
X51657224Y-87780207D01*
X51715307Y-87768934D01*
X51743027Y-87747107D01*
X51745371Y-87710525D01*
X51727328Y-87654988D01*
X51718794Y-87631870D01*
X51705647Y-87582147D01*
X51705814Y-87553682D01*
X51705823Y-87553668D01*
X51738876Y-87536588D01*
X51801466Y-87537802D01*
X51888436Y-87555707D01*
X51994626Y-87588701D01*
X52114876Y-87635180D01*
X52244028Y-87693541D01*
X52376922Y-87762182D01*
X52454050Y-87803222D01*
X52529665Y-87840460D01*
X52587602Y-87865705D01*
X52619352Y-87875000D01*
X52621115Y-87874943D01*
X52656909Y-87856041D01*
X52690930Y-87811260D01*
X52728778Y-87747493D01*
X52767181Y-87703874D01*
X53163021Y-87703874D01*
X53186023Y-87755725D01*
X53229333Y-87814359D01*
X53287796Y-87873378D01*
X53356255Y-87926386D01*
X53429554Y-87966986D01*
X53448946Y-87974565D01*
X53539443Y-87995262D01*
X53640363Y-88001224D01*
X53735866Y-87992381D01*
X53810108Y-87968663D01*
X53822578Y-87961434D01*
X53894118Y-87895857D01*
X53952801Y-87799634D01*
X53993869Y-87680232D01*
X54000382Y-87652961D01*
X54015590Y-87595940D01*
X54033510Y-87553124D01*
X54059464Y-87522279D01*
X54098777Y-87501168D01*
X54156771Y-87487558D01*
X54238769Y-87479214D01*
X54350095Y-87473900D01*
X54496072Y-87469381D01*
X54521288Y-87468613D01*
X54642108Y-87464233D01*
X54747814Y-87459272D01*
X54832185Y-87454102D01*
X54889004Y-87449093D01*
X54912052Y-87444614D01*
X54913828Y-87442544D01*
X54908707Y-87421243D01*
X54870083Y-87396295D01*
X54803296Y-87370351D01*
X54713685Y-87346065D01*
X54703323Y-87343925D01*
X54630748Y-87334379D01*
X54529547Y-87326678D01*
X54409149Y-87321003D01*
X54278988Y-87317536D01*
X54148493Y-87316459D01*
X54027095Y-87317955D01*
X53924227Y-87322205D01*
X53849319Y-87329391D01*
X53793639Y-87337789D01*
X53864319Y-87434074D01*
X53898833Y-87483404D01*
X53926825Y-87534551D01*
X53933033Y-87572832D01*
X53914429Y-87600078D01*
X53867984Y-87618118D01*
X53790668Y-87628782D01*
X53679455Y-87633902D01*
X53531314Y-87635307D01*
X53457741Y-87635827D01*
X53353458Y-87638220D01*
X53266933Y-87642210D01*
X53205579Y-87647416D01*
X53176808Y-87653460D01*
X53165486Y-87665201D01*
X53163021Y-87703874D01*
X52767181Y-87703874D01*
X52777690Y-87691938D01*
X52830559Y-87666842D01*
X52894420Y-87667228D01*
X52944836Y-87671881D01*
X52969700Y-87663130D01*
X52966019Y-87637431D01*
X52933282Y-87591643D01*
X52870981Y-87522622D01*
X52792447Y-87451122D01*
X53275000Y-87451122D01*
X53279184Y-87457856D01*
X53312885Y-87476087D01*
X53373086Y-87497612D01*
X53450999Y-87520022D01*
X53537835Y-87540908D01*
X53624806Y-87557860D01*
X53703123Y-87568470D01*
X53731555Y-87571079D01*
X53791051Y-87575273D01*
X53820605Y-87573051D01*
X53827551Y-87562795D01*
X53819222Y-87542890D01*
X53816259Y-87537531D01*
X53751351Y-87463697D01*
X53649910Y-87405763D01*
X53639902Y-87401875D01*
X53565994Y-87383037D01*
X53490642Y-87375783D01*
X53468207Y-87376795D01*
X53401262Y-87387318D01*
X53338931Y-87405943D01*
X53292936Y-87428576D01*
X53275000Y-87451122D01*
X52792447Y-87451122D01*
X52781157Y-87440843D01*
X52625981Y-87344857D01*
X52596084Y-87331417D01*
X52518250Y-87301203D01*
X52425866Y-87269707D01*
X52327623Y-87239415D01*
X52232215Y-87212814D01*
X52148332Y-87192391D01*
X52084667Y-87180634D01*
X52049914Y-87180029D01*
X52046618Y-87183824D01*
X52060611Y-87203280D01*
X52099210Y-87231422D01*
X52112332Y-87239789D01*
X52163361Y-87276806D01*
X52197751Y-87308427D01*
X52204009Y-87326495D01*
X52181904Y-87336797D01*
X52133073Y-87335595D01*
X52063496Y-87323941D01*
X51979154Y-87302886D01*
X51886030Y-87273482D01*
X51790105Y-87236779D01*
X51730488Y-87212680D01*
X51649552Y-87182920D01*
X51584729Y-87162552D01*
X51546239Y-87155000D01*
X51536231Y-87155660D01*
X51485908Y-87179808D01*
X51449206Y-87230485D01*
X51435000Y-87296409D01*
X51434889Y-87301922D01*
X51428302Y-87329595D01*
X51406393Y-87354700D01*
X51362005Y-87383330D01*
X51287985Y-87421576D01*
X51226320Y-87454254D01*
X51143452Y-87510755D01*
X51089010Y-87569618D01*
X51070183Y-87599933D01*
X51030885Y-87689715D01*
X51009126Y-87782259D01*
X50849386Y-87782259D01*
X50849083Y-87762674D01*
X50873071Y-87629799D01*
X50888125Y-87588158D01*
X50933490Y-87506093D01*
X50992715Y-87431283D01*
X51057020Y-87373978D01*
X51117620Y-87344425D01*
X51124123Y-87342801D01*
X51189814Y-87311021D01*
X51261333Y-87255374D01*
X51327115Y-87186198D01*
X51375596Y-87113831D01*
X51393934Y-87082101D01*
X51439454Y-87034671D01*
X51498133Y-87015143D01*
X51576175Y-87022316D01*
X51679785Y-87054990D01*
X51757578Y-87081311D01*
X51826184Y-87092547D01*
X51887190Y-87083777D01*
X51955000Y-87055000D01*
X51960026Y-87052516D01*
X52040704Y-87025646D01*
X52125676Y-87015000D01*
X52179527Y-87019167D01*
X52287993Y-87042219D01*
X52415002Y-87082789D01*
X52551543Y-87137845D01*
X52688605Y-87204356D01*
X52733723Y-87228024D01*
X52796044Y-87258558D01*
X52834293Y-87272346D01*
X52855399Y-87271481D01*
X52866292Y-87258058D01*
X52871501Y-87234584D01*
X52878401Y-87176864D01*
X52884890Y-87096679D01*
X52890059Y-87003755D01*
X52890548Y-86992299D01*
X52893180Y-86879287D01*
X52889442Y-86788956D01*
X52878034Y-86705660D01*
X52857656Y-86613755D01*
X52806778Y-86453304D01*
X52728822Y-86272438D01*
X52631820Y-86091380D01*
X52521970Y-85922885D01*
X52446077Y-85812131D01*
X52383515Y-85702044D01*
X52343501Y-85600664D01*
X52322301Y-85498236D01*
X52316184Y-85385000D01*
X52316208Y-85377795D01*
X52318393Y-85280529D01*
X52322615Y-85185000D01*
X52505070Y-85185000D01*
X52505113Y-85241488D01*
X52506573Y-85361166D01*
X52512165Y-85453379D01*
X52524637Y-85527127D01*
X52546741Y-85591408D01*
X52581227Y-85655223D01*
X52630844Y-85727569D01*
X52698343Y-85817447D01*
X52723609Y-85851557D01*
X52792355Y-85951518D01*
X52858385Y-86056191D01*
X52910305Y-86147814D01*
X52934871Y-86197820D01*
X52976186Y-86291328D01*
X53017375Y-86394024D01*
X53055145Y-86496789D01*
X53086202Y-86590509D01*
X53107251Y-86666066D01*
X53115000Y-86714344D01*
X53113139Y-86729492D01*
X53101830Y-86780356D01*
X53082541Y-86853151D01*
X53057913Y-86937541D01*
X53040069Y-86996455D01*
X53011171Y-87095823D01*
X52993567Y-87167177D01*
X52986624Y-87217347D01*
X52989706Y-87253162D01*
X53002179Y-87281453D01*
X53023409Y-87309050D01*
X53070646Y-87363966D01*
X53287823Y-87309970D01*
X53351988Y-87294170D01*
X53458117Y-87269276D01*
X53553445Y-87249502D01*
X53644322Y-87234286D01*
X53737098Y-87223070D01*
X53838121Y-87215293D01*
X53953742Y-87210397D01*
X54090309Y-87207822D01*
X54254172Y-87207008D01*
X54451680Y-87207395D01*
X54597213Y-87207936D01*
X54760699Y-87208967D01*
X54890230Y-87211110D01*
X54989274Y-87215203D01*
X55061297Y-87222082D01*
X55109768Y-87232584D01*
X55138154Y-87247546D01*
X55149921Y-87267804D01*
X55148537Y-87294196D01*
X55137469Y-87327557D01*
X55120185Y-87368726D01*
X55094638Y-87431480D01*
X55069310Y-87508995D01*
X55062905Y-87565182D01*
X55074971Y-87608367D01*
X55105053Y-87646872D01*
X55139060Y-87676423D01*
X55180504Y-87691891D01*
X55239455Y-87688939D01*
X55280481Y-87680951D01*
X55346297Y-87648484D01*
X55387121Y-87590266D01*
X55408066Y-87500584D01*
X55415353Y-87445281D01*
X55424752Y-87414976D01*
X55441714Y-87409467D01*
X55472595Y-87420903D01*
X55483160Y-87425692D01*
X55539222Y-87454523D01*
X55599602Y-87489292D01*
X55654209Y-87516742D01*
X55732362Y-87531367D01*
X55795359Y-87511380D01*
X55840222Y-87459272D01*
X55863969Y-87377533D01*
X55863620Y-87268655D01*
X55858491Y-87213582D01*
X55861672Y-87176440D01*
X55879555Y-87154591D01*
X55917383Y-87135000D01*
X55975041Y-87099052D01*
X56037221Y-87022835D01*
X56068442Y-86923158D01*
X56070722Y-86875971D01*
X56055882Y-86826727D01*
X56015811Y-86792307D01*
X55945652Y-86769096D01*
X55840549Y-86753476D01*
X55821845Y-86751509D01*
X55751485Y-86744020D01*
X55701163Y-86738518D01*
X55680752Y-86736079D01*
X55680164Y-86720067D01*
X55682810Y-86674192D01*
X55688263Y-86609086D01*
X55690009Y-86590097D01*
X55693708Y-86527246D01*
X55687829Y-86485987D01*
X55668075Y-86451530D01*
X55630148Y-86409086D01*
X55604243Y-86383735D01*
X55559352Y-86348733D01*
X55527380Y-86335000D01*
X55521090Y-86336372D01*
X55486132Y-86357735D01*
X55435600Y-86399598D01*
X55378151Y-86455000D01*
X55359402Y-86474070D01*
X55305758Y-86525580D01*
X55263754Y-86561505D01*
X55241200Y-86575000D01*
X55232501Y-86572985D01*
X55195116Y-86554849D01*
X55145415Y-86523991D01*
X55124036Y-86510527D01*
X55073158Y-86486042D01*
X55037729Y-86479245D01*
X55035932Y-86479736D01*
X55008029Y-86501548D01*
X54968258Y-86547585D01*
X54924608Y-86608703D01*
X54920967Y-86614262D01*
X54861892Y-86701373D01*
X54813571Y-86762801D01*
X54767190Y-86807028D01*
X54713937Y-86842535D01*
X54645000Y-86877803D01*
X54602993Y-86895948D01*
X54463361Y-86931467D01*
X54324924Y-86930765D01*
X54195000Y-86893585D01*
X54134808Y-86858624D01*
X54045659Y-86785026D01*
X53955879Y-86689680D01*
X53873614Y-86581492D01*
X53807013Y-86469372D01*
X53790804Y-86436431D01*
X53747123Y-86334636D01*
X53715542Y-86233293D01*
X53694843Y-86124403D01*
X53683813Y-85999966D01*
X53681235Y-85851983D01*
X53685892Y-85672455D01*
X53686149Y-85666002D01*
X53690906Y-85540878D01*
X53693453Y-85449259D01*
X53693345Y-85384967D01*
X53690135Y-85341820D01*
X53683380Y-85313640D01*
X53672635Y-85294245D01*
X53657454Y-85277455D01*
X53633269Y-85257924D01*
X53584184Y-85239930D01*
X53510000Y-85234604D01*
X53443569Y-85232091D01*
X53328737Y-85222070D01*
X53196697Y-85205712D01*
X53060000Y-85184418D01*
X53053744Y-85183269D01*
X53008537Y-85165845D01*
X52995000Y-85134798D01*
X52995070Y-85131520D01*
X53006721Y-85098656D01*
X53041286Y-85073537D01*
X53103018Y-85054827D01*
X53196172Y-85041195D01*
X53325000Y-85031305D01*
X53412052Y-85025944D01*
X53517621Y-85018528D01*
X53609676Y-85011114D01*
X53675000Y-85004708D01*
X53725862Y-85000302D01*
X53784853Y-85003695D01*
X53824312Y-85021299D01*
X53841744Y-85036460D01*
X53852101Y-85056433D01*
X53854401Y-85089025D01*
X53849194Y-85143190D01*
X53837031Y-85227885D01*
X53806159Y-85467333D01*
X53789964Y-85689121D01*
X53790680Y-85887447D01*
X53808651Y-86069016D01*
X53844222Y-86240531D01*
X53897738Y-86408694D01*
X53948718Y-86525717D01*
X54030932Y-86655626D01*
X54126461Y-86750598D01*
X54233718Y-86809519D01*
X54351115Y-86831277D01*
X54477065Y-86814759D01*
X54504907Y-86805097D01*
X54593565Y-86748096D01*
X54679329Y-86652608D01*
X54761106Y-86519770D01*
X54835265Y-86378645D01*
X54654554Y-86337038D01*
X54582067Y-86319588D01*
X54486566Y-86292085D01*
X54416444Y-86263455D01*
X54362745Y-86229719D01*
X54316513Y-86186901D01*
X54268027Y-86135000D01*
X54352804Y-86135000D01*
X54366109Y-86135384D01*
X54429828Y-86146706D01*
X54509173Y-86175891D01*
X54612450Y-86225847D01*
X54625778Y-86232715D01*
X54718246Y-86276496D01*
X54784914Y-86300482D01*
X54822141Y-86303330D01*
X54832720Y-86297386D01*
X54869818Y-86255520D01*
X54912148Y-86182717D01*
X54922397Y-86160539D01*
X55207861Y-86160539D01*
X55207871Y-86197283D01*
X55219501Y-86208085D01*
X55240595Y-86191191D01*
X55268190Y-86151566D01*
X55299323Y-86094171D01*
X55331030Y-86023970D01*
X55360350Y-85945926D01*
X55384318Y-85865000D01*
X55395189Y-85812923D01*
X55410890Y-85705570D01*
X55425064Y-85571194D01*
X55437129Y-85417622D01*
X55446500Y-85252681D01*
X55452593Y-85084198D01*
X55454824Y-84920000D01*
X55455000Y-84655000D01*
X55407448Y-84655000D01*
X55374283Y-84660211D01*
X55339772Y-84680000D01*
X55334665Y-84699232D01*
X55326512Y-84754776D01*
X55316461Y-84841456D01*
X55304989Y-84954546D01*
X55292571Y-85089318D01*
X55279683Y-85241045D01*
X55266800Y-85405000D01*
X55256435Y-85541822D01*
X55244445Y-85698864D01*
X55233493Y-85840998D01*
X55223968Y-85963229D01*
X55216262Y-86060560D01*
X55210763Y-86127996D01*
X55207861Y-86160539D01*
X54922397Y-86160539D01*
X54957248Y-86085122D01*
X55002657Y-85968877D01*
X55045912Y-85840125D01*
X55084553Y-85705010D01*
X55116118Y-85569674D01*
X55136928Y-85449141D01*
X55154610Y-85299124D01*
X55165607Y-85143590D01*
X55170026Y-84988979D01*
X55167977Y-84841729D01*
X55159568Y-84708279D01*
X55144909Y-84595071D01*
X55124108Y-84508542D01*
X55097273Y-84455133D01*
X55091450Y-84449229D01*
X55071090Y-84436677D01*
X55037578Y-84425875D01*
X54985563Y-84415921D01*
X54909695Y-84405911D01*
X54804624Y-84394941D01*
X54665000Y-84382107D01*
X54625198Y-84378732D01*
X54464326Y-84367585D01*
X54287473Y-84358646D01*
X54100849Y-84351954D01*
X53910665Y-84347552D01*
X53723133Y-84345479D01*
X53544462Y-84345776D01*
X53380865Y-84348485D01*
X53238552Y-84353644D01*
X53123735Y-84361296D01*
X53042623Y-84371481D01*
X52972577Y-84383231D01*
X52915291Y-84387822D01*
X52870828Y-84382310D01*
X52825180Y-84366365D01*
X52805628Y-84358298D01*
X52754391Y-84340182D01*
X52714728Y-84335791D01*
X52682979Y-84349277D01*
X52655487Y-84384790D01*
X52628593Y-84446481D01*
X52598638Y-84538501D01*
X52561963Y-84665000D01*
X52560465Y-84670281D01*
X52538879Y-84750084D01*
X52523731Y-84818608D01*
X52513898Y-84886108D01*
X52508258Y-84962837D01*
X52505689Y-85059050D01*
X52505070Y-85185000D01*
X52322615Y-85185000D01*
X52323657Y-85161421D01*
X52331397Y-85028194D01*
X52341008Y-84888576D01*
X52351886Y-84750291D01*
X52363426Y-84621066D01*
X52375024Y-84508625D01*
X52386076Y-84420695D01*
X52395977Y-84365000D01*
X52405551Y-84331062D01*
X52429160Y-84268663D01*
X52452818Y-84227239D01*
X52454293Y-84225542D01*
X52463684Y-84216908D01*
X52477425Y-84209873D01*
X52499082Y-84204345D01*
X52532219Y-84200235D01*
X52580399Y-84197451D01*
X52647187Y-84195903D01*
X52736147Y-84195500D01*
X52850844Y-84196152D01*
G37*
D13*
X52650000Y-154290000D02*
X55650000Y-154290000D01*
X52650000Y-161290000D02*
X55650000Y-161290000D01*
D12*
X36632742Y-103007500D02*
X37107258Y-103007500D01*
X36632742Y-104052500D02*
X37107258Y-104052500D01*
X55735000Y-132621252D02*
X55735000Y-132098748D01*
X57205000Y-132621252D02*
X57205000Y-132098748D01*
X33791252Y-50011000D02*
X33268748Y-50011000D01*
X33791252Y-48541000D02*
X33268748Y-48541000D01*
X55876248Y-62477500D02*
X56398752Y-62477500D01*
X55876248Y-63947500D02*
X56398752Y-63947500D01*
X46520000Y-101492164D02*
X46520000Y-101707836D01*
X45800000Y-101492164D02*
X45800000Y-101707836D01*
X52840000Y-58637836D02*
X52840000Y-58422164D01*
X53560000Y-58637836D02*
X53560000Y-58422164D01*
X37273641Y-44990000D02*
X36966359Y-44990000D01*
X37273641Y-44230000D02*
X36966359Y-44230000D01*
X60622258Y-104652500D02*
X60147742Y-104652500D01*
X60622258Y-103607500D02*
X60147742Y-103607500D01*
X34605000Y-62311252D02*
X34605000Y-61788748D01*
X36075000Y-62311252D02*
X36075000Y-61788748D01*
X42227836Y-142760000D02*
X42012164Y-142760000D01*
X42227836Y-142040000D02*
X42012164Y-142040000D01*
X58908748Y-135325000D02*
X59431252Y-135325000D01*
X58908748Y-136795000D02*
X59431252Y-136795000D01*
X54041252Y-136125000D02*
X53518748Y-136125000D01*
X54041252Y-134655000D02*
X53518748Y-134655000D01*
X51552164Y-103570000D02*
X51767836Y-103570000D01*
X51552164Y-104290000D02*
X51767836Y-104290000D01*
X39341248Y-96415000D02*
X39863752Y-96415000D01*
X39341248Y-97885000D02*
X39863752Y-97885000D01*
X45147836Y-105120000D02*
X44932164Y-105120000D01*
X45147836Y-104400000D02*
X44932164Y-104400000D01*
X58730000Y-62132164D02*
X58730000Y-62347836D01*
X58010000Y-62132164D02*
X58010000Y-62347836D01*
X45975000Y-168297064D02*
X45975000Y-167842936D01*
X47445000Y-168297064D02*
X47445000Y-167842936D01*
X60089064Y-50478000D02*
X55734936Y-50478000D01*
X60089064Y-47058000D02*
X55734936Y-47058000D01*
X56080000Y-127520000D02*
X56080000Y-123510000D01*
X58080000Y-127520000D02*
X56080000Y-127520000D01*
X58080000Y-127520000D02*
X58080000Y-123510000D01*
X33607500Y-42067258D02*
X33607500Y-41592742D01*
X34652500Y-42067258D02*
X34652500Y-41592742D01*
X62180000Y-144256359D02*
X62180000Y-144563641D01*
X61420000Y-144256359D02*
X61420000Y-144563641D01*
X41977836Y-44700000D02*
X41762164Y-44700000D01*
X41977836Y-43980000D02*
X41762164Y-43980000D01*
X41030000Y-124260000D02*
G75*
G03*
X41030000Y-124260000I-700000J0D01*
G01*
X41277064Y-51220000D02*
X38222936Y-51220000D01*
X41277064Y-48500000D02*
X38222936Y-48500000D01*
X65575000Y-54078748D02*
X65575000Y-54601252D01*
X64105000Y-54078748D02*
X64105000Y-54601252D01*
X71765000Y-125048748D02*
X71765000Y-125571252D01*
X70295000Y-125048748D02*
X70295000Y-125571252D01*
X41765000Y-98177836D02*
X41765000Y-97962164D01*
X42485000Y-98177836D02*
X42485000Y-97962164D01*
X56986359Y-101660000D02*
X57293641Y-101660000D01*
X56986359Y-102420000D02*
X57293641Y-102420000D01*
X41791252Y-36745000D02*
X41268748Y-36745000D01*
X41791252Y-35275000D02*
X41268748Y-35275000D01*
X71985000Y-110588748D02*
X71985000Y-111111252D01*
X70515000Y-110588748D02*
X70515000Y-111111252D01*
X56790000Y-76470000D02*
X56340000Y-76470000D01*
X56790000Y-76920000D02*
X56790000Y-76470000D01*
X52570000Y-76920000D02*
X52570000Y-76470000D01*
X56790000Y-80240000D02*
X56790000Y-80690000D01*
X52570000Y-80240000D02*
X52570000Y-80690000D01*
X56790000Y-80690000D02*
X56340000Y-80690000D01*
X52570000Y-80690000D02*
X53020000Y-80690000D01*
X42965000Y-120685000D02*
G75*
G03*
X42965000Y-120685000I-200000J0D01*
G01*
D13*
X36657839Y-37902200D02*
G75*
G03*
X36657839Y-37902200I-162639J0D01*
G01*
D12*
X48045207Y-52466379D02*
X51815993Y-50289315D01*
X49755207Y-55428185D02*
X53525993Y-53251121D01*
X63412500Y-55792742D02*
X63412500Y-56267258D01*
X62367500Y-55792742D02*
X62367500Y-56267258D01*
X55147500Y-61330336D02*
X55147500Y-61114664D01*
X55867500Y-61330336D02*
X55867500Y-61114664D01*
X36478748Y-35345000D02*
X37001252Y-35345000D01*
X36478748Y-36815000D02*
X37001252Y-36815000D01*
X56415000Y-112087252D02*
X56415000Y-111564748D01*
X57885000Y-112087252D02*
X57885000Y-111564748D01*
D13*
X44725000Y-120740000D02*
G75*
G03*
X44725000Y-120740000I-50000J0D01*
G01*
D12*
X54041252Y-134145000D02*
X53518748Y-134145000D01*
X54041252Y-132675000D02*
X53518748Y-132675000D01*
X61193752Y-63817500D02*
X60671248Y-63817500D01*
X61193752Y-62347500D02*
X60671248Y-62347500D01*
X45520000Y-98922164D02*
X45520000Y-99137836D01*
X44800000Y-98922164D02*
X44800000Y-99137836D01*
X42490000Y-37902164D02*
X42490000Y-38117836D01*
X41770000Y-37902164D02*
X41770000Y-38117836D01*
X46410000Y-39852164D02*
X46410000Y-40067836D01*
X45690000Y-39852164D02*
X45690000Y-40067836D01*
X36955000Y-24741252D02*
X36955000Y-24218748D01*
X38425000Y-24741252D02*
X38425000Y-24218748D01*
X38955000Y-36987836D02*
X38955000Y-36772164D01*
X39675000Y-36987836D02*
X39675000Y-36772164D01*
X47985000Y-168297064D02*
X47985000Y-167842936D01*
X49455000Y-168297064D02*
X49455000Y-167842936D01*
X47170000Y-115930000D02*
X47620000Y-115930000D01*
X47170000Y-115480000D02*
X47170000Y-115930000D01*
X51390000Y-115480000D02*
X51390000Y-115930000D01*
X47170000Y-112160000D02*
X47170000Y-111710000D01*
X51390000Y-112160000D02*
X51390000Y-111710000D01*
X47170000Y-111710000D02*
X47620000Y-111710000D01*
X51390000Y-111710000D02*
X50940000Y-111710000D01*
X51510000Y-109197836D02*
X51510000Y-108982164D01*
X52230000Y-109197836D02*
X52230000Y-108982164D01*
X51900000Y-55557836D02*
X51900000Y-55342164D01*
X52620000Y-55557836D02*
X52620000Y-55342164D01*
X55390000Y-110002164D02*
X55390000Y-110217836D01*
X54670000Y-110002164D02*
X54670000Y-110217836D01*
X61081252Y-35485000D02*
X60558748Y-35485000D01*
X61081252Y-34015000D02*
X60558748Y-34015000D01*
X67368385Y-98554656D02*
X68095449Y-97295344D01*
X68944551Y-99464656D02*
X69671615Y-98205344D01*
X67385000Y-76567349D02*
X67385000Y-77367349D01*
X66985000Y-76967349D02*
X67785000Y-76967349D01*
X24615000Y-96721252D02*
X24615000Y-96198748D01*
X26085000Y-96721252D02*
X26085000Y-96198748D01*
X64525000Y-143106359D02*
X64525000Y-143413641D01*
X63765000Y-143106359D02*
X63765000Y-143413641D01*
X60273641Y-54520000D02*
X59966359Y-54520000D01*
X60273641Y-53760000D02*
X59966359Y-53760000D01*
X49965000Y-168297064D02*
X49965000Y-167842936D01*
X51435000Y-168297064D02*
X51435000Y-167842936D01*
X44382500Y-96916248D02*
X44382500Y-97438752D01*
X42912500Y-96916248D02*
X42912500Y-97438752D01*
X24695000Y-112131252D02*
X24695000Y-111608748D01*
X26165000Y-112131252D02*
X26165000Y-111608748D01*
X51925000Y-168297064D02*
X51925000Y-167842936D01*
X53395000Y-168297064D02*
X53395000Y-167842936D01*
D13*
X58017439Y-108877800D02*
G75*
G03*
X58017439Y-108877800I-162639J0D01*
G01*
D12*
X64495000Y-144992164D02*
X64495000Y-145207836D01*
X63775000Y-144992164D02*
X63775000Y-145207836D01*
X48490000Y-125167836D02*
X48490000Y-124952164D01*
X49210000Y-125167836D02*
X49210000Y-124952164D01*
X50280000Y-106647836D02*
X50280000Y-106432164D01*
X51000000Y-106647836D02*
X51000000Y-106432164D01*
X68301252Y-94335000D02*
X67778748Y-94335000D01*
X68301252Y-92865000D02*
X67778748Y-92865000D01*
D13*
X41490000Y-154320000D02*
X44490000Y-154320000D01*
X41490000Y-161320000D02*
X44490000Y-161320000D01*
D12*
X58898748Y-133365000D02*
X59421252Y-133365000D01*
X58898748Y-134835000D02*
X59421252Y-134835000D01*
D13*
X61342439Y-61337800D02*
G75*
G03*
X61342439Y-61337800I-162639J0D01*
G01*
D12*
X52735000Y-111061252D02*
X52735000Y-110538748D01*
X54205000Y-111061252D02*
X54205000Y-110538748D01*
D13*
X39427839Y-99102200D02*
G75*
G03*
X39427839Y-99102200I-162639J0D01*
G01*
D12*
X38803641Y-106250000D02*
X38496359Y-106250000D01*
X38803641Y-105490000D02*
X38496359Y-105490000D01*
%LPC*%
D14*
X36533618Y-58479406D03*
X37082793Y-57153581D03*
X37082793Y-59805231D03*
X38408618Y-56604406D03*
D15*
X38408618Y-58479406D03*
D14*
X38408618Y-60354406D03*
X39734443Y-57153581D03*
X39734443Y-59805231D03*
X40283618Y-58479406D03*
X69964500Y-99185000D03*
X69964500Y-100985000D03*
X69964500Y-102785000D03*
X71764500Y-99185000D03*
X71764500Y-100985000D03*
X71764500Y-102785000D03*
X73564500Y-99185000D03*
X73564500Y-100985000D03*
X73564500Y-102785000D03*
X58440000Y-24150000D03*
X58440000Y-25950000D03*
X58440000Y-27750000D03*
X60240000Y-24150000D03*
X60240000Y-25950000D03*
X60240000Y-27750000D03*
X62040000Y-24150000D03*
X62040000Y-25950000D03*
X62040000Y-27750000D03*
X70574500Y-113615000D03*
X70574500Y-115415000D03*
X70574500Y-117215000D03*
X72374500Y-113615000D03*
X72374500Y-115415000D03*
X72374500Y-117215000D03*
X74174500Y-113615000D03*
X74174500Y-115415000D03*
X74174500Y-117215000D03*
X23180000Y-104470000D03*
X23180000Y-106270000D03*
X23180000Y-108070000D03*
X24980000Y-104470000D03*
X24980000Y-106270000D03*
X24980000Y-108070000D03*
X26780000Y-104470000D03*
X26780000Y-106270000D03*
X26780000Y-108070000D03*
X68784500Y-82675000D03*
X68784500Y-84475000D03*
X68784500Y-86275000D03*
X70584500Y-82675000D03*
X70584500Y-84475000D03*
X70584500Y-86275000D03*
X72384500Y-82675000D03*
X72384500Y-84475000D03*
X72384500Y-86275000D03*
X60520000Y-46450000D03*
X62320000Y-46450000D03*
X64120000Y-42850000D03*
X64120000Y-44650000D03*
X64120000Y-46450000D03*
X21690000Y-89970000D03*
X21690000Y-91770000D03*
X21690000Y-93570000D03*
X23490000Y-89970000D03*
X23490000Y-91770000D03*
X23490000Y-93570000D03*
X25290000Y-89970000D03*
X25290000Y-91770000D03*
X25290000Y-93570000D03*
X56533618Y-38479406D03*
X57082793Y-37153581D03*
X57082793Y-39805231D03*
X58408618Y-36604406D03*
D15*
X58408618Y-38479406D03*
D14*
X58408618Y-40354406D03*
X59734443Y-37153581D03*
X59734443Y-39805231D03*
X60283618Y-38479406D03*
X31740000Y-50680000D03*
X31740000Y-52480000D03*
X31740000Y-54280000D03*
X33540000Y-50680000D03*
X35340000Y-50680000D03*
X33840000Y-32340000D03*
X33840000Y-34140000D03*
X33840000Y-35940000D03*
X35640000Y-32340000D03*
X35640000Y-34140000D03*
X37440000Y-32340000D03*
X37440000Y-34140000D03*
X33570000Y-73150000D03*
X33570000Y-71350000D03*
X33570000Y-69550000D03*
X31770000Y-73150000D03*
X31770000Y-71350000D03*
X31770000Y-69550000D03*
X29970000Y-73150000D03*
X29970000Y-71350000D03*
X29970000Y-69550000D03*
X24002000Y-119990000D03*
X24002000Y-121790000D03*
X24002000Y-123590000D03*
X25802000Y-119990000D03*
X25802000Y-121790000D03*
X25802000Y-123590000D03*
X27602000Y-119990000D03*
X27602000Y-121790000D03*
X27602000Y-123590000D03*
X62480000Y-65250000D03*
X64280000Y-61650000D03*
X64280000Y-63450000D03*
X64280000Y-65250000D03*
X66080000Y-61650000D03*
X66080000Y-63450000D03*
X66080000Y-65250000D03*
X36533618Y-146729406D03*
X37082793Y-145403581D03*
X37082793Y-148055231D03*
X38408618Y-144854406D03*
D15*
X38408618Y-146729406D03*
D14*
X38408618Y-148604406D03*
X39734443Y-145403581D03*
X39734443Y-148055231D03*
X40283618Y-146729406D03*
X56533618Y-146729406D03*
X57082793Y-145403581D03*
X57082793Y-148055231D03*
X58408618Y-144854406D03*
D15*
X58408618Y-146729406D03*
D14*
X58408618Y-148604406D03*
X59734443Y-145403581D03*
X59734443Y-148055231D03*
X60283618Y-146729406D03*
D16*
X47715000Y-120860000D03*
X47075000Y-120860000D03*
D17*
X27770000Y-77197349D03*
D18*
X27770000Y-80697349D03*
D19*
X52390000Y-34960000D03*
X52390000Y-45660000D03*
D20*
X51610000Y-155250000D03*
X51610000Y-157790000D03*
X51610000Y-160330000D03*
X56690000Y-155250000D03*
X56690000Y-157790000D03*
X56690000Y-160330000D03*
D21*
X36045000Y-103530000D03*
X37695000Y-103530000D03*
D22*
X56470000Y-133310000D03*
X56470000Y-131410000D03*
D16*
X37905000Y-43730000D03*
X37265000Y-43730000D03*
D23*
X34480000Y-49276000D03*
X32580000Y-49276000D03*
D24*
X47310000Y-118120000D03*
X36610000Y-118120000D03*
D16*
X59935000Y-108010000D03*
X59295000Y-108010000D03*
D25*
X53960000Y-115290000D03*
X53960000Y-114650000D03*
D26*
X55187500Y-63212500D03*
X57087500Y-63212500D03*
D27*
X46160000Y-101120000D03*
X46160000Y-102080000D03*
D28*
X53200000Y-59010000D03*
X53200000Y-58050000D03*
D29*
X56592500Y-43377500D03*
X60912500Y-43377500D03*
D25*
X42730000Y-123650000D03*
X42730000Y-123010000D03*
D30*
X37630000Y-44610000D03*
X36610000Y-44610000D03*
D31*
X61210000Y-104130000D03*
X59560000Y-104130000D03*
D19*
X44710000Y-50110000D03*
X44710000Y-60810000D03*
D25*
X55550000Y-123830000D03*
X55550000Y-123190000D03*
D32*
X56850000Y-74330000D03*
X56850000Y-74970000D03*
D25*
X56100000Y-74970000D03*
X56100000Y-74330000D03*
D22*
X35340000Y-63000000D03*
X35340000Y-61100000D03*
D33*
X62655000Y-144530000D03*
X63295000Y-144530000D03*
D34*
X47450000Y-75530000D03*
X47450000Y-76800000D03*
X47450000Y-78070000D03*
X47450000Y-79340000D03*
X47450000Y-80610000D03*
X47450000Y-81880000D03*
X47450000Y-83150000D03*
X47450000Y-84420000D03*
X47450000Y-85690000D03*
X47450000Y-86960000D03*
X47450000Y-88230000D03*
X47450000Y-89500000D03*
X47450000Y-90770000D03*
X47450000Y-92040000D03*
X47450000Y-93310000D03*
X47450000Y-94580000D03*
X47450000Y-95850000D03*
X47450000Y-97120000D03*
X48720000Y-75530000D03*
X48720000Y-76800000D03*
X48720000Y-78070000D03*
X48720000Y-79340000D03*
X48720000Y-80610000D03*
X48720000Y-81880000D03*
X48720000Y-83150000D03*
X48720000Y-84420000D03*
X48720000Y-85690000D03*
X48720000Y-86960000D03*
X48720000Y-88230000D03*
X48720000Y-89500000D03*
X48720000Y-90770000D03*
X48720000Y-92040000D03*
X48720000Y-93310000D03*
X48720000Y-94580000D03*
X48720000Y-95850000D03*
X48720000Y-97120000D03*
D35*
X42600000Y-142400000D03*
X41640000Y-142400000D03*
D33*
X57665000Y-109010000D03*
X58305000Y-109010000D03*
D32*
X50590000Y-77325000D03*
X50590000Y-77965000D03*
D19*
X64540000Y-91060000D03*
X64540000Y-101760000D03*
D32*
X54750000Y-74325000D03*
X54750000Y-74965000D03*
D26*
X58220000Y-136060000D03*
X60120000Y-136060000D03*
D23*
X54730000Y-135390000D03*
X52830000Y-135390000D03*
D36*
X51180000Y-103930000D03*
X52140000Y-103930000D03*
D25*
X55540000Y-126750000D03*
X55540000Y-126110000D03*
D26*
X38652500Y-97150000D03*
X40552500Y-97150000D03*
D35*
X45520000Y-104760000D03*
X44560000Y-104760000D03*
D29*
X43987500Y-110782500D03*
X39667500Y-110782500D03*
D27*
X58370000Y-61760000D03*
X58370000Y-62720000D03*
D33*
X59340000Y-81420000D03*
X59980000Y-81420000D03*
D37*
X46710000Y-168982500D03*
X46710000Y-167157500D03*
D38*
X60874500Y-48768000D03*
X54949500Y-48768000D03*
D16*
X63295000Y-143830000D03*
X62655000Y-143830000D03*
D39*
X57080000Y-126810000D03*
X57080000Y-123510000D03*
D19*
X29740000Y-93340000D03*
X29740000Y-104040000D03*
D40*
X34130000Y-42655000D03*
X34130000Y-41005000D03*
D41*
X61800000Y-143900000D03*
X61800000Y-144920000D03*
D35*
X42350000Y-44340000D03*
X41390000Y-44340000D03*
D33*
X53180000Y-113810000D03*
X53820000Y-113810000D03*
D25*
X42720000Y-122230000D03*
X42720000Y-121590000D03*
D42*
X40330000Y-124260000D03*
D25*
X58530000Y-81810000D03*
X58530000Y-81170000D03*
X42731000Y-127430000D03*
X42731000Y-126790000D03*
D43*
X40367499Y-139682498D03*
X41637499Y-139682498D03*
D44*
X42272499Y-137407498D03*
D43*
X42907499Y-139682498D03*
X44177499Y-139682498D03*
D45*
X44177499Y-133982498D03*
X40367499Y-133982498D03*
D46*
X41557499Y-134232498D03*
D45*
X41637499Y-133982498D03*
X42907499Y-133982498D03*
D32*
X61720000Y-55100000D03*
X61720000Y-55740000D03*
D16*
X40670000Y-105200000D03*
X40030000Y-105200000D03*
D47*
X42062500Y-49860000D03*
X37437500Y-49860000D03*
D48*
X64840000Y-53390000D03*
X64840000Y-55290000D03*
X71030000Y-124360000D03*
X71030000Y-126260000D03*
D28*
X42125000Y-98550000D03*
X42125000Y-97590000D03*
D49*
X56630000Y-102040000D03*
X57650000Y-102040000D03*
D23*
X42480000Y-36010000D03*
X40580000Y-36010000D03*
D48*
X71250000Y-109900000D03*
X71250000Y-111800000D03*
D32*
X44480000Y-120180000D03*
X44480000Y-120820000D03*
D50*
X53430000Y-76642500D03*
X53930000Y-76642500D03*
X54430000Y-76642500D03*
X54930000Y-76642500D03*
X55430000Y-76642500D03*
X55930000Y-76642500D03*
D51*
X56617500Y-77330000D03*
X56617500Y-77830000D03*
X56617500Y-78330000D03*
X56617500Y-78830000D03*
X56617500Y-79330000D03*
X56617500Y-79830000D03*
D50*
X55930000Y-80517500D03*
X55430000Y-80517500D03*
X54930000Y-80517500D03*
X54430000Y-80517500D03*
X53930000Y-80517500D03*
X53430000Y-80517500D03*
D51*
X52742500Y-79830000D03*
X52742500Y-79330000D03*
X52742500Y-78830000D03*
X52742500Y-78330000D03*
X52742500Y-77830000D03*
X52742500Y-77330000D03*
D52*
X54680000Y-78580000D03*
D53*
X51210000Y-133885000D03*
X49940000Y-133885000D03*
D54*
X49305000Y-136160000D03*
D53*
X48670000Y-133885000D03*
X47400000Y-133885000D03*
D55*
X47400000Y-139585000D03*
X51210000Y-139585000D03*
D56*
X50020000Y-139335000D03*
D55*
X49940000Y-139585000D03*
X48670000Y-139585000D03*
D16*
X60237500Y-61632500D03*
X59597500Y-61632500D03*
D32*
X41990000Y-123010000D03*
X41990000Y-123650000D03*
D33*
X37182500Y-99967500D03*
X37822500Y-99967500D03*
D57*
X43685000Y-121906500D03*
X44955000Y-121906500D03*
X46225000Y-121906500D03*
X47495000Y-121906500D03*
X47495000Y-127113500D03*
X46225000Y-127113500D03*
X44955000Y-127113500D03*
X43685000Y-127113500D03*
D58*
X36905000Y-38720000D03*
X37305000Y-38720000D03*
X37705000Y-38720000D03*
X38105000Y-38720000D03*
X38505000Y-38720000D03*
X38905000Y-38720000D03*
X39305000Y-38720000D03*
X39705000Y-38720000D03*
X40105000Y-38720000D03*
X40505000Y-38720000D03*
D59*
X41105000Y-39220000D03*
X41105000Y-39620000D03*
X41105000Y-40020000D03*
X41105000Y-40420000D03*
X41105000Y-40820000D03*
X41105000Y-41220000D03*
X41105000Y-41620000D03*
X41105000Y-42020000D03*
D58*
X40505000Y-42520000D03*
X40105000Y-42520000D03*
X39705000Y-42520000D03*
X39305000Y-42520000D03*
X38905000Y-42520000D03*
X38505000Y-42520000D03*
X38105000Y-42520000D03*
X37705000Y-42520000D03*
X37305000Y-42520000D03*
X36905000Y-42520000D03*
D59*
X36305000Y-42020000D03*
X36305000Y-41620000D03*
X36305000Y-41220000D03*
X36305000Y-40820000D03*
X36305000Y-40420000D03*
X36305000Y-40020000D03*
X36305000Y-39620000D03*
X36305000Y-39220000D03*
D60*
X39330000Y-39520000D03*
X38080000Y-39520000D03*
X40305000Y-40620000D03*
X39330000Y-40620000D03*
D61*
X38705000Y-40620000D03*
D60*
X38080000Y-40620000D03*
X37105000Y-40620000D03*
X39330000Y-41720000D03*
X38080000Y-41720000D03*
D29*
X41207500Y-53462500D03*
X36887500Y-53462500D03*
D62*
X48220000Y-54340000D03*
X53351200Y-51377500D03*
D16*
X38485000Y-98630000D03*
X37845000Y-98630000D03*
D63*
X49170000Y-150810000D03*
X49170000Y-142810000D03*
D64*
X62890000Y-55205000D03*
X62890000Y-56855000D03*
D16*
X36620000Y-37820000D03*
X35980000Y-37820000D03*
D28*
X55507500Y-61702500D03*
X55507500Y-60742500D03*
D26*
X35790000Y-36080000D03*
X37690000Y-36080000D03*
D33*
X61047500Y-61632500D03*
X61687500Y-61632500D03*
D16*
X51335000Y-78800000D03*
X50695000Y-78800000D03*
D22*
X57150000Y-112776000D03*
X57150000Y-110876000D03*
D33*
X37450000Y-37520000D03*
X38090000Y-37520000D03*
D65*
X45280000Y-120740000D03*
X46250000Y-120740000D03*
D23*
X54730000Y-133410000D03*
X52830000Y-133410000D03*
D24*
X41640000Y-90290000D03*
X30940000Y-90290000D03*
D23*
X61882500Y-63082500D03*
X59982500Y-63082500D03*
D27*
X45160000Y-98550000D03*
X45160000Y-99510000D03*
D19*
X41300000Y-62790000D03*
X41300000Y-73490000D03*
D27*
X42130000Y-37530000D03*
X42130000Y-38490000D03*
X46050000Y-39480000D03*
X46050000Y-40440000D03*
D19*
X29760000Y-106930000D03*
X29760000Y-117630000D03*
D22*
X37690000Y-25430000D03*
X37690000Y-23530000D03*
D19*
X63850000Y-107090000D03*
X63850000Y-117790000D03*
D28*
X39315000Y-37360000D03*
X39315000Y-36400000D03*
D32*
X53990000Y-74320000D03*
X53990000Y-74960000D03*
D37*
X48720000Y-168982500D03*
X48720000Y-167157500D03*
D66*
X50530000Y-115757500D03*
X50030000Y-115757500D03*
X49530000Y-115757500D03*
X49030000Y-115757500D03*
X48530000Y-115757500D03*
X48030000Y-115757500D03*
D67*
X47342500Y-115070000D03*
X47342500Y-114570000D03*
X47342500Y-114070000D03*
X47342500Y-113570000D03*
X47342500Y-113070000D03*
X47342500Y-112570000D03*
D66*
X48030000Y-111882500D03*
X48530000Y-111882500D03*
X49030000Y-111882500D03*
X49530000Y-111882500D03*
X50030000Y-111882500D03*
X50530000Y-111882500D03*
D67*
X51217500Y-112570000D03*
X51217500Y-113070000D03*
X51217500Y-113570000D03*
X51217500Y-114070000D03*
X51217500Y-114570000D03*
X51217500Y-115070000D03*
D52*
X49280000Y-113820000D03*
D28*
X51870000Y-109570000D03*
X51870000Y-108610000D03*
X52260000Y-55930000D03*
X52260000Y-54970000D03*
D27*
X55030000Y-109630000D03*
X55030000Y-110590000D03*
D32*
X58490000Y-102630000D03*
X58490000Y-103270000D03*
D29*
X56742500Y-96627500D03*
X61062500Y-96627500D03*
D23*
X61770000Y-34750000D03*
X59870000Y-34750000D03*
D68*
X52680000Y-171890000D03*
D69*
X50680000Y-171890000D03*
X48680000Y-171890000D03*
X46680000Y-171890000D03*
X44680000Y-171890000D03*
D70*
X67788750Y-99646562D03*
X69251250Y-97113438D03*
D16*
X43750000Y-120830000D03*
X43110000Y-120830000D03*
D32*
X55530000Y-127510000D03*
X55530000Y-128150000D03*
D33*
X50640000Y-75520000D03*
X51280000Y-75520000D03*
D17*
X69210000Y-76967349D03*
D18*
X69210000Y-80467349D03*
D25*
X57770000Y-82270000D03*
X57770000Y-81630000D03*
X55550000Y-125340000D03*
X55550000Y-124700000D03*
D22*
X25350000Y-97410000D03*
X25350000Y-95510000D03*
D41*
X64145000Y-142750000D03*
X64145000Y-143770000D03*
D33*
X60200000Y-55130000D03*
X60840000Y-55130000D03*
X40272500Y-98600000D03*
X40912500Y-98600000D03*
D24*
X61280000Y-121030000D03*
X50580000Y-121030000D03*
D16*
X56840000Y-109220000D03*
X56200000Y-109220000D03*
D30*
X60630000Y-54140000D03*
X59610000Y-54140000D03*
D71*
X48460000Y-130540000D03*
X42760000Y-130540000D03*
D37*
X50700000Y-168982500D03*
X50700000Y-167157500D03*
D25*
X41990000Y-122225000D03*
X41990000Y-121585000D03*
D18*
X30756122Y-130920064D03*
X29506122Y-128755000D03*
X28256122Y-126589937D03*
D32*
X53150000Y-114650000D03*
X53150000Y-115290000D03*
D72*
X37260000Y-137730000D03*
D73*
X37260000Y-135730000D03*
D48*
X43647500Y-96227500D03*
X43647500Y-98127500D03*
D25*
X35300000Y-43770000D03*
X35300000Y-43130000D03*
D22*
X25430000Y-112820000D03*
X25430000Y-110920000D03*
D37*
X52660000Y-168982500D03*
X52660000Y-167157500D03*
D74*
X57445000Y-108060000D03*
X57045000Y-108060000D03*
X56645000Y-108060000D03*
X56245000Y-108060000D03*
X55845000Y-108060000D03*
X55445000Y-108060000D03*
X55045000Y-108060000D03*
X54645000Y-108060000D03*
X54245000Y-108060000D03*
X53845000Y-108060000D03*
D75*
X53245000Y-107560000D03*
X53245000Y-107160000D03*
X53245000Y-106760000D03*
X53245000Y-106360000D03*
X53245000Y-105960000D03*
X53245000Y-105560000D03*
X53245000Y-105160000D03*
X53245000Y-104760000D03*
D74*
X53845000Y-104260000D03*
X54245000Y-104260000D03*
X54645000Y-104260000D03*
X55045000Y-104260000D03*
X55445000Y-104260000D03*
X55845000Y-104260000D03*
X56245000Y-104260000D03*
X56645000Y-104260000D03*
X57045000Y-104260000D03*
X57445000Y-104260000D03*
D75*
X58045000Y-104760000D03*
X58045000Y-105160000D03*
X58045000Y-105560000D03*
X58045000Y-105960000D03*
X58045000Y-106360000D03*
X58045000Y-106760000D03*
X58045000Y-107160000D03*
X58045000Y-107560000D03*
D60*
X55020000Y-107260000D03*
X56270000Y-107260000D03*
X54045000Y-106160000D03*
X55020000Y-106160000D03*
D76*
X55645000Y-106160000D03*
D60*
X56270000Y-106160000D03*
X57245000Y-106160000D03*
X55020000Y-105060000D03*
X56270000Y-105060000D03*
D19*
X41610000Y-76360000D03*
X41610000Y-87060000D03*
D43*
X50485000Y-129510000D03*
X51755000Y-129510000D03*
D44*
X52390000Y-127235000D03*
D43*
X53025000Y-129510000D03*
X54295000Y-129510000D03*
D45*
X54295000Y-123810000D03*
X50485000Y-123810000D03*
D46*
X51675000Y-124060000D03*
D45*
X51755000Y-123810000D03*
X53025000Y-123810000D03*
D16*
X51520000Y-76270000D03*
X50880000Y-76270000D03*
D32*
X58350000Y-74330000D03*
X58350000Y-74970000D03*
D27*
X64135000Y-144620000D03*
X64135000Y-145580000D03*
D28*
X48850000Y-125540000D03*
X48850000Y-124580000D03*
X50640000Y-107020000D03*
X50640000Y-106060000D03*
D33*
X56390000Y-103020000D03*
X57030000Y-103020000D03*
D32*
X35180000Y-38220000D03*
X35180000Y-38860000D03*
D33*
X38320000Y-104700000D03*
X38960000Y-104700000D03*
D23*
X68990000Y-93600000D03*
X67090000Y-93600000D03*
D32*
X57600000Y-74330000D03*
X57600000Y-74970000D03*
D20*
X40450000Y-155280000D03*
X40450000Y-157820000D03*
X40450000Y-160360000D03*
X45530000Y-155280000D03*
X45530000Y-157820000D03*
X45530000Y-160360000D03*
D25*
X51340000Y-77965000D03*
X51340000Y-77325000D03*
D26*
X58210000Y-134100000D03*
X60110000Y-134100000D03*
D25*
X57010000Y-82500000D03*
X57010000Y-81860000D03*
D74*
X60770000Y-60520000D03*
X60370000Y-60520000D03*
X59970000Y-60520000D03*
X59570000Y-60520000D03*
X59170000Y-60520000D03*
X58770000Y-60520000D03*
X58370000Y-60520000D03*
X57970000Y-60520000D03*
X57570000Y-60520000D03*
X57170000Y-60520000D03*
D75*
X56570000Y-60020000D03*
X56570000Y-59620000D03*
X56570000Y-59220000D03*
X56570000Y-58820000D03*
X56570000Y-58420000D03*
X56570000Y-58020000D03*
X56570000Y-57620000D03*
X56570000Y-57220000D03*
D74*
X57170000Y-56720000D03*
X57570000Y-56720000D03*
X57970000Y-56720000D03*
X58370000Y-56720000D03*
X58770000Y-56720000D03*
X59170000Y-56720000D03*
X59570000Y-56720000D03*
X59970000Y-56720000D03*
X60370000Y-56720000D03*
X60770000Y-56720000D03*
D75*
X61370000Y-57220000D03*
X61370000Y-57620000D03*
X61370000Y-58020000D03*
X61370000Y-58420000D03*
X61370000Y-58820000D03*
X61370000Y-59220000D03*
X61370000Y-59620000D03*
X61370000Y-60020000D03*
D60*
X58345000Y-59720000D03*
X59595000Y-59720000D03*
X57370000Y-58620000D03*
X58345000Y-58620000D03*
D76*
X58970000Y-58620000D03*
D60*
X59595000Y-58620000D03*
X60570000Y-58620000D03*
X58345000Y-57520000D03*
X59595000Y-57520000D03*
D22*
X53470000Y-111750000D03*
X53470000Y-109850000D03*
D58*
X39675000Y-99920000D03*
X40075000Y-99920000D03*
X40475000Y-99920000D03*
X40875000Y-99920000D03*
X41275000Y-99920000D03*
X41675000Y-99920000D03*
X42075000Y-99920000D03*
X42475000Y-99920000D03*
X42875000Y-99920000D03*
X43275000Y-99920000D03*
D59*
X43875000Y-100420000D03*
X43875000Y-100820000D03*
X43875000Y-101220000D03*
X43875000Y-101620000D03*
X43875000Y-102020000D03*
X43875000Y-102420000D03*
X43875000Y-102820000D03*
X43875000Y-103220000D03*
D58*
X43275000Y-103720000D03*
X42875000Y-103720000D03*
X42475000Y-103720000D03*
X42075000Y-103720000D03*
X41675000Y-103720000D03*
X41275000Y-103720000D03*
X40875000Y-103720000D03*
X40475000Y-103720000D03*
X40075000Y-103720000D03*
X39675000Y-103720000D03*
D59*
X39075000Y-103220000D03*
X39075000Y-102820000D03*
X39075000Y-102420000D03*
X39075000Y-102020000D03*
X39075000Y-101620000D03*
X39075000Y-101220000D03*
X39075000Y-100820000D03*
X39075000Y-100420000D03*
D60*
X42100000Y-100720000D03*
X40850000Y-100720000D03*
X43075000Y-101820000D03*
X42100000Y-101820000D03*
D61*
X41475000Y-101820000D03*
D60*
X40850000Y-101820000D03*
X39875000Y-101820000D03*
X42100000Y-102920000D03*
X40850000Y-102920000D03*
D25*
X62370000Y-60800000D03*
X62370000Y-60160000D03*
D30*
X39160000Y-105870000D03*
X38140000Y-105870000D03*
%LPD*%
M02*
