G04 #@! TF.GenerationSoftware,KiCad,Pcbnew,7.0.2-0*
G04 #@! TF.CreationDate,2023-10-14T11:26:59-07:00*
G04 #@! TF.ProjectId,high-power,68696768-2d70-46f7-9765-722e6b696361,rev?*
G04 #@! TF.SameCoordinates,Original*
G04 #@! TF.FileFunction,Paste,Top*
G04 #@! TF.FilePolarity,Positive*
%FSLAX46Y46*%
G04 Gerber Fmt 4.6, Leading zero omitted, Abs format (unit mm)*
G04 Created by KiCad (PCBNEW 7.0.2-0) date 2023-10-14 11:26:59*
%MOMM*%
%LPD*%
G01*
G04 APERTURE LIST*
G04 Aperture macros list*
%AMRoundRect*
0 Rectangle with rounded corners*
0 $1 Rounding radius*
0 $2 $3 $4 $5 $6 $7 $8 $9 X,Y pos of 4 corners*
0 Add a 4 corners polygon primitive as box body*
4,1,4,$2,$3,$4,$5,$6,$7,$8,$9,$2,$3,0*
0 Add four circle primitives for the rounded corners*
1,1,$1+$1,$2,$3*
1,1,$1+$1,$4,$5*
1,1,$1+$1,$6,$7*
1,1,$1+$1,$8,$9*
0 Add four rect primitives between the rounded corners*
20,1,$1+$1,$2,$3,$4,$5,0*
20,1,$1+$1,$4,$5,$6,$7,0*
20,1,$1+$1,$6,$7,$8,$9,0*
20,1,$1+$1,$8,$9,$2,$3,0*%
%AMFreePoly0*
4,1,39,-1.529965,2.502535,-1.529950,2.502500,-1.529950,2.027500,1.529950,2.027500,1.529950,2.502500,1.529965,2.502535,1.530000,2.502550,2.280000,2.502550,2.280035,2.502535,2.280050,2.502500,2.280050,2.027500,2.280035,2.027465,2.280000,2.027450,2.280000,-0.697450,2.775000,-0.697450,2.775035,-0.697465,2.775050,-0.697500,2.775050,-1.602500,2.775035,-1.602535,2.775000,-1.602550,
2.280000,-1.602550,2.280000,-2.027500,-2.280000,-2.027500,-2.280000,-1.602550,-2.775000,-1.602550,-2.775035,-1.602535,-2.775050,-1.602500,-2.775050,-0.697500,-2.775035,-0.697465,-2.775000,-0.697450,-2.280000,-0.697450,-2.280000,2.027450,-2.280035,2.027465,-2.280050,2.027500,-2.280050,2.502500,-2.280035,2.502535,-2.280000,2.502550,-1.530000,2.502550,-1.529965,2.502535,-1.529965,2.502535,
$1*%
G04 Aperture macros list end*
%ADD10R,1.100000X1.100000*%
%ADD11RoundRect,0.079500X0.100500X-0.079500X0.100500X0.079500X-0.100500X0.079500X-0.100500X-0.079500X0*%
%ADD12RoundRect,0.135000X0.185000X-0.135000X0.185000X0.135000X-0.185000X0.135000X-0.185000X-0.135000X0*%
%ADD13RoundRect,0.135000X0.135000X0.185000X-0.135000X0.185000X-0.135000X-0.185000X0.135000X-0.185000X0*%
%ADD14RoundRect,0.135000X-0.135000X-0.185000X0.135000X-0.185000X0.135000X0.185000X-0.135000X0.185000X0*%
%ADD15R,5.000000X5.000000*%
%ADD16RoundRect,0.079500X-0.079500X-0.100500X0.079500X-0.100500X0.079500X0.100500X-0.079500X0.100500X0*%
%ADD17RoundRect,0.250000X-0.625000X0.312500X-0.625000X-0.312500X0.625000X-0.312500X0.625000X0.312500X0*%
%ADD18RoundRect,0.135000X-0.185000X0.135000X-0.185000X-0.135000X0.185000X-0.135000X0.185000X0.135000X0*%
%ADD19RoundRect,0.140000X0.140000X0.170000X-0.140000X0.170000X-0.140000X-0.170000X0.140000X-0.170000X0*%
%ADD20RoundRect,0.250000X1.425000X-0.362500X1.425000X0.362500X-1.425000X0.362500X-1.425000X-0.362500X0*%
%ADD21RoundRect,0.250000X0.475000X-0.250000X0.475000X0.250000X-0.475000X0.250000X-0.475000X-0.250000X0*%
%ADD22R,1.000000X0.750000*%
%ADD23FreePoly0,270.000000*%
%ADD24RoundRect,0.250000X-0.475000X0.250000X-0.475000X-0.250000X0.475000X-0.250000X0.475000X0.250000X0*%
%ADD25RoundRect,0.079500X0.079500X0.100500X-0.079500X0.100500X-0.079500X-0.100500X0.079500X-0.100500X0*%
%ADD26RoundRect,0.079500X-0.100500X0.079500X-0.100500X-0.079500X0.100500X-0.079500X0.100500X0.079500X0*%
%ADD27RoundRect,0.225000X0.250000X-0.225000X0.250000X0.225000X-0.250000X0.225000X-0.250000X-0.225000X0*%
%ADD28FreePoly0,90.000000*%
%ADD29RoundRect,0.250000X-0.250000X-0.475000X0.250000X-0.475000X0.250000X0.475000X-0.250000X0.475000X0*%
%ADD30R,0.420000X0.540000*%
%ADD31R,2.370000X1.710000*%
%ADD32R,0.420000X0.700000*%
%ADD33RoundRect,0.140000X-0.140000X-0.170000X0.140000X-0.170000X0.140000X0.170000X-0.140000X0.170000X0*%
%ADD34RoundRect,0.140000X0.170000X-0.140000X0.170000X0.140000X-0.170000X0.140000X-0.170000X-0.140000X0*%
%ADD35R,0.475000X0.375000*%
%ADD36R,0.425000X0.400000*%
%ADD37R,0.800000X0.480000*%
%ADD38R,0.850000X0.300000*%
%ADD39R,1.600000X1.600000*%
%ADD40RoundRect,0.140000X0.021213X-0.219203X0.219203X-0.021213X-0.021213X0.219203X-0.219203X0.021213X0*%
%ADD41RoundRect,0.250000X0.625000X-0.312500X0.625000X0.312500X-0.625000X0.312500X-0.625000X-0.312500X0*%
%ADD42RoundRect,0.250000X0.312500X0.625000X-0.312500X0.625000X-0.312500X-0.625000X0.312500X-0.625000X0*%
%ADD43R,3.429000X2.413000*%
%ADD44RoundRect,0.250000X0.250000X0.475000X-0.250000X0.475000X-0.250000X-0.475000X0.250000X-0.475000X0*%
%ADD45RoundRect,0.250000X-0.315000X-0.315000X0.315000X-0.315000X0.315000X0.315000X-0.315000X0.315000X0*%
%ADD46RoundRect,0.062500X-0.350000X-0.062500X0.350000X-0.062500X0.350000X0.062500X-0.350000X0.062500X0*%
%ADD47RoundRect,0.062500X-0.062500X-0.350000X0.062500X-0.350000X0.062500X0.350000X-0.062500X0.350000X0*%
%ADD48RoundRect,0.250000X0.380000X-0.380000X0.380000X0.380000X-0.380000X0.380000X-0.380000X-0.380000X0*%
%ADD49RoundRect,0.050000X0.050000X-0.300000X0.050000X0.300000X-0.050000X0.300000X-0.050000X-0.300000X0*%
%ADD50RoundRect,0.050000X0.300000X-0.050000X0.300000X0.050000X-0.300000X0.050000X-0.300000X-0.050000X0*%
%ADD51R,3.400000X1.800000*%
G04 APERTURE END LIST*
D10*
X52660500Y-74275000D03*
X55460500Y-74275000D03*
X45987500Y-66220000D03*
X43187500Y-66220000D03*
X37838000Y-86695000D03*
X35038000Y-86695000D03*
X50778000Y-68695000D03*
X53578000Y-68695000D03*
D11*
X62410000Y-136015000D03*
X62410000Y-135325000D03*
X38840000Y-172325000D03*
X38840000Y-171635000D03*
D12*
X51128000Y-74375000D03*
X51128000Y-73355000D03*
D10*
X51170500Y-36735000D03*
X53970500Y-36735000D03*
D13*
X55898000Y-60465000D03*
X54878000Y-60465000D03*
D14*
X45200000Y-67930000D03*
X46220000Y-67930000D03*
D15*
X71764500Y-100985000D03*
D16*
X63695000Y-140780000D03*
X64385000Y-140780000D03*
D17*
X46180000Y-131535000D03*
X46180000Y-134460000D03*
D18*
X35332000Y-48485000D03*
X35332000Y-49505000D03*
D16*
X41095000Y-169710000D03*
X41785000Y-169710000D03*
D19*
X52478000Y-22935000D03*
X51518000Y-22935000D03*
D18*
X36515000Y-118490000D03*
X36515000Y-119510000D03*
D10*
X58740000Y-92530000D03*
X61540000Y-92530000D03*
X44720000Y-60740000D03*
X41920000Y-60740000D03*
D14*
X63810000Y-138370000D03*
X64830000Y-138370000D03*
D19*
X61328000Y-66595000D03*
X60368000Y-66595000D03*
D15*
X60240000Y-25950000D03*
X72374500Y-115415000D03*
D20*
X41450000Y-133680000D03*
X41450000Y-127755000D03*
D16*
X58915000Y-134110000D03*
X59605000Y-134110000D03*
D21*
X71270000Y-111780000D03*
X71270000Y-109880000D03*
D22*
X55468000Y-68255000D03*
X55468000Y-69525000D03*
X55468000Y-70795000D03*
X55468000Y-72065000D03*
D23*
X58960000Y-70160000D03*
D18*
X47300000Y-23850000D03*
X47300000Y-24870000D03*
D10*
X59157000Y-106135000D03*
X61957000Y-106135000D03*
D11*
X43482000Y-44510000D03*
X43482000Y-43820000D03*
D16*
X39665000Y-164220000D03*
X40355000Y-164220000D03*
D11*
X36405000Y-121045000D03*
X36405000Y-120355000D03*
D13*
X37825000Y-112680000D03*
X36805000Y-112680000D03*
D21*
X71300000Y-95600000D03*
X71300000Y-93700000D03*
D13*
X50100000Y-29080000D03*
X49080000Y-29080000D03*
X51608000Y-66945000D03*
X50588000Y-66945000D03*
X61534500Y-94350000D03*
X60514500Y-94350000D03*
D19*
X65020000Y-81940000D03*
X64060000Y-81940000D03*
D18*
X37570000Y-102880000D03*
X37570000Y-103900000D03*
D11*
X64520000Y-136015000D03*
X64520000Y-135325000D03*
D18*
X35948000Y-30095000D03*
X35948000Y-31115000D03*
D16*
X55435000Y-143610000D03*
X56125000Y-143610000D03*
D24*
X33120000Y-41580000D03*
X33120000Y-43480000D03*
D22*
X51516000Y-24600000D03*
X51516000Y-25870000D03*
X51516000Y-27140000D03*
X51516000Y-28410000D03*
D23*
X55008000Y-26505000D03*
D25*
X40725000Y-61460000D03*
X40035000Y-61460000D03*
D11*
X42670000Y-63365000D03*
X42670000Y-62675000D03*
D26*
X51620000Y-45415000D03*
X51620000Y-46105000D03*
D15*
X24980000Y-106270000D03*
D27*
X56270000Y-138835000D03*
X56270000Y-137285000D03*
D10*
X50270000Y-30500000D03*
X50270000Y-33300000D03*
D14*
X58325500Y-124935000D03*
X59345500Y-124935000D03*
D19*
X53968000Y-60475000D03*
X53008000Y-60475000D03*
D24*
X25350000Y-95510000D03*
X25350000Y-97410000D03*
D15*
X70584500Y-84475000D03*
D25*
X65215000Y-134620000D03*
X64525000Y-134620000D03*
D15*
X62320000Y-44650000D03*
D22*
X52998000Y-43395000D03*
X52998000Y-44665000D03*
X52998000Y-45935000D03*
X52998000Y-47205000D03*
D23*
X56490000Y-45300000D03*
D21*
X71030000Y-126260000D03*
X71030000Y-124360000D03*
D22*
X32872000Y-116890000D03*
X32872000Y-115620000D03*
X32872000Y-114350000D03*
X32872000Y-113080000D03*
D28*
X29380000Y-114985000D03*
D29*
X53650000Y-150320000D03*
X55550000Y-150320000D03*
D30*
X52820000Y-131502500D03*
X53470000Y-131502500D03*
D31*
X53795000Y-132627500D03*
D30*
X54120000Y-131502500D03*
X54770000Y-131502500D03*
D32*
X54770000Y-134582500D03*
X52820000Y-134582500D03*
X53470000Y-134582500D03*
X54120000Y-134582500D03*
D25*
X48415000Y-115670000D03*
X47725000Y-115670000D03*
D22*
X42152000Y-47805000D03*
X42152000Y-46535000D03*
X42152000Y-45265000D03*
X42152000Y-43995000D03*
D28*
X38660000Y-45900000D03*
D13*
X50100000Y-28080000D03*
X49080000Y-28080000D03*
D12*
X46020000Y-50120000D03*
X46020000Y-49100000D03*
D22*
X41340000Y-66660000D03*
X41340000Y-65390000D03*
X41340000Y-64120000D03*
X41340000Y-62850000D03*
D28*
X37848000Y-64755000D03*
D33*
X44260000Y-37270000D03*
X45220000Y-37270000D03*
D16*
X54985000Y-125820000D03*
X55675000Y-125820000D03*
D34*
X49680000Y-152000000D03*
X49680000Y-151040000D03*
D11*
X61960000Y-144840000D03*
X61960000Y-144150000D03*
D15*
X23490000Y-91770000D03*
D13*
X52098000Y-72405000D03*
X51078000Y-72405000D03*
D26*
X54138000Y-71550000D03*
X54138000Y-72240000D03*
D33*
X43662000Y-55535000D03*
X44622000Y-55535000D03*
D16*
X54985000Y-125060000D03*
X55675000Y-125060000D03*
D26*
X34060000Y-166705000D03*
X34060000Y-167395000D03*
D13*
X64877000Y-112745000D03*
X63857000Y-112745000D03*
D16*
X35460000Y-164220000D03*
X36150000Y-164220000D03*
D26*
X50100000Y-26500000D03*
X50100000Y-27190000D03*
D15*
X33540000Y-52480000D03*
D16*
X32165000Y-111680000D03*
X32855000Y-111680000D03*
D14*
X46630000Y-30710000D03*
X47650000Y-30710000D03*
D13*
X61654500Y-110435000D03*
X60634500Y-110435000D03*
D19*
X69562000Y-118680000D03*
X68602000Y-118680000D03*
D13*
X66945000Y-81945000D03*
X65925000Y-81945000D03*
D33*
X27158000Y-88630000D03*
X28118000Y-88630000D03*
D16*
X57185000Y-55010000D03*
X57875000Y-55010000D03*
D10*
X50350000Y-49790000D03*
X53150000Y-49790000D03*
D26*
X60434500Y-85585000D03*
X60434500Y-86275000D03*
D15*
X35640000Y-34140000D03*
D13*
X51620000Y-47020000D03*
X50600000Y-47020000D03*
D26*
X52648000Y-34010000D03*
X52648000Y-34700000D03*
D11*
X63110000Y-136015000D03*
X63110000Y-135325000D03*
D18*
X46370000Y-42820000D03*
X46370000Y-43840000D03*
D33*
X35480000Y-68320000D03*
X36440000Y-68320000D03*
D18*
X34520000Y-67340000D03*
X34520000Y-68360000D03*
D16*
X63589500Y-95035000D03*
X64279500Y-95035000D03*
D18*
X36608000Y-88375000D03*
X36608000Y-89395000D03*
D12*
X59454500Y-104485000D03*
X59454500Y-103465000D03*
D26*
X60380000Y-101915000D03*
X60380000Y-102605000D03*
X63370000Y-144150000D03*
X63370000Y-144840000D03*
D11*
X45200000Y-70515000D03*
X45200000Y-69825000D03*
D14*
X57660000Y-142560000D03*
X58680000Y-142560000D03*
D19*
X61320000Y-47850000D03*
X60360000Y-47850000D03*
D25*
X30193000Y-81395000D03*
X29503000Y-81395000D03*
X47805000Y-113240000D03*
X47115000Y-113240000D03*
D16*
X55425000Y-144360000D03*
X56115000Y-144360000D03*
D14*
X34885000Y-112680000D03*
X35905000Y-112680000D03*
D13*
X65184500Y-98375000D03*
X64164500Y-98375000D03*
D25*
X47805000Y-114050000D03*
X47115000Y-114050000D03*
D13*
X37918000Y-82710000D03*
X36898000Y-82710000D03*
D14*
X46630000Y-31710000D03*
X47650000Y-31710000D03*
D16*
X63695000Y-141480000D03*
X64385000Y-141480000D03*
D24*
X34010000Y-60810000D03*
X34010000Y-62710000D03*
D14*
X34978000Y-82710000D03*
X35998000Y-82710000D03*
D13*
X54408000Y-22925000D03*
X53388000Y-22925000D03*
D14*
X33680000Y-169190000D03*
X34700000Y-169190000D03*
D22*
X33010000Y-86920000D03*
X33010000Y-85650000D03*
X33010000Y-84380000D03*
X33010000Y-83110000D03*
D28*
X29518000Y-85015000D03*
D22*
X61952500Y-99940000D03*
X61952500Y-101210000D03*
X61952500Y-102480000D03*
X61952500Y-103750000D03*
D23*
X65444500Y-101845000D03*
D18*
X37598000Y-88375000D03*
X37598000Y-89395000D03*
D27*
X48090000Y-130015000D03*
X48090000Y-128465000D03*
D10*
X37647500Y-116900000D03*
X34847500Y-116900000D03*
D12*
X49638000Y-36835000D03*
X49638000Y-35815000D03*
D18*
X26198000Y-87650000D03*
X26198000Y-88670000D03*
D12*
X59314500Y-88135000D03*
X59314500Y-87115000D03*
D22*
X42768000Y-29415000D03*
X42768000Y-28145000D03*
X42768000Y-26875000D03*
X42768000Y-25605000D03*
D28*
X39276000Y-27510000D03*
D10*
X37150000Y-101310000D03*
X34350000Y-101310000D03*
D15*
X31770000Y-71350000D03*
D12*
X60454500Y-104485000D03*
X60454500Y-103465000D03*
D24*
X25568000Y-81175000D03*
X25568000Y-83075000D03*
D35*
X53522500Y-142070000D03*
X54097500Y-142070000D03*
X53522500Y-141595000D03*
X54097500Y-141595000D03*
D36*
X52872500Y-142157500D03*
X54747500Y-142157500D03*
X52872500Y-141507500D03*
X54747500Y-141507500D03*
X54747500Y-140857500D03*
X52872500Y-140857500D03*
D37*
X53810000Y-140807500D03*
D10*
X59154500Y-108405000D03*
X61954500Y-108405000D03*
D38*
X50920000Y-125060000D03*
X50920000Y-125560000D03*
X50920000Y-126060000D03*
X50920000Y-126560000D03*
X53820000Y-126560000D03*
X53820000Y-126060000D03*
X53820000Y-125560000D03*
X53820000Y-125060000D03*
D39*
X52370000Y-125810000D03*
D15*
X25802000Y-121790000D03*
X64280000Y-63450000D03*
D12*
X70522000Y-119660000D03*
X70522000Y-118640000D03*
D14*
X43600000Y-62700000D03*
X44620000Y-62700000D03*
D33*
X27020000Y-118600000D03*
X27980000Y-118600000D03*
D19*
X62954500Y-112745000D03*
X61994500Y-112745000D03*
D20*
X42110000Y-115902500D03*
X42110000Y-109977500D03*
D14*
X45200000Y-68930000D03*
X46220000Y-68930000D03*
D13*
X51580000Y-151960000D03*
X50560000Y-151960000D03*
X51630000Y-34690000D03*
X50610000Y-34690000D03*
D10*
X46890000Y-47340000D03*
X44090000Y-47340000D03*
D11*
X33950000Y-97495000D03*
X33950000Y-96805000D03*
D14*
X45210000Y-25460000D03*
X46230000Y-25460000D03*
D22*
X63710000Y-120390000D03*
X63710000Y-121660000D03*
X63710000Y-122930000D03*
X63710000Y-124200000D03*
D23*
X67202000Y-122295000D03*
D11*
X44098000Y-26120000D03*
X44098000Y-25430000D03*
D33*
X56440000Y-136040000D03*
X57400000Y-136040000D03*
D13*
X37860000Y-97190000D03*
X36840000Y-97190000D03*
D10*
X44959500Y-41785000D03*
X42159500Y-41785000D03*
D26*
X61710000Y-135325000D03*
X61710000Y-136015000D03*
D40*
X55940589Y-141559411D03*
X56619411Y-140880589D03*
D12*
X70692000Y-105180000D03*
X70692000Y-104160000D03*
D11*
X60310000Y-135510000D03*
X60310000Y-134820000D03*
D14*
X40920000Y-74400000D03*
X41940000Y-74400000D03*
X32220000Y-124905000D03*
X33240000Y-124905000D03*
D18*
X25920000Y-102155000D03*
X25920000Y-103175000D03*
D16*
X34075000Y-170720000D03*
X34765000Y-170720000D03*
D10*
X37500000Y-98815000D03*
X34700000Y-98815000D03*
D13*
X51620000Y-48020000D03*
X50600000Y-48020000D03*
D11*
X46020000Y-51665000D03*
X46020000Y-50975000D03*
D10*
X37640000Y-114280000D03*
X34840000Y-114280000D03*
D33*
X42850000Y-74390000D03*
X43810000Y-74390000D03*
D25*
X41043000Y-23915000D03*
X40353000Y-23915000D03*
D26*
X46180000Y-115705000D03*
X46180000Y-116395000D03*
D12*
X59174500Y-118885000D03*
X59174500Y-117865000D03*
D22*
X55460000Y-49510000D03*
X55460000Y-50780000D03*
X55460000Y-52050000D03*
X55460000Y-53320000D03*
D23*
X58952000Y-51415000D03*
D14*
X44380000Y-43840000D03*
X45400000Y-43840000D03*
D22*
X53978000Y-30715000D03*
X53978000Y-31985000D03*
X53978000Y-33255000D03*
X53978000Y-34525000D03*
D23*
X57470000Y-32620000D03*
D41*
X53750000Y-148522500D03*
X53750000Y-145597500D03*
D12*
X60174500Y-118885000D03*
X60174500Y-117865000D03*
D26*
X60294500Y-116350000D03*
X60294500Y-117040000D03*
D24*
X35600000Y-23150000D03*
X35600000Y-25050000D03*
D10*
X45575500Y-23395000D03*
X42775500Y-23395000D03*
D26*
X62237000Y-124485000D03*
X62237000Y-125175000D03*
D42*
X51122500Y-131850000D03*
X48197500Y-131850000D03*
D19*
X53960000Y-41730000D03*
X53000000Y-41730000D03*
D16*
X38265000Y-164220000D03*
X38955000Y-164220000D03*
D10*
X47497500Y-28940000D03*
X44697500Y-28940000D03*
D16*
X63695000Y-142180000D03*
X64385000Y-142180000D03*
D33*
X34145000Y-124910000D03*
X35105000Y-124910000D03*
D10*
X58864500Y-123145000D03*
X61664500Y-123145000D03*
D22*
X35020000Y-92930000D03*
X35020000Y-91660000D03*
X35020000Y-90390000D03*
X35020000Y-89120000D03*
D28*
X31528000Y-91025000D03*
D43*
X49060000Y-143371000D03*
X49060000Y-137529000D03*
D12*
X47010000Y-50120000D03*
X47010000Y-49100000D03*
D11*
X34770000Y-167405000D03*
X34770000Y-166715000D03*
D21*
X62790000Y-55360000D03*
X62790000Y-53460000D03*
D14*
X42330000Y-37280000D03*
X43350000Y-37280000D03*
D44*
X51870000Y-149630000D03*
X49970000Y-149630000D03*
D25*
X34765000Y-170020000D03*
X34075000Y-170020000D03*
D22*
X61734500Y-114295000D03*
X61734500Y-115565000D03*
X61734500Y-116835000D03*
X61734500Y-118105000D03*
D23*
X65226500Y-116200000D03*
D19*
X69732000Y-104200000D03*
X68772000Y-104200000D03*
D45*
X37420000Y-167800000D03*
X37420000Y-169100000D03*
X38720000Y-167800000D03*
X38720000Y-169100000D03*
D46*
X36132500Y-167200000D03*
X36132500Y-167700000D03*
X36132500Y-168200000D03*
X36132500Y-168700000D03*
X36132500Y-169200000D03*
X36132500Y-169700000D03*
D47*
X36820000Y-170387500D03*
X37320000Y-170387500D03*
X37820000Y-170387500D03*
X38320000Y-170387500D03*
X38820000Y-170387500D03*
X39320000Y-170387500D03*
D46*
X40007500Y-169700000D03*
X40007500Y-169200000D03*
X40007500Y-168700000D03*
X40007500Y-168200000D03*
X40007500Y-167700000D03*
X40007500Y-167200000D03*
D47*
X39320000Y-166512500D03*
X38820000Y-166512500D03*
X38320000Y-166512500D03*
X37820000Y-166512500D03*
X37320000Y-166512500D03*
X36820000Y-166512500D03*
D16*
X32183000Y-81450000D03*
X32873000Y-81450000D03*
D11*
X63820000Y-134605000D03*
X63820000Y-133915000D03*
D24*
X25430000Y-110920000D03*
X25430000Y-112820000D03*
D10*
X59032500Y-89800000D03*
X61832500Y-89800000D03*
D48*
X59535000Y-140215000D03*
X60985000Y-140215000D03*
X59535000Y-138765000D03*
X60985000Y-138765000D03*
D49*
X58860000Y-141490000D03*
X59260000Y-141490000D03*
X59660000Y-141490000D03*
X60060000Y-141490000D03*
X60460000Y-141490000D03*
X60860000Y-141490000D03*
X61260000Y-141490000D03*
X61660000Y-141490000D03*
D50*
X62260000Y-140890000D03*
X62260000Y-140490000D03*
X62260000Y-140090000D03*
X62260000Y-139690000D03*
X62260000Y-139290000D03*
X62260000Y-138890000D03*
X62260000Y-138490000D03*
X62260000Y-138090000D03*
D49*
X61660000Y-137490000D03*
X61260000Y-137490000D03*
X60860000Y-137490000D03*
X60460000Y-137490000D03*
X60060000Y-137490000D03*
X59660000Y-137490000D03*
X59260000Y-137490000D03*
X58860000Y-137490000D03*
D50*
X58260000Y-138090000D03*
X58260000Y-138490000D03*
X58260000Y-138890000D03*
X58260000Y-139290000D03*
X58260000Y-139690000D03*
X58260000Y-140090000D03*
X58260000Y-140490000D03*
X58260000Y-140890000D03*
D14*
X31483000Y-94550000D03*
X32503000Y-94550000D03*
D10*
X37840500Y-84310000D03*
X35040500Y-84310000D03*
D33*
X36292000Y-49465000D03*
X37252000Y-49465000D03*
D22*
X63880000Y-105910000D03*
X63880000Y-107180000D03*
X63880000Y-108450000D03*
X63880000Y-109720000D03*
D23*
X67372000Y-107815000D03*
D26*
X62480000Y-93745000D03*
X62480000Y-94435000D03*
D14*
X41732000Y-55545000D03*
X42752000Y-55545000D03*
X33680000Y-168230000D03*
X34700000Y-168230000D03*
D12*
X60314500Y-88135000D03*
X60314500Y-87115000D03*
D11*
X61010000Y-135510000D03*
X61010000Y-134820000D03*
D22*
X45230000Y-35530000D03*
X45230000Y-34260000D03*
X45230000Y-32990000D03*
X45230000Y-31720000D03*
D28*
X41738000Y-33625000D03*
D44*
X51870000Y-145700000D03*
X49970000Y-145700000D03*
D16*
X55295000Y-36050000D03*
X55985000Y-36050000D03*
D22*
X61832500Y-83620000D03*
X61832500Y-84890000D03*
X61832500Y-86160000D03*
X61832500Y-87430000D03*
D23*
X65324500Y-85525000D03*
D16*
X65085000Y-125720000D03*
X65775000Y-125720000D03*
D22*
X43802000Y-72775000D03*
X43802000Y-71505000D03*
X43802000Y-70235000D03*
X43802000Y-68965000D03*
D28*
X40310000Y-70870000D03*
D16*
X57165000Y-73590000D03*
X57855000Y-73590000D03*
D13*
X55890000Y-41720000D03*
X54870000Y-41720000D03*
D18*
X36580000Y-102880000D03*
X36580000Y-103900000D03*
X37515000Y-118490000D03*
X37515000Y-119510000D03*
D10*
X52650000Y-55940000D03*
X55450000Y-55940000D03*
D42*
X51112500Y-134620000D03*
X48187500Y-134620000D03*
D16*
X34075000Y-166000000D03*
X34765000Y-166000000D03*
D25*
X30635000Y-96050000D03*
X29945000Y-96050000D03*
D11*
X36488000Y-90910000D03*
X36488000Y-90220000D03*
D16*
X63700000Y-142880000D03*
X64390000Y-142880000D03*
D11*
X63810000Y-136015000D03*
X63810000Y-135325000D03*
D16*
X63679500Y-111245000D03*
X64369500Y-111245000D03*
D25*
X62405000Y-134110000D03*
X61715000Y-134110000D03*
D13*
X52090000Y-53600000D03*
X51070000Y-53600000D03*
D26*
X53580000Y-52715000D03*
X53580000Y-53405000D03*
D19*
X69682000Y-87900000D03*
X68722000Y-87900000D03*
D16*
X60315000Y-134115000D03*
X61005000Y-134115000D03*
D19*
X59838000Y-29055000D03*
X58878000Y-29055000D03*
D51*
X43020000Y-149100000D03*
X43020000Y-143400000D03*
D13*
X51608000Y-65945000D03*
X50588000Y-65945000D03*
D35*
X54107500Y-137697500D03*
X53532500Y-137697500D03*
X54107500Y-138172500D03*
X53532500Y-138172500D03*
D36*
X54757500Y-137610000D03*
X52882500Y-137610000D03*
X54757500Y-138260000D03*
X52882500Y-138260000D03*
X52882500Y-138910000D03*
X54757500Y-138910000D03*
D37*
X53820000Y-138960000D03*
D12*
X70642000Y-88880000D03*
X70642000Y-87860000D03*
D18*
X46240000Y-60570000D03*
X46240000Y-61590000D03*
D26*
X61260000Y-144150000D03*
X61260000Y-144840000D03*
D33*
X33408000Y-94555000D03*
X34368000Y-94555000D03*
D11*
X41020000Y-167595000D03*
X41020000Y-166905000D03*
D44*
X63530000Y-34770000D03*
X61630000Y-34770000D03*
D16*
X63625000Y-137550000D03*
X64315000Y-137550000D03*
D44*
X51870000Y-147670000D03*
X49970000Y-147670000D03*
D25*
X58745000Y-143380000D03*
X58055000Y-143380000D03*
D12*
X60798000Y-30035000D03*
X60798000Y-29015000D03*
D13*
X61270000Y-124930000D03*
X60250000Y-124930000D03*
D25*
X47775000Y-114860000D03*
X47085000Y-114860000D03*
D11*
X46560000Y-33285000D03*
X46560000Y-32595000D03*
D14*
X34900000Y-96810000D03*
X35920000Y-96810000D03*
D10*
X58974500Y-120595000D03*
X61774500Y-120595000D03*
D11*
X36460000Y-105425000D03*
X36460000Y-104735000D03*
X65220000Y-136015000D03*
X65220000Y-135325000D03*
D33*
X32775000Y-109165000D03*
X33735000Y-109165000D03*
D12*
X62280000Y-48830000D03*
X62280000Y-47810000D03*
D11*
X39540000Y-172325000D03*
X39540000Y-171635000D03*
D25*
X31395000Y-111680000D03*
X30705000Y-111680000D03*
D14*
X30850000Y-109160000D03*
X31870000Y-109160000D03*
D22*
X63830000Y-89610000D03*
X63830000Y-90880000D03*
X63830000Y-92150000D03*
X63830000Y-93420000D03*
D23*
X67322000Y-91515000D03*
D35*
X53525000Y-144230001D03*
X54100000Y-144230001D03*
X53525000Y-143755001D03*
X54100000Y-143755001D03*
D36*
X52875000Y-144317501D03*
X54750000Y-144317501D03*
X52875000Y-143667501D03*
X54750000Y-143667501D03*
X54750000Y-143017501D03*
X52875000Y-143017501D03*
D37*
X53812500Y-142967501D03*
D22*
X34802000Y-107545000D03*
X34802000Y-106275000D03*
X34802000Y-105005000D03*
X34802000Y-103735000D03*
D28*
X31310000Y-105640000D03*
D18*
X26060000Y-117620000D03*
X26060000Y-118640000D03*
D21*
X64740000Y-74470000D03*
X64740000Y-72570000D03*
D33*
X36908000Y-31075000D03*
X37868000Y-31075000D03*
D11*
X62660000Y-144840000D03*
X62660000Y-144150000D03*
D13*
X52090000Y-54600000D03*
X51070000Y-54600000D03*
D35*
X54102500Y-135525000D03*
X53527500Y-135525000D03*
X54102500Y-136000000D03*
X53527500Y-136000000D03*
D36*
X54752500Y-135437500D03*
X52877500Y-135437500D03*
X54752500Y-136087500D03*
X52877500Y-136087500D03*
X52877500Y-136737500D03*
X54752500Y-136737500D03*
D37*
X53815000Y-136787500D03*
D12*
X62288000Y-67575000D03*
X62288000Y-66555000D03*
D25*
X40575000Y-42540000D03*
X39885000Y-42540000D03*
D19*
X63252000Y-98375000D03*
X62292000Y-98375000D03*
D22*
X34927000Y-123275000D03*
X34927000Y-122005000D03*
X34927000Y-120735000D03*
X34927000Y-119465000D03*
D28*
X31435000Y-121370000D03*
D33*
X26880000Y-103135000D03*
X27840000Y-103135000D03*
D22*
X32732000Y-101425000D03*
X32732000Y-100155000D03*
X32732000Y-98885000D03*
X32732000Y-97615000D03*
D28*
X29240000Y-99520000D03*
D16*
X47725000Y-116480000D03*
X48415000Y-116480000D03*
D14*
X58714500Y-110435000D03*
X59734500Y-110435000D03*
D26*
X62574500Y-109770000D03*
X62574500Y-110460000D03*
D22*
X44614000Y-53920000D03*
X44614000Y-52650000D03*
X44614000Y-51380000D03*
X44614000Y-50110000D03*
D28*
X41122000Y-52015000D03*
D16*
X36860000Y-164220000D03*
X37550000Y-164220000D03*
D22*
X53006000Y-62140000D03*
X53006000Y-63410000D03*
X53006000Y-64680000D03*
X53006000Y-65950000D03*
D23*
X56498000Y-64045000D03*
D14*
X58594500Y-94245000D03*
X59614500Y-94245000D03*
D26*
X51608000Y-64350000D03*
X51608000Y-65040000D03*
M02*
