G04 #@! TF.GenerationSoftware,KiCad,Pcbnew,7.0.2-0*
G04 #@! TF.CreationDate,2023-10-14T11:26:59-07:00*
G04 #@! TF.ProjectId,high-power,68696768-2d70-46f7-9765-722e6b696361,rev?*
G04 #@! TF.SameCoordinates,Original*
G04 #@! TF.FileFunction,Paste,Bot*
G04 #@! TF.FilePolarity,Positive*
%FSLAX46Y46*%
G04 Gerber Fmt 4.6, Leading zero omitted, Abs format (unit mm)*
G04 Created by KiCad (PCBNEW 7.0.2-0) date 2023-10-14 11:26:59*
%MOMM*%
%LPD*%
G01*
G04 APERTURE LIST*
G04 Aperture macros list*
%AMRoundRect*
0 Rectangle with rounded corners*
0 $1 Rounding radius*
0 $2 $3 $4 $5 $6 $7 $8 $9 X,Y pos of 4 corners*
0 Add a 4 corners polygon primitive as box body*
4,1,4,$2,$3,$4,$5,$6,$7,$8,$9,$2,$3,0*
0 Add four circle primitives for the rounded corners*
1,1,$1+$1,$2,$3*
1,1,$1+$1,$4,$5*
1,1,$1+$1,$6,$7*
1,1,$1+$1,$8,$9*
0 Add four rect primitives between the rounded corners*
20,1,$1+$1,$2,$3,$4,$5,0*
20,1,$1+$1,$4,$5,$6,$7,0*
20,1,$1+$1,$6,$7,$8,$9,0*
20,1,$1+$1,$8,$9,$2,$3,0*%
G04 Aperture macros list end*
%ADD10RoundRect,0.079500X0.079500X0.100500X-0.079500X0.100500X-0.079500X-0.100500X0.079500X-0.100500X0*%
%ADD11R,2.800000X2.600000*%
%ADD12RoundRect,0.200000X-0.200000X-0.275000X0.200000X-0.275000X0.200000X0.275000X-0.200000X0.275000X0*%
%ADD13RoundRect,0.250000X0.475000X-0.250000X0.475000X0.250000X-0.475000X0.250000X-0.475000X-0.250000X0*%
%ADD14RoundRect,0.250000X0.250000X0.475000X-0.250000X0.475000X-0.250000X-0.475000X0.250000X-0.475000X0*%
%ADD15R,2.600000X2.800000*%
%ADD16RoundRect,0.079500X0.100500X-0.079500X0.100500X0.079500X-0.100500X0.079500X-0.100500X-0.079500X0*%
%ADD17RoundRect,0.250000X-0.250000X-0.475000X0.250000X-0.475000X0.250000X0.475000X-0.250000X0.475000X0*%
%ADD18RoundRect,0.140000X-0.170000X0.140000X-0.170000X-0.140000X0.170000X-0.140000X0.170000X0.140000X0*%
%ADD19RoundRect,0.140000X0.170000X-0.140000X0.170000X0.140000X-0.170000X0.140000X-0.170000X-0.140000X0*%
%ADD20R,3.050000X3.680000*%
%ADD21RoundRect,0.135000X0.135000X0.185000X-0.135000X0.185000X-0.135000X-0.185000X0.135000X-0.185000X0*%
%ADD22RoundRect,0.200000X0.200000X0.275000X-0.200000X0.275000X-0.200000X-0.275000X0.200000X-0.275000X0*%
%ADD23RoundRect,0.079500X-0.100500X0.079500X-0.100500X-0.079500X0.100500X-0.079500X0.100500X0.079500X0*%
%ADD24RoundRect,0.079500X-0.079500X-0.100500X0.079500X-0.100500X0.079500X0.100500X-0.079500X0.100500X0*%
%ADD25RoundRect,0.140000X0.140000X0.170000X-0.140000X0.170000X-0.140000X-0.170000X0.140000X-0.170000X0*%
%ADD26RoundRect,0.140000X-0.140000X-0.170000X0.140000X-0.170000X0.140000X0.170000X-0.140000X0.170000X0*%
%ADD27RoundRect,0.250000X0.450000X-0.262500X0.450000X0.262500X-0.450000X0.262500X-0.450000X-0.262500X0*%
%ADD28RoundRect,0.250000X0.362500X1.425000X-0.362500X1.425000X-0.362500X-1.425000X0.362500X-1.425000X0*%
%ADD29RoundRect,0.225000X0.375000X-0.225000X0.375000X0.225000X-0.375000X0.225000X-0.375000X-0.225000X0*%
%ADD30RoundRect,0.200000X0.275000X-0.200000X0.275000X0.200000X-0.275000X0.200000X-0.275000X-0.200000X0*%
%ADD31RoundRect,0.135000X-0.185000X0.135000X-0.185000X-0.135000X0.185000X-0.135000X0.185000X0.135000X0*%
%ADD32R,0.600000X0.800000*%
%ADD33R,3.616200X3.075000*%
%ADD34R,0.500000X1.100000*%
%ADD35R,3.200000X0.600000*%
%ADD36RoundRect,0.250000X0.362500X1.075000X-0.362500X1.075000X-0.362500X-1.075000X0.362500X-1.075000X0*%
%ADD37RoundRect,0.250000X-0.475000X0.250000X-0.475000X-0.250000X0.475000X-0.250000X0.475000X0.250000X0*%
%ADD38RoundRect,0.135000X-0.135000X-0.185000X0.135000X-0.185000X0.135000X0.185000X-0.135000X0.185000X0*%
%ADD39RoundRect,0.247500X-0.247500X0.247500X-0.247500X-0.247500X0.247500X-0.247500X0.247500X0.247500X0*%
%ADD40RoundRect,0.075000X-0.075000X0.362500X-0.075000X-0.362500X0.075000X-0.362500X0.075000X0.362500X0*%
%ADD41RoundRect,0.075000X-0.362500X0.075000X-0.362500X-0.075000X0.362500X-0.075000X0.362500X0.075000X0*%
%ADD42R,0.762000X1.143000*%
%ADD43RoundRect,0.050000X-0.050000X0.250000X-0.050000X-0.250000X0.050000X-0.250000X0.050000X0.250000X0*%
%ADD44RoundRect,0.050000X-0.250000X-0.050000X0.250000X-0.050000X0.250000X0.050000X-0.250000X0.050000X0*%
%ADD45RoundRect,0.050000X-1.800000X1.300000X-1.800000X-1.300000X1.800000X-1.300000X1.800000X1.300000X0*%
%ADD46RoundRect,0.250000X0.398566X-1.415336X1.026434X-1.052836X-0.398566X1.415336X-1.026434X1.052836X0*%
%ADD47R,7.200000X3.700000*%
%ADD48RoundRect,0.200000X-0.275000X0.200000X-0.275000X-0.200000X0.275000X-0.200000X0.275000X0.200000X0*%
%ADD49RoundRect,0.147500X-0.147500X-0.172500X0.147500X-0.172500X0.147500X0.172500X-0.147500X0.172500X0*%
%ADD50RoundRect,0.247500X0.247500X-0.247500X0.247500X0.247500X-0.247500X0.247500X-0.247500X-0.247500X0*%
%ADD51RoundRect,0.075000X0.075000X-0.362500X0.075000X0.362500X-0.075000X0.362500X-0.075000X-0.362500X0*%
%ADD52RoundRect,0.075000X0.362500X-0.075000X0.362500X0.075000X-0.362500X0.075000X-0.362500X-0.075000X0*%
%ADD53RoundRect,0.250000X0.385016X-0.583133X0.697516X-0.041867X-0.385016X0.583133X-0.697516X0.041867X0*%
%ADD54R,1.800000X3.400000*%
%ADD55RoundRect,0.050000X0.050000X-0.250000X0.050000X0.250000X-0.050000X0.250000X-0.050000X-0.250000X0*%
%ADD56RoundRect,0.050000X0.250000X0.050000X-0.250000X0.050000X-0.250000X-0.050000X0.250000X-0.050000X0*%
%ADD57RoundRect,0.050000X1.800000X-1.300000X1.800000X1.300000X-1.800000X1.300000X-1.800000X-1.300000X0*%
G04 APERTURE END LIST*
D10*
X47740000Y-120860000D03*
X47050000Y-120860000D03*
D11*
X52390000Y-34960000D03*
X52390000Y-45660000D03*
D12*
X36045000Y-103530000D03*
X37695000Y-103530000D03*
D13*
X56470000Y-133310000D03*
X56470000Y-131410000D03*
D10*
X37930000Y-43730000D03*
X37240000Y-43730000D03*
D14*
X34480000Y-49276000D03*
X32580000Y-49276000D03*
D15*
X47310000Y-118120000D03*
X36610000Y-118120000D03*
D10*
X59960000Y-108010000D03*
X59270000Y-108010000D03*
D16*
X53960000Y-115315000D03*
X53960000Y-114625000D03*
D17*
X55187500Y-63212500D03*
X57087500Y-63212500D03*
D18*
X46160000Y-101120000D03*
X46160000Y-102080000D03*
D19*
X53200000Y-59010000D03*
X53200000Y-58050000D03*
D20*
X56592500Y-43377500D03*
X60912500Y-43377500D03*
D16*
X42730000Y-123675000D03*
X42730000Y-122985000D03*
D21*
X37630000Y-44610000D03*
X36610000Y-44610000D03*
D22*
X61210000Y-104130000D03*
X59560000Y-104130000D03*
D11*
X44710000Y-50110000D03*
X44710000Y-60810000D03*
D16*
X55550000Y-123855000D03*
X55550000Y-123165000D03*
D23*
X56850000Y-74305000D03*
X56850000Y-74995000D03*
D16*
X56100000Y-74995000D03*
X56100000Y-74305000D03*
D13*
X35340000Y-63000000D03*
X35340000Y-61100000D03*
D24*
X62630000Y-144530000D03*
X63320000Y-144530000D03*
D25*
X42600000Y-142400000D03*
X41640000Y-142400000D03*
D24*
X57640000Y-109010000D03*
X58330000Y-109010000D03*
D23*
X50590000Y-77300000D03*
X50590000Y-77990000D03*
D11*
X64540000Y-91060000D03*
X64540000Y-101760000D03*
D23*
X54750000Y-74300000D03*
X54750000Y-74990000D03*
D17*
X58220000Y-136060000D03*
X60120000Y-136060000D03*
D14*
X54730000Y-135390000D03*
X52830000Y-135390000D03*
D26*
X51180000Y-103930000D03*
X52140000Y-103930000D03*
D16*
X55540000Y-126775000D03*
X55540000Y-126085000D03*
D17*
X38652500Y-97150000D03*
X40552500Y-97150000D03*
D25*
X45520000Y-104760000D03*
X44560000Y-104760000D03*
D20*
X43987500Y-110782500D03*
X39667500Y-110782500D03*
D18*
X58370000Y-61760000D03*
X58370000Y-62720000D03*
D24*
X59315000Y-81420000D03*
X60005000Y-81420000D03*
D27*
X46710000Y-168982500D03*
X46710000Y-167157500D03*
D28*
X60874500Y-48768000D03*
X54949500Y-48768000D03*
D10*
X63320000Y-143830000D03*
X62630000Y-143830000D03*
D29*
X57080000Y-126810000D03*
X57080000Y-123510000D03*
D11*
X29740000Y-93340000D03*
X29740000Y-104040000D03*
D30*
X34130000Y-42655000D03*
X34130000Y-41005000D03*
D31*
X61800000Y-143900000D03*
X61800000Y-144920000D03*
D25*
X42350000Y-44340000D03*
X41390000Y-44340000D03*
D24*
X53155000Y-113810000D03*
X53845000Y-113810000D03*
D16*
X42720000Y-122255000D03*
X42720000Y-121565000D03*
X58530000Y-81835000D03*
X58530000Y-81145000D03*
X42731000Y-127455000D03*
X42731000Y-126765000D03*
D32*
X40367499Y-139682498D03*
X41637499Y-139682498D03*
D33*
X42272499Y-137407498D03*
D32*
X42907499Y-139682498D03*
X44177499Y-139682498D03*
D34*
X44177499Y-133982498D03*
X40367499Y-133982498D03*
D35*
X41557499Y-134232498D03*
D34*
X41637499Y-133982498D03*
X42907499Y-133982498D03*
D23*
X61720000Y-55075000D03*
X61720000Y-55765000D03*
D10*
X40695000Y-105200000D03*
X40005000Y-105200000D03*
D36*
X42062500Y-49860000D03*
X37437500Y-49860000D03*
D37*
X64840000Y-53390000D03*
X64840000Y-55290000D03*
X71030000Y-124360000D03*
X71030000Y-126260000D03*
D19*
X42125000Y-98550000D03*
X42125000Y-97590000D03*
D38*
X56630000Y-102040000D03*
X57650000Y-102040000D03*
D14*
X42480000Y-36010000D03*
X40580000Y-36010000D03*
D37*
X71250000Y-109900000D03*
X71250000Y-111800000D03*
D23*
X44480000Y-120155000D03*
X44480000Y-120845000D03*
D39*
X55290000Y-77970000D03*
X54070000Y-77970000D03*
X55290000Y-79190000D03*
X54070000Y-79190000D03*
D40*
X53430000Y-76642500D03*
X53930000Y-76642500D03*
X54430000Y-76642500D03*
X54930000Y-76642500D03*
X55430000Y-76642500D03*
X55930000Y-76642500D03*
D41*
X56617500Y-77330000D03*
X56617500Y-77830000D03*
X56617500Y-78330000D03*
X56617500Y-78830000D03*
X56617500Y-79330000D03*
X56617500Y-79830000D03*
D40*
X55930000Y-80517500D03*
X55430000Y-80517500D03*
X54930000Y-80517500D03*
X54430000Y-80517500D03*
X53930000Y-80517500D03*
X53430000Y-80517500D03*
D41*
X52742500Y-79830000D03*
X52742500Y-79330000D03*
X52742500Y-78830000D03*
X52742500Y-78330000D03*
X52742500Y-77830000D03*
X52742500Y-77330000D03*
D32*
X51210000Y-133885000D03*
X49940000Y-133885000D03*
D33*
X49305000Y-136160000D03*
D32*
X48670000Y-133885000D03*
X47400000Y-133885000D03*
D34*
X47400000Y-139585000D03*
X51210000Y-139585000D03*
D35*
X50020000Y-139335000D03*
D34*
X49940000Y-139585000D03*
X48670000Y-139585000D03*
D10*
X60262500Y-61632500D03*
X59572500Y-61632500D03*
D23*
X41990000Y-122985000D03*
X41990000Y-123675000D03*
D24*
X37157500Y-99967500D03*
X37847500Y-99967500D03*
D42*
X43685000Y-121906500D03*
X44955000Y-121906500D03*
X46225000Y-121906500D03*
X47495000Y-121906500D03*
X47495000Y-127113500D03*
X46225000Y-127113500D03*
X44955000Y-127113500D03*
X43685000Y-127113500D03*
D43*
X36905000Y-38720000D03*
X37305000Y-38720000D03*
X37705000Y-38720000D03*
X38105000Y-38720000D03*
X38505000Y-38720000D03*
X38905000Y-38720000D03*
X39305000Y-38720000D03*
X39705000Y-38720000D03*
X40105000Y-38720000D03*
X40505000Y-38720000D03*
D44*
X41105000Y-39220000D03*
X41105000Y-39620000D03*
X41105000Y-40020000D03*
X41105000Y-40420000D03*
X41105000Y-40820000D03*
X41105000Y-41220000D03*
X41105000Y-41620000D03*
X41105000Y-42020000D03*
D43*
X40505000Y-42520000D03*
X40105000Y-42520000D03*
X39705000Y-42520000D03*
X39305000Y-42520000D03*
X38905000Y-42520000D03*
X38505000Y-42520000D03*
X38105000Y-42520000D03*
X37705000Y-42520000D03*
X37305000Y-42520000D03*
X36905000Y-42520000D03*
D44*
X36305000Y-42020000D03*
X36305000Y-41620000D03*
X36305000Y-41220000D03*
X36305000Y-40820000D03*
X36305000Y-40420000D03*
X36305000Y-40020000D03*
X36305000Y-39620000D03*
X36305000Y-39220000D03*
D45*
X38705000Y-40620000D03*
D20*
X41207500Y-53462500D03*
X36887500Y-53462500D03*
D46*
X48220000Y-54340000D03*
X53351200Y-51377500D03*
D10*
X38510000Y-98630000D03*
X37820000Y-98630000D03*
D47*
X49170000Y-150810000D03*
X49170000Y-142810000D03*
D48*
X62890000Y-55205000D03*
X62890000Y-56855000D03*
D10*
X36645000Y-37820000D03*
X35955000Y-37820000D03*
D19*
X55507500Y-61702500D03*
X55507500Y-60742500D03*
D17*
X35790000Y-36080000D03*
X37690000Y-36080000D03*
D24*
X61022500Y-61632500D03*
X61712500Y-61632500D03*
D10*
X51360000Y-78800000D03*
X50670000Y-78800000D03*
D13*
X57150000Y-112776000D03*
X57150000Y-110876000D03*
D24*
X37425000Y-37520000D03*
X38115000Y-37520000D03*
D49*
X45280000Y-120740000D03*
X46250000Y-120740000D03*
D14*
X54730000Y-133410000D03*
X52830000Y-133410000D03*
D15*
X41640000Y-90290000D03*
X30940000Y-90290000D03*
D14*
X61882500Y-63082500D03*
X59982500Y-63082500D03*
D18*
X45160000Y-98550000D03*
X45160000Y-99510000D03*
D11*
X41300000Y-62790000D03*
X41300000Y-73490000D03*
D18*
X42130000Y-37530000D03*
X42130000Y-38490000D03*
X46050000Y-39480000D03*
X46050000Y-40440000D03*
D11*
X29760000Y-106930000D03*
X29760000Y-117630000D03*
D13*
X37690000Y-25430000D03*
X37690000Y-23530000D03*
D11*
X63850000Y-107090000D03*
X63850000Y-117790000D03*
D19*
X39315000Y-37360000D03*
X39315000Y-36400000D03*
D23*
X53990000Y-74295000D03*
X53990000Y-74985000D03*
D27*
X48720000Y-168982500D03*
X48720000Y-167157500D03*
D50*
X48670000Y-114430000D03*
X49890000Y-114430000D03*
X48670000Y-113210000D03*
X49890000Y-113210000D03*
D51*
X50530000Y-115757500D03*
X50030000Y-115757500D03*
X49530000Y-115757500D03*
X49030000Y-115757500D03*
X48530000Y-115757500D03*
X48030000Y-115757500D03*
D52*
X47342500Y-115070000D03*
X47342500Y-114570000D03*
X47342500Y-114070000D03*
X47342500Y-113570000D03*
X47342500Y-113070000D03*
X47342500Y-112570000D03*
D51*
X48030000Y-111882500D03*
X48530000Y-111882500D03*
X49030000Y-111882500D03*
X49530000Y-111882500D03*
X50030000Y-111882500D03*
X50530000Y-111882500D03*
D52*
X51217500Y-112570000D03*
X51217500Y-113070000D03*
X51217500Y-113570000D03*
X51217500Y-114070000D03*
X51217500Y-114570000D03*
X51217500Y-115070000D03*
D19*
X51870000Y-109570000D03*
X51870000Y-108610000D03*
X52260000Y-55930000D03*
X52260000Y-54970000D03*
D18*
X55030000Y-109630000D03*
X55030000Y-110590000D03*
D23*
X58490000Y-102605000D03*
X58490000Y-103295000D03*
D20*
X56742500Y-96627500D03*
X61062500Y-96627500D03*
D14*
X61770000Y-34750000D03*
X59870000Y-34750000D03*
D53*
X67788750Y-99646562D03*
X69251250Y-97113438D03*
D10*
X43775000Y-120830000D03*
X43085000Y-120830000D03*
D23*
X55530000Y-127485000D03*
X55530000Y-128175000D03*
D24*
X50615000Y-75520000D03*
X51305000Y-75520000D03*
D16*
X57770000Y-82295000D03*
X57770000Y-81605000D03*
X55550000Y-125365000D03*
X55550000Y-124675000D03*
D13*
X25350000Y-97410000D03*
X25350000Y-95510000D03*
D31*
X64145000Y-142750000D03*
X64145000Y-143770000D03*
D24*
X60175000Y-55130000D03*
X60865000Y-55130000D03*
X40247500Y-98600000D03*
X40937500Y-98600000D03*
D15*
X61280000Y-121030000D03*
X50580000Y-121030000D03*
D10*
X56865000Y-109220000D03*
X56175000Y-109220000D03*
D21*
X60630000Y-54140000D03*
X59610000Y-54140000D03*
D54*
X48460000Y-130540000D03*
X42760000Y-130540000D03*
D27*
X50700000Y-168982500D03*
X50700000Y-167157500D03*
D16*
X41990000Y-122250000D03*
X41990000Y-121560000D03*
D23*
X53150000Y-114625000D03*
X53150000Y-115315000D03*
D37*
X43647500Y-96227500D03*
X43647500Y-98127500D03*
D16*
X35300000Y-43795000D03*
X35300000Y-43105000D03*
D13*
X25430000Y-112820000D03*
X25430000Y-110920000D03*
D27*
X52660000Y-168982500D03*
X52660000Y-167157500D03*
D55*
X57445000Y-108060000D03*
X57045000Y-108060000D03*
X56645000Y-108060000D03*
X56245000Y-108060000D03*
X55845000Y-108060000D03*
X55445000Y-108060000D03*
X55045000Y-108060000D03*
X54645000Y-108060000D03*
X54245000Y-108060000D03*
X53845000Y-108060000D03*
D56*
X53245000Y-107560000D03*
X53245000Y-107160000D03*
X53245000Y-106760000D03*
X53245000Y-106360000D03*
X53245000Y-105960000D03*
X53245000Y-105560000D03*
X53245000Y-105160000D03*
X53245000Y-104760000D03*
D55*
X53845000Y-104260000D03*
X54245000Y-104260000D03*
X54645000Y-104260000D03*
X55045000Y-104260000D03*
X55445000Y-104260000D03*
X55845000Y-104260000D03*
X56245000Y-104260000D03*
X56645000Y-104260000D03*
X57045000Y-104260000D03*
X57445000Y-104260000D03*
D56*
X58045000Y-104760000D03*
X58045000Y-105160000D03*
X58045000Y-105560000D03*
X58045000Y-105960000D03*
X58045000Y-106360000D03*
X58045000Y-106760000D03*
X58045000Y-107160000D03*
X58045000Y-107560000D03*
D57*
X55645000Y-106160000D03*
D11*
X41610000Y-76360000D03*
X41610000Y-87060000D03*
D32*
X50485000Y-129510000D03*
X51755000Y-129510000D03*
D33*
X52390000Y-127235000D03*
D32*
X53025000Y-129510000D03*
X54295000Y-129510000D03*
D34*
X54295000Y-123810000D03*
X50485000Y-123810000D03*
D35*
X51675000Y-124060000D03*
D34*
X51755000Y-123810000D03*
X53025000Y-123810000D03*
D10*
X51545000Y-76270000D03*
X50855000Y-76270000D03*
D23*
X58350000Y-74305000D03*
X58350000Y-74995000D03*
D18*
X64135000Y-144620000D03*
X64135000Y-145580000D03*
D19*
X48850000Y-125540000D03*
X48850000Y-124580000D03*
X50640000Y-107020000D03*
X50640000Y-106060000D03*
D24*
X56365000Y-103020000D03*
X57055000Y-103020000D03*
D23*
X35180000Y-38195000D03*
X35180000Y-38885000D03*
D24*
X38295000Y-104700000D03*
X38985000Y-104700000D03*
D14*
X68990000Y-93600000D03*
X67090000Y-93600000D03*
D23*
X57600000Y-74305000D03*
X57600000Y-74995000D03*
D16*
X51340000Y-77990000D03*
X51340000Y-77300000D03*
D17*
X58210000Y-134100000D03*
X60110000Y-134100000D03*
D16*
X57010000Y-82525000D03*
X57010000Y-81835000D03*
D55*
X60770000Y-60520000D03*
X60370000Y-60520000D03*
X59970000Y-60520000D03*
X59570000Y-60520000D03*
X59170000Y-60520000D03*
X58770000Y-60520000D03*
X58370000Y-60520000D03*
X57970000Y-60520000D03*
X57570000Y-60520000D03*
X57170000Y-60520000D03*
D56*
X56570000Y-60020000D03*
X56570000Y-59620000D03*
X56570000Y-59220000D03*
X56570000Y-58820000D03*
X56570000Y-58420000D03*
X56570000Y-58020000D03*
X56570000Y-57620000D03*
X56570000Y-57220000D03*
D55*
X57170000Y-56720000D03*
X57570000Y-56720000D03*
X57970000Y-56720000D03*
X58370000Y-56720000D03*
X58770000Y-56720000D03*
X59170000Y-56720000D03*
X59570000Y-56720000D03*
X59970000Y-56720000D03*
X60370000Y-56720000D03*
X60770000Y-56720000D03*
D56*
X61370000Y-57220000D03*
X61370000Y-57620000D03*
X61370000Y-58020000D03*
X61370000Y-58420000D03*
X61370000Y-58820000D03*
X61370000Y-59220000D03*
X61370000Y-59620000D03*
X61370000Y-60020000D03*
D57*
X58970000Y-58620000D03*
D13*
X53470000Y-111750000D03*
X53470000Y-109850000D03*
D43*
X39675000Y-99920000D03*
X40075000Y-99920000D03*
X40475000Y-99920000D03*
X40875000Y-99920000D03*
X41275000Y-99920000D03*
X41675000Y-99920000D03*
X42075000Y-99920000D03*
X42475000Y-99920000D03*
X42875000Y-99920000D03*
X43275000Y-99920000D03*
D44*
X43875000Y-100420000D03*
X43875000Y-100820000D03*
X43875000Y-101220000D03*
X43875000Y-101620000D03*
X43875000Y-102020000D03*
X43875000Y-102420000D03*
X43875000Y-102820000D03*
X43875000Y-103220000D03*
D43*
X43275000Y-103720000D03*
X42875000Y-103720000D03*
X42475000Y-103720000D03*
X42075000Y-103720000D03*
X41675000Y-103720000D03*
X41275000Y-103720000D03*
X40875000Y-103720000D03*
X40475000Y-103720000D03*
X40075000Y-103720000D03*
X39675000Y-103720000D03*
D44*
X39075000Y-103220000D03*
X39075000Y-102820000D03*
X39075000Y-102420000D03*
X39075000Y-102020000D03*
X39075000Y-101620000D03*
X39075000Y-101220000D03*
X39075000Y-100820000D03*
X39075000Y-100420000D03*
D45*
X41475000Y-101820000D03*
D16*
X62370000Y-60825000D03*
X62370000Y-60135000D03*
D21*
X39160000Y-105870000D03*
X38140000Y-105870000D03*
M02*
