M48
; DRILL file {KiCad 7.0.2-0} date 2023 October 14, Saturday 11:27:16
; FORMAT={-:-/ absolute / metric / decimal}
; #@! TF.CreationDate,2023-10-14T11:27:16-07:00
; #@! TF.GenerationSoftware,Kicad,Pcbnew,7.0.2-0
; #@! TF.FileFunction,Plated,1,4,PTH
FMAT,2
METRIC
; #@! TA.AperFunction,Plated,PTH,ViaDrill
T1C0.200
; #@! TA.AperFunction,Plated,PTH,ComponentDrill
T2C0.200
; #@! TA.AperFunction,Plated,PTH,ViaDrill
T3C0.300
; #@! TA.AperFunction,Plated,PTH,ViaDrill
T4C0.400
; #@! TA.AperFunction,Plated,PTH,ComponentDrill
T5C0.400
; #@! TA.AperFunction,Plated,PTH,ComponentDrill
T6C0.500
; #@! TA.AperFunction,Plated,PTH,ComponentDrill
T7C0.650
; #@! TA.AperFunction,Plated,PTH,ComponentDrill
T8C0.750
; #@! TA.AperFunction,Plated,PTH,ComponentDrill
T9C0.800
; #@! TA.AperFunction,Plated,PTH,ComponentDrill
T10C1.600
; #@! TA.AperFunction,Plated,PTH,ComponentDrill
T11C2.500
%
G90
G05
T1
X33.581Y-166.0
X33.581Y-170.02
X34.08Y-171.3
X35.08Y-40.175
X35.11Y-42.494
X35.114Y-41.081
X35.123Y-39.546
X35.364Y-102.266
X35.63Y-40.895
X35.641Y-39.365
X35.675Y-98.99
X35.814Y-96.012
X35.819Y-104.825
X35.893Y-43.354
X36.62Y-133.41
X36.82Y-171.23
X37.028Y-104.552
X37.603Y-105.757
X37.723Y-105.207
X38.44Y-48.64
X39.515Y-88.1
X39.53Y-89.025
X40.73Y-168.22
X41.402Y-36.83
X41.41Y-121.59
X41.91Y-25.908
X42.19Y-169.7
X42.75Y-126.35
X43.942Y-26.924
X45.54Y-114.33
X45.57Y-115.07
X46.135Y-113.069
X46.27Y-114.12
X46.38Y-113.585
X47.48Y-122.89
X47.78Y-110.93
X48.33Y-124.58
X48.992Y-116.755
X49.15Y-74.05
X49.54Y-116.72
X49.9Y-77.4
X50.03Y-76.32
X50.042Y-116.943
X50.11Y-91.561
X50.425Y-74.525
X50.53Y-116.69
X50.7Y-79.18
X51.877Y-77.598
X51.91Y-75.675
X51.924Y-76.975
X52.083Y-118.167
X52.225Y-113.544
X52.29Y-76.15
X52.324Y-47.752
X52.391Y-114.239
X52.47Y-136.74
X52.47Y-138.9
X52.52Y-80.65
X52.56Y-120.105
X52.774Y-118.367
X52.8Y-110.79
X52.832Y-52.578
X53.162Y-118.756
X53.428Y-81.2
X54.102Y-63.246
X54.133Y-75.707
X54.26Y-113.07
X54.485Y-115.01
X54.52Y-70.3
X54.663Y-112.696
X54.752Y-75.562
X55.44Y-142.03
X55.99Y-73.32
X56.11Y-128.17
X56.175Y-75.6
X56.22Y-72.71
X56.575Y-76.168
X57.024Y-81.191
X57.181Y-75.715
X57.424Y-80.664
X57.44Y-103.585
X57.56Y-79.07
X57.564Y-138.293
X57.822Y-80.165
X57.89Y-75.86
X58.101Y-137.259
X58.22Y-141.21
X58.723Y-104.753
X59.244Y-54.765
X59.244Y-55.716
X59.25Y-134.81
X59.74Y-101.491
X60.059Y-143.012
X60.34Y-106.258
X60.49Y-105.23
X60.64Y-142.96
X60.67Y-106.731
X60.983Y-106.279
X61.008Y-62.633
X61.065Y-102.46
X61.07Y-56.059
X61.12Y-105.166
X61.185Y-142.888
X61.61Y-134.86
X61.67Y-145.43
X62.043Y-58.274
X62.287Y-81.727
X62.4Y-134.72
X62.835Y-58.745
X62.919Y-146.28
X62.944Y-60.24
X62.992Y-81.788
X63.35Y-145.47
X63.531Y-60.177
X63.566Y-140.086
X63.606Y-59.455
X63.74Y-146.93
X63.754Y-80.518
X63.88Y-139.496
X63.905Y-57.405
X63.922Y-56.856
X64.289Y-147.052
X64.55Y-134.17
X65.18Y-139.17
X65.41Y-138.37
X67.385Y-111.37
X68.334Y-111.02
T2
X37.02Y-167.4
X37.02Y-168.45
X37.02Y-169.5
X37.105Y-40.62
X38.07Y-167.4
X38.07Y-168.45
X38.07Y-169.5
X38.08Y-39.52
X38.08Y-40.62
X38.08Y-41.72
X39.12Y-167.4
X39.12Y-168.45
X39.12Y-169.5
X39.33Y-39.52
X39.33Y-40.62
X39.33Y-41.72
X39.875Y-101.82
X40.305Y-40.62
X40.85Y-100.72
X40.85Y-101.82
X40.85Y-102.92
X42.1Y-100.72
X42.1Y-101.82
X42.1Y-102.92
X43.075Y-101.82
X54.045Y-106.16
X55.02Y-105.06
X55.02Y-106.16
X55.02Y-107.26
X56.27Y-105.06
X56.27Y-106.16
X56.27Y-107.26
X57.245Y-106.16
X57.37Y-58.62
X58.345Y-57.52
X58.345Y-58.62
X58.345Y-59.72
X59.06Y-138.29
X59.06Y-139.49
X59.06Y-140.69
X59.595Y-57.52
X59.595Y-58.62
X59.595Y-59.72
X60.26Y-138.29
X60.26Y-139.49
X60.26Y-140.69
X60.57Y-58.62
X61.46Y-138.29
X61.46Y-139.49
X61.46Y-140.69
T3
X23.89Y-95.51
X24.07Y-110.92
X30.93Y-81.4
X31.496Y-49.276
X32.981Y-169.171
X33.0Y-167.8
X34.27Y-87.8
X35.66Y-165.29
X36.37Y-38.42
X36.52Y-164.8
X37.89Y-164.79
X38.94Y-164.8
X39.1Y-99.2
X39.19Y-172.93
X45.13Y-94.74
X48.78Y-113.0
X48.78Y-113.75
X48.78Y-114.5
X54.34Y-79.3
X55.34Y-78.3
X55.34Y-79.3
X55.59Y-135.32
X55.83Y-134.66
X55.9Y-112.34
X55.93Y-139.87
X56.38Y-135.16
X56.72Y-134.6
X58.435Y-117.205
X61.611Y-142.365
X62.79Y-142.5
X64.35Y-125.48
X64.84Y-56.43
X65.169Y-140.67
T4
X21.3Y-114.19
X21.3Y-115.39
X21.3Y-116.59
X22.17Y-87.41
X22.71Y-98.86
X22.71Y-99.86
X22.71Y-100.86
X22.8Y-114.19
X22.8Y-115.39
X22.8Y-116.59
X23.17Y-84.41
X23.17Y-85.91
X23.67Y-87.41
X23.71Y-98.86
X23.71Y-99.86
X23.71Y-100.86
X24.3Y-114.19
X24.3Y-115.39
X24.3Y-116.59
X24.67Y-84.41
X24.67Y-85.91
X24.71Y-98.86
X24.71Y-99.86
X24.71Y-100.86
X25.17Y-87.41
X25.71Y-98.86
X25.71Y-99.86
X25.71Y-100.86
X25.8Y-114.19
X25.8Y-115.39
X25.8Y-116.59
X26.17Y-84.41
X26.17Y-85.91
X29.9Y-134.72
X30.54Y-64.02
X30.54Y-65.52
X30.54Y-67.02
X30.76Y-126.79
X31.98Y-134.06
X32.04Y-64.02
X32.04Y-65.52
X32.04Y-67.02
X32.21Y-45.1
X32.21Y-46.1
X32.21Y-47.1
X32.37Y-140.22
X32.37Y-143.52
X32.52Y-141.63
X32.63Y-126.77
X32.74Y-136.58
X33.21Y-45.1
X33.21Y-46.1
X33.21Y-47.1
X33.22Y-150.24
X33.33Y-153.43
X33.33Y-154.535
X33.54Y-65.52
X33.54Y-67.02
X33.55Y-58.35
X33.64Y-59.4
X34.13Y-26.43
X34.13Y-27.28
X34.13Y-28.13
X34.13Y-28.98
X34.21Y-45.1
X34.21Y-46.1
X34.21Y-47.1
X34.33Y-58.78
X34.34Y-57.86
X34.42Y-134.28
X34.52Y-56.98
X34.52Y-59.61
X34.69Y-109.96
X34.693Y-110.801
X34.7Y-109.09
X34.98Y-26.43
X34.98Y-27.28
X34.98Y-28.13
X34.98Y-28.98
X35.03Y-151.61
X35.03Y-155.59
X35.04Y-161.88
X35.09Y-158.13
X35.19Y-58.88
X35.2Y-57.89
X35.21Y-45.1
X35.21Y-46.1
X35.21Y-47.1
X35.34Y-56.069
X35.41Y-56.97
X35.45Y-59.81
X35.54Y-110.13
X35.57Y-109.27
X35.57Y-111.0
X35.83Y-26.43
X35.83Y-27.28
X35.83Y-28.13
X35.83Y-28.98
X36.04Y-124.42
X36.05Y-125.26
X36.06Y-122.76
X36.07Y-121.95
X36.07Y-123.59
X36.14Y-142.24
X36.15Y-94.26
X36.16Y-92.6
X36.16Y-93.43
X36.17Y-91.77
X36.22Y-56.069
X36.41Y-109.27
X36.42Y-110.14
X36.43Y-110.99
X36.9Y-123.58
X36.91Y-121.92
X36.91Y-122.75
X36.91Y-124.43
X36.91Y-125.26
X36.92Y-153.75
X36.96Y-143.55
X36.99Y-93.43
X36.99Y-94.26
X36.99Y-149.79
X37.0Y-91.77
X37.0Y-92.6
X37.12Y-161.75
X37.14Y-157.79
X37.17Y-141.21
X37.27Y-109.26
X37.27Y-110.13
X37.28Y-110.98
X37.3Y-120.4
X37.32Y-91.01
X37.4Y-121.24
X37.61Y-22.36
X37.73Y-93.88
X37.76Y-93.04
X37.77Y-92.22
X38.41Y-142.4
X38.91Y-132.4
X39.36Y-131.34
X39.41Y-151.26
X39.62Y-130.35
X39.75Y-143.35
X39.79Y-129.3
X39.8Y-141.48
X40.75Y-130.01
X41.12Y-128.95
X41.14Y-132.42
X41.28Y-141.06
X42.11Y-58.4
X42.12Y-57.47
X42.72Y-106.44
X42.72Y-107.35
X42.72Y-108.19
X42.85Y-105.61
X42.9Y-56.61
X42.936Y-38.144
X43.09Y-57.47
X43.09Y-58.39
X43.53Y-107.3
X43.55Y-45.48
X43.56Y-108.18
X43.57Y-106.4
X43.78Y-56.61
X43.98Y-57.47
X44.0Y-58.39
X44.242Y-106.959
X44.36Y-108.29
X44.46Y-151.48
X44.5Y-44.99
X44.651Y-39.151
X44.68Y-56.61
X44.76Y-129.69
X44.78Y-107.58
X44.79Y-131.5
X44.83Y-27.21
X44.9Y-57.47
X44.91Y-58.41
X45.21Y-108.28
X45.3Y-38.319
X45.35Y-42.985
X45.591Y-107.306
X45.79Y-58.42
X46.06Y-99.2
X46.087Y-96.823
X46.21Y-103.899
X46.22Y-38.5
X46.23Y-37.64
X46.4Y-35.02
X46.41Y-34.14
X46.41Y-35.9
X46.41Y-36.8
X46.505Y-106.207
X46.58Y-129.66
X47.04Y-101.32
X47.095Y-100.145
X47.13Y-102.5
X47.28Y-34.14
X47.29Y-35.0
X47.29Y-35.88
X47.3Y-36.78
X47.35Y-68.38
X47.35Y-69.26
X47.35Y-70.15
X47.35Y-71.03
X47.36Y-32.46
X47.596Y-50.747
X47.86Y-145.57
X48.28Y-68.39
X48.28Y-69.27
X48.28Y-70.16
X48.28Y-71.04
X48.41Y-22.92
X48.42Y-23.79
X48.43Y-24.67
X48.43Y-25.58
X48.45Y-50.005
X48.68Y-146.37
X48.749Y-52.599
X48.75Y-145.4
X48.959Y-43.04
X49.009Y-51.634
X49.046Y-108.868
X49.076Y-104.94
X49.18Y-68.38
X49.18Y-69.26
X49.18Y-70.15
X49.18Y-71.03
X49.29Y-22.92
X49.3Y-23.79
X49.31Y-24.67
X49.31Y-25.58
X49.39Y-110.175
X49.41Y-107.17
X49.489Y-34.81
X49.7Y-105.64
X49.788Y-108.338
X49.841Y-104.24
X50.048Y-109.562
X50.26Y-24.68
X50.26Y-25.57
X50.27Y-22.9
X50.27Y-23.83
X50.298Y-57.548
X50.59Y-64.95
X50.71Y-63.46
X50.73Y-61.73
X50.74Y-60.03
X50.74Y-60.89
X50.74Y-62.59
X51.05Y-56.89
X51.08Y-71.44
X51.139Y-100.91
X51.3Y-59.25
X51.58Y-61.74
X51.58Y-62.59
X51.58Y-63.47
X51.59Y-60.04
X51.59Y-60.89
X51.611Y-101.791
X52.18Y-59.3
X52.41Y-38.72
X52.49Y-122.25
X52.52Y-139.94
X52.57Y-39.62
X52.6Y-32.87
X52.785Y-101.766
X52.85Y-40.52
X53.3Y-38.76
X53.34Y-139.92
X53.43Y-39.63
X53.72Y-40.53
X54.07Y-61.4
X54.15Y-139.91
X54.17Y-38.76
X54.29Y-39.64
X54.52Y-97.03
X54.55Y-97.92
X54.64Y-40.54
X54.795Y-98.74
X54.8Y-99.58
X54.97Y-139.89
X55.04Y-38.72
X55.12Y-100.4
X55.18Y-39.66
X55.52Y-40.54
X55.59Y-98.93
X55.75Y-99.83
X56.22Y-129.27
X56.39Y-54.54
X56.42Y-98.95
X56.7Y-99.84
X56.78Y-129.98
X56.81Y-150.85
X57.02Y-143.72
X57.07Y-129.08
X57.24Y-98.96
X57.7Y-99.87
X57.79Y-85.97
X57.88Y-85.05
X58.06Y-98.98
X58.09Y-84.14
X58.16Y-83.23
X58.64Y-114.63
X58.66Y-85.96
X58.67Y-113.63
X58.7Y-115.58
X58.73Y-85.04
X58.99Y-152.71
X59.01Y-84.16
X59.024Y-83.229
X59.06Y-151.19
X59.13Y-112.79
X59.52Y-154.07
X59.54Y-113.61
X59.54Y-157.1
X59.55Y-85.34
X59.56Y-86.18
X59.56Y-114.49
X59.56Y-115.37
X59.58Y-160.11
X59.91Y-83.61
X59.91Y-84.5
X60.06Y-112.7
X60.41Y-113.63
X60.43Y-114.52
X60.43Y-115.38
X60.59Y-151.23
X60.64Y-152.7
X60.69Y-40.83
X60.8Y-31.45
X60.8Y-32.35
X60.8Y-33.25
X60.97Y-112.71
X61.03Y-36.53
X61.05Y-154.11
X61.07Y-157.14
X61.1Y-155.58
X61.11Y-160.15
X61.12Y-158.61
X61.16Y-161.62
X61.34Y-39.96
X61.43Y-37.33
X61.55Y-40.85
X61.58Y-38.19
X61.6Y-39.08
X61.7Y-31.45
X61.7Y-32.35
X61.7Y-33.25
X61.93Y-36.53
X62.26Y-152.69
X62.27Y-39.96
X62.28Y-37.34
X62.28Y-151.27
X62.29Y-49.86
X62.29Y-50.86
X62.29Y-51.86
X62.41Y-40.84
X62.44Y-38.2
X62.45Y-39.08
X62.56Y-68.69
X62.56Y-69.89
X62.56Y-71.09
X62.6Y-31.45
X62.6Y-32.35
X62.6Y-33.25
X62.72Y-155.57
X62.74Y-154.15
X62.74Y-158.6
X62.76Y-157.18
X62.78Y-161.61
X62.8Y-160.19
X63.29Y-49.86
X63.29Y-50.86
X63.29Y-51.86
X63.43Y-97.11
X63.44Y-96.08
X63.45Y-31.47
X63.5Y-32.35
X63.5Y-33.25
X64.06Y-68.69
X64.06Y-69.89
X64.06Y-71.09
X64.29Y-49.86
X64.29Y-50.86
X64.29Y-51.86
X64.34Y-97.12
X64.35Y-96.09
X65.29Y-49.86
X65.29Y-50.86
X65.29Y-51.86
X65.29Y-97.15
X65.3Y-95.17
X65.3Y-96.11
X65.56Y-68.69
X65.56Y-69.89
X65.56Y-71.09
X66.23Y-95.18
X66.23Y-96.1
X66.23Y-97.13
X66.25Y-98.02
X67.06Y-68.69
X67.06Y-69.89
X67.06Y-71.09
X67.16Y-95.18
X70.15Y-127.35
X70.51Y-120.73
X70.51Y-121.83
X70.51Y-122.93
X70.69Y-106.22
X70.69Y-107.22
X70.69Y-108.22
X70.77Y-89.93
X70.77Y-91.13
X70.77Y-92.33
X71.61Y-120.73
X71.61Y-121.83
X71.61Y-122.93
X71.89Y-106.22
X71.89Y-107.22
X71.89Y-108.22
X72.27Y-89.93
X72.27Y-91.13
X72.27Y-92.33
X72.71Y-120.73
X72.71Y-121.83
X72.71Y-122.93
X72.72Y-111.78
X73.09Y-106.22
X73.09Y-107.22
X73.09Y-108.22
X73.77Y-89.93
X73.77Y-91.13
X73.77Y-92.33
X73.81Y-120.73
X73.81Y-121.83
X73.81Y-122.93
X74.29Y-106.22
X74.29Y-107.22
X74.29Y-108.22
X75.27Y-89.93
X75.27Y-91.13
X75.27Y-92.33
T5
X21.69Y-89.97
X21.69Y-91.77
X21.69Y-93.57
X23.18Y-104.47
X23.18Y-106.27
X23.18Y-108.07
X23.49Y-89.97
X23.49Y-91.77
X23.49Y-93.57
X24.002Y-119.99
X24.002Y-121.79
X24.002Y-123.59
X24.98Y-104.47
X24.98Y-106.27
X24.98Y-108.07
X25.29Y-89.97
X25.29Y-91.77
X25.29Y-93.57
X25.802Y-119.99
X25.802Y-121.79
X25.802Y-123.59
X26.78Y-104.47
X26.78Y-106.27
X26.78Y-108.07
X27.602Y-119.99
X27.602Y-121.79
X27.602Y-123.59
X29.97Y-69.55
X29.97Y-71.35
X29.97Y-73.15
X31.74Y-50.68
X31.74Y-52.48
X31.74Y-54.28
X31.77Y-69.55
X31.77Y-71.35
X31.77Y-73.15
X33.54Y-50.68
X33.57Y-69.55
X33.57Y-71.35
X33.57Y-73.15
X33.84Y-32.34
X33.84Y-34.14
X33.84Y-35.94
X35.34Y-50.68
X35.64Y-32.34
X35.64Y-34.14
X37.44Y-32.34
X37.44Y-34.14
X58.44Y-24.15
X58.44Y-25.95
X58.44Y-27.75
X60.24Y-24.15
X60.24Y-25.95
X60.24Y-27.75
X60.52Y-46.45
X62.04Y-24.15
X62.04Y-25.95
X62.04Y-27.75
X62.32Y-46.45
X62.48Y-65.25
X64.12Y-42.85
X64.12Y-44.65
X64.12Y-46.45
X64.28Y-61.65
X64.28Y-63.45
X64.28Y-65.25
X66.08Y-61.65
X66.08Y-63.45
X66.08Y-65.25
X68.784Y-82.675
X68.784Y-84.475
X68.784Y-86.275
X69.965Y-99.185
X69.965Y-100.985
X69.965Y-102.785
X70.575Y-113.615
X70.575Y-115.415
X70.575Y-117.215
X70.584Y-82.675
X70.584Y-84.475
X70.584Y-86.275
X71.764Y-99.185
X71.764Y-100.985
X71.764Y-102.785
X72.374Y-113.615
X72.374Y-115.415
X72.374Y-117.215
X72.385Y-82.675
X72.385Y-84.475
X72.385Y-86.275
X73.564Y-99.185
X73.564Y-100.985
X73.564Y-102.785
X74.174Y-113.615
X74.174Y-115.415
X74.174Y-117.215
T6
X36.534Y-58.479
X36.534Y-146.729
X37.083Y-57.154
X37.083Y-59.805
X37.083Y-145.404
X37.083Y-148.055
X38.409Y-56.604
X38.409Y-60.354
X38.409Y-144.854
X38.409Y-148.604
X39.734Y-57.154
X39.734Y-59.805
X39.734Y-145.404
X39.734Y-148.055
X40.284Y-58.479
X40.284Y-146.729
X56.534Y-38.479
X56.534Y-146.729
X57.083Y-37.154
X57.083Y-39.805
X57.083Y-145.404
X57.083Y-148.055
X58.409Y-36.604
X58.409Y-40.354
X58.409Y-144.854
X58.409Y-148.604
X59.734Y-37.154
X59.734Y-39.805
X59.734Y-145.404
X59.734Y-148.055
X60.284Y-38.479
X60.284Y-146.729
T7
X47.45Y-75.53
X47.45Y-76.8
X47.45Y-78.07
X47.45Y-79.34
X47.45Y-80.61
X47.45Y-81.88
X47.45Y-83.15
X47.45Y-84.42
X47.45Y-85.69
X47.45Y-86.96
X47.45Y-88.23
X47.45Y-89.5
X47.45Y-90.77
X47.45Y-92.04
X47.45Y-93.31
X47.45Y-94.58
X47.45Y-95.85
X47.45Y-97.12
X48.72Y-75.53
X48.72Y-76.8
X48.72Y-78.07
X48.72Y-79.34
X48.72Y-80.61
X48.72Y-81.88
X48.72Y-83.15
X48.72Y-84.42
X48.72Y-85.69
X48.72Y-86.96
X48.72Y-88.23
X48.72Y-89.5
X48.72Y-90.77
X48.72Y-92.04
X48.72Y-93.31
X48.72Y-94.58
X48.72Y-95.85
X48.72Y-97.12
T8
X37.26Y-135.73
X37.26Y-137.73
X44.68Y-171.89
X46.68Y-171.89
X48.68Y-171.89
X50.68Y-171.89
X52.68Y-171.89
T9
X27.77Y-77.197
X27.77Y-80.697
X28.256Y-126.59
X29.506Y-128.755
X30.756Y-130.92
X69.21Y-76.967
X69.21Y-80.467
T10
X40.45Y-155.28
X40.45Y-157.82
X40.45Y-160.36
X45.53Y-155.28
X45.53Y-157.82
X45.53Y-160.36
X51.61Y-155.25
X51.61Y-157.79
X51.61Y-160.33
X56.69Y-155.25
X56.69Y-157.79
X56.69Y-160.33
T11
X38.409Y-58.479
X38.409Y-146.729
X58.409Y-38.479
X58.409Y-146.729
T0
M30
