%TF.GenerationSoftware,KiCad,Pcbnew,7.0.7*%
%TF.CreationDate,2024-01-28T22:11:28-03:30*%
%TF.ProjectId,ground-station,67726f75-6e64-42d7-9374-6174696f6e2e,rev?*%
%TF.SameCoordinates,Original*%
%TF.FileFunction,Drillmap*%
%TF.FilePolarity,Positive*%
%FSLAX45Y45*%
G04 Gerber Fmt 4.5, Leading zero omitted, Abs format (unit mm)*
G04 Created by KiCad (PCBNEW 7.0.7) date 2024-01-28 22:11:28*
%MOMM*%
%LPD*%
G01*
G04 APERTURE LIST*
%ADD10C,0.100000*%
%ADD11C,0.200000*%
%ADD12C,0.030000*%
%ADD13C,0.040000*%
%ADD14C,0.095000*%
%ADD15C,0.110000*%
%ADD16C,0.120000*%
%ADD17C,0.130000*%
%ADD18C,0.230000*%
G04 APERTURE END LIST*
D10*
X10319000Y-6588000D02*
X16219000Y-6588000D01*
X10319000Y-6588000D02*
G75*
G03*
X10019000Y-6888000I0J-300000D01*
G01*
X16519000Y-6888000D02*
X16519000Y-12238000D01*
X10119000Y-8588000D02*
X10419000Y-8588000D01*
X10019000Y-10388000D02*
X10019000Y-12238000D01*
X14419000Y-10338000D02*
X14419000Y-11838000D01*
X16519000Y-6888000D02*
G75*
G03*
X16219000Y-6588000I-300000J0D01*
G01*
X10019000Y-12238000D02*
G75*
G03*
X10319000Y-12538000I300000J0D01*
G01*
X10119000Y-10288000D02*
G75*
G03*
X10019000Y-10388000I0J-100000D01*
G01*
X10319000Y-12538000D02*
X16219000Y-12538000D01*
X14619000Y-10338000D02*
G75*
G03*
X14419000Y-10338000I-100000J0D01*
G01*
X10119000Y-10288000D02*
X10419000Y-10288000D01*
X16219000Y-12538000D02*
G75*
G03*
X16519000Y-12238000I0J300000D01*
G01*
X10419000Y-10288000D02*
G75*
G03*
X10519000Y-10188000I0J100000D01*
G01*
X10019000Y-6888000D02*
X10019000Y-8488000D01*
X14619000Y-10338000D02*
X14619000Y-11838000D01*
X14419000Y-11838000D02*
G75*
G03*
X14619000Y-11838000I100000J0D01*
G01*
X10519000Y-8688000D02*
G75*
G03*
X10419000Y-8588000I-100000J0D01*
G01*
X10019000Y-8488000D02*
G75*
G03*
X10119000Y-8588000I100000J0D01*
G01*
X10519000Y-8688000D02*
X10519000Y-10188000D01*
D11*
D12*
X10780000Y-8240000D02*
X10810000Y-8270000D01*
X10810000Y-8240000D02*
X10780000Y-8270000D01*
X10780000Y-8875000D02*
X10810000Y-8905000D01*
X10810000Y-8875000D02*
X10780000Y-8905000D01*
X10780000Y-9510000D02*
X10810000Y-9540000D01*
X10810000Y-9510000D02*
X10780000Y-9540000D01*
X10780000Y-10780000D02*
X10810000Y-10810000D01*
X10810000Y-10780000D02*
X10780000Y-10810000D01*
X10780000Y-11415000D02*
X10810000Y-11445000D01*
X10810000Y-11415000D02*
X10780000Y-11445000D01*
X10780000Y-12050000D02*
X10810000Y-12080000D01*
X10810000Y-12050000D02*
X10780000Y-12080000D01*
X10783000Y-10131000D02*
X10813000Y-10161000D01*
X10813000Y-10131000D02*
X10783000Y-10161000D01*
X11037000Y-10132000D02*
X11067000Y-10162000D01*
X11067000Y-10132000D02*
X11037000Y-10162000D01*
X11161000Y-11669000D02*
X11191000Y-11699000D01*
X11191000Y-11669000D02*
X11161000Y-11699000D01*
X11161000Y-12177000D02*
X11191000Y-12207000D01*
X11191000Y-12177000D02*
X11161000Y-12207000D01*
X11275000Y-12124000D02*
X11305000Y-12154000D01*
X11305000Y-12124000D02*
X11275000Y-12154000D01*
X11291000Y-10130000D02*
X11321000Y-10160000D01*
X11321000Y-10130000D02*
X11291000Y-10160000D01*
X11336000Y-11769000D02*
X11366000Y-11799000D01*
X11366000Y-11769000D02*
X11336000Y-11799000D01*
X11401000Y-11680000D02*
X11431000Y-11710000D01*
X11431000Y-11680000D02*
X11401000Y-11710000D01*
X11415000Y-8240000D02*
X11445000Y-8270000D01*
X11445000Y-8240000D02*
X11415000Y-8270000D01*
X11415000Y-8875000D02*
X11445000Y-8905000D01*
X11445000Y-8875000D02*
X11415000Y-8905000D01*
X11415000Y-9510000D02*
X11445000Y-9540000D01*
X11445000Y-9510000D02*
X11415000Y-9540000D01*
X11466000Y-11769000D02*
X11496000Y-11799000D01*
X11496000Y-11769000D02*
X11466000Y-11799000D01*
X11531000Y-11215000D02*
X11561000Y-11245000D01*
X11561000Y-11215000D02*
X11531000Y-11245000D01*
X11651000Y-11580000D02*
X11681000Y-11610000D01*
X11681000Y-11580000D02*
X11651000Y-11610000D01*
X11689000Y-10683000D02*
X11719000Y-10713000D01*
X11719000Y-10683000D02*
X11689000Y-10713000D01*
X11724000Y-11460000D02*
X11754000Y-11490000D01*
X11754000Y-11460000D02*
X11724000Y-11490000D01*
X11730000Y-11651000D02*
X11760000Y-11681000D01*
X11760000Y-11651000D02*
X11730000Y-11681000D01*
X11760000Y-11521000D02*
X11790000Y-11551000D01*
X11790000Y-11521000D02*
X11760000Y-11551000D01*
X11765000Y-10683000D02*
X11795000Y-10713000D01*
X11795000Y-10683000D02*
X11765000Y-10713000D01*
X11841000Y-10683000D02*
X11871000Y-10713000D01*
X11871000Y-10683000D02*
X11841000Y-10713000D01*
X11859000Y-11783000D02*
X11889000Y-11813000D01*
X11889000Y-11783000D02*
X11859000Y-11813000D01*
X11917000Y-10683000D02*
X11947000Y-10713000D01*
X11947000Y-10683000D02*
X11917000Y-10713000D01*
X12006000Y-11917000D02*
X12036000Y-11947000D01*
X12036000Y-11917000D02*
X12006000Y-11947000D01*
X12050000Y-8240000D02*
X12080000Y-8270000D01*
X12080000Y-8240000D02*
X12050000Y-8270000D01*
X12050000Y-8875000D02*
X12080000Y-8905000D01*
X12080000Y-8875000D02*
X12050000Y-8905000D01*
X12050000Y-12050000D02*
X12080000Y-12080000D01*
X12080000Y-12050000D02*
X12050000Y-12080000D01*
X12101000Y-10819000D02*
X12131000Y-10849000D01*
X12131000Y-10819000D02*
X12101000Y-10849000D01*
X12229000Y-10958000D02*
X12259000Y-10988000D01*
X12259000Y-10958000D02*
X12229000Y-10988000D01*
X12302000Y-12008000D02*
X12332000Y-12038000D01*
X12332000Y-12008000D02*
X12302000Y-12038000D01*
X12488000Y-11120000D02*
X12518000Y-11150000D01*
X12518000Y-11120000D02*
X12488000Y-11150000D01*
X12558000Y-11294000D02*
X12588000Y-11324000D01*
X12588000Y-11294000D02*
X12558000Y-11324000D01*
X12643000Y-11121000D02*
X12673000Y-11151000D01*
X12673000Y-11121000D02*
X12643000Y-11151000D01*
X12675000Y-10672000D02*
X12705000Y-10702000D01*
X12705000Y-10672000D02*
X12675000Y-10702000D01*
X12685000Y-9510000D02*
X12715000Y-9540000D01*
X12715000Y-9510000D02*
X12685000Y-9540000D01*
X12692000Y-11351000D02*
X12722000Y-11381000D01*
X12722000Y-11351000D02*
X12692000Y-11381000D01*
X12710000Y-11026000D02*
X12740000Y-11056000D01*
X12740000Y-11026000D02*
X12710000Y-11056000D01*
X12775000Y-10931000D02*
X12805000Y-10961000D01*
X12805000Y-10931000D02*
X12775000Y-10961000D01*
X12866000Y-10858000D02*
X12896000Y-10888000D01*
X12896000Y-10858000D02*
X12866000Y-10888000D01*
X12891000Y-11653000D02*
X12921000Y-11683000D01*
X12921000Y-11653000D02*
X12891000Y-11683000D01*
X12980333Y-10858000D02*
X13010333Y-10888000D01*
X13010333Y-10858000D02*
X12980333Y-10888000D01*
X13020000Y-11561000D02*
X13050000Y-11591000D01*
X13050000Y-11561000D02*
X13020000Y-11591000D01*
X13073000Y-7456000D02*
X13103000Y-7486000D01*
X13103000Y-7456000D02*
X13073000Y-7486000D01*
X13094667Y-10858000D02*
X13124667Y-10888000D01*
X13124667Y-10858000D02*
X13094667Y-10888000D01*
X13114500Y-11561000D02*
X13144500Y-11591000D01*
X13144500Y-11561000D02*
X13114500Y-11591000D01*
X13205000Y-10877000D02*
X13235000Y-10907000D01*
X13235000Y-10877000D02*
X13205000Y-10907000D01*
X13209000Y-10959286D02*
X13239000Y-10989286D01*
X13239000Y-10959286D02*
X13209000Y-10989286D01*
X13209000Y-11059571D02*
X13239000Y-11089571D01*
X13239000Y-11059571D02*
X13209000Y-11089571D01*
X13209000Y-11159857D02*
X13239000Y-11189857D01*
X13239000Y-11159857D02*
X13209000Y-11189857D01*
X13209000Y-11260143D02*
X13239000Y-11290143D01*
X13239000Y-11260143D02*
X13209000Y-11290143D01*
X13209000Y-11360428D02*
X13239000Y-11390428D01*
X13239000Y-11360428D02*
X13209000Y-11390428D01*
X13209000Y-11460714D02*
X13239000Y-11490714D01*
X13239000Y-11460714D02*
X13209000Y-11490714D01*
X13209000Y-11561000D02*
X13239000Y-11591000D01*
X13239000Y-11561000D02*
X13209000Y-11591000D01*
X13242000Y-7453000D02*
X13272000Y-7483000D01*
X13272000Y-7453000D02*
X13242000Y-7483000D01*
X13242000Y-8818000D02*
X13272000Y-8848000D01*
X13272000Y-8818000D02*
X13242000Y-8848000D01*
X13249000Y-8551000D02*
X13279000Y-8581000D01*
X13279000Y-8551000D02*
X13249000Y-8581000D01*
X13249000Y-8661000D02*
X13279000Y-8691000D01*
X13279000Y-8661000D02*
X13249000Y-8691000D01*
X13294250Y-10685750D02*
X13324250Y-10715750D01*
X13324250Y-10685750D02*
X13294250Y-10715750D01*
X13295000Y-10489000D02*
X13325000Y-10519000D01*
X13325000Y-10489000D02*
X13295000Y-10519000D01*
X13320000Y-7605000D02*
X13350000Y-7635000D01*
X13350000Y-7605000D02*
X13320000Y-7635000D01*
X13320000Y-12050000D02*
X13350000Y-12080000D01*
X13350000Y-12050000D02*
X13320000Y-12080000D01*
X13481000Y-11779000D02*
X13511000Y-11809000D01*
X13511000Y-11779000D02*
X13481000Y-11809000D01*
X13701000Y-9637000D02*
X13731000Y-9667000D01*
X13731000Y-9637000D02*
X13701000Y-9667000D01*
X13701000Y-9891000D02*
X13731000Y-9921000D01*
X13731000Y-9891000D02*
X13701000Y-9921000D01*
X13783000Y-10882000D02*
X13813000Y-10912000D01*
X13813000Y-10882000D02*
X13783000Y-10912000D01*
X13794000Y-11180000D02*
X13824000Y-11210000D01*
X13824000Y-11180000D02*
X13794000Y-11210000D01*
X13829000Y-11779000D02*
X13859000Y-11809000D01*
X13859000Y-11779000D02*
X13829000Y-11809000D01*
X13955000Y-8367000D02*
X13985000Y-8397000D01*
X13985000Y-8367000D02*
X13955000Y-8397000D01*
X13955000Y-9510000D02*
X13985000Y-9540000D01*
X13985000Y-9510000D02*
X13955000Y-9540000D01*
X14131000Y-10879000D02*
X14161000Y-10909000D01*
X14161000Y-10879000D02*
X14131000Y-10909000D01*
X14146000Y-11179000D02*
X14176000Y-11209000D01*
X14176000Y-11179000D02*
X14146000Y-11209000D01*
X14209000Y-8367000D02*
X14239000Y-8397000D01*
X14239000Y-8367000D02*
X14209000Y-8397000D01*
X14230000Y-7422000D02*
X14260000Y-7452000D01*
X14260000Y-7422000D02*
X14230000Y-7452000D01*
X14261000Y-8203000D02*
X14291000Y-8233000D01*
X14291000Y-8203000D02*
X14261000Y-8233000D01*
X14345000Y-8201000D02*
X14375000Y-8231000D01*
X14375000Y-8201000D02*
X14345000Y-8231000D01*
X14558000Y-8010000D02*
X14588000Y-8040000D01*
X14588000Y-8010000D02*
X14558000Y-8040000D01*
X14590000Y-8240000D02*
X14620000Y-8270000D01*
X14620000Y-8240000D02*
X14590000Y-8270000D01*
X14590000Y-9510000D02*
X14620000Y-9540000D01*
X14620000Y-9510000D02*
X14590000Y-9540000D01*
X14717000Y-8367000D02*
X14747000Y-8397000D01*
X14747000Y-8367000D02*
X14717000Y-8397000D01*
X14717000Y-8621000D02*
X14747000Y-8651000D01*
X14747000Y-8621000D02*
X14717000Y-8651000D01*
X14717000Y-8875000D02*
X14747000Y-8905000D01*
X14747000Y-8875000D02*
X14717000Y-8905000D01*
X14717000Y-11161000D02*
X14747000Y-11191000D01*
X14747000Y-11161000D02*
X14717000Y-11191000D01*
X14717000Y-11669000D02*
X14747000Y-11699000D01*
X14747000Y-11669000D02*
X14717000Y-11699000D01*
X14726045Y-10127692D02*
X14756045Y-10157692D01*
X14756045Y-10127692D02*
X14726045Y-10157692D01*
X14783000Y-9976000D02*
X14813000Y-10006000D01*
X14813000Y-9976000D02*
X14783000Y-10006000D01*
X14793000Y-10281000D02*
X14823000Y-10311000D01*
X14823000Y-10281000D02*
X14793000Y-10311000D01*
X14793000Y-10346000D02*
X14823000Y-10376000D01*
X14823000Y-10346000D02*
X14793000Y-10376000D01*
X14793000Y-10411000D02*
X14823000Y-10441000D01*
X14823000Y-10411000D02*
X14793000Y-10441000D01*
X14793000Y-10476000D02*
X14823000Y-10506000D01*
X14823000Y-10476000D02*
X14793000Y-10506000D01*
X14845000Y-9976000D02*
X14875000Y-10006000D01*
X14875000Y-9976000D02*
X14845000Y-10006000D01*
X14846000Y-10713000D02*
X14876000Y-10743000D01*
X14876000Y-10713000D02*
X14846000Y-10743000D01*
X14907000Y-9976000D02*
X14937000Y-10006000D01*
X14937000Y-9976000D02*
X14907000Y-10006000D01*
X14969000Y-9976000D02*
X14999000Y-10006000D01*
X14999000Y-9976000D02*
X14969000Y-10006000D01*
X14971000Y-8367000D02*
X15001000Y-8397000D01*
X15001000Y-8367000D02*
X14971000Y-8397000D01*
X14971000Y-8621000D02*
X15001000Y-8651000D01*
X15001000Y-8621000D02*
X14971000Y-8651000D01*
X14971000Y-8875000D02*
X15001000Y-8905000D01*
X15001000Y-8875000D02*
X14971000Y-8905000D01*
X15054500Y-11113000D02*
X15084500Y-11143000D01*
X15084500Y-11113000D02*
X15054500Y-11143000D01*
X15198000Y-9523000D02*
X15228000Y-9553000D01*
X15228000Y-9523000D02*
X15198000Y-9553000D01*
X15225000Y-8367000D02*
X15255000Y-8397000D01*
X15255000Y-8367000D02*
X15225000Y-8397000D01*
X15225000Y-8621000D02*
X15255000Y-8651000D01*
X15255000Y-8621000D02*
X15225000Y-8651000D01*
X15225000Y-8875000D02*
X15255000Y-8905000D01*
X15255000Y-8875000D02*
X15225000Y-8905000D01*
X15225000Y-10780000D02*
X15255000Y-10810000D01*
X15255000Y-10780000D02*
X15225000Y-10810000D01*
X15327667Y-9523000D02*
X15357667Y-9553000D01*
X15357667Y-9523000D02*
X15327667Y-9553000D01*
X15337000Y-7577000D02*
X15367000Y-7607000D01*
X15367000Y-7577000D02*
X15337000Y-7607000D01*
X15457333Y-9523000D02*
X15487333Y-9553000D01*
X15487333Y-9523000D02*
X15457333Y-9553000D01*
X15479000Y-8621000D02*
X15509000Y-8651000D01*
X15509000Y-8621000D02*
X15479000Y-8651000D01*
X15479000Y-8875000D02*
X15509000Y-8905000D01*
X15509000Y-8875000D02*
X15479000Y-8905000D01*
X15506000Y-11073000D02*
X15536000Y-11103000D01*
X15536000Y-11073000D02*
X15506000Y-11103000D01*
X15529800Y-8189200D02*
X15559800Y-8219200D01*
X15559800Y-8189200D02*
X15529800Y-8219200D01*
X15533000Y-8316000D02*
X15563000Y-8346000D01*
X15563000Y-8316000D02*
X15533000Y-8346000D01*
X15587000Y-9523000D02*
X15617000Y-9553000D01*
X15617000Y-9523000D02*
X15587000Y-9553000D01*
X15619000Y-7592050D02*
X15649000Y-7622050D01*
X15649000Y-7592050D02*
X15619000Y-7622050D01*
X15696700Y-7618965D02*
X15726700Y-7648965D01*
X15726700Y-7618965D02*
X15696700Y-7648965D01*
X15700171Y-7688829D02*
X15730171Y-7718829D01*
X15730171Y-7688829D02*
X15700171Y-7718829D01*
X15751000Y-7573000D02*
X15781000Y-7603000D01*
X15781000Y-7573000D02*
X15751000Y-7603000D01*
X15752000Y-10867250D02*
X15782000Y-10897250D01*
X15782000Y-10867250D02*
X15752000Y-10897250D01*
X15752000Y-10969250D02*
X15782000Y-10999250D01*
X15782000Y-10969250D02*
X15752000Y-10999250D01*
X15752000Y-11070250D02*
X15782000Y-11100250D01*
X15782000Y-11070250D02*
X15752000Y-11100250D01*
X15829000Y-10866250D02*
X15859000Y-10896250D01*
X15859000Y-10866250D02*
X15829000Y-10896250D01*
X15829000Y-10968250D02*
X15859000Y-10998250D01*
X15859000Y-10968250D02*
X15829000Y-10998250D01*
X15829000Y-11069250D02*
X15859000Y-11099250D01*
X15859000Y-11069250D02*
X15829000Y-11099250D01*
X15900950Y-7642741D02*
X15930950Y-7672741D01*
X15930950Y-7642741D02*
X15900950Y-7672741D01*
X15909000Y-7563000D02*
X15939000Y-7593000D01*
X15939000Y-7563000D02*
X15909000Y-7593000D01*
X15950550Y-7700000D02*
X15980550Y-7730000D01*
X15980550Y-7700000D02*
X15950550Y-7730000D01*
X16053000Y-10492000D02*
X16083000Y-10522000D01*
X16083000Y-10492000D02*
X16053000Y-10522000D01*
X16183000Y-7849000D02*
X16213000Y-7879000D01*
X16213000Y-7849000D02*
X16183000Y-7879000D01*
X16188000Y-8114000D02*
X16218000Y-8144000D01*
X16218000Y-8114000D02*
X16188000Y-8144000D01*
X16279000Y-10611000D02*
X16309000Y-10641000D01*
X16309000Y-10611000D02*
X16279000Y-10641000D01*
X16280000Y-10674000D02*
X16310000Y-10704000D01*
X16310000Y-10674000D02*
X16280000Y-10704000D01*
X16354500Y-10611000D02*
X16384500Y-10641000D01*
X16384500Y-10611000D02*
X16354500Y-10641000D01*
X16355500Y-10674000D02*
X16385500Y-10704000D01*
X16385500Y-10674000D02*
X16355500Y-10704000D01*
X16430000Y-10611000D02*
X16460000Y-10641000D01*
X16460000Y-10611000D02*
X16430000Y-10641000D01*
X16431000Y-10674000D02*
X16461000Y-10704000D01*
X16461000Y-10674000D02*
X16431000Y-10704000D01*
D13*
X13847000Y-10492000D02*
G75*
G03*
X13847000Y-10492000I-20000J0D01*
G01*
X13847000Y-10597000D02*
G75*
G03*
X13847000Y-10597000I-20000J0D01*
G01*
X14064000Y-11926000D02*
G75*
G03*
X14064000Y-11926000I-20000J0D01*
G01*
X14221896Y-11439104D02*
G75*
G03*
X14221896Y-11439104I-20000J0D01*
G01*
X14342104Y-11318896D02*
G75*
G03*
X14342104Y-11318896I-20000J0D01*
G01*
X14548000Y-12022000D02*
G75*
G03*
X14548000Y-12022000I-20000J0D01*
G01*
D14*
X15994000Y-9333500D02*
X15994000Y-9428500D01*
X15946500Y-9381000D02*
X16041500Y-9381000D01*
X15994000Y-9583500D02*
X15994000Y-9678500D01*
X15946500Y-9631000D02*
X16041500Y-9631000D01*
X15994000Y-9783500D02*
X15994000Y-9878500D01*
X15946500Y-9831000D02*
X16041500Y-9831000D01*
X15994000Y-10033500D02*
X15994000Y-10128500D01*
X15946500Y-10081000D02*
X16041500Y-10081000D01*
D10*
X10371356Y-11039356D02*
X10371356Y-10968644D01*
X10300644Y-10968644D01*
X10300644Y-11039356D01*
X10371356Y-11039356D01*
D11*
X10411000Y-10954000D02*
X10261000Y-10954000D01*
X10261000Y-10954000D02*
G75*
G03*
X10261000Y-11054000I0J-50000D01*
G01*
X10261000Y-11054000D02*
X10411000Y-11054000D01*
X10411000Y-11054000D02*
G75*
G03*
X10411000Y-10954000I0J50000D01*
G01*
D10*
X10891356Y-6896356D02*
X10891356Y-6825644D01*
X10820644Y-6825644D01*
X10820644Y-6896356D01*
X10891356Y-6896356D01*
X10891356Y-7150356D02*
X10891356Y-7079644D01*
X10820644Y-7079644D01*
X10820644Y-7150356D01*
X10891356Y-7150356D01*
X11145356Y-6896356D02*
X11145356Y-6825644D01*
X11074644Y-6825644D01*
X11074644Y-6896356D01*
X11145356Y-6896356D01*
X11145356Y-7150356D02*
X11145356Y-7079644D01*
X11074644Y-7079644D01*
X11074644Y-7150356D01*
X11145356Y-7150356D01*
X11399356Y-6896356D02*
X11399356Y-6825644D01*
X11328644Y-6825644D01*
X11328644Y-6896356D01*
X11399356Y-6896356D01*
X11399356Y-7150356D02*
X11399356Y-7079644D01*
X11328644Y-7079644D01*
X11328644Y-7150356D01*
X11399356Y-7150356D01*
X11653356Y-6896356D02*
X11653356Y-6825644D01*
X11582644Y-6825644D01*
X11582644Y-6896356D01*
X11653356Y-6896356D01*
X11653356Y-7150356D02*
X11653356Y-7079644D01*
X11582644Y-7079644D01*
X11582644Y-7150356D01*
X11653356Y-7150356D01*
X11907356Y-6896356D02*
X11907356Y-6825644D01*
X11836644Y-6825644D01*
X11836644Y-6896356D01*
X11907356Y-6896356D01*
X11907356Y-7150356D02*
X11907356Y-7079644D01*
X11836644Y-7079644D01*
X11836644Y-7150356D01*
X11907356Y-7150356D01*
X12161356Y-6896356D02*
X12161356Y-6825644D01*
X12090644Y-6825644D01*
X12090644Y-6896356D01*
X12161356Y-6896356D01*
X12161356Y-7150356D02*
X12161356Y-7079644D01*
X12090644Y-7079644D01*
X12090644Y-7150356D01*
X12161356Y-7150356D01*
X12415356Y-6896356D02*
X12415356Y-6825644D01*
X12344644Y-6825644D01*
X12344644Y-6896356D01*
X12415356Y-6896356D01*
X12415356Y-7150356D02*
X12415356Y-7079644D01*
X12344644Y-7079644D01*
X12344644Y-7150356D01*
X12415356Y-7150356D01*
X12669356Y-6896356D02*
X12669356Y-6825644D01*
X12598644Y-6825644D01*
X12598644Y-6896356D01*
X12669356Y-6896356D01*
X12669356Y-7150356D02*
X12669356Y-7079644D01*
X12598644Y-7079644D01*
X12598644Y-7150356D01*
X12669356Y-7150356D01*
X12923356Y-6896356D02*
X12923356Y-6825644D01*
X12852644Y-6825644D01*
X12852644Y-6896356D01*
X12923356Y-6896356D01*
X12923356Y-7150356D02*
X12923356Y-7079644D01*
X12852644Y-7079644D01*
X12852644Y-7150356D01*
X12923356Y-7150356D01*
X13177356Y-6896356D02*
X13177356Y-6825644D01*
X13106644Y-6825644D01*
X13106644Y-6896356D01*
X13177356Y-6896356D01*
X13177356Y-7150356D02*
X13177356Y-7079644D01*
X13106644Y-7079644D01*
X13106644Y-7150356D01*
X13177356Y-7150356D01*
X13431356Y-6896356D02*
X13431356Y-6825644D01*
X13360644Y-6825644D01*
X13360644Y-6896356D01*
X13431356Y-6896356D01*
X13431356Y-7150356D02*
X13431356Y-7079644D01*
X13360644Y-7079644D01*
X13360644Y-7150356D01*
X13431356Y-7150356D01*
X13685356Y-6896356D02*
X13685356Y-6825644D01*
X13614644Y-6825644D01*
X13614644Y-6896356D01*
X13685356Y-6896356D01*
X13685356Y-7150356D02*
X13685356Y-7079644D01*
X13614644Y-7079644D01*
X13614644Y-7150356D01*
X13685356Y-7150356D01*
X13939356Y-6896356D02*
X13939356Y-6825644D01*
X13868644Y-6825644D01*
X13868644Y-6896356D01*
X13939356Y-6896356D01*
X13939356Y-7150356D02*
X13939356Y-7079644D01*
X13868644Y-7079644D01*
X13868644Y-7150356D01*
X13939356Y-7150356D01*
X14193356Y-6896356D02*
X14193356Y-6825644D01*
X14122644Y-6825644D01*
X14122644Y-6896356D01*
X14193356Y-6896356D01*
X14193356Y-7150356D02*
X14193356Y-7079644D01*
X14122644Y-7079644D01*
X14122644Y-7150356D01*
X14193356Y-7150356D01*
X14447356Y-6896356D02*
X14447356Y-6825644D01*
X14376644Y-6825644D01*
X14376644Y-6896356D01*
X14447356Y-6896356D01*
X14447356Y-7150356D02*
X14447356Y-7079644D01*
X14376644Y-7079644D01*
X14376644Y-7150356D01*
X14447356Y-7150356D01*
X14701356Y-6896356D02*
X14701356Y-6825644D01*
X14630644Y-6825644D01*
X14630644Y-6896356D01*
X14701356Y-6896356D01*
X14701356Y-7150356D02*
X14701356Y-7079644D01*
X14630644Y-7079644D01*
X14630644Y-7150356D01*
X14701356Y-7150356D01*
X14955356Y-6896356D02*
X14955356Y-6825644D01*
X14884644Y-6825644D01*
X14884644Y-6896356D01*
X14955356Y-6896356D01*
X14955356Y-7150356D02*
X14955356Y-7079644D01*
X14884644Y-7079644D01*
X14884644Y-7150356D01*
X14955356Y-7150356D01*
X15209356Y-6896356D02*
X15209356Y-6825644D01*
X15138644Y-6825644D01*
X15138644Y-6896356D01*
X15209356Y-6896356D01*
X15209356Y-7150356D02*
X15209356Y-7079644D01*
X15138644Y-7079644D01*
X15138644Y-7150356D01*
X15209356Y-7150356D01*
X15463356Y-6896356D02*
X15463356Y-6825644D01*
X15392644Y-6825644D01*
X15392644Y-6896356D01*
X15463356Y-6896356D01*
X15463356Y-7150356D02*
X15463356Y-7079644D01*
X15392644Y-7079644D01*
X15392644Y-7150356D01*
X15463356Y-7150356D01*
X15717356Y-6896356D02*
X15717356Y-6825644D01*
X15646644Y-6825644D01*
X15646644Y-6896356D01*
X15717356Y-6896356D01*
X15717356Y-7150356D02*
X15717356Y-7079644D01*
X15646644Y-7079644D01*
X15646644Y-7150356D01*
X15717356Y-7150356D01*
D15*
X15335000Y-11375000D02*
X15390000Y-11320000D01*
X15335000Y-11265000D01*
X15280000Y-11320000D01*
X15335000Y-11375000D01*
D11*
X15440000Y-11265000D02*
X15230000Y-11265000D01*
X15230000Y-11265000D02*
G75*
G03*
X15230000Y-11375000I0J-55000D01*
G01*
X15230000Y-11375000D02*
X15440000Y-11375000D01*
X15440000Y-11375000D02*
G75*
G03*
X15440000Y-11265000I0J55000D01*
G01*
D15*
X15335000Y-12005000D02*
X15390000Y-11950000D01*
X15335000Y-11895000D01*
X15280000Y-11950000D01*
X15335000Y-12005000D01*
D11*
X15440000Y-11895000D02*
X15230000Y-11895000D01*
X15230000Y-11895000D02*
G75*
G03*
X15230000Y-12005000I0J-55000D01*
G01*
X15230000Y-12005000D02*
X15440000Y-12005000D01*
X15440000Y-12005000D02*
G75*
G03*
X15440000Y-11895000I0J55000D01*
G01*
D16*
X11597000Y-10861000D02*
X11717000Y-10981000D01*
X11717000Y-10861000D02*
X11597000Y-10981000D01*
X11717000Y-10921000D02*
G75*
G03*
X11717000Y-10921000I-60000J0D01*
G01*
X13172000Y-9666000D02*
X13292000Y-9786000D01*
X13292000Y-9666000D02*
X13172000Y-9786000D01*
X13292000Y-9726000D02*
G75*
G03*
X13292000Y-9726000I-60000J0D01*
G01*
X13172000Y-10029000D02*
X13292000Y-10149000D01*
X13292000Y-10029000D02*
X13172000Y-10149000D01*
X13292000Y-10089000D02*
G75*
G03*
X13292000Y-10089000I-60000J0D01*
G01*
D17*
X11141000Y-10939000D02*
X11271000Y-11069000D01*
X11271000Y-10939000D02*
X11141000Y-11069000D01*
X11206000Y-10939000D02*
X11206000Y-11069000D01*
X11141000Y-11004000D02*
X11271000Y-11004000D01*
D11*
X11271000Y-11064000D02*
X11271000Y-10944000D01*
X11271000Y-10944000D02*
G75*
G03*
X11141000Y-10944000I-65000J0D01*
G01*
X11141000Y-10944000D02*
X11141000Y-11064000D01*
X11141000Y-11064000D02*
G75*
G03*
X11271000Y-11064000I65000J0D01*
G01*
D18*
X16150000Y-8959000D02*
X16380000Y-9189000D01*
X16380000Y-8959000D02*
X16150000Y-9189000D01*
X16346318Y-9155318D02*
X16346318Y-8992682D01*
X16183682Y-8992682D01*
X16183682Y-9155318D01*
X16346318Y-9155318D01*
X16150000Y-10273000D02*
X16380000Y-10503000D01*
X16380000Y-10273000D02*
X16150000Y-10503000D01*
X16346318Y-10469318D02*
X16346318Y-10306682D01*
X16183682Y-10306682D01*
X16183682Y-10469318D01*
X16346318Y-10469318D01*
D11*
X10274777Y-12854484D02*
X10274777Y-12654484D01*
X10274777Y-12654484D02*
X10322396Y-12654484D01*
X10322396Y-12654484D02*
X10350967Y-12664008D01*
X10350967Y-12664008D02*
X10370015Y-12683055D01*
X10370015Y-12683055D02*
X10379539Y-12702103D01*
X10379539Y-12702103D02*
X10389063Y-12740198D01*
X10389063Y-12740198D02*
X10389063Y-12768769D01*
X10389063Y-12768769D02*
X10379539Y-12806865D01*
X10379539Y-12806865D02*
X10370015Y-12825912D01*
X10370015Y-12825912D02*
X10350967Y-12844960D01*
X10350967Y-12844960D02*
X10322396Y-12854484D01*
X10322396Y-12854484D02*
X10274777Y-12854484D01*
X10474777Y-12854484D02*
X10474777Y-12721150D01*
X10474777Y-12759246D02*
X10484301Y-12740198D01*
X10484301Y-12740198D02*
X10493824Y-12730674D01*
X10493824Y-12730674D02*
X10512872Y-12721150D01*
X10512872Y-12721150D02*
X10531920Y-12721150D01*
X10598586Y-12854484D02*
X10598586Y-12721150D01*
X10598586Y-12654484D02*
X10589063Y-12664008D01*
X10589063Y-12664008D02*
X10598586Y-12673531D01*
X10598586Y-12673531D02*
X10608110Y-12664008D01*
X10608110Y-12664008D02*
X10598586Y-12654484D01*
X10598586Y-12654484D02*
X10598586Y-12673531D01*
X10722396Y-12854484D02*
X10703348Y-12844960D01*
X10703348Y-12844960D02*
X10693824Y-12825912D01*
X10693824Y-12825912D02*
X10693824Y-12654484D01*
X10827158Y-12854484D02*
X10808110Y-12844960D01*
X10808110Y-12844960D02*
X10798586Y-12825912D01*
X10798586Y-12825912D02*
X10798586Y-12654484D01*
X11055729Y-12854484D02*
X11055729Y-12654484D01*
X11055729Y-12654484D02*
X11122396Y-12797341D01*
X11122396Y-12797341D02*
X11189062Y-12654484D01*
X11189062Y-12654484D02*
X11189062Y-12854484D01*
X11370015Y-12854484D02*
X11370015Y-12749722D01*
X11370015Y-12749722D02*
X11360491Y-12730674D01*
X11360491Y-12730674D02*
X11341443Y-12721150D01*
X11341443Y-12721150D02*
X11303348Y-12721150D01*
X11303348Y-12721150D02*
X11284301Y-12730674D01*
X11370015Y-12844960D02*
X11350967Y-12854484D01*
X11350967Y-12854484D02*
X11303348Y-12854484D01*
X11303348Y-12854484D02*
X11284301Y-12844960D01*
X11284301Y-12844960D02*
X11274777Y-12825912D01*
X11274777Y-12825912D02*
X11274777Y-12806865D01*
X11274777Y-12806865D02*
X11284301Y-12787817D01*
X11284301Y-12787817D02*
X11303348Y-12778293D01*
X11303348Y-12778293D02*
X11350967Y-12778293D01*
X11350967Y-12778293D02*
X11370015Y-12768769D01*
X11465253Y-12721150D02*
X11465253Y-12921150D01*
X11465253Y-12730674D02*
X11484301Y-12721150D01*
X11484301Y-12721150D02*
X11522396Y-12721150D01*
X11522396Y-12721150D02*
X11541443Y-12730674D01*
X11541443Y-12730674D02*
X11550967Y-12740198D01*
X11550967Y-12740198D02*
X11560491Y-12759246D01*
X11560491Y-12759246D02*
X11560491Y-12816388D01*
X11560491Y-12816388D02*
X11550967Y-12835436D01*
X11550967Y-12835436D02*
X11541443Y-12844960D01*
X11541443Y-12844960D02*
X11522396Y-12854484D01*
X11522396Y-12854484D02*
X11484301Y-12854484D01*
X11484301Y-12854484D02*
X11465253Y-12844960D01*
X11646205Y-12835436D02*
X11655729Y-12844960D01*
X11655729Y-12844960D02*
X11646205Y-12854484D01*
X11646205Y-12854484D02*
X11636682Y-12844960D01*
X11636682Y-12844960D02*
X11646205Y-12835436D01*
X11646205Y-12835436D02*
X11646205Y-12854484D01*
X11646205Y-12730674D02*
X11655729Y-12740198D01*
X11655729Y-12740198D02*
X11646205Y-12749722D01*
X11646205Y-12749722D02*
X11636682Y-12740198D01*
X11636682Y-12740198D02*
X11646205Y-12730674D01*
X11646205Y-12730674D02*
X11646205Y-12749722D01*
D12*
X9984000Y-13168000D02*
X10014000Y-13198000D01*
X10014000Y-13168000D02*
X9984000Y-13198000D01*
D11*
X10312872Y-13074484D02*
X10331920Y-13074484D01*
X10331920Y-13074484D02*
X10350967Y-13084008D01*
X10350967Y-13084008D02*
X10360491Y-13093531D01*
X10360491Y-13093531D02*
X10370015Y-13112579D01*
X10370015Y-13112579D02*
X10379539Y-13150674D01*
X10379539Y-13150674D02*
X10379539Y-13198293D01*
X10379539Y-13198293D02*
X10370015Y-13236388D01*
X10370015Y-13236388D02*
X10360491Y-13255436D01*
X10360491Y-13255436D02*
X10350967Y-13264960D01*
X10350967Y-13264960D02*
X10331920Y-13274484D01*
X10331920Y-13274484D02*
X10312872Y-13274484D01*
X10312872Y-13274484D02*
X10293824Y-13264960D01*
X10293824Y-13264960D02*
X10284301Y-13255436D01*
X10284301Y-13255436D02*
X10274777Y-13236388D01*
X10274777Y-13236388D02*
X10265253Y-13198293D01*
X10265253Y-13198293D02*
X10265253Y-13150674D01*
X10265253Y-13150674D02*
X10274777Y-13112579D01*
X10274777Y-13112579D02*
X10284301Y-13093531D01*
X10284301Y-13093531D02*
X10293824Y-13084008D01*
X10293824Y-13084008D02*
X10312872Y-13074484D01*
X10465253Y-13255436D02*
X10474777Y-13264960D01*
X10474777Y-13264960D02*
X10465253Y-13274484D01*
X10465253Y-13274484D02*
X10455729Y-13264960D01*
X10455729Y-13264960D02*
X10465253Y-13255436D01*
X10465253Y-13255436D02*
X10465253Y-13274484D01*
X10541444Y-13074484D02*
X10665253Y-13074484D01*
X10665253Y-13074484D02*
X10598586Y-13150674D01*
X10598586Y-13150674D02*
X10627158Y-13150674D01*
X10627158Y-13150674D02*
X10646205Y-13160198D01*
X10646205Y-13160198D02*
X10655729Y-13169722D01*
X10655729Y-13169722D02*
X10665253Y-13188769D01*
X10665253Y-13188769D02*
X10665253Y-13236388D01*
X10665253Y-13236388D02*
X10655729Y-13255436D01*
X10655729Y-13255436D02*
X10646205Y-13264960D01*
X10646205Y-13264960D02*
X10627158Y-13274484D01*
X10627158Y-13274484D02*
X10570015Y-13274484D01*
X10570015Y-13274484D02*
X10550967Y-13264960D01*
X10550967Y-13264960D02*
X10541444Y-13255436D01*
X10789063Y-13074484D02*
X10808110Y-13074484D01*
X10808110Y-13074484D02*
X10827158Y-13084008D01*
X10827158Y-13084008D02*
X10836682Y-13093531D01*
X10836682Y-13093531D02*
X10846205Y-13112579D01*
X10846205Y-13112579D02*
X10855729Y-13150674D01*
X10855729Y-13150674D02*
X10855729Y-13198293D01*
X10855729Y-13198293D02*
X10846205Y-13236388D01*
X10846205Y-13236388D02*
X10836682Y-13255436D01*
X10836682Y-13255436D02*
X10827158Y-13264960D01*
X10827158Y-13264960D02*
X10808110Y-13274484D01*
X10808110Y-13274484D02*
X10789063Y-13274484D01*
X10789063Y-13274484D02*
X10770015Y-13264960D01*
X10770015Y-13264960D02*
X10760491Y-13255436D01*
X10760491Y-13255436D02*
X10750967Y-13236388D01*
X10750967Y-13236388D02*
X10741444Y-13198293D01*
X10741444Y-13198293D02*
X10741444Y-13150674D01*
X10741444Y-13150674D02*
X10750967Y-13112579D01*
X10750967Y-13112579D02*
X10760491Y-13093531D01*
X10760491Y-13093531D02*
X10770015Y-13084008D01*
X10770015Y-13084008D02*
X10789063Y-13074484D01*
X10979539Y-13074484D02*
X10998586Y-13074484D01*
X10998586Y-13074484D02*
X11017634Y-13084008D01*
X11017634Y-13084008D02*
X11027158Y-13093531D01*
X11027158Y-13093531D02*
X11036682Y-13112579D01*
X11036682Y-13112579D02*
X11046205Y-13150674D01*
X11046205Y-13150674D02*
X11046205Y-13198293D01*
X11046205Y-13198293D02*
X11036682Y-13236388D01*
X11036682Y-13236388D02*
X11027158Y-13255436D01*
X11027158Y-13255436D02*
X11017634Y-13264960D01*
X11017634Y-13264960D02*
X10998586Y-13274484D01*
X10998586Y-13274484D02*
X10979539Y-13274484D01*
X10979539Y-13274484D02*
X10960491Y-13264960D01*
X10960491Y-13264960D02*
X10950967Y-13255436D01*
X10950967Y-13255436D02*
X10941444Y-13236388D01*
X10941444Y-13236388D02*
X10931920Y-13198293D01*
X10931920Y-13198293D02*
X10931920Y-13150674D01*
X10931920Y-13150674D02*
X10941444Y-13112579D01*
X10941444Y-13112579D02*
X10950967Y-13093531D01*
X10950967Y-13093531D02*
X10960491Y-13084008D01*
X10960491Y-13084008D02*
X10979539Y-13074484D01*
X11131920Y-13274484D02*
X11131920Y-13141150D01*
X11131920Y-13160198D02*
X11141444Y-13150674D01*
X11141444Y-13150674D02*
X11160491Y-13141150D01*
X11160491Y-13141150D02*
X11189063Y-13141150D01*
X11189063Y-13141150D02*
X11208110Y-13150674D01*
X11208110Y-13150674D02*
X11217634Y-13169722D01*
X11217634Y-13169722D02*
X11217634Y-13274484D01*
X11217634Y-13169722D02*
X11227158Y-13150674D01*
X11227158Y-13150674D02*
X11246205Y-13141150D01*
X11246205Y-13141150D02*
X11274777Y-13141150D01*
X11274777Y-13141150D02*
X11293824Y-13150674D01*
X11293824Y-13150674D02*
X11303348Y-13169722D01*
X11303348Y-13169722D02*
X11303348Y-13274484D01*
X11398586Y-13274484D02*
X11398586Y-13141150D01*
X11398586Y-13160198D02*
X11408110Y-13150674D01*
X11408110Y-13150674D02*
X11427158Y-13141150D01*
X11427158Y-13141150D02*
X11455729Y-13141150D01*
X11455729Y-13141150D02*
X11474777Y-13150674D01*
X11474777Y-13150674D02*
X11484301Y-13169722D01*
X11484301Y-13169722D02*
X11484301Y-13274484D01*
X11484301Y-13169722D02*
X11493824Y-13150674D01*
X11493824Y-13150674D02*
X11512872Y-13141150D01*
X11512872Y-13141150D02*
X11541443Y-13141150D01*
X11541443Y-13141150D02*
X11560491Y-13150674D01*
X11560491Y-13150674D02*
X11570015Y-13169722D01*
X11570015Y-13169722D02*
X11570015Y-13274484D01*
X11960491Y-13064960D02*
X11789063Y-13322103D01*
X12217634Y-13074484D02*
X12236682Y-13074484D01*
X12236682Y-13074484D02*
X12255729Y-13084008D01*
X12255729Y-13084008D02*
X12265253Y-13093531D01*
X12265253Y-13093531D02*
X12274777Y-13112579D01*
X12274777Y-13112579D02*
X12284301Y-13150674D01*
X12284301Y-13150674D02*
X12284301Y-13198293D01*
X12284301Y-13198293D02*
X12274777Y-13236388D01*
X12274777Y-13236388D02*
X12265253Y-13255436D01*
X12265253Y-13255436D02*
X12255729Y-13264960D01*
X12255729Y-13264960D02*
X12236682Y-13274484D01*
X12236682Y-13274484D02*
X12217634Y-13274484D01*
X12217634Y-13274484D02*
X12198586Y-13264960D01*
X12198586Y-13264960D02*
X12189063Y-13255436D01*
X12189063Y-13255436D02*
X12179539Y-13236388D01*
X12179539Y-13236388D02*
X12170015Y-13198293D01*
X12170015Y-13198293D02*
X12170015Y-13150674D01*
X12170015Y-13150674D02*
X12179539Y-13112579D01*
X12179539Y-13112579D02*
X12189063Y-13093531D01*
X12189063Y-13093531D02*
X12198586Y-13084008D01*
X12198586Y-13084008D02*
X12217634Y-13074484D01*
X12370015Y-13255436D02*
X12379539Y-13264960D01*
X12379539Y-13264960D02*
X12370015Y-13274484D01*
X12370015Y-13274484D02*
X12360491Y-13264960D01*
X12360491Y-13264960D02*
X12370015Y-13255436D01*
X12370015Y-13255436D02*
X12370015Y-13274484D01*
X12503348Y-13074484D02*
X12522396Y-13074484D01*
X12522396Y-13074484D02*
X12541444Y-13084008D01*
X12541444Y-13084008D02*
X12550967Y-13093531D01*
X12550967Y-13093531D02*
X12560491Y-13112579D01*
X12560491Y-13112579D02*
X12570015Y-13150674D01*
X12570015Y-13150674D02*
X12570015Y-13198293D01*
X12570015Y-13198293D02*
X12560491Y-13236388D01*
X12560491Y-13236388D02*
X12550967Y-13255436D01*
X12550967Y-13255436D02*
X12541444Y-13264960D01*
X12541444Y-13264960D02*
X12522396Y-13274484D01*
X12522396Y-13274484D02*
X12503348Y-13274484D01*
X12503348Y-13274484D02*
X12484301Y-13264960D01*
X12484301Y-13264960D02*
X12474777Y-13255436D01*
X12474777Y-13255436D02*
X12465253Y-13236388D01*
X12465253Y-13236388D02*
X12455729Y-13198293D01*
X12455729Y-13198293D02*
X12455729Y-13150674D01*
X12455729Y-13150674D02*
X12465253Y-13112579D01*
X12465253Y-13112579D02*
X12474777Y-13093531D01*
X12474777Y-13093531D02*
X12484301Y-13084008D01*
X12484301Y-13084008D02*
X12503348Y-13074484D01*
X12760491Y-13274484D02*
X12646206Y-13274484D01*
X12703348Y-13274484D02*
X12703348Y-13074484D01*
X12703348Y-13074484D02*
X12684301Y-13103055D01*
X12684301Y-13103055D02*
X12665253Y-13122103D01*
X12665253Y-13122103D02*
X12646206Y-13131627D01*
X12950967Y-13274484D02*
X12836682Y-13274484D01*
X12893825Y-13274484D02*
X12893825Y-13074484D01*
X12893825Y-13074484D02*
X12874777Y-13103055D01*
X12874777Y-13103055D02*
X12855729Y-13122103D01*
X12855729Y-13122103D02*
X12836682Y-13131627D01*
X13065253Y-13160198D02*
X13046206Y-13150674D01*
X13046206Y-13150674D02*
X13036682Y-13141150D01*
X13036682Y-13141150D02*
X13027158Y-13122103D01*
X13027158Y-13122103D02*
X13027158Y-13112579D01*
X13027158Y-13112579D02*
X13036682Y-13093531D01*
X13036682Y-13093531D02*
X13046206Y-13084008D01*
X13046206Y-13084008D02*
X13065253Y-13074484D01*
X13065253Y-13074484D02*
X13103348Y-13074484D01*
X13103348Y-13074484D02*
X13122396Y-13084008D01*
X13122396Y-13084008D02*
X13131920Y-13093531D01*
X13131920Y-13093531D02*
X13141444Y-13112579D01*
X13141444Y-13112579D02*
X13141444Y-13122103D01*
X13141444Y-13122103D02*
X13131920Y-13141150D01*
X13131920Y-13141150D02*
X13122396Y-13150674D01*
X13122396Y-13150674D02*
X13103348Y-13160198D01*
X13103348Y-13160198D02*
X13065253Y-13160198D01*
X13065253Y-13160198D02*
X13046206Y-13169722D01*
X13046206Y-13169722D02*
X13036682Y-13179246D01*
X13036682Y-13179246D02*
X13027158Y-13198293D01*
X13027158Y-13198293D02*
X13027158Y-13236388D01*
X13027158Y-13236388D02*
X13036682Y-13255436D01*
X13036682Y-13255436D02*
X13046206Y-13264960D01*
X13046206Y-13264960D02*
X13065253Y-13274484D01*
X13065253Y-13274484D02*
X13103348Y-13274484D01*
X13103348Y-13274484D02*
X13122396Y-13264960D01*
X13122396Y-13264960D02*
X13131920Y-13255436D01*
X13131920Y-13255436D02*
X13141444Y-13236388D01*
X13141444Y-13236388D02*
X13141444Y-13198293D01*
X13141444Y-13198293D02*
X13131920Y-13179246D01*
X13131920Y-13179246D02*
X13122396Y-13169722D01*
X13122396Y-13169722D02*
X13103348Y-13160198D01*
X13217634Y-13074484D02*
X13217634Y-13112579D01*
X13293825Y-13074484D02*
X13293825Y-13112579D01*
X13589063Y-13350674D02*
X13579539Y-13341150D01*
X13579539Y-13341150D02*
X13560491Y-13312579D01*
X13560491Y-13312579D02*
X13550968Y-13293531D01*
X13550968Y-13293531D02*
X13541444Y-13264960D01*
X13541444Y-13264960D02*
X13531920Y-13217341D01*
X13531920Y-13217341D02*
X13531920Y-13179246D01*
X13531920Y-13179246D02*
X13541444Y-13131627D01*
X13541444Y-13131627D02*
X13550968Y-13103055D01*
X13550968Y-13103055D02*
X13560491Y-13084008D01*
X13560491Y-13084008D02*
X13579539Y-13055436D01*
X13579539Y-13055436D02*
X13589063Y-13045912D01*
X13770015Y-13274484D02*
X13655729Y-13274484D01*
X13712872Y-13274484D02*
X13712872Y-13074484D01*
X13712872Y-13074484D02*
X13693825Y-13103055D01*
X13693825Y-13103055D02*
X13674777Y-13122103D01*
X13674777Y-13122103D02*
X13655729Y-13131627D01*
X13836682Y-13074484D02*
X13960491Y-13074484D01*
X13960491Y-13074484D02*
X13893825Y-13150674D01*
X13893825Y-13150674D02*
X13922396Y-13150674D01*
X13922396Y-13150674D02*
X13941444Y-13160198D01*
X13941444Y-13160198D02*
X13950968Y-13169722D01*
X13950968Y-13169722D02*
X13960491Y-13188769D01*
X13960491Y-13188769D02*
X13960491Y-13236388D01*
X13960491Y-13236388D02*
X13950968Y-13255436D01*
X13950968Y-13255436D02*
X13941444Y-13264960D01*
X13941444Y-13264960D02*
X13922396Y-13274484D01*
X13922396Y-13274484D02*
X13865253Y-13274484D01*
X13865253Y-13274484D02*
X13846206Y-13264960D01*
X13846206Y-13264960D02*
X13836682Y-13255436D01*
X14074777Y-13160198D02*
X14055729Y-13150674D01*
X14055729Y-13150674D02*
X14046206Y-13141150D01*
X14046206Y-13141150D02*
X14036682Y-13122103D01*
X14036682Y-13122103D02*
X14036682Y-13112579D01*
X14036682Y-13112579D02*
X14046206Y-13093531D01*
X14046206Y-13093531D02*
X14055729Y-13084008D01*
X14055729Y-13084008D02*
X14074777Y-13074484D01*
X14074777Y-13074484D02*
X14112872Y-13074484D01*
X14112872Y-13074484D02*
X14131920Y-13084008D01*
X14131920Y-13084008D02*
X14141444Y-13093531D01*
X14141444Y-13093531D02*
X14150968Y-13112579D01*
X14150968Y-13112579D02*
X14150968Y-13122103D01*
X14150968Y-13122103D02*
X14141444Y-13141150D01*
X14141444Y-13141150D02*
X14131920Y-13150674D01*
X14131920Y-13150674D02*
X14112872Y-13160198D01*
X14112872Y-13160198D02*
X14074777Y-13160198D01*
X14074777Y-13160198D02*
X14055729Y-13169722D01*
X14055729Y-13169722D02*
X14046206Y-13179246D01*
X14046206Y-13179246D02*
X14036682Y-13198293D01*
X14036682Y-13198293D02*
X14036682Y-13236388D01*
X14036682Y-13236388D02*
X14046206Y-13255436D01*
X14046206Y-13255436D02*
X14055729Y-13264960D01*
X14055729Y-13264960D02*
X14074777Y-13274484D01*
X14074777Y-13274484D02*
X14112872Y-13274484D01*
X14112872Y-13274484D02*
X14131920Y-13264960D01*
X14131920Y-13264960D02*
X14141444Y-13255436D01*
X14141444Y-13255436D02*
X14150968Y-13236388D01*
X14150968Y-13236388D02*
X14150968Y-13198293D01*
X14150968Y-13198293D02*
X14141444Y-13179246D01*
X14141444Y-13179246D02*
X14131920Y-13169722D01*
X14131920Y-13169722D02*
X14112872Y-13160198D01*
X14389063Y-13274484D02*
X14389063Y-13074484D01*
X14474777Y-13274484D02*
X14474777Y-13169722D01*
X14474777Y-13169722D02*
X14465253Y-13150674D01*
X14465253Y-13150674D02*
X14446206Y-13141150D01*
X14446206Y-13141150D02*
X14417634Y-13141150D01*
X14417634Y-13141150D02*
X14398587Y-13150674D01*
X14398587Y-13150674D02*
X14389063Y-13160198D01*
X14598587Y-13274484D02*
X14579539Y-13264960D01*
X14579539Y-13264960D02*
X14570015Y-13255436D01*
X14570015Y-13255436D02*
X14560491Y-13236388D01*
X14560491Y-13236388D02*
X14560491Y-13179246D01*
X14560491Y-13179246D02*
X14570015Y-13160198D01*
X14570015Y-13160198D02*
X14579539Y-13150674D01*
X14579539Y-13150674D02*
X14598587Y-13141150D01*
X14598587Y-13141150D02*
X14627158Y-13141150D01*
X14627158Y-13141150D02*
X14646206Y-13150674D01*
X14646206Y-13150674D02*
X14655730Y-13160198D01*
X14655730Y-13160198D02*
X14665253Y-13179246D01*
X14665253Y-13179246D02*
X14665253Y-13236388D01*
X14665253Y-13236388D02*
X14655730Y-13255436D01*
X14655730Y-13255436D02*
X14646206Y-13264960D01*
X14646206Y-13264960D02*
X14627158Y-13274484D01*
X14627158Y-13274484D02*
X14598587Y-13274484D01*
X14779539Y-13274484D02*
X14760491Y-13264960D01*
X14760491Y-13264960D02*
X14750968Y-13245912D01*
X14750968Y-13245912D02*
X14750968Y-13074484D01*
X14931920Y-13264960D02*
X14912872Y-13274484D01*
X14912872Y-13274484D02*
X14874777Y-13274484D01*
X14874777Y-13274484D02*
X14855730Y-13264960D01*
X14855730Y-13264960D02*
X14846206Y-13245912D01*
X14846206Y-13245912D02*
X14846206Y-13169722D01*
X14846206Y-13169722D02*
X14855730Y-13150674D01*
X14855730Y-13150674D02*
X14874777Y-13141150D01*
X14874777Y-13141150D02*
X14912872Y-13141150D01*
X14912872Y-13141150D02*
X14931920Y-13150674D01*
X14931920Y-13150674D02*
X14941444Y-13169722D01*
X14941444Y-13169722D02*
X14941444Y-13188769D01*
X14941444Y-13188769D02*
X14846206Y-13207817D01*
X15017634Y-13264960D02*
X15036682Y-13274484D01*
X15036682Y-13274484D02*
X15074777Y-13274484D01*
X15074777Y-13274484D02*
X15093825Y-13264960D01*
X15093825Y-13264960D02*
X15103349Y-13245912D01*
X15103349Y-13245912D02*
X15103349Y-13236388D01*
X15103349Y-13236388D02*
X15093825Y-13217341D01*
X15093825Y-13217341D02*
X15074777Y-13207817D01*
X15074777Y-13207817D02*
X15046206Y-13207817D01*
X15046206Y-13207817D02*
X15027158Y-13198293D01*
X15027158Y-13198293D02*
X15017634Y-13179246D01*
X15017634Y-13179246D02*
X15017634Y-13169722D01*
X15017634Y-13169722D02*
X15027158Y-13150674D01*
X15027158Y-13150674D02*
X15046206Y-13141150D01*
X15046206Y-13141150D02*
X15074777Y-13141150D01*
X15074777Y-13141150D02*
X15093825Y-13150674D01*
X15170015Y-13350674D02*
X15179539Y-13341150D01*
X15179539Y-13341150D02*
X15198587Y-13312579D01*
X15198587Y-13312579D02*
X15208111Y-13293531D01*
X15208111Y-13293531D02*
X15217634Y-13264960D01*
X15217634Y-13264960D02*
X15227158Y-13217341D01*
X15227158Y-13217341D02*
X15227158Y-13179246D01*
X15227158Y-13179246D02*
X15217634Y-13131627D01*
X15217634Y-13131627D02*
X15208111Y-13103055D01*
X15208111Y-13103055D02*
X15198587Y-13084008D01*
X15198587Y-13084008D02*
X15179539Y-13055436D01*
X15179539Y-13055436D02*
X15170015Y-13045912D01*
D13*
X10014000Y-13447000D02*
G75*
G03*
X10014000Y-13447000I-20000J0D01*
G01*
D11*
X10312872Y-13338484D02*
X10331920Y-13338484D01*
X10331920Y-13338484D02*
X10350967Y-13348008D01*
X10350967Y-13348008D02*
X10360491Y-13357531D01*
X10360491Y-13357531D02*
X10370015Y-13376579D01*
X10370015Y-13376579D02*
X10379539Y-13414674D01*
X10379539Y-13414674D02*
X10379539Y-13462293D01*
X10379539Y-13462293D02*
X10370015Y-13500388D01*
X10370015Y-13500388D02*
X10360491Y-13519436D01*
X10360491Y-13519436D02*
X10350967Y-13528960D01*
X10350967Y-13528960D02*
X10331920Y-13538484D01*
X10331920Y-13538484D02*
X10312872Y-13538484D01*
X10312872Y-13538484D02*
X10293824Y-13528960D01*
X10293824Y-13528960D02*
X10284301Y-13519436D01*
X10284301Y-13519436D02*
X10274777Y-13500388D01*
X10274777Y-13500388D02*
X10265253Y-13462293D01*
X10265253Y-13462293D02*
X10265253Y-13414674D01*
X10265253Y-13414674D02*
X10274777Y-13376579D01*
X10274777Y-13376579D02*
X10284301Y-13357531D01*
X10284301Y-13357531D02*
X10293824Y-13348008D01*
X10293824Y-13348008D02*
X10312872Y-13338484D01*
X10465253Y-13519436D02*
X10474777Y-13528960D01*
X10474777Y-13528960D02*
X10465253Y-13538484D01*
X10465253Y-13538484D02*
X10455729Y-13528960D01*
X10455729Y-13528960D02*
X10465253Y-13519436D01*
X10465253Y-13519436D02*
X10465253Y-13538484D01*
X10646205Y-13405150D02*
X10646205Y-13538484D01*
X10598586Y-13328960D02*
X10550967Y-13471817D01*
X10550967Y-13471817D02*
X10674777Y-13471817D01*
X10789063Y-13338484D02*
X10808110Y-13338484D01*
X10808110Y-13338484D02*
X10827158Y-13348008D01*
X10827158Y-13348008D02*
X10836682Y-13357531D01*
X10836682Y-13357531D02*
X10846205Y-13376579D01*
X10846205Y-13376579D02*
X10855729Y-13414674D01*
X10855729Y-13414674D02*
X10855729Y-13462293D01*
X10855729Y-13462293D02*
X10846205Y-13500388D01*
X10846205Y-13500388D02*
X10836682Y-13519436D01*
X10836682Y-13519436D02*
X10827158Y-13528960D01*
X10827158Y-13528960D02*
X10808110Y-13538484D01*
X10808110Y-13538484D02*
X10789063Y-13538484D01*
X10789063Y-13538484D02*
X10770015Y-13528960D01*
X10770015Y-13528960D02*
X10760491Y-13519436D01*
X10760491Y-13519436D02*
X10750967Y-13500388D01*
X10750967Y-13500388D02*
X10741444Y-13462293D01*
X10741444Y-13462293D02*
X10741444Y-13414674D01*
X10741444Y-13414674D02*
X10750967Y-13376579D01*
X10750967Y-13376579D02*
X10760491Y-13357531D01*
X10760491Y-13357531D02*
X10770015Y-13348008D01*
X10770015Y-13348008D02*
X10789063Y-13338484D01*
X10979539Y-13338484D02*
X10998586Y-13338484D01*
X10998586Y-13338484D02*
X11017634Y-13348008D01*
X11017634Y-13348008D02*
X11027158Y-13357531D01*
X11027158Y-13357531D02*
X11036682Y-13376579D01*
X11036682Y-13376579D02*
X11046205Y-13414674D01*
X11046205Y-13414674D02*
X11046205Y-13462293D01*
X11046205Y-13462293D02*
X11036682Y-13500388D01*
X11036682Y-13500388D02*
X11027158Y-13519436D01*
X11027158Y-13519436D02*
X11017634Y-13528960D01*
X11017634Y-13528960D02*
X10998586Y-13538484D01*
X10998586Y-13538484D02*
X10979539Y-13538484D01*
X10979539Y-13538484D02*
X10960491Y-13528960D01*
X10960491Y-13528960D02*
X10950967Y-13519436D01*
X10950967Y-13519436D02*
X10941444Y-13500388D01*
X10941444Y-13500388D02*
X10931920Y-13462293D01*
X10931920Y-13462293D02*
X10931920Y-13414674D01*
X10931920Y-13414674D02*
X10941444Y-13376579D01*
X10941444Y-13376579D02*
X10950967Y-13357531D01*
X10950967Y-13357531D02*
X10960491Y-13348008D01*
X10960491Y-13348008D02*
X10979539Y-13338484D01*
X11131920Y-13538484D02*
X11131920Y-13405150D01*
X11131920Y-13424198D02*
X11141444Y-13414674D01*
X11141444Y-13414674D02*
X11160491Y-13405150D01*
X11160491Y-13405150D02*
X11189063Y-13405150D01*
X11189063Y-13405150D02*
X11208110Y-13414674D01*
X11208110Y-13414674D02*
X11217634Y-13433722D01*
X11217634Y-13433722D02*
X11217634Y-13538484D01*
X11217634Y-13433722D02*
X11227158Y-13414674D01*
X11227158Y-13414674D02*
X11246205Y-13405150D01*
X11246205Y-13405150D02*
X11274777Y-13405150D01*
X11274777Y-13405150D02*
X11293824Y-13414674D01*
X11293824Y-13414674D02*
X11303348Y-13433722D01*
X11303348Y-13433722D02*
X11303348Y-13538484D01*
X11398586Y-13538484D02*
X11398586Y-13405150D01*
X11398586Y-13424198D02*
X11408110Y-13414674D01*
X11408110Y-13414674D02*
X11427158Y-13405150D01*
X11427158Y-13405150D02*
X11455729Y-13405150D01*
X11455729Y-13405150D02*
X11474777Y-13414674D01*
X11474777Y-13414674D02*
X11484301Y-13433722D01*
X11484301Y-13433722D02*
X11484301Y-13538484D01*
X11484301Y-13433722D02*
X11493824Y-13414674D01*
X11493824Y-13414674D02*
X11512872Y-13405150D01*
X11512872Y-13405150D02*
X11541443Y-13405150D01*
X11541443Y-13405150D02*
X11560491Y-13414674D01*
X11560491Y-13414674D02*
X11570015Y-13433722D01*
X11570015Y-13433722D02*
X11570015Y-13538484D01*
X11960491Y-13328960D02*
X11789063Y-13586103D01*
X12217634Y-13338484D02*
X12236682Y-13338484D01*
X12236682Y-13338484D02*
X12255729Y-13348008D01*
X12255729Y-13348008D02*
X12265253Y-13357531D01*
X12265253Y-13357531D02*
X12274777Y-13376579D01*
X12274777Y-13376579D02*
X12284301Y-13414674D01*
X12284301Y-13414674D02*
X12284301Y-13462293D01*
X12284301Y-13462293D02*
X12274777Y-13500388D01*
X12274777Y-13500388D02*
X12265253Y-13519436D01*
X12265253Y-13519436D02*
X12255729Y-13528960D01*
X12255729Y-13528960D02*
X12236682Y-13538484D01*
X12236682Y-13538484D02*
X12217634Y-13538484D01*
X12217634Y-13538484D02*
X12198586Y-13528960D01*
X12198586Y-13528960D02*
X12189063Y-13519436D01*
X12189063Y-13519436D02*
X12179539Y-13500388D01*
X12179539Y-13500388D02*
X12170015Y-13462293D01*
X12170015Y-13462293D02*
X12170015Y-13414674D01*
X12170015Y-13414674D02*
X12179539Y-13376579D01*
X12179539Y-13376579D02*
X12189063Y-13357531D01*
X12189063Y-13357531D02*
X12198586Y-13348008D01*
X12198586Y-13348008D02*
X12217634Y-13338484D01*
X12370015Y-13519436D02*
X12379539Y-13528960D01*
X12379539Y-13528960D02*
X12370015Y-13538484D01*
X12370015Y-13538484D02*
X12360491Y-13528960D01*
X12360491Y-13528960D02*
X12370015Y-13519436D01*
X12370015Y-13519436D02*
X12370015Y-13538484D01*
X12503348Y-13338484D02*
X12522396Y-13338484D01*
X12522396Y-13338484D02*
X12541444Y-13348008D01*
X12541444Y-13348008D02*
X12550967Y-13357531D01*
X12550967Y-13357531D02*
X12560491Y-13376579D01*
X12560491Y-13376579D02*
X12570015Y-13414674D01*
X12570015Y-13414674D02*
X12570015Y-13462293D01*
X12570015Y-13462293D02*
X12560491Y-13500388D01*
X12560491Y-13500388D02*
X12550967Y-13519436D01*
X12550967Y-13519436D02*
X12541444Y-13528960D01*
X12541444Y-13528960D02*
X12522396Y-13538484D01*
X12522396Y-13538484D02*
X12503348Y-13538484D01*
X12503348Y-13538484D02*
X12484301Y-13528960D01*
X12484301Y-13528960D02*
X12474777Y-13519436D01*
X12474777Y-13519436D02*
X12465253Y-13500388D01*
X12465253Y-13500388D02*
X12455729Y-13462293D01*
X12455729Y-13462293D02*
X12455729Y-13414674D01*
X12455729Y-13414674D02*
X12465253Y-13376579D01*
X12465253Y-13376579D02*
X12474777Y-13357531D01*
X12474777Y-13357531D02*
X12484301Y-13348008D01*
X12484301Y-13348008D02*
X12503348Y-13338484D01*
X12760491Y-13538484D02*
X12646206Y-13538484D01*
X12703348Y-13538484D02*
X12703348Y-13338484D01*
X12703348Y-13338484D02*
X12684301Y-13367055D01*
X12684301Y-13367055D02*
X12665253Y-13386103D01*
X12665253Y-13386103D02*
X12646206Y-13395627D01*
X12941444Y-13338484D02*
X12846206Y-13338484D01*
X12846206Y-13338484D02*
X12836682Y-13433722D01*
X12836682Y-13433722D02*
X12846206Y-13424198D01*
X12846206Y-13424198D02*
X12865253Y-13414674D01*
X12865253Y-13414674D02*
X12912872Y-13414674D01*
X12912872Y-13414674D02*
X12931920Y-13424198D01*
X12931920Y-13424198D02*
X12941444Y-13433722D01*
X12941444Y-13433722D02*
X12950967Y-13452769D01*
X12950967Y-13452769D02*
X12950967Y-13500388D01*
X12950967Y-13500388D02*
X12941444Y-13519436D01*
X12941444Y-13519436D02*
X12931920Y-13528960D01*
X12931920Y-13528960D02*
X12912872Y-13538484D01*
X12912872Y-13538484D02*
X12865253Y-13538484D01*
X12865253Y-13538484D02*
X12846206Y-13528960D01*
X12846206Y-13528960D02*
X12836682Y-13519436D01*
X13017634Y-13338484D02*
X13150967Y-13338484D01*
X13150967Y-13338484D02*
X13065253Y-13538484D01*
X13217634Y-13338484D02*
X13217634Y-13376579D01*
X13293825Y-13338484D02*
X13293825Y-13376579D01*
X13589063Y-13614674D02*
X13579539Y-13605150D01*
X13579539Y-13605150D02*
X13560491Y-13576579D01*
X13560491Y-13576579D02*
X13550968Y-13557531D01*
X13550968Y-13557531D02*
X13541444Y-13528960D01*
X13541444Y-13528960D02*
X13531920Y-13481341D01*
X13531920Y-13481341D02*
X13531920Y-13443246D01*
X13531920Y-13443246D02*
X13541444Y-13395627D01*
X13541444Y-13395627D02*
X13550968Y-13367055D01*
X13550968Y-13367055D02*
X13560491Y-13348008D01*
X13560491Y-13348008D02*
X13579539Y-13319436D01*
X13579539Y-13319436D02*
X13589063Y-13309912D01*
X13750968Y-13338484D02*
X13712872Y-13338484D01*
X13712872Y-13338484D02*
X13693825Y-13348008D01*
X13693825Y-13348008D02*
X13684301Y-13357531D01*
X13684301Y-13357531D02*
X13665253Y-13386103D01*
X13665253Y-13386103D02*
X13655729Y-13424198D01*
X13655729Y-13424198D02*
X13655729Y-13500388D01*
X13655729Y-13500388D02*
X13665253Y-13519436D01*
X13665253Y-13519436D02*
X13674777Y-13528960D01*
X13674777Y-13528960D02*
X13693825Y-13538484D01*
X13693825Y-13538484D02*
X13731920Y-13538484D01*
X13731920Y-13538484D02*
X13750968Y-13528960D01*
X13750968Y-13528960D02*
X13760491Y-13519436D01*
X13760491Y-13519436D02*
X13770015Y-13500388D01*
X13770015Y-13500388D02*
X13770015Y-13452769D01*
X13770015Y-13452769D02*
X13760491Y-13433722D01*
X13760491Y-13433722D02*
X13750968Y-13424198D01*
X13750968Y-13424198D02*
X13731920Y-13414674D01*
X13731920Y-13414674D02*
X13693825Y-13414674D01*
X13693825Y-13414674D02*
X13674777Y-13424198D01*
X13674777Y-13424198D02*
X13665253Y-13433722D01*
X13665253Y-13433722D02*
X13655729Y-13452769D01*
X14008110Y-13538484D02*
X14008110Y-13338484D01*
X14093825Y-13538484D02*
X14093825Y-13433722D01*
X14093825Y-13433722D02*
X14084301Y-13414674D01*
X14084301Y-13414674D02*
X14065253Y-13405150D01*
X14065253Y-13405150D02*
X14036682Y-13405150D01*
X14036682Y-13405150D02*
X14017634Y-13414674D01*
X14017634Y-13414674D02*
X14008110Y-13424198D01*
X14217634Y-13538484D02*
X14198587Y-13528960D01*
X14198587Y-13528960D02*
X14189063Y-13519436D01*
X14189063Y-13519436D02*
X14179539Y-13500388D01*
X14179539Y-13500388D02*
X14179539Y-13443246D01*
X14179539Y-13443246D02*
X14189063Y-13424198D01*
X14189063Y-13424198D02*
X14198587Y-13414674D01*
X14198587Y-13414674D02*
X14217634Y-13405150D01*
X14217634Y-13405150D02*
X14246206Y-13405150D01*
X14246206Y-13405150D02*
X14265253Y-13414674D01*
X14265253Y-13414674D02*
X14274777Y-13424198D01*
X14274777Y-13424198D02*
X14284301Y-13443246D01*
X14284301Y-13443246D02*
X14284301Y-13500388D01*
X14284301Y-13500388D02*
X14274777Y-13519436D01*
X14274777Y-13519436D02*
X14265253Y-13528960D01*
X14265253Y-13528960D02*
X14246206Y-13538484D01*
X14246206Y-13538484D02*
X14217634Y-13538484D01*
X14398587Y-13538484D02*
X14379539Y-13528960D01*
X14379539Y-13528960D02*
X14370015Y-13509912D01*
X14370015Y-13509912D02*
X14370015Y-13338484D01*
X14550968Y-13528960D02*
X14531920Y-13538484D01*
X14531920Y-13538484D02*
X14493825Y-13538484D01*
X14493825Y-13538484D02*
X14474777Y-13528960D01*
X14474777Y-13528960D02*
X14465253Y-13509912D01*
X14465253Y-13509912D02*
X14465253Y-13433722D01*
X14465253Y-13433722D02*
X14474777Y-13414674D01*
X14474777Y-13414674D02*
X14493825Y-13405150D01*
X14493825Y-13405150D02*
X14531920Y-13405150D01*
X14531920Y-13405150D02*
X14550968Y-13414674D01*
X14550968Y-13414674D02*
X14560491Y-13433722D01*
X14560491Y-13433722D02*
X14560491Y-13452769D01*
X14560491Y-13452769D02*
X14465253Y-13471817D01*
X14636682Y-13528960D02*
X14655730Y-13538484D01*
X14655730Y-13538484D02*
X14693825Y-13538484D01*
X14693825Y-13538484D02*
X14712872Y-13528960D01*
X14712872Y-13528960D02*
X14722396Y-13509912D01*
X14722396Y-13509912D02*
X14722396Y-13500388D01*
X14722396Y-13500388D02*
X14712872Y-13481341D01*
X14712872Y-13481341D02*
X14693825Y-13471817D01*
X14693825Y-13471817D02*
X14665253Y-13471817D01*
X14665253Y-13471817D02*
X14646206Y-13462293D01*
X14646206Y-13462293D02*
X14636682Y-13443246D01*
X14636682Y-13443246D02*
X14636682Y-13433722D01*
X14636682Y-13433722D02*
X14646206Y-13414674D01*
X14646206Y-13414674D02*
X14665253Y-13405150D01*
X14665253Y-13405150D02*
X14693825Y-13405150D01*
X14693825Y-13405150D02*
X14712872Y-13414674D01*
X14789063Y-13614674D02*
X14798587Y-13605150D01*
X14798587Y-13605150D02*
X14817634Y-13576579D01*
X14817634Y-13576579D02*
X14827158Y-13557531D01*
X14827158Y-13557531D02*
X14836682Y-13528960D01*
X14836682Y-13528960D02*
X14846206Y-13481341D01*
X14846206Y-13481341D02*
X14846206Y-13443246D01*
X14846206Y-13443246D02*
X14836682Y-13395627D01*
X14836682Y-13395627D02*
X14827158Y-13367055D01*
X14827158Y-13367055D02*
X14817634Y-13348008D01*
X14817634Y-13348008D02*
X14798587Y-13319436D01*
X14798587Y-13319436D02*
X14789063Y-13309912D01*
D14*
X9966500Y-13663500D02*
X9966500Y-13758500D01*
X9919000Y-13711000D02*
X10014000Y-13711000D01*
D11*
X10312872Y-13602484D02*
X10331920Y-13602484D01*
X10331920Y-13602484D02*
X10350967Y-13612008D01*
X10350967Y-13612008D02*
X10360491Y-13621531D01*
X10360491Y-13621531D02*
X10370015Y-13640579D01*
X10370015Y-13640579D02*
X10379539Y-13678674D01*
X10379539Y-13678674D02*
X10379539Y-13726293D01*
X10379539Y-13726293D02*
X10370015Y-13764388D01*
X10370015Y-13764388D02*
X10360491Y-13783436D01*
X10360491Y-13783436D02*
X10350967Y-13792960D01*
X10350967Y-13792960D02*
X10331920Y-13802484D01*
X10331920Y-13802484D02*
X10312872Y-13802484D01*
X10312872Y-13802484D02*
X10293824Y-13792960D01*
X10293824Y-13792960D02*
X10284301Y-13783436D01*
X10284301Y-13783436D02*
X10274777Y-13764388D01*
X10274777Y-13764388D02*
X10265253Y-13726293D01*
X10265253Y-13726293D02*
X10265253Y-13678674D01*
X10265253Y-13678674D02*
X10274777Y-13640579D01*
X10274777Y-13640579D02*
X10284301Y-13621531D01*
X10284301Y-13621531D02*
X10293824Y-13612008D01*
X10293824Y-13612008D02*
X10312872Y-13602484D01*
X10465253Y-13783436D02*
X10474777Y-13792960D01*
X10474777Y-13792960D02*
X10465253Y-13802484D01*
X10465253Y-13802484D02*
X10455729Y-13792960D01*
X10455729Y-13792960D02*
X10465253Y-13783436D01*
X10465253Y-13783436D02*
X10465253Y-13802484D01*
X10570015Y-13802484D02*
X10608110Y-13802484D01*
X10608110Y-13802484D02*
X10627158Y-13792960D01*
X10627158Y-13792960D02*
X10636682Y-13783436D01*
X10636682Y-13783436D02*
X10655729Y-13754865D01*
X10655729Y-13754865D02*
X10665253Y-13716769D01*
X10665253Y-13716769D02*
X10665253Y-13640579D01*
X10665253Y-13640579D02*
X10655729Y-13621531D01*
X10655729Y-13621531D02*
X10646205Y-13612008D01*
X10646205Y-13612008D02*
X10627158Y-13602484D01*
X10627158Y-13602484D02*
X10589063Y-13602484D01*
X10589063Y-13602484D02*
X10570015Y-13612008D01*
X10570015Y-13612008D02*
X10560491Y-13621531D01*
X10560491Y-13621531D02*
X10550967Y-13640579D01*
X10550967Y-13640579D02*
X10550967Y-13688198D01*
X10550967Y-13688198D02*
X10560491Y-13707246D01*
X10560491Y-13707246D02*
X10570015Y-13716769D01*
X10570015Y-13716769D02*
X10589063Y-13726293D01*
X10589063Y-13726293D02*
X10627158Y-13726293D01*
X10627158Y-13726293D02*
X10646205Y-13716769D01*
X10646205Y-13716769D02*
X10655729Y-13707246D01*
X10655729Y-13707246D02*
X10665253Y-13688198D01*
X10846205Y-13602484D02*
X10750967Y-13602484D01*
X10750967Y-13602484D02*
X10741444Y-13697722D01*
X10741444Y-13697722D02*
X10750967Y-13688198D01*
X10750967Y-13688198D02*
X10770015Y-13678674D01*
X10770015Y-13678674D02*
X10817634Y-13678674D01*
X10817634Y-13678674D02*
X10836682Y-13688198D01*
X10836682Y-13688198D02*
X10846205Y-13697722D01*
X10846205Y-13697722D02*
X10855729Y-13716769D01*
X10855729Y-13716769D02*
X10855729Y-13764388D01*
X10855729Y-13764388D02*
X10846205Y-13783436D01*
X10846205Y-13783436D02*
X10836682Y-13792960D01*
X10836682Y-13792960D02*
X10817634Y-13802484D01*
X10817634Y-13802484D02*
X10770015Y-13802484D01*
X10770015Y-13802484D02*
X10750967Y-13792960D01*
X10750967Y-13792960D02*
X10741444Y-13783436D01*
X10979539Y-13602484D02*
X10998586Y-13602484D01*
X10998586Y-13602484D02*
X11017634Y-13612008D01*
X11017634Y-13612008D02*
X11027158Y-13621531D01*
X11027158Y-13621531D02*
X11036682Y-13640579D01*
X11036682Y-13640579D02*
X11046205Y-13678674D01*
X11046205Y-13678674D02*
X11046205Y-13726293D01*
X11046205Y-13726293D02*
X11036682Y-13764388D01*
X11036682Y-13764388D02*
X11027158Y-13783436D01*
X11027158Y-13783436D02*
X11017634Y-13792960D01*
X11017634Y-13792960D02*
X10998586Y-13802484D01*
X10998586Y-13802484D02*
X10979539Y-13802484D01*
X10979539Y-13802484D02*
X10960491Y-13792960D01*
X10960491Y-13792960D02*
X10950967Y-13783436D01*
X10950967Y-13783436D02*
X10941444Y-13764388D01*
X10941444Y-13764388D02*
X10931920Y-13726293D01*
X10931920Y-13726293D02*
X10931920Y-13678674D01*
X10931920Y-13678674D02*
X10941444Y-13640579D01*
X10941444Y-13640579D02*
X10950967Y-13621531D01*
X10950967Y-13621531D02*
X10960491Y-13612008D01*
X10960491Y-13612008D02*
X10979539Y-13602484D01*
X11131920Y-13802484D02*
X11131920Y-13669150D01*
X11131920Y-13688198D02*
X11141444Y-13678674D01*
X11141444Y-13678674D02*
X11160491Y-13669150D01*
X11160491Y-13669150D02*
X11189063Y-13669150D01*
X11189063Y-13669150D02*
X11208110Y-13678674D01*
X11208110Y-13678674D02*
X11217634Y-13697722D01*
X11217634Y-13697722D02*
X11217634Y-13802484D01*
X11217634Y-13697722D02*
X11227158Y-13678674D01*
X11227158Y-13678674D02*
X11246205Y-13669150D01*
X11246205Y-13669150D02*
X11274777Y-13669150D01*
X11274777Y-13669150D02*
X11293824Y-13678674D01*
X11293824Y-13678674D02*
X11303348Y-13697722D01*
X11303348Y-13697722D02*
X11303348Y-13802484D01*
X11398586Y-13802484D02*
X11398586Y-13669150D01*
X11398586Y-13688198D02*
X11408110Y-13678674D01*
X11408110Y-13678674D02*
X11427158Y-13669150D01*
X11427158Y-13669150D02*
X11455729Y-13669150D01*
X11455729Y-13669150D02*
X11474777Y-13678674D01*
X11474777Y-13678674D02*
X11484301Y-13697722D01*
X11484301Y-13697722D02*
X11484301Y-13802484D01*
X11484301Y-13697722D02*
X11493824Y-13678674D01*
X11493824Y-13678674D02*
X11512872Y-13669150D01*
X11512872Y-13669150D02*
X11541443Y-13669150D01*
X11541443Y-13669150D02*
X11560491Y-13678674D01*
X11560491Y-13678674D02*
X11570015Y-13697722D01*
X11570015Y-13697722D02*
X11570015Y-13802484D01*
X11960491Y-13592960D02*
X11789063Y-13850103D01*
X12217634Y-13602484D02*
X12236682Y-13602484D01*
X12236682Y-13602484D02*
X12255729Y-13612008D01*
X12255729Y-13612008D02*
X12265253Y-13621531D01*
X12265253Y-13621531D02*
X12274777Y-13640579D01*
X12274777Y-13640579D02*
X12284301Y-13678674D01*
X12284301Y-13678674D02*
X12284301Y-13726293D01*
X12284301Y-13726293D02*
X12274777Y-13764388D01*
X12274777Y-13764388D02*
X12265253Y-13783436D01*
X12265253Y-13783436D02*
X12255729Y-13792960D01*
X12255729Y-13792960D02*
X12236682Y-13802484D01*
X12236682Y-13802484D02*
X12217634Y-13802484D01*
X12217634Y-13802484D02*
X12198586Y-13792960D01*
X12198586Y-13792960D02*
X12189063Y-13783436D01*
X12189063Y-13783436D02*
X12179539Y-13764388D01*
X12179539Y-13764388D02*
X12170015Y-13726293D01*
X12170015Y-13726293D02*
X12170015Y-13678674D01*
X12170015Y-13678674D02*
X12179539Y-13640579D01*
X12179539Y-13640579D02*
X12189063Y-13621531D01*
X12189063Y-13621531D02*
X12198586Y-13612008D01*
X12198586Y-13612008D02*
X12217634Y-13602484D01*
X12370015Y-13783436D02*
X12379539Y-13792960D01*
X12379539Y-13792960D02*
X12370015Y-13802484D01*
X12370015Y-13802484D02*
X12360491Y-13792960D01*
X12360491Y-13792960D02*
X12370015Y-13783436D01*
X12370015Y-13783436D02*
X12370015Y-13802484D01*
X12503348Y-13602484D02*
X12522396Y-13602484D01*
X12522396Y-13602484D02*
X12541444Y-13612008D01*
X12541444Y-13612008D02*
X12550967Y-13621531D01*
X12550967Y-13621531D02*
X12560491Y-13640579D01*
X12560491Y-13640579D02*
X12570015Y-13678674D01*
X12570015Y-13678674D02*
X12570015Y-13726293D01*
X12570015Y-13726293D02*
X12560491Y-13764388D01*
X12560491Y-13764388D02*
X12550967Y-13783436D01*
X12550967Y-13783436D02*
X12541444Y-13792960D01*
X12541444Y-13792960D02*
X12522396Y-13802484D01*
X12522396Y-13802484D02*
X12503348Y-13802484D01*
X12503348Y-13802484D02*
X12484301Y-13792960D01*
X12484301Y-13792960D02*
X12474777Y-13783436D01*
X12474777Y-13783436D02*
X12465253Y-13764388D01*
X12465253Y-13764388D02*
X12455729Y-13726293D01*
X12455729Y-13726293D02*
X12455729Y-13678674D01*
X12455729Y-13678674D02*
X12465253Y-13640579D01*
X12465253Y-13640579D02*
X12474777Y-13621531D01*
X12474777Y-13621531D02*
X12484301Y-13612008D01*
X12484301Y-13612008D02*
X12503348Y-13602484D01*
X12636682Y-13602484D02*
X12760491Y-13602484D01*
X12760491Y-13602484D02*
X12693825Y-13678674D01*
X12693825Y-13678674D02*
X12722396Y-13678674D01*
X12722396Y-13678674D02*
X12741444Y-13688198D01*
X12741444Y-13688198D02*
X12750967Y-13697722D01*
X12750967Y-13697722D02*
X12760491Y-13716769D01*
X12760491Y-13716769D02*
X12760491Y-13764388D01*
X12760491Y-13764388D02*
X12750967Y-13783436D01*
X12750967Y-13783436D02*
X12741444Y-13792960D01*
X12741444Y-13792960D02*
X12722396Y-13802484D01*
X12722396Y-13802484D02*
X12665253Y-13802484D01*
X12665253Y-13802484D02*
X12646206Y-13792960D01*
X12646206Y-13792960D02*
X12636682Y-13783436D01*
X12827158Y-13602484D02*
X12960491Y-13602484D01*
X12960491Y-13602484D02*
X12874777Y-13802484D01*
X13122396Y-13669150D02*
X13122396Y-13802484D01*
X13074777Y-13592960D02*
X13027158Y-13735817D01*
X13027158Y-13735817D02*
X13150967Y-13735817D01*
X13217634Y-13602484D02*
X13217634Y-13640579D01*
X13293825Y-13602484D02*
X13293825Y-13640579D01*
X13589063Y-13878674D02*
X13579539Y-13869150D01*
X13579539Y-13869150D02*
X13560491Y-13840579D01*
X13560491Y-13840579D02*
X13550968Y-13821531D01*
X13550968Y-13821531D02*
X13541444Y-13792960D01*
X13541444Y-13792960D02*
X13531920Y-13745341D01*
X13531920Y-13745341D02*
X13531920Y-13707246D01*
X13531920Y-13707246D02*
X13541444Y-13659627D01*
X13541444Y-13659627D02*
X13550968Y-13631055D01*
X13550968Y-13631055D02*
X13560491Y-13612008D01*
X13560491Y-13612008D02*
X13579539Y-13583436D01*
X13579539Y-13583436D02*
X13589063Y-13573912D01*
X13750968Y-13669150D02*
X13750968Y-13802484D01*
X13703348Y-13592960D02*
X13655729Y-13735817D01*
X13655729Y-13735817D02*
X13779539Y-13735817D01*
X14008110Y-13802484D02*
X14008110Y-13602484D01*
X14093825Y-13802484D02*
X14093825Y-13697722D01*
X14093825Y-13697722D02*
X14084301Y-13678674D01*
X14084301Y-13678674D02*
X14065253Y-13669150D01*
X14065253Y-13669150D02*
X14036682Y-13669150D01*
X14036682Y-13669150D02*
X14017634Y-13678674D01*
X14017634Y-13678674D02*
X14008110Y-13688198D01*
X14217634Y-13802484D02*
X14198587Y-13792960D01*
X14198587Y-13792960D02*
X14189063Y-13783436D01*
X14189063Y-13783436D02*
X14179539Y-13764388D01*
X14179539Y-13764388D02*
X14179539Y-13707246D01*
X14179539Y-13707246D02*
X14189063Y-13688198D01*
X14189063Y-13688198D02*
X14198587Y-13678674D01*
X14198587Y-13678674D02*
X14217634Y-13669150D01*
X14217634Y-13669150D02*
X14246206Y-13669150D01*
X14246206Y-13669150D02*
X14265253Y-13678674D01*
X14265253Y-13678674D02*
X14274777Y-13688198D01*
X14274777Y-13688198D02*
X14284301Y-13707246D01*
X14284301Y-13707246D02*
X14284301Y-13764388D01*
X14284301Y-13764388D02*
X14274777Y-13783436D01*
X14274777Y-13783436D02*
X14265253Y-13792960D01*
X14265253Y-13792960D02*
X14246206Y-13802484D01*
X14246206Y-13802484D02*
X14217634Y-13802484D01*
X14398587Y-13802484D02*
X14379539Y-13792960D01*
X14379539Y-13792960D02*
X14370015Y-13773912D01*
X14370015Y-13773912D02*
X14370015Y-13602484D01*
X14550968Y-13792960D02*
X14531920Y-13802484D01*
X14531920Y-13802484D02*
X14493825Y-13802484D01*
X14493825Y-13802484D02*
X14474777Y-13792960D01*
X14474777Y-13792960D02*
X14465253Y-13773912D01*
X14465253Y-13773912D02*
X14465253Y-13697722D01*
X14465253Y-13697722D02*
X14474777Y-13678674D01*
X14474777Y-13678674D02*
X14493825Y-13669150D01*
X14493825Y-13669150D02*
X14531920Y-13669150D01*
X14531920Y-13669150D02*
X14550968Y-13678674D01*
X14550968Y-13678674D02*
X14560491Y-13697722D01*
X14560491Y-13697722D02*
X14560491Y-13716769D01*
X14560491Y-13716769D02*
X14465253Y-13735817D01*
X14636682Y-13792960D02*
X14655730Y-13802484D01*
X14655730Y-13802484D02*
X14693825Y-13802484D01*
X14693825Y-13802484D02*
X14712872Y-13792960D01*
X14712872Y-13792960D02*
X14722396Y-13773912D01*
X14722396Y-13773912D02*
X14722396Y-13764388D01*
X14722396Y-13764388D02*
X14712872Y-13745341D01*
X14712872Y-13745341D02*
X14693825Y-13735817D01*
X14693825Y-13735817D02*
X14665253Y-13735817D01*
X14665253Y-13735817D02*
X14646206Y-13726293D01*
X14646206Y-13726293D02*
X14636682Y-13707246D01*
X14636682Y-13707246D02*
X14636682Y-13697722D01*
X14636682Y-13697722D02*
X14646206Y-13678674D01*
X14646206Y-13678674D02*
X14665253Y-13669150D01*
X14665253Y-13669150D02*
X14693825Y-13669150D01*
X14693825Y-13669150D02*
X14712872Y-13678674D01*
X14789063Y-13878674D02*
X14798587Y-13869150D01*
X14798587Y-13869150D02*
X14817634Y-13840579D01*
X14817634Y-13840579D02*
X14827158Y-13821531D01*
X14827158Y-13821531D02*
X14836682Y-13792960D01*
X14836682Y-13792960D02*
X14846206Y-13745341D01*
X14846206Y-13745341D02*
X14846206Y-13707246D01*
X14846206Y-13707246D02*
X14836682Y-13659627D01*
X14836682Y-13659627D02*
X14827158Y-13631055D01*
X14827158Y-13631055D02*
X14817634Y-13612008D01*
X14817634Y-13612008D02*
X14798587Y-13583436D01*
X14798587Y-13583436D02*
X14789063Y-13573912D01*
D10*
X9999356Y-14010356D02*
X9999356Y-13939644D01*
X9928644Y-13939644D01*
X9928644Y-14010356D01*
X9999356Y-14010356D01*
D11*
X10379539Y-14066484D02*
X10265253Y-14066484D01*
X10322396Y-14066484D02*
X10322396Y-13866484D01*
X10322396Y-13866484D02*
X10303348Y-13895055D01*
X10303348Y-13895055D02*
X10284301Y-13914103D01*
X10284301Y-13914103D02*
X10265253Y-13923627D01*
X10465253Y-14047436D02*
X10474777Y-14056960D01*
X10474777Y-14056960D02*
X10465253Y-14066484D01*
X10465253Y-14066484D02*
X10455729Y-14056960D01*
X10455729Y-14056960D02*
X10465253Y-14047436D01*
X10465253Y-14047436D02*
X10465253Y-14066484D01*
X10598586Y-13866484D02*
X10617634Y-13866484D01*
X10617634Y-13866484D02*
X10636682Y-13876008D01*
X10636682Y-13876008D02*
X10646205Y-13885531D01*
X10646205Y-13885531D02*
X10655729Y-13904579D01*
X10655729Y-13904579D02*
X10665253Y-13942674D01*
X10665253Y-13942674D02*
X10665253Y-13990293D01*
X10665253Y-13990293D02*
X10655729Y-14028388D01*
X10655729Y-14028388D02*
X10646205Y-14047436D01*
X10646205Y-14047436D02*
X10636682Y-14056960D01*
X10636682Y-14056960D02*
X10617634Y-14066484D01*
X10617634Y-14066484D02*
X10598586Y-14066484D01*
X10598586Y-14066484D02*
X10579539Y-14056960D01*
X10579539Y-14056960D02*
X10570015Y-14047436D01*
X10570015Y-14047436D02*
X10560491Y-14028388D01*
X10560491Y-14028388D02*
X10550967Y-13990293D01*
X10550967Y-13990293D02*
X10550967Y-13942674D01*
X10550967Y-13942674D02*
X10560491Y-13904579D01*
X10560491Y-13904579D02*
X10570015Y-13885531D01*
X10570015Y-13885531D02*
X10579539Y-13876008D01*
X10579539Y-13876008D02*
X10598586Y-13866484D01*
X10789063Y-13866484D02*
X10808110Y-13866484D01*
X10808110Y-13866484D02*
X10827158Y-13876008D01*
X10827158Y-13876008D02*
X10836682Y-13885531D01*
X10836682Y-13885531D02*
X10846205Y-13904579D01*
X10846205Y-13904579D02*
X10855729Y-13942674D01*
X10855729Y-13942674D02*
X10855729Y-13990293D01*
X10855729Y-13990293D02*
X10846205Y-14028388D01*
X10846205Y-14028388D02*
X10836682Y-14047436D01*
X10836682Y-14047436D02*
X10827158Y-14056960D01*
X10827158Y-14056960D02*
X10808110Y-14066484D01*
X10808110Y-14066484D02*
X10789063Y-14066484D01*
X10789063Y-14066484D02*
X10770015Y-14056960D01*
X10770015Y-14056960D02*
X10760491Y-14047436D01*
X10760491Y-14047436D02*
X10750967Y-14028388D01*
X10750967Y-14028388D02*
X10741444Y-13990293D01*
X10741444Y-13990293D02*
X10741444Y-13942674D01*
X10741444Y-13942674D02*
X10750967Y-13904579D01*
X10750967Y-13904579D02*
X10760491Y-13885531D01*
X10760491Y-13885531D02*
X10770015Y-13876008D01*
X10770015Y-13876008D02*
X10789063Y-13866484D01*
X10979539Y-13866484D02*
X10998586Y-13866484D01*
X10998586Y-13866484D02*
X11017634Y-13876008D01*
X11017634Y-13876008D02*
X11027158Y-13885531D01*
X11027158Y-13885531D02*
X11036682Y-13904579D01*
X11036682Y-13904579D02*
X11046205Y-13942674D01*
X11046205Y-13942674D02*
X11046205Y-13990293D01*
X11046205Y-13990293D02*
X11036682Y-14028388D01*
X11036682Y-14028388D02*
X11027158Y-14047436D01*
X11027158Y-14047436D02*
X11017634Y-14056960D01*
X11017634Y-14056960D02*
X10998586Y-14066484D01*
X10998586Y-14066484D02*
X10979539Y-14066484D01*
X10979539Y-14066484D02*
X10960491Y-14056960D01*
X10960491Y-14056960D02*
X10950967Y-14047436D01*
X10950967Y-14047436D02*
X10941444Y-14028388D01*
X10941444Y-14028388D02*
X10931920Y-13990293D01*
X10931920Y-13990293D02*
X10931920Y-13942674D01*
X10931920Y-13942674D02*
X10941444Y-13904579D01*
X10941444Y-13904579D02*
X10950967Y-13885531D01*
X10950967Y-13885531D02*
X10960491Y-13876008D01*
X10960491Y-13876008D02*
X10979539Y-13866484D01*
X11131920Y-14066484D02*
X11131920Y-13933150D01*
X11131920Y-13952198D02*
X11141444Y-13942674D01*
X11141444Y-13942674D02*
X11160491Y-13933150D01*
X11160491Y-13933150D02*
X11189063Y-13933150D01*
X11189063Y-13933150D02*
X11208110Y-13942674D01*
X11208110Y-13942674D02*
X11217634Y-13961722D01*
X11217634Y-13961722D02*
X11217634Y-14066484D01*
X11217634Y-13961722D02*
X11227158Y-13942674D01*
X11227158Y-13942674D02*
X11246205Y-13933150D01*
X11246205Y-13933150D02*
X11274777Y-13933150D01*
X11274777Y-13933150D02*
X11293824Y-13942674D01*
X11293824Y-13942674D02*
X11303348Y-13961722D01*
X11303348Y-13961722D02*
X11303348Y-14066484D01*
X11398586Y-14066484D02*
X11398586Y-13933150D01*
X11398586Y-13952198D02*
X11408110Y-13942674D01*
X11408110Y-13942674D02*
X11427158Y-13933150D01*
X11427158Y-13933150D02*
X11455729Y-13933150D01*
X11455729Y-13933150D02*
X11474777Y-13942674D01*
X11474777Y-13942674D02*
X11484301Y-13961722D01*
X11484301Y-13961722D02*
X11484301Y-14066484D01*
X11484301Y-13961722D02*
X11493824Y-13942674D01*
X11493824Y-13942674D02*
X11512872Y-13933150D01*
X11512872Y-13933150D02*
X11541443Y-13933150D01*
X11541443Y-13933150D02*
X11560491Y-13942674D01*
X11560491Y-13942674D02*
X11570015Y-13961722D01*
X11570015Y-13961722D02*
X11570015Y-14066484D01*
X11960491Y-13856960D02*
X11789063Y-14114103D01*
X12217634Y-13866484D02*
X12236682Y-13866484D01*
X12236682Y-13866484D02*
X12255729Y-13876008D01*
X12255729Y-13876008D02*
X12265253Y-13885531D01*
X12265253Y-13885531D02*
X12274777Y-13904579D01*
X12274777Y-13904579D02*
X12284301Y-13942674D01*
X12284301Y-13942674D02*
X12284301Y-13990293D01*
X12284301Y-13990293D02*
X12274777Y-14028388D01*
X12274777Y-14028388D02*
X12265253Y-14047436D01*
X12265253Y-14047436D02*
X12255729Y-14056960D01*
X12255729Y-14056960D02*
X12236682Y-14066484D01*
X12236682Y-14066484D02*
X12217634Y-14066484D01*
X12217634Y-14066484D02*
X12198586Y-14056960D01*
X12198586Y-14056960D02*
X12189063Y-14047436D01*
X12189063Y-14047436D02*
X12179539Y-14028388D01*
X12179539Y-14028388D02*
X12170015Y-13990293D01*
X12170015Y-13990293D02*
X12170015Y-13942674D01*
X12170015Y-13942674D02*
X12179539Y-13904579D01*
X12179539Y-13904579D02*
X12189063Y-13885531D01*
X12189063Y-13885531D02*
X12198586Y-13876008D01*
X12198586Y-13876008D02*
X12217634Y-13866484D01*
X12370015Y-14047436D02*
X12379539Y-14056960D01*
X12379539Y-14056960D02*
X12370015Y-14066484D01*
X12370015Y-14066484D02*
X12360491Y-14056960D01*
X12360491Y-14056960D02*
X12370015Y-14047436D01*
X12370015Y-14047436D02*
X12370015Y-14066484D01*
X12503348Y-13866484D02*
X12522396Y-13866484D01*
X12522396Y-13866484D02*
X12541444Y-13876008D01*
X12541444Y-13876008D02*
X12550967Y-13885531D01*
X12550967Y-13885531D02*
X12560491Y-13904579D01*
X12560491Y-13904579D02*
X12570015Y-13942674D01*
X12570015Y-13942674D02*
X12570015Y-13990293D01*
X12570015Y-13990293D02*
X12560491Y-14028388D01*
X12560491Y-14028388D02*
X12550967Y-14047436D01*
X12550967Y-14047436D02*
X12541444Y-14056960D01*
X12541444Y-14056960D02*
X12522396Y-14066484D01*
X12522396Y-14066484D02*
X12503348Y-14066484D01*
X12503348Y-14066484D02*
X12484301Y-14056960D01*
X12484301Y-14056960D02*
X12474777Y-14047436D01*
X12474777Y-14047436D02*
X12465253Y-14028388D01*
X12465253Y-14028388D02*
X12455729Y-13990293D01*
X12455729Y-13990293D02*
X12455729Y-13942674D01*
X12455729Y-13942674D02*
X12465253Y-13904579D01*
X12465253Y-13904579D02*
X12474777Y-13885531D01*
X12474777Y-13885531D02*
X12484301Y-13876008D01*
X12484301Y-13876008D02*
X12503348Y-13866484D01*
X12636682Y-13866484D02*
X12760491Y-13866484D01*
X12760491Y-13866484D02*
X12693825Y-13942674D01*
X12693825Y-13942674D02*
X12722396Y-13942674D01*
X12722396Y-13942674D02*
X12741444Y-13952198D01*
X12741444Y-13952198D02*
X12750967Y-13961722D01*
X12750967Y-13961722D02*
X12760491Y-13980769D01*
X12760491Y-13980769D02*
X12760491Y-14028388D01*
X12760491Y-14028388D02*
X12750967Y-14047436D01*
X12750967Y-14047436D02*
X12741444Y-14056960D01*
X12741444Y-14056960D02*
X12722396Y-14066484D01*
X12722396Y-14066484D02*
X12665253Y-14066484D01*
X12665253Y-14066484D02*
X12646206Y-14056960D01*
X12646206Y-14056960D02*
X12636682Y-14047436D01*
X12855729Y-14066484D02*
X12893825Y-14066484D01*
X12893825Y-14066484D02*
X12912872Y-14056960D01*
X12912872Y-14056960D02*
X12922396Y-14047436D01*
X12922396Y-14047436D02*
X12941444Y-14018865D01*
X12941444Y-14018865D02*
X12950967Y-13980769D01*
X12950967Y-13980769D02*
X12950967Y-13904579D01*
X12950967Y-13904579D02*
X12941444Y-13885531D01*
X12941444Y-13885531D02*
X12931920Y-13876008D01*
X12931920Y-13876008D02*
X12912872Y-13866484D01*
X12912872Y-13866484D02*
X12874777Y-13866484D01*
X12874777Y-13866484D02*
X12855729Y-13876008D01*
X12855729Y-13876008D02*
X12846206Y-13885531D01*
X12846206Y-13885531D02*
X12836682Y-13904579D01*
X12836682Y-13904579D02*
X12836682Y-13952198D01*
X12836682Y-13952198D02*
X12846206Y-13971246D01*
X12846206Y-13971246D02*
X12855729Y-13980769D01*
X12855729Y-13980769D02*
X12874777Y-13990293D01*
X12874777Y-13990293D02*
X12912872Y-13990293D01*
X12912872Y-13990293D02*
X12931920Y-13980769D01*
X12931920Y-13980769D02*
X12941444Y-13971246D01*
X12941444Y-13971246D02*
X12950967Y-13952198D01*
X13122396Y-13933150D02*
X13122396Y-14066484D01*
X13074777Y-13856960D02*
X13027158Y-13999817D01*
X13027158Y-13999817D02*
X13150967Y-13999817D01*
X13217634Y-13866484D02*
X13217634Y-13904579D01*
X13293825Y-13866484D02*
X13293825Y-13904579D01*
X13589063Y-14142674D02*
X13579539Y-14133150D01*
X13579539Y-14133150D02*
X13560491Y-14104579D01*
X13560491Y-14104579D02*
X13550968Y-14085531D01*
X13550968Y-14085531D02*
X13541444Y-14056960D01*
X13541444Y-14056960D02*
X13531920Y-14009341D01*
X13531920Y-14009341D02*
X13531920Y-13971246D01*
X13531920Y-13971246D02*
X13541444Y-13923627D01*
X13541444Y-13923627D02*
X13550968Y-13895055D01*
X13550968Y-13895055D02*
X13560491Y-13876008D01*
X13560491Y-13876008D02*
X13579539Y-13847436D01*
X13579539Y-13847436D02*
X13589063Y-13837912D01*
X13750968Y-13933150D02*
X13750968Y-14066484D01*
X13703348Y-13856960D02*
X13655729Y-13999817D01*
X13655729Y-13999817D02*
X13779539Y-13999817D01*
X13893825Y-13866484D02*
X13912872Y-13866484D01*
X13912872Y-13866484D02*
X13931920Y-13876008D01*
X13931920Y-13876008D02*
X13941444Y-13885531D01*
X13941444Y-13885531D02*
X13950968Y-13904579D01*
X13950968Y-13904579D02*
X13960491Y-13942674D01*
X13960491Y-13942674D02*
X13960491Y-13990293D01*
X13960491Y-13990293D02*
X13950968Y-14028388D01*
X13950968Y-14028388D02*
X13941444Y-14047436D01*
X13941444Y-14047436D02*
X13931920Y-14056960D01*
X13931920Y-14056960D02*
X13912872Y-14066484D01*
X13912872Y-14066484D02*
X13893825Y-14066484D01*
X13893825Y-14066484D02*
X13874777Y-14056960D01*
X13874777Y-14056960D02*
X13865253Y-14047436D01*
X13865253Y-14047436D02*
X13855729Y-14028388D01*
X13855729Y-14028388D02*
X13846206Y-13990293D01*
X13846206Y-13990293D02*
X13846206Y-13942674D01*
X13846206Y-13942674D02*
X13855729Y-13904579D01*
X13855729Y-13904579D02*
X13865253Y-13885531D01*
X13865253Y-13885531D02*
X13874777Y-13876008D01*
X13874777Y-13876008D02*
X13893825Y-13866484D01*
X14198587Y-14066484D02*
X14198587Y-13866484D01*
X14284301Y-14066484D02*
X14284301Y-13961722D01*
X14284301Y-13961722D02*
X14274777Y-13942674D01*
X14274777Y-13942674D02*
X14255730Y-13933150D01*
X14255730Y-13933150D02*
X14227158Y-13933150D01*
X14227158Y-13933150D02*
X14208110Y-13942674D01*
X14208110Y-13942674D02*
X14198587Y-13952198D01*
X14408110Y-14066484D02*
X14389063Y-14056960D01*
X14389063Y-14056960D02*
X14379539Y-14047436D01*
X14379539Y-14047436D02*
X14370015Y-14028388D01*
X14370015Y-14028388D02*
X14370015Y-13971246D01*
X14370015Y-13971246D02*
X14379539Y-13952198D01*
X14379539Y-13952198D02*
X14389063Y-13942674D01*
X14389063Y-13942674D02*
X14408110Y-13933150D01*
X14408110Y-13933150D02*
X14436682Y-13933150D01*
X14436682Y-13933150D02*
X14455730Y-13942674D01*
X14455730Y-13942674D02*
X14465253Y-13952198D01*
X14465253Y-13952198D02*
X14474777Y-13971246D01*
X14474777Y-13971246D02*
X14474777Y-14028388D01*
X14474777Y-14028388D02*
X14465253Y-14047436D01*
X14465253Y-14047436D02*
X14455730Y-14056960D01*
X14455730Y-14056960D02*
X14436682Y-14066484D01*
X14436682Y-14066484D02*
X14408110Y-14066484D01*
X14589063Y-14066484D02*
X14570015Y-14056960D01*
X14570015Y-14056960D02*
X14560491Y-14037912D01*
X14560491Y-14037912D02*
X14560491Y-13866484D01*
X14741444Y-14056960D02*
X14722396Y-14066484D01*
X14722396Y-14066484D02*
X14684301Y-14066484D01*
X14684301Y-14066484D02*
X14665253Y-14056960D01*
X14665253Y-14056960D02*
X14655730Y-14037912D01*
X14655730Y-14037912D02*
X14655730Y-13961722D01*
X14655730Y-13961722D02*
X14665253Y-13942674D01*
X14665253Y-13942674D02*
X14684301Y-13933150D01*
X14684301Y-13933150D02*
X14722396Y-13933150D01*
X14722396Y-13933150D02*
X14741444Y-13942674D01*
X14741444Y-13942674D02*
X14750968Y-13961722D01*
X14750968Y-13961722D02*
X14750968Y-13980769D01*
X14750968Y-13980769D02*
X14655730Y-13999817D01*
X14827158Y-14056960D02*
X14846206Y-14066484D01*
X14846206Y-14066484D02*
X14884301Y-14066484D01*
X14884301Y-14066484D02*
X14903349Y-14056960D01*
X14903349Y-14056960D02*
X14912872Y-14037912D01*
X14912872Y-14037912D02*
X14912872Y-14028388D01*
X14912872Y-14028388D02*
X14903349Y-14009341D01*
X14903349Y-14009341D02*
X14884301Y-13999817D01*
X14884301Y-13999817D02*
X14855730Y-13999817D01*
X14855730Y-13999817D02*
X14836682Y-13990293D01*
X14836682Y-13990293D02*
X14827158Y-13971246D01*
X14827158Y-13971246D02*
X14827158Y-13961722D01*
X14827158Y-13961722D02*
X14836682Y-13942674D01*
X14836682Y-13942674D02*
X14855730Y-13933150D01*
X14855730Y-13933150D02*
X14884301Y-13933150D01*
X14884301Y-13933150D02*
X14903349Y-13942674D01*
X15150968Y-13990293D02*
X15303349Y-13990293D01*
X15227158Y-14066484D02*
X15227158Y-13914103D01*
X15655730Y-14066484D02*
X15541444Y-14066484D01*
X15598587Y-14066484D02*
X15598587Y-13866484D01*
X15598587Y-13866484D02*
X15579539Y-13895055D01*
X15579539Y-13895055D02*
X15560492Y-13914103D01*
X15560492Y-13914103D02*
X15541444Y-13923627D01*
X15884301Y-14056960D02*
X15903349Y-14066484D01*
X15903349Y-14066484D02*
X15941444Y-14066484D01*
X15941444Y-14066484D02*
X15960492Y-14056960D01*
X15960492Y-14056960D02*
X15970015Y-14037912D01*
X15970015Y-14037912D02*
X15970015Y-14028388D01*
X15970015Y-14028388D02*
X15960492Y-14009341D01*
X15960492Y-14009341D02*
X15941444Y-13999817D01*
X15941444Y-13999817D02*
X15912873Y-13999817D01*
X15912873Y-13999817D02*
X15893825Y-13990293D01*
X15893825Y-13990293D02*
X15884301Y-13971246D01*
X15884301Y-13971246D02*
X15884301Y-13961722D01*
X15884301Y-13961722D02*
X15893825Y-13942674D01*
X15893825Y-13942674D02*
X15912873Y-13933150D01*
X15912873Y-13933150D02*
X15941444Y-13933150D01*
X15941444Y-13933150D02*
X15960492Y-13942674D01*
X16084301Y-14066484D02*
X16065254Y-14056960D01*
X16065254Y-14056960D02*
X16055730Y-14037912D01*
X16055730Y-14037912D02*
X16055730Y-13866484D01*
X16189063Y-14066484D02*
X16170015Y-14056960D01*
X16170015Y-14056960D02*
X16160492Y-14047436D01*
X16160492Y-14047436D02*
X16150968Y-14028388D01*
X16150968Y-14028388D02*
X16150968Y-13971246D01*
X16150968Y-13971246D02*
X16160492Y-13952198D01*
X16160492Y-13952198D02*
X16170015Y-13942674D01*
X16170015Y-13942674D02*
X16189063Y-13933150D01*
X16189063Y-13933150D02*
X16217635Y-13933150D01*
X16217635Y-13933150D02*
X16236682Y-13942674D01*
X16236682Y-13942674D02*
X16246206Y-13952198D01*
X16246206Y-13952198D02*
X16255730Y-13971246D01*
X16255730Y-13971246D02*
X16255730Y-14028388D01*
X16255730Y-14028388D02*
X16246206Y-14047436D01*
X16246206Y-14047436D02*
X16236682Y-14056960D01*
X16236682Y-14056960D02*
X16217635Y-14066484D01*
X16217635Y-14066484D02*
X16189063Y-14066484D01*
X16312873Y-13933150D02*
X16389063Y-13933150D01*
X16341444Y-13866484D02*
X16341444Y-14037912D01*
X16341444Y-14037912D02*
X16350968Y-14056960D01*
X16350968Y-14056960D02*
X16370015Y-14066484D01*
X16370015Y-14066484D02*
X16389063Y-14066484D01*
X16436682Y-14142674D02*
X16446206Y-14133150D01*
X16446206Y-14133150D02*
X16465254Y-14104579D01*
X16465254Y-14104579D02*
X16474777Y-14085531D01*
X16474777Y-14085531D02*
X16484301Y-14056960D01*
X16484301Y-14056960D02*
X16493825Y-14009341D01*
X16493825Y-14009341D02*
X16493825Y-13971246D01*
X16493825Y-13971246D02*
X16484301Y-13923627D01*
X16484301Y-13923627D02*
X16474777Y-13895055D01*
X16474777Y-13895055D02*
X16465254Y-13876008D01*
X16465254Y-13876008D02*
X16446206Y-13847436D01*
X16446206Y-13847436D02*
X16436682Y-13837912D01*
D15*
X9959000Y-14294000D02*
X10014000Y-14239000D01*
X9959000Y-14184000D01*
X9904000Y-14239000D01*
X9959000Y-14294000D01*
D11*
X10379539Y-14330484D02*
X10265253Y-14330484D01*
X10322396Y-14330484D02*
X10322396Y-14130484D01*
X10322396Y-14130484D02*
X10303348Y-14159055D01*
X10303348Y-14159055D02*
X10284301Y-14178103D01*
X10284301Y-14178103D02*
X10265253Y-14187627D01*
X10465253Y-14311436D02*
X10474777Y-14320960D01*
X10474777Y-14320960D02*
X10465253Y-14330484D01*
X10465253Y-14330484D02*
X10455729Y-14320960D01*
X10455729Y-14320960D02*
X10465253Y-14311436D01*
X10465253Y-14311436D02*
X10465253Y-14330484D01*
X10665253Y-14330484D02*
X10550967Y-14330484D01*
X10608110Y-14330484D02*
X10608110Y-14130484D01*
X10608110Y-14130484D02*
X10589063Y-14159055D01*
X10589063Y-14159055D02*
X10570015Y-14178103D01*
X10570015Y-14178103D02*
X10550967Y-14187627D01*
X10789063Y-14130484D02*
X10808110Y-14130484D01*
X10808110Y-14130484D02*
X10827158Y-14140008D01*
X10827158Y-14140008D02*
X10836682Y-14149531D01*
X10836682Y-14149531D02*
X10846205Y-14168579D01*
X10846205Y-14168579D02*
X10855729Y-14206674D01*
X10855729Y-14206674D02*
X10855729Y-14254293D01*
X10855729Y-14254293D02*
X10846205Y-14292388D01*
X10846205Y-14292388D02*
X10836682Y-14311436D01*
X10836682Y-14311436D02*
X10827158Y-14320960D01*
X10827158Y-14320960D02*
X10808110Y-14330484D01*
X10808110Y-14330484D02*
X10789063Y-14330484D01*
X10789063Y-14330484D02*
X10770015Y-14320960D01*
X10770015Y-14320960D02*
X10760491Y-14311436D01*
X10760491Y-14311436D02*
X10750967Y-14292388D01*
X10750967Y-14292388D02*
X10741444Y-14254293D01*
X10741444Y-14254293D02*
X10741444Y-14206674D01*
X10741444Y-14206674D02*
X10750967Y-14168579D01*
X10750967Y-14168579D02*
X10760491Y-14149531D01*
X10760491Y-14149531D02*
X10770015Y-14140008D01*
X10770015Y-14140008D02*
X10789063Y-14130484D01*
X10979539Y-14130484D02*
X10998586Y-14130484D01*
X10998586Y-14130484D02*
X11017634Y-14140008D01*
X11017634Y-14140008D02*
X11027158Y-14149531D01*
X11027158Y-14149531D02*
X11036682Y-14168579D01*
X11036682Y-14168579D02*
X11046205Y-14206674D01*
X11046205Y-14206674D02*
X11046205Y-14254293D01*
X11046205Y-14254293D02*
X11036682Y-14292388D01*
X11036682Y-14292388D02*
X11027158Y-14311436D01*
X11027158Y-14311436D02*
X11017634Y-14320960D01*
X11017634Y-14320960D02*
X10998586Y-14330484D01*
X10998586Y-14330484D02*
X10979539Y-14330484D01*
X10979539Y-14330484D02*
X10960491Y-14320960D01*
X10960491Y-14320960D02*
X10950967Y-14311436D01*
X10950967Y-14311436D02*
X10941444Y-14292388D01*
X10941444Y-14292388D02*
X10931920Y-14254293D01*
X10931920Y-14254293D02*
X10931920Y-14206674D01*
X10931920Y-14206674D02*
X10941444Y-14168579D01*
X10941444Y-14168579D02*
X10950967Y-14149531D01*
X10950967Y-14149531D02*
X10960491Y-14140008D01*
X10960491Y-14140008D02*
X10979539Y-14130484D01*
X11131920Y-14330484D02*
X11131920Y-14197150D01*
X11131920Y-14216198D02*
X11141444Y-14206674D01*
X11141444Y-14206674D02*
X11160491Y-14197150D01*
X11160491Y-14197150D02*
X11189063Y-14197150D01*
X11189063Y-14197150D02*
X11208110Y-14206674D01*
X11208110Y-14206674D02*
X11217634Y-14225722D01*
X11217634Y-14225722D02*
X11217634Y-14330484D01*
X11217634Y-14225722D02*
X11227158Y-14206674D01*
X11227158Y-14206674D02*
X11246205Y-14197150D01*
X11246205Y-14197150D02*
X11274777Y-14197150D01*
X11274777Y-14197150D02*
X11293824Y-14206674D01*
X11293824Y-14206674D02*
X11303348Y-14225722D01*
X11303348Y-14225722D02*
X11303348Y-14330484D01*
X11398586Y-14330484D02*
X11398586Y-14197150D01*
X11398586Y-14216198D02*
X11408110Y-14206674D01*
X11408110Y-14206674D02*
X11427158Y-14197150D01*
X11427158Y-14197150D02*
X11455729Y-14197150D01*
X11455729Y-14197150D02*
X11474777Y-14206674D01*
X11474777Y-14206674D02*
X11484301Y-14225722D01*
X11484301Y-14225722D02*
X11484301Y-14330484D01*
X11484301Y-14225722D02*
X11493824Y-14206674D01*
X11493824Y-14206674D02*
X11512872Y-14197150D01*
X11512872Y-14197150D02*
X11541443Y-14197150D01*
X11541443Y-14197150D02*
X11560491Y-14206674D01*
X11560491Y-14206674D02*
X11570015Y-14225722D01*
X11570015Y-14225722D02*
X11570015Y-14330484D01*
X11960491Y-14120960D02*
X11789063Y-14378103D01*
X12217634Y-14130484D02*
X12236682Y-14130484D01*
X12236682Y-14130484D02*
X12255729Y-14140008D01*
X12255729Y-14140008D02*
X12265253Y-14149531D01*
X12265253Y-14149531D02*
X12274777Y-14168579D01*
X12274777Y-14168579D02*
X12284301Y-14206674D01*
X12284301Y-14206674D02*
X12284301Y-14254293D01*
X12284301Y-14254293D02*
X12274777Y-14292388D01*
X12274777Y-14292388D02*
X12265253Y-14311436D01*
X12265253Y-14311436D02*
X12255729Y-14320960D01*
X12255729Y-14320960D02*
X12236682Y-14330484D01*
X12236682Y-14330484D02*
X12217634Y-14330484D01*
X12217634Y-14330484D02*
X12198586Y-14320960D01*
X12198586Y-14320960D02*
X12189063Y-14311436D01*
X12189063Y-14311436D02*
X12179539Y-14292388D01*
X12179539Y-14292388D02*
X12170015Y-14254293D01*
X12170015Y-14254293D02*
X12170015Y-14206674D01*
X12170015Y-14206674D02*
X12179539Y-14168579D01*
X12179539Y-14168579D02*
X12189063Y-14149531D01*
X12189063Y-14149531D02*
X12198586Y-14140008D01*
X12198586Y-14140008D02*
X12217634Y-14130484D01*
X12370015Y-14311436D02*
X12379539Y-14320960D01*
X12379539Y-14320960D02*
X12370015Y-14330484D01*
X12370015Y-14330484D02*
X12360491Y-14320960D01*
X12360491Y-14320960D02*
X12370015Y-14311436D01*
X12370015Y-14311436D02*
X12370015Y-14330484D01*
X12503348Y-14130484D02*
X12522396Y-14130484D01*
X12522396Y-14130484D02*
X12541444Y-14140008D01*
X12541444Y-14140008D02*
X12550967Y-14149531D01*
X12550967Y-14149531D02*
X12560491Y-14168579D01*
X12560491Y-14168579D02*
X12570015Y-14206674D01*
X12570015Y-14206674D02*
X12570015Y-14254293D01*
X12570015Y-14254293D02*
X12560491Y-14292388D01*
X12560491Y-14292388D02*
X12550967Y-14311436D01*
X12550967Y-14311436D02*
X12541444Y-14320960D01*
X12541444Y-14320960D02*
X12522396Y-14330484D01*
X12522396Y-14330484D02*
X12503348Y-14330484D01*
X12503348Y-14330484D02*
X12484301Y-14320960D01*
X12484301Y-14320960D02*
X12474777Y-14311436D01*
X12474777Y-14311436D02*
X12465253Y-14292388D01*
X12465253Y-14292388D02*
X12455729Y-14254293D01*
X12455729Y-14254293D02*
X12455729Y-14206674D01*
X12455729Y-14206674D02*
X12465253Y-14168579D01*
X12465253Y-14168579D02*
X12474777Y-14149531D01*
X12474777Y-14149531D02*
X12484301Y-14140008D01*
X12484301Y-14140008D02*
X12503348Y-14130484D01*
X12741444Y-14197150D02*
X12741444Y-14330484D01*
X12693825Y-14120960D02*
X12646206Y-14263817D01*
X12646206Y-14263817D02*
X12770015Y-14263817D01*
X12827158Y-14130484D02*
X12950967Y-14130484D01*
X12950967Y-14130484D02*
X12884301Y-14206674D01*
X12884301Y-14206674D02*
X12912872Y-14206674D01*
X12912872Y-14206674D02*
X12931920Y-14216198D01*
X12931920Y-14216198D02*
X12941444Y-14225722D01*
X12941444Y-14225722D02*
X12950967Y-14244769D01*
X12950967Y-14244769D02*
X12950967Y-14292388D01*
X12950967Y-14292388D02*
X12941444Y-14311436D01*
X12941444Y-14311436D02*
X12931920Y-14320960D01*
X12931920Y-14320960D02*
X12912872Y-14330484D01*
X12912872Y-14330484D02*
X12855729Y-14330484D01*
X12855729Y-14330484D02*
X12836682Y-14320960D01*
X12836682Y-14320960D02*
X12827158Y-14311436D01*
X13017634Y-14130484D02*
X13141444Y-14130484D01*
X13141444Y-14130484D02*
X13074777Y-14206674D01*
X13074777Y-14206674D02*
X13103348Y-14206674D01*
X13103348Y-14206674D02*
X13122396Y-14216198D01*
X13122396Y-14216198D02*
X13131920Y-14225722D01*
X13131920Y-14225722D02*
X13141444Y-14244769D01*
X13141444Y-14244769D02*
X13141444Y-14292388D01*
X13141444Y-14292388D02*
X13131920Y-14311436D01*
X13131920Y-14311436D02*
X13122396Y-14320960D01*
X13122396Y-14320960D02*
X13103348Y-14330484D01*
X13103348Y-14330484D02*
X13046206Y-14330484D01*
X13046206Y-14330484D02*
X13027158Y-14320960D01*
X13027158Y-14320960D02*
X13017634Y-14311436D01*
X13217634Y-14130484D02*
X13217634Y-14168579D01*
X13293825Y-14130484D02*
X13293825Y-14168579D01*
X13589063Y-14406674D02*
X13579539Y-14397150D01*
X13579539Y-14397150D02*
X13560491Y-14368579D01*
X13560491Y-14368579D02*
X13550968Y-14349531D01*
X13550968Y-14349531D02*
X13541444Y-14320960D01*
X13541444Y-14320960D02*
X13531920Y-14273341D01*
X13531920Y-14273341D02*
X13531920Y-14235246D01*
X13531920Y-14235246D02*
X13541444Y-14187627D01*
X13541444Y-14187627D02*
X13550968Y-14159055D01*
X13550968Y-14159055D02*
X13560491Y-14140008D01*
X13560491Y-14140008D02*
X13579539Y-14111436D01*
X13579539Y-14111436D02*
X13589063Y-14101912D01*
X13703348Y-14130484D02*
X13722396Y-14130484D01*
X13722396Y-14130484D02*
X13741444Y-14140008D01*
X13741444Y-14140008D02*
X13750968Y-14149531D01*
X13750968Y-14149531D02*
X13760491Y-14168579D01*
X13760491Y-14168579D02*
X13770015Y-14206674D01*
X13770015Y-14206674D02*
X13770015Y-14254293D01*
X13770015Y-14254293D02*
X13760491Y-14292388D01*
X13760491Y-14292388D02*
X13750968Y-14311436D01*
X13750968Y-14311436D02*
X13741444Y-14320960D01*
X13741444Y-14320960D02*
X13722396Y-14330484D01*
X13722396Y-14330484D02*
X13703348Y-14330484D01*
X13703348Y-14330484D02*
X13684301Y-14320960D01*
X13684301Y-14320960D02*
X13674777Y-14311436D01*
X13674777Y-14311436D02*
X13665253Y-14292388D01*
X13665253Y-14292388D02*
X13655729Y-14254293D01*
X13655729Y-14254293D02*
X13655729Y-14206674D01*
X13655729Y-14206674D02*
X13665253Y-14168579D01*
X13665253Y-14168579D02*
X13674777Y-14149531D01*
X13674777Y-14149531D02*
X13684301Y-14140008D01*
X13684301Y-14140008D02*
X13703348Y-14130484D01*
X14008110Y-14330484D02*
X14008110Y-14130484D01*
X14093825Y-14330484D02*
X14093825Y-14225722D01*
X14093825Y-14225722D02*
X14084301Y-14206674D01*
X14084301Y-14206674D02*
X14065253Y-14197150D01*
X14065253Y-14197150D02*
X14036682Y-14197150D01*
X14036682Y-14197150D02*
X14017634Y-14206674D01*
X14017634Y-14206674D02*
X14008110Y-14216198D01*
X14217634Y-14330484D02*
X14198587Y-14320960D01*
X14198587Y-14320960D02*
X14189063Y-14311436D01*
X14189063Y-14311436D02*
X14179539Y-14292388D01*
X14179539Y-14292388D02*
X14179539Y-14235246D01*
X14179539Y-14235246D02*
X14189063Y-14216198D01*
X14189063Y-14216198D02*
X14198587Y-14206674D01*
X14198587Y-14206674D02*
X14217634Y-14197150D01*
X14217634Y-14197150D02*
X14246206Y-14197150D01*
X14246206Y-14197150D02*
X14265253Y-14206674D01*
X14265253Y-14206674D02*
X14274777Y-14216198D01*
X14274777Y-14216198D02*
X14284301Y-14235246D01*
X14284301Y-14235246D02*
X14284301Y-14292388D01*
X14284301Y-14292388D02*
X14274777Y-14311436D01*
X14274777Y-14311436D02*
X14265253Y-14320960D01*
X14265253Y-14320960D02*
X14246206Y-14330484D01*
X14246206Y-14330484D02*
X14217634Y-14330484D01*
X14398587Y-14330484D02*
X14379539Y-14320960D01*
X14379539Y-14320960D02*
X14370015Y-14301912D01*
X14370015Y-14301912D02*
X14370015Y-14130484D01*
X14550968Y-14320960D02*
X14531920Y-14330484D01*
X14531920Y-14330484D02*
X14493825Y-14330484D01*
X14493825Y-14330484D02*
X14474777Y-14320960D01*
X14474777Y-14320960D02*
X14465253Y-14301912D01*
X14465253Y-14301912D02*
X14465253Y-14225722D01*
X14465253Y-14225722D02*
X14474777Y-14206674D01*
X14474777Y-14206674D02*
X14493825Y-14197150D01*
X14493825Y-14197150D02*
X14531920Y-14197150D01*
X14531920Y-14197150D02*
X14550968Y-14206674D01*
X14550968Y-14206674D02*
X14560491Y-14225722D01*
X14560491Y-14225722D02*
X14560491Y-14244769D01*
X14560491Y-14244769D02*
X14465253Y-14263817D01*
X14636682Y-14320960D02*
X14655730Y-14330484D01*
X14655730Y-14330484D02*
X14693825Y-14330484D01*
X14693825Y-14330484D02*
X14712872Y-14320960D01*
X14712872Y-14320960D02*
X14722396Y-14301912D01*
X14722396Y-14301912D02*
X14722396Y-14292388D01*
X14722396Y-14292388D02*
X14712872Y-14273341D01*
X14712872Y-14273341D02*
X14693825Y-14263817D01*
X14693825Y-14263817D02*
X14665253Y-14263817D01*
X14665253Y-14263817D02*
X14646206Y-14254293D01*
X14646206Y-14254293D02*
X14636682Y-14235246D01*
X14636682Y-14235246D02*
X14636682Y-14225722D01*
X14636682Y-14225722D02*
X14646206Y-14206674D01*
X14646206Y-14206674D02*
X14665253Y-14197150D01*
X14665253Y-14197150D02*
X14693825Y-14197150D01*
X14693825Y-14197150D02*
X14712872Y-14206674D01*
X14960492Y-14254293D02*
X15112873Y-14254293D01*
X15036682Y-14330484D02*
X15036682Y-14178103D01*
X15350968Y-14149531D02*
X15360492Y-14140008D01*
X15360492Y-14140008D02*
X15379539Y-14130484D01*
X15379539Y-14130484D02*
X15427158Y-14130484D01*
X15427158Y-14130484D02*
X15446206Y-14140008D01*
X15446206Y-14140008D02*
X15455730Y-14149531D01*
X15455730Y-14149531D02*
X15465253Y-14168579D01*
X15465253Y-14168579D02*
X15465253Y-14187627D01*
X15465253Y-14187627D02*
X15455730Y-14216198D01*
X15455730Y-14216198D02*
X15341444Y-14330484D01*
X15341444Y-14330484D02*
X15465253Y-14330484D01*
X15693825Y-14320960D02*
X15712873Y-14330484D01*
X15712873Y-14330484D02*
X15750968Y-14330484D01*
X15750968Y-14330484D02*
X15770015Y-14320960D01*
X15770015Y-14320960D02*
X15779539Y-14301912D01*
X15779539Y-14301912D02*
X15779539Y-14292388D01*
X15779539Y-14292388D02*
X15770015Y-14273341D01*
X15770015Y-14273341D02*
X15750968Y-14263817D01*
X15750968Y-14263817D02*
X15722396Y-14263817D01*
X15722396Y-14263817D02*
X15703349Y-14254293D01*
X15703349Y-14254293D02*
X15693825Y-14235246D01*
X15693825Y-14235246D02*
X15693825Y-14225722D01*
X15693825Y-14225722D02*
X15703349Y-14206674D01*
X15703349Y-14206674D02*
X15722396Y-14197150D01*
X15722396Y-14197150D02*
X15750968Y-14197150D01*
X15750968Y-14197150D02*
X15770015Y-14206674D01*
X15893825Y-14330484D02*
X15874777Y-14320960D01*
X15874777Y-14320960D02*
X15865254Y-14301912D01*
X15865254Y-14301912D02*
X15865254Y-14130484D01*
X15998587Y-14330484D02*
X15979539Y-14320960D01*
X15979539Y-14320960D02*
X15970015Y-14311436D01*
X15970015Y-14311436D02*
X15960492Y-14292388D01*
X15960492Y-14292388D02*
X15960492Y-14235246D01*
X15960492Y-14235246D02*
X15970015Y-14216198D01*
X15970015Y-14216198D02*
X15979539Y-14206674D01*
X15979539Y-14206674D02*
X15998587Y-14197150D01*
X15998587Y-14197150D02*
X16027158Y-14197150D01*
X16027158Y-14197150D02*
X16046206Y-14206674D01*
X16046206Y-14206674D02*
X16055730Y-14216198D01*
X16055730Y-14216198D02*
X16065254Y-14235246D01*
X16065254Y-14235246D02*
X16065254Y-14292388D01*
X16065254Y-14292388D02*
X16055730Y-14311436D01*
X16055730Y-14311436D02*
X16046206Y-14320960D01*
X16046206Y-14320960D02*
X16027158Y-14330484D01*
X16027158Y-14330484D02*
X15998587Y-14330484D01*
X16122396Y-14197150D02*
X16198587Y-14197150D01*
X16150968Y-14130484D02*
X16150968Y-14301912D01*
X16150968Y-14301912D02*
X16160492Y-14320960D01*
X16160492Y-14320960D02*
X16179539Y-14330484D01*
X16179539Y-14330484D02*
X16198587Y-14330484D01*
X16255730Y-14320960D02*
X16274777Y-14330484D01*
X16274777Y-14330484D02*
X16312873Y-14330484D01*
X16312873Y-14330484D02*
X16331920Y-14320960D01*
X16331920Y-14320960D02*
X16341444Y-14301912D01*
X16341444Y-14301912D02*
X16341444Y-14292388D01*
X16341444Y-14292388D02*
X16331920Y-14273341D01*
X16331920Y-14273341D02*
X16312873Y-14263817D01*
X16312873Y-14263817D02*
X16284301Y-14263817D01*
X16284301Y-14263817D02*
X16265254Y-14254293D01*
X16265254Y-14254293D02*
X16255730Y-14235246D01*
X16255730Y-14235246D02*
X16255730Y-14225722D01*
X16255730Y-14225722D02*
X16265254Y-14206674D01*
X16265254Y-14206674D02*
X16284301Y-14197150D01*
X16284301Y-14197150D02*
X16312873Y-14197150D01*
X16312873Y-14197150D02*
X16331920Y-14206674D01*
X16408111Y-14406674D02*
X16417635Y-14397150D01*
X16417635Y-14397150D02*
X16436682Y-14368579D01*
X16436682Y-14368579D02*
X16446206Y-14349531D01*
X16446206Y-14349531D02*
X16455730Y-14320960D01*
X16455730Y-14320960D02*
X16465254Y-14273341D01*
X16465254Y-14273341D02*
X16465254Y-14235246D01*
X16465254Y-14235246D02*
X16455730Y-14187627D01*
X16455730Y-14187627D02*
X16446206Y-14159055D01*
X16446206Y-14159055D02*
X16436682Y-14140008D01*
X16436682Y-14140008D02*
X16417635Y-14111436D01*
X16417635Y-14111436D02*
X16408111Y-14101912D01*
D16*
X9894000Y-14443000D02*
X10014000Y-14563000D01*
X10014000Y-14443000D02*
X9894000Y-14563000D01*
X10014000Y-14503000D02*
G75*
G03*
X10014000Y-14503000I-60000J0D01*
G01*
D11*
X10379539Y-14594484D02*
X10265253Y-14594484D01*
X10322396Y-14594484D02*
X10322396Y-14394484D01*
X10322396Y-14394484D02*
X10303348Y-14423055D01*
X10303348Y-14423055D02*
X10284301Y-14442103D01*
X10284301Y-14442103D02*
X10265253Y-14451627D01*
X10465253Y-14575436D02*
X10474777Y-14584960D01*
X10474777Y-14584960D02*
X10465253Y-14594484D01*
X10465253Y-14594484D02*
X10455729Y-14584960D01*
X10455729Y-14584960D02*
X10465253Y-14575436D01*
X10465253Y-14575436D02*
X10465253Y-14594484D01*
X10550967Y-14413531D02*
X10560491Y-14404008D01*
X10560491Y-14404008D02*
X10579539Y-14394484D01*
X10579539Y-14394484D02*
X10627158Y-14394484D01*
X10627158Y-14394484D02*
X10646205Y-14404008D01*
X10646205Y-14404008D02*
X10655729Y-14413531D01*
X10655729Y-14413531D02*
X10665253Y-14432579D01*
X10665253Y-14432579D02*
X10665253Y-14451627D01*
X10665253Y-14451627D02*
X10655729Y-14480198D01*
X10655729Y-14480198D02*
X10541444Y-14594484D01*
X10541444Y-14594484D02*
X10665253Y-14594484D01*
X10789063Y-14394484D02*
X10808110Y-14394484D01*
X10808110Y-14394484D02*
X10827158Y-14404008D01*
X10827158Y-14404008D02*
X10836682Y-14413531D01*
X10836682Y-14413531D02*
X10846205Y-14432579D01*
X10846205Y-14432579D02*
X10855729Y-14470674D01*
X10855729Y-14470674D02*
X10855729Y-14518293D01*
X10855729Y-14518293D02*
X10846205Y-14556388D01*
X10846205Y-14556388D02*
X10836682Y-14575436D01*
X10836682Y-14575436D02*
X10827158Y-14584960D01*
X10827158Y-14584960D02*
X10808110Y-14594484D01*
X10808110Y-14594484D02*
X10789063Y-14594484D01*
X10789063Y-14594484D02*
X10770015Y-14584960D01*
X10770015Y-14584960D02*
X10760491Y-14575436D01*
X10760491Y-14575436D02*
X10750967Y-14556388D01*
X10750967Y-14556388D02*
X10741444Y-14518293D01*
X10741444Y-14518293D02*
X10741444Y-14470674D01*
X10741444Y-14470674D02*
X10750967Y-14432579D01*
X10750967Y-14432579D02*
X10760491Y-14413531D01*
X10760491Y-14413531D02*
X10770015Y-14404008D01*
X10770015Y-14404008D02*
X10789063Y-14394484D01*
X10979539Y-14394484D02*
X10998586Y-14394484D01*
X10998586Y-14394484D02*
X11017634Y-14404008D01*
X11017634Y-14404008D02*
X11027158Y-14413531D01*
X11027158Y-14413531D02*
X11036682Y-14432579D01*
X11036682Y-14432579D02*
X11046205Y-14470674D01*
X11046205Y-14470674D02*
X11046205Y-14518293D01*
X11046205Y-14518293D02*
X11036682Y-14556388D01*
X11036682Y-14556388D02*
X11027158Y-14575436D01*
X11027158Y-14575436D02*
X11017634Y-14584960D01*
X11017634Y-14584960D02*
X10998586Y-14594484D01*
X10998586Y-14594484D02*
X10979539Y-14594484D01*
X10979539Y-14594484D02*
X10960491Y-14584960D01*
X10960491Y-14584960D02*
X10950967Y-14575436D01*
X10950967Y-14575436D02*
X10941444Y-14556388D01*
X10941444Y-14556388D02*
X10931920Y-14518293D01*
X10931920Y-14518293D02*
X10931920Y-14470674D01*
X10931920Y-14470674D02*
X10941444Y-14432579D01*
X10941444Y-14432579D02*
X10950967Y-14413531D01*
X10950967Y-14413531D02*
X10960491Y-14404008D01*
X10960491Y-14404008D02*
X10979539Y-14394484D01*
X11131920Y-14594484D02*
X11131920Y-14461150D01*
X11131920Y-14480198D02*
X11141444Y-14470674D01*
X11141444Y-14470674D02*
X11160491Y-14461150D01*
X11160491Y-14461150D02*
X11189063Y-14461150D01*
X11189063Y-14461150D02*
X11208110Y-14470674D01*
X11208110Y-14470674D02*
X11217634Y-14489722D01*
X11217634Y-14489722D02*
X11217634Y-14594484D01*
X11217634Y-14489722D02*
X11227158Y-14470674D01*
X11227158Y-14470674D02*
X11246205Y-14461150D01*
X11246205Y-14461150D02*
X11274777Y-14461150D01*
X11274777Y-14461150D02*
X11293824Y-14470674D01*
X11293824Y-14470674D02*
X11303348Y-14489722D01*
X11303348Y-14489722D02*
X11303348Y-14594484D01*
X11398586Y-14594484D02*
X11398586Y-14461150D01*
X11398586Y-14480198D02*
X11408110Y-14470674D01*
X11408110Y-14470674D02*
X11427158Y-14461150D01*
X11427158Y-14461150D02*
X11455729Y-14461150D01*
X11455729Y-14461150D02*
X11474777Y-14470674D01*
X11474777Y-14470674D02*
X11484301Y-14489722D01*
X11484301Y-14489722D02*
X11484301Y-14594484D01*
X11484301Y-14489722D02*
X11493824Y-14470674D01*
X11493824Y-14470674D02*
X11512872Y-14461150D01*
X11512872Y-14461150D02*
X11541443Y-14461150D01*
X11541443Y-14461150D02*
X11560491Y-14470674D01*
X11560491Y-14470674D02*
X11570015Y-14489722D01*
X11570015Y-14489722D02*
X11570015Y-14594484D01*
X11960491Y-14384960D02*
X11789063Y-14642103D01*
X12217634Y-14394484D02*
X12236682Y-14394484D01*
X12236682Y-14394484D02*
X12255729Y-14404008D01*
X12255729Y-14404008D02*
X12265253Y-14413531D01*
X12265253Y-14413531D02*
X12274777Y-14432579D01*
X12274777Y-14432579D02*
X12284301Y-14470674D01*
X12284301Y-14470674D02*
X12284301Y-14518293D01*
X12284301Y-14518293D02*
X12274777Y-14556388D01*
X12274777Y-14556388D02*
X12265253Y-14575436D01*
X12265253Y-14575436D02*
X12255729Y-14584960D01*
X12255729Y-14584960D02*
X12236682Y-14594484D01*
X12236682Y-14594484D02*
X12217634Y-14594484D01*
X12217634Y-14594484D02*
X12198586Y-14584960D01*
X12198586Y-14584960D02*
X12189063Y-14575436D01*
X12189063Y-14575436D02*
X12179539Y-14556388D01*
X12179539Y-14556388D02*
X12170015Y-14518293D01*
X12170015Y-14518293D02*
X12170015Y-14470674D01*
X12170015Y-14470674D02*
X12179539Y-14432579D01*
X12179539Y-14432579D02*
X12189063Y-14413531D01*
X12189063Y-14413531D02*
X12198586Y-14404008D01*
X12198586Y-14404008D02*
X12217634Y-14394484D01*
X12370015Y-14575436D02*
X12379539Y-14584960D01*
X12379539Y-14584960D02*
X12370015Y-14594484D01*
X12370015Y-14594484D02*
X12360491Y-14584960D01*
X12360491Y-14584960D02*
X12370015Y-14575436D01*
X12370015Y-14575436D02*
X12370015Y-14594484D01*
X12503348Y-14394484D02*
X12522396Y-14394484D01*
X12522396Y-14394484D02*
X12541444Y-14404008D01*
X12541444Y-14404008D02*
X12550967Y-14413531D01*
X12550967Y-14413531D02*
X12560491Y-14432579D01*
X12560491Y-14432579D02*
X12570015Y-14470674D01*
X12570015Y-14470674D02*
X12570015Y-14518293D01*
X12570015Y-14518293D02*
X12560491Y-14556388D01*
X12560491Y-14556388D02*
X12550967Y-14575436D01*
X12550967Y-14575436D02*
X12541444Y-14584960D01*
X12541444Y-14584960D02*
X12522396Y-14594484D01*
X12522396Y-14594484D02*
X12503348Y-14594484D01*
X12503348Y-14594484D02*
X12484301Y-14584960D01*
X12484301Y-14584960D02*
X12474777Y-14575436D01*
X12474777Y-14575436D02*
X12465253Y-14556388D01*
X12465253Y-14556388D02*
X12455729Y-14518293D01*
X12455729Y-14518293D02*
X12455729Y-14470674D01*
X12455729Y-14470674D02*
X12465253Y-14432579D01*
X12465253Y-14432579D02*
X12474777Y-14413531D01*
X12474777Y-14413531D02*
X12484301Y-14404008D01*
X12484301Y-14404008D02*
X12503348Y-14394484D01*
X12741444Y-14461150D02*
X12741444Y-14594484D01*
X12693825Y-14384960D02*
X12646206Y-14527817D01*
X12646206Y-14527817D02*
X12770015Y-14527817D01*
X12827158Y-14394484D02*
X12960491Y-14394484D01*
X12960491Y-14394484D02*
X12874777Y-14594484D01*
X13027158Y-14413531D02*
X13036682Y-14404008D01*
X13036682Y-14404008D02*
X13055729Y-14394484D01*
X13055729Y-14394484D02*
X13103348Y-14394484D01*
X13103348Y-14394484D02*
X13122396Y-14404008D01*
X13122396Y-14404008D02*
X13131920Y-14413531D01*
X13131920Y-14413531D02*
X13141444Y-14432579D01*
X13141444Y-14432579D02*
X13141444Y-14451627D01*
X13141444Y-14451627D02*
X13131920Y-14480198D01*
X13131920Y-14480198D02*
X13017634Y-14594484D01*
X13017634Y-14594484D02*
X13141444Y-14594484D01*
X13217634Y-14394484D02*
X13217634Y-14432579D01*
X13293825Y-14394484D02*
X13293825Y-14432579D01*
X13589063Y-14670674D02*
X13579539Y-14661150D01*
X13579539Y-14661150D02*
X13560491Y-14632579D01*
X13560491Y-14632579D02*
X13550968Y-14613531D01*
X13550968Y-14613531D02*
X13541444Y-14584960D01*
X13541444Y-14584960D02*
X13531920Y-14537341D01*
X13531920Y-14537341D02*
X13531920Y-14499246D01*
X13531920Y-14499246D02*
X13541444Y-14451627D01*
X13541444Y-14451627D02*
X13550968Y-14423055D01*
X13550968Y-14423055D02*
X13560491Y-14404008D01*
X13560491Y-14404008D02*
X13579539Y-14375436D01*
X13579539Y-14375436D02*
X13589063Y-14365912D01*
X13646206Y-14394484D02*
X13770015Y-14394484D01*
X13770015Y-14394484D02*
X13703348Y-14470674D01*
X13703348Y-14470674D02*
X13731920Y-14470674D01*
X13731920Y-14470674D02*
X13750968Y-14480198D01*
X13750968Y-14480198D02*
X13760491Y-14489722D01*
X13760491Y-14489722D02*
X13770015Y-14508769D01*
X13770015Y-14508769D02*
X13770015Y-14556388D01*
X13770015Y-14556388D02*
X13760491Y-14575436D01*
X13760491Y-14575436D02*
X13750968Y-14584960D01*
X13750968Y-14584960D02*
X13731920Y-14594484D01*
X13731920Y-14594484D02*
X13674777Y-14594484D01*
X13674777Y-14594484D02*
X13655729Y-14584960D01*
X13655729Y-14584960D02*
X13646206Y-14575436D01*
X14008110Y-14594484D02*
X14008110Y-14394484D01*
X14093825Y-14594484D02*
X14093825Y-14489722D01*
X14093825Y-14489722D02*
X14084301Y-14470674D01*
X14084301Y-14470674D02*
X14065253Y-14461150D01*
X14065253Y-14461150D02*
X14036682Y-14461150D01*
X14036682Y-14461150D02*
X14017634Y-14470674D01*
X14017634Y-14470674D02*
X14008110Y-14480198D01*
X14217634Y-14594484D02*
X14198587Y-14584960D01*
X14198587Y-14584960D02*
X14189063Y-14575436D01*
X14189063Y-14575436D02*
X14179539Y-14556388D01*
X14179539Y-14556388D02*
X14179539Y-14499246D01*
X14179539Y-14499246D02*
X14189063Y-14480198D01*
X14189063Y-14480198D02*
X14198587Y-14470674D01*
X14198587Y-14470674D02*
X14217634Y-14461150D01*
X14217634Y-14461150D02*
X14246206Y-14461150D01*
X14246206Y-14461150D02*
X14265253Y-14470674D01*
X14265253Y-14470674D02*
X14274777Y-14480198D01*
X14274777Y-14480198D02*
X14284301Y-14499246D01*
X14284301Y-14499246D02*
X14284301Y-14556388D01*
X14284301Y-14556388D02*
X14274777Y-14575436D01*
X14274777Y-14575436D02*
X14265253Y-14584960D01*
X14265253Y-14584960D02*
X14246206Y-14594484D01*
X14246206Y-14594484D02*
X14217634Y-14594484D01*
X14398587Y-14594484D02*
X14379539Y-14584960D01*
X14379539Y-14584960D02*
X14370015Y-14565912D01*
X14370015Y-14565912D02*
X14370015Y-14394484D01*
X14550968Y-14584960D02*
X14531920Y-14594484D01*
X14531920Y-14594484D02*
X14493825Y-14594484D01*
X14493825Y-14594484D02*
X14474777Y-14584960D01*
X14474777Y-14584960D02*
X14465253Y-14565912D01*
X14465253Y-14565912D02*
X14465253Y-14489722D01*
X14465253Y-14489722D02*
X14474777Y-14470674D01*
X14474777Y-14470674D02*
X14493825Y-14461150D01*
X14493825Y-14461150D02*
X14531920Y-14461150D01*
X14531920Y-14461150D02*
X14550968Y-14470674D01*
X14550968Y-14470674D02*
X14560491Y-14489722D01*
X14560491Y-14489722D02*
X14560491Y-14508769D01*
X14560491Y-14508769D02*
X14465253Y-14527817D01*
X14636682Y-14584960D02*
X14655730Y-14594484D01*
X14655730Y-14594484D02*
X14693825Y-14594484D01*
X14693825Y-14594484D02*
X14712872Y-14584960D01*
X14712872Y-14584960D02*
X14722396Y-14565912D01*
X14722396Y-14565912D02*
X14722396Y-14556388D01*
X14722396Y-14556388D02*
X14712872Y-14537341D01*
X14712872Y-14537341D02*
X14693825Y-14527817D01*
X14693825Y-14527817D02*
X14665253Y-14527817D01*
X14665253Y-14527817D02*
X14646206Y-14518293D01*
X14646206Y-14518293D02*
X14636682Y-14499246D01*
X14636682Y-14499246D02*
X14636682Y-14489722D01*
X14636682Y-14489722D02*
X14646206Y-14470674D01*
X14646206Y-14470674D02*
X14665253Y-14461150D01*
X14665253Y-14461150D02*
X14693825Y-14461150D01*
X14693825Y-14461150D02*
X14712872Y-14470674D01*
X14789063Y-14670674D02*
X14798587Y-14661150D01*
X14798587Y-14661150D02*
X14817634Y-14632579D01*
X14817634Y-14632579D02*
X14827158Y-14613531D01*
X14827158Y-14613531D02*
X14836682Y-14584960D01*
X14836682Y-14584960D02*
X14846206Y-14537341D01*
X14846206Y-14537341D02*
X14846206Y-14499246D01*
X14846206Y-14499246D02*
X14836682Y-14451627D01*
X14836682Y-14451627D02*
X14827158Y-14423055D01*
X14827158Y-14423055D02*
X14817634Y-14404008D01*
X14817634Y-14404008D02*
X14798587Y-14375436D01*
X14798587Y-14375436D02*
X14789063Y-14365912D01*
D17*
X9884000Y-14702000D02*
X10014000Y-14832000D01*
X10014000Y-14702000D02*
X9884000Y-14832000D01*
X9949000Y-14702000D02*
X9949000Y-14832000D01*
X9884000Y-14767000D02*
X10014000Y-14767000D01*
D11*
X10379539Y-14858484D02*
X10265253Y-14858484D01*
X10322396Y-14858484D02*
X10322396Y-14658484D01*
X10322396Y-14658484D02*
X10303348Y-14687055D01*
X10303348Y-14687055D02*
X10284301Y-14706103D01*
X10284301Y-14706103D02*
X10265253Y-14715627D01*
X10465253Y-14839436D02*
X10474777Y-14848960D01*
X10474777Y-14848960D02*
X10465253Y-14858484D01*
X10465253Y-14858484D02*
X10455729Y-14848960D01*
X10455729Y-14848960D02*
X10465253Y-14839436D01*
X10465253Y-14839436D02*
X10465253Y-14858484D01*
X10541444Y-14658484D02*
X10665253Y-14658484D01*
X10665253Y-14658484D02*
X10598586Y-14734674D01*
X10598586Y-14734674D02*
X10627158Y-14734674D01*
X10627158Y-14734674D02*
X10646205Y-14744198D01*
X10646205Y-14744198D02*
X10655729Y-14753722D01*
X10655729Y-14753722D02*
X10665253Y-14772769D01*
X10665253Y-14772769D02*
X10665253Y-14820388D01*
X10665253Y-14820388D02*
X10655729Y-14839436D01*
X10655729Y-14839436D02*
X10646205Y-14848960D01*
X10646205Y-14848960D02*
X10627158Y-14858484D01*
X10627158Y-14858484D02*
X10570015Y-14858484D01*
X10570015Y-14858484D02*
X10550967Y-14848960D01*
X10550967Y-14848960D02*
X10541444Y-14839436D01*
X10789063Y-14658484D02*
X10808110Y-14658484D01*
X10808110Y-14658484D02*
X10827158Y-14668008D01*
X10827158Y-14668008D02*
X10836682Y-14677531D01*
X10836682Y-14677531D02*
X10846205Y-14696579D01*
X10846205Y-14696579D02*
X10855729Y-14734674D01*
X10855729Y-14734674D02*
X10855729Y-14782293D01*
X10855729Y-14782293D02*
X10846205Y-14820388D01*
X10846205Y-14820388D02*
X10836682Y-14839436D01*
X10836682Y-14839436D02*
X10827158Y-14848960D01*
X10827158Y-14848960D02*
X10808110Y-14858484D01*
X10808110Y-14858484D02*
X10789063Y-14858484D01*
X10789063Y-14858484D02*
X10770015Y-14848960D01*
X10770015Y-14848960D02*
X10760491Y-14839436D01*
X10760491Y-14839436D02*
X10750967Y-14820388D01*
X10750967Y-14820388D02*
X10741444Y-14782293D01*
X10741444Y-14782293D02*
X10741444Y-14734674D01*
X10741444Y-14734674D02*
X10750967Y-14696579D01*
X10750967Y-14696579D02*
X10760491Y-14677531D01*
X10760491Y-14677531D02*
X10770015Y-14668008D01*
X10770015Y-14668008D02*
X10789063Y-14658484D01*
X10979539Y-14658484D02*
X10998586Y-14658484D01*
X10998586Y-14658484D02*
X11017634Y-14668008D01*
X11017634Y-14668008D02*
X11027158Y-14677531D01*
X11027158Y-14677531D02*
X11036682Y-14696579D01*
X11036682Y-14696579D02*
X11046205Y-14734674D01*
X11046205Y-14734674D02*
X11046205Y-14782293D01*
X11046205Y-14782293D02*
X11036682Y-14820388D01*
X11036682Y-14820388D02*
X11027158Y-14839436D01*
X11027158Y-14839436D02*
X11017634Y-14848960D01*
X11017634Y-14848960D02*
X10998586Y-14858484D01*
X10998586Y-14858484D02*
X10979539Y-14858484D01*
X10979539Y-14858484D02*
X10960491Y-14848960D01*
X10960491Y-14848960D02*
X10950967Y-14839436D01*
X10950967Y-14839436D02*
X10941444Y-14820388D01*
X10941444Y-14820388D02*
X10931920Y-14782293D01*
X10931920Y-14782293D02*
X10931920Y-14734674D01*
X10931920Y-14734674D02*
X10941444Y-14696579D01*
X10941444Y-14696579D02*
X10950967Y-14677531D01*
X10950967Y-14677531D02*
X10960491Y-14668008D01*
X10960491Y-14668008D02*
X10979539Y-14658484D01*
X11131920Y-14858484D02*
X11131920Y-14725150D01*
X11131920Y-14744198D02*
X11141444Y-14734674D01*
X11141444Y-14734674D02*
X11160491Y-14725150D01*
X11160491Y-14725150D02*
X11189063Y-14725150D01*
X11189063Y-14725150D02*
X11208110Y-14734674D01*
X11208110Y-14734674D02*
X11217634Y-14753722D01*
X11217634Y-14753722D02*
X11217634Y-14858484D01*
X11217634Y-14753722D02*
X11227158Y-14734674D01*
X11227158Y-14734674D02*
X11246205Y-14725150D01*
X11246205Y-14725150D02*
X11274777Y-14725150D01*
X11274777Y-14725150D02*
X11293824Y-14734674D01*
X11293824Y-14734674D02*
X11303348Y-14753722D01*
X11303348Y-14753722D02*
X11303348Y-14858484D01*
X11398586Y-14858484D02*
X11398586Y-14725150D01*
X11398586Y-14744198D02*
X11408110Y-14734674D01*
X11408110Y-14734674D02*
X11427158Y-14725150D01*
X11427158Y-14725150D02*
X11455729Y-14725150D01*
X11455729Y-14725150D02*
X11474777Y-14734674D01*
X11474777Y-14734674D02*
X11484301Y-14753722D01*
X11484301Y-14753722D02*
X11484301Y-14858484D01*
X11484301Y-14753722D02*
X11493824Y-14734674D01*
X11493824Y-14734674D02*
X11512872Y-14725150D01*
X11512872Y-14725150D02*
X11541443Y-14725150D01*
X11541443Y-14725150D02*
X11560491Y-14734674D01*
X11560491Y-14734674D02*
X11570015Y-14753722D01*
X11570015Y-14753722D02*
X11570015Y-14858484D01*
X11960491Y-14648960D02*
X11789063Y-14906103D01*
X12217634Y-14658484D02*
X12236682Y-14658484D01*
X12236682Y-14658484D02*
X12255729Y-14668008D01*
X12255729Y-14668008D02*
X12265253Y-14677531D01*
X12265253Y-14677531D02*
X12274777Y-14696579D01*
X12274777Y-14696579D02*
X12284301Y-14734674D01*
X12284301Y-14734674D02*
X12284301Y-14782293D01*
X12284301Y-14782293D02*
X12274777Y-14820388D01*
X12274777Y-14820388D02*
X12265253Y-14839436D01*
X12265253Y-14839436D02*
X12255729Y-14848960D01*
X12255729Y-14848960D02*
X12236682Y-14858484D01*
X12236682Y-14858484D02*
X12217634Y-14858484D01*
X12217634Y-14858484D02*
X12198586Y-14848960D01*
X12198586Y-14848960D02*
X12189063Y-14839436D01*
X12189063Y-14839436D02*
X12179539Y-14820388D01*
X12179539Y-14820388D02*
X12170015Y-14782293D01*
X12170015Y-14782293D02*
X12170015Y-14734674D01*
X12170015Y-14734674D02*
X12179539Y-14696579D01*
X12179539Y-14696579D02*
X12189063Y-14677531D01*
X12189063Y-14677531D02*
X12198586Y-14668008D01*
X12198586Y-14668008D02*
X12217634Y-14658484D01*
X12370015Y-14839436D02*
X12379539Y-14848960D01*
X12379539Y-14848960D02*
X12370015Y-14858484D01*
X12370015Y-14858484D02*
X12360491Y-14848960D01*
X12360491Y-14848960D02*
X12370015Y-14839436D01*
X12370015Y-14839436D02*
X12370015Y-14858484D01*
X12503348Y-14658484D02*
X12522396Y-14658484D01*
X12522396Y-14658484D02*
X12541444Y-14668008D01*
X12541444Y-14668008D02*
X12550967Y-14677531D01*
X12550967Y-14677531D02*
X12560491Y-14696579D01*
X12560491Y-14696579D02*
X12570015Y-14734674D01*
X12570015Y-14734674D02*
X12570015Y-14782293D01*
X12570015Y-14782293D02*
X12560491Y-14820388D01*
X12560491Y-14820388D02*
X12550967Y-14839436D01*
X12550967Y-14839436D02*
X12541444Y-14848960D01*
X12541444Y-14848960D02*
X12522396Y-14858484D01*
X12522396Y-14858484D02*
X12503348Y-14858484D01*
X12503348Y-14858484D02*
X12484301Y-14848960D01*
X12484301Y-14848960D02*
X12474777Y-14839436D01*
X12474777Y-14839436D02*
X12465253Y-14820388D01*
X12465253Y-14820388D02*
X12455729Y-14782293D01*
X12455729Y-14782293D02*
X12455729Y-14734674D01*
X12455729Y-14734674D02*
X12465253Y-14696579D01*
X12465253Y-14696579D02*
X12474777Y-14677531D01*
X12474777Y-14677531D02*
X12484301Y-14668008D01*
X12484301Y-14668008D02*
X12503348Y-14658484D01*
X12750967Y-14658484D02*
X12655729Y-14658484D01*
X12655729Y-14658484D02*
X12646206Y-14753722D01*
X12646206Y-14753722D02*
X12655729Y-14744198D01*
X12655729Y-14744198D02*
X12674777Y-14734674D01*
X12674777Y-14734674D02*
X12722396Y-14734674D01*
X12722396Y-14734674D02*
X12741444Y-14744198D01*
X12741444Y-14744198D02*
X12750967Y-14753722D01*
X12750967Y-14753722D02*
X12760491Y-14772769D01*
X12760491Y-14772769D02*
X12760491Y-14820388D01*
X12760491Y-14820388D02*
X12750967Y-14839436D01*
X12750967Y-14839436D02*
X12741444Y-14848960D01*
X12741444Y-14848960D02*
X12722396Y-14858484D01*
X12722396Y-14858484D02*
X12674777Y-14858484D01*
X12674777Y-14858484D02*
X12655729Y-14848960D01*
X12655729Y-14848960D02*
X12646206Y-14839436D01*
X12950967Y-14858484D02*
X12836682Y-14858484D01*
X12893825Y-14858484D02*
X12893825Y-14658484D01*
X12893825Y-14658484D02*
X12874777Y-14687055D01*
X12874777Y-14687055D02*
X12855729Y-14706103D01*
X12855729Y-14706103D02*
X12836682Y-14715627D01*
X13027158Y-14677531D02*
X13036682Y-14668008D01*
X13036682Y-14668008D02*
X13055729Y-14658484D01*
X13055729Y-14658484D02*
X13103348Y-14658484D01*
X13103348Y-14658484D02*
X13122396Y-14668008D01*
X13122396Y-14668008D02*
X13131920Y-14677531D01*
X13131920Y-14677531D02*
X13141444Y-14696579D01*
X13141444Y-14696579D02*
X13141444Y-14715627D01*
X13141444Y-14715627D02*
X13131920Y-14744198D01*
X13131920Y-14744198D02*
X13017634Y-14858484D01*
X13017634Y-14858484D02*
X13141444Y-14858484D01*
X13217634Y-14658484D02*
X13217634Y-14696579D01*
X13293825Y-14658484D02*
X13293825Y-14696579D01*
X13589063Y-14934674D02*
X13579539Y-14925150D01*
X13579539Y-14925150D02*
X13560491Y-14896579D01*
X13560491Y-14896579D02*
X13550968Y-14877531D01*
X13550968Y-14877531D02*
X13541444Y-14848960D01*
X13541444Y-14848960D02*
X13531920Y-14801341D01*
X13531920Y-14801341D02*
X13531920Y-14763246D01*
X13531920Y-14763246D02*
X13541444Y-14715627D01*
X13541444Y-14715627D02*
X13550968Y-14687055D01*
X13550968Y-14687055D02*
X13560491Y-14668008D01*
X13560491Y-14668008D02*
X13579539Y-14639436D01*
X13579539Y-14639436D02*
X13589063Y-14629912D01*
X13770015Y-14858484D02*
X13655729Y-14858484D01*
X13712872Y-14858484D02*
X13712872Y-14658484D01*
X13712872Y-14658484D02*
X13693825Y-14687055D01*
X13693825Y-14687055D02*
X13674777Y-14706103D01*
X13674777Y-14706103D02*
X13655729Y-14715627D01*
X13998587Y-14848960D02*
X14017634Y-14858484D01*
X14017634Y-14858484D02*
X14055729Y-14858484D01*
X14055729Y-14858484D02*
X14074777Y-14848960D01*
X14074777Y-14848960D02*
X14084301Y-14829912D01*
X14084301Y-14829912D02*
X14084301Y-14820388D01*
X14084301Y-14820388D02*
X14074777Y-14801341D01*
X14074777Y-14801341D02*
X14055729Y-14791817D01*
X14055729Y-14791817D02*
X14027158Y-14791817D01*
X14027158Y-14791817D02*
X14008110Y-14782293D01*
X14008110Y-14782293D02*
X13998587Y-14763246D01*
X13998587Y-14763246D02*
X13998587Y-14753722D01*
X13998587Y-14753722D02*
X14008110Y-14734674D01*
X14008110Y-14734674D02*
X14027158Y-14725150D01*
X14027158Y-14725150D02*
X14055729Y-14725150D01*
X14055729Y-14725150D02*
X14074777Y-14734674D01*
X14198587Y-14858484D02*
X14179539Y-14848960D01*
X14179539Y-14848960D02*
X14170015Y-14829912D01*
X14170015Y-14829912D02*
X14170015Y-14658484D01*
X14303349Y-14858484D02*
X14284301Y-14848960D01*
X14284301Y-14848960D02*
X14274777Y-14839436D01*
X14274777Y-14839436D02*
X14265253Y-14820388D01*
X14265253Y-14820388D02*
X14265253Y-14763246D01*
X14265253Y-14763246D02*
X14274777Y-14744198D01*
X14274777Y-14744198D02*
X14284301Y-14734674D01*
X14284301Y-14734674D02*
X14303349Y-14725150D01*
X14303349Y-14725150D02*
X14331920Y-14725150D01*
X14331920Y-14725150D02*
X14350968Y-14734674D01*
X14350968Y-14734674D02*
X14360491Y-14744198D01*
X14360491Y-14744198D02*
X14370015Y-14763246D01*
X14370015Y-14763246D02*
X14370015Y-14820388D01*
X14370015Y-14820388D02*
X14360491Y-14839436D01*
X14360491Y-14839436D02*
X14350968Y-14848960D01*
X14350968Y-14848960D02*
X14331920Y-14858484D01*
X14331920Y-14858484D02*
X14303349Y-14858484D01*
X14427158Y-14725150D02*
X14503349Y-14725150D01*
X14455730Y-14658484D02*
X14455730Y-14829912D01*
X14455730Y-14829912D02*
X14465253Y-14848960D01*
X14465253Y-14848960D02*
X14484301Y-14858484D01*
X14484301Y-14858484D02*
X14503349Y-14858484D01*
X14550968Y-14934674D02*
X14560491Y-14925150D01*
X14560491Y-14925150D02*
X14579539Y-14896579D01*
X14579539Y-14896579D02*
X14589063Y-14877531D01*
X14589063Y-14877531D02*
X14598587Y-14848960D01*
X14598587Y-14848960D02*
X14608110Y-14801341D01*
X14608110Y-14801341D02*
X14608110Y-14763246D01*
X14608110Y-14763246D02*
X14598587Y-14715627D01*
X14598587Y-14715627D02*
X14589063Y-14687055D01*
X14589063Y-14687055D02*
X14579539Y-14668008D01*
X14579539Y-14668008D02*
X14560491Y-14639436D01*
X14560491Y-14639436D02*
X14550968Y-14629912D01*
X9814000Y-14931000D02*
X10014000Y-15131000D01*
X10014000Y-14931000D02*
X9814000Y-15131000D01*
X9984711Y-15101711D02*
X9984711Y-14960289D01*
X9843289Y-14960289D01*
X9843289Y-15101711D01*
X9984711Y-15101711D01*
X10265253Y-14941531D02*
X10274777Y-14932008D01*
X10274777Y-14932008D02*
X10293824Y-14922484D01*
X10293824Y-14922484D02*
X10341444Y-14922484D01*
X10341444Y-14922484D02*
X10360491Y-14932008D01*
X10360491Y-14932008D02*
X10370015Y-14941531D01*
X10370015Y-14941531D02*
X10379539Y-14960579D01*
X10379539Y-14960579D02*
X10379539Y-14979627D01*
X10379539Y-14979627D02*
X10370015Y-15008198D01*
X10370015Y-15008198D02*
X10255729Y-15122484D01*
X10255729Y-15122484D02*
X10379539Y-15122484D01*
X10465253Y-15103436D02*
X10474777Y-15112960D01*
X10474777Y-15112960D02*
X10465253Y-15122484D01*
X10465253Y-15122484D02*
X10455729Y-15112960D01*
X10455729Y-15112960D02*
X10465253Y-15103436D01*
X10465253Y-15103436D02*
X10465253Y-15122484D01*
X10541444Y-14922484D02*
X10665253Y-14922484D01*
X10665253Y-14922484D02*
X10598586Y-14998674D01*
X10598586Y-14998674D02*
X10627158Y-14998674D01*
X10627158Y-14998674D02*
X10646205Y-15008198D01*
X10646205Y-15008198D02*
X10655729Y-15017722D01*
X10655729Y-15017722D02*
X10665253Y-15036769D01*
X10665253Y-15036769D02*
X10665253Y-15084388D01*
X10665253Y-15084388D02*
X10655729Y-15103436D01*
X10655729Y-15103436D02*
X10646205Y-15112960D01*
X10646205Y-15112960D02*
X10627158Y-15122484D01*
X10627158Y-15122484D02*
X10570015Y-15122484D01*
X10570015Y-15122484D02*
X10550967Y-15112960D01*
X10550967Y-15112960D02*
X10541444Y-15103436D01*
X10789063Y-14922484D02*
X10808110Y-14922484D01*
X10808110Y-14922484D02*
X10827158Y-14932008D01*
X10827158Y-14932008D02*
X10836682Y-14941531D01*
X10836682Y-14941531D02*
X10846205Y-14960579D01*
X10846205Y-14960579D02*
X10855729Y-14998674D01*
X10855729Y-14998674D02*
X10855729Y-15046293D01*
X10855729Y-15046293D02*
X10846205Y-15084388D01*
X10846205Y-15084388D02*
X10836682Y-15103436D01*
X10836682Y-15103436D02*
X10827158Y-15112960D01*
X10827158Y-15112960D02*
X10808110Y-15122484D01*
X10808110Y-15122484D02*
X10789063Y-15122484D01*
X10789063Y-15122484D02*
X10770015Y-15112960D01*
X10770015Y-15112960D02*
X10760491Y-15103436D01*
X10760491Y-15103436D02*
X10750967Y-15084388D01*
X10750967Y-15084388D02*
X10741444Y-15046293D01*
X10741444Y-15046293D02*
X10741444Y-14998674D01*
X10741444Y-14998674D02*
X10750967Y-14960579D01*
X10750967Y-14960579D02*
X10760491Y-14941531D01*
X10760491Y-14941531D02*
X10770015Y-14932008D01*
X10770015Y-14932008D02*
X10789063Y-14922484D01*
X10979539Y-14922484D02*
X10998586Y-14922484D01*
X10998586Y-14922484D02*
X11017634Y-14932008D01*
X11017634Y-14932008D02*
X11027158Y-14941531D01*
X11027158Y-14941531D02*
X11036682Y-14960579D01*
X11036682Y-14960579D02*
X11046205Y-14998674D01*
X11046205Y-14998674D02*
X11046205Y-15046293D01*
X11046205Y-15046293D02*
X11036682Y-15084388D01*
X11036682Y-15084388D02*
X11027158Y-15103436D01*
X11027158Y-15103436D02*
X11017634Y-15112960D01*
X11017634Y-15112960D02*
X10998586Y-15122484D01*
X10998586Y-15122484D02*
X10979539Y-15122484D01*
X10979539Y-15122484D02*
X10960491Y-15112960D01*
X10960491Y-15112960D02*
X10950967Y-15103436D01*
X10950967Y-15103436D02*
X10941444Y-15084388D01*
X10941444Y-15084388D02*
X10931920Y-15046293D01*
X10931920Y-15046293D02*
X10931920Y-14998674D01*
X10931920Y-14998674D02*
X10941444Y-14960579D01*
X10941444Y-14960579D02*
X10950967Y-14941531D01*
X10950967Y-14941531D02*
X10960491Y-14932008D01*
X10960491Y-14932008D02*
X10979539Y-14922484D01*
X11131920Y-15122484D02*
X11131920Y-14989150D01*
X11131920Y-15008198D02*
X11141444Y-14998674D01*
X11141444Y-14998674D02*
X11160491Y-14989150D01*
X11160491Y-14989150D02*
X11189063Y-14989150D01*
X11189063Y-14989150D02*
X11208110Y-14998674D01*
X11208110Y-14998674D02*
X11217634Y-15017722D01*
X11217634Y-15017722D02*
X11217634Y-15122484D01*
X11217634Y-15017722D02*
X11227158Y-14998674D01*
X11227158Y-14998674D02*
X11246205Y-14989150D01*
X11246205Y-14989150D02*
X11274777Y-14989150D01*
X11274777Y-14989150D02*
X11293824Y-14998674D01*
X11293824Y-14998674D02*
X11303348Y-15017722D01*
X11303348Y-15017722D02*
X11303348Y-15122484D01*
X11398586Y-15122484D02*
X11398586Y-14989150D01*
X11398586Y-15008198D02*
X11408110Y-14998674D01*
X11408110Y-14998674D02*
X11427158Y-14989150D01*
X11427158Y-14989150D02*
X11455729Y-14989150D01*
X11455729Y-14989150D02*
X11474777Y-14998674D01*
X11474777Y-14998674D02*
X11484301Y-15017722D01*
X11484301Y-15017722D02*
X11484301Y-15122484D01*
X11484301Y-15017722D02*
X11493824Y-14998674D01*
X11493824Y-14998674D02*
X11512872Y-14989150D01*
X11512872Y-14989150D02*
X11541443Y-14989150D01*
X11541443Y-14989150D02*
X11560491Y-14998674D01*
X11560491Y-14998674D02*
X11570015Y-15017722D01*
X11570015Y-15017722D02*
X11570015Y-15122484D01*
X11960491Y-14912960D02*
X11789063Y-15170103D01*
X12217634Y-14922484D02*
X12236682Y-14922484D01*
X12236682Y-14922484D02*
X12255729Y-14932008D01*
X12255729Y-14932008D02*
X12265253Y-14941531D01*
X12265253Y-14941531D02*
X12274777Y-14960579D01*
X12274777Y-14960579D02*
X12284301Y-14998674D01*
X12284301Y-14998674D02*
X12284301Y-15046293D01*
X12284301Y-15046293D02*
X12274777Y-15084388D01*
X12274777Y-15084388D02*
X12265253Y-15103436D01*
X12265253Y-15103436D02*
X12255729Y-15112960D01*
X12255729Y-15112960D02*
X12236682Y-15122484D01*
X12236682Y-15122484D02*
X12217634Y-15122484D01*
X12217634Y-15122484D02*
X12198586Y-15112960D01*
X12198586Y-15112960D02*
X12189063Y-15103436D01*
X12189063Y-15103436D02*
X12179539Y-15084388D01*
X12179539Y-15084388D02*
X12170015Y-15046293D01*
X12170015Y-15046293D02*
X12170015Y-14998674D01*
X12170015Y-14998674D02*
X12179539Y-14960579D01*
X12179539Y-14960579D02*
X12189063Y-14941531D01*
X12189063Y-14941531D02*
X12198586Y-14932008D01*
X12198586Y-14932008D02*
X12217634Y-14922484D01*
X12370015Y-15103436D02*
X12379539Y-15112960D01*
X12379539Y-15112960D02*
X12370015Y-15122484D01*
X12370015Y-15122484D02*
X12360491Y-15112960D01*
X12360491Y-15112960D02*
X12370015Y-15103436D01*
X12370015Y-15103436D02*
X12370015Y-15122484D01*
X12503348Y-14922484D02*
X12522396Y-14922484D01*
X12522396Y-14922484D02*
X12541444Y-14932008D01*
X12541444Y-14932008D02*
X12550967Y-14941531D01*
X12550967Y-14941531D02*
X12560491Y-14960579D01*
X12560491Y-14960579D02*
X12570015Y-14998674D01*
X12570015Y-14998674D02*
X12570015Y-15046293D01*
X12570015Y-15046293D02*
X12560491Y-15084388D01*
X12560491Y-15084388D02*
X12550967Y-15103436D01*
X12550967Y-15103436D02*
X12541444Y-15112960D01*
X12541444Y-15112960D02*
X12522396Y-15122484D01*
X12522396Y-15122484D02*
X12503348Y-15122484D01*
X12503348Y-15122484D02*
X12484301Y-15112960D01*
X12484301Y-15112960D02*
X12474777Y-15103436D01*
X12474777Y-15103436D02*
X12465253Y-15084388D01*
X12465253Y-15084388D02*
X12455729Y-15046293D01*
X12455729Y-15046293D02*
X12455729Y-14998674D01*
X12455729Y-14998674D02*
X12465253Y-14960579D01*
X12465253Y-14960579D02*
X12474777Y-14941531D01*
X12474777Y-14941531D02*
X12484301Y-14932008D01*
X12484301Y-14932008D02*
X12503348Y-14922484D01*
X12665253Y-15122484D02*
X12703348Y-15122484D01*
X12703348Y-15122484D02*
X12722396Y-15112960D01*
X12722396Y-15112960D02*
X12731920Y-15103436D01*
X12731920Y-15103436D02*
X12750967Y-15074865D01*
X12750967Y-15074865D02*
X12760491Y-15036769D01*
X12760491Y-15036769D02*
X12760491Y-14960579D01*
X12760491Y-14960579D02*
X12750967Y-14941531D01*
X12750967Y-14941531D02*
X12741444Y-14932008D01*
X12741444Y-14932008D02*
X12722396Y-14922484D01*
X12722396Y-14922484D02*
X12684301Y-14922484D01*
X12684301Y-14922484D02*
X12665253Y-14932008D01*
X12665253Y-14932008D02*
X12655729Y-14941531D01*
X12655729Y-14941531D02*
X12646206Y-14960579D01*
X12646206Y-14960579D02*
X12646206Y-15008198D01*
X12646206Y-15008198D02*
X12655729Y-15027246D01*
X12655729Y-15027246D02*
X12665253Y-15036769D01*
X12665253Y-15036769D02*
X12684301Y-15046293D01*
X12684301Y-15046293D02*
X12722396Y-15046293D01*
X12722396Y-15046293D02*
X12741444Y-15036769D01*
X12741444Y-15036769D02*
X12750967Y-15027246D01*
X12750967Y-15027246D02*
X12760491Y-15008198D01*
X12884301Y-14922484D02*
X12903348Y-14922484D01*
X12903348Y-14922484D02*
X12922396Y-14932008D01*
X12922396Y-14932008D02*
X12931920Y-14941531D01*
X12931920Y-14941531D02*
X12941444Y-14960579D01*
X12941444Y-14960579D02*
X12950967Y-14998674D01*
X12950967Y-14998674D02*
X12950967Y-15046293D01*
X12950967Y-15046293D02*
X12941444Y-15084388D01*
X12941444Y-15084388D02*
X12931920Y-15103436D01*
X12931920Y-15103436D02*
X12922396Y-15112960D01*
X12922396Y-15112960D02*
X12903348Y-15122484D01*
X12903348Y-15122484D02*
X12884301Y-15122484D01*
X12884301Y-15122484D02*
X12865253Y-15112960D01*
X12865253Y-15112960D02*
X12855729Y-15103436D01*
X12855729Y-15103436D02*
X12846206Y-15084388D01*
X12846206Y-15084388D02*
X12836682Y-15046293D01*
X12836682Y-15046293D02*
X12836682Y-14998674D01*
X12836682Y-14998674D02*
X12846206Y-14960579D01*
X12846206Y-14960579D02*
X12855729Y-14941531D01*
X12855729Y-14941531D02*
X12865253Y-14932008D01*
X12865253Y-14932008D02*
X12884301Y-14922484D01*
X13122396Y-14922484D02*
X13084301Y-14922484D01*
X13084301Y-14922484D02*
X13065253Y-14932008D01*
X13065253Y-14932008D02*
X13055729Y-14941531D01*
X13055729Y-14941531D02*
X13036682Y-14970103D01*
X13036682Y-14970103D02*
X13027158Y-15008198D01*
X13027158Y-15008198D02*
X13027158Y-15084388D01*
X13027158Y-15084388D02*
X13036682Y-15103436D01*
X13036682Y-15103436D02*
X13046206Y-15112960D01*
X13046206Y-15112960D02*
X13065253Y-15122484D01*
X13065253Y-15122484D02*
X13103348Y-15122484D01*
X13103348Y-15122484D02*
X13122396Y-15112960D01*
X13122396Y-15112960D02*
X13131920Y-15103436D01*
X13131920Y-15103436D02*
X13141444Y-15084388D01*
X13141444Y-15084388D02*
X13141444Y-15036769D01*
X13141444Y-15036769D02*
X13131920Y-15017722D01*
X13131920Y-15017722D02*
X13122396Y-15008198D01*
X13122396Y-15008198D02*
X13103348Y-14998674D01*
X13103348Y-14998674D02*
X13065253Y-14998674D01*
X13065253Y-14998674D02*
X13046206Y-15008198D01*
X13046206Y-15008198D02*
X13036682Y-15017722D01*
X13036682Y-15017722D02*
X13027158Y-15036769D01*
X13217634Y-14922484D02*
X13217634Y-14960579D01*
X13293825Y-14922484D02*
X13293825Y-14960579D01*
X13589063Y-15198674D02*
X13579539Y-15189150D01*
X13579539Y-15189150D02*
X13560491Y-15160579D01*
X13560491Y-15160579D02*
X13550968Y-15141531D01*
X13550968Y-15141531D02*
X13541444Y-15112960D01*
X13541444Y-15112960D02*
X13531920Y-15065341D01*
X13531920Y-15065341D02*
X13531920Y-15027246D01*
X13531920Y-15027246D02*
X13541444Y-14979627D01*
X13541444Y-14979627D02*
X13550968Y-14951055D01*
X13550968Y-14951055D02*
X13560491Y-14932008D01*
X13560491Y-14932008D02*
X13579539Y-14903436D01*
X13579539Y-14903436D02*
X13589063Y-14893912D01*
X13655729Y-14941531D02*
X13665253Y-14932008D01*
X13665253Y-14932008D02*
X13684301Y-14922484D01*
X13684301Y-14922484D02*
X13731920Y-14922484D01*
X13731920Y-14922484D02*
X13750968Y-14932008D01*
X13750968Y-14932008D02*
X13760491Y-14941531D01*
X13760491Y-14941531D02*
X13770015Y-14960579D01*
X13770015Y-14960579D02*
X13770015Y-14979627D01*
X13770015Y-14979627D02*
X13760491Y-15008198D01*
X13760491Y-15008198D02*
X13646206Y-15122484D01*
X13646206Y-15122484D02*
X13770015Y-15122484D01*
X14008110Y-15122484D02*
X14008110Y-14922484D01*
X14093825Y-15122484D02*
X14093825Y-15017722D01*
X14093825Y-15017722D02*
X14084301Y-14998674D01*
X14084301Y-14998674D02*
X14065253Y-14989150D01*
X14065253Y-14989150D02*
X14036682Y-14989150D01*
X14036682Y-14989150D02*
X14017634Y-14998674D01*
X14017634Y-14998674D02*
X14008110Y-15008198D01*
X14217634Y-15122484D02*
X14198587Y-15112960D01*
X14198587Y-15112960D02*
X14189063Y-15103436D01*
X14189063Y-15103436D02*
X14179539Y-15084388D01*
X14179539Y-15084388D02*
X14179539Y-15027246D01*
X14179539Y-15027246D02*
X14189063Y-15008198D01*
X14189063Y-15008198D02*
X14198587Y-14998674D01*
X14198587Y-14998674D02*
X14217634Y-14989150D01*
X14217634Y-14989150D02*
X14246206Y-14989150D01*
X14246206Y-14989150D02*
X14265253Y-14998674D01*
X14265253Y-14998674D02*
X14274777Y-15008198D01*
X14274777Y-15008198D02*
X14284301Y-15027246D01*
X14284301Y-15027246D02*
X14284301Y-15084388D01*
X14284301Y-15084388D02*
X14274777Y-15103436D01*
X14274777Y-15103436D02*
X14265253Y-15112960D01*
X14265253Y-15112960D02*
X14246206Y-15122484D01*
X14246206Y-15122484D02*
X14217634Y-15122484D01*
X14398587Y-15122484D02*
X14379539Y-15112960D01*
X14379539Y-15112960D02*
X14370015Y-15093912D01*
X14370015Y-15093912D02*
X14370015Y-14922484D01*
X14550968Y-15112960D02*
X14531920Y-15122484D01*
X14531920Y-15122484D02*
X14493825Y-15122484D01*
X14493825Y-15122484D02*
X14474777Y-15112960D01*
X14474777Y-15112960D02*
X14465253Y-15093912D01*
X14465253Y-15093912D02*
X14465253Y-15017722D01*
X14465253Y-15017722D02*
X14474777Y-14998674D01*
X14474777Y-14998674D02*
X14493825Y-14989150D01*
X14493825Y-14989150D02*
X14531920Y-14989150D01*
X14531920Y-14989150D02*
X14550968Y-14998674D01*
X14550968Y-14998674D02*
X14560491Y-15017722D01*
X14560491Y-15017722D02*
X14560491Y-15036769D01*
X14560491Y-15036769D02*
X14465253Y-15055817D01*
X14636682Y-15112960D02*
X14655730Y-15122484D01*
X14655730Y-15122484D02*
X14693825Y-15122484D01*
X14693825Y-15122484D02*
X14712872Y-15112960D01*
X14712872Y-15112960D02*
X14722396Y-15093912D01*
X14722396Y-15093912D02*
X14722396Y-15084388D01*
X14722396Y-15084388D02*
X14712872Y-15065341D01*
X14712872Y-15065341D02*
X14693825Y-15055817D01*
X14693825Y-15055817D02*
X14665253Y-15055817D01*
X14665253Y-15055817D02*
X14646206Y-15046293D01*
X14646206Y-15046293D02*
X14636682Y-15027246D01*
X14636682Y-15027246D02*
X14636682Y-15017722D01*
X14636682Y-15017722D02*
X14646206Y-14998674D01*
X14646206Y-14998674D02*
X14665253Y-14989150D01*
X14665253Y-14989150D02*
X14693825Y-14989150D01*
X14693825Y-14989150D02*
X14712872Y-14998674D01*
X14789063Y-15198674D02*
X14798587Y-15189150D01*
X14798587Y-15189150D02*
X14817634Y-15160579D01*
X14817634Y-15160579D02*
X14827158Y-15141531D01*
X14827158Y-15141531D02*
X14836682Y-15112960D01*
X14836682Y-15112960D02*
X14846206Y-15065341D01*
X14846206Y-15065341D02*
X14846206Y-15027246D01*
X14846206Y-15027246D02*
X14836682Y-14979627D01*
X14836682Y-14979627D02*
X14827158Y-14951055D01*
X14827158Y-14951055D02*
X14817634Y-14932008D01*
X14817634Y-14932008D02*
X14798587Y-14903436D01*
X14798587Y-14903436D02*
X14789063Y-14893912D01*
M02*
