%TF.GenerationSoftware,KiCad,Pcbnew,7.0.7*%
%TF.CreationDate,2024-01-28T22:11:28-03:30*%
%TF.ProjectId,ground-station,67726f75-6e64-42d7-9374-6174696f6e2e,rev?*%
%TF.SameCoordinates,Original*%
%TF.FileFunction,Drillmap*%
%TF.FilePolarity,Positive*%
%FSLAX45Y45*%
G04 Gerber Fmt 4.5, Leading zero omitted, Abs format (unit mm)*
G04 Created by KiCad (PCBNEW 7.0.7) date 2024-01-28 22:11:28*
%MOMM*%
%LPD*%
G01*
G04 APERTURE LIST*
%ADD10C,0.100000*%
%ADD11C,0.200000*%
%ADD12C,0.275000*%
G04 APERTURE END LIST*
D10*
X10319000Y-6588000D02*
X16219000Y-6588000D01*
X10319000Y-6588000D02*
G75*
G03*
X10019000Y-6888000I0J-300000D01*
G01*
X16519000Y-6888000D02*
X16519000Y-12238000D01*
X10119000Y-8588000D02*
X10419000Y-8588000D01*
X10019000Y-10388000D02*
X10019000Y-12238000D01*
X14419000Y-10338000D02*
X14419000Y-11838000D01*
X16519000Y-6888000D02*
G75*
G03*
X16219000Y-6588000I-300000J0D01*
G01*
X10019000Y-12238000D02*
G75*
G03*
X10319000Y-12538000I300000J0D01*
G01*
X10119000Y-10288000D02*
G75*
G03*
X10019000Y-10388000I0J-100000D01*
G01*
X10319000Y-12538000D02*
X16219000Y-12538000D01*
X14619000Y-10338000D02*
G75*
G03*
X14419000Y-10338000I-100000J0D01*
G01*
X10119000Y-10288000D02*
X10419000Y-10288000D01*
X16219000Y-12538000D02*
G75*
G03*
X16519000Y-12238000I0J300000D01*
G01*
X10419000Y-10288000D02*
G75*
G03*
X10519000Y-10188000I0J100000D01*
G01*
X10019000Y-6888000D02*
X10019000Y-8488000D01*
X14619000Y-10338000D02*
X14619000Y-11838000D01*
X14419000Y-11838000D02*
G75*
G03*
X14619000Y-11838000I100000J0D01*
G01*
X10519000Y-8688000D02*
G75*
G03*
X10419000Y-8588000I-100000J0D01*
G01*
X10019000Y-8488000D02*
G75*
G03*
X10119000Y-8588000I100000J0D01*
G01*
X10519000Y-8688000D02*
X10519000Y-10188000D01*
D11*
D12*
X10231500Y-6850500D02*
X10506500Y-7125500D01*
X10506500Y-6850500D02*
X10231500Y-7125500D01*
X10231500Y-11750500D02*
X10506500Y-12025500D01*
X10506500Y-11750500D02*
X10231500Y-12025500D01*
X16031500Y-6850500D02*
X16306500Y-7125500D01*
X16306500Y-6850500D02*
X16031500Y-7125500D01*
X16031500Y-11750500D02*
X16306500Y-12025500D01*
X16306500Y-11750500D02*
X16031500Y-12025500D01*
D11*
X10274777Y-12854484D02*
X10274777Y-12654484D01*
X10274777Y-12654484D02*
X10322396Y-12654484D01*
X10322396Y-12654484D02*
X10350967Y-12664008D01*
X10350967Y-12664008D02*
X10370015Y-12683055D01*
X10370015Y-12683055D02*
X10379539Y-12702103D01*
X10379539Y-12702103D02*
X10389063Y-12740198D01*
X10389063Y-12740198D02*
X10389063Y-12768769D01*
X10389063Y-12768769D02*
X10379539Y-12806865D01*
X10379539Y-12806865D02*
X10370015Y-12825912D01*
X10370015Y-12825912D02*
X10350967Y-12844960D01*
X10350967Y-12844960D02*
X10322396Y-12854484D01*
X10322396Y-12854484D02*
X10274777Y-12854484D01*
X10474777Y-12854484D02*
X10474777Y-12721150D01*
X10474777Y-12759246D02*
X10484301Y-12740198D01*
X10484301Y-12740198D02*
X10493824Y-12730674D01*
X10493824Y-12730674D02*
X10512872Y-12721150D01*
X10512872Y-12721150D02*
X10531920Y-12721150D01*
X10598586Y-12854484D02*
X10598586Y-12721150D01*
X10598586Y-12654484D02*
X10589063Y-12664008D01*
X10589063Y-12664008D02*
X10598586Y-12673531D01*
X10598586Y-12673531D02*
X10608110Y-12664008D01*
X10608110Y-12664008D02*
X10598586Y-12654484D01*
X10598586Y-12654484D02*
X10598586Y-12673531D01*
X10722396Y-12854484D02*
X10703348Y-12844960D01*
X10703348Y-12844960D02*
X10693824Y-12825912D01*
X10693824Y-12825912D02*
X10693824Y-12654484D01*
X10827158Y-12854484D02*
X10808110Y-12844960D01*
X10808110Y-12844960D02*
X10798586Y-12825912D01*
X10798586Y-12825912D02*
X10798586Y-12654484D01*
X11055729Y-12854484D02*
X11055729Y-12654484D01*
X11055729Y-12654484D02*
X11122396Y-12797341D01*
X11122396Y-12797341D02*
X11189062Y-12654484D01*
X11189062Y-12654484D02*
X11189062Y-12854484D01*
X11370015Y-12854484D02*
X11370015Y-12749722D01*
X11370015Y-12749722D02*
X11360491Y-12730674D01*
X11360491Y-12730674D02*
X11341443Y-12721150D01*
X11341443Y-12721150D02*
X11303348Y-12721150D01*
X11303348Y-12721150D02*
X11284301Y-12730674D01*
X11370015Y-12844960D02*
X11350967Y-12854484D01*
X11350967Y-12854484D02*
X11303348Y-12854484D01*
X11303348Y-12854484D02*
X11284301Y-12844960D01*
X11284301Y-12844960D02*
X11274777Y-12825912D01*
X11274777Y-12825912D02*
X11274777Y-12806865D01*
X11274777Y-12806865D02*
X11284301Y-12787817D01*
X11284301Y-12787817D02*
X11303348Y-12778293D01*
X11303348Y-12778293D02*
X11350967Y-12778293D01*
X11350967Y-12778293D02*
X11370015Y-12768769D01*
X11465253Y-12721150D02*
X11465253Y-12921150D01*
X11465253Y-12730674D02*
X11484301Y-12721150D01*
X11484301Y-12721150D02*
X11522396Y-12721150D01*
X11522396Y-12721150D02*
X11541443Y-12730674D01*
X11541443Y-12730674D02*
X11550967Y-12740198D01*
X11550967Y-12740198D02*
X11560491Y-12759246D01*
X11560491Y-12759246D02*
X11560491Y-12816388D01*
X11560491Y-12816388D02*
X11550967Y-12835436D01*
X11550967Y-12835436D02*
X11541443Y-12844960D01*
X11541443Y-12844960D02*
X11522396Y-12854484D01*
X11522396Y-12854484D02*
X11484301Y-12854484D01*
X11484301Y-12854484D02*
X11465253Y-12844960D01*
X11646205Y-12835436D02*
X11655729Y-12844960D01*
X11655729Y-12844960D02*
X11646205Y-12854484D01*
X11646205Y-12854484D02*
X11636682Y-12844960D01*
X11636682Y-12844960D02*
X11646205Y-12835436D01*
X11646205Y-12835436D02*
X11646205Y-12854484D01*
X11646205Y-12730674D02*
X11655729Y-12740198D01*
X11655729Y-12740198D02*
X11646205Y-12749722D01*
X11646205Y-12749722D02*
X11636682Y-12740198D01*
X11636682Y-12740198D02*
X11646205Y-12730674D01*
X11646205Y-12730674D02*
X11646205Y-12749722D01*
X9814000Y-13083000D02*
X10014000Y-13283000D01*
X10014000Y-13083000D02*
X9814000Y-13283000D01*
X10265253Y-13093531D02*
X10274777Y-13084008D01*
X10274777Y-13084008D02*
X10293824Y-13074484D01*
X10293824Y-13074484D02*
X10341444Y-13074484D01*
X10341444Y-13074484D02*
X10360491Y-13084008D01*
X10360491Y-13084008D02*
X10370015Y-13093531D01*
X10370015Y-13093531D02*
X10379539Y-13112579D01*
X10379539Y-13112579D02*
X10379539Y-13131627D01*
X10379539Y-13131627D02*
X10370015Y-13160198D01*
X10370015Y-13160198D02*
X10255729Y-13274484D01*
X10255729Y-13274484D02*
X10379539Y-13274484D01*
X10465253Y-13255436D02*
X10474777Y-13264960D01*
X10474777Y-13264960D02*
X10465253Y-13274484D01*
X10465253Y-13274484D02*
X10455729Y-13264960D01*
X10455729Y-13264960D02*
X10465253Y-13255436D01*
X10465253Y-13255436D02*
X10465253Y-13274484D01*
X10541444Y-13074484D02*
X10674777Y-13074484D01*
X10674777Y-13074484D02*
X10589063Y-13274484D01*
X10846205Y-13074484D02*
X10750967Y-13074484D01*
X10750967Y-13074484D02*
X10741444Y-13169722D01*
X10741444Y-13169722D02*
X10750967Y-13160198D01*
X10750967Y-13160198D02*
X10770015Y-13150674D01*
X10770015Y-13150674D02*
X10817634Y-13150674D01*
X10817634Y-13150674D02*
X10836682Y-13160198D01*
X10836682Y-13160198D02*
X10846205Y-13169722D01*
X10846205Y-13169722D02*
X10855729Y-13188769D01*
X10855729Y-13188769D02*
X10855729Y-13236388D01*
X10855729Y-13236388D02*
X10846205Y-13255436D01*
X10846205Y-13255436D02*
X10836682Y-13264960D01*
X10836682Y-13264960D02*
X10817634Y-13274484D01*
X10817634Y-13274484D02*
X10770015Y-13274484D01*
X10770015Y-13274484D02*
X10750967Y-13264960D01*
X10750967Y-13264960D02*
X10741444Y-13255436D01*
X10979539Y-13074484D02*
X10998586Y-13074484D01*
X10998586Y-13074484D02*
X11017634Y-13084008D01*
X11017634Y-13084008D02*
X11027158Y-13093531D01*
X11027158Y-13093531D02*
X11036682Y-13112579D01*
X11036682Y-13112579D02*
X11046205Y-13150674D01*
X11046205Y-13150674D02*
X11046205Y-13198293D01*
X11046205Y-13198293D02*
X11036682Y-13236388D01*
X11036682Y-13236388D02*
X11027158Y-13255436D01*
X11027158Y-13255436D02*
X11017634Y-13264960D01*
X11017634Y-13264960D02*
X10998586Y-13274484D01*
X10998586Y-13274484D02*
X10979539Y-13274484D01*
X10979539Y-13274484D02*
X10960491Y-13264960D01*
X10960491Y-13264960D02*
X10950967Y-13255436D01*
X10950967Y-13255436D02*
X10941444Y-13236388D01*
X10941444Y-13236388D02*
X10931920Y-13198293D01*
X10931920Y-13198293D02*
X10931920Y-13150674D01*
X10931920Y-13150674D02*
X10941444Y-13112579D01*
X10941444Y-13112579D02*
X10950967Y-13093531D01*
X10950967Y-13093531D02*
X10960491Y-13084008D01*
X10960491Y-13084008D02*
X10979539Y-13074484D01*
X11131920Y-13274484D02*
X11131920Y-13141150D01*
X11131920Y-13160198D02*
X11141444Y-13150674D01*
X11141444Y-13150674D02*
X11160491Y-13141150D01*
X11160491Y-13141150D02*
X11189063Y-13141150D01*
X11189063Y-13141150D02*
X11208110Y-13150674D01*
X11208110Y-13150674D02*
X11217634Y-13169722D01*
X11217634Y-13169722D02*
X11217634Y-13274484D01*
X11217634Y-13169722D02*
X11227158Y-13150674D01*
X11227158Y-13150674D02*
X11246205Y-13141150D01*
X11246205Y-13141150D02*
X11274777Y-13141150D01*
X11274777Y-13141150D02*
X11293824Y-13150674D01*
X11293824Y-13150674D02*
X11303348Y-13169722D01*
X11303348Y-13169722D02*
X11303348Y-13274484D01*
X11398586Y-13274484D02*
X11398586Y-13141150D01*
X11398586Y-13160198D02*
X11408110Y-13150674D01*
X11408110Y-13150674D02*
X11427158Y-13141150D01*
X11427158Y-13141150D02*
X11455729Y-13141150D01*
X11455729Y-13141150D02*
X11474777Y-13150674D01*
X11474777Y-13150674D02*
X11484301Y-13169722D01*
X11484301Y-13169722D02*
X11484301Y-13274484D01*
X11484301Y-13169722D02*
X11493824Y-13150674D01*
X11493824Y-13150674D02*
X11512872Y-13141150D01*
X11512872Y-13141150D02*
X11541443Y-13141150D01*
X11541443Y-13141150D02*
X11560491Y-13150674D01*
X11560491Y-13150674D02*
X11570015Y-13169722D01*
X11570015Y-13169722D02*
X11570015Y-13274484D01*
X11960491Y-13064960D02*
X11789063Y-13322103D01*
X12217634Y-13074484D02*
X12236682Y-13074484D01*
X12236682Y-13074484D02*
X12255729Y-13084008D01*
X12255729Y-13084008D02*
X12265253Y-13093531D01*
X12265253Y-13093531D02*
X12274777Y-13112579D01*
X12274777Y-13112579D02*
X12284301Y-13150674D01*
X12284301Y-13150674D02*
X12284301Y-13198293D01*
X12284301Y-13198293D02*
X12274777Y-13236388D01*
X12274777Y-13236388D02*
X12265253Y-13255436D01*
X12265253Y-13255436D02*
X12255729Y-13264960D01*
X12255729Y-13264960D02*
X12236682Y-13274484D01*
X12236682Y-13274484D02*
X12217634Y-13274484D01*
X12217634Y-13274484D02*
X12198586Y-13264960D01*
X12198586Y-13264960D02*
X12189063Y-13255436D01*
X12189063Y-13255436D02*
X12179539Y-13236388D01*
X12179539Y-13236388D02*
X12170015Y-13198293D01*
X12170015Y-13198293D02*
X12170015Y-13150674D01*
X12170015Y-13150674D02*
X12179539Y-13112579D01*
X12179539Y-13112579D02*
X12189063Y-13093531D01*
X12189063Y-13093531D02*
X12198586Y-13084008D01*
X12198586Y-13084008D02*
X12217634Y-13074484D01*
X12370015Y-13255436D02*
X12379539Y-13264960D01*
X12379539Y-13264960D02*
X12370015Y-13274484D01*
X12370015Y-13274484D02*
X12360491Y-13264960D01*
X12360491Y-13264960D02*
X12370015Y-13255436D01*
X12370015Y-13255436D02*
X12370015Y-13274484D01*
X12570015Y-13274484D02*
X12455729Y-13274484D01*
X12512872Y-13274484D02*
X12512872Y-13074484D01*
X12512872Y-13074484D02*
X12493825Y-13103055D01*
X12493825Y-13103055D02*
X12474777Y-13122103D01*
X12474777Y-13122103D02*
X12455729Y-13131627D01*
X12693825Y-13074484D02*
X12712872Y-13074484D01*
X12712872Y-13074484D02*
X12731920Y-13084008D01*
X12731920Y-13084008D02*
X12741444Y-13093531D01*
X12741444Y-13093531D02*
X12750967Y-13112579D01*
X12750967Y-13112579D02*
X12760491Y-13150674D01*
X12760491Y-13150674D02*
X12760491Y-13198293D01*
X12760491Y-13198293D02*
X12750967Y-13236388D01*
X12750967Y-13236388D02*
X12741444Y-13255436D01*
X12741444Y-13255436D02*
X12731920Y-13264960D01*
X12731920Y-13264960D02*
X12712872Y-13274484D01*
X12712872Y-13274484D02*
X12693825Y-13274484D01*
X12693825Y-13274484D02*
X12674777Y-13264960D01*
X12674777Y-13264960D02*
X12665253Y-13255436D01*
X12665253Y-13255436D02*
X12655729Y-13236388D01*
X12655729Y-13236388D02*
X12646206Y-13198293D01*
X12646206Y-13198293D02*
X12646206Y-13150674D01*
X12646206Y-13150674D02*
X12655729Y-13112579D01*
X12655729Y-13112579D02*
X12665253Y-13093531D01*
X12665253Y-13093531D02*
X12674777Y-13084008D01*
X12674777Y-13084008D02*
X12693825Y-13074484D01*
X12874777Y-13160198D02*
X12855729Y-13150674D01*
X12855729Y-13150674D02*
X12846206Y-13141150D01*
X12846206Y-13141150D02*
X12836682Y-13122103D01*
X12836682Y-13122103D02*
X12836682Y-13112579D01*
X12836682Y-13112579D02*
X12846206Y-13093531D01*
X12846206Y-13093531D02*
X12855729Y-13084008D01*
X12855729Y-13084008D02*
X12874777Y-13074484D01*
X12874777Y-13074484D02*
X12912872Y-13074484D01*
X12912872Y-13074484D02*
X12931920Y-13084008D01*
X12931920Y-13084008D02*
X12941444Y-13093531D01*
X12941444Y-13093531D02*
X12950967Y-13112579D01*
X12950967Y-13112579D02*
X12950967Y-13122103D01*
X12950967Y-13122103D02*
X12941444Y-13141150D01*
X12941444Y-13141150D02*
X12931920Y-13150674D01*
X12931920Y-13150674D02*
X12912872Y-13160198D01*
X12912872Y-13160198D02*
X12874777Y-13160198D01*
X12874777Y-13160198D02*
X12855729Y-13169722D01*
X12855729Y-13169722D02*
X12846206Y-13179246D01*
X12846206Y-13179246D02*
X12836682Y-13198293D01*
X12836682Y-13198293D02*
X12836682Y-13236388D01*
X12836682Y-13236388D02*
X12846206Y-13255436D01*
X12846206Y-13255436D02*
X12855729Y-13264960D01*
X12855729Y-13264960D02*
X12874777Y-13274484D01*
X12874777Y-13274484D02*
X12912872Y-13274484D01*
X12912872Y-13274484D02*
X12931920Y-13264960D01*
X12931920Y-13264960D02*
X12941444Y-13255436D01*
X12941444Y-13255436D02*
X12950967Y-13236388D01*
X12950967Y-13236388D02*
X12950967Y-13198293D01*
X12950967Y-13198293D02*
X12941444Y-13179246D01*
X12941444Y-13179246D02*
X12931920Y-13169722D01*
X12931920Y-13169722D02*
X12912872Y-13160198D01*
X13017634Y-13074484D02*
X13141444Y-13074484D01*
X13141444Y-13074484D02*
X13074777Y-13150674D01*
X13074777Y-13150674D02*
X13103348Y-13150674D01*
X13103348Y-13150674D02*
X13122396Y-13160198D01*
X13122396Y-13160198D02*
X13131920Y-13169722D01*
X13131920Y-13169722D02*
X13141444Y-13188769D01*
X13141444Y-13188769D02*
X13141444Y-13236388D01*
X13141444Y-13236388D02*
X13131920Y-13255436D01*
X13131920Y-13255436D02*
X13122396Y-13264960D01*
X13122396Y-13264960D02*
X13103348Y-13274484D01*
X13103348Y-13274484D02*
X13046206Y-13274484D01*
X13046206Y-13274484D02*
X13027158Y-13264960D01*
X13027158Y-13264960D02*
X13017634Y-13255436D01*
X13217634Y-13074484D02*
X13217634Y-13112579D01*
X13293825Y-13074484D02*
X13293825Y-13112579D01*
X13589063Y-13350674D02*
X13579539Y-13341150D01*
X13579539Y-13341150D02*
X13560491Y-13312579D01*
X13560491Y-13312579D02*
X13550968Y-13293531D01*
X13550968Y-13293531D02*
X13541444Y-13264960D01*
X13541444Y-13264960D02*
X13531920Y-13217341D01*
X13531920Y-13217341D02*
X13531920Y-13179246D01*
X13531920Y-13179246D02*
X13541444Y-13131627D01*
X13541444Y-13131627D02*
X13550968Y-13103055D01*
X13550968Y-13103055D02*
X13560491Y-13084008D01*
X13560491Y-13084008D02*
X13579539Y-13055436D01*
X13579539Y-13055436D02*
X13589063Y-13045912D01*
X13750968Y-13141150D02*
X13750968Y-13274484D01*
X13703348Y-13064960D02*
X13655729Y-13207817D01*
X13655729Y-13207817D02*
X13779539Y-13207817D01*
X14008110Y-13274484D02*
X14008110Y-13074484D01*
X14093825Y-13274484D02*
X14093825Y-13169722D01*
X14093825Y-13169722D02*
X14084301Y-13150674D01*
X14084301Y-13150674D02*
X14065253Y-13141150D01*
X14065253Y-13141150D02*
X14036682Y-13141150D01*
X14036682Y-13141150D02*
X14017634Y-13150674D01*
X14017634Y-13150674D02*
X14008110Y-13160198D01*
X14217634Y-13274484D02*
X14198587Y-13264960D01*
X14198587Y-13264960D02*
X14189063Y-13255436D01*
X14189063Y-13255436D02*
X14179539Y-13236388D01*
X14179539Y-13236388D02*
X14179539Y-13179246D01*
X14179539Y-13179246D02*
X14189063Y-13160198D01*
X14189063Y-13160198D02*
X14198587Y-13150674D01*
X14198587Y-13150674D02*
X14217634Y-13141150D01*
X14217634Y-13141150D02*
X14246206Y-13141150D01*
X14246206Y-13141150D02*
X14265253Y-13150674D01*
X14265253Y-13150674D02*
X14274777Y-13160198D01*
X14274777Y-13160198D02*
X14284301Y-13179246D01*
X14284301Y-13179246D02*
X14284301Y-13236388D01*
X14284301Y-13236388D02*
X14274777Y-13255436D01*
X14274777Y-13255436D02*
X14265253Y-13264960D01*
X14265253Y-13264960D02*
X14246206Y-13274484D01*
X14246206Y-13274484D02*
X14217634Y-13274484D01*
X14398587Y-13274484D02*
X14379539Y-13264960D01*
X14379539Y-13264960D02*
X14370015Y-13245912D01*
X14370015Y-13245912D02*
X14370015Y-13074484D01*
X14550968Y-13264960D02*
X14531920Y-13274484D01*
X14531920Y-13274484D02*
X14493825Y-13274484D01*
X14493825Y-13274484D02*
X14474777Y-13264960D01*
X14474777Y-13264960D02*
X14465253Y-13245912D01*
X14465253Y-13245912D02*
X14465253Y-13169722D01*
X14465253Y-13169722D02*
X14474777Y-13150674D01*
X14474777Y-13150674D02*
X14493825Y-13141150D01*
X14493825Y-13141150D02*
X14531920Y-13141150D01*
X14531920Y-13141150D02*
X14550968Y-13150674D01*
X14550968Y-13150674D02*
X14560491Y-13169722D01*
X14560491Y-13169722D02*
X14560491Y-13188769D01*
X14560491Y-13188769D02*
X14465253Y-13207817D01*
X14636682Y-13264960D02*
X14655730Y-13274484D01*
X14655730Y-13274484D02*
X14693825Y-13274484D01*
X14693825Y-13274484D02*
X14712872Y-13264960D01*
X14712872Y-13264960D02*
X14722396Y-13245912D01*
X14722396Y-13245912D02*
X14722396Y-13236388D01*
X14722396Y-13236388D02*
X14712872Y-13217341D01*
X14712872Y-13217341D02*
X14693825Y-13207817D01*
X14693825Y-13207817D02*
X14665253Y-13207817D01*
X14665253Y-13207817D02*
X14646206Y-13198293D01*
X14646206Y-13198293D02*
X14636682Y-13179246D01*
X14636682Y-13179246D02*
X14636682Y-13169722D01*
X14636682Y-13169722D02*
X14646206Y-13150674D01*
X14646206Y-13150674D02*
X14665253Y-13141150D01*
X14665253Y-13141150D02*
X14693825Y-13141150D01*
X14693825Y-13141150D02*
X14712872Y-13150674D01*
X14789063Y-13350674D02*
X14798587Y-13341150D01*
X14798587Y-13341150D02*
X14817634Y-13312579D01*
X14817634Y-13312579D02*
X14827158Y-13293531D01*
X14827158Y-13293531D02*
X14836682Y-13264960D01*
X14836682Y-13264960D02*
X14846206Y-13217341D01*
X14846206Y-13217341D02*
X14846206Y-13179246D01*
X14846206Y-13179246D02*
X14836682Y-13131627D01*
X14836682Y-13131627D02*
X14827158Y-13103055D01*
X14827158Y-13103055D02*
X14817634Y-13084008D01*
X14817634Y-13084008D02*
X14798587Y-13055436D01*
X14798587Y-13055436D02*
X14789063Y-13045912D01*
X15150968Y-13350674D02*
X15141444Y-13341150D01*
X15141444Y-13341150D02*
X15122396Y-13312579D01*
X15122396Y-13312579D02*
X15112872Y-13293531D01*
X15112872Y-13293531D02*
X15103349Y-13264960D01*
X15103349Y-13264960D02*
X15093825Y-13217341D01*
X15093825Y-13217341D02*
X15093825Y-13179246D01*
X15093825Y-13179246D02*
X15103349Y-13131627D01*
X15103349Y-13131627D02*
X15112872Y-13103055D01*
X15112872Y-13103055D02*
X15122396Y-13084008D01*
X15122396Y-13084008D02*
X15141444Y-13055436D01*
X15141444Y-13055436D02*
X15150968Y-13045912D01*
X15227158Y-13141150D02*
X15227158Y-13274484D01*
X15227158Y-13160198D02*
X15236682Y-13150674D01*
X15236682Y-13150674D02*
X15255730Y-13141150D01*
X15255730Y-13141150D02*
X15284301Y-13141150D01*
X15284301Y-13141150D02*
X15303349Y-13150674D01*
X15303349Y-13150674D02*
X15312872Y-13169722D01*
X15312872Y-13169722D02*
X15312872Y-13274484D01*
X15436682Y-13274484D02*
X15417634Y-13264960D01*
X15417634Y-13264960D02*
X15408111Y-13255436D01*
X15408111Y-13255436D02*
X15398587Y-13236388D01*
X15398587Y-13236388D02*
X15398587Y-13179246D01*
X15398587Y-13179246D02*
X15408111Y-13160198D01*
X15408111Y-13160198D02*
X15417634Y-13150674D01*
X15417634Y-13150674D02*
X15436682Y-13141150D01*
X15436682Y-13141150D02*
X15465253Y-13141150D01*
X15465253Y-13141150D02*
X15484301Y-13150674D01*
X15484301Y-13150674D02*
X15493825Y-13160198D01*
X15493825Y-13160198D02*
X15503349Y-13179246D01*
X15503349Y-13179246D02*
X15503349Y-13236388D01*
X15503349Y-13236388D02*
X15493825Y-13255436D01*
X15493825Y-13255436D02*
X15484301Y-13264960D01*
X15484301Y-13264960D02*
X15465253Y-13274484D01*
X15465253Y-13274484D02*
X15436682Y-13274484D01*
X15560492Y-13141150D02*
X15636682Y-13141150D01*
X15589063Y-13074484D02*
X15589063Y-13245912D01*
X15589063Y-13245912D02*
X15598587Y-13264960D01*
X15598587Y-13264960D02*
X15617634Y-13274484D01*
X15617634Y-13274484D02*
X15636682Y-13274484D01*
X15855730Y-13141150D02*
X15855730Y-13341150D01*
X15855730Y-13150674D02*
X15874777Y-13141150D01*
X15874777Y-13141150D02*
X15912873Y-13141150D01*
X15912873Y-13141150D02*
X15931920Y-13150674D01*
X15931920Y-13150674D02*
X15941444Y-13160198D01*
X15941444Y-13160198D02*
X15950968Y-13179246D01*
X15950968Y-13179246D02*
X15950968Y-13236388D01*
X15950968Y-13236388D02*
X15941444Y-13255436D01*
X15941444Y-13255436D02*
X15931920Y-13264960D01*
X15931920Y-13264960D02*
X15912873Y-13274484D01*
X15912873Y-13274484D02*
X15874777Y-13274484D01*
X15874777Y-13274484D02*
X15855730Y-13264960D01*
X16065253Y-13274484D02*
X16046206Y-13264960D01*
X16046206Y-13264960D02*
X16036682Y-13245912D01*
X16036682Y-13245912D02*
X16036682Y-13074484D01*
X16227158Y-13274484D02*
X16227158Y-13169722D01*
X16227158Y-13169722D02*
X16217634Y-13150674D01*
X16217634Y-13150674D02*
X16198587Y-13141150D01*
X16198587Y-13141150D02*
X16160492Y-13141150D01*
X16160492Y-13141150D02*
X16141444Y-13150674D01*
X16227158Y-13264960D02*
X16208111Y-13274484D01*
X16208111Y-13274484D02*
X16160492Y-13274484D01*
X16160492Y-13274484D02*
X16141444Y-13264960D01*
X16141444Y-13264960D02*
X16131920Y-13245912D01*
X16131920Y-13245912D02*
X16131920Y-13226865D01*
X16131920Y-13226865D02*
X16141444Y-13207817D01*
X16141444Y-13207817D02*
X16160492Y-13198293D01*
X16160492Y-13198293D02*
X16208111Y-13198293D01*
X16208111Y-13198293D02*
X16227158Y-13188769D01*
X16293825Y-13141150D02*
X16370015Y-13141150D01*
X16322396Y-13074484D02*
X16322396Y-13245912D01*
X16322396Y-13245912D02*
X16331920Y-13264960D01*
X16331920Y-13264960D02*
X16350968Y-13274484D01*
X16350968Y-13274484D02*
X16370015Y-13274484D01*
X16512873Y-13264960D02*
X16493825Y-13274484D01*
X16493825Y-13274484D02*
X16455730Y-13274484D01*
X16455730Y-13274484D02*
X16436682Y-13264960D01*
X16436682Y-13264960D02*
X16427158Y-13245912D01*
X16427158Y-13245912D02*
X16427158Y-13169722D01*
X16427158Y-13169722D02*
X16436682Y-13150674D01*
X16436682Y-13150674D02*
X16455730Y-13141150D01*
X16455730Y-13141150D02*
X16493825Y-13141150D01*
X16493825Y-13141150D02*
X16512873Y-13150674D01*
X16512873Y-13150674D02*
X16522396Y-13169722D01*
X16522396Y-13169722D02*
X16522396Y-13188769D01*
X16522396Y-13188769D02*
X16427158Y-13207817D01*
X16693825Y-13274484D02*
X16693825Y-13074484D01*
X16693825Y-13264960D02*
X16674777Y-13274484D01*
X16674777Y-13274484D02*
X16636682Y-13274484D01*
X16636682Y-13274484D02*
X16617634Y-13264960D01*
X16617634Y-13264960D02*
X16608111Y-13255436D01*
X16608111Y-13255436D02*
X16598587Y-13236388D01*
X16598587Y-13236388D02*
X16598587Y-13179246D01*
X16598587Y-13179246D02*
X16608111Y-13160198D01*
X16608111Y-13160198D02*
X16617634Y-13150674D01*
X16617634Y-13150674D02*
X16636682Y-13141150D01*
X16636682Y-13141150D02*
X16674777Y-13141150D01*
X16674777Y-13141150D02*
X16693825Y-13150674D01*
X16770015Y-13350674D02*
X16779539Y-13341150D01*
X16779539Y-13341150D02*
X16798587Y-13312579D01*
X16798587Y-13312579D02*
X16808111Y-13293531D01*
X16808111Y-13293531D02*
X16817635Y-13264960D01*
X16817635Y-13264960D02*
X16827158Y-13217341D01*
X16827158Y-13217341D02*
X16827158Y-13179246D01*
X16827158Y-13179246D02*
X16817635Y-13131627D01*
X16817635Y-13131627D02*
X16808111Y-13103055D01*
X16808111Y-13103055D02*
X16798587Y-13084008D01*
X16798587Y-13084008D02*
X16779539Y-13055436D01*
X16779539Y-13055436D02*
X16770015Y-13045912D01*
M02*
