%TF.GenerationSoftware,KiCad,Pcbnew,7.0.2-0*%
%TF.CreationDate,2024-01-28T21:47:35-03:30*%
%TF.ProjectId,ground-station,67726f75-6e64-42d7-9374-6174696f6e2e,rev?*%
%TF.SameCoordinates,Original*%
%TF.FileFunction,Profile,NP*%
%FSLAX46Y46*%
G04 Gerber Fmt 4.6, Leading zero omitted, Abs format (unit mm)*
G04 Created by KiCad (PCBNEW 7.0.2-0) date 2024-01-28 21:47:35*
%MOMM*%
%LPD*%
G01*
G04 APERTURE LIST*
%TA.AperFunction,Profile*%
%ADD10C,0.100000*%
%TD*%
G04 APERTURE END LIST*
D10*
X103190000Y-65880000D02*
X162190000Y-65880000D01*
X103190000Y-65880000D02*
G75*
G03*
X100190000Y-68880000I0J-3000000D01*
G01*
X165190000Y-68880000D02*
X165190000Y-122380000D01*
X101190000Y-85880000D02*
X104190000Y-85880000D01*
X100190000Y-103880000D02*
X100190000Y-122380000D01*
X144190000Y-103380000D02*
X144190000Y-118380000D01*
X165190000Y-68880000D02*
G75*
G03*
X162190000Y-65880000I-3000000J0D01*
G01*
X100190000Y-122380000D02*
G75*
G03*
X103190000Y-125380000I3000000J0D01*
G01*
X101190000Y-102880000D02*
G75*
G03*
X100190000Y-103880000I0J-1000000D01*
G01*
X103190000Y-125380000D02*
X162190000Y-125380000D01*
X146190000Y-103380000D02*
G75*
G03*
X144190000Y-103380000I-1000000J0D01*
G01*
X101190000Y-102880000D02*
X104190000Y-102880000D01*
X162190000Y-125380000D02*
G75*
G03*
X165190000Y-122380000I0J3000000D01*
G01*
X104190000Y-102880000D02*
G75*
G03*
X105190000Y-101880000I0J1000000D01*
G01*
X100190000Y-68880000D02*
X100190000Y-84880000D01*
X146190000Y-103380000D02*
X146190000Y-118380000D01*
X144190000Y-118380000D02*
G75*
G03*
X146190000Y-118380000I1000000J0D01*
G01*
X105190000Y-86880000D02*
G75*
G03*
X104190000Y-85880000I-1000000J0D01*
G01*
X100190000Y-84880000D02*
G75*
G03*
X101190000Y-85880000I1000000J0D01*
G01*
X105190000Y-86880000D02*
X105190000Y-101880000D01*
M02*
