G04 #@! TF.GenerationSoftware,KiCad,Pcbnew,7.0.2-0*
G04 #@! TF.CreationDate,2023-10-11T21:53:26-07:00*
G04 #@! TF.ProjectId,low-power,6c6f772d-706f-4776-9572-2e6b69636164,rev?*
G04 #@! TF.SameCoordinates,Original*
G04 #@! TF.FileFunction,Paste,Top*
G04 #@! TF.FilePolarity,Positive*
%FSLAX46Y46*%
G04 Gerber Fmt 4.6, Leading zero omitted, Abs format (unit mm)*
G04 Created by KiCad (PCBNEW 7.0.2-0) date 2023-10-11 21:53:26*
%MOMM*%
%LPD*%
G01*
G04 APERTURE LIST*
G04 Aperture macros list*
%AMRoundRect*
0 Rectangle with rounded corners*
0 $1 Rounding radius*
0 $2 $3 $4 $5 $6 $7 $8 $9 X,Y pos of 4 corners*
0 Add a 4 corners polygon primitive as box body*
4,1,4,$2,$3,$4,$5,$6,$7,$8,$9,$2,$3,0*
0 Add four circle primitives for the rounded corners*
1,1,$1+$1,$2,$3*
1,1,$1+$1,$4,$5*
1,1,$1+$1,$6,$7*
1,1,$1+$1,$8,$9*
0 Add four rect primitives between the rounded corners*
20,1,$1+$1,$2,$3,$4,$5,0*
20,1,$1+$1,$4,$5,$6,$7,0*
20,1,$1+$1,$6,$7,$8,$9,0*
20,1,$1+$1,$8,$9,$2,$3,0*%
G04 Aperture macros list end*
%ADD10C,0.010000*%
%ADD11R,1.050000X1.000000*%
%ADD12R,2.200000X1.050000*%
%ADD13RoundRect,0.140000X0.140000X0.170000X-0.140000X0.170000X-0.140000X-0.170000X0.140000X-0.170000X0*%
%ADD14RoundRect,0.079500X-0.079500X-0.100500X0.079500X-0.100500X0.079500X0.100500X-0.079500X0.100500X0*%
%ADD15RoundRect,0.079500X0.100500X-0.079500X0.100500X0.079500X-0.100500X0.079500X-0.100500X-0.079500X0*%
%ADD16R,0.150000X0.330000*%
%ADD17R,0.510000X0.200000*%
%ADD18RoundRect,0.140000X0.170000X-0.140000X0.170000X0.140000X-0.170000X0.140000X-0.170000X-0.140000X0*%
%ADD19RoundRect,0.147500X0.147500X0.172500X-0.147500X0.172500X-0.147500X-0.172500X0.147500X-0.172500X0*%
%ADD20RoundRect,0.140000X-0.140000X-0.170000X0.140000X-0.170000X0.140000X0.170000X-0.140000X0.170000X0*%
%ADD21RoundRect,0.250000X0.475000X-0.250000X0.475000X0.250000X-0.475000X0.250000X-0.475000X-0.250000X0*%
%ADD22RoundRect,0.120000X0.580000X0.480000X-0.580000X0.480000X-0.580000X-0.480000X0.580000X-0.480000X0*%
%ADD23RoundRect,0.003500X0.171500X-0.371500X0.171500X0.371500X-0.171500X0.371500X-0.171500X-0.371500X0*%
%ADD24RoundRect,0.079500X0.079500X0.100500X-0.079500X0.100500X-0.079500X-0.100500X0.079500X-0.100500X0*%
%ADD25R,1.850000X4.100000*%
%ADD26RoundRect,0.087500X0.087500X-0.225000X0.087500X0.225000X-0.087500X0.225000X-0.087500X-0.225000X0*%
%ADD27RoundRect,0.087500X0.225000X-0.087500X0.225000X0.087500X-0.225000X0.087500X-0.225000X-0.087500X0*%
%ADD28RoundRect,0.135000X-0.135000X-0.185000X0.135000X-0.185000X0.135000X0.185000X-0.135000X0.185000X0*%
%ADD29RoundRect,0.147500X-0.147500X-0.172500X0.147500X-0.172500X0.147500X0.172500X-0.147500X0.172500X0*%
%ADD30RoundRect,0.225000X0.250000X-0.225000X0.250000X0.225000X-0.250000X0.225000X-0.250000X-0.225000X0*%
%ADD31RoundRect,0.200000X0.275000X-0.200000X0.275000X0.200000X-0.275000X0.200000X-0.275000X-0.200000X0*%
%ADD32R,0.800000X1.450000*%
%ADD33R,0.600000X0.300000*%
%ADD34R,0.300000X1.725000*%
%ADD35RoundRect,0.212500X0.212500X-0.212500X0.212500X0.212500X-0.212500X0.212500X-0.212500X-0.212500X0*%
%ADD36RoundRect,0.075000X0.075000X-0.350000X0.075000X0.350000X-0.075000X0.350000X-0.075000X-0.350000X0*%
%ADD37RoundRect,0.075000X0.350000X-0.075000X0.350000X0.075000X-0.350000X0.075000X-0.350000X-0.075000X0*%
%ADD38RoundRect,0.250000X-0.625000X0.312500X-0.625000X-0.312500X0.625000X-0.312500X0.625000X0.312500X0*%
%ADD39RoundRect,0.225000X-0.225000X-0.250000X0.225000X-0.250000X0.225000X0.250000X-0.225000X0.250000X0*%
%ADD40RoundRect,0.135000X0.185000X-0.135000X0.185000X0.135000X-0.185000X0.135000X-0.185000X-0.135000X0*%
%ADD41RoundRect,0.060000X0.240000X0.590000X-0.240000X0.590000X-0.240000X-0.590000X0.240000X-0.590000X0*%
%ADD42RoundRect,0.247500X0.247500X-0.247500X0.247500X0.247500X-0.247500X0.247500X-0.247500X-0.247500X0*%
%ADD43RoundRect,0.075000X0.075000X-0.362500X0.075000X0.362500X-0.075000X0.362500X-0.075000X-0.362500X0*%
%ADD44RoundRect,0.075000X0.362500X-0.075000X0.362500X0.075000X-0.362500X0.075000X-0.362500X-0.075000X0*%
%ADD45RoundRect,0.140000X-0.170000X0.140000X-0.170000X-0.140000X0.170000X-0.140000X0.170000X0.140000X0*%
%ADD46R,1.450000X0.800000*%
%ADD47R,0.300000X0.600000*%
%ADD48R,1.725000X0.300000*%
%ADD49RoundRect,0.079500X-0.100500X0.079500X-0.100500X-0.079500X0.100500X-0.079500X0.100500X0.079500X0*%
%ADD50R,0.280000X0.170000*%
%ADD51R,0.280000X0.520000*%
%ADD52RoundRect,0.250000X-0.475000X0.250000X-0.475000X-0.250000X0.475000X-0.250000X0.475000X0.250000X0*%
%ADD53RoundRect,0.028600X-0.401400X0.101400X-0.401400X-0.101400X0.401400X-0.101400X0.401400X0.101400X0*%
%ADD54RoundRect,0.007800X-0.122200X0.422200X-0.122200X-0.422200X0.122200X-0.422200X0.122200X0.422200X0*%
%ADD55RoundRect,0.147500X-0.172500X0.147500X-0.172500X-0.147500X0.172500X-0.147500X0.172500X0.147500X0*%
%ADD56R,0.260000X0.840000*%
%ADD57R,0.840000X0.260000*%
%ADD58RoundRect,0.250000X0.362500X1.075000X-0.362500X1.075000X-0.362500X-1.075000X0.362500X-1.075000X0*%
%ADD59R,0.550000X0.550000*%
%ADD60R,0.420000X0.540000*%
%ADD61R,2.370000X1.710000*%
%ADD62R,0.420000X0.700000*%
%ADD63R,0.939800X1.397000*%
%ADD64RoundRect,0.200000X0.200000X-1.070000X0.200000X1.070000X-0.200000X1.070000X-0.200000X-1.070000X0*%
%ADD65RoundRect,0.011200X0.128800X-0.368800X0.128800X0.368800X-0.128800X0.368800X-0.128800X-0.368800X0*%
%ADD66RoundRect,0.250000X-0.250000X-0.475000X0.250000X-0.475000X0.250000X0.475000X-0.250000X0.475000X0*%
%ADD67RoundRect,0.225000X-0.250000X0.225000X-0.250000X-0.225000X0.250000X-0.225000X0.250000X0.225000X0*%
%ADD68RoundRect,0.135000X0.135000X0.185000X-0.135000X0.185000X-0.135000X-0.185000X0.135000X-0.185000X0*%
%ADD69R,0.540000X0.420000*%
%ADD70R,1.710000X2.370000*%
%ADD71R,0.700000X0.420000*%
%ADD72RoundRect,0.250000X0.250000X0.475000X-0.250000X0.475000X-0.250000X-0.475000X0.250000X-0.475000X0*%
%ADD73RoundRect,0.249999X0.395001X-0.395001X0.395001X0.395001X-0.395001X0.395001X-0.395001X-0.395001X0*%
%ADD74RoundRect,0.050000X0.050000X-0.387500X0.050000X0.387500X-0.050000X0.387500X-0.050000X-0.387500X0*%
%ADD75RoundRect,0.050000X0.387500X-0.050000X0.387500X0.050000X-0.387500X0.050000X-0.387500X-0.050000X0*%
%ADD76R,4.100000X1.850000*%
%ADD77RoundRect,0.031200X-0.268800X0.088800X-0.268800X-0.088800X0.268800X-0.088800X0.268800X0.088800X0*%
%ADD78RoundRect,0.012000X-0.108000X0.288000X-0.108000X-0.288000X0.108000X-0.288000X0.108000X0.288000X0*%
%ADD79RoundRect,0.079500X0.127279X0.014849X0.014849X0.127279X-0.127279X-0.014849X-0.014849X-0.127279X0*%
%ADD80RoundRect,0.250000X-0.295000X0.295000X-0.295000X-0.295000X0.295000X-0.295000X0.295000X0.295000X0*%
%ADD81RoundRect,0.062500X-0.062500X0.350000X-0.062500X-0.350000X0.062500X-0.350000X0.062500X0.350000X0*%
%ADD82RoundRect,0.062500X-0.350000X0.062500X-0.350000X-0.062500X0.350000X-0.062500X0.350000X0.062500X0*%
%ADD83RoundRect,0.135000X-0.185000X0.135000X-0.185000X-0.135000X0.185000X-0.135000X0.185000X0.135000X0*%
%ADD84R,4.000000X1.200000*%
%ADD85R,0.300000X0.850000*%
%ADD86R,1.600000X1.600000*%
%ADD87RoundRect,0.152400X-0.990600X-0.609600X0.990600X-0.609600X0.990600X0.609600X-0.990600X0.609600X0*%
%ADD88RoundRect,0.250000X-1.075000X0.362500X-1.075000X-0.362500X1.075000X-0.362500X1.075000X0.362500X0*%
%ADD89RoundRect,0.200000X-0.275000X0.200000X-0.275000X-0.200000X0.275000X-0.200000X0.275000X0.200000X0*%
G04 APERTURE END LIST*
D10*
X141080000Y-94290000D02*
X139820000Y-94290000D01*
X139820000Y-93660000D01*
X141080000Y-93660000D01*
X141080000Y-94290000D01*
G36*
X141080000Y-94290000D02*
G01*
X139820000Y-94290000D01*
X139820000Y-93660000D01*
X141080000Y-93660000D01*
X141080000Y-94290000D01*
G37*
X184396027Y-92347173D02*
X183476027Y-92347173D01*
X183476027Y-91427173D01*
X184396027Y-91427173D01*
X184396027Y-92347173D01*
G36*
X184396027Y-92347173D02*
G01*
X183476027Y-92347173D01*
X183476027Y-91427173D01*
X184396027Y-91427173D01*
X184396027Y-92347173D01*
G37*
X183226027Y-92347173D02*
X182306027Y-92347173D01*
X182306027Y-91427173D01*
X183226027Y-91427173D01*
X183226027Y-92347173D01*
G36*
X183226027Y-92347173D02*
G01*
X182306027Y-92347173D01*
X182306027Y-91427173D01*
X183226027Y-91427173D01*
X183226027Y-92347173D01*
G37*
X184396027Y-93517173D02*
X183476027Y-93517173D01*
X183476027Y-92597173D01*
X184396027Y-92597173D01*
X184396027Y-93517173D01*
G36*
X184396027Y-93517173D02*
G01*
X183476027Y-93517173D01*
X183476027Y-92597173D01*
X184396027Y-92597173D01*
X184396027Y-93517173D01*
G37*
X183226027Y-93517173D02*
X182306027Y-93517173D01*
X182306027Y-92597173D01*
X183226027Y-92597173D01*
X183226027Y-93517173D01*
G36*
X183226027Y-93517173D02*
G01*
X182306027Y-93517173D01*
X182306027Y-92597173D01*
X183226027Y-92597173D01*
X183226027Y-93517173D01*
G37*
X144705000Y-94005000D02*
X144005000Y-94005000D01*
X144005000Y-93105000D01*
X144705000Y-93105000D01*
X144705000Y-94005000D01*
G36*
X144705000Y-94005000D02*
G01*
X144005000Y-94005000D01*
X144005000Y-93105000D01*
X144705000Y-93105000D01*
X144705000Y-94005000D01*
G37*
X145605000Y-94005000D02*
X144905000Y-94005000D01*
X144905000Y-93105000D01*
X145605000Y-93105000D01*
X145605000Y-94005000D01*
G36*
X145605000Y-94005000D02*
G01*
X144905000Y-94005000D01*
X144905000Y-93105000D01*
X145605000Y-93105000D01*
X145605000Y-94005000D01*
G37*
X134090000Y-110040000D02*
X133240000Y-110040000D01*
X133240000Y-109120000D01*
X134090000Y-109120000D01*
X134090000Y-110040000D01*
G36*
X134090000Y-110040000D02*
G01*
X133240000Y-110040000D01*
X133240000Y-109120000D01*
X134090000Y-109120000D01*
X134090000Y-110040000D01*
G37*
X133040000Y-110040000D02*
X132190000Y-110040000D01*
X132190000Y-109120000D01*
X133040000Y-109120000D01*
X133040000Y-110040000D01*
G36*
X133040000Y-110040000D02*
G01*
X132190000Y-110040000D01*
X132190000Y-109120000D01*
X133040000Y-109120000D01*
X133040000Y-110040000D01*
G37*
X131990000Y-110040000D02*
X131140000Y-110040000D01*
X131140000Y-109120000D01*
X131990000Y-109120000D01*
X131990000Y-110040000D01*
G36*
X131990000Y-110040000D02*
G01*
X131140000Y-110040000D01*
X131140000Y-109120000D01*
X131990000Y-109120000D01*
X131990000Y-110040000D01*
G37*
X134090000Y-111160000D02*
X133240000Y-111160000D01*
X133240000Y-110240000D01*
X134090000Y-110240000D01*
X134090000Y-111160000D01*
G36*
X134090000Y-111160000D02*
G01*
X133240000Y-111160000D01*
X133240000Y-110240000D01*
X134090000Y-110240000D01*
X134090000Y-111160000D01*
G37*
X133040000Y-111160000D02*
X132190000Y-111160000D01*
X132190000Y-110240000D01*
X133040000Y-110240000D01*
X133040000Y-111160000D01*
G36*
X133040000Y-111160000D02*
G01*
X132190000Y-111160000D01*
X132190000Y-110240000D01*
X133040000Y-110240000D01*
X133040000Y-111160000D01*
G37*
X131990000Y-111160000D02*
X131140000Y-111160000D01*
X131140000Y-110240000D01*
X131990000Y-110240000D01*
X131990000Y-111160000D01*
G36*
X131990000Y-111160000D02*
G01*
X131140000Y-111160000D01*
X131140000Y-110240000D01*
X131990000Y-110240000D01*
X131990000Y-111160000D01*
G37*
X135023000Y-109766000D02*
X135025000Y-109766000D01*
X135028000Y-109767000D01*
X135030000Y-109767000D01*
X135033000Y-109768000D01*
X135035000Y-109769000D01*
X135038000Y-109770000D01*
X135040000Y-109772000D01*
X135042000Y-109773000D01*
X135044000Y-109775000D01*
X135046000Y-109776000D01*
X135048000Y-109778000D01*
X135050000Y-109780000D01*
X135052000Y-109782000D01*
X135054000Y-109784000D01*
X135055000Y-109786000D01*
X135057000Y-109788000D01*
X135058000Y-109790000D01*
X135060000Y-109792000D01*
X135061000Y-109795000D01*
X135062000Y-109797000D01*
X135063000Y-109800000D01*
X135063000Y-109802000D01*
X135064000Y-109805000D01*
X135064000Y-109807000D01*
X135065000Y-109810000D01*
X135065000Y-109812000D01*
X135065000Y-109815000D01*
X135065000Y-109915000D01*
X135065000Y-109918000D01*
X135065000Y-109920000D01*
X135064000Y-109923000D01*
X135064000Y-109925000D01*
X135063000Y-109928000D01*
X135063000Y-109930000D01*
X135062000Y-109933000D01*
X135061000Y-109935000D01*
X135060000Y-109938000D01*
X135058000Y-109940000D01*
X135057000Y-109942000D01*
X135055000Y-109944000D01*
X135054000Y-109946000D01*
X135052000Y-109948000D01*
X135050000Y-109950000D01*
X135048000Y-109952000D01*
X135046000Y-109954000D01*
X135044000Y-109955000D01*
X135042000Y-109957000D01*
X135040000Y-109958000D01*
X135038000Y-109960000D01*
X135035000Y-109961000D01*
X135033000Y-109962000D01*
X135030000Y-109963000D01*
X135028000Y-109963000D01*
X135025000Y-109964000D01*
X135023000Y-109964000D01*
X135020000Y-109965000D01*
X135018000Y-109965000D01*
X135015000Y-109965000D01*
X134540000Y-109965000D01*
X134540000Y-110315000D01*
X135015000Y-110315000D01*
X135018000Y-110315000D01*
X135020000Y-110315000D01*
X135023000Y-110316000D01*
X135025000Y-110316000D01*
X135028000Y-110317000D01*
X135030000Y-110317000D01*
X135033000Y-110318000D01*
X135035000Y-110319000D01*
X135038000Y-110320000D01*
X135040000Y-110322000D01*
X135042000Y-110323000D01*
X135044000Y-110325000D01*
X135046000Y-110326000D01*
X135048000Y-110328000D01*
X135050000Y-110330000D01*
X135052000Y-110332000D01*
X135054000Y-110334000D01*
X135055000Y-110336000D01*
X135057000Y-110338000D01*
X135058000Y-110340000D01*
X135060000Y-110342000D01*
X135061000Y-110345000D01*
X135062000Y-110347000D01*
X135063000Y-110350000D01*
X135063000Y-110352000D01*
X135064000Y-110355000D01*
X135064000Y-110357000D01*
X135065000Y-110360000D01*
X135065000Y-110362000D01*
X135065000Y-110365000D01*
X135065000Y-110465000D01*
X135065000Y-110468000D01*
X135065000Y-110470000D01*
X135064000Y-110473000D01*
X135064000Y-110475000D01*
X135063000Y-110478000D01*
X135063000Y-110480000D01*
X135062000Y-110483000D01*
X135061000Y-110485000D01*
X135060000Y-110488000D01*
X135058000Y-110490000D01*
X135057000Y-110492000D01*
X135055000Y-110494000D01*
X135054000Y-110496000D01*
X135052000Y-110498000D01*
X135050000Y-110500000D01*
X135048000Y-110502000D01*
X135046000Y-110504000D01*
X135044000Y-110505000D01*
X135042000Y-110507000D01*
X135040000Y-110508000D01*
X135038000Y-110510000D01*
X135035000Y-110511000D01*
X135033000Y-110512000D01*
X135030000Y-110513000D01*
X135028000Y-110513000D01*
X135025000Y-110514000D01*
X135023000Y-110514000D01*
X135020000Y-110515000D01*
X135018000Y-110515000D01*
X135015000Y-110515000D01*
X134290000Y-110515000D01*
X134290000Y-109765000D01*
X135015000Y-109765000D01*
X135018000Y-109765000D01*
X135020000Y-109765000D01*
X135023000Y-109766000D01*
G36*
X135023000Y-109766000D02*
G01*
X135025000Y-109766000D01*
X135028000Y-109767000D01*
X135030000Y-109767000D01*
X135033000Y-109768000D01*
X135035000Y-109769000D01*
X135038000Y-109770000D01*
X135040000Y-109772000D01*
X135042000Y-109773000D01*
X135044000Y-109775000D01*
X135046000Y-109776000D01*
X135048000Y-109778000D01*
X135050000Y-109780000D01*
X135052000Y-109782000D01*
X135054000Y-109784000D01*
X135055000Y-109786000D01*
X135057000Y-109788000D01*
X135058000Y-109790000D01*
X135060000Y-109792000D01*
X135061000Y-109795000D01*
X135062000Y-109797000D01*
X135063000Y-109800000D01*
X135063000Y-109802000D01*
X135064000Y-109805000D01*
X135064000Y-109807000D01*
X135065000Y-109810000D01*
X135065000Y-109812000D01*
X135065000Y-109815000D01*
X135065000Y-109915000D01*
X135065000Y-109918000D01*
X135065000Y-109920000D01*
X135064000Y-109923000D01*
X135064000Y-109925000D01*
X135063000Y-109928000D01*
X135063000Y-109930000D01*
X135062000Y-109933000D01*
X135061000Y-109935000D01*
X135060000Y-109938000D01*
X135058000Y-109940000D01*
X135057000Y-109942000D01*
X135055000Y-109944000D01*
X135054000Y-109946000D01*
X135052000Y-109948000D01*
X135050000Y-109950000D01*
X135048000Y-109952000D01*
X135046000Y-109954000D01*
X135044000Y-109955000D01*
X135042000Y-109957000D01*
X135040000Y-109958000D01*
X135038000Y-109960000D01*
X135035000Y-109961000D01*
X135033000Y-109962000D01*
X135030000Y-109963000D01*
X135028000Y-109963000D01*
X135025000Y-109964000D01*
X135023000Y-109964000D01*
X135020000Y-109965000D01*
X135018000Y-109965000D01*
X135015000Y-109965000D01*
X134540000Y-109965000D01*
X134540000Y-110315000D01*
X135015000Y-110315000D01*
X135018000Y-110315000D01*
X135020000Y-110315000D01*
X135023000Y-110316000D01*
X135025000Y-110316000D01*
X135028000Y-110317000D01*
X135030000Y-110317000D01*
X135033000Y-110318000D01*
X135035000Y-110319000D01*
X135038000Y-110320000D01*
X135040000Y-110322000D01*
X135042000Y-110323000D01*
X135044000Y-110325000D01*
X135046000Y-110326000D01*
X135048000Y-110328000D01*
X135050000Y-110330000D01*
X135052000Y-110332000D01*
X135054000Y-110334000D01*
X135055000Y-110336000D01*
X135057000Y-110338000D01*
X135058000Y-110340000D01*
X135060000Y-110342000D01*
X135061000Y-110345000D01*
X135062000Y-110347000D01*
X135063000Y-110350000D01*
X135063000Y-110352000D01*
X135064000Y-110355000D01*
X135064000Y-110357000D01*
X135065000Y-110360000D01*
X135065000Y-110362000D01*
X135065000Y-110365000D01*
X135065000Y-110465000D01*
X135065000Y-110468000D01*
X135065000Y-110470000D01*
X135064000Y-110473000D01*
X135064000Y-110475000D01*
X135063000Y-110478000D01*
X135063000Y-110480000D01*
X135062000Y-110483000D01*
X135061000Y-110485000D01*
X135060000Y-110488000D01*
X135058000Y-110490000D01*
X135057000Y-110492000D01*
X135055000Y-110494000D01*
X135054000Y-110496000D01*
X135052000Y-110498000D01*
X135050000Y-110500000D01*
X135048000Y-110502000D01*
X135046000Y-110504000D01*
X135044000Y-110505000D01*
X135042000Y-110507000D01*
X135040000Y-110508000D01*
X135038000Y-110510000D01*
X135035000Y-110511000D01*
X135033000Y-110512000D01*
X135030000Y-110513000D01*
X135028000Y-110513000D01*
X135025000Y-110514000D01*
X135023000Y-110514000D01*
X135020000Y-110515000D01*
X135018000Y-110515000D01*
X135015000Y-110515000D01*
X134290000Y-110515000D01*
X134290000Y-109765000D01*
X135015000Y-109765000D01*
X135018000Y-109765000D01*
X135020000Y-109765000D01*
X135023000Y-109766000D01*
G37*
X130940000Y-110515000D02*
X130215000Y-110515000D01*
X130212000Y-110515000D01*
X130210000Y-110515000D01*
X130207000Y-110514000D01*
X130205000Y-110514000D01*
X130202000Y-110513000D01*
X130200000Y-110513000D01*
X130197000Y-110512000D01*
X130195000Y-110511000D01*
X130192000Y-110510000D01*
X130190000Y-110508000D01*
X130188000Y-110507000D01*
X130186000Y-110505000D01*
X130184000Y-110504000D01*
X130182000Y-110502000D01*
X130180000Y-110500000D01*
X130178000Y-110498000D01*
X130176000Y-110496000D01*
X130175000Y-110494000D01*
X130173000Y-110492000D01*
X130172000Y-110490000D01*
X130170000Y-110488000D01*
X130169000Y-110485000D01*
X130168000Y-110483000D01*
X130167000Y-110480000D01*
X130167000Y-110478000D01*
X130166000Y-110475000D01*
X130166000Y-110473000D01*
X130165000Y-110470000D01*
X130165000Y-110468000D01*
X130165000Y-110465000D01*
X130165000Y-110365000D01*
X130165000Y-110362000D01*
X130165000Y-110360000D01*
X130166000Y-110357000D01*
X130166000Y-110355000D01*
X130167000Y-110352000D01*
X130167000Y-110350000D01*
X130168000Y-110347000D01*
X130169000Y-110345000D01*
X130170000Y-110342000D01*
X130172000Y-110340000D01*
X130173000Y-110338000D01*
X130175000Y-110336000D01*
X130176000Y-110334000D01*
X130178000Y-110332000D01*
X130180000Y-110330000D01*
X130182000Y-110328000D01*
X130184000Y-110326000D01*
X130186000Y-110325000D01*
X130188000Y-110323000D01*
X130190000Y-110322000D01*
X130192000Y-110320000D01*
X130195000Y-110319000D01*
X130197000Y-110318000D01*
X130200000Y-110317000D01*
X130202000Y-110317000D01*
X130205000Y-110316000D01*
X130207000Y-110316000D01*
X130210000Y-110315000D01*
X130212000Y-110315000D01*
X130215000Y-110315000D01*
X130690000Y-110315000D01*
X130690000Y-109965000D01*
X130215000Y-109965000D01*
X130212000Y-109965000D01*
X130210000Y-109965000D01*
X130207000Y-109964000D01*
X130205000Y-109964000D01*
X130202000Y-109963000D01*
X130200000Y-109963000D01*
X130197000Y-109962000D01*
X130195000Y-109961000D01*
X130192000Y-109960000D01*
X130190000Y-109958000D01*
X130188000Y-109957000D01*
X130186000Y-109955000D01*
X130184000Y-109954000D01*
X130182000Y-109952000D01*
X130180000Y-109950000D01*
X130178000Y-109948000D01*
X130176000Y-109946000D01*
X130175000Y-109944000D01*
X130173000Y-109942000D01*
X130172000Y-109940000D01*
X130170000Y-109938000D01*
X130169000Y-109935000D01*
X130168000Y-109933000D01*
X130167000Y-109930000D01*
X130167000Y-109928000D01*
X130166000Y-109925000D01*
X130166000Y-109923000D01*
X130165000Y-109920000D01*
X130165000Y-109918000D01*
X130165000Y-109915000D01*
X130165000Y-109815000D01*
X130165000Y-109812000D01*
X130165000Y-109810000D01*
X130166000Y-109807000D01*
X130166000Y-109805000D01*
X130167000Y-109802000D01*
X130167000Y-109800000D01*
X130168000Y-109797000D01*
X130169000Y-109795000D01*
X130170000Y-109792000D01*
X130172000Y-109790000D01*
X130173000Y-109788000D01*
X130175000Y-109786000D01*
X130176000Y-109784000D01*
X130178000Y-109782000D01*
X130180000Y-109780000D01*
X130182000Y-109778000D01*
X130184000Y-109776000D01*
X130186000Y-109775000D01*
X130188000Y-109773000D01*
X130190000Y-109772000D01*
X130192000Y-109770000D01*
X130195000Y-109769000D01*
X130197000Y-109768000D01*
X130200000Y-109767000D01*
X130202000Y-109767000D01*
X130205000Y-109766000D01*
X130207000Y-109766000D01*
X130210000Y-109765000D01*
X130212000Y-109765000D01*
X130215000Y-109765000D01*
X130940000Y-109765000D01*
X130940000Y-110515000D01*
G36*
X130940000Y-110515000D02*
G01*
X130215000Y-110515000D01*
X130212000Y-110515000D01*
X130210000Y-110515000D01*
X130207000Y-110514000D01*
X130205000Y-110514000D01*
X130202000Y-110513000D01*
X130200000Y-110513000D01*
X130197000Y-110512000D01*
X130195000Y-110511000D01*
X130192000Y-110510000D01*
X130190000Y-110508000D01*
X130188000Y-110507000D01*
X130186000Y-110505000D01*
X130184000Y-110504000D01*
X130182000Y-110502000D01*
X130180000Y-110500000D01*
X130178000Y-110498000D01*
X130176000Y-110496000D01*
X130175000Y-110494000D01*
X130173000Y-110492000D01*
X130172000Y-110490000D01*
X130170000Y-110488000D01*
X130169000Y-110485000D01*
X130168000Y-110483000D01*
X130167000Y-110480000D01*
X130167000Y-110478000D01*
X130166000Y-110475000D01*
X130166000Y-110473000D01*
X130165000Y-110470000D01*
X130165000Y-110468000D01*
X130165000Y-110465000D01*
X130165000Y-110365000D01*
X130165000Y-110362000D01*
X130165000Y-110360000D01*
X130166000Y-110357000D01*
X130166000Y-110355000D01*
X130167000Y-110352000D01*
X130167000Y-110350000D01*
X130168000Y-110347000D01*
X130169000Y-110345000D01*
X130170000Y-110342000D01*
X130172000Y-110340000D01*
X130173000Y-110338000D01*
X130175000Y-110336000D01*
X130176000Y-110334000D01*
X130178000Y-110332000D01*
X130180000Y-110330000D01*
X130182000Y-110328000D01*
X130184000Y-110326000D01*
X130186000Y-110325000D01*
X130188000Y-110323000D01*
X130190000Y-110322000D01*
X130192000Y-110320000D01*
X130195000Y-110319000D01*
X130197000Y-110318000D01*
X130200000Y-110317000D01*
X130202000Y-110317000D01*
X130205000Y-110316000D01*
X130207000Y-110316000D01*
X130210000Y-110315000D01*
X130212000Y-110315000D01*
X130215000Y-110315000D01*
X130690000Y-110315000D01*
X130690000Y-109965000D01*
X130215000Y-109965000D01*
X130212000Y-109965000D01*
X130210000Y-109965000D01*
X130207000Y-109964000D01*
X130205000Y-109964000D01*
X130202000Y-109963000D01*
X130200000Y-109963000D01*
X130197000Y-109962000D01*
X130195000Y-109961000D01*
X130192000Y-109960000D01*
X130190000Y-109958000D01*
X130188000Y-109957000D01*
X130186000Y-109955000D01*
X130184000Y-109954000D01*
X130182000Y-109952000D01*
X130180000Y-109950000D01*
X130178000Y-109948000D01*
X130176000Y-109946000D01*
X130175000Y-109944000D01*
X130173000Y-109942000D01*
X130172000Y-109940000D01*
X130170000Y-109938000D01*
X130169000Y-109935000D01*
X130168000Y-109933000D01*
X130167000Y-109930000D01*
X130167000Y-109928000D01*
X130166000Y-109925000D01*
X130166000Y-109923000D01*
X130165000Y-109920000D01*
X130165000Y-109918000D01*
X130165000Y-109915000D01*
X130165000Y-109815000D01*
X130165000Y-109812000D01*
X130165000Y-109810000D01*
X130166000Y-109807000D01*
X130166000Y-109805000D01*
X130167000Y-109802000D01*
X130167000Y-109800000D01*
X130168000Y-109797000D01*
X130169000Y-109795000D01*
X130170000Y-109792000D01*
X130172000Y-109790000D01*
X130173000Y-109788000D01*
X130175000Y-109786000D01*
X130176000Y-109784000D01*
X130178000Y-109782000D01*
X130180000Y-109780000D01*
X130182000Y-109778000D01*
X130184000Y-109776000D01*
X130186000Y-109775000D01*
X130188000Y-109773000D01*
X130190000Y-109772000D01*
X130192000Y-109770000D01*
X130195000Y-109769000D01*
X130197000Y-109768000D01*
X130200000Y-109767000D01*
X130202000Y-109767000D01*
X130205000Y-109766000D01*
X130207000Y-109766000D01*
X130210000Y-109765000D01*
X130212000Y-109765000D01*
X130215000Y-109765000D01*
X130940000Y-109765000D01*
X130940000Y-110515000D01*
G37*
X115995000Y-99345000D02*
X115445000Y-99345000D01*
X115445000Y-99145000D01*
X115995000Y-99145000D01*
X115995000Y-99345000D01*
G36*
X115995000Y-99345000D02*
G01*
X115445000Y-99345000D01*
X115445000Y-99145000D01*
X115995000Y-99145000D01*
X115995000Y-99345000D01*
G37*
X115995000Y-98845000D02*
X115445000Y-98845000D01*
X115445000Y-98645000D01*
X115995000Y-98645000D01*
X115995000Y-98845000D01*
G36*
X115995000Y-98845000D02*
G01*
X115445000Y-98845000D01*
X115445000Y-98645000D01*
X115995000Y-98645000D01*
X115995000Y-98845000D01*
G37*
X115995000Y-98345000D02*
X115445000Y-98345000D01*
X115445000Y-98145000D01*
X115995000Y-98145000D01*
X115995000Y-98345000D01*
G36*
X115995000Y-98345000D02*
G01*
X115445000Y-98345000D01*
X115445000Y-98145000D01*
X115995000Y-98145000D01*
X115995000Y-98345000D01*
G37*
X115995000Y-97845000D02*
X115445000Y-97845000D01*
X115445000Y-97645000D01*
X115995000Y-97645000D01*
X115995000Y-97845000D01*
G36*
X115995000Y-97845000D02*
G01*
X115445000Y-97845000D01*
X115445000Y-97645000D01*
X115995000Y-97645000D01*
X115995000Y-97845000D01*
G37*
X114445000Y-99095000D02*
X114245000Y-99095000D01*
X114245000Y-98595000D01*
X114445000Y-98595000D01*
X114445000Y-99095000D01*
G36*
X114445000Y-99095000D02*
G01*
X114245000Y-99095000D01*
X114245000Y-98595000D01*
X114445000Y-98595000D01*
X114445000Y-99095000D01*
G37*
X114445000Y-98395000D02*
X114245000Y-98395000D01*
X114245000Y-97895000D01*
X114445000Y-97895000D01*
X114445000Y-98395000D01*
G36*
X114445000Y-98395000D02*
G01*
X114245000Y-98395000D01*
X114245000Y-97895000D01*
X114445000Y-97895000D01*
X114445000Y-98395000D01*
G37*
X113245000Y-99345000D02*
X112695000Y-99345000D01*
X112695000Y-99145000D01*
X113245000Y-99145000D01*
X113245000Y-99345000D01*
G36*
X113245000Y-99345000D02*
G01*
X112695000Y-99345000D01*
X112695000Y-99145000D01*
X113245000Y-99145000D01*
X113245000Y-99345000D01*
G37*
X113245000Y-98845000D02*
X112695000Y-98845000D01*
X112695000Y-98645000D01*
X113245000Y-98645000D01*
X113245000Y-98845000D01*
G36*
X113245000Y-98845000D02*
G01*
X112695000Y-98845000D01*
X112695000Y-98645000D01*
X113245000Y-98645000D01*
X113245000Y-98845000D01*
G37*
X113245000Y-98345000D02*
X112695000Y-98345000D01*
X112695000Y-98145000D01*
X113245000Y-98145000D01*
X113245000Y-98345000D01*
G36*
X113245000Y-98345000D02*
G01*
X112695000Y-98345000D01*
X112695000Y-98145000D01*
X113245000Y-98145000D01*
X113245000Y-98345000D01*
G37*
X113245000Y-97845000D02*
X112695000Y-97845000D01*
X112695000Y-97645000D01*
X113245000Y-97645000D01*
X113245000Y-97845000D01*
G36*
X113245000Y-97845000D02*
G01*
X112695000Y-97845000D01*
X112695000Y-97645000D01*
X113245000Y-97645000D01*
X113245000Y-97845000D01*
G37*
D11*
X187476027Y-100772173D03*
D12*
X189001027Y-99297173D03*
X189001027Y-102247173D03*
D11*
X198226027Y-99072173D03*
D12*
X196701027Y-100547173D03*
X196701027Y-97597173D03*
D13*
X199976027Y-92272173D03*
X199016027Y-92272173D03*
X189756027Y-92492173D03*
X188796027Y-92492173D03*
D14*
X116230000Y-104400000D03*
X116920000Y-104400000D03*
D15*
X121394416Y-91124833D03*
X121394416Y-90434833D03*
D16*
X197876027Y-91774673D03*
X197376027Y-91774673D03*
D17*
X197196027Y-92259673D03*
D16*
X197376027Y-92744673D03*
X197876027Y-92744673D03*
D17*
X198056027Y-92259673D03*
D18*
X134850000Y-114515000D03*
X134850000Y-113555000D03*
D19*
X188811027Y-91547173D03*
X187841027Y-91547173D03*
D15*
X120775000Y-109605000D03*
X120775000Y-108915000D03*
D20*
X189746027Y-90597173D03*
X190706027Y-90597173D03*
D14*
X131380000Y-93800000D03*
X132070000Y-93800000D03*
X109940000Y-101505000D03*
X110630000Y-101505000D03*
D20*
X200896027Y-93222173D03*
X201856027Y-93222173D03*
D14*
X140770000Y-83423600D03*
X141460000Y-83423600D03*
D21*
X145005000Y-112350000D03*
X145005000Y-110450000D03*
D15*
X197176027Y-94267173D03*
X197176027Y-93577173D03*
D22*
X182496027Y-87247173D03*
X180296027Y-87247173D03*
X180296027Y-88947173D03*
X182496027Y-88947173D03*
D23*
X111625000Y-117640000D03*
X112125000Y-117640000D03*
X112625000Y-117640000D03*
X112625000Y-116260000D03*
X112125000Y-116260000D03*
X111625000Y-116260000D03*
D14*
X141035000Y-109425000D03*
X141725000Y-109425000D03*
D24*
X115914300Y-92315000D03*
X115224300Y-92315000D03*
D25*
X154055000Y-107085000D03*
X157705000Y-107085000D03*
D26*
X123035000Y-91167500D03*
X123535000Y-91167500D03*
X124035000Y-91167500D03*
X124535000Y-91167500D03*
D27*
X124697500Y-90505000D03*
X124697500Y-90005000D03*
X124697500Y-89505000D03*
D26*
X124535000Y-88842500D03*
X124035000Y-88842500D03*
X123535000Y-88842500D03*
X123035000Y-88842500D03*
D27*
X122872500Y-89505000D03*
X122872500Y-90005000D03*
X122872500Y-90505000D03*
D18*
X187876027Y-89652173D03*
X187876027Y-88692173D03*
D14*
X130345000Y-113635000D03*
X131035000Y-113635000D03*
D28*
X148315000Y-99300000D03*
X149335000Y-99300000D03*
D29*
X189741027Y-91547173D03*
X190711027Y-91547173D03*
D30*
X158175000Y-100180000D03*
X158175000Y-98630000D03*
D15*
X125635000Y-90715000D03*
X125635000Y-90025000D03*
D19*
X188811027Y-90572173D03*
X187841027Y-90572173D03*
D13*
X136740000Y-106955000D03*
X135780000Y-106955000D03*
D20*
X188796027Y-93442173D03*
X189756027Y-93442173D03*
D30*
X133630000Y-115380000D03*
X133630000Y-113830000D03*
D31*
X107275000Y-97135000D03*
X107275000Y-95485000D03*
D32*
X149965000Y-106310000D03*
D33*
X149865000Y-107360000D03*
X149865000Y-107810000D03*
X149865000Y-108260000D03*
X151565000Y-108260000D03*
X151565000Y-107810000D03*
X151565000Y-107360000D03*
D32*
X151465000Y-106310000D03*
D34*
X150715000Y-106172500D03*
D35*
X110470000Y-104770000D03*
X111520000Y-104770000D03*
X110470000Y-103720000D03*
X111520000Y-103720000D03*
D36*
X110020000Y-106195000D03*
X110670000Y-106195000D03*
X111320000Y-106195000D03*
X111970000Y-106195000D03*
D37*
X112945000Y-105220000D03*
X112945000Y-104570000D03*
X112945000Y-103920000D03*
X112945000Y-103270000D03*
D36*
X111970000Y-102295000D03*
X111320000Y-102295000D03*
X110670000Y-102295000D03*
X110020000Y-102295000D03*
D37*
X109045000Y-103270000D03*
X109045000Y-103920000D03*
X109045000Y-104570000D03*
X109045000Y-105220000D03*
D14*
X204731027Y-109422173D03*
X205421027Y-109422173D03*
D38*
X125505000Y-107692500D03*
X125505000Y-110617500D03*
D39*
X136020000Y-113470000D03*
X137570000Y-113470000D03*
D40*
X115150000Y-115410000D03*
X115150000Y-114390000D03*
D24*
X180341027Y-89997173D03*
X179651027Y-89997173D03*
D41*
X109205000Y-111875000D03*
X110405000Y-111875000D03*
X111605000Y-111875000D03*
X112805000Y-111875000D03*
X112805000Y-107575000D03*
X111605000Y-107575000D03*
X110405000Y-107575000D03*
X109205000Y-107575000D03*
D42*
X134440000Y-94485000D03*
X135660000Y-94485000D03*
X134440000Y-93265000D03*
X135660000Y-93265000D03*
D43*
X133800000Y-95812500D03*
X134300000Y-95812500D03*
X134800000Y-95812500D03*
X135300000Y-95812500D03*
X135800000Y-95812500D03*
X136300000Y-95812500D03*
D44*
X136987500Y-95125000D03*
X136987500Y-94625000D03*
X136987500Y-94125000D03*
X136987500Y-93625000D03*
X136987500Y-93125000D03*
X136987500Y-92625000D03*
D43*
X136300000Y-91937500D03*
X135800000Y-91937500D03*
X135300000Y-91937500D03*
X134800000Y-91937500D03*
X134300000Y-91937500D03*
X133800000Y-91937500D03*
D44*
X133112500Y-92625000D03*
X133112500Y-93125000D03*
X133112500Y-93625000D03*
X133112500Y-94125000D03*
X133112500Y-94625000D03*
X133112500Y-95125000D03*
D45*
X114565000Y-104620000D03*
X114565000Y-105580000D03*
D21*
X146980000Y-112350000D03*
X146980000Y-110450000D03*
D46*
X142755000Y-106900000D03*
D47*
X141705000Y-106800000D03*
X141255000Y-106800000D03*
X140805000Y-106800000D03*
X140805000Y-108500000D03*
X141255000Y-108500000D03*
X141705000Y-108500000D03*
D46*
X142755000Y-108400000D03*
D48*
X142892500Y-107650000D03*
D20*
X189746027Y-89672173D03*
X190706027Y-89672173D03*
D14*
X135690000Y-106125000D03*
X136380000Y-106125000D03*
D49*
X122207500Y-111772500D03*
X122207500Y-112462500D03*
D50*
X108250000Y-94420000D03*
X108250000Y-94070000D03*
D51*
X107600000Y-94245000D03*
D13*
X192556027Y-90597173D03*
X191596027Y-90597173D03*
D52*
X145005000Y-107000000D03*
X145005000Y-108900000D03*
D53*
X142135000Y-93725000D03*
D54*
X141700000Y-92790000D03*
X141200000Y-92790000D03*
X140700000Y-92790000D03*
X140200000Y-92790000D03*
X139700000Y-92790000D03*
X139200000Y-92790000D03*
D53*
X138765000Y-93725000D03*
X138765000Y-94225000D03*
D54*
X139200000Y-95160000D03*
X139700000Y-95160000D03*
X140200000Y-95160000D03*
X140700000Y-95160000D03*
X141200000Y-95160000D03*
X141700000Y-95160000D03*
D53*
X142135000Y-94225000D03*
D49*
X116502500Y-108900000D03*
X116502500Y-109590000D03*
D40*
X129335000Y-114535000D03*
X129335000Y-113515000D03*
D55*
X187876027Y-92482173D03*
X187876027Y-93452173D03*
D49*
X119345000Y-108910000D03*
X119345000Y-109600000D03*
D24*
X146040000Y-83436400D03*
X145350000Y-83436400D03*
D18*
X113845000Y-103725000D03*
X113845000Y-102765000D03*
D24*
X117425000Y-106425000D03*
X116735000Y-106425000D03*
D56*
X184601027Y-90527173D03*
X184101027Y-90527173D03*
X183601027Y-90527173D03*
X183101027Y-90527173D03*
X182601027Y-90527173D03*
X182101027Y-90527173D03*
D57*
X181406027Y-91222173D03*
X181406027Y-91722173D03*
X181406027Y-92222173D03*
X181406027Y-92722173D03*
X181406027Y-93222173D03*
X181406027Y-93722173D03*
D56*
X182101027Y-94417173D03*
X182601027Y-94417173D03*
X183101027Y-94417173D03*
X183601027Y-94417173D03*
X184101027Y-94417173D03*
X184601027Y-94417173D03*
D57*
X185296027Y-93722173D03*
X185296027Y-93222173D03*
X185296027Y-92722173D03*
X185296027Y-92222173D03*
X185296027Y-91722173D03*
X185296027Y-91222173D03*
D24*
X184771027Y-89497173D03*
X184081027Y-89497173D03*
D58*
X145187500Y-104665000D03*
X140562500Y-104665000D03*
D59*
X145305000Y-86806400D03*
X146055000Y-86802800D03*
X145295000Y-84146400D03*
X146045000Y-84142800D03*
D45*
X136735000Y-107865000D03*
X136735000Y-108825000D03*
D14*
X139265000Y-108000000D03*
X139955000Y-108000000D03*
X125330000Y-96250000D03*
X126020000Y-96250000D03*
D15*
X132075000Y-95920000D03*
X132075000Y-95230000D03*
D49*
X143200000Y-92555000D03*
X143200000Y-93245000D03*
D21*
X155935000Y-103555000D03*
X155935000Y-101655000D03*
D14*
X137075000Y-114595000D03*
X137765000Y-114595000D03*
D60*
X127195000Y-106325000D03*
X126545000Y-106325000D03*
D61*
X126220000Y-105200000D03*
D60*
X125895000Y-106325000D03*
X125245000Y-106325000D03*
D62*
X125245000Y-103245000D03*
X127195000Y-103245000D03*
X126545000Y-103245000D03*
X125895000Y-103245000D03*
D15*
X129875000Y-94770000D03*
X129875000Y-94080000D03*
D45*
X136745000Y-109695000D03*
X136745000Y-110655000D03*
D63*
X128800000Y-95683100D03*
X128800000Y-93066900D03*
X127150000Y-93066900D03*
X127150000Y-95683100D03*
D45*
X137655000Y-107865000D03*
X137655000Y-108825000D03*
D18*
X122307500Y-110897500D03*
X122307500Y-109937500D03*
D20*
X127145000Y-107585000D03*
X128105000Y-107585000D03*
D24*
X110990000Y-94445000D03*
X110300000Y-94445000D03*
D39*
X136025000Y-111995000D03*
X137575000Y-111995000D03*
D15*
X204751027Y-112542173D03*
X204751027Y-111852173D03*
X197876027Y-94267173D03*
X197876027Y-93577173D03*
D49*
X143175000Y-94380000D03*
X143175000Y-95070000D03*
D24*
X114834184Y-95365000D03*
X114144184Y-95365000D03*
D14*
X204731027Y-108722173D03*
X205421027Y-108722173D03*
D24*
X110990000Y-95175000D03*
X110300000Y-95175000D03*
D14*
X130345000Y-114350000D03*
X131035000Y-114350000D03*
D64*
X194851027Y-112722173D03*
X195951027Y-112722173D03*
X197051027Y-112722173D03*
X198151027Y-112722173D03*
X199251027Y-112722173D03*
X200351027Y-112722173D03*
X201451027Y-112722173D03*
X202551027Y-112722173D03*
X203651027Y-112722173D03*
X203651027Y-102822173D03*
X202551027Y-102822173D03*
X201451027Y-102822173D03*
X200351027Y-102822173D03*
X199251027Y-102822173D03*
X198151027Y-102822173D03*
X197051027Y-102822173D03*
X195951027Y-102822173D03*
X194851027Y-102822173D03*
D24*
X151765000Y-109115000D03*
X151075000Y-109115000D03*
D14*
X130355000Y-115050000D03*
X131045000Y-115050000D03*
D65*
X144055000Y-94540000D03*
X144555000Y-94540000D03*
X145055000Y-94540000D03*
X145555000Y-94540000D03*
X145555000Y-92570000D03*
X145055000Y-92570000D03*
X144555000Y-92570000D03*
X144055000Y-92570000D03*
D66*
X150065000Y-104065000D03*
X151965000Y-104065000D03*
D20*
X111430000Y-101395000D03*
X112390000Y-101395000D03*
D14*
X127480000Y-108440000D03*
X128170000Y-108440000D03*
D67*
X123100000Y-113775000D03*
X123100000Y-115325000D03*
D24*
X114834184Y-96065000D03*
X114144184Y-96065000D03*
D68*
X147460000Y-99300000D03*
X146440000Y-99300000D03*
D24*
X115914300Y-90915000D03*
X115224300Y-90915000D03*
D13*
X196256027Y-91547173D03*
X195296027Y-91547173D03*
D69*
X131245000Y-100360000D03*
X131245000Y-101010000D03*
D70*
X130120000Y-101335000D03*
D69*
X131245000Y-101660000D03*
X131245000Y-102310000D03*
D71*
X128165000Y-102310000D03*
X128165000Y-100360000D03*
X128165000Y-101010000D03*
X128165000Y-101660000D03*
D72*
X158175000Y-110825000D03*
X156275000Y-110825000D03*
D14*
X145350000Y-82726400D03*
X146040000Y-82726400D03*
D20*
X204801027Y-110947173D03*
X205761027Y-110947173D03*
D29*
X200891027Y-92272173D03*
X201861027Y-92272173D03*
D18*
X123232500Y-110355000D03*
X123232500Y-109395000D03*
D49*
X118627500Y-108900000D03*
X118627500Y-109590000D03*
D20*
X193426027Y-90597173D03*
X194386027Y-90597173D03*
D14*
X128130000Y-91750000D03*
X128820000Y-91750000D03*
D20*
X113825000Y-106495000D03*
X114785000Y-106495000D03*
D73*
X119594416Y-96717333D03*
X121194416Y-96717333D03*
X119594416Y-95117333D03*
X121194416Y-95117333D03*
D74*
X117794416Y-99354833D03*
X118194416Y-99354833D03*
X118594416Y-99354833D03*
X118994416Y-99354833D03*
X119394416Y-99354833D03*
X119794416Y-99354833D03*
X120194416Y-99354833D03*
X120594416Y-99354833D03*
X120994416Y-99354833D03*
X121394416Y-99354833D03*
X121794416Y-99354833D03*
X122194416Y-99354833D03*
X122594416Y-99354833D03*
X122994416Y-99354833D03*
D75*
X123831916Y-98517333D03*
X123831916Y-98117333D03*
X123831916Y-97717333D03*
X123831916Y-97317333D03*
X123831916Y-96917333D03*
X123831916Y-96517333D03*
X123831916Y-96117333D03*
X123831916Y-95717333D03*
X123831916Y-95317333D03*
X123831916Y-94917333D03*
X123831916Y-94517333D03*
X123831916Y-94117333D03*
X123831916Y-93717333D03*
X123831916Y-93317333D03*
D74*
X122994416Y-92479833D03*
X122594416Y-92479833D03*
X122194416Y-92479833D03*
X121794416Y-92479833D03*
X121394416Y-92479833D03*
X120994416Y-92479833D03*
X120594416Y-92479833D03*
X120194416Y-92479833D03*
X119794416Y-92479833D03*
X119394416Y-92479833D03*
X118994416Y-92479833D03*
X118594416Y-92479833D03*
X118194416Y-92479833D03*
X117794416Y-92479833D03*
D75*
X116956916Y-93317333D03*
X116956916Y-93717333D03*
X116956916Y-94117333D03*
X116956916Y-94517333D03*
X116956916Y-94917333D03*
X116956916Y-95317333D03*
X116956916Y-95717333D03*
X116956916Y-96117333D03*
X116956916Y-96517333D03*
X116956916Y-96917333D03*
X116956916Y-97317333D03*
X116956916Y-97717333D03*
X116956916Y-98117333D03*
X116956916Y-98517333D03*
D14*
X149670000Y-109115000D03*
X150360000Y-109115000D03*
D76*
X141255000Y-110950000D03*
X141255000Y-114600000D03*
D24*
X139955000Y-106600000D03*
X139265000Y-106600000D03*
D42*
X119790000Y-105497500D03*
X121010000Y-105497500D03*
X119790000Y-104277500D03*
X121010000Y-104277500D03*
D43*
X119150000Y-106825000D03*
X119650000Y-106825000D03*
X120150000Y-106825000D03*
X120650000Y-106825000D03*
X121150000Y-106825000D03*
X121650000Y-106825000D03*
D44*
X122337500Y-106137500D03*
X122337500Y-105637500D03*
X122337500Y-105137500D03*
X122337500Y-104637500D03*
X122337500Y-104137500D03*
X122337500Y-103637500D03*
D43*
X121650000Y-102950000D03*
X121150000Y-102950000D03*
X120650000Y-102950000D03*
X120150000Y-102950000D03*
X119650000Y-102950000D03*
X119150000Y-102950000D03*
D44*
X118462500Y-103637500D03*
X118462500Y-104137500D03*
X118462500Y-104637500D03*
X118462500Y-105137500D03*
X118462500Y-105637500D03*
X118462500Y-106137500D03*
D14*
X121480000Y-100400000D03*
X122170000Y-100400000D03*
D77*
X134765000Y-109390000D03*
D78*
X134365000Y-108490000D03*
X133865000Y-108490000D03*
X133365000Y-108490000D03*
X132865000Y-108490000D03*
X132365000Y-108490000D03*
X131865000Y-108490000D03*
X131365000Y-108490000D03*
X130865000Y-108490000D03*
D77*
X130465000Y-109390000D03*
X130465000Y-110890000D03*
D78*
X130865000Y-111790000D03*
X131365000Y-111790000D03*
X131865000Y-111790000D03*
X132365000Y-111790000D03*
X132865000Y-111790000D03*
X133365000Y-111790000D03*
X133865000Y-111790000D03*
X134365000Y-111790000D03*
D77*
X134765000Y-110890000D03*
D24*
X115914300Y-91615000D03*
X115224300Y-91615000D03*
D49*
X152495000Y-108640000D03*
X152495000Y-109330000D03*
D13*
X196231027Y-92922173D03*
X195271027Y-92922173D03*
D49*
X131865000Y-106680000D03*
X131865000Y-107370000D03*
X108285000Y-103250000D03*
X108285000Y-103940000D03*
D79*
X116093952Y-112493952D03*
X115606048Y-112006048D03*
D20*
X198996027Y-93222173D03*
X199956027Y-93222173D03*
D18*
X188801027Y-89652173D03*
X188801027Y-88692173D03*
D14*
X139265000Y-107300000D03*
X139955000Y-107300000D03*
D24*
X113710000Y-100120000D03*
X113020000Y-100120000D03*
D67*
X133075000Y-104025000D03*
X133075000Y-105575000D03*
D29*
X193441027Y-91547173D03*
X194411027Y-91547173D03*
D80*
X119887500Y-111925000D03*
X118537500Y-111925000D03*
X119887500Y-113275000D03*
X118537500Y-113275000D03*
D81*
X120462500Y-110637500D03*
X119962500Y-110637500D03*
X119462500Y-110637500D03*
X118962500Y-110637500D03*
X118462500Y-110637500D03*
X117962500Y-110637500D03*
D82*
X117250000Y-111350000D03*
X117250000Y-111850000D03*
X117250000Y-112350000D03*
X117250000Y-112850000D03*
X117250000Y-113350000D03*
X117250000Y-113850000D03*
D81*
X117962500Y-114562500D03*
X118462500Y-114562500D03*
X118962500Y-114562500D03*
X119462500Y-114562500D03*
X119962500Y-114562500D03*
X120462500Y-114562500D03*
D82*
X121175000Y-113850000D03*
X121175000Y-113350000D03*
X121175000Y-112850000D03*
X121175000Y-112350000D03*
X121175000Y-111850000D03*
X121175000Y-111350000D03*
D14*
X151705000Y-94800000D03*
X152395000Y-94800000D03*
X125330000Y-95550000D03*
X126020000Y-95550000D03*
X116255000Y-105147500D03*
X116945000Y-105147500D03*
D15*
X183601027Y-87642173D03*
X183601027Y-86952173D03*
X117212500Y-109590000D03*
X117212500Y-108900000D03*
D14*
X125355000Y-94850000D03*
X126045000Y-94850000D03*
D24*
X121930000Y-89505000D03*
X121240000Y-89505000D03*
D45*
X135805000Y-107865000D03*
X135805000Y-108825000D03*
D14*
X131380000Y-94500000D03*
X132070000Y-94500000D03*
D67*
X131600000Y-104025000D03*
X131600000Y-105575000D03*
D59*
X140745000Y-86800000D03*
X141495000Y-86796400D03*
X140735000Y-84140000D03*
X141485000Y-84136400D03*
D14*
X204731027Y-110122173D03*
X205421027Y-110122173D03*
D49*
X113745000Y-104540000D03*
X113745000Y-105230000D03*
D15*
X128495000Y-114595000D03*
X128495000Y-113905000D03*
D24*
X117170000Y-100400000D03*
X116480000Y-100400000D03*
D13*
X180276027Y-90842173D03*
X179316027Y-90842173D03*
D18*
X135815000Y-110655000D03*
X135815000Y-109695000D03*
D49*
X125635000Y-88610000D03*
X125635000Y-89300000D03*
D14*
X197856027Y-90972173D03*
X198546027Y-90972173D03*
X114160000Y-93265000D03*
X114850000Y-93265000D03*
D30*
X132150000Y-115380000D03*
X132150000Y-113830000D03*
D24*
X114834184Y-94665000D03*
X114144184Y-94665000D03*
D83*
X129050000Y-107365000D03*
X129050000Y-108385000D03*
D40*
X116100000Y-115410000D03*
X116100000Y-114390000D03*
D39*
X136035000Y-105025000D03*
X137585000Y-105025000D03*
D18*
X114405000Y-92470000D03*
X114405000Y-91510000D03*
D14*
X114149184Y-93965000D03*
X114839184Y-93965000D03*
D21*
X157915000Y-103565000D03*
X157915000Y-101665000D03*
D18*
X180271027Y-92697173D03*
X180271027Y-91737173D03*
X117669300Y-91356905D03*
X117669300Y-90396905D03*
D13*
X192556027Y-91547173D03*
X191596027Y-91547173D03*
D11*
X202926027Y-92272173D03*
D12*
X204451027Y-90797173D03*
X204451027Y-93747173D03*
D84*
X100250000Y-106685000D03*
X100250000Y-95485000D03*
D24*
X131035000Y-112715000D03*
X130345000Y-112715000D03*
D85*
X127505000Y-112400000D03*
X128005000Y-112400000D03*
X128505000Y-112400000D03*
X129005000Y-112400000D03*
X129005000Y-109500000D03*
X128505000Y-109500000D03*
X128005000Y-109500000D03*
X127505000Y-109500000D03*
D86*
X128255000Y-110950000D03*
D49*
X122907500Y-111772500D03*
X122907500Y-112462500D03*
D20*
X114505000Y-100205000D03*
X115465000Y-100205000D03*
D87*
X161751027Y-100777173D03*
X161751027Y-103317173D03*
X161751027Y-105857173D03*
X161751027Y-108397173D03*
X161751027Y-110937173D03*
X184251027Y-110977173D03*
X184251027Y-108437173D03*
X184251027Y-105897173D03*
X184251027Y-103357173D03*
X184251027Y-100817173D03*
X184251027Y-98277173D03*
D13*
X200381027Y-99097173D03*
X199421027Y-99097173D03*
D15*
X117927500Y-109590000D03*
X117927500Y-108900000D03*
D24*
X141460000Y-82723600D03*
X140770000Y-82723600D03*
D15*
X152505000Y-107930000D03*
X152505000Y-107240000D03*
D88*
X147725000Y-103972500D03*
X147725000Y-108597500D03*
D89*
X108735000Y-95490000D03*
X108735000Y-97140000D03*
D18*
X190676027Y-93422173D03*
X190676027Y-92462173D03*
D49*
X121475000Y-108910000D03*
X121475000Y-109600000D03*
D18*
X116744300Y-91356905D03*
X116744300Y-90396905D03*
D15*
X120060000Y-109600000D03*
X120060000Y-108910000D03*
M02*
