G04 #@! TF.GenerationSoftware,KiCad,Pcbnew,7.0.2-0*
G04 #@! TF.CreationDate,2023-10-11T21:53:26-07:00*
G04 #@! TF.ProjectId,low-power,6c6f772d-706f-4776-9572-2e6b69636164,rev?*
G04 #@! TF.SameCoordinates,Original*
G04 #@! TF.FileFunction,Profile,NP*
%FSLAX46Y46*%
G04 Gerber Fmt 4.6, Leading zero omitted, Abs format (unit mm)*
G04 Created by KiCad (PCBNEW 7.0.2-0) date 2023-10-11 21:53:26*
%MOMM*%
%LPD*%
G01*
G04 APERTURE LIST*
G04 #@! TA.AperFunction,Profile*
%ADD10C,0.050000*%
G04 #@! TD*
G04 APERTURE END LIST*
D10*
X79525000Y-93225000D02*
G75*
G03*
X80775000Y-94475000I1250000J0D01*
G01*
X108366408Y-122539079D02*
G75*
G03*
X115801406Y-123475000I7434992J29063979D01*
G01*
X135323352Y-78475000D02*
X115801406Y-78475000D01*
X154316184Y-82701044D02*
G75*
G03*
X159838127Y-83626687I6868016J24037844D01*
G01*
X135323352Y-123475000D02*
X115801406Y-123475000D01*
X82320928Y-117415631D02*
X88244373Y-117819503D01*
X82320928Y-84534369D02*
X88244373Y-84130497D01*
X89275000Y-94475000D02*
X80775000Y-94475000D01*
X208025006Y-89067593D02*
G75*
G03*
X205186530Y-86071946I-3000006J-7D01*
G01*
X143564985Y-122320718D02*
X154316182Y-119248948D01*
X92739607Y-83408473D02*
X108366408Y-79410919D01*
X89275000Y-107475000D02*
X80775000Y-107475000D01*
X143564985Y-79629282D02*
X154316182Y-82701052D01*
X155025000Y-113725000D02*
G75*
G03*
X155025000Y-113725000I-3250000J0D01*
G01*
X159838127Y-83626688D02*
X205186530Y-86071945D01*
X115801406Y-78474999D02*
G75*
G03*
X108366408Y-79410920I-6J-29999901D01*
G01*
X92739607Y-118541526D02*
G75*
G03*
X88244373Y-117819503I-6195807J-24219974D01*
G01*
X103025000Y-88225000D02*
G75*
G03*
X103025000Y-88225000I-3250000J0D01*
G01*
X208025000Y-89067593D02*
X208025000Y-112882407D01*
X79525000Y-93225000D02*
X79525000Y-87527420D01*
X91275000Y-96475000D02*
G75*
G03*
X89275000Y-94475000I-2000000J0D01*
G01*
X91275000Y-105475000D02*
X91275000Y-96475000D01*
X135323352Y-123474986D02*
G75*
G03*
X143564985Y-122320718I48J29999986D01*
G01*
X159838127Y-118323305D02*
G75*
G03*
X154316182Y-119248948I1346173J-24964095D01*
G01*
X79525021Y-114422580D02*
G75*
G03*
X82320928Y-117415630I2999979J-20D01*
G01*
X79525000Y-108725000D02*
X79525000Y-114422580D01*
X80775000Y-107475000D02*
G75*
G03*
X79525000Y-108725000I0J-1250000D01*
G01*
X155025000Y-88225000D02*
G75*
G03*
X155025000Y-88225000I-3250000J0D01*
G01*
X205186530Y-115878048D02*
G75*
G03*
X208025000Y-112882407I-161530J2995648D01*
G01*
X82320927Y-84534349D02*
G75*
G03*
X79525000Y-87527420I204073J-2993051D01*
G01*
X92739607Y-118541527D02*
X108366408Y-122539081D01*
X159838127Y-118323312D02*
X205186530Y-115878055D01*
X89275000Y-107475000D02*
G75*
G03*
X91275000Y-105475000I0J2000000D01*
G01*
X143564989Y-79629269D02*
G75*
G03*
X135323352Y-78475000I-8241589J-28845731D01*
G01*
X103025000Y-113725000D02*
G75*
G03*
X103025000Y-113725000I-3250000J0D01*
G01*
X88244373Y-84130496D02*
G75*
G03*
X92739607Y-83408473I-1700573J24941996D01*
G01*
M02*
