G04 #@! TF.GenerationSoftware,KiCad,Pcbnew,7.0.2-0*
G04 #@! TF.CreationDate,2023-10-11T21:53:26-07:00*
G04 #@! TF.ProjectId,low-power,6c6f772d-706f-4776-9572-2e6b69636164,rev?*
G04 #@! TF.SameCoordinates,Original*
G04 #@! TF.FileFunction,Soldermask,Bot*
G04 #@! TF.FilePolarity,Negative*
%FSLAX46Y46*%
G04 Gerber Fmt 4.6, Leading zero omitted, Abs format (unit mm)*
G04 Created by KiCad (PCBNEW 7.0.2-0) date 2023-10-11 21:53:26*
%MOMM*%
%LPD*%
G01*
G04 APERTURE LIST*
G04 Aperture macros list*
%AMRoundRect*
0 Rectangle with rounded corners*
0 $1 Rounding radius*
0 $2 $3 $4 $5 $6 $7 $8 $9 X,Y pos of 4 corners*
0 Add a 4 corners polygon primitive as box body*
4,1,4,$2,$3,$4,$5,$6,$7,$8,$9,$2,$3,0*
0 Add four circle primitives for the rounded corners*
1,1,$1+$1,$2,$3*
1,1,$1+$1,$4,$5*
1,1,$1+$1,$6,$7*
1,1,$1+$1,$8,$9*
0 Add four rect primitives between the rounded corners*
20,1,$1+$1,$2,$3,$4,$5,0*
20,1,$1+$1,$4,$5,$6,$7,0*
20,1,$1+$1,$6,$7,$8,$9,0*
20,1,$1+$1,$8,$9,$2,$3,0*%
G04 Aperture macros list end*
%ADD10C,1.500000*%
%ADD11C,1.000000*%
%ADD12C,0.500000*%
%ADD13C,0.800000*%
%ADD14C,5.000000*%
%ADD15C,1.050000*%
%ADD16C,0.350000*%
%ADD17C,0.650000*%
%ADD18R,0.600000X1.240000*%
%ADD19R,0.300000X1.240000*%
%ADD20O,1.000000X1.800000*%
%ADD21O,1.000000X2.100000*%
%ADD22RoundRect,0.250000X-0.350000X-0.625000X0.350000X-0.625000X0.350000X0.625000X-0.350000X0.625000X0*%
%ADD23O,1.200000X1.750000*%
%ADD24C,1.000000*%
%ADD25RoundRect,0.250000X0.350000X0.625000X-0.350000X0.625000X-0.350000X-0.625000X0.350000X-0.625000X0*%
G04 APERTURE END LIST*
D10*
X143372900Y-80331073D02*
X154129296Y-83384642D01*
X159808991Y-117558282D02*
G75*
G03*
X154125906Y-118510921I1385409J-25692718D01*
G01*
X135333497Y-122754116D02*
G75*
G03*
X143378741Y-121627341I203J29283716D01*
G01*
X95045960Y-118386384D02*
X108556993Y-121827709D01*
D11*
X95462044Y-83774554D02*
G75*
G03*
X92451694Y-87650000I989656J-3875646D01*
G01*
D10*
X135333497Y-122754119D02*
X115811551Y-122740914D01*
D12*
X103000000Y-113725000D02*
G75*
G03*
X103000000Y-113725000I-3250000J0D01*
G01*
D10*
X205157847Y-115151976D02*
G75*
G03*
X207313984Y-112876392I-122747J2275576D01*
G01*
X159808991Y-117588807D02*
X205157844Y-115151918D01*
X143378741Y-121627342D02*
X154125906Y-118541450D01*
X154129297Y-83384637D02*
G75*
G03*
X159809651Y-84336829I7065203J24728537D01*
G01*
D12*
X155026027Y-113722173D02*
G75*
G03*
X155026027Y-113722173I-3250000J0D01*
G01*
D11*
X92424954Y-114324786D02*
G75*
G03*
X95437655Y-118201276I4000046J-214D01*
G01*
D12*
X103000000Y-88200000D02*
G75*
G03*
X103000000Y-88200000I-3250000J0D01*
G01*
D10*
X207312257Y-89061578D02*
X207313984Y-112876392D01*
X143372899Y-80331075D02*
G75*
G03*
X135333497Y-79205114I-8039499J-28138525D01*
G01*
X95045314Y-83550345D02*
X108554571Y-80100787D01*
X159809651Y-84336829D02*
X205157753Y-86787776D01*
X108556991Y-121827718D02*
G75*
G03*
X115811551Y-122740914I7254509J28358618D01*
G01*
D11*
X92450000Y-114600000D02*
X92451694Y-87515847D01*
D10*
X115811551Y-79187269D02*
G75*
G03*
X108554571Y-80100787I49J-29281831D01*
G01*
X207312229Y-89061578D02*
G75*
G03*
X205157753Y-86787777I-2277129J-22D01*
G01*
D12*
X155026027Y-88222173D02*
G75*
G03*
X155026027Y-88222173I-3250000J0D01*
G01*
D10*
X135333497Y-79205114D02*
X115811551Y-79187277D01*
D13*
X80901027Y-90972173D03*
X81450202Y-89646348D03*
X81450202Y-92297998D03*
X82776027Y-89097173D03*
D14*
X82776027Y-90972173D03*
D13*
X82776027Y-92847173D03*
X84101852Y-89646348D03*
X84101852Y-92297998D03*
X84651027Y-90972173D03*
X189151027Y-110972173D03*
X189700202Y-109646348D03*
X189700202Y-112297998D03*
X191026027Y-109097173D03*
D14*
X191026027Y-110972173D03*
D13*
X191026027Y-112847173D03*
X192351852Y-109646348D03*
X192351852Y-112297998D03*
X192901027Y-110972173D03*
X80901027Y-110972173D03*
X81450202Y-109646348D03*
X81450202Y-112297998D03*
X82776027Y-109097173D03*
D14*
X82776027Y-110972173D03*
D13*
X82776027Y-112847173D03*
X84101852Y-109646348D03*
X84101852Y-112297998D03*
X84651027Y-110972173D03*
X169151027Y-90972173D03*
X169700202Y-89646348D03*
X169700202Y-92297998D03*
X171026027Y-89097173D03*
D14*
X171026027Y-90972173D03*
D13*
X171026027Y-92847173D03*
X172351852Y-89646348D03*
X172351852Y-92297998D03*
X172901027Y-90972173D03*
D15*
X153995000Y-101935000D03*
X152725000Y-101935000D03*
X151455000Y-101935000D03*
X150185000Y-101935000D03*
X148915000Y-101935000D03*
X147645000Y-101935000D03*
X146375000Y-101935000D03*
X145105000Y-101935000D03*
X143835000Y-101935000D03*
X142565000Y-101935000D03*
X141295000Y-101935000D03*
X140025000Y-101935000D03*
X138755000Y-101935000D03*
X137485000Y-101935000D03*
X136215000Y-101935000D03*
X134945000Y-101935000D03*
X133675000Y-101935000D03*
X132405000Y-101935000D03*
X153995000Y-100665000D03*
X152725000Y-100665000D03*
X151455000Y-100665000D03*
X150185000Y-100665000D03*
X148915000Y-100665000D03*
X147645000Y-100665000D03*
X146375000Y-100665000D03*
X145105000Y-100665000D03*
X143835000Y-100665000D03*
X142565000Y-100665000D03*
X141295000Y-100665000D03*
X140025000Y-100665000D03*
X138755000Y-100665000D03*
X137485000Y-100665000D03*
X136215000Y-100665000D03*
X134945000Y-100665000D03*
X133675000Y-100665000D03*
X132405000Y-100665000D03*
D16*
X133140000Y-109365000D03*
X132090000Y-109365000D03*
X133890000Y-110140000D03*
X133140000Y-110140000D03*
X132090000Y-110140000D03*
X131340000Y-110140000D03*
X133140000Y-110915000D03*
X132090000Y-110915000D03*
D17*
X121675000Y-117705000D03*
X115895000Y-117705000D03*
D18*
X121985000Y-116585000D03*
X121185000Y-116585000D03*
D19*
X120035000Y-116585000D03*
X119035000Y-116585000D03*
X118535000Y-116585000D03*
X117535000Y-116585000D03*
D18*
X116385000Y-116585000D03*
X115585000Y-116585000D03*
X115585000Y-116585000D03*
X116385000Y-116585000D03*
D19*
X117035000Y-116585000D03*
X118035000Y-116585000D03*
X119535000Y-116585000D03*
X120535000Y-116585000D03*
D18*
X121185000Y-116585000D03*
X121985000Y-116585000D03*
D20*
X123105000Y-121385000D03*
D21*
X123105000Y-117185000D03*
D20*
X114465000Y-121385000D03*
D21*
X114465000Y-117185000D03*
D22*
X114900000Y-84325000D03*
D23*
X116900000Y-84325000D03*
X118900000Y-84325000D03*
X120900000Y-84325000D03*
X122900000Y-84325000D03*
D24*
X129975000Y-109000000D03*
X127600000Y-105275000D03*
X178050000Y-93225000D03*
X120275000Y-92525000D03*
X122615000Y-91685000D03*
X120300000Y-90175000D03*
X175100000Y-93200000D03*
D25*
X133645000Y-117910000D03*
D23*
X131645000Y-117910000D03*
D24*
X129750000Y-105250000D03*
X137325000Y-116025000D03*
X125425000Y-105350000D03*
X129975000Y-111225000D03*
X188050000Y-95475000D03*
X183175000Y-96225000D03*
X122600000Y-89185000D03*
D22*
X129575000Y-84350000D03*
D23*
X131575000Y-84350000D03*
X133575000Y-84350000D03*
X135575000Y-84350000D03*
M02*
