G04 #@! TF.GenerationSoftware,KiCad,Pcbnew,7.0.2-0*
G04 #@! TF.CreationDate,2023-10-11T21:53:26-07:00*
G04 #@! TF.ProjectId,low-power,6c6f772d-706f-4776-9572-2e6b69636164,rev?*
G04 #@! TF.SameCoordinates,Original*
G04 #@! TF.FileFunction,Copper,L2,Inr*
G04 #@! TF.FilePolarity,Positive*
%FSLAX46Y46*%
G04 Gerber Fmt 4.6, Leading zero omitted, Abs format (unit mm)*
G04 Created by KiCad (PCBNEW 7.0.2-0) date 2023-10-11 21:53:26*
%MOMM*%
%LPD*%
G01*
G04 APERTURE LIST*
G04 Aperture macros list*
%AMRoundRect*
0 Rectangle with rounded corners*
0 $1 Rounding radius*
0 $2 $3 $4 $5 $6 $7 $8 $9 X,Y pos of 4 corners*
0 Add a 4 corners polygon primitive as box body*
4,1,4,$2,$3,$4,$5,$6,$7,$8,$9,$2,$3,0*
0 Add four circle primitives for the rounded corners*
1,1,$1+$1,$2,$3*
1,1,$1+$1,$4,$5*
1,1,$1+$1,$6,$7*
1,1,$1+$1,$8,$9*
0 Add four rect primitives between the rounded corners*
20,1,$1+$1,$2,$3,$4,$5,0*
20,1,$1+$1,$4,$5,$6,$7,0*
20,1,$1+$1,$6,$7,$8,$9,0*
20,1,$1+$1,$8,$9,$2,$3,0*%
G04 Aperture macros list end*
G04 #@! TA.AperFunction,ComponentPad*
%ADD10C,0.800000*%
G04 #@! TD*
G04 #@! TA.AperFunction,ComponentPad*
%ADD11C,5.000000*%
G04 #@! TD*
G04 #@! TA.AperFunction,ComponentPad*
%ADD12C,1.050000*%
G04 #@! TD*
G04 #@! TA.AperFunction,ComponentPad*
%ADD13C,0.350000*%
G04 #@! TD*
G04 #@! TA.AperFunction,ComponentPad*
%ADD14O,1.000000X1.800000*%
G04 #@! TD*
G04 #@! TA.AperFunction,ComponentPad*
%ADD15O,1.000000X2.100000*%
G04 #@! TD*
G04 #@! TA.AperFunction,ComponentPad*
%ADD16RoundRect,0.250000X-0.350000X-0.625000X0.350000X-0.625000X0.350000X0.625000X-0.350000X0.625000X0*%
G04 #@! TD*
G04 #@! TA.AperFunction,ComponentPad*
%ADD17O,1.200000X1.750000*%
G04 #@! TD*
G04 #@! TA.AperFunction,ComponentPad*
%ADD18RoundRect,0.250000X0.350000X0.625000X-0.350000X0.625000X-0.350000X-0.625000X0.350000X-0.625000X0*%
G04 #@! TD*
G04 #@! TA.AperFunction,ViaPad*
%ADD19C,0.700000*%
G04 #@! TD*
G04 #@! TA.AperFunction,ViaPad*
%ADD20C,0.350000*%
G04 #@! TD*
G04 #@! TA.AperFunction,ViaPad*
%ADD21C,0.500000*%
G04 #@! TD*
G04 #@! TA.AperFunction,Conductor*
%ADD22C,0.200000*%
G04 #@! TD*
G04 APERTURE END LIST*
D10*
X80901027Y-90972173D03*
X81450202Y-89646348D03*
X81450202Y-92297998D03*
X82776027Y-89097173D03*
D11*
X82776027Y-90972173D03*
D10*
X82776027Y-92847173D03*
X84101852Y-89646348D03*
X84101852Y-92297998D03*
X84651027Y-90972173D03*
X189151027Y-110972173D03*
X189700202Y-109646348D03*
X189700202Y-112297998D03*
X191026027Y-109097173D03*
D11*
X191026027Y-110972173D03*
D10*
X191026027Y-112847173D03*
X192351852Y-109646348D03*
X192351852Y-112297998D03*
X192901027Y-110972173D03*
X80901027Y-110972173D03*
X81450202Y-109646348D03*
X81450202Y-112297998D03*
X82776027Y-109097173D03*
D11*
X82776027Y-110972173D03*
D10*
X82776027Y-112847173D03*
X84101852Y-109646348D03*
X84101852Y-112297998D03*
X84651027Y-110972173D03*
X169151027Y-90972173D03*
X169700202Y-89646348D03*
X169700202Y-92297998D03*
X171026027Y-89097173D03*
D11*
X171026027Y-90972173D03*
D10*
X171026027Y-92847173D03*
X172351852Y-89646348D03*
X172351852Y-92297998D03*
X172901027Y-90972173D03*
D12*
X153995000Y-101935000D03*
X152725000Y-101935000D03*
X151455000Y-101935000D03*
X150185000Y-101935000D03*
X148915000Y-101935000D03*
X147645000Y-101935000D03*
X146375000Y-101935000D03*
X145105000Y-101935000D03*
X143835000Y-101935000D03*
X142565000Y-101935000D03*
X141295000Y-101935000D03*
X140025000Y-101935000D03*
X138755000Y-101935000D03*
X137485000Y-101935000D03*
X136215000Y-101935000D03*
X134945000Y-101935000D03*
X133675000Y-101935000D03*
X132405000Y-101935000D03*
X153995000Y-100665000D03*
X152725000Y-100665000D03*
X151455000Y-100665000D03*
X150185000Y-100665000D03*
X148915000Y-100665000D03*
X147645000Y-100665000D03*
X146375000Y-100665000D03*
X145105000Y-100665000D03*
X143835000Y-100665000D03*
X142565000Y-100665000D03*
X141295000Y-100665000D03*
X140025000Y-100665000D03*
X138755000Y-100665000D03*
X137485000Y-100665000D03*
X136215000Y-100665000D03*
X134945000Y-100665000D03*
X133675000Y-100665000D03*
X132405000Y-100665000D03*
D13*
X133140000Y-109365000D03*
X132090000Y-109365000D03*
X133890000Y-110140000D03*
X133140000Y-110140000D03*
X132090000Y-110140000D03*
X131340000Y-110140000D03*
X133140000Y-110915000D03*
X132090000Y-110915000D03*
D14*
X123105000Y-121385000D03*
D15*
X123105000Y-117185000D03*
D14*
X114465000Y-121385000D03*
D15*
X114465000Y-117185000D03*
D16*
X114900000Y-84325000D03*
D17*
X116900000Y-84325000D03*
X118900000Y-84325000D03*
X120900000Y-84325000D03*
X122900000Y-84325000D03*
D18*
X133645000Y-117910000D03*
D17*
X131645000Y-117910000D03*
D16*
X129575000Y-84350000D03*
D17*
X131575000Y-84350000D03*
X133575000Y-84350000D03*
X135575000Y-84350000D03*
D19*
X200326027Y-110872173D03*
D20*
X116650000Y-92800000D03*
X179450000Y-92400000D03*
X129800000Y-108025000D03*
X185450000Y-89600000D03*
D21*
X141900000Y-116150000D03*
D20*
X123025000Y-95715000D03*
D21*
X143900000Y-116150000D03*
D20*
X114425000Y-115400000D03*
X139275000Y-108450000D03*
X117275000Y-99350000D03*
X121385000Y-93275000D03*
X142375000Y-94900000D03*
X197250000Y-90925000D03*
X143250000Y-82723600D03*
X129350000Y-115150000D03*
X148654750Y-99470250D03*
X113475000Y-99625000D03*
X109575000Y-95975000D03*
X115260000Y-95317333D03*
X130605000Y-105985000D03*
D19*
X202551027Y-110872173D03*
D20*
X127150000Y-109500000D03*
D21*
X139900000Y-116150000D03*
D20*
X114700000Y-103875000D03*
D19*
X201426027Y-110872173D03*
D21*
X140900000Y-116150000D03*
D20*
X118475000Y-102950000D03*
X109575000Y-95100000D03*
X185450000Y-90475000D03*
X142425000Y-92575000D03*
X126325000Y-89675000D03*
X179450000Y-93175000D03*
X117325000Y-92150000D03*
X130650000Y-95275000D03*
D21*
X142900000Y-116150000D03*
D20*
X120025000Y-111775000D03*
D21*
X163300000Y-110950000D03*
D19*
X159501027Y-96172173D03*
X151107821Y-119149589D03*
X198235000Y-86675000D03*
D20*
X116200000Y-104050000D03*
D19*
X105050000Y-81250000D03*
D20*
X110310000Y-104945000D03*
D19*
X186626027Y-96152173D03*
X115281624Y-79386214D03*
X117816648Y-122537173D03*
D20*
X182500000Y-88950000D03*
D19*
X206975000Y-89175000D03*
D21*
X182700000Y-110975000D03*
D20*
X155800000Y-109075000D03*
D19*
X203651027Y-104647173D03*
X164501027Y-96172173D03*
D21*
X182625000Y-103350000D03*
D20*
X183351027Y-92472173D03*
D19*
X127816648Y-122537173D03*
X170140000Y-85180000D03*
X151225000Y-82825000D03*
X192126027Y-101622173D03*
X181800000Y-96172173D03*
X197001027Y-96172173D03*
X188626027Y-107362173D03*
X137941624Y-79575000D03*
X201476027Y-104647173D03*
D20*
X125875000Y-94475000D03*
X191376027Y-89672173D03*
X122585000Y-100525000D03*
X110310000Y-103570000D03*
X122737500Y-109662500D03*
D19*
X130341624Y-79460134D03*
D20*
X143900000Y-109900000D03*
D19*
X156495000Y-117635000D03*
X172685000Y-116635000D03*
X192126027Y-96172173D03*
D20*
X144700000Y-109675000D03*
D19*
X207015000Y-106635000D03*
X125316648Y-122537173D03*
X165140000Y-84900000D03*
X92445000Y-99800000D03*
X159505000Y-117355000D03*
X159525000Y-106925000D03*
D20*
X127925000Y-95650000D03*
D19*
X146176027Y-81425000D03*
X159500000Y-104725000D03*
X175820000Y-85520000D03*
X189831027Y-86200000D03*
D20*
X112525000Y-100075000D03*
X121375000Y-96945000D03*
D19*
X92455000Y-94790000D03*
D20*
X193426027Y-89947173D03*
D19*
X175675000Y-116435000D03*
X162530000Y-84750000D03*
D20*
X114580000Y-90915000D03*
D21*
X182700000Y-108425000D03*
D20*
X182676027Y-93197173D03*
X120425000Y-108935000D03*
D19*
X97675000Y-83175000D03*
D20*
X121255000Y-89975000D03*
X119375000Y-96975000D03*
X108450000Y-93300000D03*
D19*
X148705000Y-119865000D03*
D20*
X137560000Y-112720000D03*
X140450000Y-94025000D03*
D19*
X93325000Y-85175000D03*
D20*
X114345000Y-98495000D03*
X199001027Y-93822173D03*
X119635000Y-105615000D03*
D19*
X160800000Y-93100000D03*
X184501027Y-96172173D03*
X92485000Y-87202173D03*
X207025000Y-111875000D03*
X159496027Y-112542173D03*
D20*
X143900000Y-109050000D03*
X116655000Y-99835000D03*
D19*
X192650000Y-86400000D03*
X195475000Y-86555000D03*
X186626027Y-89772173D03*
D20*
X128150000Y-108050000D03*
D19*
X143425000Y-80650000D03*
D20*
X124250000Y-91925000D03*
X111685000Y-103570000D03*
D19*
X184220000Y-85920000D03*
X112721624Y-79556214D03*
X162385000Y-117205000D03*
D20*
X144825000Y-93535000D03*
X196601027Y-92272173D03*
X199025000Y-90975000D03*
D19*
X167001027Y-96172173D03*
D20*
X130550000Y-113150000D03*
X146050000Y-87400000D03*
D21*
X182626027Y-98272173D03*
D19*
X186896027Y-111772173D03*
D20*
X182676027Y-91822173D03*
X180296027Y-87247173D03*
D19*
X178650000Y-85660000D03*
X165200000Y-93050000D03*
X178505000Y-116295000D03*
X201065000Y-86875000D03*
X153775000Y-83575000D03*
D20*
X200901027Y-93872173D03*
D19*
X162001027Y-96172173D03*
D20*
X120394416Y-95917333D03*
X121345000Y-94955000D03*
D19*
X207005000Y-94075000D03*
X190346027Y-105642173D03*
X153737821Y-118449589D03*
X203685000Y-114985000D03*
X199501027Y-96172173D03*
X102725000Y-81900000D03*
X102685000Y-120045000D03*
X206995000Y-99135000D03*
X137835000Y-122295000D03*
X120341624Y-79460134D03*
X179501027Y-96172173D03*
X174501027Y-96172173D03*
X125341624Y-79460134D03*
D20*
X138425000Y-105025000D03*
D19*
X160825000Y-89175000D03*
X132880597Y-79472961D03*
X186625000Y-94095000D03*
D20*
X184076027Y-86847173D03*
D19*
X122841624Y-79460134D03*
D20*
X184051027Y-91822173D03*
D19*
X92475000Y-89800000D03*
D20*
X141500000Y-87375000D03*
D19*
X93263514Y-116839389D03*
X207005000Y-91655000D03*
X110301624Y-79926214D03*
D20*
X119655000Y-104115000D03*
D19*
X192490000Y-115575000D03*
X206346027Y-87655000D03*
D21*
X182675000Y-105900000D03*
D19*
X203855000Y-86985000D03*
X200905000Y-115155000D03*
X192126027Y-103872173D03*
D21*
X163275000Y-105850000D03*
D19*
X207015000Y-109125000D03*
D20*
X117575000Y-108925000D03*
X129570000Y-93305000D03*
X119405000Y-94945000D03*
D19*
X95050000Y-83875000D03*
X184075000Y-116035000D03*
X181450000Y-85780000D03*
X92385000Y-104560000D03*
X181305000Y-116175000D03*
X156525000Y-93175000D03*
X192116027Y-98942173D03*
D21*
X205776027Y-111822173D03*
D19*
X92455000Y-92220000D03*
X159501027Y-102322173D03*
X135335000Y-122522307D03*
X97935000Y-118825000D03*
X186920000Y-115875000D03*
D20*
X120400000Y-104887500D03*
X140575000Y-107375000D03*
X121165000Y-105625000D03*
X109275000Y-93300000D03*
D19*
X117841624Y-79460134D03*
X92405000Y-109750000D03*
D20*
X191325000Y-93425000D03*
D19*
X159501027Y-110097173D03*
X140565000Y-121905000D03*
D20*
X135030000Y-93907500D03*
D19*
X165300000Y-89175000D03*
D20*
X111660000Y-104945000D03*
D19*
X206995000Y-96175000D03*
X202001027Y-96172173D03*
X186901027Y-109097173D03*
D20*
X134285000Y-93135000D03*
D19*
X112738594Y-122327173D03*
X194851027Y-110972173D03*
X207025000Y-101625000D03*
X169501027Y-96172173D03*
D20*
X155450000Y-110825000D03*
D19*
X189501027Y-96172173D03*
D20*
X109275000Y-109375000D03*
X110500000Y-95725000D03*
X204475000Y-90750000D03*
D19*
X100300000Y-82525000D03*
X186896027Y-113892173D03*
D20*
X143275000Y-83426400D03*
D19*
X159501027Y-99197173D03*
D20*
X152800000Y-94950000D03*
D19*
X169995000Y-116775000D03*
X120316648Y-122537173D03*
D20*
X135775000Y-93125000D03*
X143925000Y-108300000D03*
D19*
X164995000Y-117055000D03*
X127841624Y-79460134D03*
X195290000Y-115455000D03*
X186600000Y-87975000D03*
X95445000Y-118175000D03*
D20*
X135795000Y-94645000D03*
X118375000Y-111775000D03*
D19*
X172001027Y-96172173D03*
X156575000Y-84200000D03*
X146087821Y-120639589D03*
X92395000Y-102170000D03*
X159505000Y-114915000D03*
X186625000Y-86075000D03*
D20*
X143200000Y-95575000D03*
D19*
X107875000Y-80600000D03*
X194501027Y-96172173D03*
X159650000Y-84600000D03*
D20*
X121145000Y-104105000D03*
D19*
X135359976Y-79475000D03*
D20*
X145455000Y-109675000D03*
X189476027Y-88697173D03*
X149875000Y-108525000D03*
D19*
X143298596Y-121263357D03*
X167385000Y-116885000D03*
X105085000Y-120685000D03*
X92425000Y-112170000D03*
X92405000Y-107180000D03*
X132816648Y-122537173D03*
X189660000Y-115715000D03*
X107865000Y-121425000D03*
X130316648Y-122537173D03*
X172830000Y-85320000D03*
D20*
X119232500Y-111800000D03*
X117195000Y-90396905D03*
X134265000Y-94635000D03*
D19*
X92435000Y-114692173D03*
X206325000Y-114235000D03*
X206995000Y-104135000D03*
D20*
X184051027Y-93197173D03*
X113655000Y-95365000D03*
D19*
X148775000Y-82125000D03*
X204501027Y-96172173D03*
X140671624Y-79846214D03*
X100185000Y-119405000D03*
X167530000Y-85070000D03*
D20*
X110995000Y-104245000D03*
D19*
X177001027Y-96172173D03*
D20*
X204475000Y-93725000D03*
D19*
X92435000Y-97410000D03*
X198060000Y-115315000D03*
X110377567Y-121720000D03*
D20*
X115225000Y-106100000D03*
X179096027Y-89997173D03*
X156100000Y-96850000D03*
X122900000Y-94100000D03*
X129400000Y-88025000D03*
X136275000Y-107850000D03*
X135050000Y-107875000D03*
X132335000Y-104025000D03*
X137675000Y-106000000D03*
X135477500Y-111017500D03*
X134942500Y-111527500D03*
X147575000Y-104875000D03*
X146350000Y-93100000D03*
X145625000Y-96700000D03*
X144150000Y-104675000D03*
X145288750Y-104563750D03*
X141200000Y-96675000D03*
X140200000Y-96700000D03*
X138755000Y-103470000D03*
X142050000Y-96675000D03*
X139475000Y-96700000D03*
X119050000Y-102125000D03*
X136325000Y-96725000D03*
X135550000Y-96675000D03*
X134800000Y-96725000D03*
X134075000Y-96675000D03*
X150185000Y-99450000D03*
X124750000Y-94025000D03*
X189275000Y-94275000D03*
X180625000Y-93600000D03*
X125937500Y-93687500D03*
X114825000Y-113925000D03*
X131950000Y-93150000D03*
X127500000Y-112825000D03*
X117925000Y-107100000D03*
X115575000Y-113100000D03*
X117912500Y-104137500D03*
X121700000Y-98450000D03*
X115675000Y-106950000D03*
X127575000Y-113550000D03*
X117375000Y-103625000D03*
X131400000Y-92625000D03*
X122375000Y-97925000D03*
X133000000Y-95850000D03*
X120194416Y-100025000D03*
X124350000Y-99350000D03*
X131375000Y-96375000D03*
X136950000Y-87550000D03*
X135300000Y-90625000D03*
X109100000Y-102750000D03*
X133300000Y-96600000D03*
X118525000Y-101575000D03*
X116625000Y-102750000D03*
X111790000Y-94350000D03*
X122950000Y-93325000D03*
X144565000Y-96745000D03*
X141925000Y-103975000D03*
X149950000Y-106025000D03*
X153825000Y-96325000D03*
X137025000Y-95825000D03*
X153725000Y-95450000D03*
X150370000Y-95700000D03*
X204750000Y-113450000D03*
X152950000Y-92900000D03*
X197075000Y-110650000D03*
X195950000Y-108425000D03*
X153700000Y-92375000D03*
X181426027Y-90522173D03*
X178725000Y-91825000D03*
X133050000Y-91825000D03*
X137100000Y-91800000D03*
X178350000Y-95300000D03*
X183437500Y-95262500D03*
X177712500Y-94937500D03*
X184225000Y-95300000D03*
X185025000Y-95075000D03*
X176825000Y-94925000D03*
X185625000Y-94675000D03*
X176025000Y-94950000D03*
X122611598Y-91671598D03*
X121895000Y-88985000D03*
X123775000Y-89600000D03*
X120775000Y-90975000D03*
X123550000Y-90475000D03*
X120595000Y-93295000D03*
X140700000Y-95650000D03*
X137075000Y-89075000D03*
X141200000Y-92100000D03*
X137962500Y-88787500D03*
X135025000Y-115910000D03*
X116325000Y-110375000D03*
X115250000Y-111525000D03*
X111625000Y-118300000D03*
X112625000Y-118275000D03*
X120200000Y-117675000D03*
X117375000Y-117800000D03*
X120155000Y-107865000D03*
X128500000Y-113100000D03*
X120855000Y-107865000D03*
X130280000Y-111255000D03*
X121637500Y-107862500D03*
X129962500Y-109012500D03*
X131865000Y-107755000D03*
X122475000Y-107450000D03*
X123480000Y-104880000D03*
X150875000Y-107885000D03*
X123405000Y-105855000D03*
X149325000Y-107375000D03*
X123405000Y-106555000D03*
X140285000Y-108545000D03*
X124325000Y-103175000D03*
X111825000Y-115200000D03*
D21*
X124455000Y-112955000D03*
X125455000Y-112955000D03*
X125455000Y-114955000D03*
X124455000Y-113955000D03*
X125455000Y-113955000D03*
X126455000Y-113955000D03*
X126455000Y-114955000D03*
D20*
X116500000Y-113350000D03*
D21*
X124455000Y-114955000D03*
D20*
X124025000Y-104275000D03*
X122965000Y-103635000D03*
D22*
X137000000Y-98950000D02*
X147200000Y-98950000D01*
X136325000Y-96725000D02*
X136325000Y-98275000D01*
X136325000Y-98275000D02*
X137000000Y-98950000D01*
X147200000Y-98950000D02*
X148915000Y-100665000D01*
X135550000Y-96675000D02*
X135550000Y-98025000D01*
X136775000Y-99250000D02*
X146230000Y-99250000D01*
X146230000Y-99250000D02*
X147645000Y-100665000D01*
X135550000Y-98025000D02*
X136775000Y-99250000D01*
G04 #@! TA.AperFunction,Conductor*
G36*
X136239654Y-78789666D02*
G01*
X136243473Y-78789783D01*
X137157021Y-78832186D01*
X137160834Y-78832422D01*
X138072626Y-78903049D01*
X138076401Y-78903400D01*
X138985621Y-79002187D01*
X138989405Y-79002658D01*
X139895059Y-79129498D01*
X139898803Y-79130081D01*
X140800145Y-79284868D01*
X140803902Y-79285573D01*
X141700055Y-79468158D01*
X141703733Y-79468967D01*
X142593790Y-79679166D01*
X142597470Y-79680096D01*
X143480633Y-79917721D01*
X143528194Y-79931295D01*
X143528195Y-79931295D01*
X154169250Y-82971595D01*
X154169259Y-82971600D01*
X154293002Y-83006954D01*
X154293044Y-83006956D01*
X154565859Y-83084904D01*
X154623644Y-83101414D01*
X154625572Y-83101915D01*
X155410414Y-83299162D01*
X155412353Y-83299600D01*
X156203119Y-83471587D01*
X156205051Y-83471958D01*
X157000943Y-83618512D01*
X157002928Y-83618829D01*
X157803068Y-83739786D01*
X157805033Y-83740035D01*
X158608668Y-83835285D01*
X158610627Y-83835469D01*
X159416915Y-83904910D01*
X159418911Y-83905034D01*
X159731392Y-83921867D01*
X159745450Y-83922625D01*
X159745459Y-83922628D01*
X159765855Y-83923727D01*
X159765856Y-83923728D01*
X205106138Y-86368546D01*
X205106149Y-86368548D01*
X205122824Y-86369446D01*
X205122825Y-86369447D01*
X205166716Y-86371813D01*
X205173927Y-86372413D01*
X205475995Y-86406451D01*
X205490228Y-86408902D01*
X205782742Y-86477053D01*
X205796602Y-86481147D01*
X206079192Y-86582889D01*
X206092477Y-86588568D01*
X206361297Y-86722516D01*
X206373826Y-86729700D01*
X206542418Y-86839905D01*
X206625225Y-86894035D01*
X206636847Y-86902640D01*
X206867387Y-87095111D01*
X206877929Y-87105010D01*
X207084504Y-87323023D01*
X207093820Y-87334080D01*
X207273612Y-87574667D01*
X207281562Y-87586710D01*
X207432123Y-87846590D01*
X207438630Y-87859504D01*
X207557910Y-88135144D01*
X207562869Y-88148728D01*
X207649243Y-88436370D01*
X207652587Y-88450439D01*
X207704886Y-88746176D01*
X207706570Y-88760538D01*
X207724289Y-89063878D01*
X207724500Y-89071109D01*
X207724500Y-112878787D01*
X207724289Y-112886018D01*
X207706564Y-113189460D01*
X207704880Y-113203822D01*
X207652581Y-113499559D01*
X207649237Y-113513628D01*
X207562863Y-113801269D01*
X207557904Y-113814853D01*
X207438627Y-114090486D01*
X207432120Y-114103400D01*
X207281565Y-114363273D01*
X207273598Y-114375342D01*
X207093816Y-114615913D01*
X207084499Y-114626972D01*
X206877925Y-114844984D01*
X206867383Y-114854883D01*
X206636843Y-115047354D01*
X206625221Y-115055959D01*
X206373831Y-115220289D01*
X206361286Y-115227482D01*
X206092480Y-115361423D01*
X206079183Y-115367107D01*
X205796606Y-115468844D01*
X205782737Y-115472941D01*
X205490236Y-115541089D01*
X205475985Y-115543543D01*
X205173841Y-115577590D01*
X205166635Y-115578190D01*
X205141283Y-115579557D01*
X205133338Y-115579986D01*
X205126329Y-115580364D01*
X205122824Y-115580553D01*
X159875205Y-118020375D01*
X159875183Y-118020369D01*
X159416914Y-118045084D01*
X159414947Y-118045238D01*
X158608667Y-118114710D01*
X158606671Y-118114930D01*
X157803067Y-118210210D01*
X157801092Y-118210492D01*
X157000943Y-118331485D01*
X156999007Y-118331826D01*
X156203118Y-118478409D01*
X156201159Y-118478818D01*
X155410413Y-118650833D01*
X155408475Y-118651303D01*
X154623643Y-118848579D01*
X154621740Y-118849107D01*
X154304340Y-118939807D01*
X154304336Y-118939807D01*
X143482406Y-122031786D01*
X142597485Y-122269885D01*
X142593769Y-122270823D01*
X141703770Y-122481009D01*
X141700025Y-122481833D01*
X140803899Y-122664412D01*
X140800131Y-122665119D01*
X139898823Y-122819901D01*
X139895035Y-122820491D01*
X138989415Y-122947326D01*
X138985610Y-122947800D01*
X138076421Y-123046584D01*
X138072603Y-123046939D01*
X137160840Y-123117562D01*
X137157013Y-123117799D01*
X136243477Y-123160201D01*
X136239645Y-123160319D01*
X135323397Y-123174485D01*
X115801406Y-123174500D01*
X114873727Y-123159978D01*
X114869849Y-123159856D01*
X113945046Y-123116397D01*
X113941172Y-123116154D01*
X113018174Y-123043769D01*
X113014310Y-123043405D01*
X112094057Y-122942169D01*
X112090205Y-122941685D01*
X111173486Y-122811681D01*
X111169652Y-122811075D01*
X110257560Y-122652460D01*
X110253747Y-122651736D01*
X109346987Y-122464634D01*
X109343198Y-122463790D01*
X108441810Y-122248176D01*
X93007963Y-118299999D01*
X111194195Y-118299999D01*
X111215280Y-118433124D01*
X111276472Y-118553221D01*
X111371778Y-118648527D01*
X111371780Y-118648528D01*
X111491874Y-118709719D01*
X111558437Y-118720261D01*
X111624999Y-118730804D01*
X111624999Y-118730803D01*
X111625000Y-118730804D01*
X111758126Y-118709719D01*
X111878220Y-118648528D01*
X111973528Y-118553220D01*
X112020883Y-118460279D01*
X112068858Y-118409482D01*
X112136679Y-118392687D01*
X112202814Y-118415224D01*
X112241854Y-118460279D01*
X112276471Y-118528220D01*
X112371778Y-118623527D01*
X112371780Y-118623528D01*
X112491874Y-118684719D01*
X112625000Y-118705804D01*
X112758126Y-118684719D01*
X112878220Y-118623528D01*
X112973528Y-118528220D01*
X113034719Y-118408126D01*
X113055804Y-118275000D01*
X113034719Y-118141874D01*
X112973528Y-118021780D01*
X112973527Y-118021778D01*
X112878221Y-117926472D01*
X112758124Y-117865280D01*
X112625000Y-117844195D01*
X112491875Y-117865280D01*
X112371778Y-117926472D01*
X112276471Y-118021779D01*
X112229114Y-118114722D01*
X112181140Y-118165517D01*
X112113319Y-118182312D01*
X112047184Y-118159774D01*
X112008145Y-118114720D01*
X111973528Y-118046779D01*
X111878221Y-117951472D01*
X111758124Y-117890280D01*
X111624999Y-117869195D01*
X111491875Y-117890280D01*
X111371778Y-117951472D01*
X111276472Y-118046778D01*
X111215280Y-118166875D01*
X111194195Y-118299999D01*
X93007963Y-118299999D01*
X92860191Y-118262197D01*
X92847273Y-118258892D01*
X92814081Y-118250401D01*
X92441549Y-118155110D01*
X92439712Y-118154684D01*
X91691039Y-117987244D01*
X91689180Y-117986872D01*
X90935775Y-117842262D01*
X90933919Y-117841949D01*
X90176454Y-117720300D01*
X90174590Y-117720044D01*
X90058476Y-117705000D01*
X115310499Y-117705000D01*
X115330416Y-117856280D01*
X115388807Y-117997249D01*
X115481695Y-118118304D01*
X115564378Y-118181748D01*
X115602750Y-118211192D01*
X115743720Y-118269584D01*
X115857020Y-118284500D01*
X115861073Y-118284500D01*
X115928927Y-118284500D01*
X115932980Y-118284500D01*
X116046280Y-118269584D01*
X116187250Y-118211192D01*
X116308304Y-118118304D01*
X116401192Y-117997250D01*
X116459584Y-117856280D01*
X116466993Y-117800000D01*
X116944195Y-117800000D01*
X116965280Y-117933124D01*
X117026472Y-118053221D01*
X117121778Y-118148527D01*
X117121780Y-118148528D01*
X117241874Y-118209719D01*
X117308436Y-118220261D01*
X117374999Y-118230804D01*
X117374999Y-118230803D01*
X117375000Y-118230804D01*
X117508126Y-118209719D01*
X117628220Y-118148528D01*
X117723528Y-118053220D01*
X117784719Y-117933126D01*
X117805804Y-117800000D01*
X117786006Y-117675000D01*
X119769195Y-117675000D01*
X119790280Y-117808124D01*
X119851472Y-117928221D01*
X119946778Y-118023527D01*
X119946780Y-118023528D01*
X120066874Y-118084719D01*
X120200000Y-118105804D01*
X120333126Y-118084719D01*
X120453220Y-118023528D01*
X120548528Y-117928220D01*
X120609719Y-117808126D01*
X120626053Y-117704999D01*
X121090499Y-117704999D01*
X121110416Y-117856280D01*
X121168807Y-117997249D01*
X121261695Y-118118304D01*
X121344378Y-118181748D01*
X121382750Y-118211192D01*
X121523720Y-118269584D01*
X121637020Y-118284500D01*
X121641073Y-118284500D01*
X121708927Y-118284500D01*
X121712980Y-118284500D01*
X121826280Y-118269584D01*
X121919157Y-118231113D01*
X130794500Y-118231113D01*
X130794862Y-118234448D01*
X130794863Y-118234453D01*
X130809485Y-118368908D01*
X130831123Y-118433126D01*
X130868556Y-118544221D01*
X130963930Y-118702736D01*
X131091151Y-118837041D01*
X131244270Y-118940858D01*
X131244271Y-118940858D01*
X131244272Y-118940859D01*
X131416121Y-119009330D01*
X131416123Y-119009330D01*
X131416125Y-119009331D01*
X131598683Y-119039260D01*
X131783407Y-119029245D01*
X131961659Y-118979754D01*
X132125104Y-118893100D01*
X132266100Y-118773337D01*
X132378054Y-118626064D01*
X132378053Y-118626064D01*
X132378055Y-118626063D01*
X132399561Y-118579578D01*
X132794500Y-118579578D01*
X132794501Y-118582872D01*
X132794853Y-118586152D01*
X132794854Y-118586159D01*
X132800909Y-118642484D01*
X132806576Y-118657677D01*
X132851204Y-118777331D01*
X132937454Y-118892546D01*
X133052669Y-118978796D01*
X133187517Y-119029091D01*
X133247127Y-119035500D01*
X134042872Y-119035499D01*
X134102483Y-119029091D01*
X134237331Y-118978796D01*
X134352546Y-118892546D01*
X134438796Y-118777331D01*
X134489091Y-118642483D01*
X134495500Y-118582873D01*
X134495499Y-117237128D01*
X134489091Y-117177517D01*
X134438796Y-117042669D01*
X134352546Y-116927454D01*
X134237331Y-116841204D01*
X134102483Y-116790909D01*
X134042873Y-116784500D01*
X134039550Y-116784500D01*
X133250439Y-116784500D01*
X133250420Y-116784500D01*
X133247128Y-116784501D01*
X133243848Y-116784853D01*
X133243840Y-116784854D01*
X133187515Y-116790909D01*
X133052669Y-116841204D01*
X132937454Y-116927454D01*
X132851204Y-117042668D01*
X132800909Y-117177516D01*
X132798204Y-117202680D01*
X132794500Y-117237127D01*
X132794500Y-117240448D01*
X132794500Y-117240449D01*
X132794500Y-118579560D01*
X132794500Y-118579578D01*
X132399561Y-118579578D01*
X132455731Y-118458169D01*
X132455730Y-118458169D01*
X132455732Y-118458167D01*
X132495500Y-118277497D01*
X132495500Y-117588887D01*
X132480514Y-117451090D01*
X132421444Y-117275779D01*
X132326070Y-117117264D01*
X132198849Y-116982959D01*
X132045730Y-116879142D01*
X132045729Y-116879141D01*
X132045727Y-116879140D01*
X131873878Y-116810669D01*
X131782595Y-116795704D01*
X131691317Y-116780740D01*
X131691314Y-116780740D01*
X131506592Y-116790754D01*
X131328341Y-116840245D01*
X131164896Y-116926899D01*
X131023899Y-117046663D01*
X130911944Y-117193936D01*
X130834268Y-117361830D01*
X130794638Y-117541874D01*
X130794500Y-117542503D01*
X130794500Y-118231113D01*
X121919157Y-118231113D01*
X121967250Y-118211192D01*
X122088304Y-118118304D01*
X122181192Y-117997250D01*
X122239584Y-117856280D01*
X122259500Y-117705000D01*
X122239584Y-117553720D01*
X122181192Y-117412750D01*
X122114989Y-117326472D01*
X122088304Y-117291695D01*
X121967249Y-117198807D01*
X121826280Y-117140416D01*
X121716999Y-117126029D01*
X121716997Y-117126028D01*
X121712980Y-117125500D01*
X121637020Y-117125500D01*
X121633003Y-117126028D01*
X121633000Y-117126029D01*
X121523719Y-117140416D01*
X121382750Y-117198807D01*
X121261695Y-117291695D01*
X121168807Y-117412750D01*
X121110416Y-117553719D01*
X121090499Y-117704999D01*
X120626053Y-117704999D01*
X120630804Y-117675000D01*
X120609719Y-117541874D01*
X120548528Y-117421780D01*
X120548527Y-117421778D01*
X120453221Y-117326472D01*
X120333124Y-117265280D01*
X120200000Y-117244195D01*
X120066875Y-117265280D01*
X119946778Y-117326472D01*
X119851472Y-117421778D01*
X119790280Y-117541875D01*
X119769195Y-117675000D01*
X117786006Y-117675000D01*
X117784719Y-117666874D01*
X117723528Y-117546780D01*
X117723527Y-117546778D01*
X117628221Y-117451472D01*
X117508124Y-117390280D01*
X117374999Y-117369195D01*
X117241875Y-117390280D01*
X117121778Y-117451472D01*
X117026472Y-117546778D01*
X116965280Y-117666875D01*
X116944195Y-117800000D01*
X116466993Y-117800000D01*
X116479500Y-117705000D01*
X116459584Y-117553720D01*
X116401192Y-117412750D01*
X116334989Y-117326472D01*
X116308304Y-117291695D01*
X116187249Y-117198807D01*
X116046280Y-117140416D01*
X115936999Y-117126029D01*
X115936997Y-117126028D01*
X115932980Y-117125500D01*
X115857020Y-117125500D01*
X115853003Y-117126028D01*
X115853000Y-117126029D01*
X115743719Y-117140416D01*
X115602750Y-117198807D01*
X115481695Y-117291695D01*
X115388807Y-117412750D01*
X115330416Y-117553719D01*
X115310499Y-117705000D01*
X90058476Y-117705000D01*
X89413777Y-117621471D01*
X89411917Y-117621273D01*
X88648449Y-117545864D01*
X88646548Y-117545719D01*
X88336632Y-117524596D01*
X88320857Y-117523520D01*
X88252210Y-117518839D01*
X88217330Y-117516461D01*
X88217326Y-117516459D01*
X82388855Y-117119064D01*
X82388838Y-117119062D01*
X82344955Y-117116071D01*
X82337823Y-117115377D01*
X82248849Y-117104118D01*
X82039088Y-117077574D01*
X82025003Y-117074957D01*
X81736105Y-117003809D01*
X81722416Y-116999586D01*
X81443668Y-116895598D01*
X81430557Y-116889824D01*
X81165648Y-116754372D01*
X81153292Y-116747124D01*
X80905789Y-116582034D01*
X80894350Y-116573410D01*
X80743558Y-116445405D01*
X80667524Y-116380861D01*
X80657159Y-116370977D01*
X80454058Y-116153554D01*
X80444911Y-116142551D01*
X80273293Y-115909999D01*
X80268239Y-115903150D01*
X80260413Y-115891151D01*
X80145223Y-115690047D01*
X80112534Y-115632976D01*
X80106152Y-115620171D01*
X79989033Y-115346656D01*
X79984167Y-115333189D01*
X79899379Y-115047996D01*
X79896102Y-115034076D01*
X79844770Y-114740990D01*
X79843119Y-114726767D01*
X79841418Y-114697369D01*
X79825707Y-114425796D01*
X79825500Y-114418632D01*
X79825500Y-114403485D01*
X79825501Y-114374987D01*
X79825500Y-114374983D01*
X79825500Y-111495161D01*
X79845185Y-111428123D01*
X79897989Y-111382368D01*
X79967147Y-111372424D01*
X80030703Y-111401449D01*
X80068477Y-111460227D01*
X80071469Y-111472810D01*
X80099896Y-111627934D01*
X80099898Y-111627943D01*
X80100571Y-111631614D01*
X80101683Y-111635185D01*
X80101685Y-111635190D01*
X80175954Y-111873528D01*
X80199564Y-111949296D01*
X80336129Y-112252730D01*
X80338062Y-112255928D01*
X80338066Y-112255935D01*
X80421648Y-112394195D01*
X80508273Y-112537491D01*
X80713485Y-112799425D01*
X80948775Y-113034715D01*
X81210709Y-113239927D01*
X81495470Y-113412071D01*
X81798904Y-113548636D01*
X82116586Y-113647629D01*
X82443885Y-113707609D01*
X82776027Y-113727700D01*
X82820663Y-113725000D01*
X96219627Y-113725000D01*
X96219797Y-113728243D01*
X96238781Y-114090486D01*
X96239104Y-114096638D01*
X96239609Y-114099831D01*
X96239611Y-114099843D01*
X96295137Y-114450424D01*
X96297320Y-114464204D01*
X96298158Y-114467333D01*
X96298161Y-114467345D01*
X96392801Y-114820546D01*
X96392804Y-114820557D01*
X96393639Y-114823671D01*
X96394794Y-114826680D01*
X96394798Y-114826692D01*
X96517669Y-115146780D01*
X96527005Y-115171100D01*
X96528474Y-115173983D01*
X96528478Y-115173992D01*
X96694482Y-115499793D01*
X96695957Y-115502687D01*
X96898643Y-115814796D01*
X97132843Y-116104009D01*
X97395991Y-116367157D01*
X97685204Y-116601357D01*
X97997313Y-116804043D01*
X98328900Y-116972995D01*
X98676329Y-117106361D01*
X99035796Y-117202680D01*
X99403362Y-117260896D01*
X99775000Y-117280373D01*
X100146638Y-117260896D01*
X100514204Y-117202680D01*
X100873671Y-117106361D01*
X101221100Y-116972995D01*
X101552687Y-116804043D01*
X101864796Y-116601357D01*
X102154009Y-116367157D01*
X102417157Y-116104009D01*
X102574263Y-115909999D01*
X134594195Y-115909999D01*
X134615280Y-116043124D01*
X134676472Y-116163221D01*
X134771778Y-116258527D01*
X134771780Y-116258528D01*
X134891874Y-116319719D01*
X134958436Y-116330261D01*
X135024999Y-116340804D01*
X135024999Y-116340803D01*
X135025000Y-116340804D01*
X135158126Y-116319719D01*
X135278220Y-116258528D01*
X135373528Y-116163220D01*
X135380264Y-116149999D01*
X139394353Y-116149999D01*
X139414834Y-116292457D01*
X139474623Y-116423374D01*
X139568870Y-116532141D01*
X139568872Y-116532143D01*
X139689947Y-116609953D01*
X139828039Y-116650500D01*
X139971961Y-116650500D01*
X140110053Y-116609953D01*
X140231128Y-116532143D01*
X140269939Y-116487351D01*
X140306287Y-116445405D01*
X140365064Y-116407630D01*
X140434934Y-116407630D01*
X140493712Y-116445404D01*
X140493713Y-116445405D01*
X140568870Y-116532141D01*
X140568872Y-116532143D01*
X140689947Y-116609953D01*
X140828039Y-116650500D01*
X140971961Y-116650500D01*
X141110053Y-116609953D01*
X141231128Y-116532143D01*
X141269939Y-116487351D01*
X141306287Y-116445405D01*
X141365064Y-116407630D01*
X141434934Y-116407630D01*
X141493712Y-116445404D01*
X141493713Y-116445405D01*
X141568870Y-116532141D01*
X141568872Y-116532143D01*
X141689947Y-116609953D01*
X141828039Y-116650500D01*
X141971961Y-116650500D01*
X142110053Y-116609953D01*
X142231128Y-116532143D01*
X142269939Y-116487351D01*
X142306287Y-116445405D01*
X142365064Y-116407630D01*
X142434934Y-116407630D01*
X142493712Y-116445404D01*
X142493713Y-116445405D01*
X142568870Y-116532141D01*
X142568872Y-116532143D01*
X142689947Y-116609953D01*
X142828039Y-116650500D01*
X142971961Y-116650500D01*
X143110053Y-116609953D01*
X143231128Y-116532143D01*
X143269939Y-116487351D01*
X143306287Y-116445405D01*
X143365064Y-116407630D01*
X143434934Y-116407630D01*
X143493712Y-116445404D01*
X143493713Y-116445405D01*
X143568870Y-116532141D01*
X143568872Y-116532143D01*
X143689947Y-116609953D01*
X143828039Y-116650500D01*
X143971961Y-116650500D01*
X144110053Y-116609953D01*
X144231128Y-116532143D01*
X144325377Y-116423373D01*
X144385165Y-116292457D01*
X144405647Y-116150000D01*
X144385165Y-116007543D01*
X144325377Y-115876627D01*
X144325376Y-115876626D01*
X144325376Y-115876625D01*
X144231129Y-115767858D01*
X144231128Y-115767857D01*
X144110053Y-115690047D01*
X143971961Y-115649500D01*
X143828039Y-115649500D01*
X143689947Y-115690047D01*
X143568871Y-115767857D01*
X143493713Y-115854595D01*
X143434935Y-115892369D01*
X143365065Y-115892369D01*
X143306287Y-115854595D01*
X143231128Y-115767857D01*
X143201050Y-115748527D01*
X143110053Y-115690047D01*
X142971961Y-115649500D01*
X142828039Y-115649500D01*
X142689947Y-115690047D01*
X142568871Y-115767857D01*
X142493713Y-115854595D01*
X142434935Y-115892369D01*
X142365065Y-115892369D01*
X142306287Y-115854595D01*
X142231128Y-115767857D01*
X142201050Y-115748527D01*
X142110053Y-115690047D01*
X141971961Y-115649500D01*
X141828039Y-115649500D01*
X141689947Y-115690047D01*
X141568871Y-115767857D01*
X141493713Y-115854595D01*
X141434935Y-115892369D01*
X141365065Y-115892369D01*
X141306287Y-115854595D01*
X141231128Y-115767857D01*
X141201050Y-115748527D01*
X141110053Y-115690047D01*
X140971961Y-115649500D01*
X140828039Y-115649500D01*
X140689947Y-115690047D01*
X140568871Y-115767857D01*
X140493713Y-115854595D01*
X140434935Y-115892369D01*
X140365065Y-115892369D01*
X140306287Y-115854595D01*
X140231128Y-115767857D01*
X140201050Y-115748527D01*
X140110053Y-115690047D01*
X139971961Y-115649500D01*
X139828039Y-115649500D01*
X139689947Y-115690047D01*
X139568870Y-115767858D01*
X139474623Y-115876625D01*
X139414834Y-116007542D01*
X139394353Y-116149999D01*
X135380264Y-116149999D01*
X135434719Y-116043126D01*
X135455804Y-115910000D01*
X135434719Y-115776874D01*
X135373528Y-115656780D01*
X135373527Y-115656778D01*
X135278221Y-115561472D01*
X135158124Y-115500280D01*
X135024999Y-115479195D01*
X134891875Y-115500280D01*
X134771778Y-115561472D01*
X134676472Y-115656778D01*
X134615280Y-115776875D01*
X134594195Y-115909999D01*
X102574263Y-115909999D01*
X102651357Y-115814796D01*
X102854043Y-115502687D01*
X103008270Y-115200000D01*
X111394195Y-115200000D01*
X111415280Y-115333124D01*
X111476472Y-115453221D01*
X111571778Y-115548527D01*
X111571780Y-115548528D01*
X111691874Y-115609719D01*
X111757815Y-115620163D01*
X111824999Y-115630804D01*
X111824999Y-115630803D01*
X111825000Y-115630804D01*
X111958126Y-115609719D01*
X112078220Y-115548528D01*
X112173528Y-115453220D01*
X112200645Y-115400000D01*
X113994195Y-115400000D01*
X114015280Y-115533124D01*
X114076472Y-115653221D01*
X114171778Y-115748527D01*
X114171780Y-115748528D01*
X114291874Y-115809719D01*
X114358437Y-115820261D01*
X114424999Y-115830804D01*
X114424999Y-115830803D01*
X114425000Y-115830804D01*
X114558126Y-115809719D01*
X114678220Y-115748528D01*
X114773528Y-115653220D01*
X114834719Y-115533126D01*
X114855804Y-115400000D01*
X114834719Y-115266874D01*
X114773528Y-115146780D01*
X114773527Y-115146778D01*
X114678221Y-115051472D01*
X114558124Y-114990280D01*
X114424999Y-114969195D01*
X114291875Y-114990280D01*
X114171778Y-115051472D01*
X114076472Y-115146778D01*
X114015280Y-115266875D01*
X113994195Y-115400000D01*
X112200645Y-115400000D01*
X112234719Y-115333126D01*
X112255804Y-115200000D01*
X112234719Y-115066874D01*
X112177716Y-114955000D01*
X123949353Y-114955000D01*
X123969834Y-115097457D01*
X124029623Y-115228374D01*
X124120391Y-115333126D01*
X124123872Y-115337143D01*
X124244947Y-115414953D01*
X124383039Y-115455500D01*
X124526961Y-115455500D01*
X124665053Y-115414953D01*
X124786128Y-115337143D01*
X124832934Y-115283126D01*
X124861287Y-115250405D01*
X124920064Y-115212630D01*
X124989934Y-115212630D01*
X125048712Y-115250404D01*
X125048713Y-115250405D01*
X125120391Y-115333126D01*
X125123872Y-115337143D01*
X125244947Y-115414953D01*
X125383039Y-115455500D01*
X125526961Y-115455500D01*
X125665053Y-115414953D01*
X125786128Y-115337143D01*
X125832934Y-115283126D01*
X125861287Y-115250405D01*
X125920064Y-115212630D01*
X125989934Y-115212630D01*
X126048712Y-115250404D01*
X126048713Y-115250405D01*
X126120391Y-115333126D01*
X126123872Y-115337143D01*
X126244947Y-115414953D01*
X126383039Y-115455500D01*
X126526961Y-115455500D01*
X126665053Y-115414953D01*
X126786128Y-115337143D01*
X126880377Y-115228373D01*
X126916170Y-115149999D01*
X128919195Y-115149999D01*
X128940280Y-115283124D01*
X129001472Y-115403221D01*
X129096778Y-115498527D01*
X129096780Y-115498528D01*
X129216874Y-115559719D01*
X129283437Y-115570261D01*
X129349999Y-115580804D01*
X129349999Y-115580803D01*
X129350000Y-115580804D01*
X129483126Y-115559719D01*
X129603220Y-115498528D01*
X129698528Y-115403220D01*
X129759719Y-115283126D01*
X129780804Y-115150000D01*
X129759719Y-115016874D01*
X129698528Y-114896780D01*
X129698527Y-114896778D01*
X129603221Y-114801472D01*
X129483124Y-114740280D01*
X129349999Y-114719195D01*
X129216875Y-114740280D01*
X129096778Y-114801472D01*
X129001472Y-114896778D01*
X128940280Y-115016875D01*
X128919195Y-115149999D01*
X126916170Y-115149999D01*
X126940165Y-115097457D01*
X126960647Y-114955000D01*
X126940165Y-114812543D01*
X126929998Y-114790281D01*
X126880376Y-114681625D01*
X126786129Y-114572857D01*
X126765058Y-114559316D01*
X126719302Y-114506513D01*
X126709358Y-114437355D01*
X126738382Y-114373799D01*
X126765058Y-114350684D01*
X126771690Y-114346421D01*
X126786128Y-114337143D01*
X126788229Y-114334719D01*
X126880376Y-114228374D01*
X126880375Y-114228374D01*
X126880377Y-114228373D01*
X126940165Y-114097457D01*
X126960647Y-113955000D01*
X126940165Y-113812543D01*
X126938186Y-113808210D01*
X126889908Y-113702497D01*
X126880377Y-113681627D01*
X126880376Y-113681626D01*
X126880376Y-113681625D01*
X126786129Y-113572858D01*
X126786128Y-113572857D01*
X126665053Y-113495047D01*
X126526961Y-113454500D01*
X126383039Y-113454500D01*
X126244947Y-113495047D01*
X126123871Y-113572857D01*
X126048712Y-113659595D01*
X125989933Y-113697369D01*
X125920064Y-113697369D01*
X125861286Y-113659594D01*
X125786129Y-113572857D01*
X125765058Y-113559316D01*
X125719302Y-113506513D01*
X125709358Y-113437355D01*
X125738382Y-113373799D01*
X125765058Y-113350684D01*
X125771690Y-113346421D01*
X125786128Y-113337143D01*
X125880377Y-113228373D01*
X125940165Y-113097457D01*
X125960647Y-112955000D01*
X125941956Y-112824999D01*
X127069195Y-112824999D01*
X127090280Y-112958124D01*
X127151472Y-113078221D01*
X127211224Y-113137973D01*
X127244709Y-113199296D01*
X127239725Y-113268988D01*
X127234028Y-113281948D01*
X127165280Y-113416873D01*
X127144195Y-113549999D01*
X127165280Y-113683124D01*
X127226472Y-113803221D01*
X127321778Y-113898527D01*
X127321780Y-113898528D01*
X127441874Y-113959719D01*
X127575000Y-113980804D01*
X127708126Y-113959719D01*
X127828220Y-113898528D01*
X127923528Y-113803220D01*
X127963383Y-113725000D01*
X148219627Y-113725000D01*
X148219796Y-113728224D01*
X148219796Y-113728243D01*
X148238934Y-114093399D01*
X148239104Y-114096638D01*
X148239609Y-114099831D01*
X148239611Y-114099843D01*
X148295137Y-114450424D01*
X148297320Y-114464204D01*
X148298158Y-114467333D01*
X148298161Y-114467345D01*
X148392801Y-114820546D01*
X148392804Y-114820557D01*
X148393639Y-114823671D01*
X148394794Y-114826680D01*
X148394798Y-114826692D01*
X148517669Y-115146780D01*
X148527005Y-115171100D01*
X148528474Y-115173983D01*
X148528478Y-115173992D01*
X148694482Y-115499793D01*
X148695957Y-115502687D01*
X148898643Y-115814796D01*
X149132843Y-116104009D01*
X149395991Y-116367157D01*
X149685204Y-116601357D01*
X149997313Y-116804043D01*
X150328900Y-116972995D01*
X150676329Y-117106361D01*
X151035796Y-117202680D01*
X151403362Y-117260896D01*
X151775000Y-117280373D01*
X152146638Y-117260896D01*
X152514204Y-117202680D01*
X152873671Y-117106361D01*
X153221100Y-116972995D01*
X153552687Y-116804043D01*
X153864796Y-116601357D01*
X154154009Y-116367157D01*
X154417157Y-116104009D01*
X154651357Y-115814796D01*
X154854043Y-115502687D01*
X155022995Y-115171100D01*
X155156361Y-114823671D01*
X155252680Y-114464204D01*
X155310896Y-114096638D01*
X155330373Y-113725000D01*
X155310896Y-113353362D01*
X155252680Y-112985796D01*
X155156361Y-112626329D01*
X155022995Y-112278900D01*
X154854043Y-111947314D01*
X154651357Y-111635204D01*
X154417157Y-111345991D01*
X154154009Y-111082843D01*
X154017343Y-110972173D01*
X188270500Y-110972173D01*
X188270726Y-110975909D01*
X188290364Y-111300576D01*
X188290365Y-111300589D01*
X188290591Y-111304315D01*
X188291265Y-111307997D01*
X188291266Y-111307999D01*
X188349896Y-111627934D01*
X188349898Y-111627943D01*
X188350571Y-111631614D01*
X188351683Y-111635185D01*
X188351685Y-111635190D01*
X188425954Y-111873528D01*
X188449564Y-111949296D01*
X188586129Y-112252730D01*
X188588062Y-112255928D01*
X188588066Y-112255935D01*
X188671648Y-112394195D01*
X188758273Y-112537491D01*
X188963485Y-112799425D01*
X189198775Y-113034715D01*
X189460709Y-113239927D01*
X189745470Y-113412071D01*
X190048904Y-113548636D01*
X190366586Y-113647629D01*
X190693885Y-113707609D01*
X191026027Y-113727700D01*
X191358169Y-113707609D01*
X191685468Y-113647629D01*
X192003150Y-113548636D01*
X192222309Y-113450000D01*
X204319195Y-113450000D01*
X204340280Y-113583124D01*
X204401472Y-113703221D01*
X204496778Y-113798527D01*
X204496780Y-113798528D01*
X204616874Y-113859719D01*
X204750000Y-113880804D01*
X204883126Y-113859719D01*
X205003220Y-113798528D01*
X205098528Y-113703220D01*
X205159719Y-113583126D01*
X205180804Y-113450000D01*
X205159719Y-113316874D01*
X205098528Y-113196780D01*
X205098527Y-113196778D01*
X205003221Y-113101472D01*
X204883124Y-113040280D01*
X204750000Y-113019195D01*
X204616875Y-113040280D01*
X204496778Y-113101472D01*
X204401472Y-113196778D01*
X204340280Y-113316875D01*
X204319195Y-113450000D01*
X192222309Y-113450000D01*
X192306584Y-113412071D01*
X192591345Y-113239927D01*
X192853279Y-113034715D01*
X193088569Y-112799425D01*
X193293781Y-112537491D01*
X193465925Y-112252730D01*
X193602490Y-111949296D01*
X193701483Y-111631614D01*
X193761463Y-111304315D01*
X193781554Y-110972173D01*
X193762066Y-110649999D01*
X196644195Y-110649999D01*
X196665280Y-110783124D01*
X196726472Y-110903221D01*
X196821778Y-110998527D01*
X196821780Y-110998528D01*
X196941874Y-111059719D01*
X197075000Y-111080804D01*
X197208126Y-111059719D01*
X197328220Y-110998528D01*
X197423528Y-110903220D01*
X197439347Y-110872173D01*
X199720344Y-110872173D01*
X199740983Y-111028935D01*
X199801490Y-111175013D01*
X199897744Y-111300455D01*
X199991537Y-111372424D01*
X200023186Y-111396709D01*
X200169265Y-111457217D01*
X200326027Y-111477855D01*
X200482789Y-111457217D01*
X200628868Y-111396709D01*
X200754309Y-111300455D01*
X200777651Y-111270034D01*
X200834078Y-111228832D01*
X200903824Y-111224677D01*
X200964745Y-111258889D01*
X200974402Y-111270034D01*
X200997745Y-111300455D01*
X201123186Y-111396709D01*
X201269265Y-111457217D01*
X201405387Y-111475137D01*
X201426026Y-111477855D01*
X201426026Y-111477854D01*
X201426027Y-111477855D01*
X201582789Y-111457217D01*
X201728868Y-111396709D01*
X201854309Y-111300455D01*
X201877125Y-111270721D01*
X201890151Y-111253745D01*
X201946579Y-111212542D01*
X202016325Y-111208387D01*
X202077245Y-111242599D01*
X202086903Y-111253745D01*
X202122744Y-111300455D01*
X202216537Y-111372424D01*
X202248186Y-111396709D01*
X202394265Y-111457217D01*
X202551027Y-111477855D01*
X202707789Y-111457217D01*
X202853868Y-111396709D01*
X202979309Y-111300455D01*
X203075563Y-111175014D01*
X203136071Y-111028935D01*
X203156709Y-110872173D01*
X203136071Y-110715411D01*
X203075563Y-110569332D01*
X203073566Y-110566729D01*
X202979309Y-110443890D01*
X202853867Y-110347636D01*
X202707789Y-110287129D01*
X202551027Y-110266490D01*
X202394264Y-110287129D01*
X202248186Y-110347636D01*
X202122745Y-110443890D01*
X202086901Y-110490602D01*
X202030472Y-110531804D01*
X201960726Y-110535958D01*
X201899806Y-110501744D01*
X201890150Y-110490600D01*
X201854309Y-110443890D01*
X201728867Y-110347636D01*
X201582789Y-110287129D01*
X201426026Y-110266490D01*
X201269264Y-110287129D01*
X201123186Y-110347636D01*
X200997746Y-110443889D01*
X200974403Y-110474311D01*
X200917975Y-110515513D01*
X200848228Y-110519668D01*
X200787308Y-110485455D01*
X200777651Y-110474311D01*
X200768280Y-110462099D01*
X200754309Y-110443891D01*
X200754307Y-110443890D01*
X200754307Y-110443889D01*
X200628867Y-110347636D01*
X200482789Y-110287129D01*
X200326027Y-110266490D01*
X200169264Y-110287129D01*
X200023186Y-110347636D01*
X199897744Y-110443890D01*
X199801490Y-110569332D01*
X199740983Y-110715410D01*
X199720344Y-110872173D01*
X197439347Y-110872173D01*
X197484719Y-110783126D01*
X197505804Y-110650000D01*
X197484719Y-110516874D01*
X197423528Y-110396780D01*
X197423527Y-110396778D01*
X197328221Y-110301472D01*
X197208124Y-110240280D01*
X197075000Y-110219195D01*
X196941875Y-110240280D01*
X196821778Y-110301472D01*
X196726472Y-110396778D01*
X196665280Y-110516875D01*
X196644195Y-110649999D01*
X193762066Y-110649999D01*
X193761463Y-110640031D01*
X193701483Y-110312732D01*
X193602490Y-109995050D01*
X193465925Y-109691616D01*
X193293781Y-109406855D01*
X193088569Y-109144921D01*
X192853279Y-108909631D01*
X192591345Y-108704419D01*
X192408041Y-108593608D01*
X192309789Y-108534212D01*
X192309782Y-108534208D01*
X192306584Y-108532275D01*
X192068229Y-108425000D01*
X195519195Y-108425000D01*
X195540280Y-108558124D01*
X195601472Y-108678221D01*
X195696778Y-108773527D01*
X195696780Y-108773528D01*
X195816874Y-108834719D01*
X195950000Y-108855804D01*
X196083126Y-108834719D01*
X196203220Y-108773528D01*
X196298528Y-108678220D01*
X196359719Y-108558126D01*
X196380804Y-108425000D01*
X196377194Y-108402210D01*
X196363679Y-108316875D01*
X196359719Y-108291874D01*
X196298528Y-108171780D01*
X196298527Y-108171778D01*
X196203221Y-108076472D01*
X196083124Y-108015280D01*
X195950000Y-107994195D01*
X195816875Y-108015280D01*
X195696778Y-108076472D01*
X195601472Y-108171778D01*
X195540280Y-108291875D01*
X195519195Y-108425000D01*
X192068229Y-108425000D01*
X192003150Y-108395710D01*
X191951682Y-108379672D01*
X191689044Y-108297831D01*
X191689039Y-108297829D01*
X191685468Y-108296717D01*
X191681797Y-108296044D01*
X191681788Y-108296042D01*
X191361853Y-108237412D01*
X191361851Y-108237411D01*
X191358169Y-108236737D01*
X191354443Y-108236511D01*
X191354430Y-108236510D01*
X191029763Y-108216872D01*
X191026027Y-108216646D01*
X191022291Y-108216872D01*
X190697623Y-108236510D01*
X190697608Y-108236511D01*
X190693885Y-108236737D01*
X190690204Y-108237411D01*
X190690200Y-108237412D01*
X190370265Y-108296042D01*
X190370252Y-108296045D01*
X190366586Y-108296717D01*
X190363018Y-108297828D01*
X190363009Y-108297831D01*
X190052481Y-108394595D01*
X190052475Y-108394597D01*
X190048904Y-108395710D01*
X190045495Y-108397244D01*
X190045493Y-108397245D01*
X189962230Y-108434719D01*
X189745470Y-108532275D01*
X189742277Y-108534204D01*
X189742264Y-108534212D01*
X189463913Y-108702482D01*
X189460709Y-108704419D01*
X189457767Y-108706723D01*
X189457761Y-108706728D01*
X189294393Y-108834719D01*
X189198775Y-108909631D01*
X189196129Y-108912276D01*
X189196121Y-108912284D01*
X188966138Y-109142267D01*
X188966130Y-109142275D01*
X188963485Y-109144921D01*
X188961173Y-109147871D01*
X188961173Y-109147872D01*
X188760582Y-109403907D01*
X188760577Y-109403913D01*
X188758273Y-109406855D01*
X188756336Y-109410057D01*
X188756336Y-109410059D01*
X188588066Y-109688410D01*
X188588058Y-109688423D01*
X188586129Y-109691616D01*
X188584592Y-109695030D01*
X188584592Y-109695031D01*
X188472452Y-109944196D01*
X188449564Y-109995050D01*
X188448451Y-109998621D01*
X188448449Y-109998627D01*
X188351685Y-110309155D01*
X188351682Y-110309164D01*
X188350571Y-110312732D01*
X188349899Y-110316398D01*
X188349896Y-110316411D01*
X188313160Y-110516874D01*
X188290591Y-110640031D01*
X188290365Y-110643754D01*
X188290364Y-110643769D01*
X188276549Y-110872172D01*
X188270500Y-110972173D01*
X154017343Y-110972173D01*
X153864796Y-110848643D01*
X153552687Y-110645957D01*
X153549799Y-110644485D01*
X153549793Y-110644482D01*
X153223992Y-110478478D01*
X153223983Y-110478474D01*
X153221100Y-110477005D01*
X153214082Y-110474311D01*
X152876692Y-110344798D01*
X152876680Y-110344794D01*
X152873671Y-110343639D01*
X152870557Y-110342804D01*
X152870546Y-110342801D01*
X152517345Y-110248161D01*
X152517333Y-110248158D01*
X152514204Y-110247320D01*
X152510992Y-110246811D01*
X152510986Y-110246810D01*
X152149843Y-110189611D01*
X152149831Y-110189609D01*
X152146638Y-110189104D01*
X152143403Y-110188934D01*
X152143399Y-110188934D01*
X151778244Y-110169797D01*
X151775000Y-110169627D01*
X151771756Y-110169797D01*
X151406600Y-110188934D01*
X151406594Y-110188934D01*
X151403362Y-110189104D01*
X151400170Y-110189609D01*
X151400156Y-110189611D01*
X151039013Y-110246810D01*
X151039004Y-110246811D01*
X151035796Y-110247320D01*
X151032670Y-110248157D01*
X151032654Y-110248161D01*
X150679453Y-110342801D01*
X150679436Y-110342806D01*
X150676329Y-110343639D01*
X150673324Y-110344792D01*
X150673307Y-110344798D01*
X150331931Y-110475841D01*
X150331922Y-110475844D01*
X150328900Y-110477005D01*
X150326023Y-110478470D01*
X150326007Y-110478478D01*
X150000207Y-110644482D01*
X150000193Y-110644489D01*
X149997314Y-110645957D01*
X149994594Y-110647723D01*
X149994586Y-110647728D01*
X149687932Y-110846871D01*
X149687926Y-110846874D01*
X149685204Y-110848643D01*
X149682684Y-110850683D01*
X149682678Y-110850688D01*
X149398509Y-111080803D01*
X149398498Y-111080812D01*
X149395991Y-111082843D01*
X149393706Y-111085127D01*
X149393696Y-111085137D01*
X149135137Y-111343696D01*
X149135127Y-111343706D01*
X149132843Y-111345991D01*
X149130812Y-111348498D01*
X149130803Y-111348509D01*
X148900688Y-111632678D01*
X148900683Y-111632684D01*
X148898643Y-111635204D01*
X148896874Y-111637926D01*
X148896871Y-111637932D01*
X148697728Y-111944586D01*
X148697723Y-111944594D01*
X148695957Y-111947314D01*
X148694489Y-111950193D01*
X148694482Y-111950207D01*
X148528478Y-112276007D01*
X148528470Y-112276023D01*
X148527005Y-112278900D01*
X148525844Y-112281922D01*
X148525841Y-112281931D01*
X148394798Y-112623307D01*
X148394792Y-112623324D01*
X148393639Y-112626329D01*
X148392806Y-112629436D01*
X148392801Y-112629453D01*
X148298161Y-112982654D01*
X148298157Y-112982670D01*
X148297320Y-112985796D01*
X148296811Y-112989004D01*
X148296810Y-112989013D01*
X148239611Y-113350156D01*
X148239609Y-113350170D01*
X148239104Y-113353362D01*
X148238934Y-113356594D01*
X148238934Y-113356600D01*
X148219796Y-113721756D01*
X148219796Y-113721775D01*
X148219627Y-113725000D01*
X127963383Y-113725000D01*
X127984719Y-113683126D01*
X128002184Y-113572855D01*
X128005804Y-113550001D01*
X128003618Y-113536202D01*
X128001059Y-113520041D01*
X128010013Y-113450749D01*
X128055009Y-113397296D01*
X128121760Y-113376656D01*
X128189074Y-113395380D01*
X128211213Y-113412962D01*
X128246778Y-113448527D01*
X128246780Y-113448528D01*
X128366874Y-113509719D01*
X128500000Y-113530804D01*
X128633126Y-113509719D01*
X128753220Y-113448528D01*
X128848528Y-113353220D01*
X128909719Y-113233126D01*
X128930804Y-113100000D01*
X128909719Y-112966874D01*
X128848528Y-112846780D01*
X128848527Y-112846778D01*
X128753221Y-112751472D01*
X128633124Y-112690280D01*
X128499999Y-112669195D01*
X128366875Y-112690280D01*
X128246778Y-112751472D01*
X128137584Y-112860667D01*
X128134666Y-112857749D01*
X128111016Y-112882776D01*
X128043190Y-112899552D01*
X127977062Y-112876995D01*
X127933626Y-112822268D01*
X127926063Y-112795065D01*
X127909719Y-112691875D01*
X127909719Y-112691874D01*
X127848528Y-112571780D01*
X127848527Y-112571778D01*
X127753221Y-112476472D01*
X127633124Y-112415280D01*
X127499999Y-112394195D01*
X127366875Y-112415280D01*
X127246778Y-112476472D01*
X127151472Y-112571778D01*
X127090280Y-112691875D01*
X127069195Y-112824999D01*
X125941956Y-112824999D01*
X125940165Y-112812543D01*
X125934174Y-112799425D01*
X125880376Y-112681625D01*
X125786129Y-112572858D01*
X125786128Y-112572857D01*
X125665053Y-112495047D01*
X125526961Y-112454500D01*
X125383039Y-112454500D01*
X125244947Y-112495047D01*
X125123871Y-112572857D01*
X125048713Y-112659595D01*
X124989935Y-112697369D01*
X124920065Y-112697369D01*
X124861287Y-112659595D01*
X124786128Y-112572857D01*
X124726110Y-112534286D01*
X124665053Y-112495047D01*
X124526961Y-112454500D01*
X124383039Y-112454500D01*
X124244947Y-112495047D01*
X124123870Y-112572858D01*
X124029623Y-112681625D01*
X123969834Y-112812542D01*
X123949353Y-112955000D01*
X123969834Y-113097457D01*
X124029623Y-113228374D01*
X124123869Y-113337141D01*
X124123871Y-113337142D01*
X124123872Y-113337143D01*
X124144941Y-113350683D01*
X124190696Y-113403485D01*
X124200641Y-113472643D01*
X124171618Y-113536200D01*
X124144944Y-113559313D01*
X124123872Y-113572855D01*
X124029623Y-113681625D01*
X123969834Y-113812542D01*
X123949353Y-113955000D01*
X123969834Y-114097457D01*
X124029623Y-114228374D01*
X124123869Y-114337141D01*
X124123871Y-114337142D01*
X124123872Y-114337143D01*
X124144941Y-114350683D01*
X124190696Y-114403485D01*
X124200641Y-114472643D01*
X124171618Y-114536200D01*
X124144944Y-114559313D01*
X124123872Y-114572855D01*
X124029623Y-114681625D01*
X123969834Y-114812542D01*
X123949353Y-114955000D01*
X112177716Y-114955000D01*
X112173528Y-114946780D01*
X112173527Y-114946778D01*
X112078221Y-114851472D01*
X111958124Y-114790280D01*
X111824999Y-114769195D01*
X111691875Y-114790280D01*
X111571778Y-114851472D01*
X111476472Y-114946778D01*
X111415280Y-115066875D01*
X111394195Y-115200000D01*
X103008270Y-115200000D01*
X103022995Y-115171100D01*
X103156361Y-114823671D01*
X103252680Y-114464204D01*
X103310896Y-114096638D01*
X103319891Y-113925000D01*
X114394195Y-113925000D01*
X114415280Y-114058124D01*
X114476472Y-114178221D01*
X114571778Y-114273527D01*
X114571780Y-114273528D01*
X114691874Y-114334719D01*
X114825000Y-114355804D01*
X114958126Y-114334719D01*
X115078220Y-114273528D01*
X115173528Y-114178220D01*
X115234719Y-114058126D01*
X115255804Y-113925000D01*
X115234719Y-113791874D01*
X115173528Y-113671780D01*
X115173527Y-113671778D01*
X115078221Y-113576472D01*
X114958124Y-113515280D01*
X114825000Y-113494195D01*
X114691875Y-113515280D01*
X114571778Y-113576472D01*
X114476472Y-113671778D01*
X114415280Y-113791875D01*
X114394195Y-113925000D01*
X103319891Y-113925000D01*
X103330373Y-113725000D01*
X103310896Y-113353362D01*
X103270768Y-113099999D01*
X115144195Y-113099999D01*
X115165280Y-113233124D01*
X115226472Y-113353221D01*
X115321778Y-113448527D01*
X115321780Y-113448528D01*
X115441874Y-113509719D01*
X115575000Y-113530804D01*
X115708126Y-113509719D01*
X115828220Y-113448528D01*
X115877636Y-113399111D01*
X115938957Y-113365628D01*
X116008649Y-113370612D01*
X116064583Y-113412483D01*
X116087789Y-113467395D01*
X116090280Y-113483124D01*
X116151472Y-113603221D01*
X116246778Y-113698527D01*
X116246780Y-113698528D01*
X116366874Y-113759719D01*
X116433436Y-113770261D01*
X116499999Y-113780804D01*
X116499999Y-113780803D01*
X116500000Y-113780804D01*
X116633126Y-113759719D01*
X116753220Y-113698528D01*
X116848528Y-113603220D01*
X116909719Y-113483126D01*
X116930804Y-113350000D01*
X116909719Y-113216874D01*
X116848528Y-113096780D01*
X116848527Y-113096778D01*
X116753221Y-113001472D01*
X116633124Y-112940280D01*
X116499999Y-112919195D01*
X116366875Y-112940280D01*
X116246779Y-113001471D01*
X116197364Y-113050887D01*
X116136040Y-113084371D01*
X116066349Y-113079386D01*
X116010415Y-113037515D01*
X115987210Y-112982604D01*
X115984719Y-112966874D01*
X115923528Y-112846780D01*
X115923527Y-112846778D01*
X115828221Y-112751472D01*
X115708124Y-112690280D01*
X115575000Y-112669195D01*
X115441875Y-112690280D01*
X115321778Y-112751472D01*
X115226472Y-112846778D01*
X115165280Y-112966875D01*
X115144195Y-113099999D01*
X103270768Y-113099999D01*
X103252680Y-112985796D01*
X103156361Y-112626329D01*
X103022995Y-112278900D01*
X102854043Y-111947314D01*
X102651357Y-111635204D01*
X102562116Y-111525000D01*
X114819195Y-111525000D01*
X114840280Y-111658124D01*
X114901472Y-111778221D01*
X114996778Y-111873527D01*
X114996780Y-111873528D01*
X115116874Y-111934719D01*
X115250000Y-111955804D01*
X115383126Y-111934719D01*
X115503220Y-111873528D01*
X115598528Y-111778220D01*
X115659719Y-111658126D01*
X115680804Y-111525000D01*
X115659719Y-111391874D01*
X115598528Y-111271780D01*
X115598527Y-111271778D01*
X115581749Y-111255000D01*
X129849195Y-111255000D01*
X129870280Y-111388124D01*
X129931472Y-111508221D01*
X130026778Y-111603527D01*
X130026780Y-111603528D01*
X130146874Y-111664719D01*
X130280000Y-111685804D01*
X130413126Y-111664719D01*
X130533220Y-111603528D01*
X130609249Y-111527499D01*
X134511695Y-111527499D01*
X134532780Y-111660624D01*
X134593972Y-111780721D01*
X134689278Y-111876027D01*
X134689280Y-111876028D01*
X134809374Y-111937219D01*
X134942500Y-111958304D01*
X135075626Y-111937219D01*
X135195720Y-111876028D01*
X135291028Y-111780720D01*
X135352219Y-111660626D01*
X135361362Y-111602896D01*
X135369396Y-111552176D01*
X135399325Y-111489041D01*
X135458637Y-111452110D01*
X135472471Y-111449101D01*
X135556240Y-111435832D01*
X135610626Y-111427219D01*
X135730720Y-111366028D01*
X135826028Y-111270720D01*
X135887219Y-111150626D01*
X135908304Y-111017500D01*
X135887219Y-110884374D01*
X135826028Y-110764280D01*
X135826027Y-110764278D01*
X135730721Y-110668972D01*
X135610624Y-110607780D01*
X135477500Y-110586695D01*
X135344375Y-110607780D01*
X135224278Y-110668972D01*
X135128972Y-110764278D01*
X135067780Y-110884375D01*
X135050603Y-110992824D01*
X135020673Y-111055958D01*
X134961361Y-111092889D01*
X134947529Y-111095898D01*
X134809375Y-111117780D01*
X134689278Y-111178972D01*
X134593972Y-111274278D01*
X134532780Y-111394375D01*
X134511695Y-111527499D01*
X130609249Y-111527499D01*
X130628528Y-111508220D01*
X130689719Y-111388126D01*
X130710804Y-111255000D01*
X130689719Y-111121874D01*
X130628528Y-111001780D01*
X130628527Y-111001778D01*
X130533221Y-110906472D01*
X130413124Y-110845280D01*
X130280000Y-110824195D01*
X130146875Y-110845280D01*
X130026778Y-110906472D01*
X129931472Y-111001778D01*
X129870280Y-111121875D01*
X129849195Y-111255000D01*
X115581749Y-111255000D01*
X115503221Y-111176472D01*
X115383124Y-111115280D01*
X115250000Y-111094195D01*
X115116875Y-111115280D01*
X114996778Y-111176472D01*
X114901472Y-111271778D01*
X114840280Y-111391875D01*
X114819195Y-111525000D01*
X102562116Y-111525000D01*
X102417157Y-111345991D01*
X102154009Y-111082843D01*
X101864796Y-110848643D01*
X101552687Y-110645957D01*
X101549799Y-110644485D01*
X101549793Y-110644482D01*
X101223992Y-110478478D01*
X101223983Y-110478474D01*
X101221100Y-110477005D01*
X101214082Y-110474311D01*
X100955368Y-110374999D01*
X115894195Y-110374999D01*
X115915280Y-110508124D01*
X115976472Y-110628221D01*
X116071778Y-110723527D01*
X116071780Y-110723528D01*
X116191874Y-110784719D01*
X116325000Y-110805804D01*
X116458126Y-110784719D01*
X116578220Y-110723528D01*
X116673528Y-110628220D01*
X116734719Y-110508126D01*
X116755804Y-110375000D01*
X116751020Y-110344798D01*
X116735715Y-110248161D01*
X116734719Y-110241874D01*
X116673528Y-110121780D01*
X116673527Y-110121778D01*
X116578221Y-110026472D01*
X116458124Y-109965280D01*
X116325000Y-109944195D01*
X116191875Y-109965280D01*
X116071778Y-110026472D01*
X115976472Y-110121778D01*
X115915280Y-110241875D01*
X115894195Y-110374999D01*
X100955368Y-110374999D01*
X100876692Y-110344798D01*
X100876680Y-110344794D01*
X100873671Y-110343639D01*
X100870557Y-110342804D01*
X100870546Y-110342801D01*
X100517345Y-110248161D01*
X100517333Y-110248158D01*
X100514204Y-110247320D01*
X100510992Y-110246811D01*
X100510986Y-110246810D01*
X100149843Y-110189611D01*
X100149831Y-110189609D01*
X100146638Y-110189104D01*
X100143403Y-110188934D01*
X100143399Y-110188934D01*
X99778244Y-110169797D01*
X99775000Y-110169627D01*
X99771756Y-110169797D01*
X99406600Y-110188934D01*
X99406594Y-110188934D01*
X99403362Y-110189104D01*
X99400170Y-110189609D01*
X99400156Y-110189611D01*
X99039013Y-110246810D01*
X99039004Y-110246811D01*
X99035796Y-110247320D01*
X99032670Y-110248157D01*
X99032654Y-110248161D01*
X98679453Y-110342801D01*
X98679436Y-110342806D01*
X98676329Y-110343639D01*
X98673324Y-110344792D01*
X98673307Y-110344798D01*
X98331931Y-110475841D01*
X98331922Y-110475844D01*
X98328900Y-110477005D01*
X98326023Y-110478470D01*
X98326007Y-110478478D01*
X98000207Y-110644482D01*
X98000193Y-110644489D01*
X97997314Y-110645957D01*
X97994594Y-110647723D01*
X97994586Y-110647728D01*
X97687932Y-110846871D01*
X97687926Y-110846874D01*
X97685204Y-110848643D01*
X97682684Y-110850683D01*
X97682678Y-110850688D01*
X97398509Y-111080803D01*
X97398498Y-111080812D01*
X97395991Y-111082843D01*
X97393706Y-111085127D01*
X97393696Y-111085137D01*
X97135137Y-111343696D01*
X97135127Y-111343706D01*
X97132843Y-111345991D01*
X97130812Y-111348498D01*
X97130803Y-111348509D01*
X96900688Y-111632678D01*
X96900683Y-111632684D01*
X96898643Y-111635204D01*
X96896874Y-111637926D01*
X96896871Y-111637932D01*
X96697728Y-111944586D01*
X96697723Y-111944594D01*
X96695957Y-111947314D01*
X96694489Y-111950193D01*
X96694482Y-111950207D01*
X96528478Y-112276007D01*
X96528470Y-112276023D01*
X96527005Y-112278900D01*
X96525844Y-112281922D01*
X96525841Y-112281931D01*
X96394798Y-112623307D01*
X96394792Y-112623324D01*
X96393639Y-112626329D01*
X96392806Y-112629436D01*
X96392801Y-112629453D01*
X96298161Y-112982654D01*
X96298157Y-112982670D01*
X96297320Y-112985796D01*
X96296811Y-112989004D01*
X96296810Y-112989013D01*
X96239611Y-113350156D01*
X96239609Y-113350170D01*
X96239104Y-113353362D01*
X96238934Y-113356594D01*
X96238934Y-113356600D01*
X96227062Y-113583126D01*
X96219627Y-113725000D01*
X82820663Y-113725000D01*
X83108169Y-113707609D01*
X83435468Y-113647629D01*
X83753150Y-113548636D01*
X84056584Y-113412071D01*
X84341345Y-113239927D01*
X84603279Y-113034715D01*
X84838569Y-112799425D01*
X85043781Y-112537491D01*
X85215925Y-112252730D01*
X85352490Y-111949296D01*
X85451483Y-111631614D01*
X85511463Y-111304315D01*
X85531554Y-110972173D01*
X85511463Y-110640031D01*
X85451483Y-110312732D01*
X85352490Y-109995050D01*
X85215925Y-109691616D01*
X85100089Y-109499999D01*
X126719195Y-109499999D01*
X126740280Y-109633124D01*
X126801472Y-109753221D01*
X126896778Y-109848527D01*
X126896780Y-109848528D01*
X127016874Y-109909719D01*
X127083437Y-109920261D01*
X127149999Y-109930804D01*
X127149999Y-109930803D01*
X127150000Y-109930804D01*
X127283126Y-109909719D01*
X127403220Y-109848528D01*
X127498528Y-109753220D01*
X127559719Y-109633126D01*
X127580804Y-109500000D01*
X127559719Y-109366874D01*
X127498528Y-109246780D01*
X127498527Y-109246778D01*
X127403221Y-109151472D01*
X127283124Y-109090280D01*
X127149999Y-109069195D01*
X127016875Y-109090280D01*
X126896778Y-109151472D01*
X126801472Y-109246778D01*
X126740280Y-109366875D01*
X126719195Y-109499999D01*
X85100089Y-109499999D01*
X85043781Y-109406855D01*
X84838569Y-109144921D01*
X84603279Y-108909631D01*
X84341345Y-108704419D01*
X84158041Y-108593608D01*
X84059789Y-108534212D01*
X84059782Y-108534208D01*
X84056584Y-108532275D01*
X83753150Y-108395710D01*
X83701682Y-108379672D01*
X83439044Y-108297831D01*
X83439039Y-108297829D01*
X83435468Y-108296717D01*
X83431797Y-108296044D01*
X83431788Y-108296042D01*
X83111853Y-108237412D01*
X83111851Y-108237411D01*
X83108169Y-108236737D01*
X83104443Y-108236511D01*
X83104430Y-108236510D01*
X82779763Y-108216872D01*
X82776027Y-108216646D01*
X82772291Y-108216872D01*
X82447623Y-108236510D01*
X82447608Y-108236511D01*
X82443885Y-108236737D01*
X82440204Y-108237411D01*
X82440200Y-108237412D01*
X82120265Y-108296042D01*
X82120252Y-108296045D01*
X82116586Y-108296717D01*
X82113018Y-108297828D01*
X82113009Y-108297831D01*
X81802481Y-108394595D01*
X81802475Y-108394597D01*
X81798904Y-108395710D01*
X81795495Y-108397244D01*
X81795493Y-108397245D01*
X81712230Y-108434719D01*
X81495470Y-108532275D01*
X81492277Y-108534204D01*
X81492264Y-108534212D01*
X81213913Y-108702482D01*
X81210709Y-108704419D01*
X81207767Y-108706723D01*
X81207761Y-108706728D01*
X81044393Y-108834719D01*
X80948775Y-108909631D01*
X80946129Y-108912276D01*
X80946121Y-108912284D01*
X80716138Y-109142267D01*
X80716130Y-109142275D01*
X80713485Y-109144921D01*
X80711173Y-109147871D01*
X80711173Y-109147872D01*
X80510582Y-109403907D01*
X80510577Y-109403913D01*
X80508273Y-109406855D01*
X80506336Y-109410057D01*
X80506336Y-109410059D01*
X80338066Y-109688410D01*
X80338058Y-109688423D01*
X80336129Y-109691616D01*
X80334592Y-109695030D01*
X80334592Y-109695031D01*
X80222452Y-109944196D01*
X80199564Y-109995050D01*
X80198451Y-109998621D01*
X80198449Y-109998627D01*
X80101685Y-110309155D01*
X80101682Y-110309164D01*
X80100571Y-110312732D01*
X80099899Y-110316398D01*
X80099896Y-110316411D01*
X80071469Y-110471535D01*
X80040022Y-110533928D01*
X79979836Y-110569415D01*
X79910018Y-110566729D01*
X79852735Y-110526724D01*
X79826175Y-110462099D01*
X79825500Y-110449183D01*
X79825500Y-108730411D01*
X79825972Y-108719604D01*
X79838979Y-108570928D01*
X79842732Y-108549645D01*
X79849672Y-108523746D01*
X79879956Y-108410721D01*
X79887342Y-108390428D01*
X79948127Y-108260074D01*
X79958927Y-108241369D01*
X80041423Y-108123552D01*
X80055306Y-108107007D01*
X80157007Y-108005306D01*
X80173552Y-107991423D01*
X80291369Y-107908927D01*
X80310074Y-107898127D01*
X80381115Y-107865000D01*
X119724195Y-107865000D01*
X119745280Y-107998124D01*
X119806472Y-108118221D01*
X119901778Y-108213527D01*
X119901780Y-108213528D01*
X120021874Y-108274719D01*
X120155000Y-108295804D01*
X120288126Y-108274719D01*
X120408220Y-108213528D01*
X120417316Y-108204431D01*
X120478639Y-108170944D01*
X120548331Y-108175927D01*
X120592683Y-108204431D01*
X120601780Y-108213528D01*
X120721874Y-108274719D01*
X120855000Y-108295804D01*
X120988126Y-108274719D01*
X121108220Y-108213528D01*
X121159820Y-108161927D01*
X121221139Y-108128444D01*
X121290831Y-108133428D01*
X121335180Y-108161929D01*
X121384278Y-108211027D01*
X121384280Y-108211028D01*
X121504374Y-108272219D01*
X121637500Y-108293304D01*
X121770626Y-108272219D01*
X121890720Y-108211028D01*
X121986028Y-108115720D01*
X122032253Y-108024999D01*
X129369195Y-108024999D01*
X129390280Y-108158124D01*
X129451472Y-108278221D01*
X129546778Y-108373527D01*
X129546780Y-108373528D01*
X129666874Y-108434719D01*
X129666875Y-108434719D01*
X129678845Y-108440818D01*
X129728662Y-108464434D01*
X129765594Y-108523746D01*
X129764596Y-108593608D01*
X129725987Y-108651841D01*
X129712402Y-108660848D01*
X129613972Y-108759278D01*
X129552780Y-108879375D01*
X129531695Y-109012499D01*
X129552780Y-109145624D01*
X129613972Y-109265721D01*
X129709278Y-109361027D01*
X129709280Y-109361028D01*
X129829374Y-109422219D01*
X129895937Y-109432761D01*
X129962499Y-109443304D01*
X129962499Y-109443303D01*
X129962500Y-109443304D01*
X130095626Y-109422219D01*
X130215720Y-109361028D01*
X130311028Y-109265720D01*
X130372219Y-109145626D01*
X130393304Y-109012500D01*
X130372219Y-108879374D01*
X130311028Y-108759280D01*
X130311027Y-108759278D01*
X130215721Y-108663972D01*
X130120245Y-108615325D01*
X130095626Y-108602781D01*
X130095624Y-108602780D01*
X130083657Y-108596683D01*
X130033833Y-108573061D01*
X129996904Y-108513748D01*
X129997816Y-108450000D01*
X138844195Y-108450000D01*
X138865280Y-108583124D01*
X138926472Y-108703221D01*
X139021778Y-108798527D01*
X139021780Y-108798528D01*
X139141874Y-108859719D01*
X139275000Y-108880804D01*
X139408126Y-108859719D01*
X139528220Y-108798528D01*
X139623528Y-108703220D01*
X139645356Y-108660379D01*
X139693328Y-108609585D01*
X139761148Y-108592789D01*
X139827284Y-108615325D01*
X139864154Y-108661753D01*
X139866365Y-108660627D01*
X139875280Y-108678125D01*
X139875281Y-108678126D01*
X139885641Y-108698458D01*
X139936472Y-108798221D01*
X140031778Y-108893527D01*
X140031780Y-108893528D01*
X140151874Y-108954719D01*
X140285000Y-108975804D01*
X140418126Y-108954719D01*
X140538220Y-108893528D01*
X140633528Y-108798220D01*
X140694719Y-108678126D01*
X140715804Y-108545000D01*
X140694719Y-108411874D01*
X140635578Y-108295804D01*
X140633527Y-108291778D01*
X140538221Y-108196472D01*
X140418124Y-108135280D01*
X140285000Y-108114195D01*
X140151875Y-108135280D01*
X140031778Y-108196472D01*
X139936472Y-108291778D01*
X139914644Y-108334619D01*
X139866669Y-108385415D01*
X139798848Y-108402210D01*
X139732713Y-108379672D01*
X139695845Y-108333246D01*
X139693635Y-108334373D01*
X139679078Y-108305804D01*
X139623528Y-108196780D01*
X139623527Y-108196778D01*
X139528221Y-108101472D01*
X139408124Y-108040280D01*
X139275000Y-108019195D01*
X139141875Y-108040280D01*
X139021778Y-108101472D01*
X138926472Y-108196778D01*
X138865280Y-108316875D01*
X138844195Y-108450000D01*
X129997816Y-108450000D01*
X129997904Y-108443885D01*
X130036516Y-108385654D01*
X130050101Y-108376647D01*
X130148527Y-108278221D01*
X130148528Y-108278220D01*
X130209719Y-108158126D01*
X130230804Y-108025000D01*
X130228146Y-108008221D01*
X130220261Y-107958437D01*
X130209719Y-107891874D01*
X130148528Y-107771780D01*
X130148527Y-107771778D01*
X130131749Y-107755000D01*
X131434195Y-107755000D01*
X131455280Y-107888124D01*
X131516472Y-108008221D01*
X131611778Y-108103527D01*
X131611780Y-108103528D01*
X131731874Y-108164719D01*
X131865000Y-108185804D01*
X131998126Y-108164719D01*
X132118220Y-108103528D01*
X132213528Y-108008220D01*
X132274719Y-107888126D01*
X132276798Y-107875000D01*
X134619195Y-107875000D01*
X134640280Y-108008124D01*
X134701472Y-108128221D01*
X134796778Y-108223527D01*
X134796780Y-108223528D01*
X134916874Y-108284719D01*
X135050000Y-108305804D01*
X135183126Y-108284719D01*
X135303220Y-108223528D01*
X135398528Y-108128220D01*
X135459719Y-108008126D01*
X135480804Y-107875000D01*
X135476844Y-107850000D01*
X135844195Y-107850000D01*
X135865280Y-107983124D01*
X135926472Y-108103221D01*
X136021778Y-108198527D01*
X136021780Y-108198528D01*
X136141874Y-108259719D01*
X136275000Y-108280804D01*
X136408126Y-108259719D01*
X136528220Y-108198528D01*
X136623528Y-108103220D01*
X136684719Y-107983126D01*
X136700261Y-107884999D01*
X150444195Y-107884999D01*
X150465280Y-108018124D01*
X150526472Y-108138221D01*
X150621778Y-108233527D01*
X150621780Y-108233528D01*
X150741874Y-108294719D01*
X150875000Y-108315804D01*
X151008126Y-108294719D01*
X151128220Y-108233528D01*
X151223528Y-108138220D01*
X151284719Y-108018126D01*
X151305804Y-107885000D01*
X151284719Y-107751874D01*
X151223528Y-107631780D01*
X151223527Y-107631778D01*
X151128221Y-107536472D01*
X151008124Y-107475280D01*
X150875000Y-107454195D01*
X150741875Y-107475280D01*
X150621778Y-107536472D01*
X150526472Y-107631778D01*
X150465280Y-107751875D01*
X150444195Y-107884999D01*
X136700261Y-107884999D01*
X136705804Y-107850000D01*
X136684719Y-107716874D01*
X136623528Y-107596780D01*
X136623527Y-107596778D01*
X136528221Y-107501472D01*
X136408124Y-107440280D01*
X136275000Y-107419195D01*
X136141875Y-107440280D01*
X136021778Y-107501472D01*
X135926472Y-107596778D01*
X135865280Y-107716875D01*
X135844195Y-107850000D01*
X135476844Y-107850000D01*
X135459719Y-107741874D01*
X135398528Y-107621780D01*
X135398527Y-107621778D01*
X135303221Y-107526472D01*
X135183124Y-107465280D01*
X135050000Y-107444195D01*
X134916875Y-107465280D01*
X134796778Y-107526472D01*
X134701472Y-107621778D01*
X134640280Y-107741875D01*
X134619195Y-107875000D01*
X132276798Y-107875000D01*
X132295804Y-107755000D01*
X132274719Y-107621874D01*
X132213528Y-107501780D01*
X132213527Y-107501778D01*
X132118221Y-107406472D01*
X132056451Y-107374999D01*
X148894195Y-107374999D01*
X148915280Y-107508124D01*
X148976472Y-107628221D01*
X149071778Y-107723527D01*
X149071780Y-107723528D01*
X149191874Y-107784719D01*
X149325000Y-107805804D01*
X149458126Y-107784719D01*
X149578220Y-107723528D01*
X149673528Y-107628220D01*
X149734719Y-107508126D01*
X149755804Y-107375000D01*
X149734719Y-107241874D01*
X149673528Y-107121780D01*
X149673527Y-107121778D01*
X149578221Y-107026472D01*
X149458124Y-106965280D01*
X149325000Y-106944195D01*
X149191875Y-106965280D01*
X149071778Y-107026472D01*
X148976472Y-107121778D01*
X148915280Y-107241875D01*
X148894195Y-107374999D01*
X132056451Y-107374999D01*
X131998124Y-107345280D01*
X131865000Y-107324195D01*
X131731875Y-107345280D01*
X131611778Y-107406472D01*
X131516472Y-107501778D01*
X131455280Y-107621875D01*
X131434195Y-107755000D01*
X130131749Y-107755000D01*
X130053221Y-107676472D01*
X129933124Y-107615280D01*
X129800000Y-107594195D01*
X129666875Y-107615280D01*
X129546778Y-107676472D01*
X129451472Y-107771778D01*
X129390280Y-107891875D01*
X129369195Y-108024999D01*
X122032253Y-108024999D01*
X122047219Y-107995626D01*
X122062441Y-107899515D01*
X122092370Y-107836381D01*
X122151681Y-107799449D01*
X122221543Y-107800447D01*
X122241208Y-107808428D01*
X122341873Y-107859719D01*
X122475000Y-107880804D01*
X122608126Y-107859719D01*
X122728220Y-107798528D01*
X122823528Y-107703220D01*
X122884719Y-107583126D01*
X122905804Y-107450000D01*
X122905043Y-107445198D01*
X122885879Y-107324196D01*
X122884719Y-107316874D01*
X122823528Y-107196780D01*
X122823527Y-107196778D01*
X122728221Y-107101472D01*
X122608124Y-107040280D01*
X122475000Y-107019195D01*
X122341875Y-107040280D01*
X122221778Y-107101472D01*
X122126472Y-107196778D01*
X122065280Y-107316875D01*
X122050058Y-107412984D01*
X122020129Y-107476119D01*
X121960817Y-107513050D01*
X121890954Y-107512052D01*
X121871291Y-107504071D01*
X121770626Y-107452780D01*
X121637500Y-107431695D01*
X121504375Y-107452780D01*
X121384278Y-107513972D01*
X121332681Y-107565570D01*
X121271358Y-107599055D01*
X121201666Y-107594071D01*
X121157319Y-107565570D01*
X121108221Y-107516472D01*
X120988124Y-107455280D01*
X120855000Y-107434195D01*
X120721875Y-107455280D01*
X120601778Y-107516472D01*
X120592681Y-107525570D01*
X120531358Y-107559055D01*
X120461666Y-107554071D01*
X120417319Y-107525570D01*
X120408221Y-107516472D01*
X120288124Y-107455280D01*
X120155000Y-107434195D01*
X120021875Y-107455280D01*
X119901778Y-107516472D01*
X119806472Y-107611778D01*
X119745280Y-107731875D01*
X119724195Y-107865000D01*
X80381115Y-107865000D01*
X80440428Y-107837342D01*
X80460721Y-107829956D01*
X80599645Y-107792731D01*
X80620928Y-107788979D01*
X80769604Y-107775972D01*
X80780412Y-107775500D01*
X89410405Y-107775500D01*
X89414155Y-107775500D01*
X89690435Y-107741954D01*
X89960657Y-107675350D01*
X90220880Y-107576660D01*
X90467311Y-107447323D01*
X90696355Y-107289226D01*
X90904673Y-107104673D01*
X91041701Y-106950000D01*
X115244195Y-106950000D01*
X115265280Y-107083124D01*
X115326472Y-107203221D01*
X115421778Y-107298527D01*
X115421780Y-107298528D01*
X115541874Y-107359719D01*
X115675000Y-107380804D01*
X115808126Y-107359719D01*
X115928220Y-107298528D01*
X116023528Y-107203220D01*
X116076121Y-107100000D01*
X117494195Y-107100000D01*
X117515280Y-107233124D01*
X117576472Y-107353221D01*
X117671778Y-107448527D01*
X117671780Y-107448528D01*
X117791874Y-107509719D01*
X117925000Y-107530804D01*
X118058126Y-107509719D01*
X118178220Y-107448528D01*
X118273528Y-107353220D01*
X118334719Y-107233126D01*
X118355804Y-107100000D01*
X118334719Y-106966874D01*
X118273528Y-106846780D01*
X118273527Y-106846778D01*
X118178221Y-106751472D01*
X118058124Y-106690280D01*
X117925000Y-106669195D01*
X117791875Y-106690280D01*
X117671778Y-106751472D01*
X117576472Y-106846778D01*
X117515280Y-106966875D01*
X117494195Y-107100000D01*
X116076121Y-107100000D01*
X116084719Y-107083126D01*
X116105804Y-106950000D01*
X116084719Y-106816874D01*
X116023528Y-106696780D01*
X116023527Y-106696778D01*
X115928221Y-106601472D01*
X115837014Y-106555000D01*
X122974195Y-106555000D01*
X122995280Y-106688124D01*
X123056472Y-106808221D01*
X123151778Y-106903527D01*
X123151780Y-106903528D01*
X123271874Y-106964719D01*
X123405000Y-106985804D01*
X123538126Y-106964719D01*
X123658220Y-106903528D01*
X123753528Y-106808220D01*
X123814719Y-106688126D01*
X123835804Y-106555000D01*
X123814719Y-106421874D01*
X123753528Y-106301780D01*
X123753527Y-106301778D01*
X123744430Y-106292681D01*
X123710945Y-106231358D01*
X123715929Y-106161666D01*
X123744430Y-106117319D01*
X123753527Y-106108221D01*
X123753528Y-106108220D01*
X123814719Y-105988126D01*
X123815214Y-105985000D01*
X130174195Y-105985000D01*
X130195280Y-106118124D01*
X130256472Y-106238221D01*
X130351778Y-106333527D01*
X130351780Y-106333528D01*
X130471874Y-106394719D01*
X130605000Y-106415804D01*
X130738126Y-106394719D01*
X130858220Y-106333528D01*
X130953528Y-106238220D01*
X131014719Y-106118126D01*
X131033428Y-106000000D01*
X137244195Y-106000000D01*
X137265280Y-106133124D01*
X137326472Y-106253221D01*
X137421778Y-106348527D01*
X137421780Y-106348528D01*
X137541874Y-106409719D01*
X137675000Y-106430804D01*
X137808126Y-106409719D01*
X137928220Y-106348528D01*
X138023528Y-106253220D01*
X138084719Y-106133126D01*
X138101845Y-106024999D01*
X149519195Y-106024999D01*
X149540280Y-106158124D01*
X149601472Y-106278221D01*
X149696778Y-106373527D01*
X149696780Y-106373528D01*
X149816874Y-106434719D01*
X149950000Y-106455804D01*
X150083126Y-106434719D01*
X150203220Y-106373528D01*
X150298528Y-106278220D01*
X150359719Y-106158126D01*
X150380804Y-106025000D01*
X150359719Y-105891874D01*
X150298528Y-105771780D01*
X150298527Y-105771778D01*
X150203221Y-105676472D01*
X150083124Y-105615280D01*
X149950000Y-105594195D01*
X149816875Y-105615280D01*
X149696778Y-105676472D01*
X149601472Y-105771778D01*
X149540280Y-105891875D01*
X149519195Y-106024999D01*
X138101845Y-106024999D01*
X138105804Y-106000000D01*
X138084719Y-105866874D01*
X138023528Y-105746780D01*
X138023527Y-105746778D01*
X137928221Y-105651472D01*
X137808124Y-105590280D01*
X137675000Y-105569195D01*
X137541875Y-105590280D01*
X137421778Y-105651472D01*
X137326472Y-105746778D01*
X137265280Y-105866875D01*
X137244195Y-106000000D01*
X131033428Y-106000000D01*
X131035804Y-105985000D01*
X131014719Y-105851874D01*
X130953528Y-105731780D01*
X130953527Y-105731778D01*
X130858221Y-105636472D01*
X130738124Y-105575280D01*
X130605000Y-105554195D01*
X130471875Y-105575280D01*
X130351778Y-105636472D01*
X130256472Y-105731778D01*
X130195280Y-105851875D01*
X130174195Y-105985000D01*
X123815214Y-105985000D01*
X123835804Y-105855000D01*
X123814719Y-105721874D01*
X123753528Y-105601780D01*
X123753527Y-105601778D01*
X123658221Y-105506472D01*
X123639811Y-105497092D01*
X123589015Y-105449118D01*
X123572220Y-105381297D01*
X123594757Y-105315162D01*
X123639812Y-105276122D01*
X123733220Y-105228528D01*
X123828527Y-105133221D01*
X123831075Y-105128221D01*
X123889719Y-105013126D01*
X123910804Y-104880000D01*
X123906081Y-104850185D01*
X123915036Y-104780891D01*
X123960032Y-104727439D01*
X124009158Y-104708313D01*
X124024999Y-104705803D01*
X124025000Y-104705804D01*
X124158126Y-104684719D01*
X124177201Y-104675000D01*
X143719195Y-104675000D01*
X143740280Y-104808124D01*
X143801472Y-104928221D01*
X143896778Y-105023527D01*
X143896780Y-105023528D01*
X144016874Y-105084719D01*
X144150000Y-105105804D01*
X144283126Y-105084719D01*
X144403220Y-105023528D01*
X144498528Y-104928220D01*
X144559719Y-104808126D01*
X144580804Y-104675000D01*
X144563184Y-104563750D01*
X144857945Y-104563750D01*
X144879030Y-104696874D01*
X144940222Y-104816971D01*
X145035528Y-104912277D01*
X145035530Y-104912278D01*
X145155624Y-104973469D01*
X145288750Y-104994554D01*
X145421876Y-104973469D01*
X145541970Y-104912278D01*
X145579248Y-104875000D01*
X147144195Y-104875000D01*
X147165280Y-105008124D01*
X147226472Y-105128221D01*
X147321778Y-105223527D01*
X147321780Y-105223528D01*
X147441874Y-105284719D01*
X147473443Y-105289719D01*
X147574999Y-105305804D01*
X147574999Y-105305803D01*
X147575000Y-105305804D01*
X147708126Y-105284719D01*
X147828220Y-105223528D01*
X147923528Y-105128220D01*
X147984719Y-105008126D01*
X148005804Y-104875000D01*
X147984719Y-104741874D01*
X147923528Y-104621780D01*
X147923527Y-104621778D01*
X147828221Y-104526472D01*
X147708124Y-104465280D01*
X147574999Y-104444195D01*
X147441875Y-104465280D01*
X147321778Y-104526472D01*
X147226472Y-104621778D01*
X147165280Y-104741875D01*
X147144195Y-104875000D01*
X145579248Y-104875000D01*
X145637278Y-104816970D01*
X145698469Y-104696876D01*
X145719554Y-104563750D01*
X145698469Y-104430624D01*
X145637278Y-104310530D01*
X145637277Y-104310528D01*
X145541971Y-104215222D01*
X145421874Y-104154030D01*
X145288750Y-104132945D01*
X145155625Y-104154030D01*
X145035528Y-104215222D01*
X144940222Y-104310528D01*
X144879030Y-104430625D01*
X144857945Y-104563750D01*
X144563184Y-104563750D01*
X144559719Y-104541874D01*
X144498528Y-104421780D01*
X144498527Y-104421778D01*
X144403221Y-104326472D01*
X144283124Y-104265280D01*
X144150000Y-104244195D01*
X144016875Y-104265280D01*
X143896778Y-104326472D01*
X143801472Y-104421778D01*
X143740280Y-104541875D01*
X143719195Y-104675000D01*
X124177201Y-104675000D01*
X124278220Y-104623528D01*
X124373528Y-104528220D01*
X124434719Y-104408126D01*
X124455804Y-104275000D01*
X124434719Y-104141874D01*
X124375168Y-104024999D01*
X131904195Y-104024999D01*
X131925280Y-104158124D01*
X131986472Y-104278221D01*
X132081778Y-104373527D01*
X132081780Y-104373528D01*
X132201874Y-104434719D01*
X132335000Y-104455804D01*
X132468126Y-104434719D01*
X132588220Y-104373528D01*
X132683528Y-104278220D01*
X132744719Y-104158126D01*
X132765804Y-104025000D01*
X132757885Y-103974999D01*
X141494195Y-103974999D01*
X141515280Y-104108124D01*
X141576472Y-104228221D01*
X141671778Y-104323527D01*
X141671780Y-104323528D01*
X141791874Y-104384719D01*
X141925000Y-104405804D01*
X142058126Y-104384719D01*
X142178220Y-104323528D01*
X142273528Y-104228220D01*
X142334719Y-104108126D01*
X142355804Y-103975000D01*
X142334719Y-103841874D01*
X142273528Y-103721780D01*
X142273527Y-103721778D01*
X142178221Y-103626472D01*
X142058124Y-103565280D01*
X141925000Y-103544195D01*
X141791875Y-103565280D01*
X141671778Y-103626472D01*
X141576472Y-103721778D01*
X141515280Y-103841875D01*
X141494195Y-103974999D01*
X132757885Y-103974999D01*
X132744719Y-103891874D01*
X132683528Y-103771780D01*
X132683527Y-103771778D01*
X132588221Y-103676472D01*
X132468124Y-103615280D01*
X132334999Y-103594195D01*
X132201875Y-103615280D01*
X132081778Y-103676472D01*
X131986472Y-103771778D01*
X131925280Y-103891875D01*
X131904195Y-104024999D01*
X124375168Y-104024999D01*
X124373528Y-104021780D01*
X124373527Y-104021778D01*
X124278221Y-103926472D01*
X124158124Y-103865280D01*
X124024999Y-103844195D01*
X123891875Y-103865280D01*
X123771778Y-103926472D01*
X123676472Y-104021778D01*
X123615280Y-104141875D01*
X123594195Y-104274998D01*
X123598918Y-104304817D01*
X123589962Y-104374110D01*
X123544965Y-104427561D01*
X123495842Y-104446686D01*
X123346875Y-104470280D01*
X123226778Y-104531472D01*
X123131472Y-104626778D01*
X123070280Y-104746875D01*
X123049195Y-104880000D01*
X123070280Y-105013124D01*
X123131472Y-105133221D01*
X123226778Y-105228527D01*
X123245187Y-105237907D01*
X123295983Y-105285880D01*
X123312779Y-105353701D01*
X123290242Y-105419836D01*
X123245189Y-105458876D01*
X123151779Y-105506471D01*
X123056472Y-105601778D01*
X122995280Y-105721875D01*
X122974195Y-105854999D01*
X122995280Y-105988124D01*
X123056472Y-106108221D01*
X123065570Y-106117319D01*
X123099055Y-106178642D01*
X123094071Y-106248334D01*
X123065570Y-106292681D01*
X123056472Y-106301778D01*
X122995280Y-106421875D01*
X122974195Y-106555000D01*
X115837014Y-106555000D01*
X115808124Y-106540280D01*
X115675000Y-106519195D01*
X115541875Y-106540280D01*
X115421778Y-106601472D01*
X115326472Y-106696778D01*
X115265280Y-106816875D01*
X115244195Y-106950000D01*
X91041701Y-106950000D01*
X91089226Y-106896355D01*
X91247323Y-106667311D01*
X91376660Y-106420880D01*
X91475350Y-106160657D01*
X91541954Y-105890435D01*
X91575500Y-105614155D01*
X91575500Y-105475000D01*
X91575500Y-105427405D01*
X91575500Y-105427404D01*
X91575500Y-103875000D01*
X114269195Y-103875000D01*
X114290280Y-104008124D01*
X114351472Y-104128221D01*
X114446778Y-104223527D01*
X114446780Y-104223528D01*
X114566874Y-104284719D01*
X114633437Y-104295261D01*
X114699999Y-104305804D01*
X114699999Y-104305803D01*
X114700000Y-104305804D01*
X114833126Y-104284719D01*
X114953220Y-104223528D01*
X115048528Y-104128220D01*
X115109719Y-104008126D01*
X115130804Y-103875000D01*
X115109719Y-103741874D01*
X115050168Y-103624999D01*
X116944195Y-103624999D01*
X116965280Y-103758124D01*
X117026472Y-103878221D01*
X117121778Y-103973527D01*
X117121780Y-103973528D01*
X117241874Y-104034719D01*
X117375000Y-104055804D01*
X117382185Y-104056942D01*
X117445320Y-104086871D01*
X117482252Y-104146182D01*
X117485261Y-104160016D01*
X117502780Y-104270624D01*
X117563972Y-104390721D01*
X117659278Y-104486027D01*
X117659280Y-104486028D01*
X117779374Y-104547219D01*
X117912500Y-104568304D01*
X118045626Y-104547219D01*
X118165720Y-104486028D01*
X118261028Y-104390720D01*
X118322219Y-104270626D01*
X118343304Y-104137500D01*
X118322219Y-104004374D01*
X118261028Y-103884280D01*
X118261027Y-103884278D01*
X118165721Y-103788972D01*
X118045624Y-103727780D01*
X117905313Y-103705557D01*
X117842178Y-103675628D01*
X117816881Y-103635000D01*
X122534195Y-103635000D01*
X122555280Y-103768124D01*
X122616472Y-103888221D01*
X122711778Y-103983527D01*
X122711780Y-103983528D01*
X122831874Y-104044719D01*
X122965000Y-104065804D01*
X123098126Y-104044719D01*
X123218220Y-103983528D01*
X123313528Y-103888220D01*
X123374719Y-103768126D01*
X123395804Y-103635000D01*
X123374719Y-103501874D01*
X123313528Y-103381780D01*
X123313527Y-103381778D01*
X123218221Y-103286472D01*
X123098124Y-103225280D01*
X122964999Y-103204195D01*
X122831875Y-103225280D01*
X122711778Y-103286472D01*
X122616472Y-103381778D01*
X122555280Y-103501875D01*
X122534195Y-103635000D01*
X117816881Y-103635000D01*
X117805247Y-103616316D01*
X117802238Y-103602482D01*
X117784719Y-103491875D01*
X117784719Y-103491874D01*
X117723528Y-103371780D01*
X117723527Y-103371778D01*
X117628221Y-103276472D01*
X117508124Y-103215280D01*
X117374999Y-103194195D01*
X117241875Y-103215280D01*
X117121778Y-103276472D01*
X117026472Y-103371778D01*
X116965280Y-103491875D01*
X116944195Y-103624999D01*
X115050168Y-103624999D01*
X115048528Y-103621780D01*
X115048527Y-103621778D01*
X114953221Y-103526472D01*
X114833124Y-103465280D01*
X114699999Y-103444195D01*
X114566875Y-103465280D01*
X114446778Y-103526472D01*
X114351472Y-103621778D01*
X114290280Y-103741875D01*
X114269195Y-103875000D01*
X91575500Y-103875000D01*
X91575500Y-102749999D01*
X108669195Y-102749999D01*
X108690280Y-102883124D01*
X108751472Y-103003221D01*
X108846778Y-103098527D01*
X108846780Y-103098528D01*
X108966874Y-103159719D01*
X109033437Y-103170261D01*
X109099999Y-103180804D01*
X109099999Y-103180803D01*
X109100000Y-103180804D01*
X109233126Y-103159719D01*
X109353220Y-103098528D01*
X109448528Y-103003220D01*
X109509719Y-102883126D01*
X109530804Y-102750000D01*
X109530804Y-102749999D01*
X116194195Y-102749999D01*
X116215280Y-102883124D01*
X116276472Y-103003221D01*
X116371778Y-103098527D01*
X116371780Y-103098528D01*
X116491874Y-103159719D01*
X116625000Y-103180804D01*
X116758126Y-103159719D01*
X116878220Y-103098528D01*
X116973528Y-103003220D01*
X117000645Y-102950000D01*
X118044195Y-102950000D01*
X118065280Y-103083124D01*
X118126472Y-103203221D01*
X118221778Y-103298527D01*
X118221780Y-103298528D01*
X118341874Y-103359719D01*
X118475000Y-103380804D01*
X118608126Y-103359719D01*
X118728220Y-103298528D01*
X118823528Y-103203220D01*
X118837907Y-103174999D01*
X123894195Y-103174999D01*
X123915280Y-103308124D01*
X123976472Y-103428221D01*
X124071778Y-103523527D01*
X124071780Y-103523528D01*
X124191874Y-103584719D01*
X124325000Y-103605804D01*
X124458126Y-103584719D01*
X124578220Y-103523528D01*
X124631748Y-103470000D01*
X138324195Y-103470000D01*
X138345280Y-103603124D01*
X138406472Y-103723221D01*
X138501778Y-103818527D01*
X138501780Y-103818528D01*
X138621874Y-103879719D01*
X138755000Y-103900804D01*
X138888126Y-103879719D01*
X139008220Y-103818528D01*
X139103528Y-103723220D01*
X139164719Y-103603126D01*
X139185804Y-103470000D01*
X139164719Y-103336874D01*
X139103528Y-103216780D01*
X139103527Y-103216778D01*
X139008221Y-103121472D01*
X138888124Y-103060280D01*
X138755000Y-103039195D01*
X138621875Y-103060280D01*
X138501778Y-103121472D01*
X138406472Y-103216778D01*
X138345280Y-103336875D01*
X138324195Y-103470000D01*
X124631748Y-103470000D01*
X124673528Y-103428220D01*
X124734719Y-103308126D01*
X124755804Y-103175000D01*
X124734719Y-103041874D01*
X124673528Y-102921780D01*
X124673527Y-102921778D01*
X124578221Y-102826472D01*
X124458124Y-102765280D01*
X124325000Y-102744195D01*
X124191875Y-102765280D01*
X124071778Y-102826472D01*
X123976472Y-102921778D01*
X123915280Y-103041875D01*
X123894195Y-103174999D01*
X118837907Y-103174999D01*
X118884719Y-103083126D01*
X118905804Y-102950000D01*
X118884719Y-102816874D01*
X118835994Y-102721247D01*
X118823099Y-102652580D01*
X118849375Y-102587839D01*
X118906481Y-102547582D01*
X118965878Y-102542481D01*
X119049999Y-102555804D01*
X119049999Y-102555803D01*
X119050000Y-102555804D01*
X119183126Y-102534719D01*
X119303220Y-102473528D01*
X119398528Y-102378220D01*
X119459719Y-102258126D01*
X119480804Y-102125000D01*
X119459719Y-101991874D01*
X119430740Y-101934999D01*
X131624592Y-101934999D01*
X131644158Y-102108657D01*
X131701877Y-102273606D01*
X131794852Y-102421576D01*
X131918423Y-102545147D01*
X132066393Y-102638122D01*
X132231342Y-102695841D01*
X132404999Y-102715407D01*
X132404999Y-102715406D01*
X132405000Y-102715407D01*
X132578657Y-102695841D01*
X132743606Y-102638122D01*
X132891576Y-102545147D01*
X132917528Y-102519195D01*
X132952319Y-102484405D01*
X133013642Y-102450920D01*
X133083334Y-102455904D01*
X133127681Y-102484405D01*
X133188423Y-102545147D01*
X133336393Y-102638122D01*
X133501342Y-102695841D01*
X133674999Y-102715407D01*
X133674999Y-102715406D01*
X133675000Y-102715407D01*
X133848657Y-102695841D01*
X134013606Y-102638122D01*
X134161576Y-102545147D01*
X134187528Y-102519195D01*
X134222319Y-102484405D01*
X134283642Y-102450920D01*
X134353334Y-102455904D01*
X134397681Y-102484405D01*
X134458423Y-102545147D01*
X134606393Y-102638122D01*
X134771342Y-102695841D01*
X134945000Y-102715407D01*
X135118657Y-102695841D01*
X135283606Y-102638122D01*
X135431576Y-102545147D01*
X135457528Y-102519195D01*
X135492319Y-102484405D01*
X135553642Y-102450920D01*
X135623334Y-102455904D01*
X135667681Y-102484405D01*
X135728423Y-102545147D01*
X135876393Y-102638122D01*
X136041342Y-102695841D01*
X136215000Y-102715407D01*
X136388657Y-102695841D01*
X136553606Y-102638122D01*
X136701576Y-102545147D01*
X136727528Y-102519195D01*
X136762319Y-102484405D01*
X136823642Y-102450920D01*
X136893334Y-102455904D01*
X136937681Y-102484405D01*
X136998423Y-102545147D01*
X137146393Y-102638122D01*
X137311342Y-102695841D01*
X137484999Y-102715407D01*
X137484999Y-102715406D01*
X137485000Y-102715407D01*
X137658657Y-102695841D01*
X137823606Y-102638122D01*
X137971576Y-102545147D01*
X137997528Y-102519195D01*
X138032319Y-102484405D01*
X138093642Y-102450920D01*
X138163334Y-102455904D01*
X138207681Y-102484405D01*
X138268423Y-102545147D01*
X138416393Y-102638122D01*
X138581342Y-102695841D01*
X138754999Y-102715407D01*
X138754999Y-102715406D01*
X138755000Y-102715407D01*
X138928657Y-102695841D01*
X139093606Y-102638122D01*
X139241576Y-102545147D01*
X139267528Y-102519195D01*
X139302319Y-102484405D01*
X139363642Y-102450920D01*
X139433334Y-102455904D01*
X139477681Y-102484405D01*
X139538423Y-102545147D01*
X139686393Y-102638122D01*
X139851342Y-102695841D01*
X140025000Y-102715407D01*
X140198657Y-102695841D01*
X140363606Y-102638122D01*
X140511576Y-102545147D01*
X140635147Y-102421576D01*
X140728122Y-102273606D01*
X140785841Y-102108657D01*
X140805407Y-101935000D01*
X140804115Y-101923528D01*
X140785841Y-101761342D01*
X140728123Y-101596396D01*
X140631240Y-101442206D01*
X140612240Y-101374969D01*
X140632608Y-101308134D01*
X140685876Y-101262920D01*
X140755133Y-101253683D01*
X140802206Y-101271240D01*
X140808423Y-101275146D01*
X140808424Y-101275147D01*
X140889159Y-101325876D01*
X140956396Y-101368123D01*
X141121342Y-101425841D01*
X141295000Y-101445407D01*
X141468657Y-101425841D01*
X141633606Y-101368122D01*
X141781576Y-101275147D01*
X141905147Y-101151576D01*
X141998122Y-101003606D01*
X142055841Y-100838657D01*
X142075407Y-100665000D01*
X142055841Y-100491343D01*
X142043406Y-100455804D01*
X141998122Y-100326393D01*
X141905147Y-100178423D01*
X141781576Y-100054852D01*
X141633606Y-99961877D01*
X141468657Y-99904158D01*
X141294999Y-99884592D01*
X141121342Y-99904158D01*
X140956393Y-99961877D01*
X140808423Y-100054852D01*
X140747681Y-100115595D01*
X140686358Y-100149080D01*
X140616666Y-100144096D01*
X140572319Y-100115595D01*
X140511576Y-100054852D01*
X140363606Y-99961877D01*
X140198657Y-99904158D01*
X140024999Y-99884592D01*
X139851342Y-99904158D01*
X139686393Y-99961877D01*
X139538423Y-100054852D01*
X139477681Y-100115595D01*
X139416358Y-100149080D01*
X139346666Y-100144096D01*
X139302319Y-100115595D01*
X139241576Y-100054852D01*
X139093606Y-99961877D01*
X138928657Y-99904158D01*
X138755000Y-99884592D01*
X138581342Y-99904158D01*
X138416393Y-99961877D01*
X138268423Y-100054852D01*
X138207681Y-100115595D01*
X138146358Y-100149080D01*
X138076666Y-100144096D01*
X138032319Y-100115595D01*
X137971576Y-100054852D01*
X137823606Y-99961877D01*
X137658657Y-99904158D01*
X137485000Y-99884592D01*
X137311342Y-99904158D01*
X137146393Y-99961877D01*
X136998423Y-100054852D01*
X136937681Y-100115595D01*
X136876358Y-100149080D01*
X136806666Y-100144096D01*
X136762319Y-100115595D01*
X136701576Y-100054852D01*
X136553606Y-99961877D01*
X136388657Y-99904158D01*
X136214999Y-99884592D01*
X136041342Y-99904158D01*
X135876393Y-99961877D01*
X135728423Y-100054852D01*
X135667681Y-100115595D01*
X135606358Y-100149080D01*
X135536666Y-100144096D01*
X135492319Y-100115595D01*
X135431576Y-100054852D01*
X135283606Y-99961877D01*
X135118657Y-99904158D01*
X134944999Y-99884592D01*
X134771342Y-99904158D01*
X134606393Y-99961877D01*
X134458423Y-100054852D01*
X134397681Y-100115595D01*
X134336358Y-100149080D01*
X134266666Y-100144096D01*
X134222319Y-100115595D01*
X134161576Y-100054852D01*
X134013606Y-99961877D01*
X133848657Y-99904158D01*
X133675000Y-99884592D01*
X133501342Y-99904158D01*
X133336393Y-99961877D01*
X133188423Y-100054852D01*
X133127681Y-100115595D01*
X133066358Y-100149080D01*
X132996666Y-100144096D01*
X132952319Y-100115595D01*
X132891576Y-100054852D01*
X132743606Y-99961877D01*
X132578657Y-99904158D01*
X132405000Y-99884592D01*
X132231342Y-99904158D01*
X132066393Y-99961877D01*
X131918423Y-100054852D01*
X131794852Y-100178423D01*
X131701877Y-100326393D01*
X131644158Y-100491342D01*
X131624592Y-100665000D01*
X131644158Y-100838657D01*
X131701877Y-101003606D01*
X131794850Y-101151573D01*
X131794852Y-101151575D01*
X131794853Y-101151576D01*
X131855596Y-101212319D01*
X131889080Y-101273640D01*
X131884096Y-101343332D01*
X131855596Y-101387680D01*
X131794851Y-101448425D01*
X131701877Y-101596393D01*
X131644158Y-101761342D01*
X131624592Y-101934999D01*
X119430740Y-101934999D01*
X119398528Y-101871780D01*
X119398527Y-101871778D01*
X119303221Y-101776472D01*
X119183124Y-101715280D01*
X119061726Y-101696052D01*
X118998592Y-101666122D01*
X118961661Y-101606811D01*
X118958652Y-101592977D01*
X118938963Y-101468673D01*
X118934719Y-101441874D01*
X118873528Y-101321780D01*
X118873527Y-101321778D01*
X118778221Y-101226472D01*
X118658124Y-101165280D01*
X118525000Y-101144195D01*
X118391875Y-101165280D01*
X118271778Y-101226472D01*
X118176472Y-101321778D01*
X118115280Y-101441875D01*
X118094195Y-101575000D01*
X118115280Y-101708124D01*
X118176472Y-101828221D01*
X118271778Y-101923527D01*
X118271780Y-101923528D01*
X118391874Y-101984719D01*
X118420008Y-101989175D01*
X118513272Y-102003947D01*
X118576407Y-102033876D01*
X118613338Y-102093188D01*
X118616347Y-102107021D01*
X118640280Y-102258124D01*
X118689004Y-102353750D01*
X118701900Y-102422419D01*
X118675624Y-102487160D01*
X118618517Y-102527417D01*
X118559122Y-102532519D01*
X118474997Y-102519195D01*
X118341875Y-102540280D01*
X118221778Y-102601472D01*
X118126472Y-102696778D01*
X118065280Y-102816875D01*
X118044195Y-102950000D01*
X117000645Y-102950000D01*
X117034719Y-102883126D01*
X117055804Y-102750000D01*
X117047374Y-102696778D01*
X117034719Y-102616875D01*
X117034719Y-102616874D01*
X116973528Y-102496780D01*
X116973527Y-102496778D01*
X116878221Y-102401472D01*
X116758124Y-102340280D01*
X116625000Y-102319195D01*
X116491875Y-102340280D01*
X116371778Y-102401472D01*
X116276472Y-102496778D01*
X116215280Y-102616875D01*
X116194195Y-102749999D01*
X109530804Y-102749999D01*
X109522374Y-102696778D01*
X109509719Y-102616875D01*
X109509719Y-102616874D01*
X109448528Y-102496780D01*
X109448527Y-102496778D01*
X109353221Y-102401472D01*
X109233124Y-102340280D01*
X109099999Y-102319195D01*
X108966875Y-102340280D01*
X108846778Y-102401472D01*
X108751472Y-102496778D01*
X108690280Y-102616875D01*
X108669195Y-102749999D01*
X91575500Y-102749999D01*
X91575500Y-99624999D01*
X113044195Y-99624999D01*
X113065280Y-99758124D01*
X113126472Y-99878221D01*
X113221778Y-99973527D01*
X113221780Y-99973528D01*
X113341874Y-100034719D01*
X113475000Y-100055804D01*
X113608126Y-100034719D01*
X113627201Y-100025000D01*
X119763611Y-100025000D01*
X119784696Y-100158124D01*
X119845888Y-100278221D01*
X119941194Y-100373527D01*
X119941196Y-100373528D01*
X120061290Y-100434719D01*
X120127852Y-100445261D01*
X120194415Y-100455804D01*
X120194415Y-100455803D01*
X120194416Y-100455804D01*
X120327542Y-100434719D01*
X120447636Y-100373528D01*
X120542944Y-100278220D01*
X120604135Y-100158126D01*
X120625220Y-100025000D01*
X120604135Y-99891874D01*
X120542944Y-99771780D01*
X120542943Y-99771778D01*
X120447637Y-99676472D01*
X120327540Y-99615280D01*
X120194415Y-99594195D01*
X120061291Y-99615280D01*
X119941194Y-99676472D01*
X119845888Y-99771778D01*
X119784696Y-99891875D01*
X119763611Y-100025000D01*
X113627201Y-100025000D01*
X113728220Y-99973528D01*
X113823528Y-99878220D01*
X113884719Y-99758126D01*
X113905804Y-99625000D01*
X113905041Y-99620185D01*
X113890923Y-99531047D01*
X113884719Y-99491874D01*
X113823528Y-99371780D01*
X113823527Y-99371778D01*
X113801749Y-99350000D01*
X116844195Y-99350000D01*
X116865280Y-99483124D01*
X116926472Y-99603221D01*
X117021778Y-99698527D01*
X117021780Y-99698528D01*
X117141874Y-99759719D01*
X117275000Y-99780804D01*
X117408126Y-99759719D01*
X117528220Y-99698528D01*
X117623528Y-99603220D01*
X117684719Y-99483126D01*
X117705804Y-99350000D01*
X117705804Y-99349999D01*
X123919195Y-99349999D01*
X123940280Y-99483124D01*
X124001472Y-99603221D01*
X124096778Y-99698527D01*
X124096780Y-99698528D01*
X124216874Y-99759719D01*
X124283437Y-99770261D01*
X124349999Y-99780804D01*
X124349999Y-99780803D01*
X124350000Y-99780804D01*
X124483126Y-99759719D01*
X124603220Y-99698528D01*
X124698528Y-99603220D01*
X124759719Y-99483126D01*
X124780804Y-99350000D01*
X124776671Y-99323908D01*
X124759744Y-99217030D01*
X124759719Y-99216874D01*
X124698528Y-99096780D01*
X124698527Y-99096778D01*
X124603221Y-99001472D01*
X124483124Y-98940280D01*
X124349999Y-98919195D01*
X124216875Y-98940280D01*
X124096778Y-99001472D01*
X124001472Y-99096778D01*
X123940280Y-99216875D01*
X123919195Y-99349999D01*
X117705804Y-99349999D01*
X117684719Y-99216874D01*
X117623528Y-99096780D01*
X117623527Y-99096778D01*
X117528221Y-99001472D01*
X117408124Y-98940280D01*
X117275000Y-98919195D01*
X117141875Y-98940280D01*
X117021778Y-99001472D01*
X116926472Y-99096778D01*
X116865280Y-99216875D01*
X116844195Y-99350000D01*
X113801749Y-99350000D01*
X113728221Y-99276472D01*
X113608124Y-99215280D01*
X113475000Y-99194195D01*
X113341875Y-99215280D01*
X113221778Y-99276472D01*
X113126472Y-99371778D01*
X113065280Y-99491875D01*
X113044195Y-99624999D01*
X91575500Y-99624999D01*
X91575500Y-98450000D01*
X121269195Y-98450000D01*
X121290280Y-98583124D01*
X121351472Y-98703221D01*
X121446778Y-98798527D01*
X121446780Y-98798528D01*
X121566874Y-98859719D01*
X121700000Y-98880804D01*
X121833126Y-98859719D01*
X121953220Y-98798528D01*
X122048528Y-98703220D01*
X122109719Y-98583126D01*
X122130804Y-98450000D01*
X122131936Y-98442853D01*
X122161865Y-98379718D01*
X122221176Y-98342786D01*
X122273807Y-98339777D01*
X122375000Y-98355804D01*
X122508126Y-98334719D01*
X122628220Y-98273528D01*
X122723528Y-98178220D01*
X122784719Y-98058126D01*
X122805804Y-97925000D01*
X122784719Y-97791874D01*
X122723528Y-97671780D01*
X122723527Y-97671778D01*
X122628221Y-97576472D01*
X122508124Y-97515280D01*
X122374999Y-97494195D01*
X122241875Y-97515280D01*
X122121778Y-97576472D01*
X122026472Y-97671778D01*
X121965280Y-97791875D01*
X121943063Y-97932147D01*
X121913134Y-97995282D01*
X121853822Y-98032213D01*
X121801193Y-98035222D01*
X121700000Y-98019195D01*
X121566875Y-98040280D01*
X121446778Y-98101472D01*
X121351472Y-98196778D01*
X121290280Y-98316875D01*
X121269195Y-98450000D01*
X91575500Y-98450000D01*
X91575500Y-96447156D01*
X91575500Y-96335845D01*
X91541954Y-96059565D01*
X91521111Y-95975000D01*
X109144195Y-95975000D01*
X109165280Y-96108124D01*
X109226472Y-96228221D01*
X109321778Y-96323527D01*
X109321780Y-96323528D01*
X109441874Y-96384719D01*
X109575000Y-96405804D01*
X109708126Y-96384719D01*
X109727201Y-96375000D01*
X130944195Y-96375000D01*
X130965280Y-96508124D01*
X131026472Y-96628221D01*
X131121778Y-96723527D01*
X131121780Y-96723528D01*
X131241874Y-96784719D01*
X131292182Y-96792687D01*
X131374999Y-96805804D01*
X131374999Y-96805803D01*
X131375000Y-96805804D01*
X131508126Y-96784719D01*
X131628220Y-96723528D01*
X131723528Y-96628220D01*
X131784719Y-96508126D01*
X131805804Y-96375000D01*
X131804862Y-96369055D01*
X131785087Y-96244196D01*
X131784719Y-96241874D01*
X131725732Y-96126106D01*
X131723527Y-96121778D01*
X131628221Y-96026472D01*
X131508124Y-95965280D01*
X131375000Y-95944195D01*
X131241875Y-95965280D01*
X131121778Y-96026472D01*
X131026472Y-96121778D01*
X130965280Y-96241875D01*
X130944195Y-96375000D01*
X109727201Y-96375000D01*
X109828220Y-96323528D01*
X109923528Y-96228220D01*
X109984719Y-96108126D01*
X110005804Y-95975000D01*
X109984719Y-95841874D01*
X109923528Y-95721780D01*
X109923527Y-95721778D01*
X109826930Y-95625181D01*
X109793445Y-95563858D01*
X109798429Y-95494166D01*
X109826930Y-95449819D01*
X109923527Y-95353221D01*
X109923528Y-95353220D01*
X109941813Y-95317333D01*
X114829195Y-95317333D01*
X114850280Y-95450457D01*
X114911472Y-95570554D01*
X115006778Y-95665860D01*
X115006780Y-95665861D01*
X115126874Y-95727052D01*
X115193436Y-95737594D01*
X115259999Y-95748137D01*
X115259999Y-95748136D01*
X115260000Y-95748137D01*
X115393126Y-95727052D01*
X115416779Y-95715000D01*
X122594195Y-95715000D01*
X122615280Y-95848124D01*
X122676472Y-95968221D01*
X122771778Y-96063527D01*
X122771780Y-96063528D01*
X122891874Y-96124719D01*
X123025000Y-96145804D01*
X123158126Y-96124719D01*
X123278220Y-96063528D01*
X123373528Y-95968220D01*
X123433764Y-95850000D01*
X132569195Y-95850000D01*
X132590280Y-95983124D01*
X132651472Y-96103221D01*
X132746778Y-96198527D01*
X132746780Y-96198528D01*
X132858767Y-96255588D01*
X132909563Y-96303562D01*
X132926358Y-96371383D01*
X132912958Y-96422366D01*
X132890280Y-96466874D01*
X132869195Y-96600000D01*
X132890280Y-96733124D01*
X132951472Y-96853221D01*
X133046778Y-96948527D01*
X133046780Y-96948528D01*
X133166874Y-97009719D01*
X133300000Y-97030804D01*
X133433126Y-97009719D01*
X133553220Y-96948528D01*
X133562316Y-96939430D01*
X133623639Y-96905944D01*
X133693331Y-96910927D01*
X133737679Y-96939427D01*
X133821780Y-97023528D01*
X133941874Y-97084719D01*
X133980641Y-97090859D01*
X134074999Y-97105804D01*
X134074999Y-97105803D01*
X134075000Y-97105804D01*
X134208126Y-97084719D01*
X134328220Y-97023528D01*
X134328219Y-97023528D01*
X134345719Y-97014612D01*
X134346079Y-97015320D01*
X134386136Y-96993445D01*
X134455828Y-96998426D01*
X134500179Y-97026927D01*
X134546780Y-97073528D01*
X134666874Y-97134719D01*
X134800000Y-97155804D01*
X134933126Y-97134719D01*
X135019206Y-97090858D01*
X135087874Y-97077963D01*
X135152615Y-97104239D01*
X135192872Y-97161345D01*
X135199500Y-97201344D01*
X135199500Y-97975788D01*
X135196861Y-98001234D01*
X135194957Y-98010313D01*
X135198548Y-98039121D01*
X135199458Y-98053795D01*
X135202665Y-98073013D01*
X135203403Y-98078078D01*
X135210351Y-98133809D01*
X135237081Y-98183202D01*
X135239421Y-98187747D01*
X135260802Y-98231484D01*
X135260803Y-98231485D01*
X135264084Y-98238196D01*
X135269581Y-98243256D01*
X135269582Y-98243258D01*
X135302463Y-98273527D01*
X135305399Y-98276230D01*
X135309097Y-98279779D01*
X136492361Y-99463043D01*
X136508489Y-99482903D01*
X136508633Y-99483124D01*
X136513563Y-99490669D01*
X136536473Y-99508500D01*
X136547496Y-99518235D01*
X136563355Y-99529558D01*
X136567464Y-99532622D01*
X136611771Y-99567107D01*
X136618932Y-99569239D01*
X136618934Y-99569240D01*
X136665614Y-99583137D01*
X136670455Y-99584688D01*
X136716512Y-99600500D01*
X136716514Y-99600500D01*
X136723578Y-99602925D01*
X136731044Y-99602616D01*
X136731047Y-99602617D01*
X136779678Y-99600606D01*
X136784802Y-99600500D01*
X146033456Y-99600500D01*
X146100495Y-99620185D01*
X146121137Y-99636819D01*
X146200425Y-99716107D01*
X146233910Y-99777430D01*
X146228926Y-99847122D01*
X146187054Y-99903055D01*
X146153700Y-99920829D01*
X146036393Y-99961878D01*
X145888425Y-100054851D01*
X145827680Y-100115596D01*
X145766356Y-100149080D01*
X145696665Y-100144095D01*
X145652319Y-100115596D01*
X145591576Y-100054853D01*
X145591575Y-100054852D01*
X145591573Y-100054850D01*
X145443606Y-99961877D01*
X145278657Y-99904158D01*
X145104999Y-99884592D01*
X144931342Y-99904158D01*
X144766393Y-99961877D01*
X144618425Y-100054851D01*
X144557680Y-100115596D01*
X144496356Y-100149080D01*
X144426665Y-100144095D01*
X144382319Y-100115596D01*
X144321576Y-100054853D01*
X144321575Y-100054852D01*
X144321573Y-100054850D01*
X144173606Y-99961877D01*
X144008657Y-99904158D01*
X143835000Y-99884592D01*
X143661342Y-99904158D01*
X143496393Y-99961877D01*
X143348423Y-100054852D01*
X143224852Y-100178423D01*
X143131877Y-100326393D01*
X143074158Y-100491342D01*
X143054592Y-100665000D01*
X143074158Y-100838657D01*
X143131877Y-101003606D01*
X143224852Y-101151576D01*
X143348423Y-101275147D01*
X143496393Y-101368122D01*
X143661342Y-101425841D01*
X143834999Y-101445407D01*
X143834999Y-101445406D01*
X143835000Y-101445407D01*
X144008657Y-101425841D01*
X144173606Y-101368122D01*
X144321576Y-101275147D01*
X144321577Y-101275145D01*
X144327793Y-101271240D01*
X144395030Y-101252240D01*
X144461865Y-101272608D01*
X144507079Y-101325876D01*
X144516316Y-101395132D01*
X144498759Y-101442205D01*
X144401877Y-101596393D01*
X144344158Y-101761342D01*
X144324592Y-101934999D01*
X144344158Y-102108657D01*
X144401877Y-102273606D01*
X144494852Y-102421576D01*
X144618423Y-102545147D01*
X144766393Y-102638122D01*
X144931342Y-102695841D01*
X145105000Y-102715407D01*
X145278657Y-102695841D01*
X145443606Y-102638122D01*
X145591576Y-102545147D01*
X145715147Y-102421576D01*
X145808122Y-102273606D01*
X145865841Y-102108657D01*
X145885407Y-101935000D01*
X145884115Y-101923528D01*
X145865841Y-101761342D01*
X145808123Y-101596396D01*
X145711240Y-101442206D01*
X145692240Y-101374969D01*
X145712608Y-101308134D01*
X145765876Y-101262920D01*
X145835133Y-101253683D01*
X145882206Y-101271240D01*
X145888423Y-101275146D01*
X145888424Y-101275147D01*
X145969159Y-101325876D01*
X146036396Y-101368123D01*
X146201342Y-101425841D01*
X146375000Y-101445407D01*
X146548657Y-101425841D01*
X146713606Y-101368122D01*
X146782469Y-101324853D01*
X146861573Y-101275149D01*
X146861573Y-101275148D01*
X146861576Y-101275147D01*
X146922319Y-101214403D01*
X146983640Y-101180920D01*
X147053332Y-101185904D01*
X147097680Y-101214404D01*
X147158425Y-101275148D01*
X147306393Y-101368122D01*
X147471342Y-101425841D01*
X147644999Y-101445407D01*
X147644999Y-101445406D01*
X147645000Y-101445407D01*
X147818657Y-101425841D01*
X147983606Y-101368122D01*
X148131576Y-101275147D01*
X148154483Y-101252240D01*
X148192319Y-101214405D01*
X148253642Y-101180920D01*
X148323334Y-101185904D01*
X148367681Y-101214405D01*
X148428423Y-101275147D01*
X148576393Y-101368122D01*
X148741342Y-101425841D01*
X148914999Y-101445407D01*
X148914999Y-101445406D01*
X148915000Y-101445407D01*
X149088657Y-101425841D01*
X149253606Y-101368122D01*
X149401576Y-101275147D01*
X149424483Y-101252240D01*
X149462319Y-101214405D01*
X149523642Y-101180920D01*
X149593334Y-101185904D01*
X149637681Y-101214405D01*
X149698423Y-101275147D01*
X149846393Y-101368122D01*
X150011342Y-101425841D01*
X150185000Y-101445407D01*
X150358657Y-101425841D01*
X150523606Y-101368122D01*
X150671576Y-101275147D01*
X150694483Y-101252240D01*
X150732319Y-101214405D01*
X150793642Y-101180920D01*
X150863334Y-101185904D01*
X150907681Y-101214405D01*
X150968423Y-101275147D01*
X151116393Y-101368122D01*
X151281342Y-101425841D01*
X151455000Y-101445407D01*
X151628657Y-101425841D01*
X151793606Y-101368122D01*
X151941576Y-101275147D01*
X151964483Y-101252240D01*
X152002319Y-101214405D01*
X152063642Y-101180920D01*
X152133334Y-101185904D01*
X152177681Y-101214405D01*
X152238423Y-101275147D01*
X152386393Y-101368122D01*
X152551342Y-101425841D01*
X152724999Y-101445407D01*
X152724999Y-101445406D01*
X152725000Y-101445407D01*
X152898657Y-101425841D01*
X153063606Y-101368122D01*
X153211576Y-101275147D01*
X153234483Y-101252240D01*
X153272319Y-101214405D01*
X153333642Y-101180920D01*
X153403334Y-101185904D01*
X153447681Y-101214405D01*
X153508423Y-101275147D01*
X153656393Y-101368122D01*
X153821342Y-101425841D01*
X153994999Y-101445407D01*
X153994999Y-101445406D01*
X153995000Y-101445407D01*
X154168657Y-101425841D01*
X154333606Y-101368122D01*
X154481576Y-101275147D01*
X154605147Y-101151576D01*
X154698122Y-101003606D01*
X154755841Y-100838657D01*
X154775407Y-100665000D01*
X154755841Y-100491343D01*
X154743406Y-100455804D01*
X154698122Y-100326393D01*
X154605147Y-100178423D01*
X154481576Y-100054852D01*
X154333606Y-99961877D01*
X154168657Y-99904158D01*
X153995000Y-99884592D01*
X153821342Y-99904158D01*
X153656393Y-99961877D01*
X153508423Y-100054852D01*
X153447681Y-100115595D01*
X153386358Y-100149080D01*
X153316666Y-100144096D01*
X153272319Y-100115595D01*
X153211576Y-100054852D01*
X153063606Y-99961877D01*
X152898657Y-99904158D01*
X152725000Y-99884592D01*
X152551342Y-99904158D01*
X152386393Y-99961877D01*
X152238423Y-100054852D01*
X152177681Y-100115595D01*
X152116358Y-100149080D01*
X152046666Y-100144096D01*
X152002319Y-100115595D01*
X151941576Y-100054852D01*
X151793606Y-99961877D01*
X151628657Y-99904158D01*
X151454999Y-99884592D01*
X151281342Y-99904158D01*
X151116393Y-99961877D01*
X150968425Y-100054851D01*
X150907680Y-100115596D01*
X150846356Y-100149080D01*
X150776665Y-100144095D01*
X150732319Y-100115596D01*
X150671576Y-100054853D01*
X150671575Y-100054852D01*
X150671573Y-100054850D01*
X150511777Y-99954445D01*
X150512551Y-99953211D01*
X150468834Y-99921851D01*
X150443092Y-99856896D01*
X150456554Y-99788336D01*
X150478887Y-99757860D01*
X150533528Y-99703220D01*
X150594719Y-99583126D01*
X150615804Y-99450000D01*
X150594719Y-99316874D01*
X150533528Y-99196780D01*
X150533527Y-99196778D01*
X150438221Y-99101472D01*
X150318124Y-99040280D01*
X150185000Y-99019195D01*
X150051875Y-99040280D01*
X149931778Y-99101472D01*
X149836472Y-99196778D01*
X149775280Y-99316875D01*
X149754195Y-99449999D01*
X149775280Y-99583124D01*
X149836472Y-99703221D01*
X149891109Y-99757858D01*
X149924594Y-99819181D01*
X149919610Y-99888873D01*
X149877738Y-99944806D01*
X149850240Y-99959460D01*
X149698425Y-100054851D01*
X149637680Y-100115596D01*
X149576356Y-100149080D01*
X149506665Y-100144095D01*
X149462319Y-100115596D01*
X149401576Y-100054853D01*
X149401575Y-100054852D01*
X149401573Y-100054850D01*
X149253606Y-99961877D01*
X149075469Y-99899544D01*
X149076693Y-99896044D01*
X149034271Y-99878208D01*
X148994728Y-99820605D01*
X148992604Y-99750767D01*
X149002103Y-99725775D01*
X149003276Y-99723471D01*
X149003278Y-99723470D01*
X149064469Y-99603376D01*
X149085554Y-99470250D01*
X149064469Y-99337124D01*
X149003278Y-99217030D01*
X149003277Y-99217028D01*
X148907971Y-99121722D01*
X148787874Y-99060530D01*
X148654749Y-99039445D01*
X148521625Y-99060530D01*
X148401528Y-99121722D01*
X148306221Y-99217029D01*
X148267755Y-99292523D01*
X148219781Y-99343318D01*
X148151960Y-99360113D01*
X148085825Y-99337575D01*
X148069590Y-99323908D01*
X147482638Y-98736956D01*
X147466509Y-98717094D01*
X147461437Y-98709330D01*
X147438533Y-98691504D01*
X147427508Y-98681768D01*
X147411653Y-98670448D01*
X147407544Y-98667384D01*
X147363229Y-98632892D01*
X147309409Y-98616869D01*
X147304531Y-98615306D01*
X147251421Y-98597074D01*
X147195332Y-98599394D01*
X147190208Y-98599500D01*
X137196544Y-98599500D01*
X137129505Y-98579815D01*
X137108863Y-98563181D01*
X136711819Y-98166137D01*
X136678334Y-98104814D01*
X136675500Y-98078456D01*
X136675500Y-97004119D01*
X136689015Y-96947824D01*
X136734719Y-96858126D01*
X136755804Y-96725000D01*
X136751844Y-96699999D01*
X139044195Y-96699999D01*
X139065280Y-96833124D01*
X139126472Y-96953221D01*
X139221778Y-97048527D01*
X139221780Y-97048528D01*
X139341874Y-97109719D01*
X139475000Y-97130804D01*
X139608126Y-97109719D01*
X139728220Y-97048528D01*
X139728221Y-97048527D01*
X139749819Y-97026930D01*
X139811142Y-96993445D01*
X139880834Y-96998429D01*
X139925181Y-97026930D01*
X139946778Y-97048527D01*
X139946780Y-97048528D01*
X140066874Y-97109719D01*
X140200000Y-97130804D01*
X140333126Y-97109719D01*
X140453220Y-97048528D01*
X140548528Y-96953220D01*
X140572616Y-96905944D01*
X140595884Y-96860279D01*
X140643858Y-96809482D01*
X140711679Y-96792687D01*
X140777814Y-96815224D01*
X140816854Y-96860279D01*
X140851471Y-96928220D01*
X140946778Y-97023527D01*
X140946780Y-97023528D01*
X141066874Y-97084719D01*
X141200000Y-97105804D01*
X141333126Y-97084719D01*
X141453220Y-97023528D01*
X141493624Y-96983124D01*
X141537319Y-96939430D01*
X141598642Y-96905945D01*
X141668334Y-96910929D01*
X141712681Y-96939430D01*
X141796778Y-97023527D01*
X141796780Y-97023528D01*
X141916874Y-97084719D01*
X142050000Y-97105804D01*
X142183126Y-97084719D01*
X142303220Y-97023528D01*
X142398528Y-96928220D01*
X142459719Y-96808126D01*
X142469717Y-96744999D01*
X144134195Y-96744999D01*
X144155280Y-96878124D01*
X144216472Y-96998221D01*
X144311778Y-97093527D01*
X144311780Y-97093528D01*
X144431874Y-97154719D01*
X144473709Y-97161345D01*
X144564999Y-97175804D01*
X144564999Y-97175803D01*
X144565000Y-97175804D01*
X144698126Y-97154719D01*
X144818220Y-97093528D01*
X144913528Y-96998220D01*
X144974719Y-96878126D01*
X144977501Y-96860559D01*
X145007429Y-96797427D01*
X145066740Y-96760495D01*
X145136603Y-96761491D01*
X145194836Y-96800100D01*
X145210459Y-96823663D01*
X145276472Y-96953221D01*
X145371778Y-97048527D01*
X145371780Y-97048528D01*
X145491874Y-97109719D01*
X145558437Y-97120261D01*
X145624999Y-97130804D01*
X145624999Y-97130803D01*
X145625000Y-97130804D01*
X145758126Y-97109719D01*
X145878220Y-97048528D01*
X145973528Y-96953220D01*
X146026121Y-96850000D01*
X155669195Y-96850000D01*
X155690280Y-96983124D01*
X155751472Y-97103221D01*
X155846778Y-97198527D01*
X155846780Y-97198528D01*
X155966874Y-97259719D01*
X156100000Y-97280804D01*
X156233126Y-97259719D01*
X156353220Y-97198528D01*
X156448528Y-97103220D01*
X156509719Y-96983126D01*
X156530804Y-96850000D01*
X156509719Y-96716874D01*
X156448528Y-96596780D01*
X156448527Y-96596778D01*
X156353221Y-96501472D01*
X156233124Y-96440280D01*
X156100000Y-96419195D01*
X155966875Y-96440280D01*
X155846778Y-96501472D01*
X155751472Y-96596778D01*
X155690280Y-96716875D01*
X155669195Y-96850000D01*
X146026121Y-96850000D01*
X146034719Y-96833126D01*
X146055804Y-96700000D01*
X146051844Y-96675000D01*
X146038679Y-96591875D01*
X146034719Y-96566874D01*
X145973528Y-96446780D01*
X145973527Y-96446778D01*
X145878221Y-96351472D01*
X145758124Y-96290280D01*
X145624999Y-96269195D01*
X145491875Y-96290280D01*
X145371778Y-96351472D01*
X145276472Y-96446778D01*
X145215280Y-96566875D01*
X145212498Y-96584441D01*
X145182567Y-96647575D01*
X145123255Y-96684505D01*
X145053393Y-96683507D01*
X144995161Y-96644896D01*
X144979540Y-96621336D01*
X144913527Y-96491778D01*
X144818221Y-96396472D01*
X144698124Y-96335280D01*
X144564999Y-96314195D01*
X144431875Y-96335280D01*
X144311778Y-96396472D01*
X144216472Y-96491778D01*
X144155280Y-96611875D01*
X144134195Y-96744999D01*
X142469717Y-96744999D01*
X142480804Y-96675000D01*
X142459719Y-96541874D01*
X142398528Y-96421780D01*
X142398527Y-96421778D01*
X142303221Y-96326472D01*
X142183124Y-96265280D01*
X142050000Y-96244195D01*
X141916875Y-96265280D01*
X141796778Y-96326472D01*
X141712681Y-96410570D01*
X141651358Y-96444055D01*
X141581666Y-96439071D01*
X141537319Y-96410570D01*
X141453221Y-96326472D01*
X141333124Y-96265280D01*
X141200000Y-96244195D01*
X141066875Y-96265280D01*
X140946778Y-96326472D01*
X140851471Y-96421779D01*
X140804114Y-96514722D01*
X140756140Y-96565517D01*
X140688319Y-96582312D01*
X140622184Y-96559774D01*
X140583145Y-96514720D01*
X140548528Y-96446779D01*
X140453221Y-96351472D01*
X140333124Y-96290280D01*
X140200000Y-96269195D01*
X140066875Y-96290280D01*
X139946778Y-96351472D01*
X139925181Y-96373070D01*
X139863858Y-96406555D01*
X139794166Y-96401571D01*
X139749819Y-96373070D01*
X139728221Y-96351472D01*
X139608124Y-96290280D01*
X139475000Y-96269195D01*
X139341875Y-96290280D01*
X139221778Y-96351472D01*
X139126472Y-96446778D01*
X139065280Y-96566875D01*
X139044195Y-96699999D01*
X136751844Y-96699999D01*
X136734719Y-96591874D01*
X136673528Y-96471780D01*
X136673527Y-96471778D01*
X136578221Y-96376472D01*
X136458124Y-96315280D01*
X136325000Y-96294195D01*
X136191875Y-96315280D01*
X136071777Y-96376473D01*
X136050179Y-96398071D01*
X135988855Y-96431556D01*
X135919164Y-96426570D01*
X135874819Y-96398071D01*
X135803220Y-96326472D01*
X135803219Y-96326471D01*
X135683124Y-96265280D01*
X135550000Y-96244195D01*
X135416875Y-96265280D01*
X135296778Y-96326472D01*
X135237681Y-96385570D01*
X135176358Y-96419055D01*
X135106666Y-96414071D01*
X135062319Y-96385570D01*
X135053221Y-96376472D01*
X134933124Y-96315280D01*
X134800000Y-96294195D01*
X134666875Y-96315280D01*
X134529281Y-96385388D01*
X134528919Y-96384679D01*
X134488851Y-96406556D01*
X134419160Y-96401569D01*
X134374819Y-96373071D01*
X134328220Y-96326472D01*
X134328219Y-96326471D01*
X134208124Y-96265280D01*
X134075000Y-96244195D01*
X133941875Y-96265280D01*
X133821778Y-96326472D01*
X133812681Y-96335570D01*
X133751358Y-96369055D01*
X133681666Y-96364071D01*
X133637319Y-96335570D01*
X133553221Y-96251472D01*
X133482101Y-96215235D01*
X133441230Y-96194410D01*
X133390435Y-96146437D01*
X133373640Y-96078616D01*
X133387040Y-96027635D01*
X133409719Y-95983126D01*
X133430804Y-95850000D01*
X133426844Y-95824999D01*
X136594195Y-95824999D01*
X136615280Y-95958124D01*
X136676472Y-96078221D01*
X136771778Y-96173527D01*
X136771780Y-96173528D01*
X136891874Y-96234719D01*
X137025000Y-96255804D01*
X137158126Y-96234719D01*
X137278220Y-96173528D01*
X137373528Y-96078220D01*
X137434719Y-95958126D01*
X137455804Y-95825000D01*
X137434719Y-95691874D01*
X137413383Y-95650000D01*
X140269195Y-95650000D01*
X140290280Y-95783124D01*
X140351472Y-95903221D01*
X140446778Y-95998527D01*
X140446780Y-95998528D01*
X140566874Y-96059719D01*
X140633437Y-96070261D01*
X140699999Y-96080804D01*
X140699999Y-96080803D01*
X140700000Y-96080804D01*
X140833126Y-96059719D01*
X140953220Y-95998528D01*
X141048528Y-95903220D01*
X141109719Y-95783126D01*
X141122885Y-95699999D01*
X149939195Y-95699999D01*
X149960280Y-95833124D01*
X150021472Y-95953221D01*
X150116778Y-96048527D01*
X150116780Y-96048528D01*
X150236874Y-96109719D01*
X150370000Y-96130804D01*
X150503126Y-96109719D01*
X150623220Y-96048528D01*
X150718528Y-95953220D01*
X150779719Y-95833126D01*
X150800804Y-95700000D01*
X150779719Y-95566874D01*
X150720168Y-95449999D01*
X153294195Y-95449999D01*
X153315280Y-95583124D01*
X153376472Y-95703221D01*
X153471777Y-95798526D01*
X153471779Y-95798527D01*
X153471780Y-95798528D01*
X153503836Y-95814861D01*
X153554632Y-95862834D01*
X153571428Y-95930654D01*
X153548892Y-95996790D01*
X153535224Y-96013027D01*
X153476471Y-96071779D01*
X153415280Y-96191875D01*
X153394195Y-96325000D01*
X153415280Y-96458124D01*
X153476472Y-96578221D01*
X153571778Y-96673527D01*
X153571780Y-96673528D01*
X153691874Y-96734719D01*
X153756780Y-96744999D01*
X153824999Y-96755804D01*
X153824999Y-96755803D01*
X153825000Y-96755804D01*
X153958126Y-96734719D01*
X154078220Y-96673528D01*
X154173528Y-96578220D01*
X154234719Y-96458126D01*
X154255804Y-96325000D01*
X154234719Y-96191874D01*
X154173528Y-96071780D01*
X154173527Y-96071778D01*
X154078221Y-95976472D01*
X154046163Y-95960138D01*
X153995367Y-95912164D01*
X153978571Y-95844344D01*
X154001108Y-95778208D01*
X154014770Y-95761977D01*
X154073528Y-95703220D01*
X154134719Y-95583126D01*
X154155804Y-95450000D01*
X154134719Y-95316874D01*
X154073528Y-95196780D01*
X154073527Y-95196778D01*
X153978221Y-95101472D01*
X153858124Y-95040280D01*
X153725000Y-95019195D01*
X153591875Y-95040280D01*
X153471778Y-95101472D01*
X153376472Y-95196778D01*
X153315280Y-95316875D01*
X153294195Y-95449999D01*
X150720168Y-95449999D01*
X150718528Y-95446780D01*
X150718527Y-95446778D01*
X150623221Y-95351472D01*
X150503124Y-95290280D01*
X150370000Y-95269195D01*
X150236875Y-95290280D01*
X150116778Y-95351472D01*
X150021472Y-95446778D01*
X149960280Y-95566875D01*
X149939195Y-95699999D01*
X141122885Y-95699999D01*
X141130804Y-95650000D01*
X141124631Y-95611028D01*
X141117386Y-95565281D01*
X141109719Y-95516874D01*
X141048528Y-95396780D01*
X141048527Y-95396778D01*
X140953221Y-95301472D01*
X140833124Y-95240280D01*
X140699999Y-95219195D01*
X140566875Y-95240280D01*
X140446778Y-95301472D01*
X140351472Y-95396778D01*
X140290280Y-95516875D01*
X140269195Y-95650000D01*
X137413383Y-95650000D01*
X137373528Y-95571780D01*
X137373527Y-95571778D01*
X137278221Y-95476472D01*
X137158124Y-95415280D01*
X137025000Y-95394195D01*
X136891875Y-95415280D01*
X136771778Y-95476472D01*
X136676472Y-95571778D01*
X136615280Y-95691875D01*
X136594195Y-95824999D01*
X133426844Y-95824999D01*
X133409719Y-95716874D01*
X133348528Y-95596780D01*
X133348527Y-95596778D01*
X133253221Y-95501472D01*
X133133124Y-95440280D01*
X133000000Y-95419195D01*
X132866875Y-95440280D01*
X132746778Y-95501472D01*
X132651472Y-95596778D01*
X132590280Y-95716875D01*
X132569195Y-95850000D01*
X123433764Y-95850000D01*
X123434719Y-95848126D01*
X123455804Y-95715000D01*
X123434719Y-95581874D01*
X123373528Y-95461780D01*
X123373527Y-95461778D01*
X123278221Y-95366472D01*
X123158124Y-95305280D01*
X123025000Y-95284195D01*
X122891875Y-95305280D01*
X122771778Y-95366472D01*
X122676472Y-95461778D01*
X122615280Y-95581875D01*
X122594195Y-95715000D01*
X115416779Y-95715000D01*
X115513220Y-95665861D01*
X115608528Y-95570553D01*
X115669719Y-95450459D01*
X115690804Y-95317333D01*
X115684099Y-95275000D01*
X130219195Y-95275000D01*
X130240280Y-95408124D01*
X130301472Y-95528221D01*
X130396778Y-95623527D01*
X130396780Y-95623528D01*
X130516874Y-95684719D01*
X130571078Y-95693304D01*
X130649999Y-95705804D01*
X130649999Y-95705803D01*
X130650000Y-95705804D01*
X130783126Y-95684719D01*
X130903220Y-95623528D01*
X130998528Y-95528220D01*
X131059719Y-95408126D01*
X131080804Y-95275000D01*
X131059719Y-95141874D01*
X130998528Y-95021780D01*
X130998527Y-95021778D01*
X130903221Y-94926472D01*
X130851264Y-94899999D01*
X141944195Y-94899999D01*
X141965280Y-95033124D01*
X142026472Y-95153221D01*
X142121778Y-95248527D01*
X142121780Y-95248528D01*
X142241874Y-95309719D01*
X142375000Y-95330804D01*
X142508126Y-95309719D01*
X142628220Y-95248528D01*
X142723528Y-95153220D01*
X142784719Y-95033126D01*
X142797885Y-94949999D01*
X175594195Y-94949999D01*
X175615280Y-95083124D01*
X175676472Y-95203221D01*
X175771778Y-95298527D01*
X175771780Y-95298528D01*
X175891874Y-95359719D01*
X176025000Y-95380804D01*
X176158126Y-95359719D01*
X176278220Y-95298528D01*
X176307553Y-95269195D01*
X176349819Y-95226930D01*
X176411142Y-95193445D01*
X176480834Y-95198429D01*
X176525181Y-95226930D01*
X176571778Y-95273527D01*
X176571780Y-95273528D01*
X176691874Y-95334719D01*
X176758436Y-95345261D01*
X176824999Y-95355804D01*
X176824999Y-95355803D01*
X176825000Y-95355804D01*
X176958126Y-95334719D01*
X177078220Y-95273528D01*
X177124818Y-95226930D01*
X177174819Y-95176930D01*
X177236142Y-95143445D01*
X177305834Y-95148429D01*
X177350181Y-95176930D01*
X177459278Y-95286027D01*
X177459280Y-95286028D01*
X177579374Y-95347219D01*
X177633578Y-95355804D01*
X177712499Y-95368304D01*
X177712499Y-95368303D01*
X177712500Y-95368304D01*
X177803726Y-95353855D01*
X177873020Y-95362809D01*
X177926472Y-95407805D01*
X177933610Y-95420033D01*
X177940280Y-95433125D01*
X177940281Y-95433126D01*
X177948787Y-95449819D01*
X178001472Y-95553221D01*
X178096778Y-95648527D01*
X178096780Y-95648528D01*
X178216874Y-95709719D01*
X178350000Y-95730804D01*
X178483126Y-95709719D01*
X178603220Y-95648528D01*
X178698528Y-95553220D01*
X178759719Y-95433126D01*
X178780804Y-95300000D01*
X178776844Y-95275000D01*
X178774864Y-95262500D01*
X183006695Y-95262500D01*
X183027780Y-95395624D01*
X183088972Y-95515721D01*
X183184278Y-95611027D01*
X183184280Y-95611028D01*
X183304374Y-95672219D01*
X183437500Y-95693304D01*
X183570626Y-95672219D01*
X183690720Y-95611028D01*
X183724818Y-95576929D01*
X183786138Y-95543444D01*
X183855830Y-95548427D01*
X183900180Y-95576929D01*
X183971778Y-95648527D01*
X183971780Y-95648528D01*
X184091874Y-95709719D01*
X184158437Y-95720261D01*
X184224999Y-95730804D01*
X184224999Y-95730803D01*
X184225000Y-95730804D01*
X184358126Y-95709719D01*
X184478220Y-95648528D01*
X184573528Y-95553220D01*
X184610556Y-95480547D01*
X184658528Y-95429753D01*
X184726349Y-95412957D01*
X184777333Y-95426357D01*
X184891874Y-95484719D01*
X185025000Y-95505804D01*
X185158126Y-95484719D01*
X185278220Y-95423528D01*
X185373528Y-95328220D01*
X185434719Y-95208126D01*
X185435787Y-95201381D01*
X185465714Y-95138249D01*
X185525025Y-95101316D01*
X185577659Y-95098306D01*
X185625000Y-95105804D01*
X185758126Y-95084719D01*
X185878220Y-95023528D01*
X185973528Y-94928220D01*
X186034719Y-94808126D01*
X186055804Y-94675000D01*
X186034719Y-94541874D01*
X185973528Y-94421780D01*
X185973527Y-94421778D01*
X185878221Y-94326472D01*
X185777201Y-94275000D01*
X188844195Y-94275000D01*
X188865280Y-94408124D01*
X188926472Y-94528221D01*
X189021778Y-94623527D01*
X189021780Y-94623528D01*
X189141874Y-94684719D01*
X189208437Y-94695261D01*
X189274999Y-94705804D01*
X189274999Y-94705803D01*
X189275000Y-94705804D01*
X189408126Y-94684719D01*
X189528220Y-94623528D01*
X189623528Y-94528220D01*
X189684719Y-94408126D01*
X189705804Y-94275000D01*
X189684719Y-94141874D01*
X189623528Y-94021780D01*
X189623527Y-94021778D01*
X189528221Y-93926472D01*
X189408124Y-93865280D01*
X189275000Y-93844195D01*
X189141875Y-93865280D01*
X189021778Y-93926472D01*
X188926472Y-94021778D01*
X188865280Y-94141875D01*
X188844195Y-94275000D01*
X185777201Y-94275000D01*
X185758124Y-94265280D01*
X185624999Y-94244195D01*
X185491875Y-94265280D01*
X185371778Y-94326472D01*
X185276472Y-94421778D01*
X185215280Y-94541875D01*
X185214212Y-94548620D01*
X185184281Y-94611754D01*
X185124969Y-94648684D01*
X185072342Y-94651693D01*
X185025000Y-94644195D01*
X184891875Y-94665280D01*
X184771778Y-94726472D01*
X184676472Y-94821778D01*
X184639444Y-94894451D01*
X184591469Y-94945247D01*
X184523648Y-94962042D01*
X184472664Y-94948641D01*
X184358124Y-94890280D01*
X184224999Y-94869195D01*
X184091875Y-94890280D01*
X183971778Y-94951472D01*
X183937681Y-94985570D01*
X183876358Y-95019055D01*
X183806666Y-95014071D01*
X183762319Y-94985570D01*
X183690721Y-94913972D01*
X183570624Y-94852780D01*
X183437500Y-94831695D01*
X183304375Y-94852780D01*
X183184278Y-94913972D01*
X183088972Y-95009278D01*
X183027780Y-95129375D01*
X183006695Y-95262500D01*
X178774864Y-95262500D01*
X178759719Y-95166875D01*
X178759719Y-95166874D01*
X178698528Y-95046780D01*
X178698527Y-95046778D01*
X178603221Y-94951472D01*
X178483124Y-94890280D01*
X178349999Y-94869195D01*
X178258771Y-94883644D01*
X178189478Y-94874689D01*
X178136026Y-94829693D01*
X178128889Y-94817465D01*
X178061028Y-94684279D01*
X177965721Y-94588972D01*
X177845624Y-94527780D01*
X177712500Y-94506695D01*
X177579375Y-94527780D01*
X177459278Y-94588972D01*
X177362681Y-94685570D01*
X177301358Y-94719055D01*
X177231666Y-94714071D01*
X177187319Y-94685570D01*
X177078221Y-94576472D01*
X176958124Y-94515280D01*
X176824999Y-94494195D01*
X176691875Y-94515280D01*
X176571778Y-94576472D01*
X176500181Y-94648070D01*
X176438858Y-94681555D01*
X176369166Y-94676571D01*
X176324819Y-94648070D01*
X176278221Y-94601472D01*
X176158124Y-94540280D01*
X176025000Y-94519195D01*
X175891875Y-94540280D01*
X175771778Y-94601472D01*
X175676472Y-94696778D01*
X175615280Y-94816875D01*
X175594195Y-94949999D01*
X142797885Y-94949999D01*
X142805804Y-94900000D01*
X142784719Y-94766874D01*
X142723528Y-94646780D01*
X142723527Y-94646778D01*
X142628221Y-94551472D01*
X142508124Y-94490280D01*
X142375000Y-94469195D01*
X142241875Y-94490280D01*
X142121778Y-94551472D01*
X142026472Y-94646778D01*
X141965280Y-94766875D01*
X141944195Y-94899999D01*
X130851264Y-94899999D01*
X130783124Y-94865280D01*
X130649999Y-94844195D01*
X130516875Y-94865280D01*
X130396778Y-94926472D01*
X130301472Y-95021778D01*
X130240280Y-95141875D01*
X130219195Y-95275000D01*
X115684099Y-95275000D01*
X115669719Y-95184207D01*
X115608528Y-95064113D01*
X115608527Y-95064111D01*
X115513221Y-94968805D01*
X115393124Y-94907613D01*
X115260000Y-94886528D01*
X115126875Y-94907613D01*
X115006778Y-94968805D01*
X114911472Y-95064111D01*
X114850280Y-95184208D01*
X114829195Y-95317333D01*
X109941813Y-95317333D01*
X109984719Y-95233126D01*
X110005804Y-95100000D01*
X110003131Y-95083126D01*
X109984719Y-94966875D01*
X109984719Y-94966874D01*
X109923528Y-94846780D01*
X109923527Y-94846778D01*
X109828221Y-94751472D01*
X109708124Y-94690280D01*
X109575000Y-94669195D01*
X109441875Y-94690280D01*
X109321778Y-94751472D01*
X109226472Y-94846778D01*
X109165280Y-94966875D01*
X109144195Y-95099999D01*
X109165280Y-95233124D01*
X109213733Y-95328220D01*
X109226472Y-95353220D01*
X109321780Y-95448528D01*
X109321782Y-95448529D01*
X109323070Y-95449817D01*
X109356555Y-95511140D01*
X109351571Y-95580832D01*
X109323071Y-95625180D01*
X109226471Y-95721780D01*
X109165280Y-95841875D01*
X109144195Y-95975000D01*
X91521111Y-95975000D01*
X91475350Y-95789343D01*
X91376660Y-95529120D01*
X91351168Y-95480550D01*
X91284341Y-95353221D01*
X91247323Y-95282689D01*
X91089226Y-95053645D01*
X90904673Y-94845327D01*
X90858446Y-94804374D01*
X90699168Y-94663266D01*
X90699167Y-94663265D01*
X90696355Y-94660774D01*
X90693268Y-94658643D01*
X90693264Y-94658640D01*
X90491243Y-94519196D01*
X90467311Y-94502677D01*
X90464008Y-94500943D01*
X90464004Y-94500941D01*
X90224185Y-94375074D01*
X90224177Y-94375070D01*
X90220880Y-94373340D01*
X90217392Y-94372017D01*
X90217385Y-94372014D01*
X90159339Y-94350000D01*
X111359195Y-94350000D01*
X111380280Y-94483124D01*
X111441472Y-94603221D01*
X111536778Y-94698527D01*
X111536780Y-94698528D01*
X111656874Y-94759719D01*
X111723437Y-94770261D01*
X111789999Y-94780804D01*
X111789999Y-94780803D01*
X111790000Y-94780804D01*
X111923126Y-94759719D01*
X112043220Y-94698528D01*
X112138528Y-94603220D01*
X112199719Y-94483126D01*
X112220804Y-94350000D01*
X112199719Y-94216874D01*
X112140169Y-94100000D01*
X122469195Y-94100000D01*
X122490280Y-94233124D01*
X122551472Y-94353221D01*
X122646778Y-94448527D01*
X122646780Y-94448528D01*
X122766874Y-94509719D01*
X122826703Y-94519195D01*
X122899999Y-94530804D01*
X122899999Y-94530803D01*
X122900000Y-94530804D01*
X123033126Y-94509719D01*
X123153220Y-94448528D01*
X123248528Y-94353220D01*
X123309719Y-94233126D01*
X123330804Y-94100000D01*
X123318925Y-94024999D01*
X124319195Y-94024999D01*
X124340280Y-94158124D01*
X124401472Y-94278221D01*
X124496778Y-94373527D01*
X124496780Y-94373528D01*
X124616874Y-94434719D01*
X124683437Y-94445261D01*
X124749999Y-94455804D01*
X124749999Y-94455803D01*
X124750000Y-94455804D01*
X124883126Y-94434719D01*
X125003220Y-94373528D01*
X125098528Y-94278220D01*
X125159719Y-94158126D01*
X125180804Y-94025000D01*
X125159719Y-93891874D01*
X125098528Y-93771780D01*
X125098527Y-93771778D01*
X125014248Y-93687499D01*
X125506695Y-93687499D01*
X125527780Y-93820624D01*
X125588972Y-93940721D01*
X125684278Y-94036027D01*
X125684280Y-94036028D01*
X125804374Y-94097219D01*
X125937500Y-94118304D01*
X126070626Y-94097219D01*
X126190720Y-94036028D01*
X126286028Y-93940720D01*
X126347219Y-93820626D01*
X126368304Y-93687500D01*
X126361812Y-93646514D01*
X126350996Y-93578220D01*
X126347219Y-93554374D01*
X126286028Y-93434280D01*
X126286027Y-93434278D01*
X126190721Y-93338972D01*
X126070624Y-93277780D01*
X125937500Y-93256695D01*
X125804375Y-93277780D01*
X125684278Y-93338972D01*
X125588972Y-93434278D01*
X125527780Y-93554375D01*
X125506695Y-93687499D01*
X125014248Y-93687499D01*
X125003221Y-93676472D01*
X124883124Y-93615280D01*
X124749999Y-93594195D01*
X124616875Y-93615280D01*
X124496778Y-93676472D01*
X124401472Y-93771778D01*
X124340280Y-93891875D01*
X124319195Y-94024999D01*
X123318925Y-94024999D01*
X123309719Y-93966874D01*
X123248528Y-93846780D01*
X123248527Y-93846778D01*
X123226930Y-93825181D01*
X123193445Y-93763858D01*
X123198429Y-93694166D01*
X123226930Y-93649819D01*
X123298527Y-93578221D01*
X123298528Y-93578220D01*
X123359719Y-93458126D01*
X123380804Y-93325000D01*
X123359719Y-93191874D01*
X123298528Y-93071780D01*
X123298527Y-93071778D01*
X123203221Y-92976472D01*
X123083124Y-92915280D01*
X122949999Y-92894195D01*
X122816875Y-92915280D01*
X122696778Y-92976472D01*
X122601472Y-93071778D01*
X122540280Y-93191875D01*
X122519195Y-93325000D01*
X122540280Y-93458124D01*
X122601472Y-93578221D01*
X122623070Y-93599819D01*
X122656555Y-93661142D01*
X122651571Y-93730834D01*
X122623070Y-93775181D01*
X122551472Y-93846778D01*
X122490280Y-93966875D01*
X122469195Y-94100000D01*
X112140169Y-94100000D01*
X112138528Y-94096780D01*
X112138527Y-94096778D01*
X112043221Y-94001472D01*
X111923124Y-93940280D01*
X111790000Y-93919195D01*
X111656875Y-93940280D01*
X111536778Y-94001472D01*
X111441472Y-94096778D01*
X111380280Y-94216875D01*
X111359195Y-94350000D01*
X90159339Y-94350000D01*
X89964161Y-94275979D01*
X89964162Y-94275979D01*
X89960657Y-94274650D01*
X89957023Y-94273754D01*
X89957019Y-94273753D01*
X89694068Y-94208941D01*
X89694060Y-94208939D01*
X89690435Y-94208046D01*
X89686729Y-94207596D01*
X89686718Y-94207594D01*
X89417876Y-94174951D01*
X89417862Y-94174950D01*
X89414155Y-94174500D01*
X89410405Y-94174500D01*
X80780412Y-94174500D01*
X80769605Y-94174028D01*
X80752265Y-94172511D01*
X80620930Y-94161020D01*
X80599645Y-94157267D01*
X80460729Y-94120045D01*
X80440417Y-94112652D01*
X80310081Y-94051875D01*
X80291363Y-94041068D01*
X80173559Y-93958581D01*
X80157001Y-93944687D01*
X80055312Y-93842998D01*
X80041418Y-93826440D01*
X80040536Y-93825181D01*
X79958930Y-93708635D01*
X79948124Y-93689918D01*
X79887344Y-93559575D01*
X79879954Y-93539270D01*
X79876993Y-93528221D01*
X79850199Y-93428221D01*
X79842732Y-93400354D01*
X79838979Y-93379068D01*
X79832772Y-93308126D01*
X79825972Y-93230395D01*
X79825500Y-93219588D01*
X79825500Y-91495162D01*
X79845185Y-91428123D01*
X79897989Y-91382368D01*
X79967147Y-91372424D01*
X80030703Y-91401449D01*
X80068477Y-91460227D01*
X80071469Y-91472810D01*
X80099896Y-91627934D01*
X80099898Y-91627943D01*
X80100571Y-91631614D01*
X80101683Y-91635185D01*
X80101685Y-91635190D01*
X80154513Y-91804722D01*
X80199564Y-91949296D01*
X80336129Y-92252730D01*
X80338062Y-92255928D01*
X80338066Y-92255935D01*
X80406535Y-92369196D01*
X80508273Y-92537491D01*
X80713485Y-92799425D01*
X80948775Y-93034715D01*
X81210709Y-93239927D01*
X81495470Y-93412071D01*
X81798904Y-93548636D01*
X82116586Y-93647629D01*
X82443885Y-93707609D01*
X82776027Y-93727700D01*
X83108169Y-93707609D01*
X83435468Y-93647629D01*
X83753150Y-93548636D01*
X84056584Y-93412071D01*
X84250245Y-93294999D01*
X120164195Y-93294999D01*
X120185280Y-93428124D01*
X120246472Y-93548221D01*
X120341778Y-93643527D01*
X120341780Y-93643528D01*
X120461874Y-93704719D01*
X120595000Y-93725804D01*
X120728126Y-93704719D01*
X120848220Y-93643528D01*
X120876468Y-93615280D01*
X120912319Y-93579430D01*
X120973642Y-93545945D01*
X121043334Y-93550929D01*
X121087681Y-93579430D01*
X121131778Y-93623527D01*
X121131780Y-93623528D01*
X121251874Y-93684719D01*
X121385000Y-93705804D01*
X121518126Y-93684719D01*
X121638220Y-93623528D01*
X121733528Y-93528220D01*
X121794719Y-93408126D01*
X121815804Y-93275000D01*
X121794719Y-93141874D01*
X121733528Y-93021780D01*
X121733527Y-93021778D01*
X121638221Y-92926472D01*
X121518124Y-92865280D01*
X121385000Y-92844195D01*
X121251875Y-92865280D01*
X121131778Y-92926472D01*
X121067681Y-92990570D01*
X121006358Y-93024055D01*
X120936666Y-93019071D01*
X120892319Y-92990570D01*
X120848221Y-92946472D01*
X120728124Y-92885280D01*
X120595000Y-92864195D01*
X120461875Y-92885280D01*
X120341778Y-92946472D01*
X120246472Y-93041778D01*
X120185280Y-93161875D01*
X120164195Y-93294999D01*
X84250245Y-93294999D01*
X84341345Y-93239927D01*
X84603279Y-93034715D01*
X84837994Y-92800000D01*
X116219195Y-92800000D01*
X116240280Y-92933124D01*
X116301472Y-93053221D01*
X116396778Y-93148527D01*
X116396780Y-93148528D01*
X116516874Y-93209719D01*
X116579185Y-93219588D01*
X116649999Y-93230804D01*
X116649999Y-93230803D01*
X116650000Y-93230804D01*
X116783126Y-93209719D01*
X116903220Y-93148528D01*
X116998528Y-93053220D01*
X117059719Y-92933126D01*
X117080804Y-92800000D01*
X117065608Y-92704062D01*
X117074563Y-92634769D01*
X117082787Y-92625000D01*
X130969195Y-92625000D01*
X130990280Y-92758124D01*
X131051472Y-92878221D01*
X131146778Y-92973527D01*
X131146780Y-92973528D01*
X131266874Y-93034719D01*
X131281440Y-93037026D01*
X131417977Y-93058652D01*
X131481112Y-93088581D01*
X131518043Y-93147893D01*
X131521052Y-93161726D01*
X131540280Y-93283124D01*
X131601472Y-93403221D01*
X131696778Y-93498527D01*
X131696780Y-93498528D01*
X131816874Y-93559719D01*
X131883437Y-93570261D01*
X131949999Y-93580804D01*
X131949999Y-93580803D01*
X131950000Y-93580804D01*
X132083126Y-93559719D01*
X132203220Y-93498528D01*
X132298528Y-93403220D01*
X132359719Y-93283126D01*
X132380804Y-93150000D01*
X132376525Y-93122986D01*
X132372885Y-93100000D01*
X145919195Y-93100000D01*
X145940280Y-93233124D01*
X146001472Y-93353221D01*
X146096778Y-93448527D01*
X146096780Y-93448528D01*
X146216874Y-93509719D01*
X146350000Y-93530804D01*
X146483126Y-93509719D01*
X146603220Y-93448528D01*
X146698528Y-93353220D01*
X146759719Y-93233126D01*
X146780804Y-93100000D01*
X146778995Y-93088581D01*
X146759719Y-92966875D01*
X146759719Y-92966874D01*
X146725644Y-92899999D01*
X152519195Y-92899999D01*
X152540280Y-93033124D01*
X152601472Y-93153221D01*
X152696778Y-93248527D01*
X152696780Y-93248528D01*
X152816874Y-93309719D01*
X152950000Y-93330804D01*
X153083126Y-93309719D01*
X153203220Y-93248528D01*
X153298528Y-93153220D01*
X153359719Y-93033126D01*
X153373444Y-92946472D01*
X153383877Y-92880602D01*
X153386658Y-92881042D01*
X153391632Y-92842547D01*
X153436626Y-92789093D01*
X153503377Y-92768451D01*
X153561446Y-92781953D01*
X153566874Y-92784719D01*
X153700000Y-92805804D01*
X153833126Y-92784719D01*
X153953220Y-92723528D01*
X154048528Y-92628220D01*
X154109719Y-92508126D01*
X154130804Y-92375000D01*
X154109719Y-92241874D01*
X154048528Y-92121780D01*
X154048527Y-92121778D01*
X153953221Y-92026472D01*
X153833124Y-91965280D01*
X153700000Y-91944195D01*
X153566875Y-91965280D01*
X153446778Y-92026472D01*
X153351472Y-92121778D01*
X153290280Y-92241875D01*
X153266123Y-92394398D01*
X153263341Y-92393957D01*
X153258362Y-92432465D01*
X153213362Y-92485913D01*
X153146609Y-92506548D01*
X153088553Y-92493046D01*
X153083126Y-92490281D01*
X153083125Y-92490280D01*
X153083124Y-92490280D01*
X152950000Y-92469195D01*
X152816875Y-92490280D01*
X152696778Y-92551472D01*
X152601472Y-92646778D01*
X152540280Y-92766875D01*
X152519195Y-92899999D01*
X146725644Y-92899999D01*
X146698528Y-92846780D01*
X146698527Y-92846778D01*
X146603221Y-92751472D01*
X146483124Y-92690280D01*
X146350000Y-92669195D01*
X146216875Y-92690280D01*
X146096778Y-92751472D01*
X146001472Y-92846778D01*
X145940280Y-92966875D01*
X145919195Y-93100000D01*
X132372885Y-93100000D01*
X132363679Y-93041875D01*
X132359719Y-93016874D01*
X132298528Y-92896780D01*
X132298527Y-92896778D01*
X132203221Y-92801472D01*
X132083124Y-92740280D01*
X131932021Y-92716347D01*
X131868887Y-92686417D01*
X131831956Y-92627106D01*
X131828947Y-92613272D01*
X131822885Y-92575000D01*
X141994195Y-92575000D01*
X142015280Y-92708124D01*
X142076472Y-92828221D01*
X142171778Y-92923527D01*
X142171780Y-92923528D01*
X142291874Y-92984719D01*
X142425000Y-93005804D01*
X142558126Y-92984719D01*
X142678220Y-92923528D01*
X142773528Y-92828220D01*
X142834719Y-92708126D01*
X142855804Y-92575000D01*
X142834719Y-92441874D01*
X142773528Y-92321780D01*
X142773527Y-92321778D01*
X142678221Y-92226472D01*
X142558124Y-92165280D01*
X142425000Y-92144195D01*
X142291875Y-92165280D01*
X142171778Y-92226472D01*
X142076472Y-92321778D01*
X142015280Y-92441875D01*
X141994195Y-92575000D01*
X131822885Y-92575000D01*
X131810773Y-92498527D01*
X131809719Y-92491874D01*
X131748528Y-92371780D01*
X131748527Y-92371778D01*
X131653221Y-92276472D01*
X131533124Y-92215280D01*
X131400000Y-92194195D01*
X131266875Y-92215280D01*
X131146778Y-92276472D01*
X131051472Y-92371778D01*
X130990280Y-92491875D01*
X130969195Y-92625000D01*
X117082787Y-92625000D01*
X117119559Y-92581317D01*
X117186311Y-92560677D01*
X117207480Y-92562191D01*
X117325000Y-92580804D01*
X117458126Y-92559719D01*
X117578220Y-92498528D01*
X117673528Y-92403220D01*
X117734719Y-92283126D01*
X117755804Y-92150000D01*
X117751334Y-92121780D01*
X117734719Y-92016875D01*
X117734719Y-92016874D01*
X117673528Y-91896780D01*
X117673527Y-91896778D01*
X117578221Y-91801472D01*
X117458124Y-91740280D01*
X117324999Y-91719195D01*
X117191875Y-91740280D01*
X117071778Y-91801472D01*
X116976472Y-91896778D01*
X116915280Y-92016875D01*
X116894195Y-92150000D01*
X116909390Y-92245937D01*
X116900435Y-92315231D01*
X116855439Y-92368683D01*
X116788687Y-92389322D01*
X116767520Y-92387808D01*
X116650000Y-92369195D01*
X116516875Y-92390280D01*
X116396778Y-92451472D01*
X116301472Y-92546778D01*
X116240280Y-92666875D01*
X116219195Y-92800000D01*
X84837994Y-92800000D01*
X84838569Y-92799425D01*
X85043781Y-92537491D01*
X85215925Y-92252730D01*
X85352490Y-91949296D01*
X85451483Y-91631614D01*
X85511463Y-91304315D01*
X85531554Y-90972173D01*
X85511463Y-90640031D01*
X85451483Y-90312732D01*
X85352490Y-89995050D01*
X85215925Y-89691616D01*
X85043781Y-89406855D01*
X84838569Y-89144921D01*
X84603279Y-88909631D01*
X84341345Y-88704419D01*
X84168355Y-88599843D01*
X84059789Y-88534212D01*
X84059782Y-88534208D01*
X84056584Y-88532275D01*
X83753150Y-88395710D01*
X83749572Y-88394595D01*
X83439044Y-88297831D01*
X83439039Y-88297829D01*
X83435468Y-88296717D01*
X83431797Y-88296044D01*
X83431788Y-88296042D01*
X83111853Y-88237412D01*
X83111851Y-88237411D01*
X83108169Y-88236737D01*
X83104443Y-88236511D01*
X83104430Y-88236510D01*
X82914140Y-88225000D01*
X96219627Y-88225000D01*
X96220463Y-88240956D01*
X96237984Y-88575281D01*
X96239104Y-88596638D01*
X96239609Y-88599831D01*
X96239611Y-88599843D01*
X96290418Y-88920626D01*
X96297320Y-88964204D01*
X96298158Y-88967333D01*
X96298161Y-88967345D01*
X96392801Y-89320546D01*
X96392804Y-89320557D01*
X96393639Y-89323671D01*
X96394794Y-89326680D01*
X96394798Y-89326692D01*
X96499712Y-89600000D01*
X96527005Y-89671100D01*
X96528474Y-89673983D01*
X96528478Y-89673992D01*
X96693888Y-89998627D01*
X96695957Y-90002687D01*
X96898643Y-90314796D01*
X97017927Y-90462099D01*
X97076092Y-90533928D01*
X97132843Y-90604009D01*
X97395991Y-90867157D01*
X97685204Y-91101357D01*
X97997313Y-91304043D01*
X98328900Y-91472995D01*
X98676329Y-91606361D01*
X99035796Y-91702680D01*
X99403362Y-91760896D01*
X99775000Y-91780373D01*
X100146638Y-91760896D01*
X100514204Y-91702680D01*
X100630203Y-91671598D01*
X122180793Y-91671598D01*
X122201878Y-91804722D01*
X122263070Y-91924819D01*
X122358376Y-92020125D01*
X122358378Y-92020126D01*
X122478472Y-92081317D01*
X122611598Y-92102402D01*
X122744724Y-92081317D01*
X122864818Y-92020126D01*
X122960126Y-91924818D01*
X123010986Y-91824999D01*
X132619195Y-91824999D01*
X132640280Y-91958124D01*
X132701472Y-92078221D01*
X132796778Y-92173527D01*
X132796780Y-92173528D01*
X132916874Y-92234719D01*
X132983436Y-92245261D01*
X133049999Y-92255804D01*
X133049999Y-92255803D01*
X133050000Y-92255804D01*
X133183126Y-92234719D01*
X133303220Y-92173528D01*
X133398528Y-92078220D01*
X133459719Y-91958126D01*
X133480804Y-91825000D01*
X133476844Y-91800000D01*
X136669195Y-91800000D01*
X136690280Y-91933124D01*
X136751472Y-92053221D01*
X136846778Y-92148527D01*
X136846780Y-92148528D01*
X136966874Y-92209719D01*
X137100000Y-92230804D01*
X137233126Y-92209719D01*
X137353220Y-92148528D01*
X137401749Y-92099999D01*
X140769195Y-92099999D01*
X140790280Y-92233124D01*
X140851472Y-92353221D01*
X140946778Y-92448527D01*
X140946780Y-92448528D01*
X141066874Y-92509719D01*
X141200000Y-92530804D01*
X141333126Y-92509719D01*
X141453220Y-92448528D01*
X141548528Y-92353220D01*
X141609719Y-92233126D01*
X141630804Y-92100000D01*
X141627354Y-92078220D01*
X141610087Y-91969196D01*
X141609719Y-91966874D01*
X141548528Y-91846780D01*
X141548527Y-91846778D01*
X141453221Y-91751472D01*
X141333124Y-91690280D01*
X141200000Y-91669195D01*
X141066875Y-91690280D01*
X140946778Y-91751472D01*
X140851472Y-91846778D01*
X140790280Y-91966875D01*
X140769195Y-92099999D01*
X137401749Y-92099999D01*
X137448528Y-92053220D01*
X137509719Y-91933126D01*
X137530804Y-91800000D01*
X137509719Y-91666874D01*
X137448528Y-91546780D01*
X137448527Y-91546778D01*
X137353221Y-91451472D01*
X137233124Y-91390280D01*
X137099999Y-91369195D01*
X136966875Y-91390280D01*
X136846778Y-91451472D01*
X136751472Y-91546778D01*
X136690280Y-91666875D01*
X136669195Y-91800000D01*
X133476844Y-91800000D01*
X133459719Y-91691875D01*
X133459719Y-91691874D01*
X133398528Y-91571780D01*
X133398527Y-91571778D01*
X133303221Y-91476472D01*
X133183124Y-91415280D01*
X133049999Y-91394195D01*
X132916875Y-91415280D01*
X132796778Y-91476472D01*
X132701472Y-91571778D01*
X132640280Y-91691875D01*
X132619195Y-91824999D01*
X123010986Y-91824999D01*
X123021317Y-91804724D01*
X123042402Y-91671598D01*
X123021317Y-91538472D01*
X122960126Y-91418378D01*
X122960125Y-91418376D01*
X122864819Y-91323070D01*
X122744722Y-91261878D01*
X122611598Y-91240793D01*
X122478473Y-91261878D01*
X122358376Y-91323070D01*
X122263070Y-91418376D01*
X122201878Y-91538473D01*
X122180793Y-91671598D01*
X100630203Y-91671598D01*
X100873671Y-91606361D01*
X101221100Y-91472995D01*
X101552687Y-91304043D01*
X101864796Y-91101357D01*
X102020834Y-90975000D01*
X120344195Y-90975000D01*
X120365280Y-91108124D01*
X120426472Y-91228221D01*
X120521778Y-91323527D01*
X120521780Y-91323528D01*
X120641874Y-91384719D01*
X120701703Y-91394195D01*
X120774999Y-91405804D01*
X120774999Y-91405803D01*
X120775000Y-91405804D01*
X120908126Y-91384719D01*
X121028220Y-91323528D01*
X121123528Y-91228220D01*
X121184719Y-91108126D01*
X121205804Y-90975000D01*
X121204764Y-90968436D01*
X121189285Y-90870701D01*
X121184719Y-90841874D01*
X121123528Y-90721780D01*
X121123527Y-90721778D01*
X121028221Y-90626472D01*
X120908124Y-90565280D01*
X120775000Y-90544195D01*
X120641875Y-90565280D01*
X120521778Y-90626472D01*
X120426472Y-90721778D01*
X120365280Y-90841875D01*
X120344195Y-90975000D01*
X102020834Y-90975000D01*
X102154009Y-90867157D01*
X102417157Y-90604009D01*
X102521626Y-90475000D01*
X123119195Y-90475000D01*
X123140280Y-90608124D01*
X123201472Y-90728221D01*
X123296778Y-90823527D01*
X123296780Y-90823528D01*
X123416874Y-90884719D01*
X123483436Y-90895261D01*
X123549999Y-90905804D01*
X123549999Y-90905803D01*
X123550000Y-90905804D01*
X123683126Y-90884719D01*
X123803220Y-90823528D01*
X123898528Y-90728220D01*
X123951122Y-90624999D01*
X134869195Y-90624999D01*
X134890280Y-90758124D01*
X134951472Y-90878221D01*
X135046778Y-90973527D01*
X135046780Y-90973528D01*
X135166874Y-91034719D01*
X135300000Y-91055804D01*
X135433126Y-91034719D01*
X135553220Y-90973528D01*
X135648528Y-90878220D01*
X135709719Y-90758126D01*
X135730804Y-90625000D01*
X135728131Y-90608126D01*
X135710087Y-90494196D01*
X135709719Y-90491874D01*
X135648528Y-90371780D01*
X135648527Y-90371778D01*
X135553221Y-90276472D01*
X135433124Y-90215280D01*
X135300000Y-90194195D01*
X135166875Y-90215280D01*
X135046778Y-90276472D01*
X134951472Y-90371778D01*
X134890280Y-90491875D01*
X134869195Y-90624999D01*
X123951122Y-90624999D01*
X123959719Y-90608126D01*
X123980804Y-90475000D01*
X123959719Y-90341874D01*
X123898528Y-90221780D01*
X123898527Y-90221778D01*
X123881969Y-90205220D01*
X123848484Y-90143897D01*
X123853468Y-90074205D01*
X123895340Y-90018272D01*
X123913356Y-90007054D01*
X123936916Y-89995050D01*
X124028220Y-89948528D01*
X124123528Y-89853220D01*
X124184719Y-89733126D01*
X124193925Y-89675000D01*
X125894195Y-89675000D01*
X125915280Y-89808124D01*
X125976472Y-89928221D01*
X126071778Y-90023527D01*
X126071780Y-90023528D01*
X126191874Y-90084719D01*
X126325000Y-90105804D01*
X126458126Y-90084719D01*
X126578220Y-90023528D01*
X126673528Y-89928220D01*
X126734719Y-89808126D01*
X126755804Y-89675000D01*
X126734719Y-89541874D01*
X126673528Y-89421780D01*
X126673527Y-89421778D01*
X126578221Y-89326472D01*
X126458124Y-89265280D01*
X126325000Y-89244195D01*
X126191875Y-89265280D01*
X126071778Y-89326472D01*
X125976472Y-89421778D01*
X125915280Y-89541875D01*
X125894195Y-89675000D01*
X124193925Y-89675000D01*
X124205804Y-89600000D01*
X124184719Y-89466874D01*
X124123528Y-89346780D01*
X124123527Y-89346778D01*
X124028221Y-89251472D01*
X123908124Y-89190280D01*
X123775000Y-89169195D01*
X123641875Y-89190280D01*
X123521778Y-89251472D01*
X123426472Y-89346778D01*
X123365280Y-89466875D01*
X123344195Y-89600000D01*
X123365280Y-89733124D01*
X123426472Y-89853221D01*
X123443030Y-89869779D01*
X123476515Y-89931102D01*
X123471531Y-90000794D01*
X123429659Y-90056727D01*
X123411644Y-90067945D01*
X123296778Y-90126472D01*
X123201472Y-90221778D01*
X123140280Y-90341875D01*
X123119195Y-90475000D01*
X102521626Y-90475000D01*
X102651357Y-90314796D01*
X102854043Y-90002687D01*
X103022995Y-89671100D01*
X103156361Y-89323671D01*
X103247108Y-88984999D01*
X121464195Y-88984999D01*
X121485280Y-89118124D01*
X121546472Y-89238221D01*
X121641778Y-89333527D01*
X121641780Y-89333528D01*
X121761874Y-89394719D01*
X121895000Y-89415804D01*
X122028126Y-89394719D01*
X122148220Y-89333528D01*
X122243528Y-89238220D01*
X122304719Y-89118126D01*
X122311549Y-89075000D01*
X136644195Y-89075000D01*
X136665280Y-89208124D01*
X136726472Y-89328221D01*
X136821778Y-89423527D01*
X136821780Y-89423528D01*
X136941874Y-89484719D01*
X137075000Y-89505804D01*
X137208126Y-89484719D01*
X137328220Y-89423528D01*
X137423528Y-89328220D01*
X137484719Y-89208126D01*
X137487210Y-89192396D01*
X137517137Y-89129263D01*
X137576448Y-89092331D01*
X137646311Y-89093327D01*
X137697364Y-89124113D01*
X137709278Y-89136027D01*
X137709280Y-89136028D01*
X137829374Y-89197219D01*
X137962500Y-89218304D01*
X138095626Y-89197219D01*
X138215720Y-89136028D01*
X138311028Y-89040720D01*
X138372219Y-88920626D01*
X138393304Y-88787500D01*
X138372219Y-88654374D01*
X138311028Y-88534280D01*
X138311027Y-88534278D01*
X138215721Y-88438972D01*
X138095624Y-88377780D01*
X137962500Y-88356695D01*
X137829375Y-88377780D01*
X137709278Y-88438972D01*
X137613972Y-88534278D01*
X137552780Y-88654375D01*
X137550289Y-88670104D01*
X137520359Y-88733239D01*
X137461047Y-88770169D01*
X137391184Y-88769171D01*
X137340135Y-88738386D01*
X137328221Y-88726472D01*
X137208124Y-88665280D01*
X137075000Y-88644195D01*
X136941875Y-88665280D01*
X136821778Y-88726472D01*
X136726472Y-88821778D01*
X136665280Y-88941875D01*
X136644195Y-89075000D01*
X122311549Y-89075000D01*
X122325804Y-88985000D01*
X122304719Y-88851874D01*
X122243528Y-88731780D01*
X122243527Y-88731778D01*
X122148221Y-88636472D01*
X122028124Y-88575280D01*
X121895000Y-88554195D01*
X121761875Y-88575280D01*
X121641778Y-88636472D01*
X121546472Y-88731778D01*
X121485280Y-88851875D01*
X121464195Y-88984999D01*
X103247108Y-88984999D01*
X103252680Y-88964204D01*
X103310896Y-88596638D01*
X103330373Y-88225000D01*
X103319891Y-88024999D01*
X128969195Y-88024999D01*
X128990280Y-88158124D01*
X129051472Y-88278221D01*
X129146778Y-88373527D01*
X129146780Y-88373528D01*
X129266874Y-88434719D01*
X129321084Y-88443305D01*
X129399999Y-88455804D01*
X129399999Y-88455803D01*
X129400000Y-88455804D01*
X129533126Y-88434719D01*
X129653220Y-88373528D01*
X129748528Y-88278220D01*
X129775645Y-88225000D01*
X148219627Y-88225000D01*
X148219796Y-88228224D01*
X148219796Y-88228243D01*
X148238934Y-88593399D01*
X148239104Y-88596638D01*
X148239609Y-88599831D01*
X148239611Y-88599843D01*
X148290418Y-88920626D01*
X148297320Y-88964204D01*
X148298158Y-88967333D01*
X148298161Y-88967345D01*
X148392801Y-89320546D01*
X148392804Y-89320557D01*
X148393639Y-89323671D01*
X148394794Y-89326680D01*
X148394798Y-89326692D01*
X148499712Y-89600000D01*
X148527005Y-89671100D01*
X148528474Y-89673983D01*
X148528478Y-89673992D01*
X148693888Y-89998627D01*
X148695957Y-90002687D01*
X148898643Y-90314796D01*
X149017927Y-90462099D01*
X149076092Y-90533928D01*
X149132843Y-90604009D01*
X149395991Y-90867157D01*
X149685204Y-91101357D01*
X149997313Y-91304043D01*
X150328900Y-91472995D01*
X150676329Y-91606361D01*
X151035796Y-91702680D01*
X151403362Y-91760896D01*
X151775000Y-91780373D01*
X152146638Y-91760896D01*
X152514204Y-91702680D01*
X152873671Y-91606361D01*
X153221100Y-91472995D01*
X153552687Y-91304043D01*
X153864796Y-91101357D01*
X154024325Y-90972173D01*
X168270500Y-90972173D01*
X168270726Y-90975909D01*
X168290364Y-91300576D01*
X168290365Y-91300589D01*
X168290591Y-91304315D01*
X168291265Y-91307997D01*
X168291266Y-91307999D01*
X168349896Y-91627934D01*
X168349898Y-91627943D01*
X168350571Y-91631614D01*
X168351683Y-91635185D01*
X168351685Y-91635190D01*
X168404513Y-91804722D01*
X168449564Y-91949296D01*
X168586129Y-92252730D01*
X168588062Y-92255928D01*
X168588066Y-92255935D01*
X168656535Y-92369196D01*
X168758273Y-92537491D01*
X168963485Y-92799425D01*
X169198775Y-93034715D01*
X169460709Y-93239927D01*
X169745470Y-93412071D01*
X170048904Y-93548636D01*
X170366586Y-93647629D01*
X170693885Y-93707609D01*
X171026027Y-93727700D01*
X171358169Y-93707609D01*
X171685468Y-93647629D01*
X172003150Y-93548636D01*
X172306584Y-93412071D01*
X172591345Y-93239927D01*
X172853279Y-93034715D01*
X173088569Y-92799425D01*
X173293781Y-92537491D01*
X173465925Y-92252730D01*
X173602490Y-91949296D01*
X173641222Y-91825000D01*
X178294195Y-91825000D01*
X178315280Y-91958124D01*
X178376472Y-92078221D01*
X178471778Y-92173527D01*
X178471780Y-92173528D01*
X178591874Y-92234719D01*
X178725000Y-92255804D01*
X178877524Y-92231647D01*
X178878086Y-92235201D01*
X178913616Y-92228521D01*
X178978362Y-92254785D01*
X179018631Y-92311883D01*
X179023741Y-92371302D01*
X179019195Y-92400001D01*
X179040280Y-92533124D01*
X179101472Y-92653221D01*
X179148070Y-92699819D01*
X179181555Y-92761142D01*
X179176571Y-92830834D01*
X179148070Y-92875181D01*
X179101472Y-92921778D01*
X179040280Y-93041875D01*
X179019195Y-93175000D01*
X179040280Y-93308124D01*
X179101472Y-93428221D01*
X179196778Y-93523527D01*
X179196780Y-93523528D01*
X179316874Y-93584719D01*
X179450000Y-93605804D01*
X179486645Y-93600000D01*
X180194195Y-93600000D01*
X180215280Y-93733124D01*
X180276472Y-93853221D01*
X180371778Y-93948527D01*
X180371780Y-93948528D01*
X180491874Y-94009719D01*
X180558437Y-94020261D01*
X180624999Y-94030804D01*
X180624999Y-94030803D01*
X180625000Y-94030804D01*
X180758126Y-94009719D01*
X180878220Y-93948528D01*
X180973528Y-93853220D01*
X181034719Y-93733126D01*
X181055804Y-93600000D01*
X181034719Y-93466874D01*
X180973528Y-93346780D01*
X180973527Y-93346778D01*
X180878221Y-93251472D01*
X180758124Y-93190280D01*
X180624999Y-93169195D01*
X180491875Y-93190280D01*
X180371778Y-93251472D01*
X180276472Y-93346778D01*
X180215280Y-93466875D01*
X180194195Y-93600000D01*
X179486645Y-93600000D01*
X179583126Y-93584719D01*
X179703220Y-93523528D01*
X179798528Y-93428220D01*
X179859719Y-93308126D01*
X179880804Y-93175000D01*
X179859719Y-93041874D01*
X179798528Y-92921780D01*
X179798527Y-92921778D01*
X179751930Y-92875181D01*
X179718445Y-92813858D01*
X179723429Y-92744166D01*
X179751930Y-92699819D01*
X179798527Y-92653221D01*
X179807929Y-92634769D01*
X179859719Y-92533126D01*
X179880804Y-92400000D01*
X179859719Y-92266874D01*
X179798528Y-92146780D01*
X179798527Y-92146778D01*
X179703221Y-92051472D01*
X179583124Y-91990280D01*
X179450000Y-91969195D01*
X179297476Y-91993353D01*
X179296912Y-91989797D01*
X179261349Y-91996474D01*
X179196610Y-91970193D01*
X179156357Y-91913084D01*
X179151259Y-91853694D01*
X179152355Y-91846778D01*
X179155804Y-91825000D01*
X179152592Y-91804722D01*
X179134719Y-91691875D01*
X179134719Y-91691874D01*
X179073528Y-91571780D01*
X179073527Y-91571778D01*
X178978221Y-91476472D01*
X178858124Y-91415280D01*
X178725000Y-91394195D01*
X178591875Y-91415280D01*
X178471778Y-91476472D01*
X178376472Y-91571778D01*
X178315280Y-91691875D01*
X178294195Y-91825000D01*
X173641222Y-91825000D01*
X173701483Y-91631614D01*
X173761463Y-91304315D01*
X173781554Y-90972173D01*
X173761463Y-90640031D01*
X173739864Y-90522172D01*
X180995222Y-90522172D01*
X181016307Y-90655297D01*
X181077499Y-90775394D01*
X181172805Y-90870700D01*
X181172807Y-90870701D01*
X181292901Y-90931892D01*
X181426027Y-90952977D01*
X181559153Y-90931892D01*
X181572679Y-90925000D01*
X196819195Y-90925000D01*
X196840280Y-91058124D01*
X196901472Y-91178221D01*
X196996778Y-91273527D01*
X196996780Y-91273528D01*
X197116874Y-91334719D01*
X197250000Y-91355804D01*
X197383126Y-91334719D01*
X197503220Y-91273528D01*
X197598528Y-91178220D01*
X197659719Y-91058126D01*
X197680804Y-90925000D01*
X197659719Y-90791874D01*
X197598528Y-90671780D01*
X197598527Y-90671778D01*
X197503221Y-90576472D01*
X197383124Y-90515280D01*
X197250000Y-90494195D01*
X197116875Y-90515280D01*
X196996778Y-90576472D01*
X196901472Y-90671778D01*
X196840280Y-90791875D01*
X196819195Y-90925000D01*
X181572679Y-90925000D01*
X181679247Y-90870701D01*
X181774555Y-90775393D01*
X181835746Y-90655299D01*
X181856831Y-90522173D01*
X181855739Y-90515281D01*
X181849359Y-90475000D01*
X185019195Y-90475000D01*
X185040280Y-90608124D01*
X185101472Y-90728221D01*
X185196778Y-90823527D01*
X185196780Y-90823528D01*
X185316874Y-90884719D01*
X185450000Y-90905804D01*
X185583126Y-90884719D01*
X185703220Y-90823528D01*
X185798528Y-90728220D01*
X185859719Y-90608126D01*
X185880804Y-90475000D01*
X185859719Y-90341874D01*
X185798528Y-90221780D01*
X185798527Y-90221778D01*
X185701930Y-90125181D01*
X185668445Y-90063858D01*
X185673429Y-89994166D01*
X185701930Y-89949819D01*
X185798527Y-89853221D01*
X185802320Y-89845777D01*
X185859719Y-89733126D01*
X185880804Y-89600000D01*
X185859719Y-89466874D01*
X185798528Y-89346780D01*
X185798527Y-89346778D01*
X185703221Y-89251472D01*
X185583124Y-89190280D01*
X185450000Y-89169195D01*
X185316875Y-89190280D01*
X185196778Y-89251472D01*
X185101472Y-89346778D01*
X185040280Y-89466875D01*
X185019195Y-89600000D01*
X185040280Y-89733124D01*
X185101472Y-89853221D01*
X185198070Y-89949819D01*
X185231555Y-90011142D01*
X185226571Y-90080834D01*
X185198070Y-90125181D01*
X185101472Y-90221778D01*
X185040280Y-90341875D01*
X185019195Y-90475000D01*
X181849359Y-90475000D01*
X181835746Y-90389048D01*
X181835746Y-90389047D01*
X181774555Y-90268953D01*
X181774554Y-90268951D01*
X181679248Y-90173645D01*
X181559151Y-90112453D01*
X181426027Y-90091368D01*
X181292902Y-90112453D01*
X181172805Y-90173645D01*
X181077499Y-90268951D01*
X181016307Y-90389048D01*
X180995222Y-90522172D01*
X173739864Y-90522172D01*
X173701483Y-90312732D01*
X173602490Y-89995050D01*
X173465925Y-89691616D01*
X173293781Y-89406855D01*
X173088569Y-89144921D01*
X172853279Y-88909631D01*
X172591345Y-88704419D01*
X172418355Y-88599843D01*
X172309789Y-88534212D01*
X172309782Y-88534208D01*
X172306584Y-88532275D01*
X172003150Y-88395710D01*
X171999572Y-88394595D01*
X171689044Y-88297831D01*
X171689039Y-88297829D01*
X171685468Y-88296717D01*
X171681797Y-88296044D01*
X171681788Y-88296042D01*
X171361853Y-88237412D01*
X171361851Y-88237411D01*
X171358169Y-88236737D01*
X171354443Y-88236511D01*
X171354430Y-88236510D01*
X171029763Y-88216872D01*
X171026027Y-88216646D01*
X171022291Y-88216872D01*
X170697623Y-88236510D01*
X170697608Y-88236511D01*
X170693885Y-88236737D01*
X170690204Y-88237411D01*
X170690200Y-88237412D01*
X170370265Y-88296042D01*
X170370252Y-88296045D01*
X170366586Y-88296717D01*
X170363018Y-88297828D01*
X170363009Y-88297831D01*
X170052481Y-88394595D01*
X170052475Y-88394597D01*
X170048904Y-88395710D01*
X170045495Y-88397244D01*
X170045493Y-88397245D01*
X169915381Y-88455804D01*
X169745470Y-88532275D01*
X169742277Y-88534204D01*
X169742264Y-88534212D01*
X169463913Y-88702482D01*
X169460709Y-88704419D01*
X169457767Y-88706723D01*
X169457761Y-88706728D01*
X169272496Y-88851874D01*
X169198775Y-88909631D01*
X169196129Y-88912276D01*
X169196121Y-88912284D01*
X168966138Y-89142267D01*
X168966130Y-89142275D01*
X168963485Y-89144921D01*
X168961173Y-89147871D01*
X168961173Y-89147872D01*
X168760582Y-89403907D01*
X168760577Y-89403913D01*
X168758273Y-89406855D01*
X168756336Y-89410057D01*
X168756336Y-89410059D01*
X168588066Y-89688410D01*
X168588058Y-89688423D01*
X168586129Y-89691616D01*
X168584592Y-89695030D01*
X168584592Y-89695031D01*
X168516747Y-89845777D01*
X168449564Y-89995050D01*
X168448451Y-89998621D01*
X168448449Y-89998627D01*
X168351685Y-90309155D01*
X168351682Y-90309164D01*
X168350571Y-90312732D01*
X168349899Y-90316398D01*
X168349896Y-90316411D01*
X168291266Y-90636346D01*
X168290591Y-90640031D01*
X168290365Y-90643754D01*
X168290364Y-90643769D01*
X168272853Y-90933278D01*
X168270500Y-90972173D01*
X154024325Y-90972173D01*
X154154009Y-90867157D01*
X154417157Y-90604009D01*
X154651357Y-90314796D01*
X154854043Y-90002687D01*
X155022995Y-89671100D01*
X155156361Y-89323671D01*
X155252680Y-88964204D01*
X155310896Y-88596638D01*
X155330373Y-88225000D01*
X155310896Y-87853362D01*
X155252680Y-87485796D01*
X155156361Y-87126329D01*
X155022995Y-86778900D01*
X154854043Y-86447314D01*
X154651357Y-86135204D01*
X154417157Y-85845991D01*
X154154009Y-85582843D01*
X153864796Y-85348643D01*
X153552687Y-85145957D01*
X153549799Y-85144485D01*
X153549793Y-85144482D01*
X153223992Y-84978478D01*
X153223983Y-84978474D01*
X153221100Y-84977005D01*
X153218068Y-84975841D01*
X152876692Y-84844798D01*
X152876680Y-84844794D01*
X152873671Y-84843639D01*
X152870557Y-84842804D01*
X152870546Y-84842801D01*
X152517345Y-84748161D01*
X152517333Y-84748158D01*
X152514204Y-84747320D01*
X152510992Y-84746811D01*
X152510986Y-84746810D01*
X152149843Y-84689611D01*
X152149831Y-84689609D01*
X152146638Y-84689104D01*
X152143403Y-84688934D01*
X152143399Y-84688934D01*
X151778244Y-84669797D01*
X151775000Y-84669627D01*
X151771756Y-84669797D01*
X151406600Y-84688934D01*
X151406594Y-84688934D01*
X151403362Y-84689104D01*
X151400170Y-84689609D01*
X151400156Y-84689611D01*
X151039013Y-84746810D01*
X151039004Y-84746811D01*
X151035796Y-84747320D01*
X151032670Y-84748157D01*
X151032654Y-84748161D01*
X150679453Y-84842801D01*
X150679436Y-84842806D01*
X150676329Y-84843639D01*
X150673324Y-84844792D01*
X150673307Y-84844798D01*
X150331931Y-84975841D01*
X150331922Y-84975844D01*
X150328900Y-84977005D01*
X150326023Y-84978470D01*
X150326007Y-84978478D01*
X150000207Y-85144482D01*
X150000193Y-85144489D01*
X149997314Y-85145957D01*
X149994594Y-85147723D01*
X149994586Y-85147728D01*
X149687932Y-85346871D01*
X149687926Y-85346874D01*
X149685204Y-85348643D01*
X149682684Y-85350683D01*
X149682678Y-85350688D01*
X149398509Y-85580803D01*
X149398498Y-85580812D01*
X149395991Y-85582843D01*
X149393706Y-85585127D01*
X149393696Y-85585137D01*
X149135137Y-85843696D01*
X149135127Y-85843706D01*
X149132843Y-85845991D01*
X149130812Y-85848498D01*
X149130803Y-85848509D01*
X148900688Y-86132678D01*
X148900683Y-86132684D01*
X148898643Y-86135204D01*
X148896874Y-86137926D01*
X148896871Y-86137932D01*
X148697728Y-86444586D01*
X148697723Y-86444594D01*
X148695957Y-86447314D01*
X148694489Y-86450193D01*
X148694482Y-86450207D01*
X148528478Y-86776007D01*
X148528470Y-86776023D01*
X148527005Y-86778900D01*
X148525844Y-86781922D01*
X148525841Y-86781931D01*
X148394798Y-87123307D01*
X148394792Y-87123324D01*
X148393639Y-87126329D01*
X148392806Y-87129436D01*
X148392801Y-87129453D01*
X148298161Y-87482654D01*
X148298157Y-87482670D01*
X148297320Y-87485796D01*
X148296811Y-87489004D01*
X148296810Y-87489013D01*
X148239611Y-87850156D01*
X148239609Y-87850170D01*
X148239104Y-87853362D01*
X148238934Y-87856594D01*
X148238934Y-87856600D01*
X148219796Y-88221756D01*
X148219796Y-88221775D01*
X148219627Y-88225000D01*
X129775645Y-88225000D01*
X129809719Y-88158126D01*
X129830804Y-88025000D01*
X129809719Y-87891874D01*
X129748528Y-87771780D01*
X129748527Y-87771778D01*
X129653221Y-87676472D01*
X129533124Y-87615280D01*
X129399999Y-87594195D01*
X129266875Y-87615280D01*
X129146778Y-87676472D01*
X129051472Y-87771778D01*
X128990280Y-87891875D01*
X128969195Y-88024999D01*
X103319891Y-88024999D01*
X103310896Y-87853362D01*
X103262849Y-87549999D01*
X136519195Y-87549999D01*
X136540280Y-87683124D01*
X136601472Y-87803221D01*
X136696778Y-87898527D01*
X136696780Y-87898528D01*
X136816874Y-87959719D01*
X136950000Y-87980804D01*
X137083126Y-87959719D01*
X137203220Y-87898528D01*
X137298528Y-87803220D01*
X137359719Y-87683126D01*
X137380804Y-87550000D01*
X137359719Y-87416874D01*
X137298528Y-87296780D01*
X137298527Y-87296778D01*
X137203221Y-87201472D01*
X137083124Y-87140280D01*
X136950000Y-87119195D01*
X136816875Y-87140280D01*
X136696778Y-87201472D01*
X136601472Y-87296778D01*
X136540280Y-87416875D01*
X136519195Y-87549999D01*
X103262849Y-87549999D01*
X103252680Y-87485796D01*
X103156361Y-87126329D01*
X103022995Y-86778900D01*
X102854043Y-86447314D01*
X102651357Y-86135204D01*
X102417157Y-85845991D01*
X102154009Y-85582843D01*
X101864796Y-85348643D01*
X101552687Y-85145957D01*
X101549799Y-85144485D01*
X101549793Y-85144482D01*
X101255590Y-84994578D01*
X114049500Y-84994578D01*
X114049501Y-84997872D01*
X114049853Y-85001152D01*
X114049854Y-85001159D01*
X114055909Y-85057484D01*
X114065233Y-85082483D01*
X114106204Y-85192331D01*
X114192454Y-85307546D01*
X114307669Y-85393796D01*
X114442517Y-85444091D01*
X114502127Y-85450500D01*
X115297872Y-85450499D01*
X115357483Y-85444091D01*
X115492331Y-85393796D01*
X115607546Y-85307546D01*
X115693796Y-85192331D01*
X115744091Y-85057483D01*
X115750500Y-84997873D01*
X115750500Y-84646113D01*
X118049500Y-84646113D01*
X118049862Y-84649448D01*
X118049863Y-84649453D01*
X118064485Y-84783908D01*
X118081581Y-84834646D01*
X118123556Y-84959221D01*
X118197720Y-85082484D01*
X118218931Y-85117737D01*
X118309487Y-85213336D01*
X118346151Y-85252041D01*
X118499270Y-85355858D01*
X118499271Y-85355858D01*
X118499272Y-85355859D01*
X118671121Y-85424330D01*
X118671123Y-85424330D01*
X118671125Y-85424331D01*
X118853683Y-85454260D01*
X119038407Y-85444245D01*
X119216659Y-85394754D01*
X119380104Y-85308100D01*
X119521100Y-85188337D01*
X119606205Y-85076381D01*
X119633055Y-85041063D01*
X119710731Y-84873169D01*
X119710730Y-84873169D01*
X119710732Y-84873167D01*
X119750500Y-84692497D01*
X119750500Y-84646113D01*
X120049500Y-84646113D01*
X120049862Y-84649448D01*
X120049863Y-84649453D01*
X120064485Y-84783908D01*
X120081581Y-84834646D01*
X120123556Y-84959221D01*
X120197720Y-85082484D01*
X120218931Y-85117737D01*
X120309487Y-85213336D01*
X120346151Y-85252041D01*
X120499270Y-85355858D01*
X120499271Y-85355858D01*
X120499272Y-85355859D01*
X120671121Y-85424330D01*
X120671123Y-85424330D01*
X120671125Y-85424331D01*
X120853683Y-85454260D01*
X121038407Y-85444245D01*
X121216659Y-85394754D01*
X121380104Y-85308100D01*
X121521100Y-85188337D01*
X121606205Y-85076381D01*
X121633055Y-85041063D01*
X121710731Y-84873169D01*
X121710730Y-84873169D01*
X121710732Y-84873167D01*
X121750500Y-84692497D01*
X121750500Y-84646113D01*
X122049500Y-84646113D01*
X122049862Y-84649448D01*
X122049863Y-84649453D01*
X122064485Y-84783908D01*
X122081581Y-84834646D01*
X122123556Y-84959221D01*
X122197720Y-85082484D01*
X122218931Y-85117737D01*
X122309487Y-85213336D01*
X122346151Y-85252041D01*
X122499270Y-85355858D01*
X122499271Y-85355858D01*
X122499272Y-85355859D01*
X122671121Y-85424330D01*
X122671123Y-85424330D01*
X122671125Y-85424331D01*
X122853683Y-85454260D01*
X123038407Y-85444245D01*
X123216659Y-85394754D01*
X123380104Y-85308100D01*
X123521100Y-85188337D01*
X123606205Y-85076381D01*
X123633055Y-85041063D01*
X123642995Y-85019578D01*
X128724500Y-85019578D01*
X128724501Y-85022872D01*
X128724853Y-85026152D01*
X128724854Y-85026159D01*
X128730909Y-85082484D01*
X128744058Y-85117737D01*
X128781204Y-85217331D01*
X128867454Y-85332546D01*
X128982669Y-85418796D01*
X129117517Y-85469091D01*
X129177127Y-85475500D01*
X129972872Y-85475499D01*
X130032483Y-85469091D01*
X130167331Y-85418796D01*
X130282546Y-85332546D01*
X130368796Y-85217331D01*
X130419091Y-85082483D01*
X130425500Y-85022873D01*
X130425500Y-84671113D01*
X130724500Y-84671113D01*
X130724862Y-84674448D01*
X130724863Y-84674453D01*
X130739485Y-84808908D01*
X130748640Y-84836079D01*
X130798556Y-84984221D01*
X130893930Y-85142736D01*
X131021151Y-85277041D01*
X131174270Y-85380858D01*
X131174271Y-85380858D01*
X131174272Y-85380859D01*
X131346121Y-85449330D01*
X131346123Y-85449330D01*
X131346125Y-85449331D01*
X131528683Y-85479260D01*
X131713407Y-85469245D01*
X131891659Y-85419754D01*
X132055104Y-85333100D01*
X132196100Y-85213337D01*
X132308054Y-85066064D01*
X132308053Y-85066064D01*
X132308055Y-85066063D01*
X132385731Y-84898169D01*
X132385730Y-84898169D01*
X132385732Y-84898167D01*
X132425500Y-84717497D01*
X132425500Y-84671113D01*
X134724500Y-84671113D01*
X134724862Y-84674448D01*
X134724863Y-84674453D01*
X134739485Y-84808908D01*
X134748640Y-84836079D01*
X134798556Y-84984221D01*
X134893930Y-85142736D01*
X135021151Y-85277041D01*
X135174270Y-85380858D01*
X135174271Y-85380858D01*
X135174272Y-85380859D01*
X135346121Y-85449330D01*
X135346123Y-85449330D01*
X135346125Y-85449331D01*
X135528683Y-85479260D01*
X135713407Y-85469245D01*
X135891659Y-85419754D01*
X136055104Y-85333100D01*
X136196100Y-85213337D01*
X136308054Y-85066064D01*
X136308053Y-85066064D01*
X136308055Y-85066063D01*
X136385731Y-84898169D01*
X136385730Y-84898169D01*
X136385732Y-84898167D01*
X136425500Y-84717497D01*
X136425500Y-84028887D01*
X136410514Y-83891090D01*
X136351444Y-83715779D01*
X136256070Y-83557264D01*
X136128849Y-83422959D01*
X135975730Y-83319142D01*
X135975729Y-83319141D01*
X135975727Y-83319140D01*
X135803878Y-83250669D01*
X135712596Y-83235704D01*
X135621317Y-83220740D01*
X135621314Y-83220740D01*
X135436592Y-83230754D01*
X135258341Y-83280245D01*
X135094896Y-83366899D01*
X134953899Y-83486663D01*
X134841944Y-83633936D01*
X134764268Y-83801830D01*
X134728847Y-83962755D01*
X134724500Y-83982503D01*
X134724500Y-84671113D01*
X132425500Y-84671113D01*
X132425500Y-84028887D01*
X132410514Y-83891090D01*
X132351444Y-83715779D01*
X132256070Y-83557264D01*
X132128849Y-83422959D01*
X131975730Y-83319142D01*
X131975729Y-83319141D01*
X131975727Y-83319140D01*
X131803878Y-83250669D01*
X131712596Y-83235704D01*
X131621317Y-83220740D01*
X131621314Y-83220740D01*
X131436592Y-83230754D01*
X131258341Y-83280245D01*
X131094896Y-83366899D01*
X130953899Y-83486663D01*
X130841944Y-83633936D01*
X130764268Y-83801830D01*
X130728847Y-83962755D01*
X130724500Y-83982503D01*
X130724500Y-84671113D01*
X130425500Y-84671113D01*
X130425499Y-83677128D01*
X130419091Y-83617517D01*
X130368796Y-83482669D01*
X130282546Y-83367454D01*
X130167331Y-83281204D01*
X130032483Y-83230909D01*
X129972873Y-83224500D01*
X129969550Y-83224500D01*
X129180439Y-83224500D01*
X129180420Y-83224500D01*
X129177128Y-83224501D01*
X129173848Y-83224853D01*
X129173840Y-83224854D01*
X129117515Y-83230909D01*
X128982669Y-83281204D01*
X128867454Y-83367454D01*
X128781204Y-83482668D01*
X128730910Y-83617515D01*
X128730909Y-83617517D01*
X128724500Y-83677127D01*
X128724500Y-83680448D01*
X128724500Y-83680449D01*
X128724500Y-85019560D01*
X128724500Y-85019578D01*
X123642995Y-85019578D01*
X123710731Y-84873169D01*
X123710730Y-84873169D01*
X123710732Y-84873167D01*
X123750500Y-84692497D01*
X123750500Y-84003887D01*
X123735514Y-83866090D01*
X123676444Y-83690779D01*
X123581070Y-83532264D01*
X123453849Y-83397959D01*
X123300730Y-83294142D01*
X123300729Y-83294141D01*
X123300727Y-83294140D01*
X123128878Y-83225669D01*
X123037596Y-83210704D01*
X122946317Y-83195740D01*
X122946314Y-83195740D01*
X122761592Y-83205754D01*
X122583341Y-83255245D01*
X122419896Y-83341899D01*
X122278899Y-83461663D01*
X122166944Y-83608936D01*
X122089268Y-83776830D01*
X122056934Y-83923728D01*
X122049500Y-83957503D01*
X122049500Y-84646113D01*
X121750500Y-84646113D01*
X121750500Y-84003887D01*
X121735514Y-83866090D01*
X121676444Y-83690779D01*
X121581070Y-83532264D01*
X121453849Y-83397959D01*
X121300730Y-83294142D01*
X121300729Y-83294141D01*
X121300727Y-83294140D01*
X121128878Y-83225669D01*
X121037596Y-83210704D01*
X120946317Y-83195740D01*
X120946314Y-83195740D01*
X120761592Y-83205754D01*
X120583341Y-83255245D01*
X120419896Y-83341899D01*
X120278899Y-83461663D01*
X120166944Y-83608936D01*
X120089268Y-83776830D01*
X120056934Y-83923728D01*
X120049500Y-83957503D01*
X120049500Y-84646113D01*
X119750500Y-84646113D01*
X119750500Y-84003887D01*
X119735514Y-83866090D01*
X119676444Y-83690779D01*
X119581070Y-83532264D01*
X119453849Y-83397959D01*
X119300730Y-83294142D01*
X119300729Y-83294141D01*
X119300727Y-83294140D01*
X119128878Y-83225669D01*
X119037596Y-83210704D01*
X118946317Y-83195740D01*
X118946314Y-83195740D01*
X118761592Y-83205754D01*
X118583341Y-83255245D01*
X118419896Y-83341899D01*
X118278899Y-83461663D01*
X118166944Y-83608936D01*
X118089268Y-83776830D01*
X118056934Y-83923728D01*
X118049500Y-83957503D01*
X118049500Y-84646113D01*
X115750500Y-84646113D01*
X115750499Y-83652128D01*
X115744091Y-83592517D01*
X115693796Y-83457669D01*
X115607546Y-83342454D01*
X115492331Y-83256204D01*
X115357483Y-83205909D01*
X115297873Y-83199500D01*
X115294550Y-83199500D01*
X114505439Y-83199500D01*
X114505420Y-83199500D01*
X114502128Y-83199501D01*
X114498848Y-83199853D01*
X114498840Y-83199854D01*
X114442515Y-83205909D01*
X114307669Y-83256204D01*
X114192454Y-83342454D01*
X114106204Y-83457668D01*
X114055910Y-83592515D01*
X114055909Y-83592517D01*
X114049500Y-83652127D01*
X114049500Y-83655448D01*
X114049500Y-83655449D01*
X114049500Y-84994560D01*
X114049500Y-84994578D01*
X101255590Y-84994578D01*
X101223992Y-84978478D01*
X101223983Y-84978474D01*
X101221100Y-84977005D01*
X101218068Y-84975841D01*
X100876692Y-84844798D01*
X100876680Y-84844794D01*
X100873671Y-84843639D01*
X100870557Y-84842804D01*
X100870546Y-84842801D01*
X100517345Y-84748161D01*
X100517333Y-84748158D01*
X100514204Y-84747320D01*
X100510992Y-84746811D01*
X100510986Y-84746810D01*
X100149843Y-84689611D01*
X100149831Y-84689609D01*
X100146638Y-84689104D01*
X100143403Y-84688934D01*
X100143399Y-84688934D01*
X99778244Y-84669797D01*
X99775000Y-84669627D01*
X99771756Y-84669797D01*
X99406600Y-84688934D01*
X99406594Y-84688934D01*
X99403362Y-84689104D01*
X99400170Y-84689609D01*
X99400156Y-84689611D01*
X99039013Y-84746810D01*
X99039004Y-84746811D01*
X99035796Y-84747320D01*
X99032670Y-84748157D01*
X99032654Y-84748161D01*
X98679453Y-84842801D01*
X98679436Y-84842806D01*
X98676329Y-84843639D01*
X98673324Y-84844792D01*
X98673307Y-84844798D01*
X98331931Y-84975841D01*
X98331922Y-84975844D01*
X98328900Y-84977005D01*
X98326023Y-84978470D01*
X98326007Y-84978478D01*
X98000207Y-85144482D01*
X98000193Y-85144489D01*
X97997314Y-85145957D01*
X97994594Y-85147723D01*
X97994586Y-85147728D01*
X97687932Y-85346871D01*
X97687926Y-85346874D01*
X97685204Y-85348643D01*
X97682684Y-85350683D01*
X97682678Y-85350688D01*
X97398509Y-85580803D01*
X97398498Y-85580812D01*
X97395991Y-85582843D01*
X97393706Y-85585127D01*
X97393696Y-85585137D01*
X97135137Y-85843696D01*
X97135127Y-85843706D01*
X97132843Y-85845991D01*
X97130812Y-85848498D01*
X97130803Y-85848509D01*
X96900688Y-86132678D01*
X96900683Y-86132684D01*
X96898643Y-86135204D01*
X96896874Y-86137926D01*
X96896871Y-86137932D01*
X96697728Y-86444586D01*
X96697723Y-86444594D01*
X96695957Y-86447314D01*
X96694489Y-86450193D01*
X96694482Y-86450207D01*
X96528478Y-86776007D01*
X96528470Y-86776023D01*
X96527005Y-86778900D01*
X96525844Y-86781922D01*
X96525841Y-86781931D01*
X96394798Y-87123307D01*
X96394792Y-87123324D01*
X96393639Y-87126329D01*
X96392806Y-87129436D01*
X96392801Y-87129453D01*
X96298161Y-87482654D01*
X96298157Y-87482670D01*
X96297320Y-87485796D01*
X96296811Y-87489004D01*
X96296810Y-87489013D01*
X96239611Y-87850156D01*
X96239609Y-87850170D01*
X96239104Y-87853362D01*
X96238934Y-87856594D01*
X96238934Y-87856600D01*
X96236737Y-87898527D01*
X96219627Y-88225000D01*
X82914140Y-88225000D01*
X82779763Y-88216872D01*
X82776027Y-88216646D01*
X82772291Y-88216872D01*
X82447623Y-88236510D01*
X82447608Y-88236511D01*
X82443885Y-88236737D01*
X82440204Y-88237411D01*
X82440200Y-88237412D01*
X82120265Y-88296042D01*
X82120252Y-88296045D01*
X82116586Y-88296717D01*
X82113018Y-88297828D01*
X82113009Y-88297831D01*
X81802481Y-88394595D01*
X81802475Y-88394597D01*
X81798904Y-88395710D01*
X81795495Y-88397244D01*
X81795493Y-88397245D01*
X81665381Y-88455804D01*
X81495470Y-88532275D01*
X81492277Y-88534204D01*
X81492264Y-88534212D01*
X81213913Y-88702482D01*
X81210709Y-88704419D01*
X81207767Y-88706723D01*
X81207761Y-88706728D01*
X81022496Y-88851874D01*
X80948775Y-88909631D01*
X80946129Y-88912276D01*
X80946121Y-88912284D01*
X80716138Y-89142267D01*
X80716130Y-89142275D01*
X80713485Y-89144921D01*
X80711173Y-89147871D01*
X80711173Y-89147872D01*
X80510582Y-89403907D01*
X80510577Y-89403913D01*
X80508273Y-89406855D01*
X80506336Y-89410057D01*
X80506336Y-89410059D01*
X80338066Y-89688410D01*
X80338058Y-89688423D01*
X80336129Y-89691616D01*
X80334592Y-89695030D01*
X80334592Y-89695031D01*
X80266747Y-89845777D01*
X80199564Y-89995050D01*
X80198451Y-89998621D01*
X80198449Y-89998627D01*
X80101685Y-90309155D01*
X80101682Y-90309164D01*
X80100571Y-90312732D01*
X80099899Y-90316398D01*
X80099896Y-90316411D01*
X80071469Y-90471535D01*
X80040022Y-90533928D01*
X79979836Y-90569415D01*
X79910018Y-90566729D01*
X79852735Y-90526724D01*
X79826175Y-90462099D01*
X79825500Y-90449183D01*
X79825500Y-87575016D01*
X79825501Y-87575013D01*
X79825500Y-87531000D01*
X79825707Y-87523839D01*
X79828750Y-87471247D01*
X79843099Y-87223220D01*
X79844748Y-87209009D01*
X79896082Y-86915915D01*
X79899358Y-86902002D01*
X79984151Y-86616790D01*
X79989005Y-86603357D01*
X80106142Y-86329796D01*
X80112507Y-86317027D01*
X80260400Y-86058827D01*
X80268221Y-86046838D01*
X80277784Y-86033880D01*
X80444894Y-85807434D01*
X80454041Y-85796432D01*
X80657159Y-85578992D01*
X80667498Y-85569133D01*
X80894346Y-85376565D01*
X80905761Y-85367959D01*
X81153297Y-85202846D01*
X81165635Y-85195609D01*
X81430556Y-85060152D01*
X81443645Y-85054387D01*
X81722426Y-84950387D01*
X81736099Y-84946169D01*
X82025003Y-84875019D01*
X82039062Y-84872407D01*
X82337492Y-84834643D01*
X82344570Y-84833954D01*
X82388854Y-84830936D01*
X82388854Y-84830935D01*
X82413619Y-84829248D01*
X82413638Y-84829245D01*
X88200784Y-84434666D01*
X88200792Y-84434666D01*
X88217329Y-84433538D01*
X88217330Y-84433539D01*
X88264814Y-84430301D01*
X88292593Y-84428407D01*
X88292594Y-84428406D01*
X88310692Y-84427172D01*
X88310705Y-84427169D01*
X88648449Y-84404135D01*
X88648449Y-84404134D01*
X88650304Y-84403966D01*
X89413777Y-84328528D01*
X89415661Y-84328299D01*
X90176454Y-84229699D01*
X90178320Y-84229414D01*
X90935775Y-84107737D01*
X90937630Y-84107396D01*
X91691039Y-83962755D01*
X91692870Y-83962360D01*
X92441548Y-83794889D01*
X92443374Y-83794437D01*
X92709693Y-83726298D01*
X92732301Y-83720516D01*
X92732309Y-83720516D01*
X92759658Y-83713519D01*
X92759660Y-83713520D01*
X92850066Y-83690393D01*
X92860191Y-83687803D01*
X92860191Y-83687802D01*
X92901340Y-83677276D01*
X92901344Y-83677274D01*
X96629342Y-82723600D01*
X142819195Y-82723600D01*
X142840280Y-82856724D01*
X142901472Y-82976821D01*
X142996778Y-83072127D01*
X142996780Y-83072128D01*
X143116874Y-83133319D01*
X143250000Y-83154404D01*
X143383126Y-83133319D01*
X143503220Y-83072128D01*
X143598528Y-82976820D01*
X143659719Y-82856726D01*
X143680804Y-82723600D01*
X143659719Y-82590474D01*
X143598528Y-82470380D01*
X143598527Y-82470378D01*
X143503221Y-82375072D01*
X143383124Y-82313880D01*
X143250000Y-82292795D01*
X143116875Y-82313880D01*
X142996778Y-82375072D01*
X142901472Y-82470378D01*
X142840280Y-82590475D01*
X142819195Y-82723600D01*
X96629342Y-82723600D01*
X108439959Y-79702279D01*
X109308536Y-79494499D01*
X109343232Y-79486200D01*
X109346952Y-79485371D01*
X110253777Y-79298256D01*
X110257528Y-79297543D01*
X111169697Y-79138915D01*
X111173443Y-79138323D01*
X112090250Y-79008307D01*
X112094011Y-79007834D01*
X113014337Y-78906590D01*
X113018148Y-78906231D01*
X113941181Y-78833843D01*
X113945038Y-78833601D01*
X114869903Y-78790140D01*
X114873673Y-78790021D01*
X115800383Y-78775515D01*
X135323352Y-78775500D01*
X136239654Y-78789666D01*
G37*
G04 #@! TD.AperFunction*
M02*
