M48
; DRILL file {KiCad 7.0.2-0} date 2023 October 11, Wednesday 21:53:30
; FORMAT={-:-/ absolute / metric / decimal}
; #@! TF.CreationDate,2023-10-11T21:53:30-07:00
; #@! TF.GenerationSoftware,Kicad,Pcbnew,7.0.2-0
; #@! TF.FileFunction,Plated,1,4,PTH
FMAT,2
METRIC
; #@! TA.AperFunction,Plated,PTH,ViaDrill
T1C0.200
; #@! TA.AperFunction,Plated,PTH,ComponentDrill
T2C0.200
; #@! TA.AperFunction,Plated,PTH,ViaDrill
T3C0.300
; #@! TA.AperFunction,Plated,PTH,ViaDrill
T4C0.400
; #@! TA.AperFunction,Plated,PTH,ComponentDrill
T5C0.500
; #@! TA.AperFunction,Plated,PTH,ComponentDrill
T6C0.600
; #@! TA.AperFunction,Plated,PTH,ComponentDrill
T7C0.650
; #@! TA.AperFunction,Plated,PTH,ComponentDrill
T8C0.750
; #@! TA.AperFunction,Plated,PTH,ComponentDrill
T9C2.500
%
G90
G05
T1
X108.45Y-93.3
X109.1Y-102.75
X109.275Y-93.3
X109.275Y-109.375
X109.575Y-95.1
X109.575Y-95.975
X110.31Y-103.57
X110.31Y-104.945
X110.5Y-95.725
X110.995Y-104.245
X111.625Y-118.3
X111.66Y-104.945
X111.685Y-103.57
X111.79Y-94.35
X111.825Y-115.2
X112.525Y-100.075
X112.625Y-118.275
X113.475Y-99.625
X113.655Y-95.365
X114.345Y-98.495
X114.425Y-115.4
X114.58Y-90.915
X114.7Y-103.875
X114.825Y-113.925
X115.225Y-106.1
X115.25Y-111.525
X115.26Y-95.317
X115.575Y-113.1
X115.675Y-106.95
X116.2Y-104.05
X116.325Y-110.375
X116.5Y-113.35
X116.625Y-102.75
X116.65Y-92.8
X116.655Y-99.835
X117.195Y-90.397
X117.275Y-99.35
X117.325Y-92.15
X117.375Y-103.625
X117.375Y-117.8
X117.575Y-108.925
X117.912Y-104.137
X117.925Y-107.1
X118.375Y-111.775
X118.475Y-102.95
X118.525Y-101.575
X119.05Y-102.125
X119.233Y-111.8
X119.375Y-96.975
X119.405Y-94.945
X119.635Y-105.615
X119.655Y-104.115
X120.025Y-111.775
X120.155Y-107.865
X120.194Y-100.025
X120.2Y-117.675
X120.394Y-95.917
X120.4Y-104.887
X120.425Y-108.935
X120.595Y-93.295
X120.775Y-90.975
X120.855Y-107.865
X121.145Y-104.105
X121.165Y-105.625
X121.255Y-89.975
X121.345Y-94.955
X121.375Y-96.945
X121.385Y-93.275
X121.637Y-107.862
X121.7Y-98.45
X121.895Y-88.985
X122.375Y-97.925
X122.475Y-107.45
X122.585Y-100.525
X122.612Y-91.672
X122.737Y-109.662
X122.9Y-94.1
X122.95Y-93.325
X122.965Y-103.635
X123.025Y-95.715
X123.405Y-105.855
X123.405Y-106.555
X123.48Y-104.88
X123.55Y-90.475
X123.775Y-89.6
X124.025Y-104.275
X124.25Y-91.925
X124.325Y-103.175
X124.35Y-99.35
X124.75Y-94.025
X125.875Y-94.475
X125.938Y-93.688
X126.325Y-89.675
X127.15Y-109.5
X127.5Y-112.825
X127.575Y-113.55
X127.925Y-95.65
X128.15Y-108.05
X128.5Y-113.1
X129.35Y-115.15
X129.4Y-88.025
X129.57Y-93.305
X129.8Y-108.025
X129.963Y-109.012
X130.28Y-111.255
X130.55Y-113.15
X130.605Y-105.985
X130.65Y-95.275
X131.375Y-96.375
X131.4Y-92.625
X131.865Y-107.755
X131.95Y-93.15
X132.335Y-104.025
X133.0Y-95.85
X133.05Y-91.825
X133.3Y-96.6
X134.075Y-96.675
X134.265Y-94.635
X134.285Y-93.135
X134.8Y-96.725
X134.942Y-111.527
X135.025Y-115.91
X135.03Y-93.907
X135.05Y-107.875
X135.3Y-90.625
X135.477Y-111.017
X135.55Y-96.675
X135.775Y-93.125
X135.795Y-94.645
X136.275Y-107.85
X136.325Y-96.725
X136.95Y-87.55
X137.025Y-95.825
X137.075Y-89.075
X137.1Y-91.8
X137.56Y-112.72
X137.675Y-106.0
X137.963Y-88.787
X138.425Y-105.025
X138.755Y-103.47
X139.275Y-108.45
X139.475Y-96.7
X140.2Y-96.7
X140.285Y-108.545
X140.45Y-94.025
X140.575Y-107.375
X140.7Y-95.65
X141.2Y-92.1
X141.2Y-96.675
X141.5Y-87.375
X141.925Y-103.975
X142.05Y-96.675
X142.375Y-94.9
X142.425Y-92.575
X143.2Y-95.575
X143.25Y-82.724
X143.275Y-83.426
X143.9Y-109.05
X143.9Y-109.9
X143.925Y-108.3
X144.15Y-104.675
X144.565Y-96.745
X144.7Y-109.675
X144.825Y-93.535
X145.289Y-104.564
X145.455Y-109.675
X145.625Y-96.7
X146.05Y-87.4
X146.35Y-93.1
X147.575Y-104.875
X148.655Y-99.47
X149.325Y-107.375
X149.875Y-108.525
X149.95Y-106.025
X150.185Y-99.45
X150.37Y-95.7
X150.875Y-107.885
X152.8Y-94.95
X152.95Y-92.9
X153.7Y-92.375
X153.725Y-95.45
X153.825Y-96.325
X155.45Y-110.825
X155.8Y-109.075
X156.1Y-96.85
X176.025Y-94.95
X176.825Y-94.925
X177.713Y-94.938
X178.35Y-95.3
X178.725Y-91.825
X179.096Y-89.997
X179.45Y-92.4
X179.45Y-93.175
X180.296Y-87.247
X180.625Y-93.6
X181.426Y-90.522
X182.5Y-88.95
X182.676Y-91.822
X182.676Y-93.197
X183.351Y-92.472
X183.438Y-95.262
X184.051Y-91.822
X184.051Y-93.197
X184.076Y-86.847
X184.225Y-95.3
X185.025Y-95.075
X185.45Y-89.6
X185.45Y-90.475
X185.625Y-94.675
X189.275Y-94.275
X189.476Y-88.697
X191.325Y-93.425
X191.376Y-89.672
X193.426Y-89.947
X195.95Y-108.425
X196.601Y-92.272
X197.075Y-110.65
X197.25Y-90.925
X199.001Y-93.822
X199.025Y-90.975
X200.901Y-93.872
X204.475Y-90.75
X204.475Y-93.725
X204.75Y-113.45
T2
X131.34Y-110.14
X132.09Y-109.365
X132.09Y-110.14
X132.09Y-110.915
X133.14Y-109.365
X133.14Y-110.14
X133.14Y-110.915
X133.89Y-110.14
T3
X124.455Y-112.955
X124.455Y-113.955
X124.455Y-114.955
X125.455Y-112.955
X125.455Y-113.955
X125.455Y-114.955
X126.455Y-113.955
X126.455Y-114.955
X139.9Y-116.15
X140.9Y-116.15
X141.9Y-116.15
X142.9Y-116.15
X143.9Y-116.15
X163.275Y-105.85
X163.3Y-110.95
X182.625Y-103.35
X182.626Y-98.272
X182.675Y-105.9
X182.7Y-108.425
X182.7Y-110.975
X205.776Y-111.822
T4
X92.385Y-104.56
X92.395Y-102.17
X92.405Y-107.18
X92.405Y-109.75
X92.425Y-112.17
X92.435Y-97.41
X92.435Y-114.692
X92.445Y-99.8
X92.455Y-92.22
X92.455Y-94.79
X92.475Y-89.8
X92.485Y-87.202
X93.264Y-116.839
X93.325Y-85.175
X95.05Y-83.875
X95.445Y-118.175
X97.675Y-83.175
X97.935Y-118.825
X100.185Y-119.405
X100.3Y-82.525
X102.685Y-120.045
X102.725Y-81.9
X105.05Y-81.25
X105.085Y-120.685
X107.865Y-121.425
X107.875Y-80.6
X110.302Y-79.926
X110.378Y-121.72
X112.722Y-79.556
X112.739Y-122.327
X115.282Y-79.386
X117.817Y-122.537
X117.842Y-79.46
X120.317Y-122.537
X120.342Y-79.46
X122.842Y-79.46
X125.317Y-122.537
X125.342Y-79.46
X127.817Y-122.537
X127.842Y-79.46
X130.317Y-122.537
X130.342Y-79.46
X132.817Y-122.537
X132.881Y-79.473
X135.335Y-122.522
X135.36Y-79.475
X137.835Y-122.295
X137.942Y-79.575
X140.565Y-121.905
X140.672Y-79.846
X143.299Y-121.263
X143.425Y-80.65
X146.088Y-120.64
X146.176Y-81.425
X148.705Y-119.865
X148.775Y-82.125
X151.108Y-119.15
X151.225Y-82.825
X153.738Y-118.45
X153.775Y-83.575
X156.495Y-117.635
X156.525Y-93.175
X156.575Y-84.2
X159.496Y-112.542
X159.5Y-104.725
X159.501Y-96.172
X159.501Y-99.197
X159.501Y-102.322
X159.501Y-110.097
X159.505Y-114.915
X159.505Y-117.355
X159.525Y-106.925
X159.65Y-84.6
X160.8Y-93.1
X160.825Y-89.175
X162.001Y-96.172
X162.385Y-117.205
X162.53Y-84.75
X164.501Y-96.172
X164.995Y-117.055
X165.14Y-84.9
X165.2Y-93.05
X165.3Y-89.175
X167.001Y-96.172
X167.385Y-116.885
X167.53Y-85.07
X169.501Y-96.172
X169.995Y-116.775
X170.14Y-85.18
X172.001Y-96.172
X172.685Y-116.635
X172.83Y-85.32
X174.501Y-96.172
X175.675Y-116.435
X175.82Y-85.52
X177.001Y-96.172
X178.505Y-116.295
X178.65Y-85.66
X179.501Y-96.172
X181.305Y-116.175
X181.45Y-85.78
X181.8Y-96.172
X184.075Y-116.035
X184.22Y-85.92
X184.501Y-96.172
X186.6Y-87.975
X186.625Y-86.075
X186.625Y-94.095
X186.626Y-89.772
X186.626Y-96.152
X186.896Y-111.772
X186.896Y-113.892
X186.901Y-109.097
X186.92Y-115.875
X188.626Y-107.362
X189.501Y-96.172
X189.66Y-115.715
X189.831Y-86.2
X190.346Y-105.642
X192.116Y-98.942
X192.126Y-96.172
X192.126Y-101.622
X192.126Y-103.872
X192.49Y-115.575
X192.65Y-86.4
X194.501Y-96.172
X194.851Y-110.972
X195.29Y-115.455
X195.475Y-86.555
X197.001Y-96.172
X198.06Y-115.315
X198.235Y-86.675
X199.501Y-96.172
X200.326Y-110.872
X200.905Y-115.155
X201.065Y-86.875
X201.426Y-110.872
X201.476Y-104.647
X202.001Y-96.172
X202.551Y-110.872
X203.651Y-104.647
X203.685Y-114.985
X203.855Y-86.985
X204.501Y-96.172
X206.325Y-114.235
X206.346Y-87.655
X206.975Y-89.175
X206.995Y-96.175
X206.995Y-99.135
X206.995Y-104.135
X207.005Y-91.655
X207.005Y-94.075
X207.015Y-106.635
X207.015Y-109.125
X207.025Y-101.625
X207.025Y-111.875
T5
X80.901Y-90.972
X80.901Y-110.972
X81.45Y-89.646
X81.45Y-92.298
X81.45Y-109.646
X81.45Y-112.298
X82.776Y-89.097
X82.776Y-92.847
X82.776Y-109.097
X82.776Y-112.847
X84.102Y-89.646
X84.102Y-92.298
X84.102Y-109.646
X84.102Y-112.298
X84.651Y-90.972
X84.651Y-110.972
X169.151Y-90.972
X169.7Y-89.646
X169.7Y-92.298
X171.026Y-89.097
X171.026Y-92.847
X172.352Y-89.646
X172.352Y-92.298
X172.901Y-90.972
X189.151Y-110.972
X189.7Y-109.646
X189.7Y-112.298
X191.026Y-109.097
X191.026Y-112.847
X192.352Y-109.646
X192.352Y-112.298
X192.901Y-110.972
T7
X132.405Y-100.665
X132.405Y-101.935
X133.675Y-100.665
X133.675Y-101.935
X134.945Y-100.665
X134.945Y-101.935
X136.215Y-100.665
X136.215Y-101.935
X137.485Y-100.665
X137.485Y-101.935
X138.755Y-100.665
X138.755Y-101.935
X140.025Y-100.665
X140.025Y-101.935
X141.295Y-100.665
X141.295Y-101.935
X142.565Y-100.665
X142.565Y-101.935
X143.835Y-100.665
X143.835Y-101.935
X145.105Y-100.665
X145.105Y-101.935
X146.375Y-100.665
X146.375Y-101.935
X147.645Y-100.665
X147.645Y-101.935
X148.915Y-100.665
X148.915Y-101.935
X150.185Y-100.665
X150.185Y-101.935
X151.455Y-100.665
X151.455Y-101.935
X152.725Y-100.665
X152.725Y-101.935
X153.995Y-100.665
X153.995Y-101.935
T8
X114.9Y-84.325
X116.9Y-84.325
X118.9Y-84.325
X120.9Y-84.325
X122.9Y-84.325
X129.575Y-84.35
X131.575Y-84.35
X131.645Y-117.91
X133.575Y-84.35
X133.645Y-117.91
X135.575Y-84.35
T9
X82.776Y-90.972
X82.776Y-110.972
X171.026Y-90.972
X191.026Y-110.972
T6
X114.465Y-117.735G85X114.465Y-116.635
G05
X114.465Y-121.785G85X114.465Y-120.985
G05
X123.105Y-117.735G85X123.105Y-116.635
G05
X123.105Y-121.785G85X123.105Y-120.985
G05
T0
M30
