G04 #@! TF.GenerationSoftware,KiCad,Pcbnew,7.0.2-0*
G04 #@! TF.CreationDate,2023-10-11T21:53:26-07:00*
G04 #@! TF.ProjectId,low-power,6c6f772d-706f-4776-9572-2e6b69636164,rev?*
G04 #@! TF.SameCoordinates,Original*
G04 #@! TF.FileFunction,Soldermask,Top*
G04 #@! TF.FilePolarity,Negative*
%FSLAX46Y46*%
G04 Gerber Fmt 4.6, Leading zero omitted, Abs format (unit mm)*
G04 Created by KiCad (PCBNEW 7.0.2-0) date 2023-10-11 21:53:26*
%MOMM*%
%LPD*%
G01*
G04 APERTURE LIST*
G04 Aperture macros list*
%AMRoundRect*
0 Rectangle with rounded corners*
0 $1 Rounding radius*
0 $2 $3 $4 $5 $6 $7 $8 $9 X,Y pos of 4 corners*
0 Add a 4 corners polygon primitive as box body*
4,1,4,$2,$3,$4,$5,$6,$7,$8,$9,$2,$3,0*
0 Add four circle primitives for the rounded corners*
1,1,$1+$1,$2,$3*
1,1,$1+$1,$4,$5*
1,1,$1+$1,$6,$7*
1,1,$1+$1,$8,$9*
0 Add four rect primitives between the rounded corners*
20,1,$1+$1,$2,$3,$4,$5,0*
20,1,$1+$1,$4,$5,$6,$7,0*
20,1,$1+$1,$6,$7,$8,$9,0*
20,1,$1+$1,$8,$9,$2,$3,0*%
%AMFreePoly0*
4,1,557,-0.219239,2.454684,-0.218419,2.454743,-0.216188,2.454000,-0.215000,2.454000,-0.214239,2.453684,-0.213419,2.453743,-0.211188,2.453000,-0.210000,2.453000,-0.209239,2.452684,-0.208419,2.452743,-0.205419,2.451744,-0.205136,2.451498,-0.204764,2.451472,-0.203080,2.450630,-0.200419,2.449744,-0.199540,2.448982,-0.198464,2.448536,-0.197037,2.447108,-0.195764,2.446472,-0.195225,2.445851,
-0.194464,2.445536,-0.193037,2.444108,-0.191764,2.443472,-0.191225,2.442851,-0.190464,2.442536,-0.182465,2.434536,-0.182149,2.433775,-0.181528,2.433236,-0.180891,2.431963,-0.179465,2.430536,-0.179149,2.429775,-0.178528,2.429236,-0.177891,2.427963,-0.176465,2.426536,-0.176019,2.425460,-0.175257,2.424581,-0.174370,2.421920,-0.173528,2.420236,-0.173501,2.419862,-0.173257,2.419581,
-0.172257,2.416581,-0.172315,2.415760,-0.172000,2.415000,-0.172000,2.413810,-0.171257,2.411581,-0.171315,2.410760,-0.171000,2.410000,-0.171000,2.408810,-0.170257,2.406581,-0.170315,2.405760,-0.170000,2.405000,-0.170000,1.930000,0.170000,1.930000,0.170000,2.405000,0.170315,2.405760,0.170257,2.406581,0.171000,2.408812,0.171000,2.410000,0.171315,2.410760,0.171257,2.411581,
0.172000,2.413812,0.172000,2.415000,0.172315,2.415760,0.172257,2.416581,0.173256,2.419581,0.173501,2.419863,0.173528,2.420236,0.174369,2.421919,0.175256,2.424581,0.176017,2.425459,0.176464,2.426536,0.177891,2.427962,0.178528,2.429236,0.179148,2.429774,0.179464,2.430536,0.180891,2.431962,0.181528,2.433236,0.182148,2.433774,0.182464,2.434536,0.190464,2.442535,
0.191224,2.442850,0.191764,2.443472,0.193036,2.444108,0.194464,2.445535,0.195224,2.445850,0.195764,2.446472,0.197036,2.447108,0.198464,2.448535,0.199539,2.448980,0.200419,2.449743,0.203080,2.450630,0.204764,2.451472,0.205137,2.451498,0.205419,2.451743,0.208419,2.452743,0.209239,2.452684,0.210000,2.453000,0.211190,2.453000,0.213419,2.453743,0.214239,2.453684,
0.215000,2.454000,0.216190,2.454000,0.218419,2.454743,0.219239,2.454684,0.220000,2.455000,0.330000,2.455000,0.330760,2.454684,0.331581,2.454743,0.333812,2.454000,0.335000,2.454000,0.335760,2.453684,0.336581,2.453743,0.338812,2.453000,0.340000,2.453000,0.340760,2.452684,0.341581,2.452743,0.344581,2.451744,0.344863,2.451498,0.345236,2.451472,0.346919,2.450630,
0.349581,2.449744,0.350459,2.448982,0.351536,2.448536,0.352962,2.447108,0.354236,2.446472,0.354774,2.445851,0.355536,2.445536,0.356962,2.444108,0.358236,2.443472,0.358774,2.442851,0.359536,2.442536,0.367535,2.434536,0.367850,2.433775,0.368472,2.433236,0.369108,2.431963,0.370535,2.430536,0.370850,2.429775,0.371472,2.429236,0.372108,2.427963,0.373535,2.426536,
0.373980,2.425460,0.374743,2.424581,0.375630,2.421920,0.376472,2.420236,0.376498,2.419862,0.376743,2.419581,0.377743,2.416581,0.377684,2.415760,0.378000,2.415000,0.378000,2.413810,0.378743,2.411581,0.378684,2.410760,0.379000,2.410000,0.379000,2.408810,0.379743,2.406581,0.379684,2.405760,0.380000,2.405000,0.380000,1.530000,0.980000,1.530000,0.980760,1.529684,
0.981581,1.529743,0.983812,1.529000,0.985000,1.529000,0.985760,1.528684,0.986581,1.528743,0.988812,1.528000,0.990000,1.528000,0.990760,1.527684,0.991581,1.527743,0.994581,1.526744,0.994863,1.526498,0.995236,1.526472,0.996919,1.525630,0.998812,1.525000,1.025000,1.525000,1.025000,1.498810,1.025630,1.496920,1.026472,1.495236,1.026498,1.494862,1.026743,1.494581,
1.027743,1.491581,1.027684,1.490760,1.028000,1.490000,1.028000,1.488810,1.028743,1.486581,1.028684,1.485760,1.029000,1.485000,1.029000,1.483810,1.029743,1.481581,1.029684,1.480760,1.030000,1.480000,1.030000,-1.480000,1.029684,-1.480760,1.029743,-1.481581,1.029000,-1.483810,1.029000,-1.485000,1.028684,-1.485760,1.028743,-1.486581,1.028000,-1.488810,1.028000,-1.490000,
1.027684,-1.490760,1.027743,-1.491581,1.026743,-1.494581,1.026498,-1.494862,1.026472,-1.495236,1.025630,-1.496920,1.025000,-1.498810,1.025000,-1.525000,0.998812,-1.525000,0.996919,-1.525630,0.995236,-1.526472,0.994863,-1.526498,0.994581,-1.526744,0.991581,-1.527743,0.990760,-1.527684,0.990000,-1.528000,0.988812,-1.528000,0.986581,-1.528743,0.985760,-1.528684,0.985000,-1.529000,
0.983812,-1.529000,0.981581,-1.529743,0.980760,-1.529684,0.980000,-1.530000,0.380000,-1.530000,0.380000,-2.405000,0.379684,-2.405760,0.379743,-2.406581,0.379000,-2.408810,0.379000,-2.410000,0.378684,-2.410760,0.378743,-2.411581,0.378000,-2.413810,0.378000,-2.415000,0.377684,-2.415760,0.377743,-2.416581,0.376743,-2.419581,0.376498,-2.419862,0.376472,-2.420236,0.375630,-2.421920,
0.374743,-2.424581,0.373980,-2.425460,0.373535,-2.426536,0.372108,-2.427963,0.371472,-2.429236,0.370850,-2.429775,0.370535,-2.430536,0.369108,-2.431963,0.368472,-2.433236,0.367850,-2.433775,0.367535,-2.434536,0.359536,-2.442536,0.358774,-2.442851,0.358236,-2.443472,0.356962,-2.444108,0.355536,-2.445536,0.354774,-2.445851,0.354236,-2.446472,0.352962,-2.447108,0.351536,-2.448536,
0.350459,-2.448982,0.349581,-2.449744,0.346919,-2.450630,0.345236,-2.451472,0.344863,-2.451498,0.344581,-2.451744,0.341581,-2.452743,0.340760,-2.452684,0.340000,-2.453000,0.338812,-2.453000,0.336581,-2.453743,0.335760,-2.453684,0.335000,-2.454000,0.333812,-2.454000,0.331581,-2.454743,0.330760,-2.454684,0.330000,-2.455000,0.220000,-2.455000,0.219239,-2.454684,0.218419,-2.454743,
0.216190,-2.454000,0.215000,-2.454000,0.214239,-2.453684,0.213419,-2.453743,0.211190,-2.453000,0.210000,-2.453000,0.209239,-2.452684,0.208419,-2.452743,0.205419,-2.451743,0.205137,-2.451498,0.204764,-2.451472,0.203080,-2.450630,0.200419,-2.449743,0.199539,-2.448980,0.198464,-2.448535,0.197036,-2.447108,0.195764,-2.446472,0.195224,-2.445850,0.194464,-2.445535,0.193036,-2.444108,
0.191764,-2.443472,0.191224,-2.442850,0.190464,-2.442535,0.182464,-2.434536,0.182148,-2.433774,0.181528,-2.433236,0.180891,-2.431962,0.179464,-2.430536,0.179148,-2.429774,0.178528,-2.429236,0.177891,-2.427962,0.176464,-2.426536,0.176017,-2.425459,0.175256,-2.424581,0.174369,-2.421919,0.173528,-2.420236,0.173501,-2.419863,0.173256,-2.419581,0.172257,-2.416581,0.172315,-2.415760,
0.172000,-2.415000,0.172000,-2.413812,0.171257,-2.411581,0.171315,-2.410760,0.171000,-2.410000,0.171000,-2.408812,0.170257,-2.406581,0.170315,-2.405760,0.170000,-2.405000,0.170000,-1.930000,-0.170000,-1.930000,-0.170000,-2.405000,-0.170315,-2.405760,-0.170257,-2.406581,-0.171000,-2.408810,-0.171000,-2.410000,-0.171315,-2.410760,-0.171257,-2.411581,-0.172000,-2.413810,-0.172000,-2.415000,
-0.172315,-2.415760,-0.172257,-2.416581,-0.173257,-2.419581,-0.173501,-2.419862,-0.173528,-2.420236,-0.174370,-2.421920,-0.175257,-2.424581,-0.176019,-2.425460,-0.176465,-2.426536,-0.177891,-2.427963,-0.178528,-2.429236,-0.179149,-2.429775,-0.179465,-2.430536,-0.180891,-2.431963,-0.181528,-2.433236,-0.182149,-2.433775,-0.182465,-2.434536,-0.190464,-2.442536,-0.191225,-2.442851,-0.191764,-2.443472,
-0.193037,-2.444108,-0.194464,-2.445536,-0.195225,-2.445851,-0.195764,-2.446472,-0.197037,-2.447108,-0.198464,-2.448536,-0.199540,-2.448982,-0.200419,-2.449744,-0.203080,-2.450630,-0.204764,-2.451472,-0.205136,-2.451498,-0.205419,-2.451744,-0.208419,-2.452743,-0.209239,-2.452684,-0.210000,-2.453000,-0.211188,-2.453000,-0.213419,-2.453743,-0.214239,-2.453684,-0.215000,-2.454000,-0.216188,-2.454000,
-0.218419,-2.454743,-0.219239,-2.454684,-0.220000,-2.455000,-0.330000,-2.455000,-0.330760,-2.454684,-0.331581,-2.454743,-0.333810,-2.454000,-0.335000,-2.454000,-0.335760,-2.453684,-0.336581,-2.453743,-0.338810,-2.453000,-0.340000,-2.453000,-0.340760,-2.452684,-0.341581,-2.452743,-0.344581,-2.451743,-0.344862,-2.451498,-0.345236,-2.451472,-0.346920,-2.450630,-0.349581,-2.449743,-0.350460,-2.448980,
-0.351536,-2.448535,-0.352963,-2.447108,-0.354236,-2.446472,-0.354775,-2.445850,-0.355536,-2.445535,-0.356963,-2.444108,-0.358236,-2.443472,-0.358775,-2.442850,-0.359536,-2.442535,-0.367536,-2.434536,-0.367851,-2.433774,-0.368472,-2.433236,-0.369108,-2.431962,-0.370536,-2.430536,-0.370851,-2.429774,-0.371472,-2.429236,-0.372108,-2.427962,-0.373536,-2.426536,-0.373982,-2.425459,-0.374744,-2.424581,
-0.375630,-2.421919,-0.376472,-2.420236,-0.376498,-2.419863,-0.376744,-2.419581,-0.377743,-2.416581,-0.377684,-2.415760,-0.378000,-2.415000,-0.378000,-2.413812,-0.378743,-2.411581,-0.378684,-2.410760,-0.379000,-2.410000,-0.379000,-2.408812,-0.379743,-2.406581,-0.379684,-2.405760,-0.380000,-2.405000,-0.380000,-1.530000,-0.980000,-1.530000,-0.980760,-1.529684,-0.981581,-1.529743,-0.983810,-1.529000,
-0.985000,-1.529000,-0.985760,-1.528684,-0.986581,-1.528743,-0.988810,-1.528000,-0.990000,-1.528000,-0.990760,-1.527684,-0.991581,-1.527743,-0.994581,-1.526743,-0.994862,-1.526498,-0.995236,-1.526472,-0.996920,-1.525630,-0.998810,-1.525000,-1.025000,-1.525000,-1.025000,-1.498811,-1.025630,-1.496919,-1.026472,-1.495236,-1.026498,-1.494863,-1.026744,-1.494581,-1.027743,-1.491581,-1.027684,-1.490760,
-1.028000,-1.490000,-1.028000,-1.488812,-1.028743,-1.486581,-1.028684,-1.485760,-1.029000,-1.485000,-1.029000,-1.483812,-1.029743,-1.481581,-1.029684,-1.480760,-1.030000,-1.480000,-1.030000,1.480000,-1.029684,1.480760,-1.029743,1.481581,-1.029000,1.483812,-1.029000,1.485000,-1.028684,1.485760,-1.028743,1.486581,-1.028000,1.488812,-1.028000,1.490000,-1.027684,1.490760,-1.027743,1.491581,
-1.026744,1.494581,-1.026498,1.494863,-1.026472,1.495236,-1.025630,1.496919,-1.025000,1.498811,-1.025000,1.525000,-0.998810,1.525000,-0.996920,1.525630,-0.995236,1.526472,-0.994862,1.526498,-0.994581,1.526743,-0.991581,1.527743,-0.990760,1.527684,-0.990000,1.528000,-0.988810,1.528000,-0.986581,1.528743,-0.985760,1.528684,-0.985000,1.529000,-0.983810,1.529000,-0.981581,1.529743,
-0.980760,1.529684,-0.980000,1.530000,-0.380000,1.530000,-0.380000,2.405000,-0.379684,2.405760,-0.379743,2.406581,-0.379000,2.408812,-0.379000,2.410000,-0.378684,2.410760,-0.378743,2.411581,-0.378000,2.413812,-0.378000,2.415000,-0.377684,2.415760,-0.377743,2.416581,-0.376744,2.419581,-0.376498,2.419863,-0.376472,2.420236,-0.375630,2.421919,-0.374744,2.424581,-0.373982,2.425459,
-0.373536,2.426536,-0.372108,2.427962,-0.371472,2.429236,-0.370851,2.429774,-0.370536,2.430536,-0.369108,2.431962,-0.368472,2.433236,-0.367851,2.433774,-0.367536,2.434536,-0.359536,2.442535,-0.358775,2.442850,-0.358236,2.443472,-0.356963,2.444108,-0.355536,2.445535,-0.354775,2.445850,-0.354236,2.446472,-0.352963,2.447108,-0.351536,2.448535,-0.350460,2.448980,-0.349581,2.449743,
-0.346920,2.450630,-0.345236,2.451472,-0.344862,2.451498,-0.344581,2.451743,-0.341581,2.452743,-0.340760,2.452684,-0.340000,2.453000,-0.338810,2.453000,-0.336581,2.453743,-0.335760,2.453684,-0.335000,2.454000,-0.333810,2.454000,-0.331581,2.454743,-0.330760,2.454684,-0.330000,2.455000,-0.220000,2.455000,-0.219239,2.454684,-0.219239,2.454684,$1*%
G04 Aperture macros list end*
%ADD10C,1.500000*%
%ADD11C,0.500000*%
%ADD12C,1.000000*%
%ADD13C,0.010000*%
%ADD14R,1.050000X1.000000*%
%ADD15R,2.200000X1.050000*%
%ADD16RoundRect,0.140000X0.140000X0.170000X-0.140000X0.170000X-0.140000X-0.170000X0.140000X-0.170000X0*%
%ADD17RoundRect,0.100000X-0.130000X-0.100000X0.130000X-0.100000X0.130000X0.100000X-0.130000X0.100000X0*%
%ADD18RoundRect,0.100000X0.100000X-0.130000X0.100000X0.130000X-0.100000X0.130000X-0.100000X-0.130000X0*%
%ADD19R,0.150000X0.330000*%
%ADD20R,0.510000X0.200000*%
%ADD21RoundRect,0.140000X0.170000X-0.140000X0.170000X0.140000X-0.170000X0.140000X-0.170000X-0.140000X0*%
%ADD22RoundRect,0.147500X0.147500X0.172500X-0.147500X0.172500X-0.147500X-0.172500X0.147500X-0.172500X0*%
%ADD23RoundRect,0.140000X-0.140000X-0.170000X0.140000X-0.170000X0.140000X0.170000X-0.140000X0.170000X0*%
%ADD24RoundRect,0.250000X0.475000X-0.250000X0.475000X0.250000X-0.475000X0.250000X-0.475000X-0.250000X0*%
%ADD25RoundRect,0.120000X0.580000X0.480000X-0.580000X0.480000X-0.580000X-0.480000X0.580000X-0.480000X0*%
%ADD26RoundRect,0.003500X0.171500X-0.371500X0.171500X0.371500X-0.171500X0.371500X-0.171500X-0.371500X0*%
%ADD27RoundRect,0.100000X0.130000X0.100000X-0.130000X0.100000X-0.130000X-0.100000X0.130000X-0.100000X0*%
%ADD28R,1.850000X4.100000*%
%ADD29RoundRect,0.087500X0.087500X-0.225000X0.087500X0.225000X-0.087500X0.225000X-0.087500X-0.225000X0*%
%ADD30RoundRect,0.087500X0.225000X-0.087500X0.225000X0.087500X-0.225000X0.087500X-0.225000X-0.087500X0*%
%ADD31RoundRect,0.135000X-0.135000X-0.185000X0.135000X-0.185000X0.135000X0.185000X-0.135000X0.185000X0*%
%ADD32RoundRect,0.147500X-0.147500X-0.172500X0.147500X-0.172500X0.147500X0.172500X-0.147500X0.172500X0*%
%ADD33RoundRect,0.225000X0.250000X-0.225000X0.250000X0.225000X-0.250000X0.225000X-0.250000X-0.225000X0*%
%ADD34C,0.800000*%
%ADD35C,5.000000*%
%ADD36RoundRect,0.200000X0.275000X-0.200000X0.275000X0.200000X-0.275000X0.200000X-0.275000X-0.200000X0*%
%ADD37RoundRect,0.075000X0.075000X-0.350000X0.075000X0.350000X-0.075000X0.350000X-0.075000X-0.350000X0*%
%ADD38RoundRect,0.075000X0.350000X-0.075000X0.350000X0.075000X-0.350000X0.075000X-0.350000X-0.075000X0*%
%ADD39R,2.100000X2.100000*%
%ADD40RoundRect,0.250000X-0.625000X0.312500X-0.625000X-0.312500X0.625000X-0.312500X0.625000X0.312500X0*%
%ADD41RoundRect,0.225000X-0.225000X-0.250000X0.225000X-0.250000X0.225000X0.250000X-0.225000X0.250000X0*%
%ADD42RoundRect,0.135000X0.185000X-0.135000X0.185000X0.135000X-0.185000X0.135000X-0.185000X-0.135000X0*%
%ADD43RoundRect,0.060000X0.240000X0.590000X-0.240000X0.590000X-0.240000X-0.590000X0.240000X-0.590000X0*%
%ADD44RoundRect,0.075000X0.075000X-0.362500X0.075000X0.362500X-0.075000X0.362500X-0.075000X-0.362500X0*%
%ADD45RoundRect,0.075000X0.362500X-0.075000X0.362500X0.075000X-0.362500X0.075000X-0.362500X-0.075000X0*%
%ADD46R,2.450000X2.450000*%
%ADD47RoundRect,0.140000X-0.170000X0.140000X-0.170000X-0.140000X0.170000X-0.140000X0.170000X0.140000X0*%
%ADD48RoundRect,0.100000X-0.100000X0.130000X-0.100000X-0.130000X0.100000X-0.130000X0.100000X0.130000X0*%
%ADD49R,0.280000X0.170000*%
%ADD50R,0.280000X0.520000*%
%ADD51RoundRect,0.250000X-0.475000X0.250000X-0.475000X-0.250000X0.475000X-0.250000X0.475000X0.250000X0*%
%ADD52RoundRect,0.028600X-0.401400X0.101400X-0.401400X-0.101400X0.401400X-0.101400X0.401400X0.101400X0*%
%ADD53RoundRect,0.007800X-0.122200X0.422200X-0.122200X-0.422200X0.122200X-0.422200X0.122200X0.422200X0*%
%ADD54R,2.000000X1.000000*%
%ADD55RoundRect,0.147500X-0.172500X0.147500X-0.172500X-0.147500X0.172500X-0.147500X0.172500X0.147500X0*%
%ADD56R,0.260000X0.840000*%
%ADD57R,0.840000X0.260000*%
%ADD58R,2.600000X2.600000*%
%ADD59RoundRect,0.250000X0.362500X1.075000X-0.362500X1.075000X-0.362500X-1.075000X0.362500X-1.075000X0*%
%ADD60R,0.550000X0.550000*%
%ADD61R,0.420000X0.540000*%
%ADD62R,2.370000X1.710000*%
%ADD63R,0.420000X0.700000*%
%ADD64R,0.939800X1.397000*%
%ADD65RoundRect,0.200000X0.200000X-1.070000X0.200000X1.070000X-0.200000X1.070000X-0.200000X-1.070000X0*%
%ADD66RoundRect,0.011200X0.128800X-0.368800X0.128800X0.368800X-0.128800X0.368800X-0.128800X-0.368800X0*%
%ADD67R,1.600000X0.900000*%
%ADD68RoundRect,0.250000X-0.250000X-0.475000X0.250000X-0.475000X0.250000X0.475000X-0.250000X0.475000X0*%
%ADD69RoundRect,0.225000X-0.250000X0.225000X-0.250000X-0.225000X0.250000X-0.225000X0.250000X0.225000X0*%
%ADD70RoundRect,0.135000X0.135000X0.185000X-0.135000X0.185000X-0.135000X-0.185000X0.135000X-0.185000X0*%
%ADD71R,0.540000X0.420000*%
%ADD72R,1.710000X2.370000*%
%ADD73R,0.700000X0.420000*%
%ADD74RoundRect,0.250000X0.250000X0.475000X-0.250000X0.475000X-0.250000X-0.475000X0.250000X-0.475000X0*%
%ADD75C,1.050000*%
%ADD76RoundRect,0.050000X0.050000X-0.387500X0.050000X0.387500X-0.050000X0.387500X-0.050000X-0.387500X0*%
%ADD77RoundRect,0.050000X0.387500X-0.050000X0.387500X0.050000X-0.387500X0.050000X-0.387500X-0.050000X0*%
%ADD78R,3.200000X3.200000*%
%ADD79R,4.100000X1.850000*%
%ADD80RoundRect,0.031200X-0.268800X0.088800X-0.268800X-0.088800X0.268800X-0.088800X0.268800X0.088800X0*%
%ADD81RoundRect,0.012000X-0.108000X0.288000X-0.108000X-0.288000X0.108000X-0.288000X0.108000X0.288000X0*%
%ADD82C,0.350000*%
%ADD83FreePoly0,270.000000*%
%ADD84RoundRect,0.100000X0.162635X-0.021213X-0.021213X0.162635X-0.162635X0.021213X0.021213X-0.162635X0*%
%ADD85RoundRect,0.062500X-0.062500X0.350000X-0.062500X-0.350000X0.062500X-0.350000X0.062500X0.350000X0*%
%ADD86RoundRect,0.062500X-0.350000X0.062500X-0.350000X-0.062500X0.350000X-0.062500X0.350000X0.062500X0*%
%ADD87R,2.700000X2.700000*%
%ADD88RoundRect,0.135000X-0.185000X0.135000X-0.185000X-0.135000X0.185000X-0.135000X0.185000X0.135000X0*%
%ADD89R,4.000000X1.200000*%
%ADD90R,0.300000X0.850000*%
%ADD91R,1.600000X1.600000*%
%ADD92RoundRect,0.152400X-0.990600X-0.609600X0.990600X-0.609600X0.990600X0.609600X-0.990600X0.609600X0*%
%ADD93RoundRect,0.250000X-1.075000X0.362500X-1.075000X-0.362500X1.075000X-0.362500X1.075000X0.362500X0*%
%ADD94R,0.600000X0.300000*%
%ADD95R,0.300000X1.700000*%
%ADD96RoundRect,0.200000X-0.275000X0.200000X-0.275000X-0.200000X0.275000X-0.200000X0.275000X0.200000X0*%
%ADD97C,0.650000*%
%ADD98O,1.000000X1.800000*%
%ADD99O,1.000000X2.100000*%
%ADD100RoundRect,0.250000X-0.350000X-0.625000X0.350000X-0.625000X0.350000X0.625000X-0.350000X0.625000X0*%
%ADD101O,1.200000X1.750000*%
%ADD102RoundRect,0.250000X0.350000X0.625000X-0.350000X0.625000X-0.350000X-0.625000X0.350000X-0.625000X0*%
G04 APERTURE END LIST*
D10*
X159799874Y-117592006D02*
G75*
G03*
X154116788Y-118544639I1385326J-25692394D01*
G01*
D11*
X155026027Y-88222173D02*
G75*
G03*
X155026027Y-88222173I-3250000J0D01*
G01*
X103000000Y-113725000D02*
G75*
G03*
X103000000Y-113725000I-3250000J0D01*
G01*
D10*
X154120177Y-83387834D02*
G75*
G03*
X159800533Y-84340016I7065023J24727734D01*
G01*
X159800533Y-84340017D02*
X205148635Y-86790964D01*
X135324379Y-122757307D02*
X115802433Y-122744102D01*
X159799873Y-117591988D02*
G75*
G03*
X154116788Y-118544639I1385327J-25691912D01*
G01*
X95038613Y-118389590D02*
X108547875Y-121830897D01*
X135324379Y-79208302D02*
X115802433Y-79190465D01*
X95038613Y-118389590D02*
X108547875Y-121830897D01*
X207303140Y-89064766D02*
G75*
G03*
X205148635Y-86790965I-2277140J-34D01*
G01*
X95036390Y-83553484D02*
X108545453Y-80103975D01*
D12*
X159501027Y-101795000D02*
X159505000Y-107005000D01*
D10*
X115802433Y-79190459D02*
G75*
G03*
X108545453Y-80103975I67J-29282041D01*
G01*
X143363782Y-80334261D02*
X154120178Y-83387830D01*
D12*
X95444364Y-83778061D02*
G75*
G03*
X92434005Y-87653721I989636J-3875639D01*
G01*
D10*
X143363784Y-80334254D02*
G75*
G03*
X135324379Y-79208302I-8039484J-28138646D01*
G01*
X143363782Y-80334261D02*
X154120178Y-83387830D01*
D12*
X92458327Y-114270373D02*
G75*
G03*
X95470887Y-118146584I3999973J-27D01*
G01*
D10*
X159799873Y-117591995D02*
X205148726Y-115155106D01*
X207303139Y-89064766D02*
X207304866Y-112879580D01*
X115802433Y-79190478D02*
G75*
G03*
X108545453Y-80103976I-33J-29281822D01*
G01*
X95038613Y-118389590D02*
X108547875Y-121830897D01*
D12*
X159495000Y-109755000D02*
X159495000Y-117872173D01*
D10*
X135324379Y-122757301D02*
G75*
G03*
X143369623Y-121630529I-79J29285801D01*
G01*
X143363782Y-80334261D02*
X154120178Y-83387830D01*
X207303139Y-89064766D02*
X207304866Y-112879580D01*
X108547875Y-121830898D02*
G75*
G03*
X115802433Y-122744102I7254525J28358498D01*
G01*
D12*
X186625000Y-94105000D02*
X186626027Y-95672173D01*
D10*
X135324379Y-122757302D02*
G75*
G03*
X143369623Y-121630530I-179J29286502D01*
G01*
X159799873Y-117591995D02*
X205148726Y-115155106D01*
X135324379Y-122757302D02*
G75*
G03*
X143369623Y-121630530I-179J29286502D01*
G01*
X135324379Y-79208302D02*
X115802433Y-79190465D01*
X205148729Y-115155159D02*
G75*
G03*
X207304866Y-112879580I-122729J2275559D01*
G01*
X207303139Y-89064766D02*
X207304866Y-112879580D01*
X207303140Y-89064766D02*
G75*
G03*
X205148635Y-86790965I-2277140J-34D01*
G01*
X205148729Y-115155159D02*
G75*
G03*
X207304866Y-112879580I-122729J2275559D01*
G01*
D12*
X92434005Y-114737972D02*
X92434005Y-87653721D01*
X186626027Y-85547173D02*
X186621027Y-89772173D01*
D10*
X159799874Y-117592006D02*
G75*
G03*
X154116788Y-118544639I1385326J-25692394D01*
G01*
X143363784Y-80334255D02*
G75*
G03*
X135324379Y-79208302I-8039584J-28139345D01*
G01*
X135324379Y-79208302D02*
X115802433Y-79190465D01*
X154120177Y-83387834D02*
G75*
G03*
X159800533Y-84340016I7065023J24727734D01*
G01*
D11*
X155026027Y-113722173D02*
G75*
G03*
X155026027Y-113722173I-3250000J0D01*
G01*
D10*
X143369623Y-121630530D02*
X154116788Y-118544638D01*
D12*
X186901027Y-109097173D02*
X186901027Y-116122173D01*
D10*
X95036390Y-83553484D02*
X108545453Y-80103975D01*
X95036390Y-83553484D02*
X108545453Y-80103975D01*
X108547872Y-121830907D02*
G75*
G03*
X115802433Y-122744102I7254528J28358807D01*
G01*
X115802433Y-79190459D02*
G75*
G03*
X108545453Y-80103975I67J-29282041D01*
G01*
X143369623Y-121630530D02*
X154116788Y-118544638D01*
D11*
X103000000Y-88200000D02*
G75*
G03*
X103000000Y-88200000I-3250000J0D01*
G01*
D10*
X108547875Y-121830898D02*
G75*
G03*
X115802433Y-122744102I7254525J28358498D01*
G01*
X135324379Y-122757307D02*
X115802433Y-122744102D01*
D12*
X192126027Y-103847173D02*
X186901027Y-109097173D01*
D10*
X205148729Y-115155159D02*
G75*
G03*
X207304866Y-112879580I-122729J2275559D01*
G01*
X143363784Y-80334255D02*
G75*
G03*
X135324379Y-79208302I-8039584J-28139345D01*
G01*
D12*
X159501027Y-96172173D02*
X207276027Y-96172173D01*
D10*
X154120177Y-83387834D02*
G75*
G03*
X159800533Y-84340016I7065023J24727734D01*
G01*
D12*
X159501027Y-96172173D02*
X159501027Y-99197173D01*
D10*
X159800533Y-84340017D02*
X205148635Y-86790964D01*
X207303140Y-89064766D02*
G75*
G03*
X205148635Y-86790965I-2277140J-34D01*
G01*
X143369623Y-121630530D02*
X154116788Y-118544638D01*
X159799873Y-117591995D02*
X205148726Y-115155106D01*
D12*
X192126027Y-96172173D02*
X192126027Y-103847173D01*
D10*
X159800533Y-84340017D02*
X205148635Y-86790964D01*
X135324379Y-122757307D02*
X115802433Y-122744102D01*
D13*
X150415000Y-107085000D02*
X149515000Y-107085000D01*
X149515000Y-105535000D01*
X150415000Y-105535000D01*
X150415000Y-107085000D01*
G36*
X150415000Y-107085000D02*
G01*
X149515000Y-107085000D01*
X149515000Y-105535000D01*
X150415000Y-105535000D01*
X150415000Y-107085000D01*
G37*
X150215000Y-107560000D02*
X149515000Y-107560000D01*
X149515000Y-107160000D01*
X150215000Y-107160000D01*
X150215000Y-107560000D01*
G36*
X150215000Y-107560000D02*
G01*
X149515000Y-107560000D01*
X149515000Y-107160000D01*
X150215000Y-107160000D01*
X150215000Y-107560000D01*
G37*
X150215000Y-108010000D02*
X149515000Y-108010000D01*
X149515000Y-107610000D01*
X150215000Y-107610000D01*
X150215000Y-108010000D01*
G36*
X150215000Y-108010000D02*
G01*
X149515000Y-108010000D01*
X149515000Y-107610000D01*
X150215000Y-107610000D01*
X150215000Y-108010000D01*
G37*
X150215000Y-108460000D02*
X149515000Y-108460000D01*
X149515000Y-108060000D01*
X150215000Y-108060000D01*
X150215000Y-108460000D01*
G36*
X150215000Y-108460000D02*
G01*
X149515000Y-108460000D01*
X149515000Y-108060000D01*
X150215000Y-108060000D01*
X150215000Y-108460000D01*
G37*
X150915000Y-107085000D02*
X150515000Y-107085000D01*
X150515000Y-105260000D01*
X150915000Y-105260000D01*
X150915000Y-107085000D01*
G36*
X150915000Y-107085000D02*
G01*
X150515000Y-107085000D01*
X150515000Y-105260000D01*
X150915000Y-105260000D01*
X150915000Y-107085000D01*
G37*
X151915000Y-107085000D02*
X151015000Y-107085000D01*
X151015000Y-105535000D01*
X151915000Y-105535000D01*
X151915000Y-107085000D01*
G36*
X151915000Y-107085000D02*
G01*
X151015000Y-107085000D01*
X151015000Y-105535000D01*
X151915000Y-105535000D01*
X151915000Y-107085000D01*
G37*
X151915000Y-107560000D02*
X151215000Y-107560000D01*
X151215000Y-107160000D01*
X151915000Y-107160000D01*
X151915000Y-107560000D01*
G36*
X151915000Y-107560000D02*
G01*
X151215000Y-107560000D01*
X151215000Y-107160000D01*
X151915000Y-107160000D01*
X151915000Y-107560000D01*
G37*
X151915000Y-108010000D02*
X151215000Y-108010000D01*
X151215000Y-107610000D01*
X151915000Y-107610000D01*
X151915000Y-108010000D01*
G36*
X151915000Y-108010000D02*
G01*
X151215000Y-108010000D01*
X151215000Y-107610000D01*
X151915000Y-107610000D01*
X151915000Y-108010000D01*
G37*
X151915000Y-108460000D02*
X151215000Y-108460000D01*
X151215000Y-108060000D01*
X151915000Y-108060000D01*
X151915000Y-108460000D01*
G36*
X151915000Y-108460000D02*
G01*
X151215000Y-108460000D01*
X151215000Y-108060000D01*
X151915000Y-108060000D01*
X151915000Y-108460000D01*
G37*
X143530000Y-107350000D02*
X141980000Y-107350000D01*
X141980000Y-106450000D01*
X143530000Y-106450000D01*
X143530000Y-107350000D01*
G36*
X143530000Y-107350000D02*
G01*
X141980000Y-107350000D01*
X141980000Y-106450000D01*
X143530000Y-106450000D01*
X143530000Y-107350000D01*
G37*
X141905000Y-107150000D02*
X141505000Y-107150000D01*
X141505000Y-106450000D01*
X141905000Y-106450000D01*
X141905000Y-107150000D01*
G36*
X141905000Y-107150000D02*
G01*
X141505000Y-107150000D01*
X141505000Y-106450000D01*
X141905000Y-106450000D01*
X141905000Y-107150000D01*
G37*
X141455000Y-107150000D02*
X141055000Y-107150000D01*
X141055000Y-106450000D01*
X141455000Y-106450000D01*
X141455000Y-107150000D01*
G36*
X141455000Y-107150000D02*
G01*
X141055000Y-107150000D01*
X141055000Y-106450000D01*
X141455000Y-106450000D01*
X141455000Y-107150000D01*
G37*
X141005000Y-107150000D02*
X140605000Y-107150000D01*
X140605000Y-106450000D01*
X141005000Y-106450000D01*
X141005000Y-107150000D01*
G36*
X141005000Y-107150000D02*
G01*
X140605000Y-107150000D01*
X140605000Y-106450000D01*
X141005000Y-106450000D01*
X141005000Y-107150000D01*
G37*
X143805000Y-107850000D02*
X141980000Y-107850000D01*
X141980000Y-107450000D01*
X143805000Y-107450000D01*
X143805000Y-107850000D01*
G36*
X143805000Y-107850000D02*
G01*
X141980000Y-107850000D01*
X141980000Y-107450000D01*
X143805000Y-107450000D01*
X143805000Y-107850000D01*
G37*
X143530000Y-108850000D02*
X141980000Y-108850000D01*
X141980000Y-107950000D01*
X143530000Y-107950000D01*
X143530000Y-108850000D01*
G36*
X143530000Y-108850000D02*
G01*
X141980000Y-108850000D01*
X141980000Y-107950000D01*
X143530000Y-107950000D01*
X143530000Y-108850000D01*
G37*
X141905000Y-108850000D02*
X141505000Y-108850000D01*
X141505000Y-108150000D01*
X141905000Y-108150000D01*
X141905000Y-108850000D01*
G36*
X141905000Y-108850000D02*
G01*
X141505000Y-108850000D01*
X141505000Y-108150000D01*
X141905000Y-108150000D01*
X141905000Y-108850000D01*
G37*
X141455000Y-108850000D02*
X141055000Y-108850000D01*
X141055000Y-108150000D01*
X141455000Y-108150000D01*
X141455000Y-108850000D01*
G36*
X141455000Y-108850000D02*
G01*
X141055000Y-108850000D01*
X141055000Y-108150000D01*
X141455000Y-108150000D01*
X141455000Y-108850000D01*
G37*
X141005000Y-108850000D02*
X140605000Y-108850000D01*
X140605000Y-108150000D01*
X141005000Y-108150000D01*
X141005000Y-108850000D01*
G36*
X141005000Y-108850000D02*
G01*
X140605000Y-108850000D01*
X140605000Y-108150000D01*
X141005000Y-108150000D01*
X141005000Y-108850000D01*
G37*
X134105000Y-109014000D02*
X134113000Y-109015000D01*
X134121000Y-109016000D01*
X134128000Y-109018000D01*
X134136000Y-109020000D01*
X134143000Y-109023000D01*
X134151000Y-109026000D01*
X134158000Y-109030000D01*
X134165000Y-109033000D01*
X134172000Y-109038000D01*
X134178000Y-109042000D01*
X134185000Y-109047000D01*
X134191000Y-109052000D01*
X134196000Y-109058000D01*
X134202000Y-109063000D01*
X134207000Y-109069000D01*
X134212000Y-109076000D01*
X134216000Y-109082000D01*
X134221000Y-109089000D01*
X134224000Y-109096000D01*
X134228000Y-109103000D01*
X134231000Y-109111000D01*
X134234000Y-109118000D01*
X134236000Y-109126000D01*
X134238000Y-109133000D01*
X134239000Y-109141000D01*
X134240000Y-109149000D01*
X134241000Y-109157000D01*
X134241000Y-109165000D01*
X134241000Y-109662000D01*
X134241000Y-109663000D01*
X134242000Y-109663000D01*
X135015000Y-109663000D01*
X135023000Y-109663000D01*
X135031000Y-109664000D01*
X135039000Y-109665000D01*
X135047000Y-109666000D01*
X135054000Y-109668000D01*
X135062000Y-109670000D01*
X135069000Y-109673000D01*
X135077000Y-109676000D01*
X135084000Y-109680000D01*
X135091000Y-109683000D01*
X135098000Y-109688000D01*
X135104000Y-109692000D01*
X135111000Y-109697000D01*
X135117000Y-109702000D01*
X135122000Y-109708000D01*
X135128000Y-109713000D01*
X135133000Y-109719000D01*
X135138000Y-109726000D01*
X135142000Y-109732000D01*
X135147000Y-109739000D01*
X135150000Y-109746000D01*
X135154000Y-109753000D01*
X135157000Y-109761000D01*
X135160000Y-109768000D01*
X135162000Y-109776000D01*
X135164000Y-109783000D01*
X135165000Y-109791000D01*
X135166000Y-109799000D01*
X135167000Y-109807000D01*
X135167000Y-109815000D01*
X135167000Y-109915000D01*
X135167000Y-109923000D01*
X135166000Y-109931000D01*
X135165000Y-109939000D01*
X135164000Y-109947000D01*
X135162000Y-109954000D01*
X135160000Y-109962000D01*
X135157000Y-109969000D01*
X135154000Y-109977000D01*
X135150000Y-109984000D01*
X135147000Y-109991000D01*
X135142000Y-109998000D01*
X135138000Y-110004000D01*
X135133000Y-110011000D01*
X135128000Y-110017000D01*
X135122000Y-110022000D01*
X135117000Y-110028000D01*
X135111000Y-110033000D01*
X135104000Y-110038000D01*
X135098000Y-110042000D01*
X135091000Y-110047000D01*
X135084000Y-110050000D01*
X135077000Y-110054000D01*
X135069000Y-110057000D01*
X135062000Y-110060000D01*
X135054000Y-110062000D01*
X135047000Y-110064000D01*
X135039000Y-110065000D01*
X135031000Y-110066000D01*
X135023000Y-110067000D01*
X135015000Y-110067000D01*
X134642000Y-110067000D01*
X134642000Y-110212000D01*
X134642000Y-110213000D01*
X135017000Y-110213000D01*
X135025000Y-110213000D01*
X135033000Y-110214000D01*
X135040000Y-110215000D01*
X135048000Y-110216000D01*
X135056000Y-110218000D01*
X135063000Y-110220000D01*
X135071000Y-110223000D01*
X135078000Y-110226000D01*
X135085000Y-110229000D01*
X135092000Y-110233000D01*
X135099000Y-110237000D01*
X135105000Y-110242000D01*
X135111000Y-110246000D01*
X135117000Y-110252000D01*
X135123000Y-110257000D01*
X135128000Y-110263000D01*
X135134000Y-110269000D01*
X135138000Y-110275000D01*
X135143000Y-110281000D01*
X135147000Y-110288000D01*
X135151000Y-110295000D01*
X135154000Y-110302000D01*
X135157000Y-110309000D01*
X135160000Y-110317000D01*
X135162000Y-110324000D01*
X135164000Y-110332000D01*
X135165000Y-110340000D01*
X135166000Y-110347000D01*
X135167000Y-110355000D01*
X135167000Y-110363000D01*
X135167000Y-110466000D01*
X135167000Y-110474000D01*
X135166000Y-110482000D01*
X135165000Y-110490000D01*
X135164000Y-110497000D01*
X135162000Y-110505000D01*
X135160000Y-110513000D01*
X135157000Y-110520000D01*
X135154000Y-110527000D01*
X135151000Y-110535000D01*
X135147000Y-110541000D01*
X135143000Y-110548000D01*
X135138000Y-110555000D01*
X135133000Y-110561000D01*
X135128000Y-110567000D01*
X135123000Y-110573000D01*
X135117000Y-110578000D01*
X135111000Y-110583000D01*
X135105000Y-110588000D01*
X135098000Y-110593000D01*
X135091000Y-110597000D01*
X135085000Y-110601000D01*
X135077000Y-110604000D01*
X135070000Y-110607000D01*
X135063000Y-110610000D01*
X135055000Y-110612000D01*
X135047000Y-110614000D01*
X135040000Y-110615000D01*
X135032000Y-110616000D01*
X135024000Y-110617000D01*
X135016000Y-110617000D01*
X134242000Y-110617000D01*
X134242000Y-111115000D01*
X134242000Y-111123000D01*
X134241000Y-111131000D01*
X134240000Y-111139000D01*
X134239000Y-111147000D01*
X134237000Y-111154000D01*
X134235000Y-111162000D01*
X134232000Y-111169000D01*
X134229000Y-111177000D01*
X134225000Y-111184000D01*
X134222000Y-111191000D01*
X134217000Y-111198000D01*
X134213000Y-111204000D01*
X134208000Y-111211000D01*
X134203000Y-111217000D01*
X134197000Y-111222000D01*
X134192000Y-111228000D01*
X134186000Y-111233000D01*
X134179000Y-111238000D01*
X134173000Y-111242000D01*
X134166000Y-111247000D01*
X134159000Y-111250000D01*
X134152000Y-111254000D01*
X134144000Y-111257000D01*
X134137000Y-111260000D01*
X134129000Y-111262000D01*
X134122000Y-111264000D01*
X134114000Y-111265000D01*
X134106000Y-111266000D01*
X134098000Y-111267000D01*
X134090000Y-111267000D01*
X131139000Y-111267000D01*
X131131000Y-111267000D01*
X131123000Y-111266000D01*
X131116000Y-111265000D01*
X131108000Y-111264000D01*
X131100000Y-111262000D01*
X131093000Y-111260000D01*
X131085000Y-111257000D01*
X131078000Y-111254000D01*
X131071000Y-111251000D01*
X131064000Y-111247000D01*
X131057000Y-111243000D01*
X131051000Y-111238000D01*
X131045000Y-111234000D01*
X131039000Y-111228000D01*
X131033000Y-111223000D01*
X131028000Y-111217000D01*
X131022000Y-111211000D01*
X131018000Y-111205000D01*
X131013000Y-111199000D01*
X131009000Y-111192000D01*
X131005000Y-111185000D01*
X131002000Y-111178000D01*
X130999000Y-111171000D01*
X130996000Y-111163000D01*
X130994000Y-111156000D01*
X130992000Y-111148000D01*
X130991000Y-111140000D01*
X130990000Y-111133000D01*
X130989000Y-111125000D01*
X130989000Y-111117000D01*
X130989000Y-110618000D01*
X130989000Y-110617000D01*
X130988000Y-110617000D01*
X130214000Y-110617000D01*
X130206000Y-110617000D01*
X130198000Y-110616000D01*
X130191000Y-110615000D01*
X130183000Y-110614000D01*
X130175000Y-110612000D01*
X130168000Y-110610000D01*
X130160000Y-110607000D01*
X130153000Y-110604000D01*
X130146000Y-110601000D01*
X130139000Y-110597000D01*
X130132000Y-110593000D01*
X130126000Y-110588000D01*
X130120000Y-110584000D01*
X130114000Y-110578000D01*
X130108000Y-110573000D01*
X130103000Y-110567000D01*
X130097000Y-110561000D01*
X130093000Y-110555000D01*
X130088000Y-110549000D01*
X130084000Y-110542000D01*
X130080000Y-110535000D01*
X130077000Y-110528000D01*
X130074000Y-110521000D01*
X130071000Y-110513000D01*
X130069000Y-110506000D01*
X130067000Y-110498000D01*
X130066000Y-110490000D01*
X130065000Y-110483000D01*
X130064000Y-110475000D01*
X130064000Y-110467000D01*
X130064000Y-110362000D01*
X130064000Y-110354000D01*
X130065000Y-110346000D01*
X130066000Y-110339000D01*
X130067000Y-110331000D01*
X130069000Y-110323000D01*
X130071000Y-110316000D01*
X130074000Y-110309000D01*
X130077000Y-110301000D01*
X130080000Y-110294000D01*
X130084000Y-110287000D01*
X130088000Y-110281000D01*
X130092000Y-110274000D01*
X130097000Y-110268000D01*
X130102000Y-110262000D01*
X130108000Y-110257000D01*
X130113000Y-110251000D01*
X130119000Y-110246000D01*
X130125000Y-110241000D01*
X130132000Y-110237000D01*
X130138000Y-110233000D01*
X130145000Y-110229000D01*
X130152000Y-110226000D01*
X130160000Y-110223000D01*
X130167000Y-110220000D01*
X130174000Y-110218000D01*
X130182000Y-110216000D01*
X130190000Y-110215000D01*
X130197000Y-110214000D01*
X130205000Y-110213000D01*
X130213000Y-110213000D01*
X130588000Y-110213000D01*
X130588000Y-110068000D01*
X130588000Y-110067000D01*
X130587000Y-110067000D01*
X130214000Y-110067000D01*
X130206000Y-110067000D01*
X130198000Y-110066000D01*
X130191000Y-110065000D01*
X130183000Y-110064000D01*
X130175000Y-110062000D01*
X130168000Y-110060000D01*
X130160000Y-110057000D01*
X130153000Y-110054000D01*
X130146000Y-110051000D01*
X130139000Y-110047000D01*
X130132000Y-110043000D01*
X130126000Y-110038000D01*
X130120000Y-110034000D01*
X130114000Y-110028000D01*
X130108000Y-110023000D01*
X130103000Y-110017000D01*
X130097000Y-110011000D01*
X130093000Y-110005000D01*
X130088000Y-109999000D01*
X130084000Y-109992000D01*
X130080000Y-109985000D01*
X130077000Y-109978000D01*
X130074000Y-109971000D01*
X130071000Y-109963000D01*
X130069000Y-109956000D01*
X130067000Y-109948000D01*
X130066000Y-109940000D01*
X130065000Y-109933000D01*
X130064000Y-109925000D01*
X130064000Y-109917000D01*
X130064000Y-109811000D01*
X130064000Y-109803000D01*
X130065000Y-109796000D01*
X130066000Y-109788000D01*
X130067000Y-109780000D01*
X130069000Y-109773000D01*
X130071000Y-109765000D01*
X130074000Y-109758000D01*
X130077000Y-109751000D01*
X130080000Y-109744000D01*
X130084000Y-109737000D01*
X130088000Y-109730000D01*
X130092000Y-109724000D01*
X130097000Y-109718000D01*
X130102000Y-109712000D01*
X130107000Y-109706000D01*
X130113000Y-109701000D01*
X130119000Y-109696000D01*
X130125000Y-109691000D01*
X130131000Y-109687000D01*
X130138000Y-109683000D01*
X130145000Y-109679000D01*
X130152000Y-109676000D01*
X130159000Y-109673000D01*
X130166000Y-109670000D01*
X130174000Y-109668000D01*
X130181000Y-109666000D01*
X130189000Y-109665000D01*
X130197000Y-109664000D01*
X130204000Y-109663000D01*
X130212000Y-109663000D01*
X130988000Y-109663000D01*
X130988000Y-109165000D01*
X130988000Y-109157000D01*
X130989000Y-109149000D01*
X130990000Y-109141000D01*
X130991000Y-109133000D01*
X130993000Y-109126000D01*
X130995000Y-109118000D01*
X130998000Y-109111000D01*
X131001000Y-109103000D01*
X131005000Y-109096000D01*
X131008000Y-109089000D01*
X131013000Y-109082000D01*
X131017000Y-109076000D01*
X131022000Y-109069000D01*
X131027000Y-109063000D01*
X131033000Y-109058000D01*
X131038000Y-109052000D01*
X131044000Y-109047000D01*
X131051000Y-109042000D01*
X131057000Y-109038000D01*
X131064000Y-109033000D01*
X131071000Y-109030000D01*
X131078000Y-109026000D01*
X131086000Y-109023000D01*
X131093000Y-109020000D01*
X131101000Y-109018000D01*
X131108000Y-109016000D01*
X131116000Y-109015000D01*
X131124000Y-109014000D01*
X131132000Y-109013000D01*
X131140000Y-109013000D01*
X134089000Y-109013000D01*
X134097000Y-109013000D01*
X134105000Y-109014000D01*
G36*
X134105000Y-109014000D02*
G01*
X134113000Y-109015000D01*
X134121000Y-109016000D01*
X134128000Y-109018000D01*
X134136000Y-109020000D01*
X134143000Y-109023000D01*
X134151000Y-109026000D01*
X134158000Y-109030000D01*
X134165000Y-109033000D01*
X134172000Y-109038000D01*
X134178000Y-109042000D01*
X134185000Y-109047000D01*
X134191000Y-109052000D01*
X134196000Y-109058000D01*
X134202000Y-109063000D01*
X134207000Y-109069000D01*
X134212000Y-109076000D01*
X134216000Y-109082000D01*
X134221000Y-109089000D01*
X134224000Y-109096000D01*
X134228000Y-109103000D01*
X134231000Y-109111000D01*
X134234000Y-109118000D01*
X134236000Y-109126000D01*
X134238000Y-109133000D01*
X134239000Y-109141000D01*
X134240000Y-109149000D01*
X134241000Y-109157000D01*
X134241000Y-109165000D01*
X134241000Y-109662000D01*
X134241000Y-109663000D01*
X134242000Y-109663000D01*
X135015000Y-109663000D01*
X135023000Y-109663000D01*
X135031000Y-109664000D01*
X135039000Y-109665000D01*
X135047000Y-109666000D01*
X135054000Y-109668000D01*
X135062000Y-109670000D01*
X135069000Y-109673000D01*
X135077000Y-109676000D01*
X135084000Y-109680000D01*
X135091000Y-109683000D01*
X135098000Y-109688000D01*
X135104000Y-109692000D01*
X135111000Y-109697000D01*
X135117000Y-109702000D01*
X135122000Y-109708000D01*
X135128000Y-109713000D01*
X135133000Y-109719000D01*
X135138000Y-109726000D01*
X135142000Y-109732000D01*
X135147000Y-109739000D01*
X135150000Y-109746000D01*
X135154000Y-109753000D01*
X135157000Y-109761000D01*
X135160000Y-109768000D01*
X135162000Y-109776000D01*
X135164000Y-109783000D01*
X135165000Y-109791000D01*
X135166000Y-109799000D01*
X135167000Y-109807000D01*
X135167000Y-109815000D01*
X135167000Y-109915000D01*
X135167000Y-109923000D01*
X135166000Y-109931000D01*
X135165000Y-109939000D01*
X135164000Y-109947000D01*
X135162000Y-109954000D01*
X135160000Y-109962000D01*
X135157000Y-109969000D01*
X135154000Y-109977000D01*
X135150000Y-109984000D01*
X135147000Y-109991000D01*
X135142000Y-109998000D01*
X135138000Y-110004000D01*
X135133000Y-110011000D01*
X135128000Y-110017000D01*
X135122000Y-110022000D01*
X135117000Y-110028000D01*
X135111000Y-110033000D01*
X135104000Y-110038000D01*
X135098000Y-110042000D01*
X135091000Y-110047000D01*
X135084000Y-110050000D01*
X135077000Y-110054000D01*
X135069000Y-110057000D01*
X135062000Y-110060000D01*
X135054000Y-110062000D01*
X135047000Y-110064000D01*
X135039000Y-110065000D01*
X135031000Y-110066000D01*
X135023000Y-110067000D01*
X135015000Y-110067000D01*
X134642000Y-110067000D01*
X134642000Y-110212000D01*
X134642000Y-110213000D01*
X135017000Y-110213000D01*
X135025000Y-110213000D01*
X135033000Y-110214000D01*
X135040000Y-110215000D01*
X135048000Y-110216000D01*
X135056000Y-110218000D01*
X135063000Y-110220000D01*
X135071000Y-110223000D01*
X135078000Y-110226000D01*
X135085000Y-110229000D01*
X135092000Y-110233000D01*
X135099000Y-110237000D01*
X135105000Y-110242000D01*
X135111000Y-110246000D01*
X135117000Y-110252000D01*
X135123000Y-110257000D01*
X135128000Y-110263000D01*
X135134000Y-110269000D01*
X135138000Y-110275000D01*
X135143000Y-110281000D01*
X135147000Y-110288000D01*
X135151000Y-110295000D01*
X135154000Y-110302000D01*
X135157000Y-110309000D01*
X135160000Y-110317000D01*
X135162000Y-110324000D01*
X135164000Y-110332000D01*
X135165000Y-110340000D01*
X135166000Y-110347000D01*
X135167000Y-110355000D01*
X135167000Y-110363000D01*
X135167000Y-110466000D01*
X135167000Y-110474000D01*
X135166000Y-110482000D01*
X135165000Y-110490000D01*
X135164000Y-110497000D01*
X135162000Y-110505000D01*
X135160000Y-110513000D01*
X135157000Y-110520000D01*
X135154000Y-110527000D01*
X135151000Y-110535000D01*
X135147000Y-110541000D01*
X135143000Y-110548000D01*
X135138000Y-110555000D01*
X135133000Y-110561000D01*
X135128000Y-110567000D01*
X135123000Y-110573000D01*
X135117000Y-110578000D01*
X135111000Y-110583000D01*
X135105000Y-110588000D01*
X135098000Y-110593000D01*
X135091000Y-110597000D01*
X135085000Y-110601000D01*
X135077000Y-110604000D01*
X135070000Y-110607000D01*
X135063000Y-110610000D01*
X135055000Y-110612000D01*
X135047000Y-110614000D01*
X135040000Y-110615000D01*
X135032000Y-110616000D01*
X135024000Y-110617000D01*
X135016000Y-110617000D01*
X134242000Y-110617000D01*
X134242000Y-111115000D01*
X134242000Y-111123000D01*
X134241000Y-111131000D01*
X134240000Y-111139000D01*
X134239000Y-111147000D01*
X134237000Y-111154000D01*
X134235000Y-111162000D01*
X134232000Y-111169000D01*
X134229000Y-111177000D01*
X134225000Y-111184000D01*
X134222000Y-111191000D01*
X134217000Y-111198000D01*
X134213000Y-111204000D01*
X134208000Y-111211000D01*
X134203000Y-111217000D01*
X134197000Y-111222000D01*
X134192000Y-111228000D01*
X134186000Y-111233000D01*
X134179000Y-111238000D01*
X134173000Y-111242000D01*
X134166000Y-111247000D01*
X134159000Y-111250000D01*
X134152000Y-111254000D01*
X134144000Y-111257000D01*
X134137000Y-111260000D01*
X134129000Y-111262000D01*
X134122000Y-111264000D01*
X134114000Y-111265000D01*
X134106000Y-111266000D01*
X134098000Y-111267000D01*
X134090000Y-111267000D01*
X131139000Y-111267000D01*
X131131000Y-111267000D01*
X131123000Y-111266000D01*
X131116000Y-111265000D01*
X131108000Y-111264000D01*
X131100000Y-111262000D01*
X131093000Y-111260000D01*
X131085000Y-111257000D01*
X131078000Y-111254000D01*
X131071000Y-111251000D01*
X131064000Y-111247000D01*
X131057000Y-111243000D01*
X131051000Y-111238000D01*
X131045000Y-111234000D01*
X131039000Y-111228000D01*
X131033000Y-111223000D01*
X131028000Y-111217000D01*
X131022000Y-111211000D01*
X131018000Y-111205000D01*
X131013000Y-111199000D01*
X131009000Y-111192000D01*
X131005000Y-111185000D01*
X131002000Y-111178000D01*
X130999000Y-111171000D01*
X130996000Y-111163000D01*
X130994000Y-111156000D01*
X130992000Y-111148000D01*
X130991000Y-111140000D01*
X130990000Y-111133000D01*
X130989000Y-111125000D01*
X130989000Y-111117000D01*
X130989000Y-110618000D01*
X130989000Y-110617000D01*
X130988000Y-110617000D01*
X130214000Y-110617000D01*
X130206000Y-110617000D01*
X130198000Y-110616000D01*
X130191000Y-110615000D01*
X130183000Y-110614000D01*
X130175000Y-110612000D01*
X130168000Y-110610000D01*
X130160000Y-110607000D01*
X130153000Y-110604000D01*
X130146000Y-110601000D01*
X130139000Y-110597000D01*
X130132000Y-110593000D01*
X130126000Y-110588000D01*
X130120000Y-110584000D01*
X130114000Y-110578000D01*
X130108000Y-110573000D01*
X130103000Y-110567000D01*
X130097000Y-110561000D01*
X130093000Y-110555000D01*
X130088000Y-110549000D01*
X130084000Y-110542000D01*
X130080000Y-110535000D01*
X130077000Y-110528000D01*
X130074000Y-110521000D01*
X130071000Y-110513000D01*
X130069000Y-110506000D01*
X130067000Y-110498000D01*
X130066000Y-110490000D01*
X130065000Y-110483000D01*
X130064000Y-110475000D01*
X130064000Y-110467000D01*
X130064000Y-110362000D01*
X130064000Y-110354000D01*
X130065000Y-110346000D01*
X130066000Y-110339000D01*
X130067000Y-110331000D01*
X130069000Y-110323000D01*
X130071000Y-110316000D01*
X130074000Y-110309000D01*
X130077000Y-110301000D01*
X130080000Y-110294000D01*
X130084000Y-110287000D01*
X130088000Y-110281000D01*
X130092000Y-110274000D01*
X130097000Y-110268000D01*
X130102000Y-110262000D01*
X130108000Y-110257000D01*
X130113000Y-110251000D01*
X130119000Y-110246000D01*
X130125000Y-110241000D01*
X130132000Y-110237000D01*
X130138000Y-110233000D01*
X130145000Y-110229000D01*
X130152000Y-110226000D01*
X130160000Y-110223000D01*
X130167000Y-110220000D01*
X130174000Y-110218000D01*
X130182000Y-110216000D01*
X130190000Y-110215000D01*
X130197000Y-110214000D01*
X130205000Y-110213000D01*
X130213000Y-110213000D01*
X130588000Y-110213000D01*
X130588000Y-110068000D01*
X130588000Y-110067000D01*
X130587000Y-110067000D01*
X130214000Y-110067000D01*
X130206000Y-110067000D01*
X130198000Y-110066000D01*
X130191000Y-110065000D01*
X130183000Y-110064000D01*
X130175000Y-110062000D01*
X130168000Y-110060000D01*
X130160000Y-110057000D01*
X130153000Y-110054000D01*
X130146000Y-110051000D01*
X130139000Y-110047000D01*
X130132000Y-110043000D01*
X130126000Y-110038000D01*
X130120000Y-110034000D01*
X130114000Y-110028000D01*
X130108000Y-110023000D01*
X130103000Y-110017000D01*
X130097000Y-110011000D01*
X130093000Y-110005000D01*
X130088000Y-109999000D01*
X130084000Y-109992000D01*
X130080000Y-109985000D01*
X130077000Y-109978000D01*
X130074000Y-109971000D01*
X130071000Y-109963000D01*
X130069000Y-109956000D01*
X130067000Y-109948000D01*
X130066000Y-109940000D01*
X130065000Y-109933000D01*
X130064000Y-109925000D01*
X130064000Y-109917000D01*
X130064000Y-109811000D01*
X130064000Y-109803000D01*
X130065000Y-109796000D01*
X130066000Y-109788000D01*
X130067000Y-109780000D01*
X130069000Y-109773000D01*
X130071000Y-109765000D01*
X130074000Y-109758000D01*
X130077000Y-109751000D01*
X130080000Y-109744000D01*
X130084000Y-109737000D01*
X130088000Y-109730000D01*
X130092000Y-109724000D01*
X130097000Y-109718000D01*
X130102000Y-109712000D01*
X130107000Y-109706000D01*
X130113000Y-109701000D01*
X130119000Y-109696000D01*
X130125000Y-109691000D01*
X130131000Y-109687000D01*
X130138000Y-109683000D01*
X130145000Y-109679000D01*
X130152000Y-109676000D01*
X130159000Y-109673000D01*
X130166000Y-109670000D01*
X130174000Y-109668000D01*
X130181000Y-109666000D01*
X130189000Y-109665000D01*
X130197000Y-109664000D01*
X130204000Y-109663000D01*
X130212000Y-109663000D01*
X130988000Y-109663000D01*
X130988000Y-109165000D01*
X130988000Y-109157000D01*
X130989000Y-109149000D01*
X130990000Y-109141000D01*
X130991000Y-109133000D01*
X130993000Y-109126000D01*
X130995000Y-109118000D01*
X130998000Y-109111000D01*
X131001000Y-109103000D01*
X131005000Y-109096000D01*
X131008000Y-109089000D01*
X131013000Y-109082000D01*
X131017000Y-109076000D01*
X131022000Y-109069000D01*
X131027000Y-109063000D01*
X131033000Y-109058000D01*
X131038000Y-109052000D01*
X131044000Y-109047000D01*
X131051000Y-109042000D01*
X131057000Y-109038000D01*
X131064000Y-109033000D01*
X131071000Y-109030000D01*
X131078000Y-109026000D01*
X131086000Y-109023000D01*
X131093000Y-109020000D01*
X131101000Y-109018000D01*
X131108000Y-109016000D01*
X131116000Y-109015000D01*
X131124000Y-109014000D01*
X131132000Y-109013000D01*
X131140000Y-109013000D01*
X134089000Y-109013000D01*
X134097000Y-109013000D01*
X134105000Y-109014000D01*
G37*
D14*
X187476027Y-100772173D03*
D15*
X189001027Y-99297173D03*
X189001027Y-102247173D03*
D14*
X198226027Y-99072173D03*
D15*
X196701027Y-100547173D03*
X196701027Y-97597173D03*
D16*
X199976027Y-92272173D03*
X199016027Y-92272173D03*
X189756027Y-92492173D03*
X188796027Y-92492173D03*
D17*
X116255000Y-104400000D03*
X116895000Y-104400000D03*
D18*
X121394416Y-91099833D03*
X121394416Y-90459833D03*
D19*
X197876027Y-91774673D03*
X197376027Y-91774673D03*
D20*
X197196027Y-92259673D03*
D19*
X197376027Y-92744673D03*
X197876027Y-92744673D03*
D20*
X198056027Y-92259673D03*
D21*
X134850000Y-114515000D03*
X134850000Y-113555000D03*
D22*
X188811027Y-91547173D03*
X187841027Y-91547173D03*
D18*
X120775000Y-109580000D03*
X120775000Y-108940000D03*
D23*
X189746027Y-90597173D03*
X190706027Y-90597173D03*
D17*
X131405000Y-93800000D03*
X132045000Y-93800000D03*
X109965000Y-101505000D03*
X110605000Y-101505000D03*
D23*
X200896027Y-93222173D03*
X201856027Y-93222173D03*
D17*
X140795000Y-83423600D03*
X141435000Y-83423600D03*
D24*
X145005000Y-112350000D03*
X145005000Y-110450000D03*
D18*
X197176027Y-94242173D03*
X197176027Y-93602173D03*
D25*
X182496027Y-87247173D03*
X180296027Y-87247173D03*
X180296027Y-88947173D03*
X182496027Y-88947173D03*
D26*
X111625000Y-117640000D03*
X112125000Y-117640000D03*
X112625000Y-117640000D03*
X112625000Y-116260000D03*
X112125000Y-116260000D03*
X111625000Y-116260000D03*
D17*
X141060000Y-109425000D03*
X141700000Y-109425000D03*
D27*
X115889300Y-92315000D03*
X115249300Y-92315000D03*
D28*
X154055000Y-107085000D03*
X157705000Y-107085000D03*
D29*
X123035000Y-91167500D03*
X123535000Y-91167500D03*
X124035000Y-91167500D03*
X124535000Y-91167500D03*
D30*
X124697500Y-90505000D03*
X124697500Y-90005000D03*
X124697500Y-89505000D03*
D29*
X124535000Y-88842500D03*
X124035000Y-88842500D03*
X123535000Y-88842500D03*
X123035000Y-88842500D03*
D30*
X122872500Y-89505000D03*
X122872500Y-90005000D03*
X122872500Y-90505000D03*
D21*
X187876027Y-89652173D03*
X187876027Y-88692173D03*
D17*
X130370000Y-113635000D03*
X131010000Y-113635000D03*
D31*
X148315000Y-99300000D03*
X149335000Y-99300000D03*
D32*
X189741027Y-91547173D03*
X190711027Y-91547173D03*
D33*
X158175000Y-100180000D03*
X158175000Y-98630000D03*
D18*
X125635000Y-90690000D03*
X125635000Y-90050000D03*
D22*
X188811027Y-90572173D03*
X187841027Y-90572173D03*
D34*
X80901027Y-90972173D03*
X81450202Y-89646348D03*
X81450202Y-92297998D03*
X82776027Y-89097173D03*
D35*
X82776027Y-90972173D03*
D34*
X82776027Y-92847173D03*
X84101852Y-89646348D03*
X84101852Y-92297998D03*
X84651027Y-90972173D03*
D16*
X136740000Y-106955000D03*
X135780000Y-106955000D03*
D23*
X188796027Y-93442173D03*
X189756027Y-93442173D03*
D33*
X133630000Y-115380000D03*
X133630000Y-113830000D03*
D36*
X107275000Y-97135000D03*
X107275000Y-95485000D03*
D37*
X110020000Y-106195000D03*
X110670000Y-106195000D03*
X111320000Y-106195000D03*
X111970000Y-106195000D03*
D38*
X112945000Y-105220000D03*
X112945000Y-104570000D03*
X112945000Y-103920000D03*
X112945000Y-103270000D03*
D37*
X111970000Y-102295000D03*
X111320000Y-102295000D03*
X110670000Y-102295000D03*
X110020000Y-102295000D03*
D38*
X109045000Y-103270000D03*
X109045000Y-103920000D03*
X109045000Y-104570000D03*
X109045000Y-105220000D03*
D39*
X110995000Y-104245000D03*
D34*
X189151027Y-110972173D03*
X189700202Y-109646348D03*
X189700202Y-112297998D03*
X191026027Y-109097173D03*
D35*
X191026027Y-110972173D03*
D34*
X191026027Y-112847173D03*
X192351852Y-109646348D03*
X192351852Y-112297998D03*
X192901027Y-110972173D03*
D17*
X204756027Y-109422173D03*
X205396027Y-109422173D03*
D40*
X125505000Y-107692500D03*
X125505000Y-110617500D03*
D41*
X136020000Y-113470000D03*
X137570000Y-113470000D03*
D42*
X115150000Y-115410000D03*
X115150000Y-114390000D03*
D27*
X180316027Y-89997173D03*
X179676027Y-89997173D03*
D43*
X109205000Y-111875000D03*
X110405000Y-111875000D03*
X111605000Y-111875000D03*
X112805000Y-111875000D03*
X112805000Y-107575000D03*
X111605000Y-107575000D03*
X110405000Y-107575000D03*
X109205000Y-107575000D03*
D44*
X133800000Y-95812500D03*
X134300000Y-95812500D03*
X134800000Y-95812500D03*
X135300000Y-95812500D03*
X135800000Y-95812500D03*
X136300000Y-95812500D03*
D45*
X136987500Y-95125000D03*
X136987500Y-94625000D03*
X136987500Y-94125000D03*
X136987500Y-93625000D03*
X136987500Y-93125000D03*
X136987500Y-92625000D03*
D44*
X136300000Y-91937500D03*
X135800000Y-91937500D03*
X135300000Y-91937500D03*
X134800000Y-91937500D03*
X134300000Y-91937500D03*
X133800000Y-91937500D03*
D45*
X133112500Y-92625000D03*
X133112500Y-93125000D03*
X133112500Y-93625000D03*
X133112500Y-94125000D03*
X133112500Y-94625000D03*
X133112500Y-95125000D03*
D46*
X135050000Y-93875000D03*
D47*
X114565000Y-104620000D03*
X114565000Y-105580000D03*
D24*
X146980000Y-112350000D03*
X146980000Y-110450000D03*
D23*
X189746027Y-89672173D03*
X190706027Y-89672173D03*
D17*
X135715000Y-106125000D03*
X136355000Y-106125000D03*
D48*
X122207500Y-111797500D03*
X122207500Y-112437500D03*
D49*
X108250000Y-94420000D03*
X108250000Y-94070000D03*
D50*
X107600000Y-94245000D03*
D16*
X192556027Y-90597173D03*
X191596027Y-90597173D03*
D51*
X145005000Y-107000000D03*
X145005000Y-108900000D03*
D52*
X142135000Y-93725000D03*
D53*
X141700000Y-92790000D03*
X141200000Y-92790000D03*
X140700000Y-92790000D03*
X140200000Y-92790000D03*
X139700000Y-92790000D03*
X139200000Y-92790000D03*
D52*
X138765000Y-93725000D03*
X138765000Y-94225000D03*
D53*
X139200000Y-95160000D03*
X139700000Y-95160000D03*
X140200000Y-95160000D03*
X140700000Y-95160000D03*
X141200000Y-95160000D03*
X141700000Y-95160000D03*
D52*
X142135000Y-94225000D03*
D54*
X140450000Y-93975000D03*
D48*
X116502500Y-108925000D03*
X116502500Y-109565000D03*
D42*
X129335000Y-114535000D03*
X129335000Y-113515000D03*
D55*
X187876027Y-92482173D03*
X187876027Y-93452173D03*
D48*
X119345000Y-108935000D03*
X119345000Y-109575000D03*
D27*
X146015000Y-83436400D03*
X145375000Y-83436400D03*
D21*
X113845000Y-103725000D03*
X113845000Y-102765000D03*
D27*
X117400000Y-106425000D03*
X116760000Y-106425000D03*
D56*
X184601027Y-90527173D03*
X184101027Y-90527173D03*
X183601027Y-90527173D03*
X183101027Y-90527173D03*
X182601027Y-90527173D03*
X182101027Y-90527173D03*
D57*
X181406027Y-91222173D03*
X181406027Y-91722173D03*
X181406027Y-92222173D03*
X181406027Y-92722173D03*
X181406027Y-93222173D03*
X181406027Y-93722173D03*
D56*
X182101027Y-94417173D03*
X182601027Y-94417173D03*
X183101027Y-94417173D03*
X183601027Y-94417173D03*
X184101027Y-94417173D03*
X184601027Y-94417173D03*
D57*
X185296027Y-93722173D03*
X185296027Y-93222173D03*
X185296027Y-92722173D03*
X185296027Y-92222173D03*
X185296027Y-91722173D03*
X185296027Y-91222173D03*
D58*
X183351027Y-92472173D03*
D27*
X184746027Y-89497173D03*
X184106027Y-89497173D03*
D59*
X145187500Y-104665000D03*
X140562500Y-104665000D03*
D60*
X145305000Y-86806400D03*
X146055000Y-86802800D03*
X145295000Y-84146400D03*
X146045000Y-84142800D03*
D47*
X136735000Y-107865000D03*
X136735000Y-108825000D03*
D17*
X139290000Y-108000000D03*
X139930000Y-108000000D03*
X125355000Y-96250000D03*
X125995000Y-96250000D03*
D18*
X132075000Y-95895000D03*
X132075000Y-95255000D03*
D48*
X143200000Y-92580000D03*
X143200000Y-93220000D03*
D24*
X155935000Y-103555000D03*
X155935000Y-101655000D03*
D17*
X137100000Y-114595000D03*
X137740000Y-114595000D03*
D61*
X127195000Y-106325000D03*
X126545000Y-106325000D03*
D62*
X126220000Y-105200000D03*
D61*
X125895000Y-106325000D03*
X125245000Y-106325000D03*
D63*
X125245000Y-103245000D03*
X127195000Y-103245000D03*
X126545000Y-103245000D03*
X125895000Y-103245000D03*
D18*
X129875000Y-94745000D03*
X129875000Y-94105000D03*
D47*
X136745000Y-109695000D03*
X136745000Y-110655000D03*
D64*
X128800000Y-95683100D03*
X128800000Y-93066900D03*
X127150000Y-93066900D03*
X127150000Y-95683100D03*
D47*
X137655000Y-107865000D03*
X137655000Y-108825000D03*
D21*
X122307500Y-110897500D03*
X122307500Y-109937500D03*
D23*
X127145000Y-107585000D03*
X128105000Y-107585000D03*
D27*
X110965000Y-94445000D03*
X110325000Y-94445000D03*
D41*
X136025000Y-111995000D03*
X137575000Y-111995000D03*
D18*
X204751027Y-112517173D03*
X204751027Y-111877173D03*
X197876027Y-94242173D03*
X197876027Y-93602173D03*
D48*
X143175000Y-94405000D03*
X143175000Y-95045000D03*
D27*
X114809184Y-95365000D03*
X114169184Y-95365000D03*
D17*
X204756027Y-108722173D03*
X205396027Y-108722173D03*
D27*
X110965000Y-95175000D03*
X110325000Y-95175000D03*
D17*
X130370000Y-114350000D03*
X131010000Y-114350000D03*
D34*
X80901027Y-110972173D03*
X81450202Y-109646348D03*
X81450202Y-112297998D03*
X82776027Y-109097173D03*
D35*
X82776027Y-110972173D03*
D34*
X82776027Y-112847173D03*
X84101852Y-109646348D03*
X84101852Y-112297998D03*
X84651027Y-110972173D03*
D65*
X194851027Y-112722173D03*
X195951027Y-112722173D03*
X197051027Y-112722173D03*
X198151027Y-112722173D03*
X199251027Y-112722173D03*
X200351027Y-112722173D03*
X201451027Y-112722173D03*
X202551027Y-112722173D03*
X203651027Y-112722173D03*
X203651027Y-102822173D03*
X202551027Y-102822173D03*
X201451027Y-102822173D03*
X200351027Y-102822173D03*
X199251027Y-102822173D03*
X198151027Y-102822173D03*
X197051027Y-102822173D03*
X195951027Y-102822173D03*
X194851027Y-102822173D03*
D27*
X151740000Y-109115000D03*
X151100000Y-109115000D03*
D17*
X130380000Y-115050000D03*
X131020000Y-115050000D03*
D66*
X144055000Y-94540000D03*
X144555000Y-94540000D03*
X145055000Y-94540000D03*
X145555000Y-94540000D03*
X145555000Y-92570000D03*
X145055000Y-92570000D03*
X144555000Y-92570000D03*
X144055000Y-92570000D03*
D67*
X144805000Y-93555000D03*
D68*
X150065000Y-104065000D03*
X151965000Y-104065000D03*
D23*
X111430000Y-101395000D03*
X112390000Y-101395000D03*
D17*
X127505000Y-108440000D03*
X128145000Y-108440000D03*
D69*
X123100000Y-113775000D03*
X123100000Y-115325000D03*
D27*
X114809184Y-96065000D03*
X114169184Y-96065000D03*
D70*
X147460000Y-99300000D03*
X146440000Y-99300000D03*
D27*
X115889300Y-90915000D03*
X115249300Y-90915000D03*
D16*
X196256027Y-91547173D03*
X195296027Y-91547173D03*
D71*
X131245000Y-100360000D03*
X131245000Y-101010000D03*
D72*
X130120000Y-101335000D03*
D71*
X131245000Y-101660000D03*
X131245000Y-102310000D03*
D73*
X128165000Y-102310000D03*
X128165000Y-100360000D03*
X128165000Y-101010000D03*
X128165000Y-101660000D03*
D74*
X158175000Y-110825000D03*
X156275000Y-110825000D03*
D17*
X145375000Y-82726400D03*
X146015000Y-82726400D03*
D34*
X169151027Y-90972173D03*
X169700202Y-89646348D03*
X169700202Y-92297998D03*
X171026027Y-89097173D03*
D35*
X171026027Y-90972173D03*
D34*
X171026027Y-92847173D03*
X172351852Y-89646348D03*
X172351852Y-92297998D03*
X172901027Y-90972173D03*
D75*
X153995000Y-101935000D03*
X152725000Y-101935000D03*
X151455000Y-101935000D03*
X150185000Y-101935000D03*
X148915000Y-101935000D03*
X147645000Y-101935000D03*
X146375000Y-101935000D03*
X145105000Y-101935000D03*
X143835000Y-101935000D03*
X142565000Y-101935000D03*
X141295000Y-101935000D03*
X140025000Y-101935000D03*
X138755000Y-101935000D03*
X137485000Y-101935000D03*
X136215000Y-101935000D03*
X134945000Y-101935000D03*
X133675000Y-101935000D03*
X132405000Y-101935000D03*
X153995000Y-100665000D03*
X152725000Y-100665000D03*
X151455000Y-100665000D03*
X150185000Y-100665000D03*
X148915000Y-100665000D03*
X147645000Y-100665000D03*
X146375000Y-100665000D03*
X145105000Y-100665000D03*
X143835000Y-100665000D03*
X142565000Y-100665000D03*
X141295000Y-100665000D03*
X140025000Y-100665000D03*
X138755000Y-100665000D03*
X137485000Y-100665000D03*
X136215000Y-100665000D03*
X134945000Y-100665000D03*
X133675000Y-100665000D03*
X132405000Y-100665000D03*
D23*
X204801027Y-110947173D03*
X205761027Y-110947173D03*
D32*
X200891027Y-92272173D03*
X201861027Y-92272173D03*
D21*
X123232500Y-110355000D03*
X123232500Y-109395000D03*
D48*
X118627500Y-108925000D03*
X118627500Y-109565000D03*
D23*
X193426027Y-90597173D03*
X194386027Y-90597173D03*
D17*
X128155000Y-91750000D03*
X128795000Y-91750000D03*
D23*
X113825000Y-106495000D03*
X114785000Y-106495000D03*
D76*
X117794416Y-99354833D03*
X118194416Y-99354833D03*
X118594416Y-99354833D03*
X118994416Y-99354833D03*
X119394416Y-99354833D03*
X119794416Y-99354833D03*
X120194416Y-99354833D03*
X120594416Y-99354833D03*
X120994416Y-99354833D03*
X121394416Y-99354833D03*
X121794416Y-99354833D03*
X122194416Y-99354833D03*
X122594416Y-99354833D03*
X122994416Y-99354833D03*
D77*
X123831916Y-98517333D03*
X123831916Y-98117333D03*
X123831916Y-97717333D03*
X123831916Y-97317333D03*
X123831916Y-96917333D03*
X123831916Y-96517333D03*
X123831916Y-96117333D03*
X123831916Y-95717333D03*
X123831916Y-95317333D03*
X123831916Y-94917333D03*
X123831916Y-94517333D03*
X123831916Y-94117333D03*
X123831916Y-93717333D03*
X123831916Y-93317333D03*
D76*
X122994416Y-92479833D03*
X122594416Y-92479833D03*
X122194416Y-92479833D03*
X121794416Y-92479833D03*
X121394416Y-92479833D03*
X120994416Y-92479833D03*
X120594416Y-92479833D03*
X120194416Y-92479833D03*
X119794416Y-92479833D03*
X119394416Y-92479833D03*
X118994416Y-92479833D03*
X118594416Y-92479833D03*
X118194416Y-92479833D03*
X117794416Y-92479833D03*
D77*
X116956916Y-93317333D03*
X116956916Y-93717333D03*
X116956916Y-94117333D03*
X116956916Y-94517333D03*
X116956916Y-94917333D03*
X116956916Y-95317333D03*
X116956916Y-95717333D03*
X116956916Y-96117333D03*
X116956916Y-96517333D03*
X116956916Y-96917333D03*
X116956916Y-97317333D03*
X116956916Y-97717333D03*
X116956916Y-98117333D03*
X116956916Y-98517333D03*
D78*
X120394416Y-95917333D03*
D17*
X149695000Y-109115000D03*
X150335000Y-109115000D03*
D79*
X141255000Y-110950000D03*
X141255000Y-114600000D03*
D27*
X139930000Y-106600000D03*
X139290000Y-106600000D03*
D44*
X119150000Y-106825000D03*
X119650000Y-106825000D03*
X120150000Y-106825000D03*
X120650000Y-106825000D03*
X121150000Y-106825000D03*
X121650000Y-106825000D03*
D45*
X122337500Y-106137500D03*
X122337500Y-105637500D03*
X122337500Y-105137500D03*
X122337500Y-104637500D03*
X122337500Y-104137500D03*
X122337500Y-103637500D03*
D44*
X121650000Y-102950000D03*
X121150000Y-102950000D03*
X120650000Y-102950000D03*
X120150000Y-102950000D03*
X119650000Y-102950000D03*
X119150000Y-102950000D03*
D45*
X118462500Y-103637500D03*
X118462500Y-104137500D03*
X118462500Y-104637500D03*
X118462500Y-105137500D03*
X118462500Y-105637500D03*
X118462500Y-106137500D03*
D46*
X120400000Y-104887500D03*
D17*
X121505000Y-100400000D03*
X122145000Y-100400000D03*
D80*
X134765000Y-109390000D03*
D81*
X134365000Y-108490000D03*
X133865000Y-108490000D03*
X133365000Y-108490000D03*
X132865000Y-108490000D03*
X132365000Y-108490000D03*
X131865000Y-108490000D03*
X131365000Y-108490000D03*
X130865000Y-108490000D03*
D80*
X130465000Y-109390000D03*
X130465000Y-110890000D03*
D81*
X130865000Y-111790000D03*
X131365000Y-111790000D03*
X131865000Y-111790000D03*
X132365000Y-111790000D03*
X132865000Y-111790000D03*
X133365000Y-111790000D03*
X133865000Y-111790000D03*
X134365000Y-111790000D03*
D80*
X134765000Y-110890000D03*
D82*
X133140000Y-109365000D03*
X132090000Y-109365000D03*
X133890000Y-110140000D03*
X133140000Y-110140000D03*
D83*
X132615000Y-110140000D03*
D82*
X132090000Y-110140000D03*
X131340000Y-110140000D03*
X133140000Y-110915000D03*
X132090000Y-110915000D03*
D27*
X115889300Y-91615000D03*
X115249300Y-91615000D03*
D48*
X152495000Y-108665000D03*
X152495000Y-109305000D03*
D16*
X196231027Y-92922173D03*
X195271027Y-92922173D03*
D48*
X131865000Y-106705000D03*
X131865000Y-107345000D03*
X108285000Y-103275000D03*
X108285000Y-103915000D03*
D84*
X116076274Y-112476274D03*
X115623726Y-112023726D03*
D23*
X198996027Y-93222173D03*
X199956027Y-93222173D03*
D21*
X188801027Y-89652173D03*
X188801027Y-88692173D03*
D17*
X139290000Y-107300000D03*
X139930000Y-107300000D03*
D27*
X113685000Y-100120000D03*
X113045000Y-100120000D03*
D69*
X133075000Y-104025000D03*
X133075000Y-105575000D03*
D32*
X193441027Y-91547173D03*
X194411027Y-91547173D03*
D85*
X120462500Y-110637500D03*
X119962500Y-110637500D03*
X119462500Y-110637500D03*
X118962500Y-110637500D03*
X118462500Y-110637500D03*
X117962500Y-110637500D03*
D86*
X117250000Y-111350000D03*
X117250000Y-111850000D03*
X117250000Y-112350000D03*
X117250000Y-112850000D03*
X117250000Y-113350000D03*
X117250000Y-113850000D03*
D85*
X117962500Y-114562500D03*
X118462500Y-114562500D03*
X118962500Y-114562500D03*
X119462500Y-114562500D03*
X119962500Y-114562500D03*
X120462500Y-114562500D03*
D86*
X121175000Y-113850000D03*
X121175000Y-113350000D03*
X121175000Y-112850000D03*
X121175000Y-112350000D03*
X121175000Y-111850000D03*
X121175000Y-111350000D03*
D87*
X119212500Y-112600000D03*
D17*
X151730000Y-94800000D03*
X152370000Y-94800000D03*
X125355000Y-95550000D03*
X125995000Y-95550000D03*
X116280000Y-105147500D03*
X116920000Y-105147500D03*
D18*
X183601027Y-87617173D03*
X183601027Y-86977173D03*
X117212500Y-109565000D03*
X117212500Y-108925000D03*
D17*
X125380000Y-94850000D03*
X126020000Y-94850000D03*
D27*
X121905000Y-89505000D03*
X121265000Y-89505000D03*
D47*
X135805000Y-107865000D03*
X135805000Y-108825000D03*
D17*
X131405000Y-94500000D03*
X132045000Y-94500000D03*
D69*
X131600000Y-104025000D03*
X131600000Y-105575000D03*
D60*
X140745000Y-86800000D03*
X141495000Y-86796400D03*
X140735000Y-84140000D03*
X141485000Y-84136400D03*
D17*
X204756027Y-110122173D03*
X205396027Y-110122173D03*
D48*
X113745000Y-104565000D03*
X113745000Y-105205000D03*
D18*
X128495000Y-114570000D03*
X128495000Y-113930000D03*
D27*
X117145000Y-100400000D03*
X116505000Y-100400000D03*
D16*
X180276027Y-90842173D03*
X179316027Y-90842173D03*
D21*
X135815000Y-110655000D03*
X135815000Y-109695000D03*
D48*
X125635000Y-88635000D03*
X125635000Y-89275000D03*
D17*
X197881027Y-90972173D03*
X198521027Y-90972173D03*
X114185000Y-93265000D03*
X114825000Y-93265000D03*
D33*
X132150000Y-115380000D03*
X132150000Y-113830000D03*
D27*
X114809184Y-94665000D03*
X114169184Y-94665000D03*
D88*
X129050000Y-107365000D03*
X129050000Y-108385000D03*
D42*
X116100000Y-115410000D03*
X116100000Y-114390000D03*
D41*
X136035000Y-105025000D03*
X137585000Y-105025000D03*
D21*
X114405000Y-92470000D03*
X114405000Y-91510000D03*
D17*
X114174184Y-93965000D03*
X114814184Y-93965000D03*
D24*
X157915000Y-103565000D03*
X157915000Y-101665000D03*
D21*
X180271027Y-92697173D03*
X180271027Y-91737173D03*
X117669300Y-91356905D03*
X117669300Y-90396905D03*
D16*
X192556027Y-91547173D03*
X191596027Y-91547173D03*
D14*
X202926027Y-92272173D03*
D15*
X204451027Y-90797173D03*
X204451027Y-93747173D03*
D89*
X100250000Y-106685000D03*
X100250000Y-95485000D03*
D27*
X131010000Y-112715000D03*
X130370000Y-112715000D03*
D90*
X127505000Y-112400000D03*
X128005000Y-112400000D03*
X128505000Y-112400000D03*
X129005000Y-112400000D03*
X129005000Y-109500000D03*
X128505000Y-109500000D03*
X128005000Y-109500000D03*
X127505000Y-109500000D03*
D91*
X128255000Y-110950000D03*
D48*
X122907500Y-111797500D03*
X122907500Y-112437500D03*
D23*
X114505000Y-100205000D03*
X115465000Y-100205000D03*
D92*
X161751027Y-100777173D03*
X161751027Y-103317173D03*
X161751027Y-105857173D03*
X161751027Y-108397173D03*
X161751027Y-110937173D03*
X184251027Y-110977173D03*
X184251027Y-108437173D03*
X184251027Y-105897173D03*
X184251027Y-103357173D03*
X184251027Y-100817173D03*
X184251027Y-98277173D03*
D16*
X200381027Y-99097173D03*
X199421027Y-99097173D03*
D18*
X117927500Y-109565000D03*
X117927500Y-108925000D03*
D27*
X141435000Y-82723600D03*
X140795000Y-82723600D03*
D18*
X152505000Y-107905000D03*
X152505000Y-107265000D03*
D93*
X147725000Y-103972500D03*
X147725000Y-108597500D03*
D94*
X115595000Y-99245000D03*
X115595000Y-98745000D03*
X115595000Y-98245000D03*
X115595000Y-97745000D03*
X113095000Y-97745000D03*
X113095000Y-98245000D03*
X113095000Y-98745000D03*
X113095000Y-99245000D03*
D95*
X114345000Y-98495000D03*
D96*
X108735000Y-95490000D03*
X108735000Y-97140000D03*
D21*
X190676027Y-93422173D03*
X190676027Y-92462173D03*
D48*
X121475000Y-108935000D03*
X121475000Y-109575000D03*
D21*
X116744300Y-91356905D03*
X116744300Y-90396905D03*
D18*
X120060000Y-109575000D03*
X120060000Y-108935000D03*
D97*
X121675000Y-117705000D03*
X115895000Y-117705000D03*
D98*
X123105000Y-121385000D03*
D99*
X123105000Y-117185000D03*
D98*
X114465000Y-121385000D03*
D99*
X114465000Y-117185000D03*
D100*
X114900000Y-84325000D03*
D101*
X116900000Y-84325000D03*
X118900000Y-84325000D03*
X120900000Y-84325000D03*
X122900000Y-84325000D03*
D102*
X133645000Y-117910000D03*
D101*
X131645000Y-117910000D03*
D100*
X129575000Y-84350000D03*
D101*
X131575000Y-84350000D03*
X133575000Y-84350000D03*
X135575000Y-84350000D03*
M02*
